<?xml version="1.0" encoding="utf-8"?>
<!-- Generator: Adobe Illustrator 19.1.0, SVG Export Plug-In . SVG Version: 6.00 Build 0)  -->
<svg version="1.1" xmlns="http://www.w3.org/2000/svg" xmlns:xlink="http://www.w3.org/1999/xlink" x="0px" y="0px"
	 viewBox="0 0 269.3 487.6" style="enable-background:new 0 0 269.3 487.6;" xml:space="preserve">
<style type="text/css">
	.st0{fill:url(#SVGID_1_);}
	.st1{fill:#C6C7C8;stroke:#000000;stroke-width:0.5;}
	.st2{fill:url(#SVGID_2_);}
	.st3{fill:none;stroke:#000000;stroke-width:0.5;}
	.st4{fill:#AF0917;stroke:#000000;stroke-width:0.5;}
	.st5{fill:#E2001A;stroke:#000000;stroke-width:0.5;}
	.st6{fill:#AF0917;}
	.st7{fill:#FFF59B;stroke:#000000;stroke-width:0.5;}
	.st8{fill:#E2001A;}
	.st9{fill:#C6C7C8;}
	.st10{fill:#58585A;stroke:#000000;stroke-width:0.5;}
	.st11{font-family:'Verdana';}
	.st12{font-size:9px;}
</style>
<g id="Lag_11">
	<linearGradient id="SVGID_1_" gradientUnits="userSpaceOnUse" x1="134.6455" y1="487.5585" x2="134.6455" y2="6.170545e-06">
		<stop  offset="2.861970e-02" style="stop-color:#0087C7"/>
		<stop  offset="0.1741" style="stop-color:#55A8D9"/>
		<stop  offset="0.3106" style="stop-color:#8AC5E8"/>
		<stop  offset="0.4172" style="stop-color:#A6D8F2"/>
		<stop  offset="0.4809" style="stop-color:#B0DFF5"/>
		<stop  offset="0.5662" style="stop-color:#ABDDF2"/>
		<stop  offset="0.6663" style="stop-color:#9CD6EA"/>
		<stop  offset="0.7737" style="stop-color:#81CBDC"/>
		<stop  offset="0.8864" style="stop-color:#53BCC8"/>
		<stop  offset="1" style="stop-color:#00AAB0"/>
	</linearGradient>
	<rect y="0" class="st0" width="269.3" height="487.6"/>
</g>
<g id="under_vene">
	<polygon class="st1" points="125,188.8 123.9,206.2 133.2,205.1 138.2,202.6 137.8,192.4 	"/>
	<polygon class="st1" points="149.9,212.4 149.9,221 157.9,214.9 	"/>
</g>
<g id="vene">
	<g>
		<g>
			
				<linearGradient id="SVGID_2_" gradientUnits="userSpaceOnUse" x1="119.939" y1="408.7353" x2="119.939" y2="130.8754" gradientTransform="matrix(1 0 0 1 7 -22)">
				<stop  offset="0" style="stop-color:#9E042D"/>
				<stop  offset="0.2018" style="stop-color:#A1042D"/>
				<stop  offset="0.399" style="stop-color:#A9042D"/>
				<stop  offset="0.5945" style="stop-color:#B6022A"/>
				<stop  offset="0.7889" style="stop-color:#C80026"/>
				<stop  offset="0.9809" style="stop-color:#E0001C"/>
				<stop  offset="1" style="stop-color:#E2001A"/>
			</linearGradient>
			<path class="st2" d="M188.2,134.1c-1.5,1.1-3.2,5.2-3.5,8.9s-1.9,8.6-4.1,10.8s-8.9,6.6-10.5,8.6s-1.2,2.1-2.2,1.6
				s-0.2-2.4,0.2-6.2s-2.2-8.6-3.2-13s-9.6-8-9.8-9.1s1.8-3.1,2.2-6.5s0.8-9.2-2.1-14.8s-8.5-5.5-8.5-5.5s-0.4,1.9-0.4,3
				c3.2,0.2,5.1,2.1,7.4,7.5s-2,15.4-3,17.4s-7.8,9.5-9.5,11.5s-3.2,8.4-6,9.8s-17.8,12.2-19,12.8s-1.4-0.6-1.4-0.6l-4.1-7.4
				c0,0-1.1,0.8-3.4,1.9c3.6,5,5.9,13,6.5,17.5s-2,14.5-1.8,20.1S111.9,216,110,221s-1,14.6,0.6,17.8s1.1,13.5,1.9,16.9
				s5.9,12.8,4.6,20.4s-3.7,7.3-13.8,11.5c-10,4.2-22.5,37.5-22.5,37.5s-1.8-53.5-1.7-56.6s4.9-14,4.9-14s-0.1-2.4-0.1-5.2
				c-2.8,2.4-4.8,9.8-4.8,9.8l-0.8-36.1l-8.8,0.1c0,0-0.2,18.4-0.2,21.4c-0.4-1.8-5.2-6.8-5.2-6.8s0,1.5-0.4,4.4c2,2.5,4.6,9,5,10.5
				s2.1,33.1,2.1,33.1c-0.5-1.6-4.4-7.5-4.4-7.5s-0.1,4.4-0.2,6.5c1.5,2,3.9,10.8,4.2,14.8s0.9,42.5,0.9,47.6
				c6.6,2.2,9.4-0.1,9.4-0.1s0.5-9.8,0.8-12.2s5.1-12.1,8-17.8C93,309.8,99.2,292,106,291c8.7-1.3,10,3,11.1,4.4
				c1.2,1.5,0.6,17.9,1.4,22.4s0,6-0.8,8.8s0,14.1,1,16.5s1.9,5.4,1.5,7.5s0,8.8,2,11.1s1.6,2.8,2.1,7.4s5.2,7.5,6.1,7.8
				s0.6,2.5,2.1,3.8c4.4,3.7,10.4,6.9,17.2,6.1s10.1-4.8,13.6-10.1s4.5-12.1,4.4-13.9s1.5-5.8,3.2-10.2s0.1-15.8-1.8-21.2
				s-1.1-7-0.1-9.6s0.9-12.4-0.5-15.9s-0.4-3.4,0.6-7.1s-1.9-6.5,0.9-13.9s4.4-14.5,4-16s-0.2-2.5,2.1-6.9s2-18.4,0.9-21.6
				s0.8-7.6,0.6-11.9s-2.1-10.8-3.9-13.2s-2.5-3.8-1.1-7.4s0.5-8.5-0.9-13.1s-2-5.4-1-8.5s1.4-4.8,0.6-11.5s0.8-7.4,2.1-10.2
				s9.6-7.5,11.5-9.8s2.6-8.2,2.8-11.2s2.1-6.2,2.1-6.2S190.2,136.5,188.2,134.1z M169.4,201.1c0,4,0.2,7.4-3.8,9.2
				c-3.3,1.4-8.8,1.7-12.1,0.3c-3.1-1.3-6.8-2.4-8.8-5.3c-1.2-1.7-1.5-3.3-0.4-5.1c0.8-1.3,2.4-2.7,3.8-3.4c2-1.1,4.2-1.2,6.3-1.9
				l0.1-0.2c1.2,0.6,3.9-0.8,5.1-1c1.7-0.3,3.7-1.3,5.4-1.4C168.1,192.3,169.4,198.6,169.4,201.1z M137,189.9
				c-3.4-1.5-6.6-2.7-10.4-3.1c-1.8-0.2-4.1-0.1-5.8-0.5c-2.9-0.7-1-2.1,0.5-2.9c1.5-0.8,3.2-1.5,5-1.8c1.3-0.2,4.7-1.5,5.2-0.4
				c0,0,0.1,0,0.1,0l0.1-0.4c1.5-1.1,3.5-0.9,5.3-1.3c1.8-0.5,3.4-1.2,5.1-2c1.5-0.7,3.4-1.7,5-1.8c1.9-0.1,4,0.4,5.9,0.6
				c3.7,0.4,7.1,1.6,10.9,2c3.9,0.4,4.9,5,3.3,7.9c-2,3.6-5.2,3.9-8.8,4.6c-3.6,0.7-7.4,1.7-11.2,2.1
				C143.6,193.2,140.1,191.3,137,189.9z M145.4,149.7c1-1.2,2-2.6,3.1-3.8c1.6-1.8,4.7-6.3,7.4-5.1c3.8,1.7,3.5,5.6,5.4,8.5
				c1.4,2.3,4.5,7.1,2.3,9.8c-1.2,1.5-3.1-0.8-4.3-1.5c-1.5-0.9-3.4-1.5-5.2-1.7c-0.3,0-0.6-0.3-0.6-0.1c0.1,0,0.2,0.1,0.3,0.1h-0.2
				c0-0.1,0-0.1,0-0.1c-1.4-0.8-3.8-0.5-5.4-0.6c-1.6-0.2-4.5,0.8-4.9-1C142.8,152.5,144.4,151,145.4,149.7z M151.8,159
				c1,0.2,2.1,0.5,3,1.1c-0.2,0-0.2,0.1-0.3,0.1l0.5-0.1c2.7,0,7.1,2.9,9,5c1.5,1.7,5.7,7,3.4,9.2c-1.3,1.3-3.8,0.6-5.3,0.4
				c-1.8-0.3-3.6-0.7-5.4-1c-3.1-0.5-6.9-1.7-9.3-3.9c-2.5-2.2-4.3-5.7-4.8-8.8C141.7,156.7,149.4,158.5,151.8,159z M116.7,175.6
				c0.6-1.5,2.9-2.5,4.1-3.4c1.5-1,2.9-2.2,4.3-3.3c1.3-1,2.8-2.6,4.5-3c0,0,0,0.1,0,0.1c0.7-1.2,2.9-2.3,3.9-3.2
				c1-0.9,2.9-2.9,4.3-2c1.1,0.7,1.7,3.3,2.2,4.4c0.7,1.6,1.7,2.9,2.6,4.3c1.1,1.7,1.5,2.8-0.3,4.1c-1.5,1.1-3.4,1.6-5.1,1.8
				c-3.5,0.4-7.4,1-10.6,2.1c-1.7,0.6-3.3,1.1-5,1.9c-1,0.4-3.4,2.2-4.4,1.4c-0.7-0.6-0.2-1.9-0.2-2.7
				C117,177.5,116.4,176.5,116.7,175.6z M115.2,207.1c0.8-4.6,0.6-7,0.8-8.5s0.6-6.8,0.6-6.8s-0.1-3,0.9-3.1s4.6,0.8,6.1,1
				c1,0.2,4.1,0,6.8,1.1s6.8,2.8,8,3.4s5.6,1.5,3.6,3.5s-4.5,4.1-6.1,4.5s-9,2.4-11,3.1s-4.6,1.9-6.1,2.5S114.5,211.8,115.2,207.1z
				 M113,225.1c0.2-3.7,2.4-7.6,3.9-10.7c0.8-1.6,1.6-3,3.2-3.9c1.8-0.9,3.7-1.6,5.6-2.1c3.8-1,8.1-1.3,11.5-3
				c2.2-1.1,2.5-0.5,4.1,1.2c1.2,1.3,2.4,2.7,3.7,3.8c1.2,1.1,2.7,2.1,4.1,2.9c0.9,0.5,1.8,0.7,2.8,0.8c0.7,0.1,2.3-0.2,2.7,0.5
				c0.7,1.3-2.5,2.7-3.3,3.2c-1.5,0.9-2.4,2.2-3.6,3.4c-2.3,2.4-4.7,5-7.1,7.4c-1.2,1.2-3.1,1.4-4.6,1.7c-1.3,0.3-4.4,0.5-4.8,2.1
				l-1,0.4c0.8-1-1.4-0.9-2-0.9c-2,0-3.9,0.6-5.7,1.5c-1.6,0.8-5.2,4.8-7,4.3C111.7,236.5,112.8,228.6,113,225.1z M116,249.2
				c0.4-3.7,1-4.8,3.1-7.9c2.2-3.2,6.1-5.1,9.9-5.7c0,0.1,0,0.2,0,0.4v-0.4c1.7-0.4,3.8-0.7,5.6-1c1.5-0.2,3.9-1.6,4.5,0.4
				c0.6,1.8-0.1,4,0.1,5.9c0.3,1.9,0.7,3.8,1,5.8c0.4,2.7-0.5,2.8-2.7,3.9c-2.1,1-3.9,2.4-5.6,3.9c-3.2,2.8-5.8,5.9-8.3,9.2
				c-0.6,0.8-2.3,3.8-3.5,3.1c-0.6-0.4-0.6-2-0.7-2.5c-0.2-0.9-0.5-1.8-0.8-2.7C117.2,258.2,115.6,253,116,249.2z M116.7,289.7
				c-1.3-1.8-0.1-3,1-4.5c1.1-1.6,1.9-3,2.2-4.9c0.4-1.8,0.6-3.7,1-5.6c0.4-2,1.1-2.9,2.5-4.5c2.7-2.9,5-5.9,7.3-8.9
				c2.4-3,5.1-5,8.2-7.1c0.5-0.3,1.7-1.5,2.4-1.4c1,0.1,1,1.4,1.1,2.1c0.4,1.9,0.5,4,0.7,6c0.2,1.9,0.5,3.7,1.7,5.2
				c1.2,1.6,1.5,3,0.4,4.9c-1.7,3.2-3.9,6.2-5.8,9.3c-1,1.6-1.5,3.2-2.9,4.6c-1.2,1.1-2.6,1.7-3.7,3l-0.4-0.1
				c-3.3,0.8-6,3.5-8.6,5.6C121.1,295.7,118.1,291.8,116.7,289.7z M166.6,318.2c-0.4,3.4-4.2,6.1-7.1,7.6c-3.8,1.9-7.3,1.4-11.2,0.5
				c-1.6-0.4-4.1-0.3-3.3-2.5c0.6-1.7,1.6-3.2,2.1-5c0.9-3.5,2-7.2,6-8.2c0.4-0.1,0.8-0.1,1.1-0.3c0.2,0.1,0.1,0.3,0.1,0.5l0.8-0.8
				c1.8-0.6,3.3-0.8,5-1.7c1.6-0.9,3.4-1.5,5.1-0.7c2.1,1.1,1.1,2.9,1.1,4.8C166.3,314.3,166.8,316.3,166.6,318.2z M143,320.7
				c-0.9,1.8-1.9,3.1-3.6,4.2c-2,1.3-3.4,1-5.6,0.5c-3.2-0.7-7.8-0.9-10-3.9c-1.3-1.7-1.3-4-1.5-6c-0.2-2-0.6-4-0.7-6
				c-0.1-1,0-2.1-0.1-3.1c-0.1-0.9-0.6-2.1-0.3-3c0.7-2.1,2.6,0.7,3.4,1.6c1.9,2.1,5.1,6,8,6.4l1,0.4c2.6-0.7,6.3-0.1,8.9,0.1
				c2.4,0.2,3.5,1.1,2.8,3.5C144.7,317.2,143.9,318.9,143,320.7z M163.5,304.3c-0.6,0.7-1.9,0.6-2.7,0.7c-2.2,0.1-3.8,0.5-5.8,1.3
				c-1.5,0.6-3.6,1.3-5,2.3c-1.7,1.2-2.1,2.3-4.3,1.5c-1.7-0.6-3.6-1-5.4-1.3c-3.7-0.6-8,0.5-10.9-2.4c-1.3-1.3-2.2-2.8-3.3-4.2
				c-1.3-1.6-2.3-2.8-1.2-4.8c0.8-1.4,2.7-2.5,4-3.4c1.3-0.8,2.7-1.8,3.8-2.7l0.8-0.1c0.9-1.4,4.2-1.1,5.5-0.5
				c3.1,1.4,5.2,5.1,7.6,7.5c2.9,2.8,6.6,3,10.4,3.3c1,0.1,1.8,0.5,2.8,0.6c1,0.1,2,0,2.9,0.2C163.6,302.8,164.3,303.4,163.5,304.3z
				 M122.2,342.7c-1.5-3.7-1.4-7.8-1.2-11.9c0.1-1.4-0.3-4.4,1.2-5c1.3-0.5,3.9,1.4,5.1,2c3.7,1.7,7.6,1.4,11.6,0.6
				c1.2-0.2,2.4-0.8,3.6-0.3c1,0.4,1.9,1.3,2.9,1.9c1.1,0.7,2.4,1.3,2.3,2.9c-0.1,1.2-1.4,2.1-1.6,3.2c-0.1,0-0.1,0-0.2,0
				c-0.6,2.4-2.8,5.3-4.9,6.6c-2.6,1.5-5.9,1.8-8.6,2.8c0.1,0.2,0.1,0.5,0.2,0.7l-1.2-0.2c-0.7,0.4-3.6-0.4-5.1-0.5
				C124.1,345.5,123,344.7,122.2,342.7z M124,358.6c-1-1.4-1.1-3.7-1-5.5c0-1.5,0.3-3.8,2-4.3c0.8-0.2,1.9,0.1,2.8,0.1
				c1,0.1,1.9,0,2.9-0.2c0,0.2,0.1,0.3,0.1,0.5l0.9-0.8c2,0,3.5-1.1,5.4-1.4c3.1-0.4,1.4,2.6,0,3.7c-3,2.4-6.3,4.3-9.1,6.9
				C126.7,358.7,125.3,360.5,124,358.6z M132.4,372.3c-1.9,0.3-2.9-1.7-3.7-3.1c-1.1-1.9-2.1-4.3-0.9-6.4c1.1-2,3.5-3.3,5.4-4.3
				c0,0.2,0.1,0.3,0.1,0.4l0.6-1.1c3-1.5,5.3-4.9,7.5-7.4c1.9-2.1,2.2,1.1,2.2,2.7c0,2.1-0.3,4.2-1,6.2c-1.2,3.7-2.9,7.2-5.9,9.8
				C135.7,370.2,133.9,372.1,132.4,372.3z M161.4,373.6c-1.6,3.7-4.7,7.2-8.4,8.8c-3.4,1.4-7.6,0.7-11-0.6c-2.4-0.9-7.4-3.4-6.8-6.6
				c0.3-2,2.6-2.4,4-3.6c1.3-1.2,2.4-2.7,3.4-4.1c2-2.8,3.2-6.2,4.2-9.5c0.6-2,0.2-3.9,0.5-5.8c0.2-1.2,0.5-0.9,1.6-0.3
				c0.8,0.5,1.5,1,2.3,1.4c0.6,0.4,1.2,0.7,1.9,1c0.1,0.3-0.1,0.3-0.2,0.5l1.1-0.1c2.5,2.5,6.9,6.6,7.9,9
				C163.3,367.2,163,369.8,161.4,373.6z M167.9,346.4c-0.3,3.5-1.1,8.2-3.1,11.2c-1.7,2.4-3.4,0.6-4.9-0.9c-1.3-1.3-3.7-3.3-4.2-4.4
				l-0.6-0.6c-1.3-1.1-2.7-2.3-4.2-3.1c-1.5-0.9-3.4-1.7-4.2-3.4c-0.9-2,0.9-3.5,1.9-5.1c1-1.5,2.1-3,2.7-4.7c0.7-2.1,0.3-4,3-4.1
				c2.1-0.1,3.9-0.1,5.9-1c1.3-0.6,3.3-2.4,4.7-1.5c1.3,0.9,1.5,4.1,2,5.5C168,337.8,168.3,342.4,167.9,346.4z M169.6,274.6
				c-0.8,3.5-3,6.8-3.4,10.4c-0.4,4.1,0.7,8.4-0.6,12.3c-1.7,4.8-7,1.2-10.2,1.3c0,0.2,0,0.4,0.1,0.6l-0.8-0.5
				c-0.3-1.5-3.1-1.8-4.2-2.4c-1.3-0.7-2.5-1.8-3.7-2.8c-1.2-1.1-2-2.4-3.2-3.6c-1.2-1.2-3-2.5-2.7-4.4c0.3-1.6,1.6-3.4,2.4-4.8
				c0.9-1.6,2.1-3.2,3.2-4.7c0.9-1.3,1.6-3.4,2.8-4.5c1.4-1.3,3.9-0.4,5.4,0.1c3.5,1,8.2,0.7,11.3-1.1c1-0.6,3.4-2.9,4.1-1.8
				C170.9,269.7,169.9,273.4,169.6,274.6z M174.1,253.9c-0.3,3.1-1.8,7.4-4.3,9.6c-2.7,2.4-6.8,4.2-10.4,4.5
				c-1.9,0.2-3.5-0.4-5.3-0.6c-2-0.3-3.6-1.1-5.1-2.6c-2.6-2.7-3.4-7.6-2.7-11.1c0.8-4.3,3.5-5.8,7.2-7.6c0.6-0.3,1.4-0.7,1.8-1
				c-0.2,0.3-0.4,0.6-0.5,0.9l2.1-2.1c1.7,0,3.5-1.6,5-2.1c1.7-0.6,3.4-1.2,5-2c1.2-0.6,3.1-2.1,4.3-2.3c2.3-0.2,2.1,2.8,2.4,4.4
				C174.4,245.5,174.6,250,174.1,253.9z M173.6,226.1c0.9,4.1-0.3,7.1-4.3,8.6c-2.2,0.8-4.3,1.7-6.5,2.5c-2.1,0.7-4,2-6,2.6
				c-0.1-0.2-0.2-0.4-0.3-0.6l-0.6,1c-1.2,1-3.1,1.4-4.5,2.1c-1.6,0.8-2.8,1.6-4,3c-0.7,0.7-2.6,3.8-3.5,1.7c-0.3-0.8,0.1-2.2,0-3.1
				c-0.1-0.9-0.7-1.7-0.9-2.5c-0.5-1.9,0.1-4,0.1-6c0-1.9,0.3-3.7,1.2-5.2c1-1.5,2.8-2.7,4-4.1c1.1-1.3,2.4-2.5,3.6-3.7
				c1.3-1.3,2.8-2.4,4.2-3.6c1.2-1,2.1-2.5,3.4-3.2c1.6-0.9,3.6-0.9,5.4-1.4c2-0.6,3.1-0.7,4.4,1.2
				C171.5,218.3,172.9,222.8,173.6,226.1z"/>
		</g>
		<g>
			<path class="st3" d="M188.2,134.1c-1.5,1.1-3.2,5.2-3.5,8.9s-1.9,8.6-4.1,10.8s-8.9,6.6-10.5,8.6s-1.2,2.1-2.2,1.6
				s-0.2-2.4,0.2-6.2s-2.2-8.6-3.2-13s-9.6-8-9.8-9.1s1.8-3.1,2.2-6.5s0.8-9.2-2.1-14.8s-8.5-5.5-8.5-5.5s-0.4,1.9-0.4,3
				c3.2,0.2,5.1,2.1,7.4,7.5s-2,15.4-3,17.4s-7.8,9.5-9.5,11.5s-3.2,8.4-6,9.8s-17.8,12.2-19,12.8s-1.4-0.6-1.4-0.6l-4.1-7.4
				c0,0-1.1,0.8-3.4,1.9c3.6,5,5.9,13,6.5,17.5s-2,14.5-1.8,20.1S111.9,216,110,221s-1,14.6,0.6,17.8s1.1,13.5,1.9,16.9
				s5.9,12.8,4.6,20.4s-3.7,7.3-13.8,11.5c-10,4.2-22.5,37.5-22.5,37.5s-1.8-53.5-1.7-56.6s4.9-14,4.9-14s-0.1-2.4-0.1-5.2
				c-2.8,2.4-4.8,9.8-4.8,9.8l-0.8-36.1l-8.8,0.1c0,0-0.2,18.4-0.2,21.4c-0.4-1.8-5.2-6.8-5.2-6.8s0,1.5-0.4,4.4c2,2.5,4.6,9,5,10.5
				s2.1,33.1,2.1,33.1c-0.5-1.6-4.4-7.5-4.4-7.5s-0.1,4.4-0.2,6.5c1.5,2,3.9,10.8,4.2,14.8s0.9,42.5,0.9,47.6
				c6.6,2.2,9.4-0.1,9.4-0.1s0.5-9.8,0.8-12.2s5.1-12.1,8-17.8C93,309.8,99.2,292,106,291c8.7-1.3,10,3,11.1,4.4
				c1.2,1.5,0.6,17.9,1.4,22.4s0,6-0.8,8.8s0,14.1,1,16.5s1.9,5.4,1.5,7.5s0,8.8,2,11.1s1.6,2.8,2.1,7.4s5.2,7.5,6.1,7.8
				s0.6,2.5,2.1,3.8c4.4,3.7,10.4,6.9,17.2,6.1s10.1-4.8,13.6-10.1s4.5-12.1,4.4-13.9s1.5-5.8,3.2-10.2s0.1-15.8-1.8-21.2
				s-1.1-7-0.1-9.6s0.9-12.4-0.5-15.9s-0.4-3.4,0.6-7.1s-1.9-6.5,0.9-13.9s4.4-14.5,4-16s-0.2-2.5,2.1-6.9s2-18.4,0.9-21.6
				s0.8-7.6,0.6-11.9s-2.1-10.8-3.9-13.2s-2.5-3.8-1.1-7.4s0.5-8.5-0.9-13.1s-2-5.4-1-8.5s1.4-4.8,0.6-11.5s0.8-7.4,2.1-10.2
				s9.6-7.5,11.5-9.8s2.6-8.2,2.8-11.2s2.1-6.2,2.1-6.2S190.2,136.5,188.2,134.1z M169.4,201.1c0,4,0.2,7.4-3.8,9.2
				c-3.3,1.4-8.8,1.7-12.1,0.3c-3.1-1.3-6.8-2.4-8.8-5.3c-1.2-1.7-1.5-3.3-0.4-5.1c0.8-1.3,2.4-2.7,3.8-3.4c2-1.1,4.2-1.2,6.3-1.9
				l0.1-0.2c1.2,0.6,3.9-0.8,5.1-1c1.7-0.3,3.7-1.3,5.4-1.4C168.1,192.3,169.4,198.6,169.4,201.1z M137,189.9
				c-3.4-1.5-6.6-2.7-10.4-3.1c-1.8-0.2-4.1-0.1-5.8-0.5c-2.9-0.7-1-2.1,0.5-2.9c1.5-0.8,3.2-1.5,5-1.8c1.3-0.2,4.7-1.5,5.2-0.4
				c0,0,0.1,0,0.1,0l0.1-0.4c1.5-1.1,3.5-0.9,5.3-1.3c1.8-0.5,3.4-1.2,5.1-2c1.5-0.7,3.4-1.7,5-1.8c1.9-0.1,4,0.4,5.9,0.6
				c3.7,0.4,7.1,1.6,10.9,2c3.9,0.4,4.9,5,3.3,7.9c-2,3.6-5.2,3.9-8.8,4.6c-3.6,0.7-7.4,1.7-11.2,2.1
				C143.6,193.2,140.1,191.3,137,189.9z M145.4,149.7c1-1.2,2-2.6,3.1-3.8c1.6-1.8,4.7-6.3,7.4-5.1c3.8,1.7,3.5,5.6,5.4,8.5
				c1.4,2.3,4.5,7.1,2.3,9.8c-1.2,1.5-3.1-0.8-4.3-1.5c-1.5-0.9-3.4-1.5-5.2-1.7c-0.3,0-0.6-0.3-0.6-0.1c0.1,0,0.2,0.1,0.3,0.1h-0.2
				c0-0.1,0-0.1,0-0.1c-1.4-0.8-3.8-0.5-5.4-0.6c-1.6-0.2-4.5,0.8-4.9-1C142.8,152.5,144.4,151,145.4,149.7z M151.8,159
				c1,0.2,2.1,0.5,3,1.1c-0.2,0-0.2,0.1-0.3,0.1l0.5-0.1c2.7,0,7.1,2.9,9,5c1.5,1.7,5.7,7,3.4,9.2c-1.3,1.3-3.8,0.6-5.3,0.4
				c-1.8-0.3-3.6-0.7-5.4-1c-3.1-0.5-6.9-1.7-9.3-3.9c-2.5-2.2-4.3-5.7-4.8-8.8C141.7,156.7,149.4,158.5,151.8,159z M116.7,175.6
				c0.6-1.5,2.9-2.5,4.1-3.4c1.5-1,2.9-2.2,4.3-3.3c1.3-1,2.8-2.6,4.5-3c0,0,0,0.1,0,0.1c0.7-1.2,2.9-2.3,3.9-3.2
				c1-0.9,2.9-2.9,4.3-2c1.1,0.7,1.7,3.3,2.2,4.4c0.7,1.6,1.7,2.9,2.6,4.3c1.1,1.7,1.5,2.8-0.3,4.1c-1.5,1.1-3.4,1.6-5.1,1.8
				c-3.5,0.4-7.4,1-10.6,2.1c-1.7,0.6-3.3,1.1-5,1.9c-1,0.4-3.4,2.2-4.4,1.4c-0.7-0.6-0.2-1.9-0.2-2.7
				C117,177.5,116.4,176.5,116.7,175.6z M115.2,207.1c0.8-4.6,0.6-7,0.8-8.5s0.6-6.8,0.6-6.8s-0.1-3,0.9-3.1s4.6,0.8,6.1,1
				c1,0.2,4.1,0,6.8,1.1s6.8,2.8,8,3.4s5.6,1.5,3.6,3.5s-4.5,4.1-6.1,4.5s-9,2.4-11,3.1s-4.6,1.9-6.1,2.5S114.5,211.8,115.2,207.1z
				 M113,225.1c0.2-3.7,2.4-7.6,3.9-10.7c0.8-1.6,1.6-3,3.2-3.9c1.8-0.9,3.7-1.6,5.6-2.1c3.8-1,8.1-1.3,11.5-3
				c2.2-1.1,2.5-0.5,4.1,1.2c1.2,1.3,2.4,2.7,3.7,3.8c1.2,1.1,2.7,2.1,4.1,2.9c0.9,0.5,1.8,0.7,2.8,0.8c0.7,0.1,2.3-0.2,2.7,0.5
				c0.7,1.3-2.5,2.7-3.3,3.2c-1.5,0.9-2.4,2.2-3.6,3.4c-2.3,2.4-4.7,5-7.1,7.4c-1.2,1.2-3.1,1.4-4.6,1.7c-1.3,0.3-4.4,0.5-4.8,2.1
				l-1,0.4c0.8-1-1.4-0.9-2-0.9c-2,0-3.9,0.6-5.7,1.5c-1.6,0.8-5.2,4.8-7,4.3C111.7,236.5,112.8,228.6,113,225.1z M116,249.2
				c0.4-3.7,1-4.8,3.1-7.9c2.2-3.2,6.1-5.1,9.9-5.7c0,0.1,0,0.2,0,0.4v-0.4c1.7-0.4,3.8-0.7,5.6-1c1.5-0.2,3.9-1.6,4.5,0.4
				c0.6,1.8-0.1,4,0.1,5.9c0.3,1.9,0.7,3.8,1,5.8c0.4,2.7-0.5,2.8-2.7,3.9c-2.1,1-3.9,2.4-5.6,3.9c-3.2,2.8-5.8,5.9-8.3,9.2
				c-0.6,0.8-2.3,3.8-3.5,3.1c-0.6-0.4-0.6-2-0.7-2.5c-0.2-0.9-0.5-1.8-0.8-2.7C117.2,258.2,115.6,253,116,249.2z M116.7,289.7
				c-1.3-1.8-0.1-3,1-4.5c1.1-1.6,1.9-3,2.2-4.9c0.4-1.8,0.6-3.7,1-5.6c0.4-2,1.1-2.9,2.5-4.5c2.7-2.9,5-5.9,7.3-8.9
				c2.4-3,5.1-5,8.2-7.1c0.5-0.3,1.7-1.5,2.4-1.4c1,0.1,1,1.4,1.1,2.1c0.4,1.9,0.5,4,0.7,6c0.2,1.9,0.5,3.7,1.7,5.2
				c1.2,1.6,1.5,3,0.4,4.9c-1.7,3.2-3.9,6.2-5.8,9.3c-1,1.6-1.5,3.2-2.9,4.6c-1.2,1.1-2.6,1.7-3.7,3l-0.4-0.1
				c-3.3,0.8-6,3.5-8.6,5.6C121.1,295.7,118.1,291.8,116.7,289.7z M166.6,318.2c-0.4,3.4-4.2,6.1-7.1,7.6c-3.8,1.9-7.3,1.4-11.2,0.5
				c-1.6-0.4-4.1-0.3-3.3-2.5c0.6-1.7,1.6-3.2,2.1-5c0.9-3.5,2-7.2,6-8.2c0.4-0.1,0.8-0.1,1.1-0.3c0.2,0.1,0.1,0.3,0.1,0.5l0.8-0.8
				c1.8-0.6,3.3-0.8,5-1.7c1.6-0.9,3.4-1.5,5.1-0.7c2.1,1.1,1.1,2.9,1.1,4.8C166.3,314.3,166.8,316.3,166.6,318.2z M143,320.7
				c-0.9,1.8-1.9,3.1-3.6,4.2c-2,1.3-3.4,1-5.6,0.5c-3.2-0.7-7.8-0.9-10-3.9c-1.3-1.7-1.3-4-1.5-6c-0.2-2-0.6-4-0.7-6
				c-0.1-1,0-2.1-0.1-3.1c-0.1-0.9-0.6-2.1-0.3-3c0.7-2.1,2.6,0.7,3.4,1.6c1.9,2.1,5.1,6,8,6.4l1,0.4c2.6-0.7,6.3-0.1,8.9,0.1
				c2.4,0.2,3.5,1.1,2.8,3.5C144.7,317.2,143.9,318.9,143,320.7z M163.5,304.3c-0.6,0.7-1.9,0.6-2.7,0.7c-2.2,0.1-3.8,0.5-5.8,1.3
				c-1.5,0.6-3.6,1.3-5,2.3c-1.7,1.2-2.1,2.3-4.3,1.5c-1.7-0.6-3.6-1-5.4-1.3c-3.7-0.6-8,0.5-10.9-2.4c-1.3-1.3-2.2-2.8-3.3-4.2
				c-1.3-1.6-2.3-2.8-1.2-4.8c0.8-1.4,2.7-2.5,4-3.4c1.3-0.8,2.7-1.8,3.8-2.7l0.8-0.1c0.9-1.4,4.2-1.1,5.5-0.5
				c3.1,1.4,5.2,5.1,7.6,7.5c2.9,2.8,6.6,3,10.4,3.3c1,0.1,1.8,0.5,2.8,0.6c1,0.1,2,0,2.9,0.2C163.6,302.8,164.3,303.4,163.5,304.3z
				 M122.2,342.7c-1.5-3.7-1.4-7.8-1.2-11.9c0.1-1.4-0.3-4.4,1.2-5c1.3-0.5,3.9,1.4,5.1,2c3.7,1.7,7.6,1.4,11.6,0.6
				c1.2-0.2,2.4-0.8,3.6-0.3c1,0.4,1.9,1.3,2.9,1.9c1.1,0.7,2.4,1.3,2.3,2.9c-0.1,1.2-1.4,2.1-1.6,3.2c-0.1,0-0.1,0-0.2,0
				c-0.6,2.4-2.8,5.3-4.9,6.6c-2.6,1.5-5.9,1.8-8.6,2.8c0.1,0.2,0.1,0.5,0.2,0.7l-1.2-0.2c-0.7,0.4-3.6-0.4-5.1-0.5
				C124.1,345.5,123,344.7,122.2,342.7z M124,358.6c-1-1.4-1.1-3.7-1-5.5c0-1.5,0.3-3.8,2-4.3c0.8-0.2,1.9,0.1,2.8,0.1
				c1,0.1,1.9,0,2.9-0.2c0,0.2,0.1,0.3,0.1,0.5l0.9-0.8c2,0,3.5-1.1,5.4-1.4c3.1-0.4,1.4,2.6,0,3.7c-3,2.4-6.3,4.3-9.1,6.9
				C126.7,358.7,125.3,360.5,124,358.6z M132.4,372.3c-1.9,0.3-2.9-1.7-3.7-3.1c-1.1-1.9-2.1-4.3-0.9-6.4c1.1-2,3.5-3.3,5.4-4.3
				c0,0.2,0.1,0.3,0.1,0.4l0.6-1.1c3-1.5,5.3-4.9,7.5-7.4c1.9-2.1,2.2,1.1,2.2,2.7c0,2.1-0.3,4.2-1,6.2c-1.2,3.7-2.9,7.2-5.9,9.8
				C135.7,370.2,133.9,372.1,132.4,372.3z M161.4,373.6c-1.6,3.7-4.7,7.2-8.4,8.8c-3.4,1.4-7.6,0.7-11-0.6c-2.4-0.9-7.4-3.4-6.8-6.6
				c0.3-2,2.6-2.4,4-3.6c1.3-1.2,2.4-2.7,3.4-4.1c2-2.8,3.2-6.2,4.2-9.5c0.6-2,0.2-3.9,0.5-5.8c0.2-1.2,0.5-0.9,1.6-0.3
				c0.8,0.5,1.5,1,2.3,1.4c0.6,0.4,1.2,0.7,1.9,1c0.1,0.3-0.1,0.3-0.2,0.5l1.1-0.1c2.5,2.5,6.9,6.6,7.9,9
				C163.3,367.2,163,369.8,161.4,373.6z M167.9,346.4c-0.3,3.5-1.1,8.2-3.1,11.2c-1.7,2.4-3.4,0.6-4.9-0.9c-1.3-1.3-3.7-3.3-4.2-4.4
				l-0.6-0.6c-1.3-1.1-2.7-2.3-4.2-3.1c-1.5-0.9-3.4-1.7-4.2-3.4c-0.9-2,0.9-3.5,1.9-5.1c1-1.5,2.1-3,2.7-4.7c0.7-2.1,0.3-4,3-4.1
				c2.1-0.1,3.9-0.1,5.9-1c1.3-0.6,3.3-2.4,4.7-1.5c1.3,0.9,1.5,4.1,2,5.5C168,337.8,168.3,342.4,167.9,346.4z M169.6,274.6
				c-0.8,3.5-3,6.8-3.4,10.4c-0.4,4.1,0.7,8.4-0.6,12.3c-1.7,4.8-7,1.2-10.2,1.3c0,0.2,0,0.4,0.1,0.6l-0.8-0.5
				c-0.3-1.5-3.1-1.8-4.2-2.4c-1.3-0.7-2.5-1.8-3.7-2.8c-1.2-1.1-2-2.4-3.2-3.6c-1.2-1.2-3-2.5-2.7-4.4c0.3-1.6,1.6-3.4,2.4-4.8
				c0.9-1.6,2.1-3.2,3.2-4.7c0.9-1.3,1.6-3.4,2.8-4.5c1.4-1.3,3.9-0.4,5.4,0.1c3.5,1,8.2,0.7,11.3-1.1c1-0.6,3.4-2.9,4.1-1.8
				C170.9,269.7,169.9,273.4,169.6,274.6z M174.1,253.9c-0.3,3.1-1.8,7.4-4.3,9.6c-2.7,2.4-6.8,4.2-10.4,4.5
				c-1.9,0.2-3.5-0.4-5.3-0.6c-2-0.3-3.6-1.1-5.1-2.6c-2.6-2.7-3.4-7.6-2.7-11.1c0.8-4.3,3.5-5.8,7.2-7.6c0.6-0.3,1.4-0.7,1.8-1
				c-0.2,0.3-0.4,0.6-0.5,0.9l2.1-2.1c1.7,0,3.5-1.6,5-2.1c1.7-0.6,3.4-1.2,5-2c1.2-0.6,3.1-2.1,4.3-2.3c2.3-0.2,2.1,2.8,2.4,4.4
				C174.4,245.5,174.6,250,174.1,253.9z M173.6,226.1c0.9,4.1-0.3,7.1-4.3,8.6c-2.2,0.8-4.3,1.7-6.5,2.5c-2.1,0.7-4,2-6,2.6
				c-0.1-0.2-0.2-0.4-0.3-0.6l-0.6,1c-1.2,1-3.1,1.4-4.5,2.1c-1.6,0.8-2.8,1.6-4,3c-0.7,0.7-2.6,3.8-3.5,1.7c-0.3-0.8,0.1-2.2,0-3.1
				c-0.1-0.9-0.7-1.7-0.9-2.5c-0.5-1.9,0.1-4,0.1-6c0-1.9,0.3-3.7,1.2-5.2c1-1.5,2.8-2.7,4-4.1c1.1-1.3,2.4-2.5,3.6-3.7
				c1.3-1.3,2.8-2.4,4.2-3.6c1.2-1,2.1-2.5,3.4-3.2c1.6-0.9,3.6-0.9,5.4-1.4c2-0.6,3.1-0.7,4.4,1.2
				C171.5,218.3,172.9,222.8,173.6,226.1z"/>
		</g>
	</g>
	<g>
		<ellipse class="st4" cx="74" cy="222.3" rx="4.5" ry="1.5"/>
		<ellipse class="st5" cx="74" cy="222.2" rx="3.2" ry="0.9"/>
	</g>
	<g>
		
			<ellipse transform="matrix(7.044618e-03 1 -1 7.044618e-03 346.6743 212.8201)" class="st4" cx="66.2" cy="281" rx="3.6" ry="1.1"/>
		
			<ellipse transform="matrix(6.839488e-03 1 -1 6.839488e-03 346.725 212.8943)" class="st5" cx="66.2" cy="281" rx="2.6" ry="0.7"/>
	</g>
	<g>
		
			<ellipse transform="matrix(7.058045e-03 1 -1 7.058045e-03 335.3393 164.9885)" class="st4" cx="84.6" cy="251.4" rx="2.7" ry="1.1"/>
		
			<ellipse transform="matrix(6.915954e-03 1 -1 6.915954e-03 335.382 165.0345)" class="st5" cx="84.6" cy="251.4" rx="2" ry="0.7"/>
	</g>
	<g>
		
			<ellipse transform="matrix(7.059177e-03 1 -1 7.059177e-03 302.8495 174.1349)" class="st4" cx="63.7" cy="239.6" rx="2.6" ry="1.1"/>
		
			<ellipse transform="matrix(6.920897e-03 1 -1 6.920897e-03 302.8877 174.1765)" class="st5" cx="63.8" cy="239.6" rx="1.9" ry="0.7"/>
	</g>
</g>
<g id="Lag_10">
	<polygon class="st6" points="148.3,103.4 139.5,96 132.5,93.3 124.7,95.4 121.5,98.5 118.5,105.7 117.8,112.9 119.1,118.8 
		123.4,125.3 131.7,129.6 139.9,127.5 145,120.8 147.4,112.8 	"/>
	<path class="st3" d="M118.1,90.6c0.1,0.2,0.9,1.3,1.1,1.3"/>
</g>
<g id="Bowmanske_kapsel">
	<path class="st7" d="M114.1,97.8c0,0,5.8-13.4,14-17.1c6.7-3,13.6-3.1,18.5-0.6s8,8.8,7.9,14c-0.1,5.2-1.6,8-3.9,9.8
		s-2.8,0.9-7.6-3.1s-8.6-7.7-15.6-5.4c-7,2.4-8.8,13.5-8.8,15.1s0.2,11.2,5.9,14.8s9.2,4.8,13.6,2.2s8-9.5,8.2-16
		c4.4,0.6,6.2,3.1,6.5,3.8s1.6,11.1-1.8,17.8s-8.4,9.8-13.5,10.9s-15.6,0.4-21.4-9.5s-5-22.5-4.5-26.9S114.1,97.8,114.1,97.8z"/>
	<path class="st3" d="M117.3,91.8c0.2,0.4,1.2,0.9,1.2,1"/>
	<path class="st3" d="M119.4,88.8c0.3,0.4,0.9,1.1,1.2,1.2"/>
	<path class="st3" d="M122.1,85.3c0.2,0.2,0.5,0.5,0.7,0.8c0.2,0.2,0.6,0.7,0.5,0.5"/>
	<path class="st3" d="M126.3,81.6c0.3,0.3,0.5,0.9,0.6,1.3c0.1,0.2,0.4,1.1,0.4,0.9"/>
	<path class="st3" d="M131.6,79.3c0.2,1.1,0.4,2.1,0.5,3.2c0.1,0,0-0.1,0-0.1"/>
	<path class="st3" d="M138.1,78.3c0.1,0.7-0.2,1.5-0.2,2.2c0,0.4-0.2,1.9-0.1,2.1"/>
	<path class="st3" d="M144.6,79.2c0.1,0,0.1-0.1,0.1,0c-0.4,1.5-1.1,3-1.7,4.3c0.1,0,0.2-0.1,0.2-0.1"/>
	<path class="st3" d="M150.2,82.7c-0.3,0.8-0.9,1.6-1.5,2.2c-0.3,0.3-1.6,1.2-1.5,1.5"/>
	<path class="st3" d="M153.8,89.1c-0.6,0.2-1.1,0.7-1.8,1c-0.4,0.1-1.3,0.4-1.4,0.7"/>
	<path class="st3" d="M151.6,94.6c0.9,0.2,2.1-0.1,2.8,0.1"/>
	<path class="st3" d="M151.2,98.5c0.4,0.2,2,0.8,2.1,1.1"/>
	<path class="st3" d="M149.7,100.5c0.6,0.6,0.8,1.8,0.9,2.6"/>
	<path class="st3" d="M147.4,100.3c-0.2,0.6-1.1,2.5-1.6,2.5"/>
	<path class="st3" d="M144.8,98.6c-0.3,0.7-1.3,1.5-1.8,1.9"/>
	<path class="st3" d="M142.1,96c-0.2,0.4-2,2.4-2.1,2.3"/>
	<path class="st3" d="M139,93.9c-0.3,0.4-0.5,0.9-0.7,1.3c-0.1,0.3-0.5,1.1-0.6,1.1"/>
	<path class="st3" d="M135.8,92.4c0,0.3-0.2,0.9-0.3,1.3c0,0.2-0.1,0.5-0.1,0.8c0,0.1-0.1,0.6-0.1,0.4"/>
	<path class="st3" d="M131.9,91.6c0.3,0.6,0,2.2,0,2.7"/>
	<path class="st3" d="M128.1,92.4c-0.1,0.7,0.3,1.6,0.5,2.2c0.1,0.1,0,0,0-0.1"/>
	<path class="st3" d="M124.2,94.4c0.2,0.6,0.5,1.2,0.8,1.8"/>
	<path class="st3" d="M120.7,98.3c0.4,0.4,0.9,0.8,1.4,1.2c0,0-0.1-0.1-0.1-0.1"/>
	<path class="st3" d="M120.5,102.6c-0.4-0.3-1.1-0.7-1.6-0.8"/>
	<path class="st3" d="M119.2,106.4c-0.5-0.1-1.2-0.3-1.5-0.4"/>
	<path class="st3" d="M118.4,110.9c-0.2,0.2-1.1,0.3-1.4,0.4"/>
	<path class="st3" d="M119.1,115.8c-0.3,0-1.1,0.2-1.4,0.3"/>
	<path class="st3" d="M120.1,119.4c-0.2,0.1-0.4,0.2-0.6,0.3c-0.1,0.1-0.6,0.4-0.4,0.3"/>
	<path class="st3" d="M122.1,123.1c-0.1,0.2-0.5,0.5-0.7,0.7"/>
	<path class="st3" d="M125.1,125.6c-0.2,0.4-0.7,0.7-0.8,1.2"/>
	<path class="st3" d="M128.9,127.8c-0.1,0.4-0.4,1.2-0.6,1.3"/>
	<path class="st3" d="M132.8,128.8c-0.1,0.4-0.1,0.9-0.1,1.3c0.1,0,0-0.1,0-0.2"/>
	<path class="st3" d="M136.5,128.3c0,0.5,0.1,1,0.2,1.4"/>
	<path class="st3" d="M139.1,126.7c0.3,0.6,0.6,1.4,0.9,1.9"/>
	<path class="st3" d="M141.6,124.2c0.3,0.5,1.1,1.3,1.6,1.6"/>
	<path class="st3" d="M143.6,121.4c0.3,0.4,1.2,1.2,1.6,1.1"/>
	<path class="st3" d="M144.6,118.9c0.2,0.5,1.2,0.7,1.7,1c0.1,0,0-0.1,0-0.1"/>
	<path class="st3" d="M145.6,116.4c0.3,0.4,1.2,0.5,1.6,0.7"/>
	<path class="st3" d="M146.4,113.2c0.3,0.5,0.9,1.1,1.3,1.5"/>
	<path class="st3" d="M149.9,112.5c-0.6,0.8-1.5,1.3-2.2,2c0,0,0.1,0,0.1,0"/>
	<path class="st3" d="M152.3,114.5c-0.6,0.7-2.6,1.2-2.9,1.9"/>
	<path class="st3" d="M153.4,120.1c-0.5-0.1-2.6,0-2.8,0.2"/>
	<path class="st3" d="M153.1,125.2c-0.6,0.1-2.1-0.4-2.7-0.7c-0.1,0,0,0.1-0.1,0.1"/>
	<path class="st3" d="M149.2,128.9c1.1,0,1.9,1,2.8,1.6c0.1,0.1,0,0-0.1,0"/>
	<path class="st3" d="M147.8,132.4c0.9,0.5,1.7,1.2,2.4,1.9"/>
	<path class="st3" d="M145.6,135c0.7,1,1.2,2.2,1.9,3.1"/>
	<path class="st3" d="M142.2,137.2c0.2,0.6,0.5,1.3,0.7,2c0.2,0.7,0.4,1.4,0.6,2.1c0-0.1-0.1-0.2-0.1-0.2"/>
	<path class="st3" d="M137.5,138.6c0,0.8,0.2,1.7,0.3,2.6c0.1,0.6,0.2,1.8,0.2,2.1"/>
	<path class="st3" d="M131.8,138.8c-0.2,0.9-0.3,1.9-0.5,2.9c-0.1,0.4-0.2,0.8-0.2,1.3c0,0.2-0.1,1-0.2,0.8"/>
	<path class="st3" d="M126.3,137.7c-0.3,0.7-0.9,1.3-1.4,2c-0.2,0.3-0.4,0.6-0.6,0.9c-0.1,0.2-0.2,0.3-0.3,0.5
		c0,0.1-0.2,0.6-0.2,0.3"/>
	<path class="st3" d="M121.6,134.4c-0.7,0.3-1.2,0.9-1.8,1.4c-0.5,0.4-1.2,0.9-1.6,1.5c0.1-0.1,0.1,0,0.2-0.1"/>
	<path class="st3" d="M118.4,129.8c-0.3,0-1.4,0.5-1.9,0.7c-0.5,0.2-1.2,0.5-1.6,0.9c0.1-0.1,0.1,0,0.2-0.1"/>
	<path class="st3" d="M116.4,123.9c-0.7,0.3-1.5,0.4-2.2,0.6c-0.4,0.1-1.3,0.6-1.5,0.4"/>
	<path class="st3" d="M115.4,118.4c-1.2,0-2.5,0.6-3.6,0.8c-0.1,0,0,0,0.1,0.1"/>
	<path class="st3" d="M114.1,113.6c-0.5,0.4-1.8,0.4-2.6,0.4c0.1,0,0.1,0,0.2,0"/>
	<ellipse cx="129.3" cy="81.9" rx="0.5" ry="0.4"/>
	<ellipse cx="134.8" cy="80.4" rx="0.5" ry="0.4"/>
	<ellipse cx="140.6" cy="80.8" rx="0.5" ry="0.4"/>
	<ellipse cx="146.2" cy="82.5" rx="0.5" ry="0.4"/>
	<ellipse cx="150.4" cy="86.9" rx="0.5" ry="0.4"/>
	<ellipse cx="152.6" cy="92.2" rx="0.5" ry="0.4"/>
	<ellipse cx="124.8" cy="84.6" rx="0.5" ry="0.4"/>
	<ellipse cx="121.2" cy="88" rx="0.5" ry="0.4"/>
	<ellipse cx="118.9" cy="91.1" rx="0.5" ry="0.4"/>
	<ellipse cx="117.3" cy="93.5" rx="0.5" ry="0.4"/>
	<ellipse cx="152.8" cy="97.2" rx="0.5" ry="0.4"/>
	<ellipse cx="151.4" cy="100.9" rx="0.5" ry="0.4"/>
	<ellipse transform="matrix(0.9993 3.677511e-02 -3.677511e-02 0.9993 3.854 -5.4013)" cx="148.8" cy="102.1" rx="0.5" ry="0.4"/>
	<ellipse transform="matrix(0.9993 3.677511e-02 -3.677511e-02 0.9993 3.8056 -5.2711)" cx="145.2" cy="100.8" rx="0.5" ry="0.4"/>
	<ellipse transform="matrix(0.9993 3.677511e-02 -3.677511e-02 0.9993 3.7093 -5.1602)" cx="142.1" cy="98.2" rx="0.5" ry="0.4"/>
	<ellipse transform="matrix(0.9993 3.677511e-02 -3.677511e-02 0.9993 3.6223 -5.056)" cx="139.3" cy="95.9" rx="0.5" ry="0.4"/>
	<ellipse transform="matrix(0.9993 3.677511e-02 -3.677511e-02 0.9993 3.5585 -4.9606)" cx="136.6" cy="94.2" rx="0.5" ry="0.4"/>
	<ellipse transform="matrix(0.9993 3.677511e-02 -3.677511e-02 0.9993 3.5243 -4.8555)" cx="133.8" cy="93.4" rx="0.5" ry="0.4"/>
	<ellipse transform="matrix(0.9993 3.677511e-02 -3.677511e-02 0.9993 3.5152 -4.7315)" cx="130.4" cy="93.2" rx="0.5" ry="0.4"/>
	<ellipse transform="matrix(0.9993 3.677511e-02 -3.677511e-02 0.9993 3.5608 -4.5858)" cx="126.4" cy="94.5" rx="0.5" ry="0.4"/>
	<ellipse transform="matrix(0.9993 3.677511e-02 -3.677511e-02 0.9993 3.6413 -4.4648)" cx="123.2" cy="96.7" rx="0.5" ry="0.4"/>
	<ellipse transform="matrix(0.9993 3.677511e-02 -3.677511e-02 0.9993 3.7751 -4.3612)" cx="120.4" cy="100.4" rx="0.5" ry="0.4"/>
	<ellipse transform="matrix(0.9993 3.677511e-02 -3.677511e-02 0.9993 3.9119 -4.2989)" cx="118.8" cy="104.2" rx="0.5" ry="0.4"/>
	<ellipse transform="matrix(0.9993 3.677511e-02 -3.677511e-02 0.9993 4.0905 -4.2588)" cx="117.8" cy="109.1" rx="0.5" ry="0.4"/>
	<ellipse transform="matrix(0.9993 3.677511e-02 -3.677511e-02 0.9993 4.2514 -4.2558)" cx="117.8" cy="113.4" rx="0.5" ry="0.4"/>
	<ellipse transform="matrix(0.9993 3.677511e-02 -3.677511e-02 0.9993 4.422 -4.2849)" cx="118.7" cy="118.1" rx="0.5" ry="0.4"/>
	<ellipse transform="matrix(0.9993 3.677511e-02 -3.677511e-02 0.9993 4.5474 -4.3493)" cx="120.5" cy="121.4" rx="0.5" ry="0.4"/>
	<ellipse transform="matrix(0.9993 3.677511e-02 -3.677511e-02 0.9993 4.6779 -4.4434)" cx="123.1" cy="124.9" rx="0.5" ry="0.4"/>
	<ellipse transform="matrix(0.9993 3.677511e-02 -3.677511e-02 0.9993 4.7743 -4.5612)" cx="126.4" cy="127.5" rx="0.5" ry="0.4"/>
	<ellipse transform="matrix(0.9993 3.677511e-02 -3.677511e-02 0.9993 4.8347 -4.7187)" cx="130.7" cy="129.1" rx="0.5" ry="0.4"/>
	<ellipse transform="matrix(0.9993 3.677511e-02 -3.677511e-02 0.9993 4.8579 -4.8563)" cx="134.4" cy="129.6" rx="0.5" ry="0.4"/>
	<ellipse transform="matrix(0.9993 3.677511e-02 -3.677511e-02 0.9993 4.8282 -4.9925)" cx="138.1" cy="128.7" rx="0.5" ry="0.4"/>
	<ellipse transform="matrix(0.9993 3.677511e-02 -3.677511e-02 0.9993 4.7565 -5.095)" cx="140.9" cy="126.7" rx="0.5" ry="0.4"/>
	<ellipse transform="matrix(0.9993 3.677511e-02 -3.677511e-02 0.9993 4.6457 -5.1936)" cx="143.5" cy="123.7" rx="0.5" ry="0.4"/>
	<ellipse transform="matrix(0.9993 3.677511e-02 -3.677511e-02 0.9993 4.5501 -5.2482)" cx="144.9" cy="121.1" rx="0.5" ry="0.4"/>
	<ellipse transform="matrix(0.9993 3.677511e-02 -3.677511e-02 0.9993 4.4588 -5.2844)" cx="145.9" cy="118.6" rx="0.5" ry="0.4"/>
	<ellipse transform="matrix(0.9993 3.677511e-02 -3.677511e-02 0.9993 4.3536 -5.3139)" cx="146.6" cy="115.7" rx="0.5" ry="0.4"/>
	<ellipse transform="matrix(0.9993 3.677511e-02 -3.677511e-02 0.9993 4.251 -5.3595)" cx="147.8" cy="112.9" rx="0.5" ry="0.4"/>
	<ellipse transform="matrix(0.9993 3.677511e-02 -3.677511e-02 0.9993 4.3075 -5.432)" cx="149.8" cy="114.4" rx="0.5" ry="0.4"/>
	<ellipse transform="matrix(0.9993 3.677511e-02 -3.677511e-02 0.9993 4.4326 -5.4849)" cx="151.3" cy="117.7" rx="0.5" ry="0.4"/>
	<ellipse transform="matrix(0.9993 3.677511e-02 -3.677511e-02 0.9993 4.5984 -5.5002)" cx="151.8" cy="122.2" rx="0.5" ry="0.4"/>
	<ellipse transform="matrix(0.9993 3.677511e-02 -3.677511e-02 0.9993 4.7842 -5.4715)" cx="151.1" cy="127.3" rx="0.5" ry="0.4"/>
	<ellipse transform="matrix(0.9993 3.677511e-02 -3.677511e-02 0.9993 4.9236 -5.4276)" cx="150" cy="131.1" rx="0.5" ry="0.4"/>
	<ellipse transform="matrix(0.9993 3.677511e-02 -3.677511e-02 0.9993 5.0764 -5.3581)" cx="148.2" cy="135.3" rx="0.5" ry="0.4"/>
	<ellipse transform="matrix(0.9993 3.677511e-02 -3.677511e-02 0.9993 5.1707 -5.2391)" cx="145" cy="137.9" rx="0.5" ry="0.4"/>
	<ellipse transform="matrix(0.9993 3.677511e-02 -3.677511e-02 0.9993 5.2669 -5.0902)" cx="141" cy="140.6" rx="0.5" ry="0.4"/>
	<ellipse transform="matrix(0.9993 3.677511e-02 -3.677511e-02 0.9993 5.3018 -4.8642)" cx="134.9" cy="141.7" rx="0.5" ry="0.4"/>
	<ellipse transform="matrix(0.9993 3.677511e-02 -3.677511e-02 0.9993 5.2652 -4.6235)" cx="128.3" cy="140.8" rx="0.5" ry="0.4"/>
	<ellipse transform="matrix(0.9993 3.677511e-02 -3.677511e-02 0.9993 5.1439 -4.405)" cx="122.3" cy="137.6" rx="0.5" ry="0.4"/>
	<ellipse transform="matrix(0.9993 3.677511e-02 -3.677511e-02 0.9993 4.9731 -4.2449)" cx="117.9" cy="133.1" rx="0.5" ry="0.4"/>
	<ellipse transform="matrix(0.9993 3.677511e-02 -3.677511e-02 0.9993 4.7574 -4.1431)" cx="115" cy="127.2" rx="0.5" ry="0.4"/>
	<ellipse transform="matrix(0.9993 3.677511e-02 -3.677511e-02 0.9993 4.5403 -4.0873)" cx="113.4" cy="121.4" rx="0.5" ry="0.4"/>
	<ellipse transform="matrix(0.9993 3.677511e-02 -3.677511e-02 0.9993 4.3562 -4.0792)" cx="113.1" cy="116.4" rx="0.5" ry="0.4"/>
	<ellipse transform="matrix(0.9993 3.677511e-02 -3.677511e-02 0.9993 4.2109 -4.0542)" cx="112.3" cy="112.4" rx="0.5" ry="0.4"/>
</g>
<g id="under_art">
	<path class="st1" d="M101.1,91c0,0,0,7.6,2.2,10.7s5.8,5.4,7.6,6.8s3.1,3.2,4.9,13.1s6.5,15.2,12.5,16.8c8.5,2.2,17.4-1.2,19.6-6.6
		s4.2-12.6-0.1-17.1c-1,4.5-3,15.5-13.6,15.8s-17.8-10.4-17.5-19.2s5.5-19.6,15.4-19.4c0,0,5.9-0.1,11.1,5.5c5.2,5.6,8,3.8,8.5-0.9
		c0.5-4.6-3.9-11-9.4-12.7s-14.6-2-19.1,3.5s-6.4,8.2-7.4,8.9s-3,1.5-4-1.8c-1-3.2-1-7-1-7L101.1,91z"/>
	<path class="st1" d="M64.4,96.5c0,0,0.8,16.1,8,18.4c1.2-4.1,6.1-14.6,6.1-14.6s-2.4-3.9-1.8-9.6C72.4,92.6,64.4,96.5,64.4,96.5z"
		/>
	<path class="st1" d="M78.8,100.9c0,0,2,3.9,7,2.6s11.2-3.6,13.5,3.9s5.2,15.6,3.4,22.5s-4.8,10.6-8.2,10s-10.6-7-12.1-6.6
		s-1.5,0.4-1.5,0.4l-7.4-11.4c0,0,2.4-3.1,6.1-2.4s9.5,7.8,11.8,6.5s1.4-10.9,0.8-11.5s-2-2.6-10.2,0.9s-8.4-0.1-8.4-0.1l0.4-6.9
		L78.8,100.9z"/>
	<path class="st1" d="M91.1,70.4c0,0,0,6.2,1.4,9.8s2.2,7.5,2,10.9c6-1.5,9.5-2.8,9.5-2.8l-1.9-18.5L91.1,70.4z"/>
	<path class="st1" d="M111,85.3c0,0,7.1-18.8,4.2-23.3s-7-9.5-16.1-5.8s-8.6,12.9-8.6,12.9h11.6c0,0-0.2-2.8,0.5-4.4
		c0.8-1.6,3.5-0.8,4,0.5s1,3.6-1.1,9.1s-4.2,12.4-4.1,14.8C106.6,87.3,111,85.3,111,85.3z"/>
</g>
<g id="arterie">
	<g>
		<g>
			<path class="st8" d="M227.8,77.8c3.8-2.8-1.2-6.5-5.5-7.2s-21,0-27.5,1s-22.5,2-27.2,1.2c-12.2-16-26.2-13.3-29.8-12.8
				c-2.7,0.4-4.2,2.2-7.8,2.2s-11.2,1.5-11.2,1.5c-5.8,1-13.8,4-20.8,4.3s-12.8,0.5-12.8,0.5c-6.5,1.2-6,10.5-7,16S63.5,94,63.5,94
				C56,96.8,50,106,50,106l-0.5-16.2h-9c0,0,0.8,22,1.2,29.5c-1-2.5-6.2-6-6.2-6s0,2.5,0.2,8c3.2,2,3,2.2,5.8,5
				c1,5,0.5,73.2,0.5,73.2c-2.2-4-9.5-8.5-9.5-8.5s0,1.5,0.5,6c2.8,1,8.8,9,8.8,9s1.5,82.5,1.5,89.5c6,2.8,6.2,1.5,10,0.2
				c0,0-1.5-31-1.5-35c0.5-4.2,4-8.2,4-8.2s0.2-2.8,0-6.8c-2.2,2.5-4.5,7.2-4.5,7.2s-1.5-54.8-1.8-58c0.5-3.2,5-7.8,5-7.8
				s-0.2-2.5-0.2-7c-2.2,4-5,8-5,8s1.5-69.8,1.5-77.5c0.8-2.5,5.8-10,19.8-16c14-6,11-11.7,11.8-17s3.2-7,9.8-6.2s24-3.8,28-4.8
				s5.2-1,6.2,0s-2.8,4-5.8,8s-8.8,11.8-24.2,14.8S76.5,99,74,103.2c-3.8,6.5-4.1,18.7,1.5,26.8c5.8,8.2,23,26,23,26
				s7.5,5.2,4.5-0.8s-25-20.5-27.5-35s4.3-18.8,7-21c4-3.2,14.8-6.2,21.8-8s13.2-6.5,13.2-6.5c5.5-3,10.2-16,15.8-19
				c5.5-3,15.2-2,22.5,1.2c7.2,3.2,11,14.8,11.8,16.5s-6,11-11.8,16.2S146,104,146,104s0.2,2.2,0.5,4.8c8.8,1.8,20-14,22.2-17
				c2.2-3,6.6-4.4,9.1-5.2s8.4-5.1,5.9-0.8s-0.8,9.2,2.5,13s11.8,5,15.2,6.2s4.2,5.2,4.5,10s-2.2,10.2-6,12.2s-11,5.8-11,5.8
				s1.8,4,3,2.5s7.9-4.4,12.5-7.2c4-2.5,5.2-10.8,5.5-14.2s1.2-5.8,2.5-9.8s5-6,9.5-7.8s7.2-4.5,9-9S229.8,79.5,227.8,77.8z
				 M179.1,82.1c-1.5,0.5-1.6,0.6-3.2,1.4c-0.6,0.3-2.9,1.8-3.5,1.6c-0.6-0.2-0.9-2.1-1.1-2.6c-0.5-1.6-1.6-3.2-2.1-4.8
				c-0.6-2.3,3-1.5,4.4-1.5c1.9,0,3.8,0,5.8-0.1c4.1-0.4,8.1-0.5,12.1-0.9c7.9-0.8,15.8-1.5,23.9-1.9c1.7-0.1,3.1-0.1,4.7,0.5
				c0,0,0,0.1-0.1,0.2h0.9c1.1,0.2,4.6,0.5,3.8,2.4c-0.6,1.3-3.1,2-4.3,2.2c-4,0.8-7.6,0.1-11.6,0.3c-8.1,0.4-14-0.3-21.9,1.2
				C185,80.6,181,81.5,179.1,82.1z M204.4,95.1c-1.6,2.8-1.5,4.2-2.9,5.2s-3.8-0.2-6.4-0.9s-3.6-1.4-6.8-3.8c-3.1-2.4-2.4-4.9-2-8.4
				s3.8-4,5.4-4.5s7.2-0.5,7.2-0.5c1.5,0,9.1,0.1,10.9,0.4s-0.1,2.9-0.9,5.4S206,92.4,204.4,95.1z M227.3,87.3
				c-0.8,2.2-3.4,4.9-5.6,5.5c-0.2,0.2,0.1,0,0.1,0.1l-0.9,0.1c-1,0.1-3.1,1.9-4.1,2.4c-1.4,0.7-2.5,1.7-3.7,2.8
				c-1.1,1.1-2.2,2.2-3.1,3.5c-0.7,1.1-1.2,3.8-2.2,4.5c-0.9,0.7-0.9-0.7-1-1.6c-0.1-0.9-0.3-1.8-0.4-2.7c-0.3-2,0-3.6,1.3-5.2
				c1.1-1.4,2.3-2.5,3.1-4.2c0.9-1.8,1.4-3.7,2.3-5.5c0.7-1.5,1.4-3.4,2.9-4.2c1.6-0.8,3.8-0.9,5.7-1.1c1.5-0.1,4.3-1,5.4,0.1
				C228.2,83,227.7,85.9,227.3,87.3z"/>
		</g>
		<g>
			<path class="st3" d="M227.8,77.8c3.8-2.8-1.2-6.5-5.5-7.2s-21,0-27.5,1s-22.5,2-27.2,1.2c-12.2-16-26.2-13.3-29.8-12.8
				c-2.7,0.4-4.2,2.2-7.8,2.2s-11.2,1.5-11.2,1.5c-5.8,1-13.8,4-20.8,4.3s-12.8,0.5-12.8,0.5c-6.5,1.2-6,10.5-7,16S63.5,94,63.5,94
				C56,96.8,50,106,50,106l-0.5-16.2h-9c0,0,0.8,22,1.2,29.5c-1-2.5-6.2-6-6.2-6s0,2.5,0.2,8c3.2,2,3,2.2,5.8,5
				c1,5,0.5,73.2,0.5,73.2c-2.2-4-9.5-8.5-9.5-8.5s0,1.5,0.5,6c2.8,1,8.8,9,8.8,9s1.5,82.5,1.5,89.5c6,2.8,6.2,1.5,10,0.2
				c0,0-1.5-31-1.5-35c0.5-4.2,4-8.2,4-8.2s0.2-2.8,0-6.8c-2.2,2.5-4.5,7.2-4.5,7.2s-1.5-54.8-1.8-58c0.5-3.2,5-7.8,5-7.8
				s-0.2-2.5-0.2-7c-2.2,4-5,8-5,8s1.5-69.8,1.5-77.5c0.8-2.5,5.8-10,19.8-16c14-6,11-11.7,11.8-17s3.2-7,9.8-6.2s24-3.8,28-4.8
				s5.2-1,6.2,0s-2.8,4-5.8,8s-8.8,11.8-24.2,14.8S76.5,99,74,103.2c-3.8,6.5-4.1,18.7,1.5,26.8c5.8,8.2,23,26,23,26
				s7.5,5.2,4.5-0.8s-25-20.5-27.5-35s4.3-18.8,7-21c4-3.2,14.8-6.2,21.8-8s13.2-6.5,13.2-6.5c5.5-3,10.2-16,15.8-19
				c5.5-3,15.2-2,22.5,1.2c7.2,3.2,11,14.8,11.8,16.5s-6,11-11.8,16.2S146,104,146,104s0.2,2.2,0.5,4.8c8.8,1.8,20-14,22.2-17
				c2.2-3,6.6-4.4,9.1-5.2s8.4-5.1,5.9-0.8s-0.8,9.2,2.5,13s11.8,5,15.2,6.2s4.2,5.2,4.5,10s-2.2,10.2-6,12.2s-11,5.8-11,5.8
				s1.8,4,3,2.5s7.9-4.4,12.5-7.2c4-2.5,5.2-10.8,5.5-14.2s1.2-5.8,2.5-9.8s5-6,9.5-7.8s7.2-4.5,9-9S229.8,79.5,227.8,77.8z
				 M179.1,82.1c-1.5,0.5-1.6,0.6-3.2,1.4c-0.6,0.3-2.9,1.8-3.5,1.6c-0.6-0.2-0.9-2.1-1.1-2.6c-0.5-1.6-1.6-3.2-2.1-4.8
				c-0.6-2.3,3-1.5,4.4-1.5c1.9,0,3.8,0,5.8-0.1c4.1-0.4,8.1-0.5,12.1-0.9c7.9-0.8,15.8-1.5,23.9-1.9c1.7-0.1,3.1-0.1,4.7,0.5
				c0,0,0,0.1-0.1,0.2h0.9c1.1,0.2,4.6,0.5,3.8,2.4c-0.6,1.3-3.1,2-4.3,2.2c-4,0.8-7.6,0.1-11.6,0.3c-8.1,0.4-14-0.3-21.9,1.2
				C185,80.6,181,81.5,179.1,82.1z M204.4,95.1c-1.6,2.8-1.5,4.2-2.9,5.2s-3.8-0.2-6.4-0.9s-3.6-1.4-6.8-3.8c-3.1-2.4-2.4-4.9-2-8.4
				s3.8-4,5.4-4.5s7.2-0.5,7.2-0.5c1.5,0,9.1,0.1,10.9,0.4s-0.1,2.9-0.9,5.4S206,92.4,204.4,95.1z M227.3,87.3
				c-0.8,2.2-3.4,4.9-5.6,5.5c-0.2,0.2,0.1,0,0.1,0.1l-0.9,0.1c-1,0.1-3.1,1.9-4.1,2.4c-1.4,0.7-2.5,1.7-3.7,2.8
				c-1.1,1.1-2.2,2.2-3.1,3.5c-0.7,1.1-1.2,3.8-2.2,4.5c-0.9,0.7-0.9-0.7-1-1.6c-0.1-0.9-0.3-1.8-0.4-2.7c-0.3-2,0-3.6,1.3-5.2
				c1.1-1.4,2.3-2.5,3.1-4.2c0.9-1.8,1.4-3.7,2.3-5.5c0.7-1.5,1.4-3.4,2.9-4.2c1.6-0.8,3.8-0.9,5.7-1.1c1.5-0.1,4.3-1,5.4,0.1
				C228.2,83,227.7,85.9,227.3,87.3z"/>
		</g>
	</g>
	<g>
		<ellipse class="st4" cx="45.1" cy="89.8" rx="4.6" ry="1.5"/>
		<ellipse class="st5" cx="45.1" cy="89.8" rx="3.3" ry="0.9"/>
	</g>
	<g>
		
			<ellipse transform="matrix(7.019053e-03 1 -1 7.019053e-03 152.2224 80.8206)" class="st4" cx="35.4" cy="117.1" rx="4.1" ry="1.1"/>
		
			<ellipse transform="matrix(6.983189e-03 1 -1 6.983189e-03 152.2639 80.8448)" class="st5" cx="35.4" cy="117.1" rx="2.9" ry="0.7"/>
	</g>
	<g>
		
			<ellipse transform="matrix(7.017692e-03 1 -1 7.017692e-03 237.8902 127.6233)" class="st4" cx="54.7" cy="183.6" rx="3.8" ry="1.1"/>
		
			<ellipse transform="matrix(6.989544e-03 1 -1 6.989544e-03 237.9303 127.6468)" class="st5" cx="54.7" cy="183.6" rx="2.8" ry="0.7"/>
	</g>
	<g>
		
			<ellipse transform="matrix(6.988272e-03 1 -1 6.988272e-03 225.9139 160.3596)" class="st4" cx="32.2" cy="193.9" rx="3.1" ry="1.1"/>
		
			<ellipse transform="matrix(6.990823e-03 1 -1 6.990823e-03 225.9472 160.3724)" class="st5" cx="32.2" cy="194" rx="2.3" ry="0.7"/>
	</g>
	<g>
		
			<ellipse transform="matrix(7.044715e-03 1 -1 7.044715e-03 304.6633 191.4601)" class="st4" cx="55.9" cy="249.1" rx="3.6" ry="1.1"/>
		
			<ellipse transform="matrix(6.839538e-03 1 -1 6.839538e-03 304.7119 191.5278)" class="st5" cx="55.9" cy="249.2" rx="2.6" ry="0.7"/>
	</g>
</g>
<g id="over_art">
	<g>
		<g>
			<path class="st9" d="M225,129.5l-0.4-48.2c0,0-1,0.1-3.2,0.3c-2.2,0.3-3.8,0.6-3.8,0.6s-0.3,18.2-0.6,22c-4-2.8-10.5,1.8-16.8,9
				s-6.5,0.2-8.8-2.8s-5.5-2.5-10-1c-1.8-2-4.8-6.5-10.8-7.5s-12.2,2.2-13.5,11.5s6.8,18,6.8,18c2.5,2.8,14.5,16.8,2,13.2
				s-14.5,2.5-15.8,5.5s-1.4,20.8-1.4,20.8s1.4,1.1,5.1,2.1s6.3,1.3,6.3,1.3s-0.3-4.4-0.3-10.9s-0.5-9.8,7.8-8.8s8.2-0.5,11.5-3.2
				c2.5,0.5,7.2,5,14.5,2.5s7.4-9.8,6.2-16.2c-0.9-5.1-8.4-12.1-10.6-14.2c0.9,0.7,2.8,1.7,5.7,1.2c4.2-0.7,6.1-5,13.9-12
				s8.8,2.2,9,4.2c0.1,1.2,0.2,24.8,0,28c-1.2-2-5.2-4-5.2-4s0.5,2.5,0.5,6.2c1.8,2.2,4.8,4.2,4.8,4.2s0,58,0,62.8c3.8,2,8,0,8,0
				s0-68.8,0-74.2s6-14,6-14s0-3.2,0-7.2C227.5,121,225,129.5,225,129.5z M173,127.5c0,0-9.5-11-8-14.5s8.8-3.8,9,1.2
				S173,127.5,173,127.5z M183.5,141.2c-4.2-5.2-0.5-11-0.5-11s8.2,6,8,8.8S187.8,146.5,183.5,141.2z"/>
		</g>
		<g>
			<path class="st3" d="M225,129.5l-0.4-48.2c0,0-1,0.1-3.2,0.3c-2.2,0.3-3.8,0.6-3.8,0.6s-0.3,18.2-0.6,22c-4-2.8-10.5,1.8-16.8,9
				s-6.5,0.2-8.8-2.8s-5.5-2.5-10-1c-1.8-2-4.8-6.5-10.8-7.5s-12.2,2.2-13.5,11.5s6.8,18,6.8,18c2.5,2.8,14.5,16.8,2,13.2
				s-14.5,2.5-15.8,5.5s-1.4,20.8-1.4,20.8s1.4,1.1,5.1,2.1s6.3,1.3,6.3,1.3s-0.3-4.4-0.3-10.9s-0.5-9.8,7.8-8.8s8.2-0.5,11.5-3.2
				c2.5,0.5,7.2,5,14.5,2.5s7.4-9.8,6.2-16.2c-0.9-5.1-8.4-12.1-10.6-14.2c0.9,0.7,2.8,1.7,5.7,1.2c4.2-0.7,6.1-5,13.9-12
				s8.8,2.2,9,4.2c0.1,1.2,0.2,24.8,0,28c-1.2-2-5.2-4-5.2-4s0.5,2.5,0.5,6.2c1.8,2.2,4.8,4.2,4.8,4.2s0,58,0,62.8c3.8,2,8,0,8,0
				s0-68.8,0-74.2s6-14,6-14s0-3.2,0-7.2C227.5,121,225,129.5,225,129.5z M173,127.5c0,0-9.5-11-8-14.5s8.8-3.8,9,1.2
				S173,127.5,173,127.5z M183.5,141.2c-4.2-5.2-0.5-11-0.5-11s8.2,6,8,8.8S187.8,146.5,183.5,141.2z"/>
		</g>
	</g>
	<path class="st1" d="M181.5,109.5c0,0,4,5.8,1.5,20.8"/>
	<path class="st1" d="M189.5,123.6c0,0-2.1-1.5-1.5-5.1"/>
	<path class="st1" d="M173,127.5c0,0,8.9,12.1,6.2,24"/>
	<path class="st1" d="M124.9,186.5c0,0,5.3-0.2,12.9,3.8c-0.1-3.8-1-16.1-1.5-19.9s-1.9-16.1-8.5-17.5s-9.4-1.5-12.2,0.2
		c2.4-3.5,6.1-10.8-0.2-16.1c-5.8-4.9-14.7-3.3-28.6,0c-11.8,2.8-7.5-2.2-7.5-2.2s-2.8-3.5-3.9-5.3c-1.1-1.8-3-6.7-3-6.7
		s-7.6,6.8-5.1,15.9c1.8,6.8,7.2,14.8,20,11.1c12.6-3.7,17.5-7.2,19.6-6.6s4.2,2.5,0.2,5s-19.8,7.8-22.5,11.5s-3,11.6,8.8,10.4
		s18.6-6.5,21.8-6.6s10.4-1.6,10.4,7.2S124.9,186.5,124.9,186.5z"/>
	<path class="st1" d="M115.5,153.1c0,0-9,7.8-21,9.1"/>
	<path class="st1" d="M123.9,208.9c0,0,5.8-1.4,7.5-1.8s4.9-1.2,7.1-2.1c0,1.8,0.2,12.2-1,20s-5.4,13.9-5.9,19.2s-0.8,11.1-0.8,11.1
		l-3.4,3.5c0,0-4.5-20.2-4.4-27.5S123.9,208.9,123.9,208.9z"/>
	<path class="st1" d="M128.4,264.4l3-3.7c0,0,2.5,18.4,2.9,24.9s1,22.5,0,30.5s-0.9,9.1-0.9,9.1l-4-0.8c0,0,2.8-24.2,1.6-32.2
		S128.4,264.4,128.4,264.4z"/>
	<path class="st1" d="M129,328.5c0,0-0.1,10.8,0.4,16s2.6,14.6,4.2,17s4.9,6,4.9,6l2.2-3.3c0,0-4.7-1.3-6.3-13.5s-1.4-21.5-1.4-21.5
		C131.4,329.1,129,328.5,129,328.5z"/>
	<path class="st1" d="M141.5,369c0,0,7.6-0.1,10.6-4.2c3.4-4.6,4-9.8,4.6-19.1S157,331,157,331l-3.1,0.2c0,0,0.2,9.5-0.6,15.5
		s-1.4,12.2-3.8,15.6c-1.2,1.9-3.9,3.2-5.9,3.4C143,366.5,141.5,369,141.5,369z"/>
	<path class="st1" d="M156.9,326.8l-0.4-54.8l-3.1-0.9v55.6C153.4,326.8,153.1,327.5,156.9,326.8z"/>
	<path class="st1" d="M156.4,267.8c0,0,4.1-17.1,4.6-23.1s1.8-29.9,1.8-29.9s-2.6-0.1-4.5,2.1s-8,6.6-8.8,8.2
		c-0.1,3.2-1.4,9.5-0.1,18.1s3.7,19.1,3.9,23.9C154.8,267.4,156.4,267.8,156.4,267.8z"/>
	<path class="st1" d="M162.5,211l-2.1-33.4c0,0-4.5-1-5.7-1.2c-1.2-0.2-6-0.8-6-0.8c0.1,3,1.1,33.3,1.1,33.3s2.8,1.6,4.6,2
		S159.8,211.8,162.5,211z"/>
	<path class="st1" d="M64.2,93.8c0,0,1.2-11.1,4.3-14.6c0,0,6.5-8.3,15.6-3.8c9.1,4.6,6.5,14.5,6.5,15.7c0,1.2-1,5.9,1.7,5.7
		c2.7-0.2,2.4-1.6,2.9-2.9c1.2-0.4,5.9-1.8,5.9-1.8s0.2,7.1,2.2,10c-1.3,1.6-4,5.5-4,5.5s-1.3-6.1-6.9-5.4c-5.6,0.7-5.8,1.2-6.7,1.3
		c-0.8-0.8-3.9-3.7-3.9-9.7s0.2-9.6-1.9-10c-2.5-0.5-2.8,1-3.6,3.8C74.7,89,72.7,90.8,64.2,93.8z"/>
	<path class="st1" d="M217.4,79V63l7.2-0.4v14.2c0,0-1.7,1.5-3.2,1.8C219.9,78.9,219,79,217.4,79z"/>
	<g>
		<ellipse class="st10" cx="221.1" cy="62.6" rx="3.9" ry="1.2"/>
		<ellipse class="st9" cx="221.1" cy="62.5" rx="2.6" ry="0.6"/>
	</g>
	<g>
		
			<ellipse transform="matrix(1.336827e-02 0.9999 -0.9999 1.336827e-02 351.3232 -111.6738)" class="st10" cx="232.2" cy="122.2" rx="3.9" ry="1.2"/>
		
			<ellipse transform="matrix(1.321915e-02 0.9999 -0.9999 1.321915e-02 351.4168 -111.8438)" class="st9" cx="232.4" cy="122.1" rx="2.6" ry="0.6"/>
	</g>
	<g>
		
			<ellipse transform="matrix(1.338778e-02 0.9999 -0.9999 1.338778e-02 353.8719 -70.4982)" class="st10" cx="212.7" cy="144.1" rx="3.5" ry="1.2"/>
		
			<ellipse transform="matrix(1.318117e-02 0.9999 -0.9999 1.318117e-02 353.9805 -70.6503)" class="st9" cx="212.8" cy="144" rx="2.4" ry="0.6"/>
	</g>
</g>
<g id="Lag_8">
	<g>
		<g>
			<g>
				<g>
					<path class="st8" d="M147.1,104.1c0,0-0.3,0.1-1,0c-0.7-0.1-2.7-1.2-4.5-2.5c-1.8-1.3-5.8-3.8-9.5-4.7c-3.8-0.8-6.5,3-7.8,3.7
						c-1.2,0.7-3.4,2.9-3.3,4.9c0.1,3.2,1.5,3.7,2.5,4.7s7.8,1.2,7.8,1.2s-0.1,0.3-1.1,0.8s-3,1.5-3.9,1.6c-0.9,0.1-1.8,0-2.8,1.4
						c-1.1,1.4,0.5,3.4,0.8,3.5c0.6,0.2,1.8,1.2,3,1.8c1.2,0.7,1.5,4.2,5,4.8c3.5,0.7,7-2,8.2-3s3.4-4.2,4.2-6.3
						c0.8-2.1,1.8-4.4,2.5-4.5L147.1,104.1z M127.9,101.3c1-0.6,2.4-0.7,3.5-0.9c1.5-0.3,2.6-0.2,4,0.1c2.5,0.4,4.6,2.7,6.8,3.4
						c-1.2-0.2-4.6,0.1-5.8,0c-1.1-0.1-2.2,0-3.3-0.1c-0.9-0.1-2.5,0-3.1-0.6c0.3-1.3,3-1.1,4.1-1c1.5,0.1,2.9,0.5,4.6,0.6
						c-1.1-1.1-4.1-1.3-5.6-1.4c-1-0.1-2.1,0.1-3.1,0.4c-0.9,0.3-1.8,0.8-2.7,0.6C127.2,101.8,127.5,101.6,127.9,101.3z
						 M127.1,103.6c1.2,0.5,2.6,0.8,3.8,1.1c1.5,0.3,2.8,0.4,4.3,0.4c0.7,0,1.4,0,2.1,0c0.6,0,1.2-0.3,1.9-0.2c1.3,0.2,3,0.6,4.2,1
						v0.1c-1.1-0.4-2.9-0.3-4-0.2c-1.4,0.1-2.6,0.2-3.9,0.6c-2.7,0.7-4.9,0.5-7.4-0.7c-1.3-0.6-3.6-0.3-4.6-1.6
						C124.4,103,126,103.1,127.1,103.6z M128.7,109.5c-1.4-0.3-2.6-0.4-3.8-1.1c-0.7-0.4-2.5-1.7-1.6-2.6c0.9-0.2,2.5,0.6,3.3,1
						c1.2,0.5,2.3,1.2,3.6,1.6c2.7,0.7,5.1-0.2,7.7-0.9c2.1-0.6,4.1-0.6,6.1,0.2l-0.2,0c-0.7,0.6-2.2,0.7-3.2,1
						c-1.3,0.3-2.6,0.5-3.9,0.6C134.1,109.6,131.3,110.1,128.7,109.5z M126.7,117.5c-1.5-0.9-0.9-1.9,0.6-2.2
						c1.2-0.3,2.5-0.5,3.8-0.8c1.2-0.2,2.3-0.5,3.3-1.4c0.4-0.4,0.7-1,1.1-1.3c0.6-0.5,1.3-0.3,2-0.3c0.7,0,1.4-0.1,2.1-0.1
						c0.2-0.1,0.4-0.1,0.5-0.1l-0.2,0.1c-0.1,0-0.2,0-0.3,0c-0.9,0.4-1.9,1.7-2.5,2.3c-1,0.9-2.1,1.7-3.2,2.5
						C132.1,117.6,128.9,118.9,126.7,117.5z M142.6,115.6c-0.5,1.1-1.1,2.1-1.7,3.1c-1.2,2.1-3.5,4-5.9,4.6c-1,0.3-3.4,0-4.2-0.7
						c1.3-0.6,2.8-0.2,4.2-0.5c1.2-0.3,2.2-0.9,3-1.7c1.8-1.9,3.5-4.3,4.7-6.5c0.2-0.4,0.6-1.4,0.9-1.5l0.2-0.1
						C143.1,113,143,114.7,142.6,115.6z M144.1,110.2c-1,0.4-2,1.8-2.7,2.6c-0.8,1-1.6,2-2.3,3.1c-1.3,2-2.6,4.8-5.3,4.7
						c-1.2-0.1-3.5,0.6-4.4-0.4c0.4-0.6,1.3-0.5,1.9-0.6c0.7-0.1,1.3-0.4,1.9-0.7c1.3-0.5,2.5-0.8,3.6-1.8c1.8-1.6,3-4,4.8-5.7
						C142.3,110.6,143.4,110.5,144.1,110.2L144.1,110.2z"/>
				</g>
				<g>
					<path class="st3" d="M147.1,104.1c0,0-0.3,0.1-1,0c-0.7-0.1-2.7-1.2-4.5-2.5c-1.8-1.3-5.8-3.8-9.5-4.7c-3.8-0.8-6.5,3-7.8,3.7
						c-1.2,0.7-3.4,2.9-3.3,4.9c0.1,3.2,1.5,3.7,2.5,4.7s7.8,1.2,7.8,1.2s-0.1,0.3-1.1,0.8s-3,1.5-3.9,1.6c-0.9,0.1-1.8,0-2.8,1.4
						c-1.1,1.4,0.5,3.4,0.8,3.5c0.6,0.2,1.8,1.2,3,1.8c1.2,0.7,1.5,4.2,5,4.8c3.5,0.7,7-2,8.2-3s3.4-4.2,4.2-6.3
						c0.8-2.1,1.8-4.4,2.5-4.5L147.1,104.1z M127.9,101.3c1-0.6,2.4-0.7,3.5-0.9c1.5-0.3,2.6-0.2,4,0.1c2.5,0.4,4.6,2.7,6.8,3.4
						c-1.2-0.2-4.6,0.1-5.8,0c-1.1-0.1-2.2,0-3.3-0.1c-0.9-0.1-2.5,0-3.1-0.6c0.3-1.3,3-1.1,4.1-1c1.5,0.1,2.9,0.5,4.6,0.6
						c-1.1-1.1-4.1-1.3-5.6-1.4c-1-0.1-2.1,0.1-3.1,0.4c-0.9,0.3-1.8,0.8-2.7,0.6C127.2,101.8,127.5,101.6,127.9,101.3z
						 M127.1,103.6c1.2,0.5,2.6,0.8,3.8,1.1c1.5,0.3,2.8,0.4,4.3,0.4c0.7,0,1.4,0,2.1,0c0.6,0,1.2-0.3,1.9-0.2c1.3,0.2,3,0.6,4.2,1
						v0.1c-1.1-0.4-2.9-0.3-4-0.2c-1.4,0.1-2.6,0.2-3.9,0.6c-2.7,0.7-4.9,0.5-7.4-0.7c-1.3-0.6-3.6-0.3-4.6-1.6
						C124.4,103,126,103.1,127.1,103.6z M128.7,109.5c-1.4-0.3-2.6-0.4-3.8-1.1c-0.7-0.4-2.5-1.7-1.6-2.6c0.9-0.2,2.5,0.6,3.3,1
						c1.2,0.5,2.3,1.2,3.6,1.6c2.7,0.7,5.1-0.2,7.7-0.9c2.1-0.6,4.1-0.6,6.1,0.2l-0.2,0c-0.7,0.6-2.2,0.7-3.2,1
						c-1.3,0.3-2.6,0.5-3.9,0.6C134.1,109.6,131.3,110.1,128.7,109.5z M126.7,117.5c-1.5-0.9-0.9-1.9,0.6-2.2
						c1.2-0.3,2.5-0.5,3.8-0.8c1.2-0.2,2.3-0.5,3.3-1.4c0.4-0.4,0.7-1,1.1-1.3c0.6-0.5,1.3-0.3,2-0.3c0.7,0,1.4-0.1,2.1-0.1
						c0.2-0.1,0.4-0.1,0.5-0.1l-0.2,0.1c-0.1,0-0.2,0-0.3,0c-0.9,0.4-1.9,1.7-2.5,2.3c-1,0.9-2.1,1.7-3.2,2.5
						C132.1,117.6,128.9,118.9,126.7,117.5z M142.6,115.6c-0.5,1.1-1.1,2.1-1.7,3.1c-1.2,2.1-3.5,4-5.9,4.6c-1,0.3-3.4,0-4.2-0.7
						c1.3-0.6,2.8-0.2,4.2-0.5c1.2-0.3,2.2-0.9,3-1.7c1.8-1.9,3.5-4.3,4.7-6.5c0.2-0.4,0.6-1.4,0.9-1.5l0.2-0.1
						C143.1,113,143,114.7,142.6,115.6z M144.1,110.2c-1,0.4-2,1.8-2.7,2.6c-0.8,1-1.6,2-2.3,3.1c-1.3,2-2.6,4.8-5.3,4.7
						c-1.2-0.1-3.5,0.6-4.4-0.4c0.4-0.6,1.3-0.5,1.9-0.6c0.7-0.1,1.3-0.4,1.9-0.7c1.3-0.5,2.5-0.8,3.6-1.8c1.8-1.6,3-4,4.8-5.7
						C142.3,110.6,143.4,110.5,144.1,110.2L144.1,110.2z"/>
				</g>
			</g>
		</g>
		<rect x="146.6" y="104.4" class="st8" width="1.1" height="7"/>
	</g>
</g>
<g id="streger_til_tekst">
	<line class="st3" x1="133.7" y1="28.3" x2="133.7" y2="85.7"/>
	<line class="st3" x1="59.3" y1="57.3" x2="71.7" y2="80"/>
	<line class="st3" x1="192.7" y1="57.7" x2="172.3" y2="106"/>
	<line class="st3" x1="182.3" y1="344" x2="169.7" y2="344"/>
	<polyline class="st3" points="133,306.3 182.3,300.3 155,299 	"/>
	<line class="st3" x1="222.3" y1="225.3" x2="222.3" y2="217"/>
	<line class="st3" x1="75.7" y1="356.3" x2="75.7" y2="349.7"/>
	<line class="st3" x1="48" y1="308.7" x2="48" y2="299.3"/>
</g>
<g id="txt">
	<text transform="matrix(1 0 0 1 94 26)" class="st11 st12">Bowmanske kapsel</text>
	<text transform="matrix(1 0 0 1 33.6665 45.334)"><tspan x="0" y="0" class="st11 st12">Første snoede</tspan><tspan x="0" y="10.8" class="st11 st12">del af tubulus</tspan></text>
	<text transform="matrix(1 0 0 1 173.6665 45.334)"><tspan x="0" y="0" class="st11 st12">Anden snoede</tspan><tspan x="0" y="10.8" class="st11 st12">del af tubulus</tspan></text>
	<text transform="matrix(1 0 0 1 202.6655 232.667)" class="st11 st12">Samlerør</text>
	<text transform="matrix(1 0 0 1 183.6665 302.667)" class="st11 st12">Henles slynge</text>
	<text transform="matrix(1 0 0 1 183.6665 347.001)" class="st11 st12">Kapillærnet</text>
	<text transform="matrix(1 0 0 1 33.666 316.335)" class="st11 st12">Arterie</text>
	<text transform="matrix(1 0 0 1 66.333 364.333)" class="st11 st12">Vene</text>
</g>
</svg>
