<?xml version="1.0" encoding="utf-8"?>
<!-- Generator: Adobe Illustrator 21.0.2, SVG Export Plug-In . SVG Version: 6.00 Build 0)  -->
<svg version="1.1" xmlns="http://www.w3.org/2000/svg" xmlns:xlink="http://www.w3.org/1999/xlink" x="0px" y="0px"
	 viewBox="0 0 566.9 481" style="enable-background:new 0 0 566.9 481;" xml:space="preserve">
<style type="text/css">
	.st0{fill:url(#SVGID_1_);}
	.st1{fill:#00ACC9;}
	.st2{fill:#009CCE;}
	.st3{fill:#307BBF;}
	.st4{fill:url(#SVGID_2_);stroke:#FFFFFF;stroke-width:0.5;stroke-miterlimit:10;}
	.st5{fill:url(#SVGID_3_);stroke:#FFFFFF;stroke-width:0.5;stroke-miterlimit:10;}
	.st6{fill:url(#SVGID_4_);stroke:#FFFFFF;stroke-width:0.5;stroke-miterlimit:10;}
	.st7{fill:url(#SVGID_5_);stroke:#FFFFFF;stroke-width:0.5;stroke-miterlimit:10;}
	.st8{fill:url(#SVGID_6_);stroke:#FFFFFF;stroke-width:0.5;stroke-miterlimit:10;}
	.st9{fill:url(#SVGID_7_);stroke:#FFFFFF;stroke-width:0.5;stroke-miterlimit:10;}
	.st10{fill:#E30613;stroke:#FFFFFF;stroke-width:0.5;stroke-miterlimit:10;}
	.st11{fill:#70B62C;stroke:#FFFFFF;stroke-width:0.5;stroke-miterlimit:10;}
	.st12{fill:#FFFFFF;}
	.st13{font-family:'Verdana-Bold';}
	.st14{font-size:9px;}
	.st15{font-family:'Verdana';}
</style>
<g id="baggrunde">
	<linearGradient id="SVGID_1_" gradientUnits="userSpaceOnUse" x1="176.3753" y1="377.0641" x2="390.5547" y2="-82.2451">
		<stop  offset="0.2636" style="stop-color:#406AB1"/>
		<stop  offset="0.7179" style="stop-color:#06B6D0"/>
	</linearGradient>
	<rect x="0" y="0" class="st0" width="566.9" height="294.8"/>
</g>
<g id="Lag_7">
	<rect x="325.4" y="15" class="st1" width="201.6" height="113.6"/>
	<rect x="39.9" y="15" class="st2" width="201.6" height="113.6"/>
	<rect x="325.4" y="165" class="st2" width="201.6" height="113.6"/>
	<rect x="39.9" y="165" class="st3" width="201.6" height="113.6"/>
</g>
<g id="streg">
	<g>
		<linearGradient id="SVGID_2_" gradientUnits="userSpaceOnUse" x1="283.457" y1="294.8192" x2="283.457" y2="1.4775">
			<stop  offset="0.4607" style="stop-color:#70B62C"/>
			<stop  offset="0.5658" style="stop-color:#E30613"/>
		</linearGradient>
		<rect x="281.5" y="15.8" class="st4" width="4" height="264.8"/>
		<g>
			<linearGradient id="SVGID_3_" gradientUnits="userSpaceOnUse" x1="283.4568" y1="294.8189" x2="283.4568" y2="1.4774">
				<stop  offset="0.4607" style="stop-color:#70B62C"/>
				<stop  offset="0.5658" style="stop-color:#E30613"/>
			</linearGradient>
			<polygon class="st5" points="273.5,18.7 283.5,1.5 293.4,18.7 			"/>
		</g>
		<g>
			<linearGradient id="SVGID_4_" gradientUnits="userSpaceOnUse" x1="283.4568" y1="294.8189" x2="283.4568" y2="1.4774">
				<stop  offset="0.4607" style="stop-color:#70B62C"/>
				<stop  offset="0.5658" style="stop-color:#E30613"/>
			</linearGradient>
			<polygon class="st6" points="273.5,277.6 283.5,294.8 293.4,277.6 			"/>
		</g>
	</g>
	<g>
		<linearGradient id="SVGID_5_" gradientUnits="userSpaceOnUse" x1="1.1524" y1="147.4937" x2="565.7609" y2="147.4937">
			<stop  offset="0.4607" style="stop-color:#70B62C"/>
			<stop  offset="0.5658" style="stop-color:#E30613"/>
		</linearGradient>
		<rect x="15.4" y="145.5" class="st7" width="536" height="4"/>
		<g>
			<linearGradient id="SVGID_6_" gradientUnits="userSpaceOnUse" x1="1.1523" y1="147.4938" x2="565.7613" y2="147.4938">
				<stop  offset="0.4607" style="stop-color:#70B62C"/>
				<stop  offset="0.5658" style="stop-color:#E30613"/>
			</linearGradient>
			<polygon class="st8" points="18.4,157.5 1.2,147.5 18.4,137.5 			"/>
		</g>
		<g>
			<linearGradient id="SVGID_7_" gradientUnits="userSpaceOnUse" x1="1.1523" y1="147.4938" x2="565.7613" y2="147.4938">
				<stop  offset="0.4607" style="stop-color:#70B62C"/>
				<stop  offset="0.5658" style="stop-color:#E30613"/>
			</linearGradient>
			<polygon class="st9" points="548.6,157.5 565.8,147.5 548.6,137.5 			"/>
		</g>
	</g>
</g>
<g id="Lag_6">
	<rect x="251.2" y="33.8" class="st10" width="64.6" height="12.8"/>
	<rect x="251.2" y="248.6" class="st11" width="64.6" height="12.8"/>
	<rect x="39.9" y="141.6" class="st11" width="64.6" height="12.8"/>
	<rect x="463.5" y="141.6" class="st10" width="64.6" height="12.8"/>
</g>
<g id="Lag_5">
	<text transform="matrix(1 0 0 1 46.7118 151.6093)" class="st12 st13 st14">Lav effekt</text>
	<text transform="matrix(1 0 0 1 471.222 151.6092)" class="st12 st13 st14">Høj effekt</text>
	<text transform="matrix(1 0 0 1 260.3539 43.5062)" class="st12 st13 st14">Høj risiko</text>
	<text transform="matrix(1 0 0 1 259.823 258.4774)" class="st12 st13 st14">Lav risiko</text>
</g>
<g id="txt">
	<text transform="matrix(1 0 0 1 46.3706 26.4443)" class="st12 st15 st14 yText">YOLO</text>
	
	<text transform="matrix(1 0 0 1 46.3706 182.004)" class="st12 st15 st14 yText">LIVSNYDERNE</text>
		<text transform="matrix(1 0 0 1 333.5558 182.004)" class="st12 st15 st14 yText" >EKSPERTERNE</text>
		<text transform="matrix(1 0 0 1 333.5558 26.4443)" class="st12 st15 st14 yText">ATLETERNE</text>
	
	<text transform="matrix(1 0 0 1 333.5558 26.1)" class="st12 st15 st14 ">
		<tspan x="0" y="26.8" class="st12 st15 st14">Kompetitive</tspan>
		<tspan x="0" y="42.8" class="st12 st15 st14">Vil vinde</tspan>
		<tspan x="0" y="58.8" class="st12 st15 st14">Nogen bekymringer om bivirkninger</tspan>
		<tspan x="0" y="74.8" class="st12 st15 st14">Høj interesse i effekten</tspan>
		<tspan x="0" y="90.8" class="st12 st15 st14">Tager forskellige typer doping</tspan>
	</text>
	<text transform="matrix(1 0 0 1 333.5558 182.1)" class="st12 st15 st14 ">
		<tspan x="0" y="25.8" class="st12 st15 st14">Videnskabelig eksperimenteren</tspan>
		<tspan x="0" y="40.8" class="st12 st15 st14">Vil vide mere</tspan>
		<tspan x="0" y="55.8" class="st12 st15 st14">Meget opmærksom på bivirkninger</tspan>
		<tspan x="0" y="70.8" class="st12 st15 st14">Sætter helbredet højt</tspan>
		<tspan x="0" y="85.8" class="st12 st15 st14">Søger anerkendelse for sin viden</tspan>
	</text>
	<text transform="matrix(1 0 0 1 46.3706 26.1)" class="st12 st15 st14 ">
		<tspan x="0" y="26.8" class="st12 st15 st14">Utålmodige</tspan>
		<tspan x="0" y="42.8" class="st12 st15 st14">Vil imponere pigerne</tspan>
		<tspan x="0" y="58.8" class="st12 st15 st14">Ligeglad med bivirkninger</tspan>
		<tspan x="0" y="74.8" class="st12 st15 st14">Lav viden om virkningerne</tspan>
		<tspan x="0" y="90.8" class="st12 st15 st14">Blander gerne steroider med andre stoffer</tspan>
	</text>
	<text transform="matrix(1 0 0 1 46.3706 182.1)" class="st12 st15 st14">
		<tspan x="0" y="26.8" class="st12 st15 st14">Ønsker ungdommelighed</tspan>
		<tspan x="0" y="42.8" class="st12 st15 st14">Vil have det godt</tspan>
		<tspan x="0" y="58.8" class="st12 st15 st14">Meget bevidste om bivirkninger</tspan>
		<tspan x="0" y="74.8" class="st12 st15 st14">Tager ikke chancer med mængden</tspan>
		<tspan x="0" y="90.8" class="st12 st15 st14">Er typisk ældre end de andre brugere</tspan>
	</text>
</g>

</svg>
