<?xml version="1.0" encoding="utf-8"?>
<!-- Generator: Adobe Illustrator 19.1.0, SVG Export Plug-In . SVG Version: 6.00 Build 0)  -->
<svg version="1.1" xmlns="http://www.w3.org/2000/svg" xmlns:xlink="http://www.w3.org/1999/xlink" x="0px" y="0px"
	 viewBox="0 0 269.3 481" style="enable-background:new 0 0 269.3 481;" xml:space="preserve">
<style type="text/css">
	.st0{fill:#E96141;}
	.st1{fill:url(#SVGID_1_);}
	.st2{fill:none;stroke:#000000;stroke-width:0.5;}
	.st3{fill:url(#SVGID_2_);}
	.st4{fill:url(#SVGID_3_);stroke:#000000;stroke-width:0.5;}
	.st5{fill:url(#SVGID_4_);stroke:#000000;stroke-width:0.5;}
	.st6{fill:url(#SVGID_5_);stroke:#000000;stroke-width:0.5;}
	.st7{fill:url(#SVGID_6_);stroke:#000000;stroke-width:0.5;}
	.st8{fill:url(#SVGID_7_);stroke:#000000;stroke-width:0.5;}
	.st9{fill:url(#SVGID_8_);stroke:#000000;stroke-width:0.5;}
	.st10{fill:url(#SVGID_9_);stroke:#000000;stroke-width:0.5;}
	.st11{fill:#FFFFFF;stroke:#000000;stroke-width:0.5;}
	.st12{fill:url(#SVGID_10_);stroke:#000000;stroke-width:0.5;}
	.st13{fill:#FDC400;stroke:#000000;stroke-width:0.5;}
	.st14{fill:url(#SVGID_11_);stroke:#000000;stroke-width:0.5;}
	.st15{fill:#F08800;stroke:#000000;stroke-width:0.5;}
	.st16{fill:url(#SVGID_12_);stroke:#000000;stroke-width:0.5;}
	.st17{fill:url(#SVGID_13_);stroke:#000000;stroke-width:0.5;}
	.st18{fill:none;stroke:#000000;stroke-width:0.75;}
	.st19{font-family:'Verdana';}
	.st20{font-size:9px;}
</style>
<g id="Lag_6">
	<rect y="0" class="st0" width="269.3" height="481"/>
</g>
<g id="Lag_10">
	<linearGradient id="SVGID_1_" gradientUnits="userSpaceOnUse" x1="157.6203" y1="223.1314" x2="157.6203" y2="70.6772">
		<stop  offset="5.617980e-03" style="stop-color:#E96141"/>
		<stop  offset="4.636234e-02" style="stop-color:#ED7B58"/>
		<stop  offset="0.104" style="stop-color:#F29877"/>
		<stop  offset="0.1692" style="stop-color:#F5AF93"/>
		<stop  offset="0.243" style="stop-color:#F8C2AA"/>
		<stop  offset="0.3292" style="stop-color:#FACFBB"/>
		<stop  offset="0.4357" style="stop-color:#FBD8C8"/>
		<stop  offset="0.5851" style="stop-color:#FCDECF"/>
		<stop  offset="1" style="stop-color:#FCDFD1"/>
	</linearGradient>
	<path class="st1" d="M223.6,103.6c0,0,4.5,35.9-28.2,53.7c-1.9,11.1-4.1,53.3-3.4,65.9c-13,0-98.8,0-98.8,0S88,151,95.7,114.5
		C93.3,82,93.1,74,93.1,74s57.3-7.3,67-0.4c9.6,6.8,28.7,17.8,38.1,22.5C207.6,100.8,223.6,103.6,223.6,103.6"/>
	<g>
		<path class="st2" d="M93.1,223.1c0,0-5.1-72.1,2.6-108.7C93.4,82,93.1,74,93.1,74s57.3-7.3,67-0.4c9.6,6.8,28.7,17.8,38.1,22.5
			c9.4,4.7,25.5,7.5,25.5,7.5"/>
		<path class="st2" d="M223.6,103.6c0,0,4.5,35.9-28.2,53.7c-1.9,11.1-4.1,53.3-3.4,65.9"/>
	</g>
	<linearGradient id="SVGID_2_" gradientUnits="userSpaceOnUse" x1="158.3084" y1="461.9424" x2="158.3084" y2="309.4895">
		<stop  offset="5.617980e-03" style="stop-color:#E96141"/>
		<stop  offset="4.636234e-02" style="stop-color:#ED7B58"/>
		<stop  offset="0.104" style="stop-color:#F29877"/>
		<stop  offset="0.1692" style="stop-color:#F5AF93"/>
		<stop  offset="0.243" style="stop-color:#F8C2AA"/>
		<stop  offset="0.3292" style="stop-color:#FACFBB"/>
		<stop  offset="0.4357" style="stop-color:#FBD8C8"/>
		<stop  offset="0.5851" style="stop-color:#FCDECF"/>
		<stop  offset="1" style="stop-color:#FCDFD1"/>
	</linearGradient>
	<path class="st3" d="M224.3,342.4c0,0,4.5,35.9-28.2,53.7c-1.9,11.1-4.1,53.3-3.4,65.9c-13,0-98.8,0-98.8,0s-5.1-72.1,2.6-108.7
		c-2.4-32.5-2.6-40.4-2.6-40.4s57.3-7.3,67-0.4c9.6,6.8,28.7,17.8,38.1,22.5C208.2,339.6,224.3,342.4,224.3,342.4"/>
	<g>
		<path class="st2" d="M93.7,462.4c0,0-5.1-72.1,2.6-108.7c-2.4-32.5-2.6-40.4-2.6-40.4s57.3-7.3,67-0.4
			c9.6,6.8,28.7,17.8,38.1,22.5c9.4,4.7,25.5,7.5,25.5,7.5"/>
		<path class="st2" d="M224.1,342.9c0,0,4.5,35.9-28.2,53.7c-1.9,11.1-4.1,53.3-3.4,65.9"/>
	</g>
</g>
<g id="Lag_11">
	<linearGradient id="SVGID_3_" gradientUnits="userSpaceOnUse" x1="122.9531" y1="135.5357" x2="122.9531" y2="98.3164">
		<stop  offset="5.617980e-03" style="stop-color:#FBE2EC"/>
		<stop  offset="4.991397e-02" style="stop-color:#FADAE1"/>
		<stop  offset="0.1657" style="stop-color:#F8C8C9"/>
		<stop  offset="0.2962" style="stop-color:#F6BBB6"/>
		<stop  offset="0.4475" style="stop-color:#F5B1A8"/>
		<stop  offset="0.6386" style="stop-color:#F4ABA1"/>
		<stop  offset="1" style="stop-color:#F4A99E"/>
	</linearGradient>
	<polyline class="st4" points="115.3,133.6 115.9,118.2 111.1,105.1 112.4,98.3 120.4,99.3 134.5,109.5 134.8,115.6 126.2,122.4 
		123.6,127.2 120.4,135.5 	"/>
	<linearGradient id="SVGID_4_" gradientUnits="userSpaceOnUse" x1="138.6743" y1="143.8785" x2="138.6743" y2="75.857">
		<stop  offset="5.617980e-03" style="stop-color:#FCE2DC"/>
		<stop  offset="2.176734e-02" style="stop-color:#FBDFD9"/>
		<stop  offset="0.141" style="stop-color:#F9CCC3"/>
		<stop  offset="0.2753" style="stop-color:#F7BDB3"/>
		<stop  offset="0.431" style="stop-color:#F5B2A7"/>
		<stop  offset="0.6279" style="stop-color:#F4ABA0"/>
		<stop  offset="1" style="stop-color:#F4A99E"/>
	</linearGradient>
	<polyline class="st5" points="124.9,137.8 132.9,126.2 139.3,118.5 138.7,113.1 133.5,106.7 120.1,98 114.6,88 119.1,77.5 
		131,75.9 144.8,81.3 153.1,90.9 158.9,100.6 162.7,108.6 162.1,117.9 150.2,129.4 139,138.7 134.8,143.9 	"/>
	<linearGradient id="SVGID_5_" gradientUnits="userSpaceOnUse" x1="168.6758" y1="149.9746" x2="168.6758" y2="84.5201">
		<stop  offset="5.617980e-03" style="stop-color:#FCE3D8"/>
		<stop  offset="3.159854e-02" style="stop-color:#FBDED3"/>
		<stop  offset="0.1497" style="stop-color:#F9CCC0"/>
		<stop  offset="0.2826" style="stop-color:#F7BDB1"/>
		<stop  offset="0.4367" style="stop-color:#F5B1A6"/>
		<stop  offset="0.6316" style="stop-color:#F4ABA0"/>
		<stop  offset="1" style="stop-color:#F4A99E"/>
	</linearGradient>
	<polyline class="st6" points="149.9,146.8 157.3,133.6 166.9,119.5 168.2,101.8 168.5,88.7 178.5,84.5 185.2,94.5 187.4,111.2 
		179.4,127.5 169.5,138.1 163.7,145.8 160.2,150 	"/>
	<linearGradient id="SVGID_6_" gradientUnits="userSpaceOnUse" x1="123.6413" y1="374.3487" x2="123.6413" y2="337.128">
		<stop  offset="5.617980e-03" style="stop-color:#FAE0EB"/>
		<stop  offset="4.991397e-02" style="stop-color:#FAD8E0"/>
		<stop  offset="0.1657" style="stop-color:#F8C7C8"/>
		<stop  offset="0.2962" style="stop-color:#F6BAB5"/>
		<stop  offset="0.4475" style="stop-color:#F5B0A8"/>
		<stop  offset="0.6386" style="stop-color:#F4AAA1"/>
		<stop  offset="1" style="stop-color:#F4A99E"/>
	</linearGradient>
	<polyline class="st7" points="115.9,372.4 116.6,357 111.8,343.9 113.1,337.1 121.1,338.1 135.2,348.4 135.5,354.5 126.8,361.2 
		124.3,366 121.1,374.3 	"/>
	<linearGradient id="SVGID_7_" gradientUnits="userSpaceOnUse" x1="139.364" y1="382.6914" x2="139.364" y2="314.668">
		<stop  offset="5.617980e-03" style="stop-color:#FCE5E0"/>
		<stop  offset="4.093240e-02" style="stop-color:#FBDFD8"/>
		<stop  offset="0.1579" style="stop-color:#F9CCC3"/>
		<stop  offset="0.2895" style="stop-color:#F7BDB2"/>
		<stop  offset="0.4422" style="stop-color:#F5B1A7"/>
		<stop  offset="0.6352" style="stop-color:#F4ABA0"/>
		<stop  offset="1" style="stop-color:#F4A99E"/>
	</linearGradient>
	<polyline class="st8" points="125.6,376.6 133.6,365 134.2,354.8 139.4,351.9 134.2,345.5 120.8,336.8 115.3,326.9 119.8,316.3 
		131.7,314.7 145.5,320.1 153.8,329.8 159.6,339.4 163.4,347.4 162.8,356.7 150.9,368.3 139.7,377.6 135.5,382.7 	"/>
	<linearGradient id="SVGID_8_" gradientUnits="userSpaceOnUse" x1="169.3633" y1="388.7871" x2="169.3633" y2="323.333">
		<stop  offset="5.617980e-03" style="stop-color:#FCE3D8"/>
		<stop  offset="3.159854e-02" style="stop-color:#FBDED3"/>
		<stop  offset="0.1497" style="stop-color:#F9CCC0"/>
		<stop  offset="0.2826" style="stop-color:#F7BDB1"/>
		<stop  offset="0.4367" style="stop-color:#F5B1A6"/>
		<stop  offset="0.6316" style="stop-color:#F4ABA0"/>
		<stop  offset="1" style="stop-color:#F4A99E"/>
	</linearGradient>
	<polyline class="st9" points="150.6,385.6 158,372.4 167.6,358.3 168.9,340.7 169.2,327.5 179.1,323.3 185.9,333.3 188.1,350 
		180.1,366.3 170.2,376.9 164.4,384.6 160.9,388.8 	"/>
</g>
<g id="Lag_8">
	<linearGradient id="SVGID_9_" gradientUnits="userSpaceOnUse" x1="154.2768" y1="20.563" x2="154.2768" y2="157.689">
		<stop  offset="5.617980e-03" style="stop-color:#E96141"/>
		<stop  offset="4.636234e-02" style="stop-color:#ED7B58"/>
		<stop  offset="0.104" style="stop-color:#F29877"/>
		<stop  offset="0.1692" style="stop-color:#F5AF93"/>
		<stop  offset="0.243" style="stop-color:#F8C2AA"/>
		<stop  offset="0.3292" style="stop-color:#FACFBB"/>
		<stop  offset="0.4357" style="stop-color:#FBD8C8"/>
		<stop  offset="0.5851" style="stop-color:#FCDECF"/>
		<stop  offset="1" style="stop-color:#FCDFD1"/>
	</linearGradient>
	<path class="st10" d="M86.5,22.3c0,0-4.3,42.4,0.9,67.2c3.3,16.1,14,38.1,19.3,42.4c2.1,1.7,8.6,5.6,9.8,4.3
		c1.3-1.3,0-7.7,0.9-13.3c0.9-5.6,2.6-6.4-0.9-12c-3.4-5.6-5.6-11.6,0.4-9.4c6,2.1,19.7,11.6,12.8,12.8c-6.8,1.3-9.4,6.4-9.8,9.4
		c-0.4,3-1.7,6.8-1.3,12c0.4,5.1,2.6,7.3,5.1,6.4c2.6-0.9,2.6-5.1,5.6-9c3-3.8,6.4-6.8,9-9.4c2.6-2.6,4.7-7.7,3-11.1
		c-1.7-3.4-5.1-9.8-9.4-12c-4.3-2.1-9.8-6-9.4-9c0.4-3,3.4-9,8.1-7.7c4.7,1.3,16.3,7.3,17.5,9.4c1.3,2.1,3.8,9.4,3.8,11.1
		s3,2.1,5.6,2.6c2.6,0.4,6.4,7.7,0.4,11.6c-6,3.9-15.4,11.1-18.4,13.7c-3,2.6-10.3,11.5-3,17.5c5.2,4.2,12,3.8,15,1.3
		c3-2.6,2.1-6,3.4-8.6c2.5-5,10.3-14.5,13.3-18.8c3-4.3,3-11.1,2.1-16.3c-0.9-5.1,0.2-12.6,1.3-15.8c1.7-5.1,11.1-3.4,11.1,7.3
		c0,12.5-0.4,17.5-5.1,23.1c-4.7,5.6-9.4,11.1-13.7,15.4c-4.3,4.3-12.4,12.4-8.6,15.4c3.8,3,14.5,6.8,24.8,3.9
		c10.3-3,22.7-9.8,29.5-17.1c6.8-7.3,12.4-21.4,13.7-33.8c1.3-12.4-0.9-29.1-6.4-40.2c-4.6-9.3-10.3-17.8-14.5-27.8
		c-3.4-8.1-3.9-9.8-4.7-17.1"/>
	
		<ellipse transform="matrix(0.9179 -0.3968 0.3968 0.9179 -35.236 50.5165)" class="st11" cx="104.5" cy="110.4" rx="5.3" ry="12.3"/>
	<linearGradient id="SVGID_10_" gradientUnits="userSpaceOnUse" x1="154.9649" y1="259.3741" x2="154.9649" y2="396.5013">
		<stop  offset="5.617980e-03" style="stop-color:#E96141"/>
		<stop  offset="4.636234e-02" style="stop-color:#ED7B58"/>
		<stop  offset="0.104" style="stop-color:#F29877"/>
		<stop  offset="0.1692" style="stop-color:#F5AF93"/>
		<stop  offset="0.243" style="stop-color:#F8C2AA"/>
		<stop  offset="0.3292" style="stop-color:#FACFBB"/>
		<stop  offset="0.4357" style="stop-color:#FBD8C8"/>
		<stop  offset="0.5851" style="stop-color:#FCDECF"/>
		<stop  offset="1" style="stop-color:#FCDFD1"/>
	</linearGradient>
	<path class="st12" d="M87.2,261.1c0,0-4.3,42.4,0.9,67.2c3.3,16.1,14,38.1,19.3,42.4c2.1,1.7,8.6,5.6,9.8,4.3
		c1.3-1.3,0-7.7,0.9-13.3c0.9-5.6,2.6-6.4-0.9-12c-3.4-5.6-5.6-11.5,0.4-9.4c6,2.1,19.7,11.6,12.8,12.8c-6.8,1.3-9.4,6.4-9.8,9.4
		c-0.4,3-1.7,6.8-1.3,12c0.4,5.1,2.6,7.3,5.1,6.4c2.6-0.9,2.6-5.1,5.6-9c3-3.8,9.1-10.3,9.1-13.9c0-4.8,4.6-3.2,2.9-6.6
		c-1.7-3.4-5.1-9.8-9.4-12c-4.3-2.1-9.8-6-9.4-9c0.4-3,3.4-9,8.1-7.7c4.7,1.3,16.3,7.3,17.5,9.4c1.3,2.1,3.8,9.4,3.8,11.1
		c0,1.7,3,2.1,5.6,2.6c2.6,0.4,6.4,7.7,0.4,11.6c-6,3.9-15.4,11.1-18.4,13.7c-3,2.6-10.3,11.6-3,17.5c5.2,4.2,12,3.8,15,1.3
		c3-2.6,2.1-6,3.4-8.6c2.5-5,10.3-14.5,13.3-18.8c3-4.3,3-11.1,2.1-16.3c-0.9-5.1,0.2-12.6,1.3-15.8c1.7-5.1,11.1-3.4,11.1,7.3
		c0,12.5-0.4,17.5-5.1,23.1c-4.7,5.6-9.4,11.1-13.7,15.4c-4.3,4.3-12.4,12.4-8.6,15.4c3.9,3,14.5,6.8,24.8,3.8
		c10.3-3,22.7-9.8,29.5-17.1c6.8-7.3,12.4-21.4,13.7-33.8c1.3-12.4-0.9-29.1-6.4-40.2c-4.6-9.3-10.3-17.8-14.5-27.8
		c-3.4-8.1-3.9-9.8-4.7-17.1"/>
	<path class="st11" d="M110,347.1c2.7,6.2,2.7,12.2,0,13.4c-2.7,1.2-7.1-2.9-9.8-9.2c-2.7-6.2-2.7-12.2,0-13.4
		C103,336.8,107.4,340.9,110,347.1z"/>
</g>
<g id="Lag_9">
	<path class="st13" d="M128.6,142.3c0,0,4.9,13.3,1.1,20.5c-3.4,6.4-12.6,9.4-17.5,9.4C115.1,165.8,124.6,142.3,128.6,142.3z"/>
	<linearGradient id="SVGID_11_" gradientUnits="userSpaceOnUse" x1="143.6479" y1="115.763" x2="129.6868" y2="77.4052">
		<stop  offset="1.123600e-02" style="stop-color:#E95B10"/>
		<stop  offset="0.1479" style="stop-color:#E04E16"/>
		<stop  offset="0.477" style="stop-color:#CF311C"/>
		<stop  offset="0.7715" style="stop-color:#C41C1F"/>
		<stop  offset="1" style="stop-color:#C01120"/>
	</linearGradient>
	<path class="st14" d="M126.9,78.5c0,0,5.1-1.1,11.8,2.1c4.7,2.3,9.6,6.2,12,9.8c2.4,3.6,4.7,10.1,5.3,13.7c0.6,3.6-0.6,7.5-2.4,7.9
		c-1.7,0.4-3.6-1.5-4.5-4.7c-0.9-3.2-4.4-9.4-7.5-12.6c-2.8-2.9-3.4-4.9-7.7-6.2c-4.3-1.3-7.9,1.9-4.7,4.3c3.2,2.4,7.5,4.1,11.1,7.3
		c3.6,3.2,9.4,10.7,7.9,13c-1.5,2.4-4.5,1.7-7.1-0.6c-2.6-2.4-1.9-3.6-4.7-6.2c-2.8-2.6-8.8-5.6-12.8-8.1c-4.1-2.6-7.5-6-5.6-11.8
		C120.1,80.7,123.7,79.4,126.9,78.5z"/>
	<path class="st11" d="M182.5,26.1c0,0-6.6,0.2-10.1,0c-3.4-0.2-1.7,1.5-1.3,3.4c0.4,1.9,1.9,6.8,1.5,8.6c-0.4,1.7-0.9,4.7,1.1,3.9
		c1.9-0.9,4.1-2.1,7.3-1.9c3.2,0.2,4.9-0.9,3.8-2.4c-1.1-1.5-1.7-7.3-1.7-8.8C183.2,27.4,184,26.3,182.5,26.1z"/>
	<path class="st11" d="M183.2,43.2c-1.7,1-6.8,0.2-7.5,1.5c-0.6,1.3-0.6,2.1,1.3,4.5c1.9,2.4,5.1,6.4,5.1,7.7c0,1.3,0.9,4.3,2.4,3.4
		c1.5-0.9,4.1-3.4,5.6-3.9c1.5-0.4,5.6-1.5,3.2-3c-2.4-1.5-4.3-4.1-4.7-6.2C188.1,45.2,187.4,40.7,183.2,43.2z"/>
	<path class="st11" d="M193.4,59.3c0,0-3.6,2.8-4.7,2.8c-1.1,0-2.1,0.4,0.6,3c2.8,2.6,5.3,5.6,5.8,6.6c0.4,1.1,2.1,2.1,3.4,0.6
		c1.3-1.5,2.4-2.4,3.4-2.8c1.1-0.4,2.4-2.1-0.2-4.1c-2.6-1.9-3.6-5.1-4.5-6.2C196.4,58.2,194.9,56.7,193.4,59.3z"/>
	<path class="st11" d="M203.7,73.2c-1.1,1.5-3.2,2.4-4.1,2.6c-0.9,0.2-1.9,1.5,0.2,3.2c2.1,1.7,3,3.4,3.4,4.5c0.4,1.1,1.9,1.5,3,0.4
		c1.1-1.1,1.9-1.5,2.8-1.9c0.9-0.4,0.9-2.1-0.4-3c-1.3-0.9-1.9-3-2.1-3.9C206.3,74.3,205.2,71.3,203.7,73.2z"/>
	<path class="st11" d="M209.5,85.2c-0.7,0.2-2.8,0.4-3.6,0.6c-0.9,0.2-1.5,1.3-0.9,2.8c0.6,1.5,0.6,3.2,0.6,4.1c0,0.9,0,2.4,1.1,1.7
		c1.1-0.6,3.2-0.6,3.2-0.6s1.9-0.9,1.3-2.1c-0.6-1.3-0.4-3.6-0.4-4.5C210.8,86.2,211,84.7,209.5,85.2z"/>
	<path class="st11" d="M208.8,97.4l-2.4-0.9c0,0-0.4,0.9-1.1,2.1c-0.6,1.3-1.5,2.8-1.5,3.6c0,0.9,0.4,2.1,1.5,2.4
		c1.1,0.2,2.4,0.9,2.6-1.1c0.2-1.9,1.3-3.4,1.9-4.1C210.5,98.9,210.1,97.4,208.8,97.4z"/>
	<path class="st11" d="M205.6,108.3c-0.1-0.1-0.1-0.1-0.2-0.2c-1-1-1.8-2.2-3.2-0.2c-1.5,2.1-2.4,5.3-2.4,5.3l1.5,1.1
		c0,0,1.7-0.6,2.4-1.9C204.4,110.9,205.6,108.3,205.6,108.3z"/>
	<path class="st11" d="M199.2,116.4c0,0-1.1-1.3-1.5-0.9c-0.4,0.4-1.9,3.4-1.9,3.4s-1.5,1.9,0,1.5c1.5-0.4,2.4-0.9,3.2-1.9
		C199.9,117.5,200.5,116.8,199.2,116.4z"/>
	
		<ellipse transform="matrix(-0.8806 -0.4739 0.4739 -0.8806 150.8063 351.2357)" class="st13" cx="119.7" cy="156.6" rx="4.1" ry="17.8"/>
	
		<ellipse transform="matrix(-0.8806 -0.4739 0.4739 -0.8806 150.8014 351.2375)" class="st15" cx="119.7" cy="156.6" rx="3" ry="14.9"/>
	<path class="st11" d="M183.2,264.9c0,0-6.6,0.2-10.1,0c-3.4-0.2-1.7,1.5-1.3,3.4c0.4,1.9,1.9,6.8,1.5,8.6c-0.4,1.7-0.9,4.7,1.1,3.9
		c1.9-0.9,4.1-2.1,7.3-1.9c3.2,0.2,4.9-0.9,3.9-2.4c-1.1-1.5-1.7-7.3-1.7-8.8C183.9,266.2,184.7,265.2,183.2,264.9z"/>
	<path class="st11" d="M183.9,282c-1.7,1-6.8,0.2-7.5,1.5c-0.6,1.3-0.6,2.1,1.3,4.5c1.9,2.4,5.1,6.4,5.1,7.7c0,1.3,0.9,4.3,2.4,3.4
		c1.5-0.9,4.1-3.4,5.6-3.9c1.5-0.4,5.6-1.5,3.2-3c-2.4-1.5-4.3-4.1-4.7-6.2C188.8,284,188.1,279.5,183.9,282z"/>
	<path class="st11" d="M194.1,298.1c0,0-3.6,2.8-4.7,2.8c-1.1,0-2.1,0.4,0.6,3c2.8,2.6,5.3,5.6,5.8,6.6c0.4,1.1,2.1,2.1,3.4,0.6
		c1.3-1.5,2.4-2.4,3.4-2.8c1.1-0.4,2.4-2.1-0.2-4.1c-2.6-1.9-3.6-5.1-4.5-6.2C197.1,297,195.6,295.5,194.1,298.1z"/>
	<path class="st11" d="M204.4,312c-1.1,1.5-3.2,2.4-4.1,2.6c-0.9,0.2-1.9,1.5,0.2,3.2c2.1,1.7,3,3.4,3.4,4.5c0.4,1.1,1.9,1.5,3,0.4
		c1.1-1.1,1.9-1.5,2.8-1.9c0.9-0.4,0.9-2.1-0.4-3c-1.3-0.9-1.9-3-2.1-3.8C207,313.1,205.9,310.1,204.4,312z"/>
	<path class="st11" d="M210.2,324c-0.7,0.2-2.8,0.4-3.6,0.6c-0.9,0.2-1.5,1.3-0.9,2.8c0.6,1.5,0.6,3.2,0.6,4.1c0,0.9,0,2.4,1.1,1.7
		c1.1-0.6,3.2-0.6,3.2-0.6s1.9-0.9,1.3-2.1c-0.6-1.3-0.4-3.6-0.4-4.5C211.4,325,211.7,323.5,210.2,324z"/>
	<path class="st11" d="M209.5,336.2l-2.3-0.9c0,0-0.4,0.9-1.1,2.1c-0.6,1.3-1.5,2.8-1.5,3.6c0,0.9,0.4,2.1,1.5,2.4
		c1.1,0.2,2.4,0.9,2.6-1.1c0.2-1.9,1.3-3.4,1.9-4.1C211.2,337.7,210.8,336.2,209.5,336.2z"/>
	<path class="st11" d="M206.3,347.1c-0.1-0.1-0.1-0.1-0.2-0.2c-1-1-1.8-2.2-3.2-0.2c-1.5,2.1-2.4,5.3-2.4,5.3l1.5,1.1
		c0,0,1.7-0.6,2.4-1.9C205.1,349.7,206.3,347.1,206.3,347.1z"/>
	<path class="st11" d="M199.9,355.2c0,0-1.1-1.3-1.5-0.9s-1.9,3.4-1.9,3.4s-1.5,1.9,0,1.5c1.5-0.4,2.4-0.9,3.2-1.9
		C200.5,356.3,201.2,355.6,199.9,355.2z"/>
	<g>
		<path class="st13" d="M163.1,348.1c0,0-3.1,11.4-9.6,12.7c-5.7,1.2-14.8-3.5-17.3-7.4C141.7,351.9,161,344.9,163.1,348.1z"/>
		<path class="st13" d="M149,345.8c-7.7,1.6-13.7,4.7-13.3,7c0.4,2.2,6.9,2.7,14.7,1.1c7.7-1.6,13.7-4.7,13.3-7
			C163.3,344.7,156.7,344.2,149,345.8z"/>
		<path class="st15" d="M149.2,346.9c-6.4,1.3-11.5,3.7-11.2,5.3c0.3,1.6,5.7,1.8,12.2,0.5c6.4-1.3,11.5-3.7,11.2-5.3
			C161,345.8,155.6,345.6,149.2,346.9z"/>
	</g>
	<linearGradient id="SVGID_12_" gradientUnits="userSpaceOnUse" x1="144.3354" y1="354.5741" x2="130.3746" y2="316.2172">
		<stop  offset="1.123600e-02" style="stop-color:#E95B10"/>
		<stop  offset="0.1479" style="stop-color:#E04E16"/>
		<stop  offset="0.477" style="stop-color:#CF311C"/>
		<stop  offset="0.7715" style="stop-color:#C41C1F"/>
		<stop  offset="1" style="stop-color:#C01120"/>
	</linearGradient>
	<path class="st16" d="M127.6,317.3c0,0,5.1-1.1,11.8,2.1c4.7,2.3,9.6,6.2,12,9.8c2.4,3.6,4.7,10.1,5.3,13.7
		c0.6,3.6-0.6,7.5-2.4,7.9c-1.7,0.4-3.6-1.5-4.5-4.7c-0.9-3.2-4.4-9.4-7.5-12.6c-2.8-2.9-3.4-4.9-7.7-6.2c-4.3-1.3-7.9,1.9-4.7,4.3
		c3.2,2.4,7.5,4.1,11.1,7.3c3.6,3.2,9.4,10.7,7.9,13c-1.5,2.4-4.5,1.7-7.1-0.6c-2.6-2.4-1.9-3.6-4.7-6.2c-2.8-2.6-8.8-5.6-12.8-8.1
		c-4.1-2.6-7.5-6-5.6-11.8C120.8,319.5,124.4,318.2,127.6,317.3z"/>
</g>
<g id="Lag_12">
	<linearGradient id="SVGID_13_" gradientUnits="userSpaceOnUse" x1="130.897" y1="156.6235" x2="56.7748" y2="94.4276">
		<stop  offset="0.1742" style="stop-color:#FCDFD1"/>
		<stop  offset="0.7692" style="stop-color:#FEF6F1"/>
		<stop  offset="1" style="stop-color:#FFFFFF"/>
	</linearGradient>
	<path class="st17" d="M76.2,71.3c0,0,9.2,42.1,10.3,45.8c1,3.5,2.3,8.5,5.1,8.8c0.1,0,0.2,0,0.3,0c3,0,3-0.2,6.2,3
		c3.2,3.2,7.1,6.6,9,7.5c1.9,0.9,5.3,3.2,6,4.9c0.6,1.7,1.9,3.6,2.8,5.1c0.9,1.5,2.8,3.4,2.8,3.4s4.3,0.3,5.1,0.4
		c1.5,0.2,4.5,2.6,1.9,4.1c1.1,0.6,1.5,2.4,0.4,3.9c0.4,1.5,1.1,3.2,0,4.3c-2.1,2.4-9.6,6-11.6,6.4c-1.9,0.4-3,0.6-5.6,0.2
		c-4.8-0.8-12.8-3.4-15.2-4.7c-2.4-1.3-4.9-2.8-8.1-7.9c-3.2-5.1-11.1-19.3-13-23.1c-1.9-3.8-11.8-30.2-11.8-30.2"/>
	<path class="st2" d="M92.7,134.1c0,0,7.9,7.3,8.3,10.9c5.1,1.9,9,3,10.7,4.3c2.1,0.2,6.8,0.4,6.8,0.4"/>
	<path class="st2" d="M97,152.1c0,0,0.9,2.1,3,2.8c2.1,0.6,8.3,1.9,9.6,1.9c1.3,0,5.6-0.6,7.5-0.9c1.9-0.2,8.6-1.7,8.6-1.7"/>
	<path class="st2" d="M96.1,159.8c0,0,0,0.9,1.7,1.5c1.7,0.6,8.1,2.6,10.9,2.1c2.8-0.4,17.3-5.3,17.3-5.3"/>
	<path class="st2" d="M99.5,141.4c0,0,2.8,1.7,4.9,1.9c0.2,1.1,0.6,3.2,0.6,3.2"/>
	<path class="st11" d="M121.1,150.9c0,0-1.1,3.5,0.4,4c1.8-0.4,4.2-1.2,4.2-1.2s0.4-2.8-0.5-2.9c-1.1-0.1-4.2,0-4.2,0"/>
	<path class="st11" d="M121.9,155.8c0,0-0.4,3.3,1,3.5c1.6-0.7,3.8-1.8,3.8-1.8s-0.1-2.5-1-2.5c-1.1,0.1-4,0.8-4,0.8"/>
	<path class="st11" d="M122.6,160.3c0,0,0.4,3,1.6,2.9c1.1-0.9,2.7-2.2,2.7-2.2s-0.7-2.2-1.3-2c-0.9,0.3-3.1,1.3-3.1,1.3"/>
</g>
<g id="streger">
	<line class="st18" x1="120.7" y1="110" x2="57.3" y2="132"/>
	<line class="st18" x1="55.3" y1="90.7" x2="101.3" y2="106.7"/>
	<line class="st18" x1="54.7" y1="48.7" x2="122.7" y2="84.7"/>
	<line class="st18" x1="151.3" y1="180" x2="158.7" y2="139.3"/>
	<polyline class="st18" points="153.3,108.7 149.7,54 145.3,112 	"/>
</g>
<g id="txt">
	<text transform="matrix(1 0 0 1 130.668 189.9995)" class="st19 st20">Endetarm</text>
	<text transform="matrix(1 0 0 1 97.334 50.6675)" class="st19 st20">Livmodermund</text>
	<text transform="matrix(1 0 0 1 9.999 50.6675)" class="st19 st20">Livmoder</text>
	<text transform="matrix(1 0 0 1 9.999 135.3335)" class="st19 st20">Urinblære</text>
	<text transform="matrix(1 0 0 1 9.999 92.6675)"><tspan x="0" y="0" class="st19 st20">Kønsben</tspan><tspan x="0" y="10.8" class="st19 st20">(skamben)</tspan></text>
</g>
</svg>
