<?xml version="1.0" encoding="utf-8"?>
<!-- Generator: Adobe Illustrator 19.1.0, SVG Export Plug-In . SVG Version: 6.00 Build 0)  -->
<svg version="1.1" xmlns="http://www.w3.org/2000/svg" xmlns:xlink="http://www.w3.org/1999/xlink" x="0px" y="0px"
	 viewBox="0 0 566.9 481" style="enable-background:new 0 0 566.9 481;" xml:space="preserve">
<style type="text/css">
	.st0{fill:url(#SVGID_1_);}
	.st1{fill:url(#SVGID_2_);stroke:#000000;stroke-width:0.5;}
	.st2{fill:url(#SVGID_3_);stroke:#000000;stroke-width:0.5;}
	.st3{fill:url(#SVGID_4_);stroke:#000000;stroke-width:0.5;}
	.st4{fill:url(#SVGID_5_);stroke:#000000;stroke-width:0.5;}
	.st5{fill:url(#SVGID_6_);stroke:#000000;stroke-width:0.5;}
	.st6{fill:url(#SVGID_7_);stroke:#000000;stroke-width:0.5;}
	.st7{fill:url(#SVGID_8_);stroke:#000000;stroke-width:0.5;}
	.st8{fill:none;stroke:#F29A79;stroke-width:0.5;}
	.st9{fill:url(#SVGID_9_);stroke:#000000;stroke-width:0.5;}
	.st10{fill:#F6C2CF;stroke:#000000;stroke-width:0.5;}
	.st11{fill:none;stroke:#EE869E;stroke-width:2.5;}
	.st12{fill:none;stroke:#D6C7A2;stroke-width:2.5;}
	.st13{fill:#C00418;stroke:#000000;stroke-width:0.5;}
	.st14{fill:url(#SVGID_10_);stroke:#000000;stroke-width:0.5;}
	.st15{fill:#EE869E;stroke:#000000;stroke-width:0.5;}
	.st16{fill:#FEDE9D;stroke:#000000;stroke-width:0.5;}
	.st17{fill:#E7D59C;stroke:#000000;stroke-width:0.5;}
	.st18{fill:#DAD8CC;stroke:#000000;stroke-width:0.5;}
	.st19{fill:#D6C7A2;stroke:#000000;stroke-width:0.5;}
	.st20{opacity:0.4;fill:#FFFFFF;}
	.st21{fill:url(#SVGID_11_);}
	.st22{fill:url(#SVGID_12_);}
	.st23{fill:url(#SVGID_13_);}
	.st24{fill:url(#SVGID_14_);}
	.st25{fill:url(#SVGID_15_);}
	.st26{fill:url(#SVGID_16_);}
	.st27{fill:url(#SVGID_17_);}
	.st28{fill:url(#SVGID_18_);}
	.st29{fill:url(#SVGID_19_);}
	.st30{fill:url(#SVGID_20_);}
	.st31{fill:#FEF2E7;stroke:#000000;stroke-width:0.5;}
	.st32{fill:#E7E6D8;stroke:#000000;stroke-width:0.5;}
	.st33{fill:none;stroke:#FFFFFF;stroke-width:0.75;}
	.st34{fill:none;stroke:#000000;stroke-width:0.5;}
	.st35{fill:#FFFFFF;}
	.st36{font-family:'Verdana';}
	.st37{font-size:9px;}
</style>
<g id="Lag_3">
	<linearGradient id="SVGID_1_" gradientUnits="userSpaceOnUse" x1="283.4644" y1="331.1661" x2="283.4644" y2="6.088077e-06">
		<stop  offset="0" style="stop-color:#17AED9"/>
		<stop  offset="1" style="stop-color:#172983"/>
	</linearGradient>
	<rect y="0" class="st0" width="566.9" height="331.2"/>
</g>
<g id="Lag_1">
	
		<linearGradient id="SVGID_2_" gradientUnits="userSpaceOnUse" x1="389.2539" y1="209.3003" x2="389.2539" y2="331.2539" gradientTransform="matrix(-1 0 0 1 592.5293 0)">
		<stop  offset="0" style="stop-color:#FFE4AA"/>
		<stop  offset="0.573" style="stop-color:#FFF1D6"/>
	</linearGradient>
	<path class="st1" d="M111,331.3c0,0,8.5-91.6,5.5-118.1l102.7-3.8l59.7,9l16.7,55.7l-5.5,21.7v35.5"/>
	
		<linearGradient id="SVGID_3_" gradientUnits="userSpaceOnUse" x1="214.4885" y1="145.6193" x2="534.8923" y2="145.6193" gradientTransform="matrix(-1 0 0 1 592.5293 0)">
		<stop  offset="0.6517" style="stop-color:#FFF1D6"/>
		<stop  offset="0.7462" style="stop-color:#FFEFCF"/>
		<stop  offset="0.8957" style="stop-color:#FFE9BB"/>
		<stop  offset="1" style="stop-color:#FFE4AA"/>
	</linearGradient>
	<path class="st2" d="M344.5,0.6c0,0-4.5,60.5-6.5,73c-1.9,11.9-8,45.5-10.5,54.5c-2,7.3-8.8,15.3,4.7,19.8s20.3,9.7,24.8,17.7
		c0,0,5.8,6.7,12,38.5c0,0,2.5,16,3.5,23.5s0.5,9,3,14c2.5,5,4.5,11.5-1,22.5c-5.5,11-13,15-17.5,15.5s-4.5-2-6-1.5s-5,4.5-8.5-2
		s-7.5-15-4.5-19.5c3-4.5,1.5-8.5-0.5-18.5c-2-10-6-41.5-8.5-46s-9-8.5-11.5-1s-2,18,0,27.5s4.8,34.3-0.5,48.7
		c-4.9,13.1-20.7,29.9-40.5,21.8c-13.5-5.5-21-15.5-23-30.5c-2.4-17.9,0-27.5,2-34.5s5-11-9.5-8s-77.5,13-107,7S56.2,180,57.7,102
		c0,0,1.4-60,23.4-102"/>
	
		<linearGradient id="SVGID_4_" gradientUnits="userSpaceOnUse" x1="323.5864" y1="149.1461" x2="389.3999" y2="173.1002" gradientTransform="matrix(-1 0 0 1 592.5293 0)">
		<stop  offset="7.303370e-02" style="stop-color:#FFFFFF"/>
		<stop  offset="9.596064e-02" style="stop-color:#F8E5E7"/>
		<stop  offset="0.1519" style="stop-color:#EAAAB1"/>
		<stop  offset="0.2077" style="stop-color:#DD7782"/>
		<stop  offset="0.2622" style="stop-color:#D34E5C"/>
		<stop  offset="0.315" style="stop-color:#CA2E3E"/>
		<stop  offset="0.3657" style="stop-color:#C51729"/>
		<stop  offset="0.4134" style="stop-color:#C1091C"/>
		<stop  offset="0.4551" style="stop-color:#C00418"/>
		<stop  offset="0.5073" style="stop-color:#C1091D"/>
		<stop  offset="0.5706" style="stop-color:#C3182A"/>
		<stop  offset="0.6398" style="stop-color:#C73141"/>
		<stop  offset="0.7131" style="stop-color:#CD5360"/>
		<stop  offset="0.7897" style="stop-color:#D57F88"/>
		<stop  offset="0.8678" style="stop-color:#DEB4B9"/>
		<stop  offset="0.9326" style="stop-color:#E6E6E6"/>
	</linearGradient>
	<path class="st3" d="M202.5,170.4c0,0,43.8-7,61-28c2,2.5,5.5,7,5.5,7s-20.8,22.8-64.2,28.2"/>
	
		<linearGradient id="SVGID_5_" gradientUnits="userSpaceOnUse" x1="170.2785" y1="-11.0578" x2="238.154" y2="13.6469" gradientTransform="matrix(-7.540000e-02 -0.9972 0.9972 -7.540000e-02 329.5012 283.4077)">
		<stop  offset="0.1517" style="stop-color:#FFFFFF"/>
		<stop  offset="0.2063" style="stop-color:#F2C9CE"/>
		<stop  offset="0.2973" style="stop-color:#DD7681"/>
		<stop  offset="0.372" style="stop-color:#CD3848"/>
		<stop  offset="0.4265" style="stop-color:#C41225"/>
		<stop  offset="0.4551" style="stop-color:#C00418"/>
		<stop  offset="0.5073" style="stop-color:#C1091D"/>
		<stop  offset="0.5706" style="stop-color:#C3182A"/>
		<stop  offset="0.6398" style="stop-color:#C73141"/>
		<stop  offset="0.7131" style="stop-color:#CD5360"/>
		<stop  offset="0.7897" style="stop-color:#D57F88"/>
		<stop  offset="0.8678" style="stop-color:#DEB4B9"/>
		<stop  offset="0.9326" style="stop-color:#E6E6E6"/>
	</linearGradient>
	<path class="st4" d="M323.6,44.8c0,0-6.7,42.8-26.3,61.5c2.6,1.8,13.5,9.5,13.5,9.5s18-25.6,20.2-69.3"/>
	
		<radialGradient id="SVGID_6_" cx="359.3406" cy="146.0162" r="16.662" gradientTransform="matrix(-1.3004 0 0 1 694.2727 0)" gradientUnits="userSpaceOnUse">
		<stop  offset="0.4438" style="stop-color:#F8C5AE"/>
		<stop  offset="0.5081" style="stop-color:#F8BFA6"/>
		<stop  offset="0.8245" style="stop-color:#F4A485"/>
		<stop  offset="1" style="stop-color:#F29A79"/>
	</radialGradient>
	<path class="st5" d="M229.5,133.6c3.9,1.5,24-9,18.6,9c-3.1,10.2-11.1,20-22.4,19.8c-11.4-0.2-18.7-7.8-19.5-13.2
		C204,135.1,201.5,123.1,229.5,133.6z"/>
	
		<linearGradient id="SVGID_7_" gradientUnits="userSpaceOnUse" x1="289.012" y1="94.1421" x2="408.9764" y2="94.1421" gradientTransform="matrix(-1 0 0 1 592.5293 0)">
		<stop  offset="7.865170e-02" style="stop-color:#EE869E"/>
		<stop  offset="0.2537" style="stop-color:#F1A0B2"/>
		<stop  offset="0.446" style="stop-color:#F4B3C2"/>
		<stop  offset="0.6278" style="stop-color:#F6BFCC"/>
		<stop  offset="0.7865" style="stop-color:#F6C2CF"/>
	</linearGradient>
	<path class="st6" d="M233.5,53.6c0,0,36.2-1.2,58.5,10.5c14.8,7.8,13.8,15.8,5.5,24.2s-40.5,38-45,40.2s-21,11.5-35.8,1.5
		S186,91.9,184.3,85.4s-1.8-21.7,16.8-26.7S222.3,54.4,233.5,53.6z"/>
	
		<linearGradient id="SVGID_8_" gradientUnits="userSpaceOnUse" x1="360.8277" y1="95.0273" x2="360.8277" y2="6.096808e-06" gradientTransform="matrix(-1 0 0 1 592.5293 0)">
		<stop  offset="0.3708" style="stop-color:#944B48"/>
		<stop  offset="0.377" style="stop-color:#954D49"/>
		<stop  offset="0.5131" style="stop-color:#A96E65"/>
		<stop  offset="0.6463" style="stop-color:#BA8A80"/>
		<stop  offset="0.7743" style="stop-color:#C69F95"/>
		<stop  offset="0.8948" style="stop-color:#CDABA3"/>
		<stop  offset="1" style="stop-color:#D0B0A7"/>
	</linearGradient>
	<path class="st7" d="M320.7,0c0,0-2.5,55-6.8,61.6c-4.3,6.7-8.5,8.7-23.9,3c-15.3-5.7-36.8-10.2-50.5-9.5c0,0-38.5,0.5-50.6,11.8
		c-8,4.7-16,13.7-16.7,23.3c-0.7,9.7-11.3,2-14.3-1s-10-10-9.7-25c0.3-15-5.5-64.3-5.5-64.3"/>
	<path class="st8" d="M224.7,137.9c-1.2-1.2-3.4-1.6-5-1.8c-0.9-0.1-1.9,0-2.8,0.1c-0.9,0.1-2,0.7-3,0.6"/>
	<path class="st8" d="M223.2,141.6c-0.7-1.1-3-1.2-4.2-1.4c-1.6-0.2-3.1,0.2-4.6,0.7"/>
	<path class="st8" d="M222.6,145.7c-0.7-0.7-2.5-0.8-3.4-0.9c-1.3-0.2-2.2,0.3-3.5,0.3"/>
	<path class="st8" d="M223.2,152.8c-1.5-0.4-3.1-0.1-4.5,0.5"/>
	<path class="st8" d="M225.3,155.4c-1.5,0-2.4,0.2-3.6,0.9"/>
	<path class="st8" d="M234.4,137.1c1.6-0.5,3.8,0.1,5.4,0.7c0.7,0.2,1.4,0.6,1.9,1c0.5,0.3,1.3,1.4,1.8,1.2"/>
	<path class="st8" d="M234.2,140.1c2-0.5,7,0.4,8.2,2.3"/>
	<path class="st8" d="M234.6,143.4c2.6-0.6,4.7,1.1,6.9,2"/>
	<path class="st8" d="M234.6,147.2c1.7,0.1,3.1,0.9,4.4,1.9"/>
	<path class="st8" d="M233.6,151.9c0.7-0.7,3.3,1.4,4,2.1"/>
	<path class="st8" d="M231.9,155.3c0.6,0.1,1.4,0.5,1.9,0.9c0.5,0.4,0.8,1.1,1.4,1.2"/>
	
		<radialGradient id="SVGID_9_" cx="300.875" cy="252.8831" r="25.547" gradientTransform="matrix(-1 0 0 1 592.5293 0)" gradientUnits="userSpaceOnUse">
		<stop  offset="0" style="stop-color:#FFF1D6"/>
		<stop  offset="0.1799" style="stop-color:#FDEDD0"/>
		<stop  offset="0.3872" style="stop-color:#F7E1BF"/>
		<stop  offset="0.6072" style="stop-color:#EDCEA4"/>
		<stop  offset="0.6798" style="stop-color:#E9C699"/>
	</radialGradient>
	<ellipse class="st9" cx="291.7" cy="252.9" rx="20.5" ry="29.8"/>
	<path class="st10" d="M355,249.9c0,0-0.5,5.8,4,6c4.5,0.3,9.5-0.8,9-19.5c-0.5-18.8-7.2-47.5-9.8-54.8s-9.8-23.8-23-27
		s-31-3.2-44.5,0s-30.1,7.2-33.8,8c-4.5,1-6,3.5-0.5,5.5s12,3.2,22.8,1.5s29-2.8,36.8-3s20.2,3.2,25.5,12s8,26.8,9.5,34.8
		S354.5,245.6,355,249.9z"/>
	<path class="st10" d="M358.3,255.1c3.5,0.6,7.8-4.2,9.8-9c2-4.7,6-2,5,5.8c-1,7.8-4.8,15.5-8.5,20s-7.5,8.5-11.2,6
		s-2.8-0.2-5.8-0.2s-5.8-7.5-6.5-10.5s-2.2-5.2-0.2-7.2s3-3.5,1.8-9c-1.2-5.5-4.5-32-6.2-41s-3.5-16.2-5.5-19.8s-2.8-9.8-20-5.8
		s-28.4,8.1-36.2,9.5c-8.2,1.5-14,3.2-27,4.2c-9.7,0.7-16.8,0.2-23.5-6.5c-3.5-3.8-5.5-16.8,6.5-16.2c4.8-8,12.5-5.8,26.8-4.8
		s18.5-1.8,32.5-3s27.1-3.4,38.2,0.2s14.5,11.2,17.8,22s6.2,29.2,7.2,36.2S354,254.4,358.3,255.1z"/>
	<path class="st11" d="M351.2,276.3c0,0,0.7-8.7-2.3-27c-3-18.3-7.7-43.7-10-53c-2.3-9.3-5.3-23.7-22.7-21.7c-17.3,2-49,7-61.3,7.7
		c-12.7,0.7-25,4.3-26-12.7s0.1-26.8,1.1-35.5"/>
	<path class="st12" d="M214.8,183.1c0,0,19.2,10,22.2,0.8"/>
	<path class="st13" d="M192.2,205.2c-7.1-3.8-9.3-18.7,4.9-15c5.5,1.4,24.2,11.5,54.9,9.4c8.5-0.6,23.8-2.8,26.3-2.8
		s5.7-0.2,3.7,2.3s-33.4,6.9-54.1,9.2C218.5,209.4,204.6,211.8,192.2,205.2z"/>
	<path class="st13" d="M141.2,211.9c5.4,0.7,12.6-6.8,3.2-10.3c-3.6-1.3-18-3.1-34.4-16.4c-4.5-3.7-12.2-10.9-13.6-11.9
		c-1.4-1-3.1-2.4-3-0.2c0.1,2.2,15.9,17,26.6,26.5C124.8,204,131.6,210.8,141.2,211.9z"/>
	<path class="st13" d="M146.3,198.2c3.6,0.6,8.6-4.1,2.4-6.8c-2.4-1-12-2.6-22.5-12c-2.9-2.6-7.8-7.7-8.7-8.4s-2-1.7-2-0.2
		c0,1.5,10.1,11.9,16.9,18.5C135.7,192.3,140,197.1,146.3,198.2z"/>
	<path class="st13" d="M198.8,217c-2.5-1.3-4-7,0.8-5.8c1.8,0.5,8.4,4,18.2,2.7c2.7-0.4,7.5-1.4,8.3-1.5c0.8,0,1.8-0.2,1.3,0.8
		c-0.5,1-10.4,3.2-17,4.4C207.5,218.2,203.2,219.3,198.8,217z"/>
	
		<linearGradient id="SVGID_10_" gradientUnits="userSpaceOnUse" x1="420.5337" y1="126.4282" x2="471.0695" y2="144.8218" gradientTransform="matrix(-1 0 0 1 592.5293 0)">
		<stop  offset="5.617980e-03" style="stop-color:#D2AFA7"/>
		<stop  offset="6.225887e-02" style="stop-color:#C89E95"/>
		<stop  offset="0.2044" style="stop-color:#B1796F"/>
		<stop  offset="0.3335" style="stop-color:#A15F58"/>
		<stop  offset="0.4439" style="stop-color:#97504C"/>
		<stop  offset="0.5225" style="stop-color:#944B48"/>
		<stop  offset="0.648" style="stop-color:#A26059"/>
		<stop  offset="0.9152" style="stop-color:#C69B91"/>
		<stop  offset="1" style="stop-color:#D2AFA7"/>
	</linearGradient>
	<path class="st14" d="M167.5,224.9c0,0-1-16.8-3.5-22.2s-18.2-23-23.2-27.2s-15.5-19.8-19.8-31.8s-11.2-36.2-11-48.8
		s1-38.5,3.5-42.2s11.2-14.8,15.8-0.8s6.5,24.7,10.2,32.7s16.8,28.8,19.2,33.5s15,18.8,17.5,22.5s6.5,14.8,7,18.5s0.5,9-4.8,18.8
		s-5.3,24.5-5,27.2s1.5,19.8,1.5,19.8S176.3,224.6,167.5,224.9z"/>
	<g>
		<path class="st15" d="M360.7,249.5c-1,0-3.4-0.2-3.6,1.4c-0.2,1.5,1.5,2.8,2.8,2.5c1.1-0.3,2.8-1.7,3.5-2.6
			c1.7-2.3-1.4-1.2-2.2-1.1L360.7,249.5z"/>
		<path class="st15" d="M362.9,248c0.7-0.1,1.7-0.1,2.3-0.7c0.3-0.4,0.8-2.2,0.5-2.7c-0.7-1.1-4.2,0.4-5.4,0.4
			c-1.6,0-4.7-0.2-3.4,2.5c0.2,0.4,0.1,0.6,0.6,0.6L362.9,248z"/>
		<path class="st15" d="M356.8,243.1c1,0.1,2-0.3,3-0.3c1,0,1.8,0.2,2.8,0c0.8-0.1,2,0.1,2.6-0.6c0.4-0.4,0.8-2.1,0.4-2.6
			c-0.8-1-4.7-0.1-5.9,0c-1.7,0.2-4.4,0.5-3.2,3c0.2,0.4,0,0.6,0.4,0.4"/>
		<path class="st15" d="M356.9,238.5c1.6-0.5,4.2-0.5,6-0.7c0.8-0.1,2.1,0.3,2.8-0.3c0.6-0.5,0.4-1.9,0.3-2.6
			c-0.4-2-2.8-0.3-4.5-0.2c-1.4,0.1-4.6-0.3-5.2,1c-0.4,0.7,0.1,3.3,0.8,2.5"/>
		<path class="st15" d="M356.3,233.4c0.7-0.6,2.1,0,3,0c1,0,2.1-0.3,3-0.4c0.7-0.1,2.6,0.2,3.1-0.2c0.7-0.5,0.4-2.4,0.3-3.2
			c-1.9-0.5-4.6,0.2-6.5,0.6c-0.8,0.1-2.5,0.1-3,0.6C355.5,231.5,356.1,232.9,356.3,233.4"/>
		<path class="st15" d="M355.7,228.6c1.7-0.8,4.2-0.3,6-0.3c1,0,2.1,0.1,3-0.2c1.3-0.3,1.1-0.6,1-1.8c-0.1-1,0.5-1.9-0.7-2.2
			c-0.8-0.2-2,0.4-2.9,0.5c-1,0.1-1.9,0.4-2.9,0.5c-0.8,0.1-2.2-0.1-3,0.3c-1.5,0.7-0.6,2.6-0.4,3.2"/>
		<path class="st15" d="M355,223.9c1.8-0.5,3.7-0.9,5.6-1.1c0.9-0.1,2-0.1,2.9-0.4c1.2-0.4,0.9-0.8,0.9-2c0-1.3,0.5-1.8-1-2
			c-1-0.2-1.9,0.2-2.8,0.5c-0.9,0.3-1.9,0.5-2.9,0.6c-0.8,0.1-2.3-0.2-2.9,0.3c-0.9,0.8-0.4,3.3,0.3,4"/>
		<path class="st15" d="M354.2,218.1c2,0,4-0.1,5.9-0.5c1.7-0.3,4-0.5,4-2.5c0-0.7-0.1-2.2-0.7-2.4c-0.6-0.3-1.9,0.3-2.5,0.5
			c-1.8,0.5-3.8,0.9-5.6,1.3c-0.6,0.1-1,0.1-1.5,0.4c-0.1,1.1-0.2,2.3,0.4,3.2"/>
		<path class="st15" d="M353.4,212.5c1.4-0.9,3.8-1.2,5.5-1.5c0.9-0.2,1.9-0.2,2.7-0.5c1.2-0.5,1-1,0.9-2.2c-0.1-1,0.1-2.1-0.9-2.3
			c-0.8-0.2-2.1,0.5-2.9,0.7c-0.8,0.2-1.5,0.6-2.3,0.8c-0.9,0.3-2,0.1-2.7,0.7c-1.1,0.8-1.1,3.2-0.4,4.1"/>
		<path class="st15" d="M352.5,206.5c1.4-0.8,3.7-1.2,5.4-1.8c1.7-0.5,3.8-0.6,3.8-2.7c0-0.6-0.2-2-0.7-2.4
			c-0.8-0.4-2.1,0.3-2.7,0.5c-1.6,0.7-3.3,1.2-4.9,1.8c-2.3,0.8-1.5,2.6-0.7,4.4"/>
		<path class="st15" d="M351.4,200.8c0-0.1-0.2,0-0.1-0.2c1.7-0.5,3.4-1,5.1-1.5c0.9-0.3,1.8-0.5,2.7-0.8c1.4-0.5,1.4-0.6,1.1-1.9
			c-0.1-0.7-0.1-2.1-0.9-2.3c-0.5-0.2-2.2,0.7-2.8,0.9c-1.7,0.6-3.7,0.9-5.2,1.6C349.6,197.1,350.1,199.8,351.4,200.8"/>
		<path class="st15" d="M349.8,194.8c2.4-1,9.9-1.6,9-5.3c-0.1-0.6-0.3-2.1-1-2.3c-0.5-0.2-1.9,0.6-2.4,0.9c-1.7,0.8-3.5,1.2-5,2
			c-1.1,0.6-1.2,0.8-1.1,2c0,0.7,0.2,2.4,0.7,2.5"/>
		<path class="st15" d="M346.9,185.6c0.2,0.7,1,2,1.1,3c1.1,0.5,3.9-1.1,5-1.6c1.6-0.7,4.4-1,3.8-3.1c-0.1-0.5-0.5-2.2-0.9-2.5
			c-0.8-0.6-2.1,0.2-2.8,0.5c-1.7,0.6-3.2,1.6-4.8,2.3c-0.6,0.3-1.5,0.5-1.3,1.2V185.6z"/>
		<path class="st15" d="M344.9,180.4c0.1,0.9,0.5,1.7,0.9,2.5c1.6,0.3,3.5-1.1,5-1.7c1.2-0.5,4.1-1.2,4.1-3c0-0.7-0.8-1.5-1.1-2.2
			c-0.5-1-0.6-1.3-1.8-0.8c-1.6,0.7-2.9,2.2-4.3,3.2c-0.6,0.4-2.8,1.7-2.7,1.8"/>
		<path class="st15" d="M343.2,175.5c0.2,0.7,0.4,2.1,1.2,2.2c0.8,0.2,1.7-0.9,2.3-1.3c1.4-1.1,3-1.6,4.4-2.5c1.5-1,1.1-3-0.2-4.2
			c-1.4-1.3-3.3,0.9-4.4,1.8c-0.5,0.4-5,3.4-3.3,3.8"/>
		<path class="st15" d="M339.2,171.5c0.6,0.4,1,1.5,1.7,1.5c0.7,0,1.8-1,2.3-1.4c1.4-1,2.9-2.2,4.2-3.4c1.8-1.7,1-2.9-0.4-4.4
			c-1.7-1.8-2.6-0.2-4,1.4c-0.8,1-1.8,2-2.5,3.1c-0.4,0.7-1.7,2.1-1.6,2.9c0.2,0.2,0.1-0.1,0.2-0.1"/>
		<path class="st15" d="M335.4,168.3c1.5,1.7,3.2-0.3,4.2-1.8c0.9-1.3,2.9-3.4,3.2-4.8c0.2-1.3-2.6-3.4-3.7-3
			c-1.3,0.5-1.8,3.8-2.4,4.9c-0.4,0.8-2.3,4.2-1.2,4.6"/>
		<path class="st15" d="M331,166.1c0.5,0.2,2.1,0.9,2.7,0.5c0.6-0.4,0.9-2.5,1.1-3.2c0.5-1.7,2.4-4.2,2.3-5.9
			c-2.6-1-4.7-2.9-5.5,0.9c-0.2,1.2-0.3,2.6-0.5,3.9c-0.2,1.1-0.8,2.9-0.1,3.8V166.1z"/>
		<path class="st15" d="M326.4,165.1c0.1,0,1.9,0.5,2.1,0.4c0.9-0.3,0.8-1.4,1-2.3c0.3-1.8,0.5-3.8,1-5.6c0.2-0.9,1-1.7,0.3-2.4
			c-0.4-0.4-2.1-0.7-2.6-0.7c-2.6-0.3-2.2,2.6-2.2,4.5c-0.1,1.8-0.3,4.3,0.3,6.1c0.1,0,0.2,0,0.4,0"/>
		<path class="st15" d="M321.7,164.5c1.3,0.1,1.7,0.2,2-1.1c0.2-0.9,0.2-1.9,0.4-2.9c0.2-1.4,1.2-4.5,0.3-5.5
			c-0.6-0.7-1.9-0.7-2.7-0.5c-1.3,0.2-1.2,0.5-1.2,1.9c-0.1,2,0.2,4.1,0.4,6.1c0.1,0.6,0.2,1.2,0.4,1.7c0.1,0,0.3,0.2,0.3,0.2"/>
		<path class="st15" d="M318.3,164c-0.3-1.5,0.1-3.9,0.3-5.5c0.2-1.8,0.9-4.2-1.5-4.4c-0.5,0-2.4,0-2.7,0.4
			c-0.6,0.6-0.2,2.3-0.2,3.1c0,1.7-0.2,4.3,0.5,5.8c0.5,1.2,2.6,1.1,3.8,0.9c0-0.1,0-0.2,0.1-0.2c0-0.3-0.2-0.1-0.3-0.2"/>
		<path class="st15" d="M312,154.4c-1.4,0-4.3-0.1-4.5,1.8c-0.1,1.9,0.3,4.2,0.5,6.1c0.1,1.3,0.2,1.7,1.5,1.9
			c1.1,0.1,1.9,0.3,2.4-0.6c0.4-0.8,0.1-2.1,0.2-3c0.1-0.9,0.3-2,0.4-2.9c0.1-0.9,0.7-3.4-0.5-3.1"/>
		<path class="st15" d="M303.3,164.5c0.8-0.3,1.7,0.2,2.4-0.7c0.4-0.6,0.2-2.2,0.3-3c0.1-1,0-2.1,0-3.1c0-1.2-0.3-1.5-0.8-2.5
			c-0.8,0-1.8,0-2.6,0.2c-0.5,1.4,0.1,3.1,0.2,4.5c0.1,1.5-0.2,3.4,0.7,4.6"/>
		<path class="st15" d="M299.2,164.8c1-0.1,1.9,0.4,2.2-0.6c0.3-0.8-0.2-2-0.2-2.9c0-1.2,0.7-4.7-0.5-5.3c-0.6-0.3-1.9,0.3-2.2,0.8
			c-0.4,0.8,0.2,1.9,0.3,2.6C298.8,161,298.3,163.7,299.2,164.8"/>
		<path class="st15" d="M295.8,165.6c1.3,0,1.7-0.1,1.8-1.5c0.1-1-0.3-2.1-0.4-3.1c-0.1-2,0.7-4.7-2-4.1c-1.3,0.3-1.5,0.4-1.4,1.6
			c0.1,1,0.3,2,0.4,3c0.1,1.2-0.4,5.2,1.8,4.1c0.1,0,0.1,0,0.1-0.1"/>
		<path class="st15" d="M292.2,165.9c0.6-1.9,1-10.3-2.8-7c-1.2,1.1-0.3,3.2-0.1,4.8c0.1,0.8-0.1,1.8,0.5,2.3
			c0.8,0.7,1.5,0.1,2.4,0.1c0.2-0.2,0.1-0.3,0-0.5"/>
		<path class="st15" d="M286.9,159.1c-1,0-2.2,0.5-3,0.9c-0.2,1.8,0.3,7.2,3.1,6c1.3-0.6,0.8-2.1,0.6-3.4c-0.1-0.6,0-4.2-1.1-3.2"/>
		<path class="st15" d="M281.5,159.9c-0.5,0.1-1.9,0.3-2.3,0.6c-0.8,0.6-0.4,1.2-0.3,2.1c0.2,1.3,0,4.2,1.5,4.5
			c0.6,0.1,2-0.3,2.3-0.8c0.4-0.7-0.2-1.7-0.3-2.4c-0.1-0.5,0-5.7-1.1-3.9"/>
		<path class="st15" d="M276.8,160.8c-1.4,0.5-2.7,0.6-2.1,2.5c0.4,1.3,0.7,2.8,1.2,4.1c2.2,0.1,2.2-0.6,2-2.6
			c-0.1-0.9,0.3-4.4-1.2-4"/>
		<path class="st15" d="M272,162.5c-1.6,0-2,0.7-1.7,2.2c0.1,0.7,0.5,3.1,1,3.5c1.4,1.3,2.2-0.5,2.3-1.7c0.1-1.4-0.2-2.8-0.5-4.1
			c-0.5-0.2-0.9-0.2-1.2,0.2"/>
		<path class="st15" d="M268.5,163.4c-3.7-0.4-1.9,4-0.9,5.7c3,0.4,2.1-5.7,0.9-5.6"/>
		<path class="st15" d="M263.8,164.3c-1.4,0.3-3.4-0.4-4,1.3c-0.5,1.7,1.5,2.4,2.9,2.8c1.4,0.5,3.3,1.2,3.4-1.1
			C266,166,265.5,163.3,263.8,164.3"/>
	</g>
	<path class="st16" d="M184,91.9c-5-5.8-11.3-11.7-0.5-18.8c11.5-7.5,28.8,7.5,42.5,15s16.7,3.8,45.7,2.5s53.3-1,51.3,23.2
		c-1.3,15.8-29.2,33.2-35,38c-8.5,7-15,13.2-18,53.2c-2,26.1-7,36-3.8,59.2c0.6,4.5,7,15.5,6,4.2s-4.8-8.5-4-13
		c0.8-4.5-1.2-10.2-0.2-14c1-3.8,2-4.8,3.5-10.5s3.8-2.5,5.8-6.2s4-9.2,8-8.5s8-2,10.8-0.8s9.8,1.5,10.8,4.5s8.5,8.8,6,11.2
		s-3.5,1-10.8-1.2s-16.2-7.4-21.5,2.4c-5.2,9.7-8.5,20.6-6.5,29.9c2,9.2,2,22.8-8.2,11.5s-0.6-60.8-0.2-67.5
		c0.8-14,3.2-47.8,22-60.5s27.8-23.2,30-27.5s3-21.2-14.3-23.2c-9.5-1.1-21.4-0.6-36,0c-11.1,0.5-27.2,4.5-38.5-0.8
		c-18-8.4-33.4-23.5-41.5-19c-10,5.5-5,8.2-0.5,14.2"/>
	<path class="st17" d="M227.5,147.1c-9-2-15.2-8.5-18-10.8c-1.9-1.6,2.5-6.5-2.5-9.2s0-6.5-3-9.2s0.6-4.5,2.3-7.2s-3.6-5.8-6.6-8
		s1.3-5.9-2-8.2c-3.5-2.5-4.2-0.8-6.5-2.8s-4.2-3.3-7.2,0.2c-1.8,2-0.5,4.2,0.5,6c1.6,2.8-0.2,5-0.2,7.5s0.5,7,3.5,9.5
		s0.8,2.9,2.6,6.4s2.9-0.7,3.7,2.6c0.3,1.1,0,3.5,1.8,5.2s1.8,2,5.3,3.5s3.2,1.2,5.2,4s8,8,21,14"/>
	<path class="st10" d="M212,91.9c0,0-14.2-12.2-17.8-20.8s-11-23.2-14-24.2c-1.8,1.2-2,1.2-2.8,2.2c-1-1.3,8.9,15.2,12.2,23.5
		c2,5,11.5,17.2,15.2,24.2"/>
	<path class="st18" d="M157.1,224.9c-3.4,0-9.5-0.5-9.5-0.5c-1.4-1.2-4.2-5.2-1.1-8.8c1.5-1.8,5.7-3.4,7.6-5.9
		c3.7-4.7,3.4-10.6,2.4-13c-3.8-8.8-4.2-7.6-22-25.4s-25.9-54.1-26.5-86.2c-0.8-40,15-52.7,23.2-32.7c3,7.3,4.5,29,23.2,55
		s30,44.1,32.6,61.5c0.6,4.2,2.2,10.6,0,18.6c-2.4,8.4-7.6,20.5,2,24.9c8.1,3.7,5.8,11,5.8,11s-5.6,0.6-10.5,0.9
		c-4.9,0.2-10.1,0.5-10.1,0.5s-2.2-16.9-1.5-26.4c0,0,0.8-8.5,3.3-17.2s7-9.5,6.2-18s-7.3-23.2-15-28.8s-8.2-9.8-10.5-16.5
		s-10-17.5-11.8-20.5s-9.2-11.2-10.5-16.8c-1.2-5.4-2.2-14-3-19s-6.1-14.9-10-14.5c-4.8,0.5-7.5,5.8-8.2,12.2s0,11.2-1.2,19.5
		s-0.5,22.5,1,30.8s4.2,19.5,7,25.2s5,12.2,7.8,20s7.8,12.2,11,15.8s10.5,10.8,13.8,14.2s7.8,8.7,10,12.4c1.6,2.6,4.4,9.2,5.4,12.9
		c1.1,4.4,1.2,14.9,1.2,14.9S160.5,224.9,157.1,224.9z"/>
	<ellipse class="st19" cx="213.3" cy="181.6" rx="6.2" ry="4.2"/>
	<ellipse class="st20" cx="306.9" cy="227.7" rx="2.2" ry="2.1"/>
	<ellipse class="st20" cx="302.1" cy="222.9" rx="2.2" ry="2.1"/>
	<ellipse class="st20" cx="295.9" cy="224.6" rx="2.2" ry="2.1"/>
	<ellipse class="st20" cx="294.4" cy="218.8" rx="2.2" ry="2.1"/>
	<ellipse class="st20" cx="289.5" cy="222.5" rx="2.2" ry="2.1"/>
	<ellipse class="st20" cx="284.1" cy="220" rx="2.2" ry="2.1"/>
	<ellipse class="st20" cx="281.4" cy="226.6" rx="2.2" ry="2.1"/>
	<ellipse class="st20" cx="275.5" cy="231.4" rx="2.2" ry="2.1"/>
	<ellipse class="st20" cx="273.4" cy="237.7" rx="2.2" ry="2.1"/>
	<ellipse class="st20" cx="272.1" cy="243.9" rx="2.2" ry="2.1"/>
	<ellipse class="st20" cx="270.9" cy="250.4" rx="2.2" ry="2.1"/>
	
		<radialGradient id="SVGID_11_" cx="402.7156" cy="96.0883" r="4.9001" gradientTransform="matrix(-1 0 0 1 592.5293 0)" gradientUnits="userSpaceOnUse">
		<stop  offset="0.4438" style="stop-color:#CDB771"/>
		<stop  offset="0.7793" style="stop-color:#DFCB8E"/>
		<stop  offset="1" style="stop-color:#E7D59C"/>
	</radialGradient>
	<path class="st21" d="M188.4,91.1c-1.8,1.1-4.1,2.7-3.1,5.2c0.4,1,1.5,1.8,2.2,2.6c0.8,1,1.8,1.9,3.1,2.2c2.7,0.6,4.5-2.8,3.8-5.1
		c-0.3-1.1-1.4-1.4-2.2-2.1c-0.8-0.7-1.5-1.5-2.3-2.1c-0.5-0.3-1-0.6-1.6-0.5"/>
	
		<radialGradient id="SVGID_12_" cx="397.491" cy="102.6592" r="4.1543" gradientTransform="matrix(-1 0 0 1 592.5293 0)" gradientUnits="userSpaceOnUse">
		<stop  offset="0.4438" style="stop-color:#CDB771"/>
		<stop  offset="0.7793" style="stop-color:#DFCB8E"/>
		<stop  offset="1" style="stop-color:#E7D59C"/>
	</radialGradient>
	<path class="st22" d="M196.8,98.1c0-0.7-1,0.1-1.3,0.3c-0.6,0.5-1.1,0.8-1.7,1.2c-1.6,1-2.5,2-2,4.1c0.2,1,0.7,2.3,1.3,3.1
		c0.5,0.7,1.4,0.8,2.2,0.7c1.5-0.2,2.8-0.9,2.9-2.5c0.1-1.3-0.5-2.5-0.6-3.8C197.7,100.3,198,98.5,196.8,98.1"/>
	
		<radialGradient id="SVGID_13_" cx="403.8927" cy="104.9942" r="5.2308" gradientTransform="matrix(-1 0 0 1 592.5293 0)" gradientUnits="userSpaceOnUse">
		<stop  offset="0.4438" style="stop-color:#CDB771"/>
		<stop  offset="0.7793" style="stop-color:#DFCB8E"/>
		<stop  offset="1" style="stop-color:#E7D59C"/>
	</radialGradient>
	<path class="st23" d="M188.8,99.6c-0.7-0.9-1.9-1.4-2.7-0.3c-0.3,0.4-0.3,1-0.5,1.5c-0.2,0.5-0.5,1-0.6,1.6c-0.4,1.4-0.1,1.8,0.7,3
		c0.6,0.9,1.5,1.5,1.9,2.4c0.3,0.5,0.6,1,0.9,1.6c0.3,0.5,0.2,1.3,0.6,1.8c1.2,1.4,2.6-1.7,2.8-2.6c0.3-1.4,0.7-2.9,0.4-4.2
		c-0.3-1.4-0.9-2.1-1.9-3c-0.3-0.3-0.5-0.6-0.8-0.9c-0.3-0.4-0.7-0.5-1.1-0.9"/>
	
		<radialGradient id="SVGID_14_" cx="400.8566" cy="112.8356" r="4.5285" gradientTransform="matrix(-1 0 0 1 592.5293 0)" gradientUnits="userSpaceOnUse">
		<stop  offset="0.4438" style="stop-color:#CDB771"/>
		<stop  offset="0.7793" style="stop-color:#DFCB8E"/>
		<stop  offset="1" style="stop-color:#E7D59C"/>
	</radialGradient>
	<path class="st24" d="M191.8,108.1c-1.2-0.7-2.4,1-3.2,1.7c-1.2,0.9-1.2,1.9-0.9,3.3c0.2,1.2,0.5,2,1.5,2.9
		c0.9,0.9,1.8,1.7,3.2,1.8c2.2,0.1,4.3-2.3,3.3-4.4c-0.7-1.4-2-5.3-4-5.1"/>
	
		<radialGradient id="SVGID_15_" cx="394.9377" cy="111.6439" r="3.9938" gradientTransform="matrix(-1 0 0 1 592.5293 0)" gradientUnits="userSpaceOnUse">
		<stop  offset="0.4438" style="stop-color:#CDB771"/>
		<stop  offset="0.7793" style="stop-color:#DFCB8E"/>
		<stop  offset="1" style="stop-color:#E7D59C"/>
	</radialGradient>
	<path class="st25" d="M198.6,106.9c-0.8-0.1-1.4,0.3-1.9,0.8c-0.5,0.5-1.1,0.8-1.5,1.2c-1.1,1-0.3,2,0.2,3.1
		c0.5,1.2,0.4,2.3,0.7,3.5c0.5,1.8,1.8,0.5,2.5-0.5c0.8-1.3,1.9-2.8,2.1-4.4c0.2-1.4-0.8-3.1-1.9-3.6"/>
	
		<radialGradient id="SVGID_16_" cx="390.6047" cy="109.8109" r="3.9938" gradientTransform="matrix(-1 0 0 1 592.5293 0)" gradientUnits="userSpaceOnUse">
		<stop  offset="0.4438" style="stop-color:#CDB771"/>
		<stop  offset="0.7793" style="stop-color:#DFCB8E"/>
		<stop  offset="1" style="stop-color:#E7D59C"/>
	</radialGradient>
	<path class="st26" d="M202.9,105.1c-0.8-0.1-1.4,0.3-1.9,0.8c-0.5,0.5-1.1,0.8-1.5,1.2c-1.1,1-0.3,2,0.2,3.1
		c0.5,1.2,0.4,2.3,0.7,3.5c0.5,1.8,1.8,0.5,2.5-0.5c0.8-1.3,1.9-2.8,2.1-4.4c0.2-1.4-0.8-3.1-1.9-3.6"/>
	
		<radialGradient id="SVGID_17_" cx="396.1444" cy="118.6127" r="3.8882" gradientTransform="matrix(-1 0 0 1 592.5293 0)" gradientUnits="userSpaceOnUse">
		<stop  offset="0.4438" style="stop-color:#CDB771"/>
		<stop  offset="0.7793" style="stop-color:#DFCB8E"/>
		<stop  offset="1" style="stop-color:#E7D59C"/>
	</radialGradient>
	<path class="st27" d="M196.9,114.5c-1,0-2.3,1-3,1.6c-0.8,0.7-1.3,1.9-1,3c0.3,1,0.7,3,1.9,3.2c0.6,0.1,1.2,0,1.7,0.1
		c0.6,0.1,1.2,0.4,1.8,0.4c1-0.1,1.6-1.1,1.7-2c0.1-1-0.5-1.7-0.6-2.7c-0.1-0.8-0.3-1.6-0.9-2.2
		C198.2,115.6,197.2,114.4,196.9,114.5"/>
	
		<radialGradient id="SVGID_18_" cx="390.9882" cy="121.2546" r="3.6521" gradientTransform="matrix(-1 0 0 1 592.5293 0)" gradientUnits="userSpaceOnUse">
		<stop  offset="0.4438" style="stop-color:#CDB771"/>
		<stop  offset="0.7793" style="stop-color:#DFCB8E"/>
		<stop  offset="1" style="stop-color:#E7D59C"/>
	</radialGradient>
	<path class="st28" d="M203.3,117.9c-1-0.1-2.5-1.3-3.4-0.5c-0.6,0.6-1.2,2.3-1.4,3.1c-0.2,0.7-0.1,1.3,0.2,2
		c0.3,0.7,0.9,1.7,1.5,2.2c0.9,0.8,3,0.9,3.6-0.2c1-1.7,1.4-5.6-0.6-6.6"/>
	
		<radialGradient id="SVGID_19_" cx="393.5662" cy="126.2464" r="3.3735" gradientTransform="matrix(-1 0 0 1 592.5293 0)" gradientUnits="userSpaceOnUse">
		<stop  offset="0.4438" style="stop-color:#CDB771"/>
		<stop  offset="0.7793" style="stop-color:#DFCB8E"/>
		<stop  offset="1" style="stop-color:#E7D59C"/>
	</radialGradient>
	<path class="st29" d="M197.7,122.6c0-0.1-0.1-0.1-0.1-0.2c-1,0.3-1.5,2.3-1.4,3.2c0.1,0.7,0.4,1,0.8,1.6c0.3,0.5,0.5,1.1,0.8,1.7
		c0.9,1.5,2.5,1.7,3.4,0.1c0.8-1.3,0.8-3.3-0.6-4.3c-0.6-0.4-1.4-0.6-1.9-1.1c-0.3-0.3-0.6-1.4-1-1.2"/>
	
		<radialGradient id="SVGID_20_" cx="387.2318" cy="129.8388" r="3.9943" gradientTransform="matrix(-1 0 0 1 592.5293 0)" gradientUnits="userSpaceOnUse">
		<stop  offset="0.4438" style="stop-color:#CDB771"/>
		<stop  offset="0.7793" style="stop-color:#DFCB8E"/>
		<stop  offset="1" style="stop-color:#E7D59C"/>
	</radialGradient>
	<path class="st30" d="M204.1,125.9c-1.2-1.1-1.6,1-1.8,1.7c-0.4,1-1.1,2.5-0.4,3.6c0.2,0.3,0.9,1.1,1.2,1.3c0.5,0.3,1.2,0,1.7,0.2
		c1,0.4,1.8,2,3,1.2c1.9-1.2,1.1-3.6,0.1-5C207.4,128.1,205.1,125.6,204.1,125.9"/>
	<path class="st13" d="M175.9,218.8c-0.2-0.7-0.9-1.2,0.5-1.8c0.8-0.3,2.1,0.1,2.9,0c2-0.2,4.1-1,6.1-1c1.8,0,4.2-0.3,5.7,0.6
		c1.3,0.8,3.1,3,1.6,4.2c-1.1,0.9-3.4,0.7-4.7,0.7c-1.7,0-3.2,0.3-4.9,0.4c-0.8,0-1.6-0.1-2.4-0.1c-1,0.1-1.3,0.4-2.4,0
		C177,221.3,176.3,220,175.9,218.8z"/>
	<path class="st13" d="M174.5,211c1.2-1.2,4.1-0.6,5.6-0.6c2.3,0,5.2,0.5,5.3,2.1c0,1.3-4.9,1.1-6.4,1.1c-1.2,0-5-0.8-4.6-2.4
		L174.5,211z"/>
	<path class="st13" d="M175,205.5c1.8,0.2,4.1-0.7,5.5-2.2c0.8-0.8,2.5-4.4,1.5-5.5c-2-2-2.9,2.5-3.5,3.4c-1.1,1.5-4.6,1.4-4.1,3.5
		c0.1,0.2,0.2,0.6,0.4,0.8L175,205.5z"/>
	<path class="st13" d="M175.3,198.4"/>
	<path class="st13" d="M175.6,198.5"/>
	<path class="st13" d="M175.7,198.6c1-1.1,2.8-1.9,4.2-3.1c1.3-1.2,3.2-2.7,4-4.4c0.9-2,0.4-4.4-2.3-3.4c-1.2,0.4-1.5,1.4-2.2,2.4
		c-0.7,1-1.5,1.8-2.5,2.5c-1.1,0.8-2.6,1.4-2.7,2.9c-0.1,0.7,0.3,1.4,0.3,2.1c0,0.6,0,1.9,0.8,1.4L175.7,198.6z"/>
	<path class="st13" d="M147.5,217.8c0.5-1.5,4.5-1.6,5.9-1.6c2.2-0.1,3.9,0.3,6,0.6c1.9,0.3,4.6-0.2,6.2,0.8
		c1.4,0.8,2.1,3.6,0.9,4.6c-1.2,1.1-4.2,1-5.7,1c-2.2,0-4.2,0.1-6.4-0.1c-1.8-0.2-4,0.4-5.6-0.7c-0.6-0.4-1.5-1.2-1.8-1.9
		c-0.2-0.5-0.1-2.6,0.6-2.8L147.5,217.8z"/>
	<path class="st13" d="M155.4,210.8c2.3-0.8,4-0.3,5.8-0.2c1.7,0.1,4.6-0.8,4.8,1.9c0.3,3-8.8,2.5-10.6,1.2c-0.7-0.5-2-3.2-0.3-2.8
		H155.4z"/>
	<path class="st13" d="M158.8,203.7c0.9,0.1,1.3,0.4,2.2,0.5c0.8,0,1.8-0.2,2.5,0.1c1.9,0.9,1.4,2.8-0.5,2.9c-1.5,0.1-3.4-0.2-4.6-1
		c-0.4-0.3-1.2-1-1.1-1.5c0.1-0.6,0.5-1,1.3-0.9H158.8z"/>
	<ellipse class="st31" cx="485.3" cy="207.6" rx="31.7" ry="35.7"/>
	<ellipse class="st10" cx="487.7" cy="192.9" rx="18.7" ry="14.2"/>
	<ellipse class="st10" cx="487.7" cy="221.5" rx="18.7" ry="14.2"/>
	<ellipse class="st10" cx="464.7" cy="207.4" rx="7.8" ry="11.1"/>
	<g>
		<g>
			<path class="st15" d="M499.6,182.8c-1.2-0.8-1.9-0.6-2.8,0.6c-0.6,0.9-1.5,2.1-1.3,3.2c0.4,2.7,3.9-0.6,4.6-1.6
				C500.8,183.9,500.4,183.4,499.6,182.8L499.6,182.8z"/>
			<path class="st15" d="M495.2,180.6c-1.1-0.3-2.2-0.8-2.7,0.7c-0.3,0.8-0.9,2.6-0.5,3.5c1,2.5,4.2-1.7,4-3.1
				C496,181.2,495.7,180.9,495.2,180.6L495.2,180.6z"/>
			<path class="st15" d="M490.5,179.6c-2.5-1.4-2.9,3.4-2,4.8c0.8,1.3,1.6-0.4,2-1.1c0.3-0.7,1.1-2.2,1.2-3c0-0.3-0.2-0.5-0.2-0.6
				c-0.3-0.2-0.4-0.1-0.7-0.2L490.5,179.6z"/>
			<path class="st15" d="M487.4,184.3c0-1.9,0.2-6-2.8-4.6c-1.3,0.6-0.4,2,0,2.9c0.4,0.8,0.9,2.4,2,2.4c0.3,0,1.1-0.4,0.7-0.7"/>
			<path class="st15" d="M483.5,183.1c-0.3-0.9-1.6-1.8-2.5-1.9c-1.7-0.1-0.9,2-0.5,2.8c0.5,1,1.2,2.7,2.4,2.9
				c1.1,0.2,2.4-0.8,1.9-1.9C484.5,184.3,483.6,183.8,483.5,183.1"/>
			<path class="st15" d="M479.4,183.4c-0.8-0.4-2.1-1.4-3-0.5c-1,1,0.3,2.2,1,2.8c0.7,0.7,1.5,1.9,2.6,0.9c0.8-0.8,0.1-1.9-0.1-2.8
				C479.7,183.8,479.5,183.6,479.4,183.4"/>
			<path class="st15" d="M475.5,185.1c-1.2-0.3-2.5-0.1-2.3,1.6c0.1,1,1.8,1.3,2.6,1.7c1.1,0.5,2.2,0.1,1.7-1.2
				c-0.2-0.6-1-1.2-1.7-1.7L475.5,185.1z"/>
			<path class="st15" d="M473.3,188.6c-0.7-0.6-2.2,0-2,1.1c0.2,1.4,2,0.5,2.8,0.5c0.5,0,2.5,0.7,1.7-0.6
				C475.3,188.8,473.9,188.9,473.3,188.6L473.3,188.6z"/>
			<path class="st15" d="M473.4,191.5c-1-0.4-2.4-0.1-3,0.8c-0.3,0.5-0.3,1.2,0,1.7c0.5,0.7,1,0.3,1.7,0.1c1.1-0.3,2.7,0.1,3.4-1
				C476.2,191.5,474,191.7,473.4,191.5L473.4,191.5z"/>
			<path class="st15" d="M474.7,195.3c-1.5,0.2-5.2,1.4-2.8,3.4c0.8,0.6,2.1-0.6,2.8-1.3c0.5-0.5,1.8-2.4,0.2-2.2H474.7z"/>
			<path class="st15" d="M476.8,198.6c-1-0.4-2,0.6-2.5,1.4c-0.5,0.8,0.1,2.5,1.2,2.7c0.9,0.2,2.1-1.4,2.4-2.1
				c0.2-0.4,0.3-1,0.1-1.5C477.9,198.7,477.1,198.7,476.8,198.6"/>
			<path class="st15" d="M480,201.3c-0.7-0.1-1.7,1.5-1.8,2c-0.2,0.9,0.9,1.7,1.8,1.6C481.4,204.9,482.6,200.7,480,201.3"/>
			<path class="st15" d="M484.5,201.4c-1.3-0.8-1.7,2.2-1.7,2.8c0,1.5,1.3,1.6,2.5,1.3c0.5-0.8,0.7-2.9-0.7-4.1L484.5,201.4z"/>
			<path class="st15" d="M488.2,200.8c-0.9-1.5-1.5,0.4-1.6,1.3c0,0.9,0.1,2.4,1,2.8c1.3,0.7,1.6-0.7,1.6-1.6c0-0.5,0.1-1.1-0.2-1.5
				c-0.2-0.4-0.7-0.6-0.8-0.8L488.2,200.8z"/>
			<path class="st15" d="M492,201.2c-0.3,0-1.1-0.1-1.4,0.2c-0.3,0.3-0.1,1.2-0.1,1.6c0.1,1.2-0.1,2.3,1.4,1.7
				c0.9-0.3,2.1-0.6,1.7-1.8c-0.2-0.5-0.8-1.5-1.8-1.7"/>
			<path class="st15" d="M495.5,200.9c-1.2-0.3-1.4,0.8-1.2,1.7c0.2,1,0.5,1.9,1.6,1.6c1-0.3,1.6-0.9,1-1.9
				c-0.2-0.4-0.8-1.1-1.6-1.5"/>
			<path class="st15" d="M499,200.2c-0.5,0.1-2.1-1.1-1.7,0.4c0.1,0.5,1.1,2.1,1.6,2.2c0.6,0.2,2-0.6,2.1-1.3
				C501.1,200.7,499.7,200.2,499,200.2L499,200.2z"/>
			<path class="st15" d="M501.8,197.9c-0.7-0.3-2.1-0.7-2.5-0.1c-0.8,0.9,1.1,1.4,1.8,1.7c0.9,0.4,1.8,0.9,2.4-0.2
				C504.1,197.9,502.6,198,501.8,197.9"/>
			<path class="st15" d="M504.3,194.4c-0.8,0-2.4-0.7-3.3-0.2c-0.4,0.2-0.7,1-0.7,1.5c0.1,0.7,0.6,0.8,1.2,1c1,0.2,2.2,0.7,3-0.2
				C505.2,195.8,505.7,194.2,504.3,194.4"/>
			<path class="st15" d="M504.1,189.5c-0.7,0.6-2.6,0.6-3.3,1.6c-0.9,1.4,0.8,2,1.8,2.1c1,0.2,2.6,0.5,2.8-0.7
				c0.2-0.8,0-2.9-0.8-3.1C504.5,189.4,504.2,189.4,504.1,189.5"/>
			<path class="st15" d="M502.5,185.5c-1.3-0.5-2.1,0.3-3,1.3c-0.9,1-1.3,1.8,0,2.8c0.9,0.7,2.4-0.1,3.3-0.4c1.1-0.4,2.1-1,1.2-2.1
				C503.5,186.4,503,186,502.5,185.5c0,0,0,0.1-0.1,0.1"/>
			<path class="st15" d="M489.3,187.8c-0.5-0.7-0.5-2.3-2-2.2c-1.3,0.2-1.7,1.5-1.2,2.5c0.5,0.9,1.3,2,2.4,2.2
				c1.2,0.1,2.4-0.8,1.5-2c-0.3-0.3-0.6-0.4-0.9-0.8"/>
			<path class="st15" d="M484.4,187.8c0.4,0.9,1.4,2,0.4,3.2c-0.7,0.7-1.6,1.6-2.7,1.2c-1-0.4-0.2-2,0.1-2.8
				c0.3-0.8,1.5-2.4,2.4-1.4"/>
			<path class="st15" d="M480,188.3c1.5,0.2,0.7,1.9,0.5,2.9c-0.2,1-1.2,2.5-2.5,2.2c-2.3-0.5-0.2-4.7,1.3-5.2
				c0.3-0.1,0.5,0,0.8,0.1C480.1,188.4,480,188.3,480,188.3"/>
			<path class="st15" d="M479.5,194.1c0.2,0.2,1.1-0.1,1.3,0.4c0.3,0.5-0.1,1.2-0.4,1.6c-0.3,0.4-0.8,1-1.3,1.4
				c-0.6,0.4-0.9,0.2-1.6,0.2C474,197.2,479,193.6,479.5,194.1"/>
			<path class="st15" d="M482.1,196.7c0.8,0.2,0.1,2.4-0.1,3c-0.1,0.7,0,0.8-0.8,0.8c-0.2,0-1.4,0-1.5,0
				C478.8,199.8,481.4,195.9,482.1,196.7"/>
			<path class="st15" d="M484.7,196.8c0.3,0.2,0.9,0.1,1.2,0.4c0.3,0.3,0.2,1.1,0.2,1.5c0,1,0.1,2.1-1.1,1.9
				c-1.3-0.2-1.6-0.5-1.3-1.8C483.7,198.3,484,196.8,484.7,196.8"/>
			<path class="st15" d="M483.4,193c0.8,0,1.7,1.2,1.8,1.8c0.1,0.6,0.1,0.6-0.3,1.1c-0.3,0.3-0.7,0.7-1.2,0.7
				c-0.8,0-1.7-1.1-1.6-1.8c0-0.4,0.1-1.2,0.4-1.5c0.3-0.2,1-0.3,1-0.2"/>
			<path class="st15" d="M486.7,191.2c0.6,0,0.8-0.1,1.1,0.5c0.2,0.4,0.2,1,0.3,1.5c0.2,0.9,0.2,1.9-1,2.1c-1.6,0.3-1.8-3.1-1.3-4
				c0.3-0.1,0.7-0.1,1,0"/>
			<path class="st15" d="M489.4,195.9c0.9-0.3,1.8,4.9-0.1,4.3c-1.1-0.4-1.3-1.9-1.2-2.8c0-0.4-0.1-1.1,0.3-1.4
				C488.9,195.6,489.2,196,489.4,195.9"/>
			<path class="st15" d="M492.4,197.1c1.1,0,1.6,0.5,2.2,1.3c0.6,0.8,0,1.5-0.9,2C491.6,201.5,491.5,197.2,492.4,197.1"/>
			<path class="st15" d="M496.7,196.3c0.8,0.1,1.3,0.4,1.3,1.3c0,0.6-0.2,1.8-1.1,1.5c-0.5-0.2-0.4-0.6-0.6-0.9
				c-0.2-0.3-0.6-0.5-0.8-0.8C495.1,196.3,496.3,196.4,496.7,196.3"/>
			<path class="st15" d="M496.5,193.3c0.8-0.3,3.1-0.3,3.3,0.8c0.1,0.4-0.3,1.5-0.6,1.7c-0.6,0.5-1.1,0-1.7-0.2
				c-1-0.3-2.7,1.2-3.3,0.3c-0.2-0.3-0.3-1.4-0.2-1.7c0.1-0.6,0.5-0.8,1-0.9C495.5,193.2,496,193.3,496.5,193.3
				c-0.1-0.1-0.1,0-0.1,0"/>
			<path class="st15" d="M490.9,192.8c1.1,0.4,2.2,0.2,1.9,1.8c-0.2,1.4-1,1.8-2.1,0.9c-0.4-0.3-0.9-0.5-1.2-0.9
				c-0.2-0.4-0.3-1.1-0.3-1.6c0-1.5,1.3-0.7,1.8-0.1"/>
			<path class="st15" d="M491.6,190c0.6-0.2,1.2-0.2,1.7,0.1c0.5,0.3,0.5,0.5,0.6,1.1c0.2,0.8-0.1,1.4-1,1.4c-0.4,0-2-0.6-2.2-1
				c-0.3-0.5,0.7-1.7,1.1-1.5"/>
			<path class="st15" d="M495.9,190.1c0.6,0.1,1.6-0.2,2.3,0c0.6,0.2,1.4,0.9,1.4,1.6c0,1.1-1.3,0.5-1.9,0.5c-0.8,0-1.7,0.5-2.4,0.3
				C495,191.5,494.5,189.6,495.9,190.1"/>
			<path class="st15" d="M490.8,186c1,0.6,2.2,0.9,3.3,1.3c1.3,0.4,2.2,1,0.5,1.8c-0.8,0.4-2.6,0-3.3-0.6c-0.4-0.3-1.8-2.6-0.8-2.5
				c0.2,0,0.2,0,0.2,0.2"/>
		</g>
		<g>
			<path class="st15" d="M499.6,231.6c-1.2,0.8-1.9,0.6-2.8-0.6c-0.6-0.9-1.5-2.1-1.3-3.2c0.4-2.7,3.9,0.6,4.6,1.6
				C500.8,230.5,500.4,231,499.6,231.6L499.6,231.6z"/>
			<path class="st15" d="M495.2,233.8c-1.1,0.3-2.2,0.8-2.7-0.7c-0.3-0.8-0.9-2.6-0.5-3.5c1-2.5,4.2,1.7,4,3.1
				C496,233.2,495.7,233.4,495.2,233.8L495.2,233.8z"/>
			<path class="st15" d="M490.5,234.7c-2.5,1.4-2.9-3.4-2-4.8c0.8-1.3,1.6,0.4,2,1.1c0.3,0.7,1.1,2.2,1.2,3c0,0.3-0.2,0.5-0.2,0.6
				c-0.3,0.2-0.4,0.1-0.7,0.2L490.5,234.7z"/>
			<path class="st15" d="M487.4,230.1c0,1.9,0.2,6-2.8,4.6c-1.3-0.6-0.4-2,0-2.9c0.4-0.8,0.9-2.4,2-2.4c0.3,0,1.1,0.4,0.7,0.7"/>
			<path class="st15" d="M483.5,231.3c-0.3,0.9-1.6,1.8-2.5,1.9c-1.7,0.1-0.9-2-0.5-2.8c0.5-1,1.2-2.7,2.4-2.9
				c1.1-0.2,2.4,0.8,1.9,1.9C484.5,230.1,483.6,230.6,483.5,231.3"/>
			<path class="st15" d="M479.4,230.9c-0.8,0.4-2.1,1.4-3,0.5c-1-1,0.3-2.2,1-2.8c0.7-0.7,1.5-1.9,2.6-1c0.8,0.8,0.1,1.9-0.1,2.8
				C479.7,230.6,479.5,230.7,479.4,230.9"/>
			<path class="st15" d="M475.5,229.3c-1.2,0.3-2.5,0.1-2.3-1.6c0.1-1,1.8-1.3,2.6-1.7c1.1-0.5,2.2-0.1,1.7,1.2
				c-0.2,0.6-1,1.2-1.7,1.7L475.5,229.3z"/>
			<path class="st15" d="M473.3,225.8c-0.7,0.6-2.2,0-2-1.1c0.2-1.3,2-0.5,2.8-0.5c0.5,0,2.5-0.7,1.7,0.6
				C475.3,225.6,473.9,225.5,473.3,225.8L473.3,225.8z"/>
			<path class="st15" d="M473.4,222.9c-1,0.4-2.4,0.1-3-0.8c-0.3-0.5-0.3-1.2,0-1.7c0.5-0.7,1-0.3,1.7-0.1c1.1,0.3,2.7-0.1,3.4,1
				C476.2,222.9,474,222.7,473.4,222.9L473.4,222.9z"/>
			<path class="st15" d="M474.7,219.1c-1.5-0.2-5.2-1.4-2.8-3.4c0.8-0.6,2.1,0.6,2.8,1.3c0.5,0.5,1.8,2.4,0.2,2.2H474.7z"/>
			<path class="st15" d="M476.8,215.8c-1,0.4-2-0.6-2.5-1.4c-0.5-0.8,0.1-2.5,1.2-2.7c0.9-0.2,2.1,1.4,2.4,2.1
				c0.2,0.4,0.3,1,0.1,1.5C477.9,215.6,477.1,215.7,476.8,215.8"/>
			<path class="st15" d="M480,213.1c-0.7,0.1-1.7-1.5-1.8-2c-0.2-0.9,0.9-1.7,1.8-1.6C481.4,209.5,482.6,213.7,480,213.1"/>
			<path class="st15" d="M484.5,213c-1.3,0.8-1.7-2.2-1.7-2.8c0-1.5,1.3-1.6,2.5-1.3c0.5,0.8,0.7,2.9-0.7,4.1L484.5,213z"/>
			<path class="st15" d="M488.2,213.6c-0.9,1.5-1.5-0.4-1.6-1.3c0-0.9,0.1-2.4,1-2.8c1.3-0.7,1.6,0.7,1.6,1.6c0,0.5,0.1,1.1-0.2,1.5
				c-0.2,0.4-0.7,0.6-0.8,0.8L488.2,213.6z"/>
			<path class="st15" d="M492,213.2c-0.3,0-1.1,0.1-1.4-0.2c-0.3-0.3-0.1-1.2-0.1-1.6c0.1-1.2-0.1-2.3,1.4-1.7
				c0.9,0.3,2.1,0.6,1.7,1.8c-0.2,0.5-0.8,1.5-1.8,1.7"/>
			<path class="st15" d="M495.5,213.5c-1.2,0.3-1.4-0.8-1.2-1.7c0.2-1,0.5-1.9,1.6-1.6c1,0.3,1.6,0.9,1,1.9
				c-0.2,0.4-0.8,1.1-1.6,1.5"/>
			<path class="st15" d="M499,214.2c-0.5-0.1-2.1,1.1-1.7-0.4c0.1-0.5,1.1-2.1,1.6-2.2c0.6-0.2,2,0.6,2.1,1.3
				C501.1,213.7,499.7,214.2,499,214.2L499,214.2z"/>
			<path class="st15" d="M501.8,216.5c-0.7,0.3-2.1,0.7-2.5,0.1c-0.8-0.9,1.1-1.4,1.8-1.7c0.9-0.4,1.8-0.9,2.4,0.2
				C504.1,216.4,502.6,216.4,501.8,216.5"/>
			<path class="st15" d="M504.3,220c-0.8,0-2.4,0.7-3.3,0.2c-0.4-0.2-0.7-1-0.7-1.5c0.1-0.7,0.6-0.8,1.2-1c1-0.2,2.2-0.7,3,0.2
				C505.2,218.6,505.7,220.2,504.3,220"/>
			<path class="st15" d="M504.1,224.9c-0.7-0.6-2.6-0.6-3.3-1.6c-0.9-1.4,0.8-2,1.8-2.1c1-0.2,2.6-0.5,2.8,0.7
				c0.2,0.8,0,2.9-0.8,3.1C504.5,225,504.2,224.9,504.1,224.9"/>
			<path class="st15" d="M502.5,228.9c-1.3,0.5-2.1-0.3-3-1.3c-0.9-1-1.3-1.8,0-2.8c0.9-0.7,2.4,0.1,3.3,0.4c1.1,0.4,2.1,1,1.2,2.1
				C503.5,228,503,228.4,502.5,228.9c0,0,0-0.1-0.1-0.1"/>
			<path class="st15" d="M489.3,226.6c-0.5,0.7-0.5,2.3-2,2.2c-1.3-0.2-1.7-1.5-1.2-2.5c0.5-0.9,1.3-2,2.4-2.2
				c1.2-0.1,2.4,0.8,1.5,2c-0.3,0.3-0.6,0.4-0.9,0.8"/>
			<path class="st15" d="M484.4,226.6c0.4-0.9,1.4-2,0.4-3.2c-0.7-0.7-1.6-1.6-2.7-1.2c-1,0.4-0.2,2,0.1,2.8
				c0.3,0.8,1.5,2.4,2.4,1.4"/>
			<path class="st15" d="M480,226.1c1.5-0.2,0.7-1.9,0.5-2.9c-0.2-1-1.2-2.5-2.5-2.2c-2.3,0.5-0.2,4.7,1.3,5.2
				c0.3,0.1,0.5,0,0.8-0.1C480.1,226,480,226.1,480,226.1"/>
			<path class="st15" d="M479.5,220.3c0.2-0.2,1.1,0.1,1.3-0.4c0.3-0.5-0.1-1.2-0.4-1.6c-0.3-0.4-0.8-1-1.3-1.4
				c-0.6-0.4-0.9-0.2-1.6-0.2C474,217.2,479,220.8,479.5,220.3"/>
			<path class="st15" d="M482.1,217.7c0.8-0.2,0.1-2.4-0.1-3c-0.1-0.7,0-0.8-0.8-0.8c-0.2,0-1.4,0-1.5,0
				C478.8,214.5,481.4,218.5,482.1,217.7"/>
			<path class="st15" d="M484.7,217.5c0.3-0.2,0.9-0.1,1.2-0.4c0.3-0.3,0.2-1.1,0.2-1.5c0-1,0.1-2.1-1.1-1.9
				c-1.3,0.2-1.6,0.5-1.3,1.8C483.7,216.1,484,217.6,484.7,217.5"/>
			<path class="st15" d="M483.4,221.4c0.8,0,1.7-1.2,1.8-1.8c0.1-0.6,0.1-0.6-0.3-1.1c-0.3-0.3-0.7-0.7-1.2-0.7
				c-0.8,0-1.7,1.1-1.6,1.8c0,0.4,0.1,1.2,0.4,1.5c0.3,0.2,1,0.3,1,0.2"/>
			<path class="st15" d="M486.7,223.2c0.6,0,0.8,0.1,1.1-0.5c0.2-0.4,0.2-1,0.3-1.5c0.2-0.9,0.2-1.9-1-2.1c-1.6-0.3-1.8,3.1-1.3,4
				c0.3,0.1,0.7,0.1,1,0"/>
			<path class="st15" d="M489.4,218.4c0.9,0.3,1.8-4.9-0.1-4.3c-1.1,0.4-1.3,1.9-1.2,2.8c0,0.4-0.1,1.1,0.3,1.4
				C488.9,218.8,489.2,218.4,489.4,218.4"/>
			<path class="st15" d="M492.4,217.3c1.1,0,1.6-0.5,2.2-1.3c0.6-0.8,0-1.5-0.9-2C491.6,212.9,491.5,217.2,492.4,217.3"/>
			<path class="st15" d="M496.7,218.1c0.8-0.1,1.3-0.4,1.3-1.3c0-0.6-0.2-1.8-1.1-1.5c-0.5,0.2-0.4,0.6-0.6,0.9
				c-0.2,0.3-0.6,0.5-0.8,0.8C495.1,218.1,496.3,218,496.7,218.1"/>
			<path class="st15" d="M496.5,221.1c0.8,0.3,3.1,0.3,3.3-0.8c0.1-0.4-0.3-1.5-0.6-1.7c-0.6-0.5-1.1,0-1.7,0.2
				c-1,0.3-2.7-1.2-3.3-0.3c-0.2,0.3-0.3,1.4-0.2,1.7c0.1,0.6,0.5,0.8,1,0.9C495.5,221.1,496,221,496.5,221.1c-0.1,0.1-0.1,0-0.1,0"
				/>
			<path class="st15" d="M490.9,221.6c1.1-0.4,2.2-0.2,1.9-1.8c-0.2-1.4-1-1.8-2.1-0.9c-0.4,0.3-0.9,0.5-1.2,0.9
				c-0.2,0.4-0.3,1.1-0.3,1.6c0,1.5,1.3,0.7,1.8,0.1"/>
			<path class="st15" d="M491.6,224.4c0.6,0.1,1.2,0.2,1.7-0.1c0.5-0.3,0.5-0.5,0.6-1.1c0.2-0.8-0.1-1.4-1-1.4c-0.4,0-2,0.6-2.2,1
				c-0.3,0.5,0.7,1.7,1.1,1.5"/>
			<path class="st15" d="M495.9,224.3c0.6-0.1,1.6,0.2,2.3,0c0.6-0.2,1.4-0.9,1.4-1.6c0-1.1-1.3-0.5-1.9-0.5c-0.8,0-1.7-0.5-2.4-0.3
				C495,222.9,494.5,224.7,495.9,224.3"/>
			<path class="st15" d="M490.8,228.4c1-0.6,2.2-0.9,3.3-1.3c1.3-0.4,2.2-1,0.5-1.8c-0.8-0.4-2.6,0-3.3,0.6
				c-0.4,0.3-1.8,2.6-0.8,2.5c0.2,0,0.2,0,0.2-0.2"/>
		</g>
		<ellipse class="st15" cx="464.4" cy="206.7" rx="1.8" ry="3.2"/>
	</g>
	<g>
		<path class="st32" d="M102.1,164.4c1.3,1.2,8.4,6.5,2.8,5.7c-2.8-0.4-9.8-5.4-4-6.5L102.1,164.4z"/>
		<path class="st32" d="M94.1,154.4c1.7,2.4,7.9,5.8,3.8,8.1c-2.6,1.5-8.5-2.9-8.7-6.1c1.2-0.7,3.9-1.8,4.6-2L94.1,154.4z"/>
		<path class="st32" d="M90.1,142.3c0.2,2.7,3.3,7.2,2.3,9.6c-0.4,1.1-2.6,2.2-3.6,2.5c-2.2,0.6-2.5-0.2-3.8-1.6
			c-1.6-1.7-5.9-5.4-4.1-8.1C81.8,143.4,89,141,90.1,142.3c-0.1-0.1-0.5-0.3-0.6-0.3"/>
		<path class="st32" d="M86.2,126.4c0.6,3.1,3.8,8.6,2.7,11.7c-0.7,1.8-8.3,4.7-10.1,3.6c-2-1.1-3.3-9.7-3.3-11.8
			c0-2.7,0.3-2.6,2.9-3.4c1.9-0.6,3.7-1.4,5.5-1.9c0.7-0.2,1.9-0.5,2-0.4C86,124.5,86.1,125.7,86.2,126.4z"/>
		<path class="st32" d="M71.8,108.9c-2.2,3.7,2.3,11.5,3.1,15.5c2.4-0.4,4.6-1.1,7-1.7c3.3-0.9,3.5-1.3,3.1-4.5
			c-0.5-3.8-1.7-9,1.5-12.1l-0.7-0.9C85.9,105.3,74.9,103.5,71.8,108.9z"/>
		<path class="st32" d="M91,89c-0.4,2.2-0.5,2.8-1.1,5c-0.5,2-1,5.5-2.3,7.1c-1.6,2-5.8,1.4-8.1,1.4c-2.7,0-5.2,0.8-8,0.9
			c-1.2-2.9-0.4-5.6,1-8.4c1.4-2.7,2.5-6.1,4.4-8.5c2.3-3,5.8-1.7,9-1.9c1.4-0.1,3.6-0.8,5-0.2c1.3,0.5,1.4,1.3,0.9,2.8L91,89z"/>
		<path class="st32" d="M101.8,65.6c-0.8,2.6-3.2,6.1-4.4,9.1c-1.3,3.3-2,6.6-6.2,6.9c-1.7,0.1-3.5-0.2-5.4-0.1
			c-1.4,0-3.9,0.8-5.1-0.3c-2.1-1.9,0.2-8.4,1.4-10.6c1.9-3.8,3.9-5.1,8.1-5.5c2.1-0.2,11-2.6,11.5,0L101.8,65.6z"/>
	</g>
	<path class="st32" d="M297.8,106.1c0,0-6.2,2-14.2,17c-7.5,14.1-13.5,12.8-18.2,17.2s-6,14.5,8.2,7.5s21-12,29.5-19.8
		s12-18.5,8.8-21.8S304.3,103.4,297.8,106.1z"/>
	<line class="st33" x1="390.2" y1="102.3" x2="317.9" y2="102.3"/>
	<line class="st33" x1="390.2" y1="68.8" x2="281.9" y2="68.8"/>
	<line class="st33" x1="390.2" y1="85.8" x2="200.9" y2="85.8"/>
	<line class="st33" x1="389.5" y1="119.3" x2="200.5" y2="119.3"/>
	<line class="st33" x1="389.5" y1="137.3" x2="283.5" y2="137.3"/>
	<line class="st33" x1="389.9" y1="156" x2="234.2" y2="156"/>
	<line class="st33" x1="434.9" y1="206.3" x2="463.5" y2="206.3"/>
	<line class="st33" x1="392" y1="206.6" x2="341.3" y2="206.6"/>
	<line class="st33" x1="487.5" y1="257" x2="487.5" y2="228"/>
	<line class="st33" x1="354.7" y1="318" x2="354.7" y2="290.3"/>
	<line class="st34" x1="271.2" y1="297.5" x2="271.2" y2="250.8"/>
	<line class="st34" x1="169.7" y1="266" x2="169.7" y2="208.3"/>
	<line class="st34" x1="154.4" y1="289.3" x2="154.4" y2="220.6"/>
	<line class="st34" x1="133.7" y1="308.6" x2="133.7" y2="206"/>
	<line class="st34" x1="224.3" y1="203.6" x2="224.3" y2="307.3"/>
	<line class="st34" x1="285.1" y1="313.9" x2="285.1" y2="268.2"/>
</g>
<g id="txt">
	<text transform="matrix(1 0 0 1 397.3521 104.6333)" class="st35 st36 st37">Sædleder</text>
	<text transform="matrix(1 0 0 1 397.3521 88.1333)" class="st35 st36 st37">Urinleder</text>
	<text transform="matrix(1 0 0 1 397.3521 71.3833)" class="st35 st36 st37">Urinblære</text>
	<text transform="matrix(1 0 0 1 397.3511 140.2993)" class="st35 st36 st37">Kønsben</text>
	<text transform="matrix(1 0 0 1 397.3521 158.6333)"><tspan x="0" y="0" class="st35 st36 st37">Blærehalskirtel</tspan><tspan x="0" y="10.8" class="st35 st36 st37">(prostata)</tspan></text>
	<text transform="matrix(1 0 0 1 399.0259 209.2993)" class="st35 st36 st37">Urinrør</text>
	<text transform="matrix(1 0 0 1 343.8188 328.6348)" class="st35 st36 st37">Penis</text>
	<text transform="matrix(1 0 0 1 252.2212 325.5186)" class="st36 st37">Testikel</text>
	<text transform="matrix(1 0 0 1 142.6929 297.6348)" class="st36 st37">Ringmuskulatur</text>
	<text transform="matrix(1 0 0 1 238.8599 307.1348)" class="st36 st37">Bitestikel</text>
	<text transform="matrix(1 0 0 1 119.5386 316.9922)" class="st36 st37">Bækkenbundsmuskulatur</text>
	<text transform="matrix(1 0 0 1 162.1938 275.1348)" class="st36 st37">Endetarm</text>
	<text transform="matrix(1 0 0 1 397.3521 121.9673)" class="st35 st36 st37">Sædblære</text>
	<text transform="matrix(1 0 0 1 460.6938 265.2998)" class="st35 st36 st37">Svulmelegeme</text>
</g>
</svg>
