<?xml version="1.0" encoding="utf-8"?>
<!-- Generator: Adobe Illustrator 19.1.0, SVG Export Plug-In . SVG Version: 6.00 Build 0)  -->
<svg version="1.1" xmlns="http://www.w3.org/2000/svg" xmlns:xlink="http://www.w3.org/1999/xlink" x="0px" y="0px"
	 viewBox="0 0 269.3 481" style="enable-background:new 0 0 269.3 481;" xml:space="preserve">
<style type="text/css">
	.st0{fill:url(#SVGID_1_);}
	.st1{fill:url(#SVGID_2_);}
	.st2{fill:url(#SVGID_3_);}
	.st3{fill:#DFE0E1;stroke:#000000;stroke-width:0.5;}
	.st4{fill:none;stroke:#000000;stroke-width:5.617400e-02;}
	.st5{fill:#646567;stroke:#000000;stroke-width:5.617400e-02;}
	.st6{fill:#DFE0E1;}
	.st7{fill:none;stroke:#000000;stroke-width:0.5;}
	.st8{fill:#69696B;}
	.st9{fill:#EC7007;}
	.st10{fill:#009036;}
	.st11{fill:#E2001A;}
	.st12{fill:#008BD0;}
	.st13{fill:none;stroke:#000000;stroke-width:0.75;}
	.st14{font-family:'Verdana';}
	.st15{font-size:9px;}
</style>
<g id="Lag_7">
	<linearGradient id="SVGID_1_" gradientUnits="userSpaceOnUse" x1="134.6455" y1="206.8946" x2="134.6455" y2="6.094759e-06">
		<stop  offset="5.617980e-03" style="stop-color:#ADDEF5"/>
		<stop  offset="1" style="stop-color:#009EE0"/>
	</linearGradient>
	<rect y="0" class="st0" width="269.3" height="206.9"/>
	<radialGradient id="SVGID_2_" cx="80.0288" cy="144.6695" r="71.6622" gradientUnits="userSpaceOnUse">
		<stop  offset="5.617980e-03" style="stop-color:#FED055"/>
		<stop  offset="0.2044" style="stop-color:#FED35E"/>
		<stop  offset="0.507" style="stop-color:#FFDB74"/>
		<stop  offset="0.8739" style="stop-color:#FFE998"/>
		<stop  offset="1" style="stop-color:#FFEEA6"/>
	</radialGradient>
	<polygon class="st1" points="160,152.2 160,206.9 0,206.9 0,100.6 45,82.4 93.2,85.5 139.4,110.6 	"/>
	<g>
		<g>
			<radialGradient id="SVGID_3_" cx="85.1514" cy="140.1309" r="76.5119" gradientUnits="userSpaceOnUse">
				<stop  offset="0.3258" style="stop-color:#F8BB7C"/>
				<stop  offset="0.9607" style="stop-color:#EC7255"/>
			</radialGradient>
			<path class="st2" d="M67.4,73.4c-25.8,0-49.3,9.5-67.4,25.1v22.4C16,101.4,40.2,89,67.4,89c48.2,0,87.2,39.1,87.2,87.2
				c0,10.7-1.9,21-5.5,30.4l16.5,0.2c3-9.7,4.6-19.9,4.6-30.6C170.3,119.4,124.2,73.4,67.4,73.4z"/>
		</g>
	</g>
</g>
<g id="Lag_5">
	<circle class="st3" cx="69.2" cy="39.3" r="19.3"/>
	<g>
		<g>
			<polygon points="73.9,20.2 77.9,20.2 72.7,11.3 69.1,17.6 65.4,11.3 60.2,20.2 64.2,20.2 69.1,26.5 			"/>
		</g>
		<g>
			<polygon class="st4" points="73.9,20.2 77.9,20.2 72.7,11.3 69.1,17.6 65.4,11.3 60.2,20.2 64.2,20.2 69.1,26.5 			"/>
		</g>
	</g>
	<g>
		<g>
			<polygon points="211.6,46.5 215.6,46.5 210.5,37.6 206.8,43.9 203.1,37.6 198,46.5 202,46.5 206.8,52.8 			"/>
		</g>
		<g>
			<polygon class="st4" points="211.6,46.5 215.6,46.5 210.5,37.6 206.8,43.9 203.1,37.6 198,46.5 202,46.5 206.8,52.8 			"/>
		</g>
	</g>
	<g>
		<g>
			<polygon points="233.6,53.3 237.6,53.3 232.4,44.4 228.8,50.7 225.1,44.4 220,53.3 223.9,53.3 228.8,59.6 			"/>
		</g>
		<g>
			<polygon class="st4" points="233.6,53.3 237.6,53.3 232.4,44.4 228.8,50.7 225.1,44.4 220,53.3 223.9,53.3 228.8,59.6 			"/>
		</g>
	</g>
	<g>
		<g>
			<polygon class="st5" points="229.4,105.5 232.4,105.5 232.2,96.6 224.7,96.5 216.9,96.6 216.8,105.5 219.8,105.5 224.6,111.8 			
				"/>
		</g>
	</g>
	<g>
		<g>
			<path class="st6" d="M228.7,106.3l-4.2,5.5l-4.2-5.6c-8.7,1.9-15.3,9.6-15.3,18.9c0,10.7,8.7,19.3,19.3,19.3
				c10.7,0,19.3-8.7,19.3-19.3C243.7,115.9,237.3,108.2,228.7,106.3z"/>
		</g>
		<g>
			<path class="st7" d="M228.7,106.3l-4.2,5.5l-4.2-5.6c-8.7,1.9-15.3,9.6-15.3,18.9c0,10.7,8.7,19.3,19.3,19.3
				c10.7,0,19.3-8.7,19.3-19.3C243.7,115.9,237.3,108.2,228.7,106.3z"/>
		</g>
	</g>
</g>
<g id="Lag_8">
	<g>
		<path class="st8" d="M37.9,112.5c0,0-1.4-0.3-4.3,2.9c-2.9,3.2-11.2,12.2-11.2,12.2v5.2c0,0,13.6-15.5,14.6-16.4
			c0.9-0.9,3.5-3.4,4.5-2.8c-0.3-0.7-1.8-1.1-1.8-1.1L37.9,112.5"/>
		<path class="st8" d="M88.5,112.5c0,0-1.4-0.3-4.3,2.9c-2.9,3.2-18.7,22.3-20.6,23.9c1.2,0.1,2.3,1.3,4.7-0.4
			c2.4-1.7,5.4-5.7,5.4-5.7s12.8-15.8,13.7-16.7c0.9-0.9,3.5-3.4,4.5-2.8c-0.3-0.7-1.8-1.1-1.8-1.1L88.5,112.5"/>
		<path class="st8" d="M72.2,112.6c-0.6,0.1-1.7,0.1-4.2,2.8c-2.9,3.2-18.7,22.3-20.6,23.9c1.2,0.1,2.3,1.3,4.7-0.4
			c2.4-1.7,5.4-5.7,5.4-5.7s12.8-15.8,13.7-16.7c0.9-0.9,4.2-3.5,5.2-2.9c-0.3-0.7-1.6-0.9-1.9-1.1c-0.3-0.2-1.7,0-1.7,0L72.2,112.6
			z"/>
		<path class="st8" d="M118.1,116.3c-2.9,3.2-18.2,21.4-20.1,23c1.2,0.1,2.3,1.3,4.7-0.4c2.4-1.7,5.4-5.7,5.4-5.7s8.4-10.2,9.3-11.1
			"/>
		<rect x="34.6" y="116.2" class="st9" width="1.9" height="5.3"/>
		<rect x="76.5" y="113.9" class="st9" width="1.9" height="5.3"/>
		<rect x="44.7" y="129.5" class="st9" width="1.9" height="9.6"/>
		<rect x="64.9" y="129.7" class="st9" width="1.9" height="9.6"/>
		<rect x="44.7" y="118.6" class="st10" width="1.9" height="10.4"/>
		<rect x="64.9" y="120.4" class="st10" width="1.9" height="8.7"/>
		<rect x="34.6" y="122" class="st10" width="1.9" height="4.8"/>
		<rect x="76.5" y="119.8" class="st10" width="1.9" height="5.9"/>
		<rect x="49.8" y="132.6" class="st11" width="1.9" height="5.5"/>
		<rect x="59.4" y="127.3" class="st11" width="1.9" height="5.5"/>
		<rect x="39.5" y="113.3" class="st11" width="1.9" height="11.2"/>
		<rect x="70.7" y="126" class="st11" width="1.9" height="7.6"/>
		<rect x="49.8" y="127.1" class="st12" width="1.9" height="4.9"/>
		<rect x="59.4" y="133.2" class="st12" width="1.9" height="4.8"/>
		<rect x="39.5" y="124.9" class="st12" width="1.9" height="10.3"/>
		<rect x="85.3" y="116.2" class="st11" width="1.9" height="5.3"/>
		<rect x="95.3" y="129.5" class="st11" width="1.9" height="9.6"/>
		<rect x="95.3" y="118.6" class="st12" width="1.9" height="10.4"/>
		<rect x="85.3" y="122" class="st12" width="1.9" height="4.8"/>
		<rect x="109.8" y="127.9" class="st10" width="1.9" height="5.3"/>
		<rect x="109.8" y="133.8" class="st9" width="1.9" height="4.8"/>
		<rect x="100.5" y="132.6" class="st10" width="1.9" height="5.5"/>
		<rect x="90.2" y="113.3" class="st10" width="1.9" height="11.2"/>
		<rect x="100.5" y="127.1" class="st9" width="1.9" height="4.9"/>
		<rect x="90.2" y="124.9" class="st9" width="1.9" height="10.3"/>
		<rect x="70.7" y="114.2" class="st12" width="1.9" height="11.4"/>
		<path d="M37.9,112.5c0,0,2.6-1,6.8,6.4c4.2,7.4,10.7,19.7,14.6,20.7c4.5,0.4,7.4,0.1,7.4,0.1s-5.7-0.5-10.5-8
			c-5.1-8-8.9-17.7-12.9-19.4C39,112.2,37.9,112.5,37.9,112.5z"/>
		<path d="M88.6,112.5c0,0,2.6-1,6.8,6.4c4.2,7.4,10.7,19.7,14.6,20.7c4.5,0.4,7,0,7,0s-5.3-0.4-10.1-7.9c-5.1-8-8.9-17.7-12.9-19.4
			C89.7,112.2,88.6,112.5,88.6,112.5z"/>
		<path d="M73.1,112.5c0,0,2.6-1,6.8,6.4c4.2,7.4,10.7,19.7,14.6,20.7c4.5,0.4,7,0,7,0s-5.3-0.4-10.1-7.9c-5.1-8-8.9-17.7-12.9-19.4
			C74.2,112.2,73.1,112.5,73.1,112.5z"/>
		<path d="M21.3,112.5c0,0,2.6-1,6.8,6.4c4.2,7.4,10.7,19.7,14.6,20.7c4.5,0.4,7,0,7,0s-5.3-0.4-10.1-7.9c-5.1-8-8.9-17.7-12.9-19.4
			C22.4,112.2,21.3,112.5,21.3,112.5z"/>
	</g>
</g>
<g id="Lag_6">
	<line class="st13" x1="78.9" y1="17.1" x2="103" y2="17.1"/>
	<line class="st13" x1="223.8" y1="83.2" x2="223.8" y2="93.7"/>
	<path class="st13" d="M123.8,68.4"/>
	<line class="st13" x1="203.6" y1="118.4" x2="115" y2="65.5"/>
	<line class="st13" x1="97.3" y1="52.5" x2="88.4" y2="46.6"/>
	<g>
		<g>
			<line class="st13" x1="83.5" y1="153.5" x2="83.5" y2="176.8"/>
			<line class="st13" x1="80.3" y1="153.5" x2="80.3" y2="176.8"/>
		</g>
		<polygon points="87.9,173.1 81.9,183.5 75.8,173.1 		"/>
	</g>
	<path class="st13" d="M185.2,176.6"/>
	<line class="st13" x1="166.3" y1="177" x2="185.2" y2="177"/>
	<line class="st13" x1="148" y1="18.1" x2="196.2" y2="40.1"/>
	<g>
		<g>
			<line class="st13" x1="69.5" y1="62.2" x2="69.5" y2="98.8"/>
			<line class="st13" x1="66.3" y1="62.2" x2="66.3" y2="98.8"/>
		</g>
		<polygon points="73.9,95.1 67.9,105.5 61.8,95.1 		"/>
	</g>
</g>
<g id="txt">
	<text transform="matrix(1 0 0 1 202.2021 15.8227)" class="st14 st15">Cytoplasma</text>
	<text transform="matrix(1 0 0 1 186.1777 180.3809)" class="st14 st15">Kernemembran</text>
	<text transform="matrix(1 0 0 1 46.937 192.9746)" class="st14 st15">Proteindannelse</text>
	<text transform="matrix(1 0 0 1 72.0889 147.6968)" class="st14 st15">DNA</text>
	<text transform="matrix(1 0 0 1 104.5317 20.9248)" class="st14 st15">Østrogen</text>
	<text transform="matrix(1 0 0 1 95.6958 62.0264)" class="st14 st15">Østrogenreceptorer</text>
	<text transform="matrix(1 0 0 1 175.1152 78.3794)" class="st14 st15">Anti-østrogent stof</text>
</g>
</svg>
