<?xml version="1.0" encoding="utf-8"?>
<!-- Generator: Adobe Illustrator 19.1.0, SVG Export Plug-In . SVG Version: 6.00 Build 0)  -->
<svg version="1.1" xmlns="http://www.w3.org/2000/svg" xmlns:xlink="http://www.w3.org/1999/xlink" x="0px" y="0px"
	 viewBox="0 0 566.9 481" style="enable-background:new 0 0 566.9 481;" xml:space="preserve">
<style type="text/css">
	.st0{fill:url(#SVGID_1_);}
	.st1{fill:url(#SVGID_2_);}
	.st2{fill:#003914;}
	.st3{fill:url(#SVGID_3_);}
	.st4{fill:url(#SVGID_4_);stroke:#000000;stroke-width:0.6301;}
	.st5{fill:url(#SVGID_5_);stroke:#000000;stroke-width:0.5;}
	.st6{fill:url(#SVGID_6_);stroke:#000000;stroke-width:0.5968;}
	.st7{fill:url(#SVGID_7_);}
	.st8{fill:url(#SVGID_8_);}
	.st9{fill:url(#SVGID_9_);}
	.st10{fill:url(#SVGID_10_);}
	.st11{fill:none;stroke:#000000;}
	.st12{fill:none;stroke:#000000;stroke-width:0.75;}
	.st13{fill:none;stroke:#FFFFFF;stroke-width:0.75;}
	.st14{font-family:'Verdana';}
	.st15{font-size:9px;}
	.st16{fill:#FFFFFF;}
	.st17{font-size:7px;}
</style>
<g id="Lag_7">
	<linearGradient id="SVGID_1_" gradientUnits="userSpaceOnUse" x1="283.4644" y1="117.7222" x2="283.4644" y2="6.088077e-06">
		<stop  offset="0" style="stop-color:#E6F5FC"/>
		<stop  offset="0.1683" style="stop-color:#E3F3FB"/>
		<stop  offset="0.3375" style="stop-color:#D8EFFA"/>
		<stop  offset="0.5073" style="stop-color:#C6E8F8"/>
		<stop  offset="0.6774" style="stop-color:#AADDF5"/>
		<stop  offset="0.8462" style="stop-color:#7FCEF0"/>
		<stop  offset="1" style="stop-color:#38BEEA"/>
	</linearGradient>
	<rect y="0" class="st0" width="566.9" height="117.7"/>
</g>
<g id="Lag_3">
	<linearGradient id="SVGID_2_" gradientUnits="userSpaceOnUse" x1="382.7827" y1="210.8682" x2="382.7827" y2="110.8682">
		<stop  offset="0" style="stop-color:#E6F5FC"/>
		<stop  offset="0.4775" style="stop-color:#38BEEA"/>
		<stop  offset="0.512" style="stop-color:#38BCE6"/>
		<stop  offset="0.551" style="stop-color:#38B8DA"/>
		<stop  offset="0.5921" style="stop-color:#36B1C7"/>
		<stop  offset="0.6349" style="stop-color:#35A7AB"/>
		<stop  offset="0.6788" style="stop-color:#329B89"/>
		<stop  offset="0.7237" style="stop-color:#2F8C61"/>
		<stop  offset="0.7686" style="stop-color:#277C38"/>
		<stop  offset="0.7921" style="stop-color:#227321"/>
		<stop  offset="0.9326" style="stop-color:#003914"/>
	</linearGradient>
	<polygon class="st1" points="225.3,110.9 543.3,110.9 542.1,207.8 222.2,210.9 	"/>
</g>
<g id="Lag_9">
	<polygon class="st2" points="315,198.7 470.7,198.7 469.7,210 321,215.7 	"/>
</g>
<g id="Lag_1">
	<linearGradient id="SVGID_3_" gradientUnits="userSpaceOnUse" x1="283.4644" y1="235.0918" x2="283.4644" y2="102.794">
		<stop  offset="0" style="stop-color:#AAC600"/>
		<stop  offset="1" style="stop-color:#006729"/>
	</linearGradient>
	<path class="st3" d="M566.9,103.4c0,0-6.2,0-17.4,0c-11.2,0-15.8,7.5-18,13.3c-4.3,11.5-12.4,89.2-148.4,89.2
		s-144.7-80.1-149.7-91.3c-5-11.2-21.7-11.2-21.7-11.2L0,102.8v132.3h566.9V103.4z"/>
</g>
<g id="Lag_4">
	
		<linearGradient id="SVGID_4_" gradientUnits="userSpaceOnUse" x1="305.711" y1="180.4538" x2="302.0411" y2="154.3414" gradientTransform="matrix(0.9159 -0.4015 0.4015 0.9159 -55.3551 135.7986)">
		<stop  offset="0.4045" style="stop-color:#F5E500"/>
		<stop  offset="1" style="stop-color:#009036"/>
	</linearGradient>
	<path class="st4" d="M284.8,184.2c0,0-2.6-24.9,2.7-30.5c3.2-3.4,6.6-2.6,9.6-0.4c3.8,2.9,5,6.9,4,8c-1.5,1.5-3.3-0.8-4.9-3.5
		c-3.2-5.3-6.9-1.6-7.8,0.3c-2.8,5.5-3.5,24.4-1.7,26.8c-1.9,0.1-2.2-0.6-2.2-0.6L284.8,184.2z"/>
	
		<linearGradient id="SVGID_5_" gradientUnits="userSpaceOnUse" x1="302.2816" y1="186.8547" x2="299.3847" y2="166.2423" gradientTransform="matrix(0.9132 -0.4074 0.4074 0.9132 -55.2106 135.7848)">
		<stop  offset="0.4045" style="stop-color:#F5E500"/>
		<stop  offset="0.5527" style="stop-color:#F3E400"/>
		<stop  offset="0.6366" style="stop-color:#EDE100"/>
		<stop  offset="0.7045" style="stop-color:#E2DC00"/>
		<stop  offset="0.7638" style="stop-color:#D1D500"/>
		<stop  offset="0.8175" style="stop-color:#BACC00"/>
		<stop  offset="0.8672" style="stop-color:#9BC009"/>
		<stop  offset="0.9137" style="stop-color:#6FB121"/>
		<stop  offset="0.9569" style="stop-color:#1DA12E"/>
		<stop  offset="0.9976" style="stop-color:#009136"/>
		<stop  offset="1" style="stop-color:#009036"/>
	</linearGradient>
	<path class="st5" d="M289.2,186.7c0,0-2.3-19.8,2-24.3c1.2-1.3,2.7-1.6,3.4,1.3c0.9,3.4,0.4,10.9-0.5,11.8c-1.2,1.2-0.7-5-0.8-7.7
		c-0.2-4.9-0.8-3.4-1.6-1.9c-2.2,4.4-2.7,19.4-1.2,21.3c-1.5,0.1-1.7-0.4-1.7-0.4L289.2,186.7z"/>
	
		<linearGradient id="SVGID_6_" gradientUnits="userSpaceOnUse" x1="299.0674" y1="175.9087" x2="297.1581" y2="162.3228" gradientTransform="matrix(0.8392 -0.5777 0.5191 0.7541 -55.1066 219.5824)">
		<stop  offset="0.4045" style="stop-color:#F5E500"/>
		<stop  offset="0.6306" style="stop-color:#F3E400"/>
		<stop  offset="0.7121" style="stop-color:#EEE200"/>
		<stop  offset="0.7702" style="stop-color:#E5DE00"/>
		<stop  offset="0.8172" style="stop-color:#D7D800"/>
		<stop  offset="0.8574" style="stop-color:#C4D000"/>
		<stop  offset="0.893" style="stop-color:#AAC600"/>
		<stop  offset="0.9253" style="stop-color:#87B918"/>
		<stop  offset="0.9549" style="stop-color:#55AA27"/>
		<stop  offset="0.9812" style="stop-color:#009C31"/>
		<stop  offset="1" style="stop-color:#009036"/>
	</linearGradient>
	<path class="st6" d="M280.8,181.4c0,0-4.1-6.9,0.3-13.2c1.3-1.8,3-2.5,4.4,0.5c1.6,3.6,2.1,6.9,0.6,6.5c-1-0.2,0.4,0.7-0.1-2.3
		c-1-5.6-3.8-7.1-5.3-1.2c-1.5,5.7,0.7,9.1,2.8,10.9c-1.8,0.5-3-1.2-3-1.2L280.8,181.4z"/>
</g>
<g id="Lag_5">
	<circle class="st2" cx="307.5" cy="133.5" r="1"/>
	<circle class="st2" cx="317.2" cy="137.3" r="1"/>
	<circle class="st2" cx="308.5" cy="145.8" r="1"/>
	<circle class="st2" cx="325.5" cy="152.5" r="1"/>
	<circle class="st2" cx="319.8" cy="159.3" r="1"/>
	<circle class="st2" cx="330" cy="166.3" r="1"/>
	<circle class="st2" cx="322.2" cy="174" r="1"/>
	<circle class="st2" cx="332.2" cy="182.3" r="1"/>
	<circle class="st2" cx="322.2" cy="185.8" r="1"/>
	<circle class="st2" cx="308.5" cy="177" r="1"/>
	<circle class="st2" cx="303.2" cy="185.3" r="1"/>
	<circle class="st2" cx="332.2" cy="196" r="1"/>
	<circle class="st2" cx="350" cy="196.8" r="1"/>
	<circle class="st2" cx="349" cy="187.5" r="1"/>
	<circle class="st2" cx="361.5" cy="179.3" r="1"/>
	<circle class="st2" cx="344" cy="176" r="1"/>
	<circle class="st2" cx="355" cy="168.5" r="1"/>
	<circle class="st2" cx="342" cy="157" r="1"/>
	<circle class="st2" cx="345" cy="145.5" r="1"/>
	<circle class="st2" cx="333.8" cy="135.5" r="1"/>
	<circle class="st2" cx="297.8" cy="138.5" r="1"/>
	<circle class="st2" cx="296.5" cy="146.8" r="1"/>
	<circle class="st2" cx="288.2" cy="136" r="1"/>
	<circle class="st2" cx="285.8" cy="147.5" r="1"/>
	<circle class="st2" cx="291.5" cy="154.5" r="1"/>
	<circle class="st2" cx="281.2" cy="155.3" r="1"/>
	<circle class="st2" cx="277.2" cy="148.3" r="1"/>
	<circle class="st2" cx="280" cy="140.8" r="1"/>
	<circle class="st2" cx="269.5" cy="140.3" r="1"/>
	<circle class="st2" cx="269.5" cy="133.3" r="1"/>
	<circle class="st2" cx="261.5" cy="137.5" r="1"/>
	<circle class="st2" cx="269" cy="149" r="1"/>
	<circle class="st2" cx="260" cy="149" r="1"/>
	<circle class="st2" cx="267.5" cy="159" r="1"/>
	<circle class="st2" cx="268.8" cy="167.8" r="1"/>
	<circle class="st2" cx="259.8" cy="157" r="1"/>
	<circle class="st2" cx="251.5" cy="145.3" r="1"/>
	<circle class="st2" cx="251.8" cy="136.8" r="1"/>
	<circle class="st2" cx="274" cy="155.5" r="1"/>
	<circle class="st2" cx="349.8" cy="133.2" r="1"/>
	<circle class="st2" cx="360.5" cy="152.5" r="1"/>
	<circle class="st2" cx="379.5" cy="143.8" r="1"/>
	<circle class="st2" cx="395.1" cy="165.8" r="1"/>
	<circle class="st2" cx="411.2" cy="139.3" r="1"/>
	<circle class="st2" cx="427.4" cy="146.8" r="1"/>
	<circle class="st2" cx="418.1" cy="154.8" r="1"/>
	<circle class="st2" cx="401.3" cy="148.8" r="1"/>
	<circle class="st2" cx="443.2" cy="141.5" r="1"/>
	<circle class="st2" cx="377.2" cy="162.5" r="1"/>
	<circle class="st2" cx="397.5" cy="180.5" r="1"/>
	<circle class="st2" cx="383.2" cy="182" r="1"/>
	<circle class="st2" cx="374.2" cy="190.5" r="1"/>
	<circle class="st2" cx="400.9" cy="193.4" r="1"/>
</g>
<g id="Lag_2">
	<g>
		<linearGradient id="SVGID_7_" gradientUnits="userSpaceOnUse" x1="118.2973" y1="103.7974" x2="118.2973" y2="95.5694">
			<stop  offset="0" style="stop-color:#69696B"/>
			<stop  offset="0.7303" style="stop-color:#F2F2F3"/>
			<stop  offset="1" style="stop-color:#BEBFC0"/>
		</linearGradient>
		<rect y="95.6" class="st7" width="236.6" height="8.2"/>
		<linearGradient id="SVGID_8_" gradientUnits="userSpaceOnUse" x1="235.4092" y1="99.6861" x2="237.2466" y2="99.6861">
			<stop  offset="0" style="stop-color:#282829"/>
			<stop  offset="1" style="stop-color:#BEBFC0"/>
		</linearGradient>
		<ellipse class="st8" cx="236.3" cy="99.7" rx="0.9" ry="4.1"/>
	</g>
</g>
<g id="Lag_12">
	<linearGradient id="SVGID_9_" gradientUnits="userSpaceOnUse" x1="235.494" y1="104.7973" x2="268.3907" y2="104.7973">
		<stop  offset="1.685390e-02" style="stop-color:#8A8000"/>
		<stop  offset="0.2135" style="stop-color:#A79900"/>
		<stop  offset="1" style="stop-color:#F3EAB1"/>
	</linearGradient>
	<path class="st9" d="M235.6,98.7c0,0,11.9,1.7,16.3,3.8c2.5,1.2,7.4,4.8,10.1,6.1c3.1,1.5,7,2.4,6.4,2.3c-6.1-0.2-27.9,0-27.9,0
		s1.2-1.7,2.1-2.7c2.1-2.5-1.7-3.9-5-4.4c-0.9-0.2-1.4-0.2-1.4-0.2S235.2,101.6,235.6,98.7z"/>
</g>
<g id="Lag_11">
	<radialGradient id="SVGID_10_" cx="525.0127" cy="35.4439" r="22.1514" gradientUnits="userSpaceOnUse">
		<stop  offset="0" style="stop-color:#FFF8BB"/>
		<stop  offset="0.1832" style="stop-color:#FFF6B2"/>
		<stop  offset="0.4907" style="stop-color:#FFF099"/>
		<stop  offset="0.8826" style="stop-color:#FFE66D"/>
		<stop  offset="1" style="stop-color:#FFE25D"/>
	</radialGradient>
	<circle class="st10" cx="525" cy="35.4" r="22.2"/>
</g>
<g id="Lag_10">
	<g>
		<polygon points="426.7,186.3 430.2,180.3 433.6,186.3 		"/>
		<path class="st11" d="M416.3,183.7c0,0-0.7,14,6.3,14s7.3-13.3,7.3-13.3"/>
	</g>
	<line class="st12" x1="313" y1="84.8" x2="313" y2="108.2"/>
	<line class="st12" x1="246.1" y1="55.1" x2="246.1" y2="98.5"/>
	<line class="st13" x1="268.1" y1="175.3" x2="219.3" y2="175.3"/>
	<line class="st13" x1="423.5" y1="193" x2="423.5" y2="213.1"/>
	<line class="st13" x1="358.9" y1="202" x2="358.9" y2="213.1"/>
</g>
<g id="txt">
	<text transform="matrix(1 0 0 1 218.1074 48.9316)" class="st14 st15">Næringssalte</text>
	<text transform="matrix(1 0 0 1 288.9375 81.647)" class="st14 st15">Algevækst</text>
	<text transform="matrix(1 0 0 1 85.1392 176.5825)" class="st16 st14 st15">Planter dør pga. bortskygning</text>
	<text transform="matrix(1 0 0 1 355.9668 124.2661)" class="st16 st14 st15">Alger falder til bunds</text>
	<text transform="matrix(1 0 0 1 406.332 175.6665)"><tspan x="0" y="0" class="st14 st15">O</tspan><tspan x="7.1" y="3" class="st14 st17">2</tspan></text>
	<text transform="matrix(1 0 0 1 427.668 175.6665)"><tspan x="0" y="0" class="st14 st15">CO</tspan><tspan x="13.4" y="3" class="st14 st17">2</tspan></text>
	<text transform="matrix(1 0 0 1 400.4287 222.7847)" class="st16 st14 st15">Respiration</text>
	<text transform="matrix(1 0 0 1 299.6689 222.7847)" class="st16 st14 st15">DOM (døde alger)</text>
</g>
</svg>
