<?xml version="1.0" encoding="utf-8"?>
<!-- Generator: Adobe Illustrator 19.1.0, SVG Export Plug-In . SVG Version: 6.00 Build 0)  -->
<svg version="1.1" xmlns="http://www.w3.org/2000/svg" xmlns:xlink="http://www.w3.org/1999/xlink" x="0px" y="0px"
	 viewBox="0 0 566.9 481" style="enable-background:new 0 0 566.9 481;" xml:space="preserve">
<style type="text/css">
	.st0{fill:url(#SVGID_1_);}
	.st1{fill:#6EBD8F;stroke:#000000;stroke-width:0.5;}
	.st2{fill:url(#SVGID_2_);stroke:#000000;stroke-width:0.5;}
	.st3{fill:url(#SVGID_3_);stroke:#000000;stroke-width:0.5;}
	.st4{fill:url(#SVGID_4_);stroke:#000000;stroke-width:0.5;}
	.st5{fill:url(#SVGID_5_);stroke:#000000;stroke-width:0.5;}
	.st6{fill:url(#SVGID_6_);stroke:#000000;stroke-width:0.5;}
	.st7{fill:url(#SVGID_7_);stroke:#000000;stroke-width:0.5;}
	.st8{fill:url(#SVGID_8_);stroke:#000000;stroke-width:0.5;}
	.st9{fill:url(#SVGID_9_);stroke:#000000;stroke-width:0.5;}
	.st10{fill:url(#SVGID_10_);stroke:#000000;stroke-width:0.5;}
	.st11{fill:url(#SVGID_11_);stroke:#000000;stroke-width:0.5;}
	.st12{fill:url(#SVGID_12_);stroke:#000000;stroke-width:0.5;}
	.st13{fill:url(#SVGID_13_);stroke:#000000;stroke-width:0.5;}
	.st14{fill:#0059A6;stroke:#000000;stroke-width:0.5;}
	.st15{fill:#FFFFFF;}
	.st16{font-family:'Verdana';}
	.st17{font-size:9px;}
</style>
<g id="vand">
	<linearGradient id="SVGID_1_" gradientUnits="userSpaceOnUse" x1="283.4644" y1="281.209" x2="283.4644" y2="-3.001273e-05">
		<stop  offset="0" style="stop-color:#009FE3"/>
		<stop  offset="1" style="stop-color:#291F6D"/>
	</linearGradient>
	<rect y="0" class="st0" width="566.9" height="281.2"/>
</g>
<g id="land">
	<g>
		<path class="st1" d="M275.6,40.5c0,0-1.6-0.1-2.8,0.4s-1.6,0.5-3.2,0.6s-2.1,0.4-2.4-0.1s-0.2-0.4-0.8-0.4s-0.8-0.3-0.8-0.9
			s0.4-1.3-0.1-1.6s-0.6-0.4-0.6-1.1s1.1-1.4,1.6-1.9s0.8-0.4,1.5-1.1s1.3-0.3,1.4-1.1s0.1-1.5-0.4-1.5s-1.1-0.1-1.7-0.1
			s-1.1-0.1-1.4,0.3s-1.1,1-1.1,1.4s-0.2,1-0.6,1s-1.8,1.1-2.4,1.4s-1.8,0.2-1.9,1.4s-0.6,2.1-0.1,2.7s0.7,0.5,1.4,1.1
			s1,0.3,0.7,1.1s-0.3,1.1-1.1,1.4s-1.4-0.2-1.4,0.5s0,1.2-0.1,1.7s-0.3,0.9-0.3,1.4s0.4,0.8-0.1,1.1s-0.4,0.6-0.8,0.5
			s-1.1-0.4-1.3-0.1s-0.4,0.5-0.8,1s-1.1,0.2-1.4,0.2s-0.6,0.1-0.6-0.5s-0.2-0.7-0.1-1.4s0.2-0.9-0.2-1.3s-0.8-0.6-1.1-1.1
			s-0.6-0.8-0.9-1.1s-0.4-0.4-0.3-0.8s0.2-0.6-0.1-0.8s-0.1-0.7-0.3-0.8s0-0.4-0.4,0.2s-1.1,1.4-1.5,1.6s-1,0.4-1.5,0.7
			s-0.6,0.4-1.1,0.6s-0.4,0.9-1.1,0.1s-0.5-0.5-0.9-0.9s-0.5-0.3-0.5-1.1s0.1-0.8-0.2-1.2s-0.3-0.4-0.6-1.4s-0.2-0.8-0.1-1.6
			s-0.1-0.9,0.8-1.1s1.9-0.7,2.5-1.1s1-0.7,1.6-0.9s0.9-0.3,1.4-0.2s1.2-0.5,1.4-0.8s0.6-1.4,0.9-1.4s0.6,0,0.8-0.4s1.1-0.4,1-0.9
			s-0.1-0.9,0.2-1s0.4-0.9,1.1-1.1s1.1,0.4,1.3-0.4s0.2-1.3,0.6-1.4s0.4-0.4,0.8-0.8s0.2-0.4,0.8-0.4s0.6,0.2,1.1-0.5s1-1.2,1.4-1.4
			s0.2-0.8,0.7-0.8s0.5,0.2,0.9,0.4s0.8,0.4,1.1,0.1s0.3-0.4,1.1-0.3s1.1-0.8,1.8-1.1s1.1-0.7,1.7-0.6s0.9,0.1,1.1,0.3
			s0.2,0.7,0.8,0.5s0.8-0.7,1-0.5s0.8,0.6,1.1,0.4s0.4-0.6,0.8-0.4s0.6,0.2,1.1,0.2s0.4,0.3,1.1,0.3s1.3-0.3,1.4,0.4
			s0.2,1.1,1.1,1.1s2.8,0.6,3.6,0.6s1.7,0.7,2.7,0.6s1.4-0.1,2.2,0.3s0.9,0.6,1.5,0.9s0.9,0.7,1.4,1s1.2-0.1,1,0.8s-0.9,0.9-1.3,1.1
			s-1.2,0.2-1.7,0.2s-0.9,0.1-1.7,0.1s-0.9,0.2-1.8-0.2s-1.1-0.7-1.4-0.8s-0.8,0.1-1.2-0.1s-0.9-0.4-0.9-0.4s-0.8,0-0.2,0.6
			s1.6,1.2,2.3,1.8s0.8,0.8,1.1,1.4s0.2,0.9,1.1,0.9s0.9-0.2,1.4,0.1s1.3,0.3,1.3,0.3s0.6-0.6-0.1-0.9s-1.3-0.4-1.3-0.9
			s0.2-0.6,0.8-0.3s0.9,0.4,1.2,0.6s1.1,0.2,1.8,0.5s1.4,0.3,1.2-0.1s-0.8-1.3-0.8-1.3s0.1-0.4,0.6-0.4s0.8-0.1,1.4-0.6
			s0.9-0.6,1.1-0.6s0.4-0.1,1-0.1s1.4,0.3,1.2,0s0.4,0.1-0.1-0.3s-2.1-0.8-1.6-1.4s0.7-1,0.4-1.4s-0.4-0.6-0.4-0.6s0.5,0.1,1.4,0.1
			s2.2-0.4,2.2,0.1s0.1,1.3-0.4,1.2s-1.1-0.5-1.1,0s-0.3,0.6,0.1,0.9s1.1,0.1,1.4,0.2s0.6,0.2,0.9,0.4s1.2,0.4,1.3,0.1
			s-0.4-1.5,0.4-1.6s2.6-0.4,3.4-1s1.1-1.1,2.1-0.9s-0.1,0.8,1.3,0.6s1.1-0.4,2.3-0.4s0.9,0,1.7,0.1s0.9,0.8,1.9,0.3
			s1.4-0.2,1.8-0.2s-0.6-0.5-0.6-1.3s-0.2-0.6,1.1-0.6s0.3-0.5,2.4,0.1s2.3,0.6,3.1,1.1s1,0.3,1.8,0.7s1.8,1,2.4,0.9
			s0.6-0.4,0.2-0.8s-0.5-0.4-1.5-0.9s-1.2-0.1-1.2-0.8s0.1-0.8-0.4-0.9s-0.9,0-1.1-0.6s-0.7-0.8,0.1-0.9s1.2,0.4,1.2-0.6
			s-0.9-1.6,0.1-1.7s1.5-0.7,2.1-0.5s1.4-0.3,1.6,0.4s0.6,0.6,0.7,1.3s-0.1,1,0.4,1.3s1.2,1.2,1.7,1.4s0.8,0.4,1.1,1.2
			s-0.4,0.9,0.4,1.5s1.3,0.5,0.9,1.1s-0.3,1.1-0.9,1.4s-0.4,0.8-1.1,0.8s-1.8,0.1-0.5,0.4s1.7,0.6,2.3,0.5s1.1,0.6,1.4-0.6
			s0.7-1,1-1.3s-0.1-0.9-0.3-1.2s-0.7-0.2-0.2-0.8s0.9-0.8,0.4-1.1s-0.8-0.4-1.4-0.2s-1.4,0.1-1.4-0.6s0.4-0.7-0.2-1.2
			s-0.6,0.3-1.2-1.1s-0.7-1.5-0.1-1.6s0.6-0.2,0.6-0.6s-0.4-1.2,0.2-0.7s1.1,0.9,1.6,1.1s0.8,0.2,1.2-0.1s0.3-0.4,1.2-0.2
			s0.6,0.1,1.3,0.2s1.1,0.3,1.6,0.4s0.1-0.2-0.4-0.9s-0.8-0.7-1-1.1s-0.7-1,0.3-0.9s1.2,0.2,1.9,0.2s0.3-0.2,1-0.2s0.8,0,1.4,0
			s0.5,0,1.2,0s0.8-0.7,0.4-1.1s-1.6-0.6-0.4-0.6s1.4,0.1,2.1-0.5s0.5-1.1,1.7-0.9s1.2,0.6,2.2,0.3s1.5-0.6,1.9-0.7s1.6-0.1,2.7-0.1
			s1.8,1,2.4-0.1s-0.8-1.6,0.8-1.8s2.8-0.2,3.9,0.3s1.6,1,2.5,0.8s0.9-0.8,1.8-0.2s1.1,0.7,1.7,0.5s1-0.7,1.9-0.2s1.6,0.7,2.2,0.8
			s0.9,0.1,1.4,0.4s2.4,0.8,1.2,1.1s-1.6-0.2-2.6,0.9s-1.2,1.9-1.6,2.1s-1.6,0.4,0.1,0.4s2.4,0.1,2.9-0.5s0.4-0.8,1.2-0.9
			s0.6-0.2,1.8-0.1s0.8,0.5,2.1,0.6s2.7,0.8,3.9,0.5s0.2-0.2,2.2,0s2.2,0.9,3,0.6s0.6-0.4,1.5-0.5s1.6,0.1,1.6,0.1s-0.8-0.9-0.8-1.2
			s0.5-0.3,1.2-0.1s0.6,0.6,1.6,0.8s0.8,0.2,1.4,0.1s0.6-0.2,1.2-0.2s1.3,0.5,1.3,0.5s1.1,0.8,2.2,1.2s1.9,1,2.4,1.6s0.8,1,1.6,1.2
			s1.4-0.3,0.9-0.8s-1.7-1.2-0.9-1.3s1.8-0.1,2.4,0.2s1.2,0.9,1.8,0.5s0.6-0.7,1.9-0.4s1.7,0.3,2.2,0.4s1.8,0.4,1.1-0.3
			s-1.8-1.1-0.8-1.2s0.7-0.1,1.8-0.2s0.9,0,1.8,0.1s2.6,0.2,4.4,0.3s1.9-0.2,3.3,0.5s0.9,0.3,2.8,0.7s1.3,0.4,2.9,0.8
			s0.2,0.6,2.3,0.2s2.6-0.5,4.5-0.2s1.9-0.1,3.3,0.9s1.4,1.2,2.9,1.3s0.7,0.4,3.2,0.4s4,0.1,5.2,0s1.6-0.3,3,0.2s1.4,0.7,2.5,0.9
			s-0.8-1.3-1-1.6s-0.5-0.7,0.5-0.7s-1.1-0.5,2.1,0.1s2.8,0.8,3.6,0.9s3.2,0,4.1,0.1s1.6,0.1,2.8,0.8s1.4,0.8,2.8,0.8
			s1.8-0.4,2.9-0.1s1.6,0.6,2.4,0.9s-1.2-0.2,2.1,0.9s3.6,1.4,3.9,1.2s0-0.2,1.2-0.2s1.8,0.3,2.3,0.5s1.1,0.1,1.6,0.4
			s0.5,0.2,0.9,0.6s0.8,0.7,0.8,0.7s-0.6,0-0.9-0.1s-1.2-0.3-0.4,0.2s1,0.9,1.2,1.2s0.9,0.7,0.4,0.9s-1,0.4-1.6,0.1
			s-1.2-0.8-1.9-0.9s-0.9-0.4-1.4-0.2s-0.6,0.2-1.4-0.1s-1.1-0.4-1.6-0.6s-0.5-0.2-0.8-0.2s-0.8-0.1-1.1,0.1s-0.6,0.4-1,0.1
			s-0.9-0.8-0.9-0.8s0.4,0.4,0.6,0.9s0.6,0.2,0.1,0.8s-1.4,0.5-1.2,0.8s0.8,0.6,1.1,0.7s0.5,0,1,0.5s0.8,0.5,1.1,0.7
			s0.5,0.3,1.2,0.4s1.4-0.1,1.6,0.2s0.9,0.7,0.4,0.8s-1.4,0.6-1.8,0.4s-1-0.1-1.7-0.2s-1.1-0.7-1.3,0.1s-0.5,1-0.9,1.5
			s0,0.8-0.4,1.3s-0.7,0.6-1,0.7s0.3,0.5-0.4,0.5s-0.7,0-1.1-0.2s-0.9-0.4-1.2-0.4s-0.8-0.7-1.1-0.1s-0.1,0.6-0.6,0.9
			s-0.6,0.4-1.2-0.1s-0.8-0.7-1-0.2s-0.3,0.5-0.8,0.3s-1.2-1-1.1-0.3s0.3,1.4,0.4,2.4s-0.4,1.5,0.2,1.4s0.2-0.9,1.3-0.2
			s1.2,0.9,1.4,1.2s0.4-0.1,0.6,0.8s0.3,0.1,0.6,1.2s-0.2,1.1,0.6,1.4s1.8,0.6,1.8,1s0.3,0.6,0.1,0.8s-0.6-0.1-1,0.2
			s-0.4,0.1-0.4,0.6s0.1,0.4,0.7,1s0.9,0.7,0.6,0.8s-0.9-0.8-0.9,0.2s-0.8,0.8-0.2,1.2s0.8,0.2,0.7,1.1s-0.4,1.7-0.4,1.7
			s-0.2,0-0.8-0.5s-0.7-0.9-1.6-1.3s-1.1-0.2-1.4-0.9s-0.6-1.2-1-1.4s-0.9-0.6-1.5-1s-0.5-0.6-1.2-1.2s-0.9-1.5-1.7-2.2
			s-0.6-0.4-0.9-1s-0.5-0.8-0.8-0.8s-0.5-0.4-0.4-1.1s-0.1-0.9-0.2-1.2s-0.1-0.2,0.4-0.4s2.1-0.5,1.6-1.2s-0.6-1.3-0.4-1.6
			s0.8-0.8,0.8-0.8s-0.2-0.9,0.2-1.1s0.4-0.6,0.2-0.9s-0.6-0.9-1.1-1.4s-0.2-1.2-0.9-1.4s-1.6-0.8-1.4-0.1s0.5,1.1,0.8,1.6
			s-0.3,0.6-0.4,0.9s0.1,0.6-0.4,0.7s-0.9,0.3-1.5-0.2s-0.7-1.1-1.2-1.1s-1.2-0.1-1.8-0.1s-1-0.2-1.2-0.1s-0.5-0.1-0.7,0.8
			s-0.3,0.1-0.4,1.1s0,1.7,0.5,1.8s1.1-0.1,1.1,0.4s-0.5,0.8-1.2,0.7s-0.4-0.2-1.6,0s-0.6,0.9-1.5,0.2s-0.9-0.8-1.6-1
			s-1.1-0.6-1.8-0.3s-0.4,0.2-1,0.2s-0.6-0.1-0.8-0.2s-0.8-0.6-1.1-0.1s-1,0.1-1.4,0.1s-1.2-0.4-1.6-0.2s-0.1,0-0.8,0.4
			s-1.4,0.3-2.2,0.3s-1.2-0.3-1.1,0.5s0.4,1.1-0.1,1.6s-0.9,0.5-0.8,1.1s0.6,0.1-0.1,1.2s-0.1,0.9-0.6,1.8s-0.6,0.4-0.7,1
			s-0.5,1.2,0.1,1.2s1.5-0.3,2.2,0.4s0.3,1.2,0.9,1.3s1.2-0.1,1.8,0s0.8,0.2,0.7-0.2s-0.1-0.9,0.7-0.6s0.7,0.2,1.8,0.7
			s1.4,0.2,2.1,1.3s0.6-0.2,1.4,1.6s0.8,1.8,1,2.3s0.9,0.9,1.5,1.7s0.8,0.8,0.9,1.7s0.7,0.2,0.4,1.8s-0.9,1.5-0.8,2.5
			s0.3,0.7,0.2,1.8s-0.3,0-0.5,1.6s0.1,1.4-0.2,2s-0.1,1.9-1.1,2.1s-0.7,1-1.4,0.8s-1.1-0.5-1.5-0.7s-0.2-0.8-0.8-0.2
			s-1,0.2-1.1,0.8s-0.3,0.8-0.3,0.8s-0.4,1.1,0,1.8s0.6,0.4-0.3,1.3s-1.4,0.5-1.2,1.6s0,1,0.5,1.6s0.8,0.1,1.5,1.1s0.1,1.1,0.9,1.8
			s0.8,0.1,1.3,1s0.6,1.1,1,1.8s0.8,0.3,0.9,1.3s0.8,1.6-0.2,1.6s-1.2-0.6-1.8,0s-0.9,0.6-1.2,0.9s-0.8,0.5-0.9-0.3
			s-0.2-0.4-0.8-1.5s-0.8-1.4-0.8-1.8s-0.1-0.7-0.1-1.3s0.3-0.9-0.2-1.3s-0.1-0.4-0.9-0.5s-0.4,0.1-1.4-0.1s-1.2,0.6-1.1-0.6
			s0.4-1.3-0.1-1.8s0.2-0.8-0.6-1.1s-0.3,0.2-1.4-0.3s-0.2-0.8-1.1-0.5s-0.4-0.3-1.2,0.6s-1.2,0.9-1.5,1.1s-0.5,0.9-0.5-0.1
			s0.2-1.4,0-2.1s-1.7-0.9-1.9-1.1s-0.9-0.2-0.9,0.2s0.5,0.8-0.1,1.1s-0.7,0.2-0.9,0.9s0.3,0.9-0.6,1.1s-1.5-0.6-1.4,0.3
			s-0.7,1.4,0.6,1.5s2.2-0.9,2.4-0.1s0.1,0.8,0.5,1.3s0.2,2.2,1.2,1.1s0.6-2.5,1.4-1.6s1.1,1.1,1.6,1.1s1.2-0.2,1.6,0
			s0.6,0.7-0.2,0.8s-1.4-0.1-2.1,1s-1.2,1.5-1.4,2.3s-0.6,0.6,0.2,0.9s1.1-0.2,1.7,0.2s1.4,2,2.1,3.1s0.6,1.1,1.4,1.6
			s1.6,0.4,1.3,1.4s0.1,0.8-0.6,1.4s-1.8,0.8-0.7,1.1s2.1-0.4,2.3,0.4s0.8,1,0.2,1.8s-0.8,0.8-0.9,1.2s0.1,0.5-0.1,1.2
			s0,1.2-0.6,1.9s-0.7,2.4-0.8,3.1s-0.2,0.3-1.2,1.1s-0.8,0.8-1.6,1.8s-0.6,0.8-1.5,1.1s-0.7,0-1.3,0.9s-0.2,1-1,0.8
			s-0.9-0.4-1.3-0.1s0.2,0-0.8,0.4s-1.1,0.3-1.5,0.6s-0.7,0.6-1.4,0.5s-1.3-0.4-1.3,0.2s-0.1,0.6-0.4,1.3s-0.9,1.4-0.9,0.6
			s0.7-1.3-0.2-1.4s-0.5-0.3-1.7-0.2s-0.8-0.7-1.7,0.1s-0.6,0.2-1.1,1.3s-0.8,0-1.2,1.3s-0.7,2.1-0.4,2.6s0.8,0.9,2,2.4
			s1.2,2.1,2.2,2.6s1.7-0.1,1.9,1.4s0.2,1.3,0.4,2.1s0.1,0.6,0.5,1.4s0.5,0.7,0.4,1.4s0.1,0.8,0.1,1.6s0.2,0.9-0.6,1.4
			s0.5,0.6-1.2,1.4s-2.5,0.9-2.5,0.9s0.2,1-0.4,1.4s-1.1,0.4-1.4,1.1s-0.4,0.9-0.8,1.1s-0.7,0.6-0.6-0.4s0-1.6,0-2.1
			s0.1-1.4-0.5-0.9s-1,1-1.1,0.2s-0.5-1-0.8-1.2s-0.4-0.8-0.8-1.2s-0.4-0.7-1-1s-0.8-1-1.1-1.4s-0.4-0.4-0.6-0.3s-1.2,0.2-1.4-0.1
			s-0.2-0.4-0.2-0.8s-0.2-1-0.6-0.7s-1.1,0.3-1,1.1s0.3,1.4,0.2,2.1s-0.4,0.5-0.6,1.2s0.1,1.2-0.1,1.9s-0.2,1-0.2,1.6
			s1.4,1.4,1.9,2.2s0.4,1.2,0.7,1.9s-0.3,1.1,0.6,1s1.2-0.1,1.5,0.4s0.4,0.8,1.2,1.1s1.4,0.1,1.4,0.9s-0.5,0.6,0.1,1.3
			s0.9-1.1,0.9,1.7s0.3,3.7,0.4,3.9s0.1,1,0.1,1s-0.9,0.4-1.3-0.1s-0.6-1-1.4-1.3s-1.6-0.7-1.8-0.9s-0.5-0.2-0.8-0.9s-0.2-1.1-0.2-2
			s0.1-1-0.2-1.3s-0.8-0.8-0.9-1.8s-0.2-1.2-0.5-1.6s0.1,0.5-1-1.1s-1.1-1.6-1.4-1.6s-0.8,0.8-0.8-0.4s-0.2-1.9-0.1-2.4
			s0.3-2.4,0.4-3.3s0.4-1.7,0-2.5s-1-1.6-1.1-2.3s-0.4-1.1-0.5-1.6s-0.3-0.9-0.5-1.6s-0.6-1.4-0.9-2s-0.1-0.9-0.4-1.6
			s-0.8-1.8-0.8-0.9s-0.6,2.3-1.2,2.5s-1.1,0.5-1.2,0.8s-0.6,0.1-0.8-0.1s-0.4-0.2-0.6-0.4s-0.3-0.5-0.2-1.4s-0.2-2.2-0.9-3.4
			s-1.1-2.2-1.5-2.4s-0.7-0.5-1.1-1.2s-0.3-0.2-0.9-0.9s-0.4-0.8-0.7-1.4s-0.4-0.9-0.7-1.2s-0.5-0.8-0.7-0.8s-0.1,0.1-1.1,0.6
			s-2.1,0.7-2.6,0.7s-2.1,0.1-2.6,0.4s-1.8,0.2-1.2,1.1s0.9,1,0.3,1.7s-1.7,0.2-2,0.9s-1.5,0.8-1.6,1.6s-0.4,1.4-0.9,1.6
			s-1.1,0-1,0.8s0.3,0.9-0.3,1.1s-1.8,0.2-1.7,0.8s0.4,1.1-0.2,1.1s-0.9-0.1-1.2,0.5s-0.5,0.6-0.5,0.9s-0.8,1.4-0.6,3.1
			s0.1,1.9-0.3,2.6s-0.8,0.1-0.4,1.3s0.2,1,0.3,2s0.7,0.8-0.2,1.3s-0.3-0.7-1.1,0.8s-1.2,1.3-1.4,1.9s-0.1,0.8-0.6,1.1
			s-1.6-2.4-1.6-2.4l-0.3,0.2c0,0-0.8-1.4-1.1-2.1s-0.9-1.8-1.2-2.3s-1.4,0.6-1.6-2s-0.3-3.2-0.8-4s-1.2-1.4-1.3-1.9
			s-0.5-1.1-0.7-2.3s-0.9-0.8-1.1-2.9s-0.3-3-0.4-3.4s-0.2-0.3-0.4-1.1s-0.2-1.2-0.4-1.9s-0.2-1.6-0.4-0.8s0.1,2.3-0.5,2.4
			s-0.6,0.1-1.1,0.3s-0.8,0.5-1.1,0.1s-0.1-0.6-0.7-0.9s-0.9-0.5-1.5-1.1s-1.2-0.8-0.6-1.1s2.2-0.5,1.6-0.8s-1.6-0.3-1.9-0.4
			s-0.8-0.2-1.2-0.8s-0.7-0.2-1.2-1.2s-1.3-0.8-1.6-1.8s0-2.1-1-1.4s-1.1,0.3-2.4,0.6s-2.6-0.2-3.2,0s-1-0.2-2.1,0.3
			s-1.8,0.5-2.4,0.2s-1-0.6-1.5-0.7s-1.5,0.2-2.1-0.2s-0.4-0.4-0.9-0.6s-0.5,0-1.1-1.1s-0.8-1.2-1.1-1.3s-1.1,0.2-1.5,0.6
			s-1.3,0.4-2.2,0.2s-1.7,0-2.6-0.8s-1.4-1.1-1.8-1.2s-0.7-0.2-0.9-0.9s-0.8-1.1-1.1-1.4s-0.6-1.5-1-1.9s-1.4-0.6-1.4-0.6
			s-1.2,0.4-1.6,0.8s-1.1,0.1-0.4,1.4s0.9,1.4,1.4,2.1s1.4-0.1,1.5,1.1s0.8,1.1,0.8,2.1s-0.1,1.6,0.3,2.1s0.3,0.2,1,0.4
			s0.6,0.1,1.1,0.7s0.2,0.6,1.2,0.8s1.8,0.6,2.4,0.4s0.8,0.1,1.2-0.4s1.4-1.2,1.6-1.1s0.4,0.6,0.4,0s0-0.7,0.2-1.4s0.4-1.3,0.9,0.1
			s0.6,1.7,1,2.1s1.2,0.8,1.8,1s1-0.2,1.5,1.1s1.5,1.6,1.5,1.9s0.9,0.4,0.5,1.2s-0.4,1.4-0.7,1.6s0,1-0.6,1s-1.1-0.6-1.2,0.2
			s0.3,1.1,0.1,2s-0.6,1.5-1.3,1.5s-1.2,0.1-1.2,0.5s0.1,0.3-0.7,0.6s-1.1,0.8-1.1,0.8s0.4,1.2-1.1,1.3s-1.8,0.4-2.8,0.6
			s-2.4-0.2-2,1.1s1.2,2.2-0.2,2.4s-3-0.1-3.4,0.5s-0.9,1.3-2,1.3s-2.3-0.5-2.4,0.3s-0.9,0.6-1.5,0.7s-0.4,0.6-1.4,1
			s-1.4,0.7-1.9,0.6s-0.7-0.3-1.1-1s-0.8-1.2-0.6-2s-0.2-0.8-0.4-2.1s-0.2-1.6-0.5-2.1s0.4-0.2-0.9-1.5s-1.5-0.7-1.5-1.9
			s-0.1-1.6-0.8-2s-1.4-0.3-1.9-1.1s-0.6-0.6-0.8-1.4s-0.5-1.3-0.6-2s0.1-1.2-0.5-1.9s-0.9-0.8-1.4-1.9s-0.1-1-0.9-1.6
			s-1-0.6-1.5-1.5s0-1.4-0.8-2s-0.9-0.8-1.3-1.2s-0.2-0.5-0.8-1.1s-0.3-1.4-0.6-1.8s-0.4-0.4-0.5-1.1s-0.3-1.8-0.3-0.9
			s-0.2,1.7-0.4,1.9s-0.6,0.2-1-0.3s-0.4-0.5-0.9-1.2s-1.2-1.3-1.2-1.3s-0.8-0.6-0.2,0.6s1.1,1.8,1.8,2.9s0.8,1,1.5,3.1
			s0.8,2.4,1.4,3.6s0,1.8,1.1,2.6s0.7,0.3,1.4,1.3s1.6,2.7,1.7,4.1s0.1,1.9,0.4,2.6s0.1,1.1,1.1,1.8s1.8,0.4,2,1.9s0.6,2.2,0.9,2.7
			s0.9,1.5,1.7,1.8s1.4,0.2,1.9,1.1s0.5,0.9,0.9,1.3s1,0.6,1.3,1s0.8,0.8,0.8,1.3s0.1,0.5,0.3,1.3s0,0.6,0.9,1.5s1.1,1.2,1.6,1.2
			s0.7-0.5,1.4-0.5s0.9,0.2,1.4,0.2s0.9,0.9,1.2,0s0.3-1.4,0.9-1.4s0.9,0.4,1.6,0.2s0.7-0.3,1.3-0.3s0.8-0.4,1.2-0.8
			s0.2-0.2,0.7-0.4s0.9-0.3,0.9,0.5s-0.1,4.1-0.9,5.4s-1.8,2.6-2.2,3.8s-0.7,1.8-1.6,3.1s0.2,1-1.4,3s-1.1,1.6-3.1,3s-1.1-0.1-3,2.2
			s-1.8,2.2-2.6,3.3s-1.6,1.6-1.5,2s0.1,0.8-0.6,1.1s-1.2,0.6-1.6,1.4s-0.5,0.7-0.6,1.2s-0.2,2.2-0.9,2.7s-0.8-0.1-0.9,1.2
			s-0.6,1.9-0.1,2.1s1.6,0.6,1.2,1.1s-0.7,0.6-0.6,1.4s0.2,1.1,0.2,2s-0.4,1.6,0.2,1.9s1.3,0,1.2,1s0,0.5,0.1,2s0.3,2.1,0.3,2.8
			s0.1,0.4,0.1,2.2s0.6,2.3-0.4,3.3s-1.6,1.4-2,2.2s-0.8,0.8-1.7,1.2s-1.4,0.4-1.8,0.7s-0.4,0.3-0.9,1.1s-1.8,1.8-2.5,2.2
			s-1.4,0.4-1.4,1.9s0.4,1.9,0.7,2.8s0.9,1.3,0.6,2.5s-0.1,2.2-1.1,2.6s-1.4,1.6-2,1.7s-1.8-0.4-1.9,1.1s0.2,2.2-0.2,3.5
			s-1.1,2.1-1.2,2.2s-1.7,1.2-2.5,3.1s-1.6,2.7-3.1,4.2s-2.1,1.4-4.1,2.3s-1.9,0.9-3.6,1s-2.4-0.4-3.1,0.2s-1.2,0.3-2.2,0.6
			s-0.9,0.7-1.9,0.4s-1.9,0.1-2.2-0.6s0.4-0.8-0.4-1.6s-1.4-1.4-0.9-1.4s1.2,0.8,0.8-0.6s-0.4-2.3-0.9-2.8s-0.5-0.2-0.7-1.4
			s0.2-1.1-0.6-2.2s-1.3-1.8-1.9-2.5s-1.8-4.9-1.6-7.2s0.6-2.8-0.2-3.8s-1.6-2-1.8-3.1s-0.4-0.9-0.9-1.9s-1-1.4-1.4-2
			s-0.8-0.2-0.8-1.7s-0.4-1.4,0-2.5s0.9-1.3,0.8-2.4s-0.1-0.8,0.2-1.9s0.2-2.1,1.2-2.5s1.5-0.9,1.5-2.4s0.5-2.2-0.2-3.2
			s-1.7-1.3-1.1-2.4s1.2-1.2,0.5-2.1s-1.1-1.8-1.5-2.8s-0.4-1.4-0.4-1.6s0.2-0.9-0.2-1.5s-0.5-0.6-1.1-1.3s-1.2-1-2.2-2.8
			s-2.5-2.1-2-3.2s0.5-0.9,0.5-2s-0.1-1.9,0.3-2.8s0.8-0.6,0.7-2s-0.2-2.2-1.2-3.4s-0.3-1.8-1.7-1.1s-1.9,1.2-3.2,0.3
			s-1.1-1.3-1.8-2.2s-1.9-1.2-3.2-1.4s-1.1-0.1-2.9,0.2s-2.1,0.6-2.8,1.1s-1.4,0.4-1.8,0.6s-0.6,0.2-1.3,0.8s-1.6,1.2-2.4,0.4
			s-0.9-1.6-2.3-1.3s-3.4,1.3-4.4,1.8s-1.2,1-2.5-0.2s-1.9-2-3-2.4s-1.9,0.1-2.3-1.1s-0.5-1.6-1.4-1.9s-1.1-0.1-1.1-1.1
			s-0.4-1.6-1.1-2.6s-0.9-1.8-1.9-2.7s-1.6-1.6-2.3-2.1s-0.9-0.5-0.9-1.4s-0.3-0.4-0.3-1.2s0.4-1.4,0.1-1.8s-1.6-1.4-0.9-2.1
			s1.5-0.6,1.9-2.8s-0.1-1.7,0.3-3.4s0.6-2.8-0.1-3.6s-0.1-0.3-0.7-1.3s-1.1-1.4-0.3-2.6s0.8-0.8,1.1-2.1s0.5-1.6,1.1-1.6
			s1.1,0.8,1.4-0.4s0.2-1.5,0.3-2.5s1.1-1.6,1.6-2.1s0.8-2,1.8-2.8s1.6-0.4,2.8-1.4s2.6,0.6,2.6-2.3s-0.8-2.8,0.3-4.1
			s1.6-1.1,2.4-2.2s0.6-1.8,1.6-2.1s0.8,0.6,1.3-0.6s1.3-4.1,1.9-2.9s1.6,0.8,2.8,1.1s1.4,1.1,2.9,0.6s2-0.8,2.9-1.8
			s0.8-1.1,2.2-1.1s0.9,0.7,2.8,0.1s2.4-0.8,3.6-0.6s1.1,0.1,2.4-0.4s2-0.6,2.8-0.1s0.6,0.5,1.2,0.1s1.2-0.8,2-0.1s0.9,0.5,1.5,0.5
			s0.6,0.5,0.2,1s-0.9,0-0.6,0.9s0.4,1.3,0.1,1.8s-0.8,0.9-0.5,1.5s0.8,1.6,2.1,2.1s2.2,0.5,3.2,0.4s1.4-1.2,2.2,0.8
			s1.2,2.9,2.2,2.6s2.2,0.6,2.8,1s3.6,1.2,3.3-0.4s-1.4-2.2-0.2-2.8s0.9-0.9,2.2-1.1s1.1,0.1,2.2,0.8s0.8,0.1,2.1,0.6s3.7,1,3.7,1
			s1.1-0.3,2.6,0.8s0.9,2,2.4,0.8s1.8-1.9,2.5-1.4s0.4,0.4,1.9,0.3s1.8,0.7,2.6,0.8s0.7-0.8,1.2,0.1s1,0.4,1.1-1s-0.5-1.3,0.1-2.1
			s1.1-1.4,1.2-2.4s-0.1-0.9,0.1-1.4s0.9-0.4,0.6-1.9s0-1.4-0.4-1.8s-0.2-0.8-1.1-0.5s0.3-0.8-1.5,0.2s-2.4,0.4-2.6,0.2
			s-1.7-1.1-2.4-0.9s-0.6,0.1-1.7,0.5s-1.2,0.5-1.9,0s-0.9-1.1-1.6-0.8s-1.1,0.6-1.4-0.2s-0.1-0.9-0.9-1.2s-1.6-0.4-0.9-0.9
			s0.8-1.2,0.3-1.6s-1.2-0.9-0.7-1.5s1.1-0.9,2.1-0.9s1.9,1.3,2.4-0.1s0.2-1.5,1.7-1.6s1.2,1.4,2.4,0.1s3.4-2.4,4.8-1.8
			s1.8,1.3,2.9,1.6s0.8,0.1,2.4,0.1s1.4,0.6,2.6-0.1s2.6,0.8,2.1-1.1s0.2-1.5-2.1-2.9s-2.8-1.4-3.8-2.2s-1-1.2-2-1.1
			s-0.9,0.4-1.4,0.1s-0.9-0.6-1.3-0.2s-0.6,0.2-1.1,0.6s-1.1,0.3-1.3-0.1s-0.1-0.6-0.6-0.8s-1.3-0.4-0.6-0.9s0.1-1.2-0.2-1
			s-1.4,0.2-1.8-0.3s-0.4-0.8-1.1,0s-1.9,2.6-2.3,3.4s-0.6,0.8-0.9,1.5s-0.4,0.9-0.7,1.7s-0.2,1.5-0.2,1.5s-0.5-0.5,0.2,0.2
			s1.2,1,1.4,1.6s0.8,0.7,0.2,0.9s-1.1-0.4-1.6-0.2s-0.8,0.4-1.8,0.6s-0.7,0.1-1.2,0.1s-0.4,0.1-1.3-0.2s-0.8-0.8-1.5-0.1
			s-1.6,0-1.4,1.1s0.1,1.1,0.6,1.9s0.3,0.6,0.5,1.3s0.9,0.8,0.1,1.1s-1.2-0.2-1.5-0.2s-0.8-0.1-0.7,0.4s0.2,0.8,0.6,1.4
			s0.6,0.5,0.1,0.8s-1.1,0.4-1.6,0.1s-0.6,0.2-0.7-0.6s0.1-1.3-0.2-1.6s-0.6,0.1-1-0.8s-0.3-0.7-0.7-1.1s-0.9-0.2-0.9-1.1
			s0.3-1.2-0.2-1.5s-0.6-0.6-0.6-0.8s0.4-0.6,0-1.4s-0.4-1.2-0.8-1.5s-0.6-0.8-1.5-1.4s-1.8-1.8-2-1.8s-0.4,0.2-1.4-0.8
			s-0.9-1.2-1.6-1.7s-0.1-0.2-1.1-0.8s-1-1.1-1.4-0.6s-0.9,0-1.1,0.5s-0.6,0.6-0.2,1.4s0.6,1.1,1.2,2s0.5,0.4,1.7,1.7
			s0.3,0.6,1.2,1.5s1.8,1.3,2.5,1.5s0.9,0.1,1.4,0.7s1.4,0.8,1.5,1.2s0.4,0.8-0.4,0.2s-0.9-0.8-1.6-0.6s-1-0.5-0.8,0.7
			s0.4,1.2,0.4,2.1s0.2,0.9-0.4,1.2s-0.7,0.9-0.9,0.6s-0.5-0.5-0.2-1.1s0.7-0.7,0.2-1.4s0.1-0.6-1.1-1.4s-1-0.5-1.8-1
			s-1.2-0.4-1.9-1.2s-1.3-0.9-2.1-1.7s-1.1-1.1-1.7-1.9s-0.7-1.5-1.3-1.9s-1.5-1.2-1.9-0.8s-0.3,0.7-0.8,0.9s-0.5-1.1-1.3,0.1
			s-1.1,1.6-1.5,1.6s-0.5-0.1-1.2-0.4s-1.6-1-2.5-0.4s-2.1,0.1-1.7,1.8s0.5,1.4-0.5,2s-1.8,0.8-2.2,1.1s-1.4,0.2-1.6,1.1
			s-0.6,1.4-0.8,2.2s0.2,1.1-0.2,1.4s-0.9,0.4-1.4,1.3s-0.6,1.2-1,1.6s-0.7,0.6-1.3,0.5s-0.9-0.2-1.1,0s-1-0.1-1.2,0.2
			s-0.8,0.1-1.2,0.3s-0.8,0.1-1.4,0.2s-0.8-0.5-1.5-0.8s-0.9-1-1.9-0.9s-2.1,0.9-2.1,0.1s0.8-1.9,0.1-2.3s-1.6-0.7-0.8-1.2
			s1.1-1.6,1.1-2.3s0.6-1.1,0.4-1.9s0.1-1.1-0.1-2.1s-0.1-1.6,0.8-1.8s0.8-1.2,1.6-1s1.5,0.3,2.5,0.4s0.8,0.2,1.9,0s1.5-0.8,3.1-0.1
			s2.4,0.8,2.4,0.8s-0.6-1.4,0.1-2.3s0.6-2.6,0.2-3.1s-0.6-0.6-1.2-1.4s-0.4-1.2-1.6-1.4s-1.1-0.4-1.9-0.8s-1.5-0.5-0.7-1
			s0.8-1.1,1.6-0.8s1.4,0.4,2.1,0.4s1.4,0.2,1.3-0.4s-0.4-2.1,0.1-1.7s0.8,0.8,1.3,0.8s0.7,0.5,1.8-0.2s2.1-0.4,2.2-0.9
			c0,0-0.4-0.5-0.2-1.1s1-0.8,1.5-0.8s0.5-0.1,0.9-0.8s1.3-0.2,1.9-1s-0.2-0.2,0.6-1.1s1.7-1.2,2.2-1.5s1.4-0.7,1.9-0.4s0.3,0,1-0.2
			s0.9-0.6,0.8-1.1s0.2-0.8-0.2-1.1s-0.4-0.3-0.7-1.1s0-1.1,0.2-1.6s0.1-0.8,0.3-0.9s0.6-0.4,1-0.5s0.7-0.9,1.1-1.4s0.6,0,0.4,0.5
			s-0.1,1.2-0.2,1.5s-0.3,0.6-0.1,0.7s0.8,0.2,0.8,0.5s-0.1,0.8-0.4,0.8s-0.6-0.4-0.6-0.4l-0.4,0.5c0,0,0.2,0.7,0.2,0.9
			s-0.1,0.3-0.1,0.6s0.2,0.4,0.7,0.7s0.6,0.3,0.8,0.4s0.3,0.4,0.9,0.1s1.3-0.3,1.6-0.5s0.9-0.4,1.2-0.1s0.2,0.4,0.6,0.6
			s-0.1,0.4,1,0.4s1.5,0.4,2.3-0.2s1-0.9,1.6-0.8s1.4,0.3,2,0.2s1.4,0.6,1.9-0.2s0.9-1.2,1.2-1.4s1-0.2,0.8-1s-0.1-0.5-0.1-1.8
			s-0.9-1.3,0.2-1.5s1.4-0.9,1.9-0.2s0.5,1.4,1.2,1.2s1.2,0.2,0.8-0.8s0.1-1.1-0.4-1.8s-0.4-1.2,0.4-1.6s2-0.7,2.7-0.2
			s1.4,1.4,1.8,0.6s0.5-1.4,1.1-1.4s2.3-0.1,1.5-0.6s-1.2-0.3-1.4-0.3S275.6,40.5,275.6,40.5z"/>
		<path class="st1" d="M229.1,44.4c0,0,3.2-0.1,2.4,0.1s-2.2,1.2-1.4,1.4s2.3-0.2,2.5,0.1s-0.2,0.9-0.6,1.4s-0.4,1.1,0.1,1.4
			s1.6,0.2,1.4,1.4s-0.3,1.1,0.2,1.5s1.1,0.2,1.2,0.6s0.2,1,0.3,1.4s-0.2,0.6,0.5,0.7s1.6-0.5,1.8,0.2s0.1,0.8-0.4,1.2
			s-1.1,0.4-0.9,0.9s0.4,0.4,0.4,0.9s-0.6,0.8-1,0.8s-1.9,0.3-2.8,0.3s-1.9-0.1-2.2,0.1s-0.3,0.2-1,0.6s-1.4,0.9-1.8,0.8
			s-0.9-0.2-0.5-0.8s1-1.2,1.7-1.2s1.9-0.7,1.5-0.8s-1.2-0.1-1.8-0.2s-1.9-0.2-0.9-0.4s1.4-0.7,1.4-0.7s0-1-0.2-1.4s0.4-0.8,0.7-0.8
			s0.9,0.1,0.9-0.4s1.1-0.6,0.6-1.1s-0.6-0.4-0.8-0.9s0.1-1.1-0.5-1s-0.9,0.2-1.2,0.1s0.1-0.6-0.6-0.8s-1.6-0.3-1.1-0.8
			s1.2-0.5,0.7-0.9s-1.4-0.5-0.9-0.9s0.2-0.6,0.2-0.8s0.6-0.8,1-1S229.1,44.4,229.1,44.4z"/>
		<path class="st1" d="M224.6,50.4c0.2,0.1,1-0.1,1.4,0.2s1.2,0.8,0.9,1.2s-0.5,0.4-0.9,0.4s-0.5,0.1-0.3,0.5s0.2,0.4,0.2,1.1
			s-0.5,1.2-0.5,1.6s-0.6,0.3-1,0.4s-0.6,0.1-1.1,0.4s-0.8,0.4-1,0.7s-1.2,0.7-1.6,0.3s-1.3-0.2-0.8-0.9s1.4-1.1,1.6-1.5
			s0.2-0.8-0.1-0.9s-1-0.9-0.8-1.1s0-0.7,0.8-0.7s1.1,0.2,1.5-0.1s0.2-0.2,0.4-0.7s0.6-0.5,0.6-0.5s0.2-0.3,0.2-0.5
			S224.6,50.4,224.6,50.4z"/>
		<path class="st1" d="M248.6,77.5c0.4,0.3,0.4,0.7,0.5,1.4s0.4,1.2,0.1,1.6s-0.2,0.1-0.6,0.6s-0.9,0.4-0.9,0.4s-0.6,0.3-0.5-0.4
			s0.2-1.2,0.2-1.4s-0.2-0.4-0.2-0.8s-0.2-0.4,0-0.8s0.1-0.8,0.2-0.8s0.8,0,0.8,0L248.6,77.5z"/>
		<path class="st1" d="M248.9,74.2c0.2,0.3,1,0.9,0.7,1.3s-0.4,0.8-0.7,0.8s-0.9,0-0.9,0l-0.4-0.8l0.1-0.8c0,0-0.1-0.2,0.1-0.4
			S248.9,74.2,248.9,74.2z"/>
		<path class="st1" d="M254.4,83.2c0.5,0.1,1.6,0.4,1.9,0.2s0.8-0.3,1.2-0.4s1-0.2,0.9,0.2s-0.4,0.9-0.4,1.2s0.4,1,0.2,1.1
			s-0.6,0.5-1,0.1s-0.6-0.8-1.2-1S255,84,254.8,84s-0.5-0.1-0.6-0.4S254.4,83.2,254.4,83.2z"/>
		<path class="st1" d="M372.9,141.3c0.4,0.4,1.3,0.7,1.4,1.6s0.7,1.8-0.2,2.2s-1.1,0.9-1.9,1.1s-1.3,0.7-1.2,0s0.4-0.8,0.2-1.6
			s-0.1-0.7-0.4-1.1s-0.6-0.8-0.2-1.2s0.6-0.9,0.4-1.5s-0.2-0.7,0.1-0.9S372.5,140.9,372.9,141.3z"/>
		<path class="st1" d="M398.1,147.1c0.4,0.7,0.4,0.5,1.7,0.5s1.9,0.3,2.3,1s0.9,1.1,2.2,2.4s1.4,2.1,2.3,2.5s1.8-0.6,2.1,0.5
			s0.2,1.2,1,1.6s1.6,0.5,1.8,1.1s1.1,0.9,1,1.6s-0.1,1.3,0.3,1.4s0.9-0.8,0.9,0.2s0,1.7,0.5,1.9s0.9,0.5,1.1,0.9s0.3,0.2,0.3,1.4
			s0.1,1.7,0,2.4s0.9,1.4-0.1,1.9s-1.6-0.1-1.9,0.2s0-0.1-1.8-1.8s-2.1-2.4-2.9-3.8s-0.8-1-2.1-2.4s-1.8-0.8-2-2.8s-0.2-2.2-1.2-3.1
			s-1.5-1.4-1.9-1.6s-0.4-0.8-0.6-1.5s-0.1-0.5-1.1-1.4s-1-1-1.6-1.8S397.9,146.8,398.1,147.1z"/>
		<path class="st1" d="M416.3,169.7c0.5-0.1,1.1-0.3,2,0.2s0.9,0.4,1.6,0.7s0.9,0.7,1.8,0.8s1.7,0.5,1.8,0s0.4-1.1,1.1-0.7
			s1.1,0.5,1.6,0.4s1.1-0.5,1.9-0.3s2,0.3,1.6,0.8s-0.9,0.6-1.4,0.6s-1.4,0.3-0.5,0.5s1.7-0.2,1.9,0.4s0.4,0.9,0.9,0.8
			s1-0.5,1.4-0.1s0.4,1.4-0.2,1.2s-1.4-0.2-2.2-0.4s-0.4-0.5-2.1-0.4s-2.8,0.1-3.3-0.2s-0.6-0.5-1.2-0.8s-0.9-0.4-1.6-0.2
			s-1.4-0.5-2.4-0.6s-1.2-0.1-1.9-0.5s-0.6-0.6-1.2-0.9S415.8,169.8,416.3,169.7z"/>
		<path class="st1" d="M422.7,154.4c0.6-0.1,0.2,0.1,1.4,0.1s1.7-0.4,1.8-1.2s0.5-0.7,1.4-1.1s0.5,0.2,0.9-0.9s2.2-2.7,3-2.9
			s0.9-0.2,1.6-1.2s0.6-1.2,1.5-2s1.3-1.6,1.8-0.4s0.3,1.3,0.7,1.5s0.8-0.6,1.6,0.3s2.1,1.2,1.1,1.3s-1.6-0.3-1.5,0.2
			s0.1,1.1-0.6,0.9s-0.9-0.9-0.7,0s0.2,1.5,0,1.7s-1.1-0.1-0.6,1.1s0.7,1.2,0.8,1.9s0.4,0.9,1.1,1.8s1.3,1.3,0.4,1.2
			s-1.7-0.6-1.6,0.2s0.4,1.8-0.5,2.3s-1.6,0-1.6,0.8s0.1,2.1-0.4,2.6s-0.8-0.2-0.6,0.7s1.1,2.1,0.1,1.9s-0.3-0.3-1.2,0.2
			s-0.8,0.5-1.1,0.2s-0.6-0.9-0.6-0.9s0.1-0.2-0.2-0.2s-0.4-0.2-1-0.2s-0.1-0.8-0.8-0.6s0.1-0.1-1,0.5s-1.6-0.1-2.1-0.1
			s-0.6-0.1-1-0.1s-1.7,0.2-1.4-0.9s0.8-1.4,0-2.2s-0.4-0.5-0.8-0.8s-0.6-0.1-0.4-1.2s0.3-1.7-0.1-2.2s-1-0.6-0.5-1.1
			S422.7,154.4,422.7,154.4z"/>
		<path class="st1" d="M442.2,155.3c0.8,0,0.5,0.8,2,0.6s2.6,0.2,3.1-0.1s0.6-1.9,1.2-1.8s1.4,1,0.6,1.7s-2.1,2.1-2.9,1.6
			s-1.9-0.3-2.6-0.6s-1.4-0.2-1.9,0s-0.8,1.2-0.8,1.9s0.2,1.6,0.8,1.7s0.6-0.4,1.3-0.7s1.2-0.2,1.5-0.2s1-0.2,1.2-0.2
			s1.3-0.1,0.4,0.4s-1.2,0.5-1.7,0.7s-1.2,0.4-1.2,0.9s0.1,0.6,0.2,1.1s0.8,0.4,0.8,1.2s0.2,0.8,0.4,1.3s0.4,0.4,0.4,0.9
			s0.1-0.1-0.2,0.9s0.1,1.1-0.2,1.4s-0.9-0.9-0.9-0.9l-0.5,0.1c0,0-0.6-0.7-0.6-1.2s-0.3-0.9-0.3-1.3s-0.2-1.1-0.4-1.4
			s-0.2-0.9-0.7-0.6s-0.9,0.1-0.7,1.1s0.5,1.4,0.5,2.1s0.1,1.2-0.4,1.7s-0.4,1-0.8,1.2s-1-0.3-0.7-0.6s0.5-1.1,0.5-1.6
			s0.1-1.4-0.2-1.9s-0.2-0.8-0.6-0.6s-0.5,0.4-0.6,0.1s-0.2-1.1-0.1-1.1s0.2-0.1,0.6-0.5s0.5-0.3,0.6-0.7s0-0.8,0.1-1.4
			s0-0.6,0.2-0.9s0.5-0.9,0.3-1.2s-0.1-0.3,0.1-1s-0.2-0.6,0.4-1.3s1.1-0.8,1.1-0.8L442.2,155.3z"/>
		<path class="st1" d="M420.9,118.8c0.7,0.7,1.2,0.6,0.8,1.6s-0.4,0.8-0.9,1.3s-0.5,0.7-1.1,0.2s-0.9-0.1-1.1-0.8s-0.9-1.4-0.4-1.7
			s1.2,0,1.5-0.4S420.7,118.6,420.9,118.8z"/>
		<path class="st1" d="M437.9,108.5c0.6,0.5,0.9,0.4,0.6,1.5s-0.4,1-0.2,1.8s0.3,1.1-0.1,1.7s-0.6,1.7-1.1,0.8s-0.9-1.1-0.9-1.9
			s0.2-1.1,0.1-1.8s-0.4-0.9-0.1-1.2s0.1-0.7,0.3-1.1s0.6-0.6,0.8-0.2S437.9,108.5,437.9,108.5z"/>
		<path class="st1" d="M440.2,121.8c0.8,0.3,1.1,0.2,1.2,1.3s0.8,0.9,0.4,1.6s-0.4,0.4-0.6,1.6s-0.1,1.3-0.1,1.9s0.2,0.6,0.2,1.1
			s0.5,0.9-0.1,0.8s-0.6-1.3-1.2-1.2s-0.9-0.1-1.2-0.1s-0.6,0.4-0.6-0.7s-0.8-1.9-0.1-2.3s0.8,0,0.7-0.9s-0.2-0.5-0.1-1.6
			s-0.3-1.2-0.1-1.6s0.2-0.9,0.5-0.4s1,0.4,1,0.4"/>
		<path class="st1" d="M440.1,131.2c0.1,0.4,0.7,0.4,0.9,0.9s0.4,1,0.4,1.2s-0.3,1.1-0.6,0.5s-0.2-1.1-0.7-1.4s-0.8-0.4-0.9-0.9
			S440,131,440.1,131.2z"/>
		<path class="st1" d="M442.9,129.8c0.6-0.1,1.4-0.2,1.9,0.4s1.1,0.8,1.3,1.3s0.8,1.6,0.2,1.4s-1.2-0.4-1.4-0.6s-0.2-0.4-0.5-0.6
			s-0.9-0.4-0.9-0.4s-0.6-0.3-0.8-0.6s-0.1-0.5-0.1-0.5L442.9,129.8z"/>
		<path class="st1" d="M443.3,134.9c0.3,0.4,1.2,0.2,1.1,0.8s-0.4,0.8-0.6,1.1s-0.1,0.8-0.3,0.8s-0.5-0.3-0.5-0.7s0-0.9-0.1-1.2
			s0.1-0.9,0.1-0.9L443.3,134.9z"/>
		<path class="st1" d="M445.8,136.1c0.2,0.3,0.5,1,0.2,1.3s-0.4,1.1-0.5,1.3s-0.5,0.8-0.5,0.8l-0.4-0.2c0,0-0.1-0.7-0.1-0.9
			s-0.4,0.6,0.1-0.8S445.8,136.1,445.8,136.1z"/>
		<path class="st1" d="M443.7,143.2c0.1-0.8,0.4-0.7,0.8-1.1s0.6-1.4,0.8-1.5s0.6-0.2,0.8,0.1s0.5,1.1,1.1,0.8s1.1-0.2,1.2-1
			s-0.1-1.1,0.4-1.2s0.4-0.8,0.8-0.7s0.6,0.6,0.7,1.2s0.1,0.9,0.4,1.4s0.7,0.6,0.7,1.2s0.2,1.8-0.2,1.6s-0.7-0.8-1-0.2
			s-0.4,1-0.3,1.6s0.1,0.6-0.1,1s-0.6,0.8-0.9,0.2s-0.5-0.6-0.9-0.9s-0.6-0.4-0.6-0.9s0-0.5-0.1-1.1s0-0.9-0.3-1s-0.6,0.1-1.1-0.1
			s-0.4,0-0.8,0.5s-0.2,0.4-0.7,0.6S443.7,143.2,443.7,143.2z"/>
		<path class="st1" d="M447.4,133.3c0.4,0.4,0.6,0.6,1.1,0.9s0.9,1.4,0.4,1.1s-1.1-1.2-0.9-0.5s0.2,1,0.2,1s0.3,0.4,0.4,0.9
			s0.6,1.1,0.1,1.1s-0.6-0.1-0.8-0.1s-0.4-0.4-0.4-1.1s-0.1-0.8-0.3-1.1s-0.1-0.6-0.1-0.6s0.3-0.4,0.1-0.6s-0.2-0.7-0.5-0.7
			s-0.6-0.4-0.8-0.2S447.4,133.3,447.4,133.3z"/>
		<path class="st1" d="M434.3,174.3l-0.7-0.5c0,0-0.8,0.1-0.4,0.7s0.5,0.2,1.1,0.4s-0.2-0.1,0.6,0.2s1,0.1,1.2,0.1s0.4-0.2,0.8-0.2
			s1.4,0.3,1.5,0s0.7-0.6,0.2-0.6s-1.4-0.1-1.6-0.1s-0.5-0.2-0.8,0s-0.5,0.5-0.5,0.5s-0.2-0.4-0.6-0.4s-0.5,0.1-0.5,0.1L434.3,174.3
			z"/>
		<path class="st1" d="M439.1,176c0.4,0.1,0.9,0.1,1.2,0.4s0.6,0.3,0.6,0.8s-0.1,0.9-0.2,0.8s-0.8-1.1-0.8-1.1l-0.4,0.2
			c0,0-0.7,0.1-0.9-0.1s-0.5-0.6-0.8-0.8s0.2-0.4,0.4-0.3S439.1,176,439.1,176z"/>
		<path class="st1" d="M441.2,174.3c0.4-0.1,1.1-0.2,1.6-0.1s1.2,0.2,1.2,0.4s-0.9,0.1-1.3,0.1s-1.4-0.1-1.6-0.1s-0.6,0.1-0.8,0.1
			s-0.8-0.6-0.5-0.6S441.2,174.3,441.2,174.3z"/>
		<path class="st1" d="M447.6,175.9c0.4-0.2,1.2-0.9,1.5-1.2s1.1-0.3,1.5-0.2s1.1,0.1,1.4,0.4s-0.4,0.8-1.2,1s-1.9,0-2.5,0.6
			s-1,0.6-1.1,1s-0.6,1.1-1,1s-0.6-0.6-0.6-1s-0.2-0.9,0.1-1.1s0.5-0.2,0.7-0.2s0.8,0,0.8,0l0.6-0.4"/>
		<path class="st1" d="M452.3,164.2c0.6,0.1,1.2-0.1,1.5,0.4s-0.2,0.8-0.8,0.6s-0.8-0.2-1.1-0.1s-0.6,0.1-0.8,0.1s-0.3-0.8-0.3-0.8
			l0.6-0.4L452.3,164.2z"/>
		<path class="st1" d="M450.5,161.3c0.5,0.1,1.1-0.1,0.9,0.5s-0.6,0.9-0.8,0.6s-0.3-0.5-0.5-0.5s-1.8-0.4-1.8-0.4L450.5,161.3z"/>
		<path class="st1" d="M454.4,154.1c0.3,0.6,0.4,1.1,0.4,1.1l0.9-0.7c0,0,0.6,0.9,0.2,1.1s-1.1,0.9-1.4,1.2s-1.1,0.6-1.1,0.6
			s0.2-0.7,0.2-1s-0.1-1.2-0.1-1.2s-0.5-0.8-0.2-1.1s0.9-0.4,0.9-0.4L454.4,154.1z"/>
		<path class="st1" d="M456.3,163.4c0.2,0.1,1.1,0,1.6,0.4s0.7,0.4,0.9,1s-0.1,1.2-0.4,0.9s-0.6-0.9-0.9-1.1s-0.8-0.6-1.1-0.5
			s-0.4,0.2-0.8,0.1s-0.9,0.1-0.9-0.5s0.1-0.5,0.4-0.5S456.3,163.4,456.3,163.4z"/>
		<path class="st1" d="M454,158.6c0.4,0.5,0.8,0.9,0.4,1s-0.8,0.4-0.9,0.2s-0.5,0-0.3-0.5s0.4-1.1,0.4-1.1l0.4,0.2"/>
		<path class="st1" d="M465.3,169.1c0.2,0.2,0.7,0.4,0.2,1s-0.7,0.9-0.7,0.9l-0.4-0.6l-0.1-0.6c0,0,0.1-0.3,0.2-0.4s0.2-0.5,0.2-0.5
			L465.3,169.1z"/>
		<path class="st1" d="M463.4,158.9c0.6,0.2,0.9,0.4,1.2,1.4s0,1.2,0.6,2.2s0.5,1.7,1.2,1.3s2.7-0.9,3-1.4s0.4-1.4,1-1.5
			s0.9-0.2,1.8,0.2s1.8,0.6,2.6,0.8s3.2,0.6,4.2,1.5s2.2,0.8,3.3,1.3s1,0.6,1.6,1.8s0.4,1.1,0.8,1.7s0.2,0.5,0.9,0.6
			s1.5-0.5,1.9,0.7s0.8,1.6,0.1,1.6s-2.3-0.2-1.4,0.7s1.4,1.1,1.6,1.8s0.6,0.4,1.1,1.4s0.4,1.2,0.9,1s0.9-1.1,1-0.2s0.1,1,0.4,1.2
			s1.1,0.4,1.3,0.9s0.9,1.2-0.1,0.9s-1.6-1.2-2.6-0.9s-1.8,0.2-2.4-0.3s-1.2-1-1.6-2s-0.4-1.5-1.4-1.9s-1.8-1.2-2.2-0.4
			s-1.1,1.9-1.9,2.2s-0.9,0.4-2.4,0.6s-2.1,0.1-2.8-0.9s-1.2-2-2.1-1.8s-1.2,1.1-1.9,1s-1.6-0.1-0.6-0.9s1.8-1.2,1.7-1.9
			s0.1-1.4-0.9-1.9s-1.9-1.9-3.2-2.1s-2.1-0.8-2.7-1.4s-1.1-1.6-1.7-1.1s-0.2,1.4-0.8,1.3s-1.1-1.1-1.3-1.5s-0.8-1.1,0.2-1.2
			s2.1,0.1,2.2-0.6s-0.1-1.1-0.8-0.9s-1.5,1.2-1.8,0.2s-0.8-1.4-1-1.4s-0.2,0.1-0.9,0s-0.8-0.7-0.8-0.7s1.1-0.9,1.8-0.9
			s1.1-0.3,1.5-0.3s1.1-0.3,1.4-0.2S463.4,158.9,463.4,158.9z"/>
		<path class="st1" d="M490.4,168.9c0.6-0.1,1.4,0.3,2-0.2s0.5,0.3,1.2-0.8s1.1-2.3,1.6-2.1s0.8,0.2,0.6,1.2s-0.9,1.3-1.2,1.7
			s-0.4,1-0.9,1.2s-0.5,0.5-1.5,0.4s-1.8-0.6-2-0.6s-0.6-0.9-0.6-0.9l0.8-0.1L490.4,168.9z"/>
		<path class="st1" d="M494.7,163.4c0.8,0.4,1.7,0.8,2,1.3s0.9,0.5,0.9,1.8s-0.6,1.6-0.6,0.9s-0.2-1.2-0.5-1.9s-0.4-0.9-1-1.2
			s-0.8-0.5-1.2-0.6s-2-0.7-1.2-0.7S494.7,163.4,494.7,163.4z"/>
		<path class="st1" d="M500.4,167.8c0.4,0.7,0.9,1.4,1.3,2s1,0.9,0.9,1.4s-0.6,0.8-0.9,0.2s-0.2-0.4-0.7-0.8s-0.6-0.4-0.7-1
			s-0.2-0.8-0.2-1s0.4-0.9,0.4-0.9"/>
		<path class="st1" d="M504.8,173.1c0.3,0.4,0.8,0.9,1.1,1.3s0.4,0.8,0.2,0.8s-1.4-1.1-1.4-1.1L504,173L504.8,173.1z"/>
		<path class="st1" d="M509.1,175.7c0,0,0.6,0.8,0.7,1.1s0.2,0.9-0.1,0.9s-0.9-0.4-0.9-0.4l-0.5-0.9l0.1-0.7l0.4-0.4L509.1,175.7z"
			/>
		<path class="st1" d="M510.2,173.6c0,0.2,0.4,1.8,0.6,1.9s0.6,1,0.6,1l-0.4,0.1l-1.1-2L510.2,173.6z"/>
		<path class="st1" d="M512.3,197.2c0.8,0.7,1.2,1,1.8,1.7s1.3,1.4,1.8,2s0.7,1.8,0,1.2s-1.6-1.4-2.2-2.2s-1.2-1.5-1.6-2
			S512.3,197.2,512.3,197.2z"/>
		<path class="st1" d="M518.8,186.6c0.1,0.5,0.2,1.4,0.5,1.7s0.6,1,0.8,1.4s-0.1,1.1-0.4,0.5s-1.1-0.8-1.2-1.8s-0.1-1.5-0.1-1.9
			s0.3,0.1,0.3,0.1"/>
		<path class="st1" d="M521.2,187.8c0.2,1,0.2,1.9,0.2,1.9s-0.3,0.7-0.5-0.1s-0.2-1.4-0.2-1.8s0.1-0.6,0.1-0.6L521.2,187.8z"/>
		<path class="st1" d="M521.3,194c-0.4,0.4,0.2,1.1-0.1,1.1s-0.6-0.4-0.6-0.7s0-1,0-1s0.4-0.2,0.5,0S521.4,193.9,521.3,194z"/>
		<path class="st1" d="M521.6,196.9c0.1,0.2,0.2,0.7,0.2,0.9s-0.2,0.6-0.2,0.6l-0.5-1.2l0.2-0.9l0.4,0.5V196.9z"/>
		<path class="st1" d="M460.6,181.1c-0.2-1-0.8-2.2,0-1.6s0.8,1.4,2.1,1.6s1.7,0.4,2.8,0.2s4.2-1,2.9,0.4s-1.7,1.8-2.1,2.8
			s-1.4,1.2-0.2,2.4s1.9,1.1,3.1,2.6s0.9,2.4,2.4,2.5s1.2,0.9,1.8-0.3s1.4-3.1,1.9-4.6s0.3-1.2,0.9-2.9s0.5-1.8,1.4-3.3
			s0.6-4.9,0.9-1.8s0.2,5.8,0.5,6.2s1.3,0.1,2.4,1s1.2,1.1,0.9,2.1s-0.4,1.4-0.1,2.4s0.3,1.4,0.3,2.3s-0.6,0.7,0.1,1.6
			s0.2,0.8,1.7,1.6s1.9,0.6,1.9,1.3s0.2,1.2,0.3,1.9s-0.8,0.3,0.6,1.3s1.6,0.4,1.4,1.2s-0.2,1.6,0.2,2.1s1.3,1,1.5,1.7
			s0.3,1.1,0.3,1.7s0.5,0.1,0.1,1.4s-0.4,1.1-0.8,2.3s-1.7,3.8-1.9,5.4s0.4,2.5-1.2,2.9s-2.4,0.9-3,1.9s-0.2,1.2-1.2,2
			s-1.5,1.7-1.5,1.7s0-0.1-0.4,0.6s-2.1,1.9-2.9,3.1s-0.4,2.4-1.4,2.1s-0.9-0.8-1.8,0.1s-3.2,0.9-4,1.6s-0.8,0.7-0.8,0.7
			s-0.2,0.1-0.8-0.4s-0.2-1.6-1.1-1.3s-1.8,0.3-2.9,0.9s-1.7,0.7-2.5,0.2s-1.1,0.1-1.3-1.1s-0.1-2.6-0.6-3.5s-1.1-0.5-1.1-1.3
			s0.6-1.8,0.6-1.8s-0.6,0.1-1,0.5s0.8-1.3,1-1.7s0.6-0.1,0.5-1s0.3-1.5-0.6-0.8s-2.8,3.6-3.9,3.5s-0.9-0.2-0.7-1.2
			s-0.1-2.6-0.1-2.6s-0.7-0.3-2-1.4s-3.1-1.6-4.2-1.2s-2.9,1.1-4.2,0.9s-1.6-0.4-2.9,0.2s-2.4,1.6-3.6,2.2s-0.9,0.2-2.3,0.6
			s-1.1,0.9-2.6,1s-1.9-0.6-3.2,0.1s-2.1,1.6-2.2,1.6s1.4-0.7-0.4,0s-2.7,0.9-3.8-0.2s-2.8-0.2-1.4-1.3s2.4-1.5,2.5-3.2
			s0.3-2.1,0.3-3.2s0.3-4.4-0.2-5.7s-2.2-1.8-1.2-2.4s1.6-0.9,1.5-1.6s-1.6-1.2-0.7-2.6s1.2-1.2,1.1-1.9s-0.3-2.4,0.9-2.6
			s1.2-0.6,2.3-1.4s0.9-1.1,2.1-1.2s1.2-0.1,2.6-0.9s1.8-0.9,2.4-0.6s1.8-0.1,2.9-1.1s1.6-2,2.2-2.2s0.6-0.2,0.6-1.5
			s0.6-1.9,1.1-2.1s0.7-0.1,1.1,0.7s0.7,1.2,0.9,0.2s0.2-0.6,0.6-1.1s0.8-0.4,0.7-1.4s-0.3-1.7,0.5-1.7s1.4,0.1,1.5-0.7
			s0.5-1.3,1.4-1.2s0.9-1.6,1.9-0.1s1.1,1.4,1.4,1.7s1.9-0.1,1.9-0.1s1-1.6,1.4-2.6s-0.1-1.6,1.1-1.8s1.6-0.5,2.2-0.4
			s1.2-0.5,1.2-0.5L460.6,181.1z"/>
		<path class="st1" d="M469.3,238.1c-0.1,0.9-0.5,1.4-1.4,1.7s-1,0.6-1.6,1.4s-0.9,1.8-1.5,1.9s-1.1,0.8-1.7,0s-0.8-0.4-0.2-1.2
			s0.8-1.3,0.5-1.7s-0.2-0.4-0.2-1.2s-0.6-1.6,0.4-1.4s1.1,0.8,1.5,0.7s0.6-0.6,0.6-0.6S469.4,237.2,469.3,238.1z"/>
		<path class="st1" d="M503,241.2c0.9-0.6,1.2-1.6,2.1-1.7s0.9,0.4,1.4-0.2s0.8-1.1,1.2-1.4s0.9-0.4,0.9,0.1s-0.1,0.3,0.4,0.1
			s1.3-1.1,1.6-0.2s-1.9,3.1-2.8,3.4s-1.6,1.2-2.2,1.6s-0.1,1-1.8,0.9s-1.4-0.1-2.5,0.6s-1.8,1.6-3.1,2.3s-0.4,1.1-2.1,1.6
			s-1.6,0-2.7-0.1s-1.2,0.4-1.8,0.1s-2.4,0.1-0.1-1.1s3.4-1.4,4.2-2.2s0.9-1.5,2.1-1.7s1.7,0.1,2.4-0.2s0.9-1,1.4-1.2
			S503,241.2,503,241.2z"/>
		<path class="st1" d="M516.4,225.3c-1.1-0.3,0,2.1,0,2.8s0.3,1.9-0.4,2.6s-0.3,1.6-1.1,2.1s-0.9,0.4-1.6,1.1s-1.4,0.2-0.8,1.1
			s1.4,0.7,0.7,1.7s-1.9,1.5-1.1,1.6s1.4,1.1,2.9-0.6s2.2-3.4,3.1-3.6s0.6,0.5,1.7-0.3s2.9-1.4,1.9-1.9s-0.8,0.1-2,0.2
			s-1.3,0.4-1.2-0.9s0.3-1.8-0.2-1.8s-0.9,0.3-0.6-0.7s1.1-0.9,0.4-1.6s-0.9-1-1-1.4S516.7,225.4,516.4,225.3z"/>
		<path class="st1" d="M444.1,52.8c0.8,0.9,0.7,1.3,1.5,2.2c0.8,0.9,1.5,0.8,2.3,1.8c0.8,1,0.8,0.7,1.8,2c0.9,1.3,0.9,1.5,1.3,1.9
			c0.4,0.4,2.1,0.6,1.4,0.9c-0.7,0.3-0.9,0.1-0.8,0.7c0.1,0.6,0.2,1.2,0.8,1.8c0.6,0.6,1.3,1.2,1.8,2s1.6,1.4,0.8,1.2
			c-0.8-0.2-1-0.1-0.9,0.4c0.1,0.5-0.6,0.2-0.6,0.2s-1.8-1.3-2.1-2.7c-0.3-1.3-0.4-1.6-1-2.3c-0.6-0.8-1.2-1.4-1.4-2.2
			c-0.2-0.8-0.3-0.8-1.2-1.7s-1.1-0.9-1.4-1.7c-0.3-0.8-0.7-1.3-1.2-1.7c-0.5-0.3-0.7-0.5-1-0.9c-0.3-0.4-0.4,0.3-0.5-0.7
			C443.6,53.1,443.3,51.9,444.1,52.8z"/>
		<path class="st1" d="M455.4,69.6c0.8,0.5,0.9,0.2,2.3,1.1c1.4,0.8,1.8,1.8,2.4,1.2c0.6-0.6,1.1-1.5,1.2-0.7
			c0.1,0.8,0.4,1.2,0.7,1.4s1.8,1,0.7,1c-1.2,0-1.7-1.1-1.9,0.2c-0.2,1.3,0.5,3.2-0.6,2.2c-1.1-1-1.5-1.1-2.2-1.5
			c-0.8-0.4-1.1-1.1-1.5-0.3c-0.4,0.8-0.5,0.9-0.2,1.7s0.2,1.6-0.3,0.6c-0.6-1-0.6-0.6-1-1.4c-0.4-0.8-1.5-1.8-0.4-1.7
			c1.1,0.2,2.2,0.1,1.4-0.8c-0.8-0.9-0.4-1.4-1.2-2.2C453.8,69.5,453.8,68.6,455.4,69.6z"/>
		<path class="st1" d="M458,77.2c1.2,0.9,1.7,1.1,2.2,2.2s1.8,2.1,1.1,2.6c-0.7,0.5-0.6,0.5-0.2,1.3c0.4,0.8,0.7,0.8,0.7,1.8
			s0.1,0.9,0.2,1.7c0.2,0.8,0.6,1.1,0.2,1.6s0.1,1.4-0.4,0.5s-0.9-0.8-1.1-0.2s0.2,1-0.6,0.6c-0.8-0.4-1.2-0.8-1.2-0.1
			s0.3,1.4-0.3,0.8c-0.7-0.6-1.4-2-1.5-1.3c-0.1,0.7,1.4,1.9,0.1,2.4c-1.3,0.5-1.2,0.3-2.2-0.6c-0.9-0.8-1-1.2-1.7-1
			c-0.7,0.2-0.8,0-1.4,0.6c-0.6,0.6-1.4,0.6-2.3,0.7c-0.9,0.1-2.2,1.8-1.6,0.2c0.6-1.5,0.6-2,1.2-2.5c0.7-0.5,0-1.1,1.6-0.8
			c1.6,0.2,2.1,0,2.8,0c0.7,0,1.2,0.5,1.1-0.6c-0.1-1.1-0.4-2.6,0.3-2.2c0.8,0.3,0.6,0.6,1.5-0.2c0.9-0.8,2.4,0.2,1.8-1.7
			c-0.6-1.8-0.7-1.9-1-2.9c-0.3-1-0.9-0.6-0.7-1.6S456.9,76.4,458,77.2z"/>
		<path class="st1" d="M453.6,91.2c0.8,0.5,1.8,1.3,0.7,1.3c-1.1,0-1.8-0.4-1.8,0.2c-0.1,0.7-0.8,0.5-1,0.3
			c-0.2-0.2-1.8-0.6-0.8-1.2s1-0.8,1.4-0.8c0.4,0,0.8-0.2,1.1-0.3C453.4,90.7,453.6,91.2,453.6,91.2z"/>
		<path class="st1" d="M448.8,92.4c0.6,0.3,1,0.5,1.5,0.9c0.5,0.4,0.5,0.7,0.5,1.3c0,0.7,0.7,0.7,0.2,1.5c-0.5,0.8-0.6,1-1.2,0.7
			c-0.6-0.3-0.9-0.4-0.9-1.2s0.3-0.7-0.3-1.3c-0.7-0.6-1-0.7-1.2-1.2s-0.7-1.1,0-0.8c0.7,0.2,1.2-0.1,1.2-0.1L448.8,92.4z"/>
		<path class="st1" d="M317.8,182.4c0.6,1.3,0.9,2.1,1.1,3.3c0.2,1.2,1.2,3.2,0.3,3c-0.8-0.2-1.3-0.7-1.1,0.4c0.2,1.1,0.5,2.2,0,2.2
			s-0.5,0.4-0.5,1.2c0,0.8-0.2,0.7-0.9,2.4s-1.4,3.1-1.5,4.8c-0.1,1.7-0.3,1.6-0.8,2.8s-1.2,3.9-2.1,4.3c-0.9,0.4-1.1,0.1-1.8,0.4
			s-0.8,0.5-2.1,0c-1.3-0.5-1.3-0.2-1.3-1.9c0-1.7,0.1-2-0.2-2.8s-1.2-0.2-0.2-1.9c1-1.7,1.8-1.4,1.8-3.2c-0.1-1.8,0-1.4,0-3.6
			c0-2.2-1.2-3.1,0.2-3.8s1.4-0.1,2.9-1c1.5-0.9,1.7-0.9,2.3-2c0.7-1.1,1.2-0.1,1.9-1.9c0.8-1.8,1.3-1.2,1.2-2.2
			C316.8,181.8,317,180.8,317.8,182.4z"/>
		<path class="st1" d="M536.5,191.7c0.3,0.7,1.3,0.8,1.2,1.8c-0.2,1-1,0.8-1.8,0.7c-0.8-0.2-1-0.7-1-1.5c0-0.8,0.5-1.5,0.5-1.5
			L536.5,191.7z"/>
		<path class="st1" d="M540.3,189.8c0,0-0.3,1.8-1,1.5c-0.7-0.3-1.5,0-1.2-0.8c0.3-0.8,1.5-1,1.5-1L540.3,189.8z"/>
		<path class="st1" d="M252.3,49.2c0.3,0,1,0.1,1,0.1l0.2,0.8l-0.2,0.7l-0.2,0.2l-0.5-0.1l-0.1-0.7l-0.2-0.6L252.3,49.2z"/>
		<polygon class="st1" points="251.8,49.9 252,50.8 251.4,51.1 250.8,50.5 		"/>
		<path class="st1" d="M287.6,88.9c0,0,0.6-0.2,1.2-0.2s1.8-1,1.3-0.4s-1,1.1-1.3,1.4s-1.2,0.6-1.7,0.7c-0.5,0.1-1.3,0.1-1.1-0.6
			s0.8-1,0.8-1L287.6,88.9z"/>
		<path class="st1" d="M273.8,88.5c0.4,0,1.2,0.1,1.6,0.3c0.4,0.2,2,0.9,1.3,0.9s-1.7,0.5-2.1,0.2c-0.4-0.3-1.3-0.7-1.3-0.7l-1-0.4
			c0,0-0.9-0.6-0.4-0.5C272.4,88.4,273.8,88.5,273.8,88.5z"/>
		<path class="st1" d="M239.2,80c0.2,0,0.3,0.6,0.3,0.6l-1,0.2c0,0-0.9,0.1-0.8-0.4c0.2-0.5,0.9-0.6,0.9-0.6L239.2,80z"/>
		<path class="st1" d="M205.2,32c0.8-0.2,1.2-1.2,1.8-1.2c0.6,0,0.8-0.1,1.3,0.6s1.1,2.2,1.5,1.2c0.4-0.9,0.4-2.3,1-1.4
			c0.6,0.8,0.9,1.3,1.2,0.8c0.3-0.5,0.6-0.6,1-0.6c0.4,0,0.7-0.1,1.8-0.2c1.1-0.2,1.1-1,2-0.2c0.9,0.8,1.5,0.5,1.7,1.3
			c0.2,0.8,0.9,0.8-0.6,1.4s-2.3-0.2-2.9,0.8c-0.6,0.9-1.8,0.9-2.2,1.2c-0.4,0.3-0.6,0.5-1.2,0.3c-0.6-0.2-0.6-0.4-1.6-0.2
			s-1,0.4-1.6,0.2s-0.8,0.4-0.7-0.7c0.1-1.1,0-1.3-0.3-1.2s-1.2,0.3-0.7-0.2s0.9-1.6,0.4-1.6s-0.4-0.1-1.3,0.1
			C205,32.7,205.2,32,205.2,32z"/>
	</g>
	<g>
		<path class="st1" d="M146.6,258c0,0.4,0.5,0.7-0.1,1.2s-1.1,0.5-1.2,0.2c-0.2-0.3-0.3-0.8-0.3-1.1c-0.1-0.3-0.2-0.3,0.2-0.5
			c0.3-0.2,1.5,0,1.5,0"/>
		<path class="st1" d="M148.8,257.8c0.4,0.2,1.2,1.2,0.8,1.2c-0.3-0.1-1.1-0.2-1.1,0.4c0,0.6-0.6,0.7-0.8,0.4
			c-0.2-0.2-0.3-0.7-0.3-0.9s0.5-0.8,0.5-0.8l-0.1-0.8L148.8,257.8z"/>
		<path class="st1" d="M140.5,264.8c0,0-1.1-0.1-1.8-0.2c-0.7-0.1-0.6-0.3-2.1-0.2c-1.5,0.1-2.2,0.3-2.6,0c-0.4-0.3-0.1-0.4-0.4-1.2
			c-0.3-0.8-0.8-0.7-1.2-1.4s0.1-0.9-0.3-1.2c-0.4-0.2-0.8-0.3-1.5,0.7c-0.7,1-0.9,2.2-2.2,0.8c-1.2-1.4-1.2-1.1-2-1.9
			c-0.8-0.8-0.7,0-0.9-1.3c-0.2-1.3,0.2-1-0.5-1.8s-1.3-0.4-1.7-2.2c-0.3-1.8-0.7,0.4-0.8-2.4c-0.1-2.8-0.7-3.1-1.1-3.8
			c-0.4-0.7-0.4-0.4-0.4-1.2s-0.3-3.2-0.3-3.2s-0.4-4.2-1.3-4.6c-0.9-0.4-0.8,0.7-1.6-0.6s-1-3.7-1.2-4.9s-1.2-2.2-1.3-3
			c-0.1-0.8,0.4-0.9,0.5-1.6c0.1-0.7,0-1.9-0.2-2.3c-0.2-0.4,0.2-1.1,0.2-1.9s0.8-1.2,0.3-2.6c-0.5-1.3-0.8-3.4-1.2-4.2
			c-0.4-0.8-0.2-2.7-0.4-4.4c-0.2-1.8-1.2-3.8-0.4-5.1s-0.2-2.6-0.2-4.6c-0.1-2-0.3-2.6-0.1-3.9c0.2-1.3,0-3-0.1-3.2s0.2-2-1.1-3.4
			s-1.7-3.2-4.4-4.3c-2.8-1.1-4.9-1.9-5.5-3.7s-0.8-2.5-1.9-4.2s-1.4-3.2-2.1-4.3c-0.7-1.1-0.4-1.2-1.8-3.1
			c-1.4-1.9-2.4-3.2-3.2-3.8s-1.2,0.2-1.2-1.5s-0.8-1.8-0.3-2.8c0.4-1.1,0.9-1.5,1.5-1.5c0.6,0,0.8-0.4,0.8-0.8
			c0-0.4,0.2-0.8-0.7-1.1c-0.8-0.2-1.4,0.6-1.2-1s1.3-2.2,1.4-3.5s-0.9-2.2,0.2-2.2c1.2-0.1,2.2,0.5,2.1-0.6
			c-0.2-1.1-0.2-1.9,0.5-1.9s2-1.6,2.2-3.4c0.2-1.8-0.2-5.8-0.5-6.4c-0.2-0.6,0.3-1.8-0.4-2.5s-1.2-1.6-2-1
			c-0.8,0.6-1.8,0.9-1.7,1.7c0.2,0.8-0.3,1.1-0.8,0.9s-1.5-0.3-2.2-0.9c-0.7-0.6-0.9-0.4-1.6-0.7c-0.7-0.2-0.1,0.2-1.2-1
			c-1.2-1.2-1.5-1.7-2-1.8c-0.5-0.2-1-0.2-0.8-1s0.7-1.3,0.9-1.4c0.2-0.2-0.2-0.8-0.5-1.2c-0.3-0.3-0.1-0.8-0.4-0.2
			c-0.3,0.7-0.3,1.2-1,0.2s-1.1-1.4-1.8-2.2s-0.1-1.1-1.5-0.8s-1.9,0.8-2.5-0.2s-0.3-1.4-1.4-1.3c-1.1,0.1-1.7,0.4-2.2-0.8
			c-0.6-1.2-2-2.8-3.5-3.2c-1.5-0.3-0.3-0.1-2.7,0.1c-2.4,0.2-4.2-0.2-4.2-0.2s1,1-0.4-0.1c-1.4-1.1-1.3-1-3-2.1
			c-1.7-1.1-1.9-0.9-3.2-1.8c-1.3-0.8-3.7-1.2-3.9-3c-0.2-1.8-0.2-2.1-0.2-2.1s-0.1,0.3,0.1-1c0.2-1.3,0-2.8-0.6-3.7
			c-0.6-0.8-1.4-2.8-2.4-3.9s-1.7-1.7-1.6-2.5s0.2-0.8-0.8-2.2c-1-1.3-0.8-1.2-1.3-2.5s-1,0.6-1.1-1.8c-0.1-2.3,0.6-2.9-0.2-3.4
			s-0.1-1.9-1.7-0.2c-1.6,1.7-2.1,1.7-1.2,3.1s1.3,1.2,1.3,2.5s-0.2,1.4,0.4,2.7s0.7,1.7,0.7,2c0,0.3,0.1,1,0.2,1.4
			c0.2,0.4,0.1,0.6,0.6,1.4s1.3,1.8,1.2,2.1c-0.2,0.3-0.8-0.2-1.6-1s-1.5,0.2-1.6-1.1s0.8-1.5-0.2-2.6c-1-1.1-0.2,0.2-1.7-1.1
			s-1.4-1.2-1.4-1.5s-0.8,0.4,0.2-0.5c1.1-0.9,2.5-1.2,1.2-2.6s-1.5-0.7-1.5-2s0.2-1.1,0-2.2c-0.2-1.1-0.6-3.8-1.4-4.8
			s-1.2-1.2-2.2-2.1c-0.9-0.9-0.9-0.5-0.8-1.8s0.9-1.4,0.2-2.8c-0.8-1.4-0.6-1.1-0.7-2.5c-0.1-1.4-0.5-1.5,0.3-3.2
			c0.8-1.7,1.2-3.5,2.1-4.7s1.4-1.8,2.9-3.7c1.5-1.8,2.2-2.6,2.8-4.7c0.6-2.1,0.9-2.3,1.2-3.1s0-0.8-0.6-1.8
			c-0.6-0.9-1.3-0.9-0.9-1.8c0.4-0.8,1-1.1,1.5-0.8s0.8,0.2,1.2,1.1c0.3,0.9,0.9,1.2,1,1.8c0.1,0.6,0.8,1,0.8,0.7
			c0.1-0.3,0.3-0.7-0.2-1.8c-0.5-1.1-0.4-1.3-0.8-1.7c-0.4-0.4,0.2-0.7-0.9-1.2s-1-0.2-1.3-0.6c-0.3-0.3-0.2,0.9,0.1-0.8
			c0.2-1.7,0.2-2.1,0.2-2.9s-0.2-1.5,0.3-2s1.5,0.2,0.8-1.2s-0.9-1.2-0.8-2.1c0.2-0.9,0.6-1,0.2-1.3c-0.3-0.3-0.8-0.7-0.4-1.6
			s0.5-1.5-0.2-1.4c-0.7,0.1-0.9,0.6-1.4-0.4s-0.9-1.7-2.3-2s-0.6-0.7-2.8-0.9s-2.6,0.2-3.2-0.6s0.5-1.8-1-1.2s-2.9,0.2-3.2,0.9
			s1.1,0.7-1,1.4s-2.1,1.3-3.5,1.4s-1.9,0-1.4-0.3s0.6-1.1,1.9-1.5s2.7-1.4,2.7-1.4s-11.6,5.8-13.6,6.1s-5,1.5-6,1.8
			s-1.3,0.8-2.8,1.2c-1.4,0.4-2.3,0.8-2.6,0.5c-0.2-0.3,0.4-0.3,2.1-1.1c1.7-0.8,0.6-0.7,3.3-1.7s3.6-1.2,4.2-1.8
			c0.7-0.6,3.2-1.8,0.1-1.2s-4.5,0.6-4.5,0.6s-1.4,0.1-0.4-0.6c1-0.7,2.9-2.8,1.5-2.1s-1.8,2.8-2.2,1.2c-0.3-1.7,0.2-1.6,0.3-2
			s0-0.5,0.1-0.9s2.7-1.8,4.1-2.2s1.6-1.4,3.4-1.4s2.6,0.4,3.8-0.5c1.2-0.9,2.2-1.2,2.8-1.5c0.7-0.3,0.2-0.2-1.8-0.5s-3-0.2-3.9-0.2
			s-1.5,0.1-0.9-0.8c0.6-0.8,0.5-1.6,2.2-1.6s3.3-0.6,3.8-0.6s0.6,0.2,1.2,0.5s1.3-0.2,2-0.2s1.3,0,1.8,0s0.7,0.2,0.4-0.4
			s-1.2-0.9-1.8-1.9s-2.4-2.3-0.5-1.9s5.8-1.1,7.8-1.7s2.8-2,4.4-1.5s3.7,0.4,4.8,0.2s1.2-1,2.4-0.8c1.2,0.2,1.3,0.7,2.4,0.7
			s5.8,0.8,8,1s3.1-0.1,4.1,0.2s0.4,0.8,1.8,0.9s1.2-1.2,2.2,0s0.7,1.6,1.9,0.8s4.6-1.1,6-1.3c1.4-0.2,3.7-0.3,4.8-0.4
			s1.7-1.5,2.2-0.3c0.5,1.2,0.3,1.2,1.8,1c1.6-0.2,2.4-0.7,3.3-0.5c0.9,0.2,2.6,0.8,3.8,1.2c1.2,0.4,1.8,0.2,2.8,0.7
			c0.9,0.5,1.8,0.8,1,1.1c-0.8,0.2-3.2,0.3-1.2,0.7c2.1,0.4,5.1-0.2,5.3-0.2s0.2,0.8,1.8,0.2c1.6-0.7,3.7-2.4,5.2-1.4
			s1.3,1.4,3.2,1.4s4.8-0.7,5.9-0.7s0.8-0.2,2,0.3c1.2,0.5,1.1,0.2,2.4-0.9c1.3-1.1,2.1-0.8,2.3-1.3s-1.3-0.8-1.1-1.5
			s2.8-2.1,3.3-2.2c0.5-0.1,1-0.9,1.7,0.2c0.7,1.1,0.9,1.8,0.2,2.2c-0.8,0.3-1.4,0.9-0.8,1c0.7,0.1,2.2-0.4,1.6,0.6
			c-0.6,1-0.6,2,0,1.4c0.6-0.6,3.2-1.7,2.1-0.3c-1.1,1.3-0.8,2.2-0.1,2c0.8-0.2,1.6,0.5,2.5-1c0.9-1.5,1.4-2.3,2.1-2.7
			c0.7-0.4,2.4-0.3,3.2,0.1s1.8,0.8,0.8,1.1c-0.9,0.2-1.9,0.9-1.8,1.5c0.1,0.6,0.2,1-1.1,1.5s-0.5,1.4-2.1,1.2
			c-1.6-0.2-2.2-0.4-2.9-0.3c-0.8,0.1-2.3,0.4-3.2,1c-0.9,0.6-2.8,2.2-4.2,2.8c-1.4,0.5-0.9,0.1-2.5,1.1c-1.6,1-0.3,1.3-2.1,1.4
			c-1.8,0.1-4,0.7-5.1,1.6c-1.1,0.9-2.8,1.4-3.7,2.7c-0.9,1.2-2.3,2.2-1.8,2.5c0.5,0.3,1.1-0.7,1,0.5c-0.1,1.2-1.2,2-0.2,2.6
			s1-0.1,2.8,0.7c1.8,0.8,1.5,0.2,3.2,1.5c1.8,1.3,0.9,2,2.7,1.8s3.1-0.5,3.2,0.2c0.1,0.8-2.7,3.2-2,4.7c0.7,1.5,0.8,3,1.6,2.5
			s1.2-0.9,1.9-1.1c0.7-0.2,0.7,0.2,0.9-1.5s1-1.6,1-2.6s-1-1.2,0.3-1.5c1.3-0.3,4.6-1.7,5.4-2.8c0.8-1.1,2.2-2.1,1.3-2.8
			c-0.9-0.8-2.1-1-1-1.6c1.1-0.6,2.8,0.4,2.8-1.3s0.2-2.7,0.7-3.1s-0.4-1,1.1-1.9c1.5-0.9,1.7-0.8,3.1-0.3c1.4,0.5,2.1,0.8,2.9,0.7
			c0.8-0.1,1.2,0.3,1.6,0.9c0.4,0.7,1.2-0.1,1.5,0.8c0.2,0.9-0.8,0.6-0.3,2.7c0.5,2.1,1.4,3.2,3.2,1.9s3.1-3.6,3.6-2.7
			c0.5,0.9,1.5,2.8,1.5,4.3s-0.8,1.1-0.1,2.2s-0.4,1.3,1.4,2.2c1.8,0.9,1.8,0.7,2.2,0.9c0.3,0.2,1,0,0.9,0.9s-0.5,1,0.2,1.6
			c0.7,0.6,1.2,0.4,0.5,1.3s-0.5,1.2-1.2,1.4c-0.8,0.2-2.7,0.6-3.7,1c-1,0.4-2,2-3.2,2s-5.8,0.5-6.9,0.5c-1.2,0-2.7-0.9-4.3-0.2
			c-1.7,0.7-1.8,1.2-2.9,1.9c-1.2,0.7-1.4,1-1.8,1.7s-0.5,0.9-1,1.2s3.1-1.9,3.1-1.9s2.3-0.9,3.6-1.1s2.3-0.7,2.6,0.2
			c0.2,0.8,0,1.7-0.9,1.7c-0.9,0-1.4,0.2-1,0.6c0.4,0.3,0.7,0.8,0.7,1.1s0,0.7,0.1,1.6c0.1,0.9-0.3,0.9,0.9,1.2s3.2,0.2,2.8,0.8
			s-1.1,0.4-1.9,0.4c-0.8,0-1.7,0.4-2.3,0.8s-1.4,0.3-1.8,1.2c-0.4,0.8-0.2,1.3-1,1.5c-0.8,0.2-1-0.3-0.6-1.2
			c0.4-0.8,0.9-1.5,1.6-1.8c0.7-0.3,2-1.1,1-1.3s-1.4,0.5-2.8,1.2c-1.3,0.7-0.8,0.9-2.6,1c-1.8,0.1-2.7-0.2-2.8,0.7
			c-0.1,0.8-0.9,1-1.9,1.4s-1.3,0.6-1.5,1.6s0.5,1.3-0.6,2c-1.1,0.7-4.8,0.4-5.5,1.3c-0.8,0.9,0.1,1.1-1.8,2.5
			c-1.8,1.4-2.3,1.9-2.7,2.8c-0.3,0.8-1,1.9-1.2,3.2s-0.5,1.8-1.4,2.1c-0.9,0.2-1-0.2-1.2,0.8c-0.2,1.1-0.3,1.4-1.1,1.3
			c-0.8-0.1-2,1.4-3.5,1.9s-2.4,0.7-3.2,2.2s-2.8,2-2.7,3.7c0.2,1.7,0.2,2,0.5,3.7c0.3,1.7,0.7,3.1,0.6,3.5
			c-0.1,0.4-0.1,1.5-1.3,2.3c-1.2,0.8-1.2,0.8-1.9-0.8c-0.7-1.6-1.5-2.5-1.2-3.8s0.7-1.9,0.1-2.7s-0.4-1.9-1.3-1.2s-2.1,0.9-2.4,0.2
			c-0.3-0.7-1.2-1.5-2.3-1.6c-1.1-0.1-0.9,0.1-1.7,0.3s-1,1.4-2.1,0.9c-1.1-0.5-1.6-1-1.6-0.4c0,0.6,1.7,2.1,0.9,1.8s-1.8,0-3.1-0.4
			s-3.1-0.8-4.6-0.2c-1.5,0.7-3.3,1.2-4.7,2.4c-1.3,1.2-2,1.8-2,3.1s0.3,1.2-0.4,2.8s-0.8,1.9-0.9,4.4c-0.2,2.5-1,4-0.2,5.6
			c0.8,1.6,2.2,2.6,2.9,3.2c0.7,0.6,0.8,1.1,1.7,0.5s2.2-0.5,2.9-0.5s2.6,0.8,2.7-0.9c0.1-1.7,0.2-4.5,1.5-4.5s2.4-0.5,3.9-0.4
			c1.5,0.1,3.7-0.2,2.1,0.8c-1.6,1-2.1,1.9-2,2.9c0.1,1,0.5,1.2-0.4,2.2s-1,0.8-1,1.8s-0.1,1.3-0.7,1.9c-0.6,0.6-1.1,1.4-0.7,1.7
			c0.4,0.2,1.5,1.2,3.1,0.5s2.5-0.5,3.5-0.3s2,0,2.2,1.2c0.2,1.2-0.7,2.8-0.9,4.3s-1.1,1.7-0.6,3.2s0.2,1.6,1.8,2.8s2.1,2,3.2,1.4
			c1.1-0.6,1.2-1.2,2.8-0.7c1.6,0.6,2.2,0.5,2.7,1s0.8,1.5,1.3,0.8c0.5-0.7,1.3-2.6,2.3-3.8c1.1-1.2,1.2-1.3,2.5-1.4
			c1.2-0.2,1.6,0.1,2.4-0.7c0.8-0.8,1.2-1.2,1.9-1.3c0.7-0.2,0.9,0.8,0,1.3c-0.9,0.6-0.8,0.6-1,1.8c-0.2,1.2-0.1,2.4,0.6,2.5
			c0.7,0.1,1.2,0,0.8-1.2c-0.3-1.2-0.2-1.5,0.4-2c0.6-0.5,1.9-0.8,2.2-1.2c0.3-0.4,0,0.2,1,0.4s0.5,1.2,2.1,1.2
			c1.6-0.1,2.3-0.1,2.8,0.3s0.9,2,2.1,0.9c1.2-1.1,2-0.7,2.8-1c0.8-0.2,1.2-0.8,1.7,0.2c0.5,0.9,0.9,1.1,1.1,0.7s1.2-0.8,1.1-0.2
			c-0.2,0.6-1.1,0.6-0.5,1.2c0.6,0.7,0.8,0.9,0.8,1.5s-0.5,0.7,0.7,0.8c1.2,0.2,2.1,0.3,2.8,1.7s1,2,1.5,2.3
			c0.5,0.3,0.8,0.8,2.1,0.8c1.3,0.1,1.6,0.1,3.1,0.4c1.5,0.3,0.2-0.5,2.4,0.8s2.1,0.1,3,2c0.9,1.9,0.9,2.1,1.4,3.4s0.9,0.6,1.2,2.2
			c0.2,1.6-0.8,1.8,0.3,2.5s2-0.7,2.3,1c0.3,1.7-0.9,2.5,0.9,2c1.8-0.5,2.7-1.2,4.2,0.2c1.6,1.3,1.3,2.1,2.6,2.2s1.2-0.6,2.5,0.2
			s2.1,1.3,3.2,1.1c1.1-0.2,1.2-1.4,2.1-0.2c0.9,1.2,0.7,1.5,2.6,2.5c1.9,1,2.5,1.4,3.8,2c1.2,0.6,2.3,2.5,2.3,2.9s-1.2,5.1-2.6,6.9
			c-1.4,1.8-4.4,5.5-4.2,7.8c0.2,2.2-0.1,3.4,0,4.5c0.1,1.1-0.2,1.6-0.5,2.4c-0.2,0.8-0.1,0.5-0.2,2.2c-0.1,1.7,0.6,1.7-0.6,2.9
			c-1.2,1.2-1.1,1.3-1.2,2.3c-0.2,1,0.1,1.5-0.8,1.8c-0.9,0.2-3.3,1.3-5.2,2s-2.9,0.6-4,1.8c-1.1,1.2-1.8,0.8-1.8,3
			c0,2.2,0.3,3.3,0.3,4c0,0.7-0.6,2.4-1.3,2.8c-0.8,0.3-0.8,0.2-0.8,1.1c0,0.8,0.5,0.7-0.4,1.3s-1,0.1-1.2,1.5s-0.1,1.4-0.8,2.6
			c-0.8,1.2-0.5,0.8-1.6,2.6c-1.1,1.8-0.9,2.2-2.5,1.8c-1.6-0.3-1.7-0.1-2.8-0.8c-1.2-0.7-1.3-0.2-1.9-0.9c-0.6-0.7-1.1-1.3-0.5-0.1
			c0.6,1.2,1,1.2,2,2.2s0.8,0.2,0.9,1.3c0.2,1.1,0.4,0.8,0.8,1.2c0.4,0.3,0.7,0.3,0.1,1.8s-0.8,2-2.8,2.2s-2.5,0.3-3.2,0.4
			s-2-0.5-1.4,0.7c0.6,1.2,1.6,1.3,0.8,2.3c-0.8,1-1.2,1.7-2.4,1.2c-1.2-0.5-2.2-1.5-1.8-0.4c0.4,1.1,0,1.8,0.8,2.2
			c0.8,0.4,1.3-0.1,2.2,0.5c0.9,0.6,0.7,1.4-0.4,1.4s-1.4,0.2-1.1,1.1c0.3,0.9,1.2,1.2,0.8,1.8s0.4-0.4-0.9,1c-1.3,1.4-3,2-1.2,2.9
			c1.8,0.9,2.6,0.7,2.9,1.8s0.8,1.3-0.2,1.9c-1.1,0.6-1.2,1.1-1.1,1.9c0.2,0.8,0.2,0.7-0.2,1.3s-1.2,0.1-0.2,1.5
			c1,1.4,0.3,0,1.4,2.1c1.2,2.1,0.5,2.2,2,2.9s1.6,0.8,3,1.5C140.1,264.1,143,265.3,140.5,264.8z"/>
		<path class="st1" d="M89.8,114.3c0.4-0.2,2.3-1.8,3.6-1.9c1.2-0.1,1.9-1,3.1-0.3c1.2,0.7,1.2,1.3,2.2,1.7s1.2-0.4,2.2,0.3
			s1.2,1.2,1.5,1.6c0.3,0.3,0.7,0.4,1.5,1c0.8,0.6,1,0.3,1.8,1c0.8,0.7,2.2,1.5,1.2,1.7c-1,0.2,0,0.8-1.9,0.1
			c-1.9-0.8-2.4-1.4-3.1-1.2s-0.8,0.2-1-0.6s-1.2-1.4-1.6-1.7s-0.2-0.4-0.8-0.8c-0.5-0.4-0.8-0.6-1.5-0.7s-1.3-0.8-2.2-1.1
			c-0.8-0.2-1.1-0.3-1.8,0.2c-0.8,0.6-2,0.8-2.6,0.8c-0.6,0-0.5-0.4-0.5-0.4"/>
		<path class="st1" d="M110.8,119.3c0.4,0.1,0.7-0.6,1.6,0c0.8,0.6,1,0.8,1.6,1c0.6,0.2,0.8-0.2,1.3,0.2s1.8,0.8,0.8,0.9
			c-1.1,0.2-1.3,0.2-2,0.2s-0.7-0.1-1.2,0.2c-0.6,0.2-1.4-0.4-1.8-0.2c-0.4,0.2-0.3,0.4-1,0.6c-0.7,0.2-1.3-0.4-1.8-0.3
			c-0.4,0.1-1.3-0.5-1.3-0.5l0.8-0.2c0,0,0,0.1,0.6-0.1c0.6-0.2,1.3-0.2,1-0.8c-0.3-0.7-1-1.6-0.4-1.2c0.6,0.3,1.2,0.3,1.2,0.3
			l0.6-0.2l0.2-0.1"/>
		<path class="st1" d="M119.3,121.6c0.8,0,1.2,0.2,1.5,0.4s0.2,0.2-0.2,0.4c-0.4,0.2-0.5,0.5-1,0.4c-0.5-0.1-1.1-0.2-1.2-0.5
			c-0.2-0.3,0.1-0.7,0.1-0.7L119.3,121.6z"/>
		<line class="st1" x1="125.5" y1="122.6" x2="125.6" y2="123.1"/>
		<line class="st1" x1="125.8" y1="124.2" x2="126.1" y2="124.7"/>
		<line class="st1" x1="127.4" y1="126" x2="128" y2="126.2"/>
		<line class="st1" x1="127.7" y1="127.3" x2="127.8" y2="127.7"/>
		<line class="st1" x1="128.3" y1="129" x2="128.5" y2="129.3"/>
		<line class="st1" x1="128.4" y1="130.2" x2="128.4" y2="131"/>
		<line class="st1" x1="127.8" y1="131.9" x2="127.7" y2="132.2"/>
		<line class="st1" x1="126.8" y1="133.7" x2="126.7" y2="134.1"/>
		<line class="st1" x1="124.7" y1="127.1" x2="125" y2="127.8"/>
		<line class="st1" x1="130.5" y1="132" x2="130.5" y2="132.5"/>
		<line class="st1" x1="123.3" y1="121.3" x2="123.9" y2="121.3"/>
		<path class="st1" d="M101.5,109.2c0.2,0.2,0.7,0.4,0.7,0.9s-0.5,1.2-0.5,1.2s-0.2-0.8-0.4-0.9c-0.2-0.1-0.5-0.5-0.4-0.8
			S101.5,109.2,101.5,109.2z"/>
		<polygon class="st1" points="103.9,107.8 104.6,108.6 104,108.8 103.5,108.2 		"/>
		<path class="st1" d="M151.3,57.7c0.4,0.6,0.5,0.8,0,1.2c-0.5,0.4-1,0.2-0.8,1.1c0.2,0.8-0.2,1.5,0.8,1.4c1-0.1,1.2-0.7,2-0.3
			s1.2,0.2,0.7,0.8c-0.5,0.6-0.6,1-0.6,1.6c0,0.6-0.4,0.8,0.1,1.2c0.5,0.3,0.8,0.2,0.8,0.6c0,0.4-0.5,0.4-1,0.7s-1.1,0.1-1.7-0.4
			c-0.6-0.5-0.5-1.2-1.2-1s-0.9,0.2-1.9,0.4s-1.3,0.1-2,0.1c-0.7,0-0.8,0.5-1.4,0.2c-0.6-0.3-1-0.8-0.2-0.9c0.8-0.1,1.3-0.6,1.6-0.9
			c0.3-0.3,0.8-0.8,1.2-1.2c0.4-0.4,0.7-0.9,1.2-1.2s0.1-0.3,0.7-1.1c0.6-0.8,1.3-1.4,1.3-1.4L151.3,57.7z"/>
		<path class="st1" d="M93.2,21.1c-0.4,0.1-2,0-3.3,0.5c-1.3,0.5-1.8,0.8-2.8,0.5c-1-0.3-2.7-0.8-1.4-1.2s2.2-0.4,3.2-1.2
			c1.1-0.8,0.9-1.6,2.3-1.7c1.4-0.1,2,0.1,2.8-0.2s1.6-0.9,2.2-0.6c0.7,0.3,1.1,0.5,1.5,0.6s0.2-0.9,1.5-0.2
			c1.3,0.8,1.6,0.9,1.6,1.2s0.6,1.2,1.4,1.2c0.8,0,1.7-0.2,2,0.1c0.3,0.3,0.2,0.4,1,0.2s1.6-1.2,1.8-0.2s-0.1,2.3,0.3,1.4
			c0.4-0.9,0.3-1.4,1.7-2c1.3-0.6,2.6-1.3,2.4,0s-0.3,1.3-0.8,2.5s-0.7,1.4,0.1,1.8s1.8,0.9,1.1,1c-0.7,0.1-2.3,0.4-2.3,0.8
			s-0.1,0.7-1.8,0.4s-2.5-0.1-3.4-0.7c-0.9-0.6-1.8-0.7-2.4-0.3c-0.7,0.3-2.4,1.1-3.9,1.2C96.4,26.4,95,26.6,94,26s-2.2-0.4-2.2-1
			s0.5-1.2,1.3-1.1c0.8,0.1,2.6,0.1,2.6,0.1s-3.1-0.4-2.5-0.8s1.5-0.7,2-0.7s0.2-0.8-0.5-0.8s-1.6,0.3-1.8,0S93.2,21.1,93.2,21.1z"
			/>
		<path class="st1" d="M102.7,13.2c0.7,0,4.5-0.2,4.2,0c-0.3,0.2-1.6,1-3,1c-1.4,0-1.9,0.4-2.8,0.4c-0.8,0-2,0.6-2.2,0
			s0.9-0.7,1.6-0.8C101.1,13.7,102.7,13.2,102.7,13.2z"/>
		<path class="st1" d="M108.4,14.7c1.1,0.7,1.7,1.1,2.4,1.2s0.9-0.3,1.7-0.9s2.2-1,2.3-0.3c0.2,0.7,0.1,1.1,0.7,0.8
			c0.6-0.3,1.4-0.3,1.2,0.4s-0.8,0.8-2,1.1s-0.6,0.3-2.8,0.2s-2.8-0.3-3.8-0.3s-1.2-0.2-1.8-0.2c-0.6,0.1-1.6,0.4-2-0.2
			c-0.4-0.7,0.2-1,1-1.2c0.8-0.2,0.8-0.4,1.7-0.6C107.8,14.5,108.4,14.7,108.4,14.7z"/>
		<path class="st1" d="M115.1,24.9c0.8,0.3,2.6,0.8,1.6,1.2s-1.4,0.6-2.8,0.2c-1.4-0.3-2.9-0.3-1.8-0.8
			C113.2,25.1,115.1,24.9,115.1,24.9z"/>
		<path class="st1" d="M117.4,19.4c-0.7,0.6-0.5,0.2-1.5,0.4c-1,0.2-2.3,0.2-0.7,1.2c1.6,0.9,1,2.4,2.6,1.5c1.6-0.9,1.3-1.8,2.6-1.7
			c1.2,0.1,2,0.8,1.8-0.2c-0.2-1,0.2-1.3,0.2-1.8c0.1-0.5,1.1-1.4-0.8-0.9s-3-0.1-3-0.1s-1-0.5-0.8,0.2c0.2,0.7-0.2,1.1-0.4,1.3"/>
		<path class="st1" d="M115.3,11.9c0.6,0.2,1.9,0.9,1.2,1s-1.7,0-2.7-0.1c-1-0.1-1.9-0.8-1.3-0.7c0.6,0.1,2.1-0.8,2.9-0.4"/>
		<path class="st1" d="M126.3,31.5c0.4,0.3,0.9,1.2,1.3,1.8c0.4,0.7,1.8,1.7,1.1,1.9s-0.9,0-1.8-0.4c-0.9-0.4-1-0.8-2.1-0.4
			c-1.1,0.3-1.2,1-1.9,1s-1.8,0.2-0.8-0.8s1.3-1.2,1.6-1.8c0.3-0.7,0.6-1.2,1.2-1.2C125.4,31.7,126.3,31.5,126.3,31.5z"/>
		<path class="st1" d="M126.7,18.2c0.9,0.1,2.1,0.2,2.8,0.2s1,0.2-0.3,1c-1.3,0.8-1.6,0.9-2.4,0.7s-1.3-0.2-2-0.1
			c-0.7,0.2-1.5,1.1-1.3,0.4c0.2-0.7,0.8-1.8,1.5-2C125.6,18.2,126.7,18.2,126.7,18.2z"/>
		<path class="st1" d="M124.3,14.4c0.8,0.1,1.6-0.1,2.2,0c0.6,0.1,0.9,0.8-0.1,1s-1.4,1.2-2.4,0.8s-2.3,0.3-1.9-0.5
			c0.4-0.8,1.5-1.8,2.2-1.5"/>
		<path class="st1" d="M119.7,14.5c0.6,0.3,1.8-0.1,1.4,0.6c-0.3,0.7-0.4,0.8-1.1,0.5c-0.7-0.3-1-0.2-1.1-0.8
			C118.8,14.3,119.3,14.3,119.7,14.5z"/>
		<path class="st1" d="M126,10.2c0.6,0.4,0.8,0.8,1.6,0.9c0.8,0.1,2.6,0.5,1.8,0.9s-1.6,0.8-2.4,0.5s-1.2-0.6-2-1.2
			c-0.8-0.6-2.4-0.8-1.1-1C125.2,10.2,125.5,9.8,126,10.2z"/>
		<path class="st1" d="M128.3,16.2c0.8,0,2.3,0.2,1.3,0.6c-1,0.3-1.2,0.7-1.9,0.3s-1.7-0.3-1.1-0.8s1.6-0.4,1.6-0.4L128.3,16.2z"/>
		<path class="st1" d="M129.7,13.6c0.6,0,1,0,1.6,0.2s0.2,0.9-0.2,0.9s-1.1,0.2-1.7-0.1c-0.6-0.2-1.2-0.8-0.8-0.8
			S129.7,13.6,129.7,13.6z"/>
		<path class="st1" d="M133.9,12.2c-0.7,0.3-1.1,0.7-1.7,0.5s-1.7-0.5-1.2-0.8C131.4,11.5,134.6,11.8,133.9,12.2z"/>
		<path class="st1" d="M135.2,14.8c1,0.9,1.7,0.9,3,0.9c1.3,0,2.2,0.5,3.7,0s3.8-1.8,2.9-0.4s-2.3,2.7-3.4,2.4
			c-1.1-0.2-1.8,0.1-3.2-0.3c-1.5-0.4-2.2-0.5-3.4-0.5s-2,0.6-2.2,0c-0.2-0.6-0.2-0.8,0.5-1.5C133.7,14.7,134.3,14,135.2,14.8z"/>
		<path class="st1" d="M143.6,18.5c1.1,0,2.8-0.1,2.7,0.4s-0.7,0.6-1.3,0.6c-0.7,0-1.3,0.5-1.8,0S143.2,18.5,143.6,18.5z"/>
		<path class="st1" d="M138,9.2c1.3-0.1,1.3-0.6,2.6-0.9c1.2-0.3,1.6-0.9,2.2,0c0.7,0.9,0.8,0.8,1.8,1.3c1.1,0.5,3.4,0.9,1.4,1.1
			s-3.3,0.1-4.3,0.3s-1.4,0.4-2.5,0.7s-1.9,0.6-2.2-0.2S136.4,9.3,138,9.2z"/>
		<path class="st1" d="M134.1,21.2c0,0,1.2-1.3,1.6-2c0.4-0.7,0.4-0.2-1.4-0.2s-2.2,0.3-3.7,1.5c-1.4,1.2-2.8,0.7-1.8,2.1
			c1,1.4,1.6,1.9,3.2,1.8c1.7-0.2,1.6-1,2.9-0.3c1.3,0.7,2.2,1.2,3.2,0.7c1.1-0.5,1.8-1.3,2.5-0.7s0.9,0.9,1.8,2
			c0.8,1.1,3.2,0.9,2.3,2.2s-0.9,0.9-2.2,2s-1,2.1-2.2,2.2c-1.2,0.2-2-0.5-3.2-0.3s-1.6-1-2.3,0.2c-0.8,1.2-1,1.7,0.4,1.7
			c1.4-0.1,2.1,0.1,3.4,0.1s1.4-1.2,2.2,0.8c0.8,1.9,0.9,2.6,2.7,3.1s3.7,1.8,2.8,0.5c-0.9-1.3-2.4-3.2-1.3-3.1
			c1.1,0.2,0.7,0.7,2.5,0.8c1.8,0.2,2.3-0.2,2.6-1.1c0.2-0.9-0.4-1.9-1.2-2.7s-1.4-1.8-0.4-1.8s2-1.5,3,0s-0.3,3.2,1.7,2.2
			c1.9-0.9,3.9-2.8,2.9-3.5s-2.5-1.8-3.4-2.2c-0.9-0.5-1.2-0.8-0.4-1.2c0.8-0.4,2.5-1.7,1.3-2.1c-1.2-0.4-0.9-0.7-2.4-0.9
			s-1.8-0.4-2.3-1.1c-0.5-0.7-0.1-1-1.6-1s-2.3,0-3.3,0.2s-2.9,0.7-2.9-0.1s1.6-1.5,0.2-1.8c-1.3-0.2-2.4-0.4-3.4,0.1
			S135.1,20.8,134.1,21.2z"/>
		<path class="st1" d="M150.2,8.8c1,0.2-2-0.2-1.8,0.8c0.2,0.9,0.6,0.4,0.1,1.2s-2.3,1.2-3.8,1.4s-2.6,0-3.1,0.3s1,0.8-0.4,0.9
			c-1.4,0.2-1.1-0.1-2,0.2c-0.9,0.2-3.3,0.8-1.7,0.7c1.7-0.1,2.7-0.3,4.8-0.5c2.1-0.2,2.8-0.7,4-0.2c1.2,0.4,2.6,0.9,2.9,0.2
			s4.2-1.4,5.8-2.2c1.6-0.8,1.2-1.5,3.3-1.5c2.1,0,2.5,0.3,3.8-0.3s2.3-0.9,4.1-1.2s0.8-1.1,3.1-1.4c2.3-0.3,4.2-1.1,4.2-1.1
			s1.7-0.5-2-0.1c-3.7,0.4-6.3-0.4-9-0.1c-2.7,0.3-2.2,0.5-5.2,0.5c-3.1,0-2.2-0.2-4.5,0.4c-2.3,0.6-2.8,0.2-4.5,0.6
			c-1.7,0.3-5.3-0.5-3.1,0.3C147.3,8.3,148.2,8.4,150.2,8.8z"/>
		<path class="st1" d="M166.8,10.8c-1.5-0.5-2,0.9-3.5,0.9s-3.2-0.7-3.9,0s-1.1,0.5-0.1,1.3c1,0.8-0.7,1.5,1.2,1.5
			c1.9,0,3.2-0.2,4.8-0.2c1.7,0,3.8-0.4,4.7,0.5c0.9,0.9,2.7,1.7,2.2,3.3c-0.6,1.7-1.6,2.2-1.2,3.2c0.4,0.9,0.4,0.2,2,0.8
			c1.6,0.6,3.2,1.1,1.8,1.6s-3.5-0.4-2.9,0.3c0.6,0.8,2,0.8,1.3,1.3c-0.7,0.6-1.7,1-3,1.7c-1.3,0.7-3,1.2-2.1,2.7
			c0.9,1.5,1,2.2,0.7,3.2c-0.3,1.1-1.1,0.6-0.1,2.8s-0.6,3.3,1.6,3.8c2.2,0.4,2.1-1.1,3.5,0.4c1.4,1.5,0.5,3.3,2.3,1.5
			c1.8-1.8,2.2-3.2,3.2-4.1c1-0.8,0.7,0.9,1.6-1.4c0.9-2.3,0.4-3.2,2.8-3.4c2.3-0.2,2.9-0.7,3.8-1c0.9-0.3,0.2-0.2,1.3-0.2
			c1.1,0,4.5-1.2,6.1-2.7c1.6-1.4,1.1-2.7,2.2-1.8c1.2,0.9,0.3,1.2,2.8,0.7s5.3-2.1,6.8-2.2c1.5-0.1,2.3-0.8,0.9-1.2
			c-1.4-0.4-2.8-0.7-1.8-1.2c1.1-0.5,1.3-1,2.1-0.2c0.8,0.8,1.4,1.7,2.1,0.8c0.7-0.9,1.3-1.2-0.1-2c-1.4-0.8-2.4-1.3-2.8-1.8
			c-0.3-0.6,0.8-0.7,2.6-0.7s3-0.5,4.3-1.2c1.3-0.7,2.5-1.2,1.5-2.2s-2.2-1.2-0.8-1.6s4.5-0.1,2.8-1s-4.4-1.1-0.8-2.5
			c3.6-1.4,3.8-1.5,6.2-2c2.3-0.5,5.8-1.5,3.2-1.7c-2.5-0.2-6.1,0.6-8,0.2c-1.9-0.4,0.3-0.8-2.1-1.2c-2.4-0.4-5.1-1.2-8.8-0.8
			c-3.7,0.3-6-0.1-10.2,0.6c-4.2,0.7-6.8,1.3-10.2,1.2c-3.3-0.2-5.1,0.2-8.2,0.7c-3.2,0.4-4.6,0.5-6.3,0.9s-4.9,0.1-4,0.8
			C169.3,10.1,168.7,11.4,166.8,10.8z"/>
	</g>
</g>
<g id="rken">
	<linearGradient id="SVGID_2_" gradientUnits="userSpaceOnUse" x1="48.581" y1="111.4821" x2="48.581" y2="63.3356">
		<stop  offset="0" style="stop-color:#FFEF1A"/>
		<stop  offset="1" style="stop-color:#EA5B0C"/>
	</linearGradient>
	<path class="st2" d="M58.9,69.9c-1.2,0.4-4.1,1.5-5.8,1.8s-3.8-0.9-3.4-2.5s1.8-4.5,2.4-5.2s-0.9-0.6-1.7-0.2s-4.1,4.3-5.2,6.2
		s-3.2,6.2-4.1,8.1s-0.7,5.9-1.3,7.1s-1.9,3.1-1.9,3.8s1.3,1.7,1.7,2.1s0.8,2.3,0.8,2.3s0.6,2.9,0.8,3.8s-0.1,2.4,0.1,3
		s0.9,0.9,1.4,1.2s0.6,0.9,0.4,1.3s-1.7,1.3-1.9,1.8s0.8,1,1.3,1.4s1.4,0.9,1.8,1.1s0.4,1.4,0.2,2.2s0.3,1.2,0.7,1.4
		s1.1,0.1,1.4,0.6s0.8,0.9,1.2,0.7s-0.2-1.1-0.7-1.6s-1.2-2.4-1.3-2.9s-0.2-1.4-0.6-2.1s-0.5-2.2-0.5-2.7s0.1-1.1-0.2-1.3
		s-1.2-1.8-1.5-2.4s0.9-1.5,1.4-1.9s1.1-0.9,1.3-0.9s0.1,0.6,0.6,0.8s0.4,0.7,0.4,1.1s-0.2,2.2-0.1,2.9s0.1,0.8,0.4,0.8
		s0.6,0.3,0.8,0.8s1,1.9,1,1.9c1,1.2,1.6,0.2,1.6-0.1s0.7-1.9,1.1-2.3s0.8-0.7,1.7-0.3s0.4,4.4,0.4,5.6s1,2.4,2.4,2.2
		c0,0,4.7-1.8,2.3-7.7c-2.3-5.8-2-9.2-2.3-11.8c-0.3-2.7-1-5.2-2.3-3.3s-4.5,3.8-5.2,2s2.3-8.8,4-9.3S60.7,69.2,58.9,69.9z"/>
	<linearGradient id="SVGID_3_" gradientUnits="userSpaceOnUse" x1="116.1633" y1="141.4102" x2="116.1633" y2="133.8868">
		<stop  offset="0" style="stop-color:#FFEF1A"/>
		<stop  offset="1" style="stop-color:#EA5B0C"/>
	</linearGradient>
	<path class="st3" d="M108.6,134.6c0,0-0.8,0.7-1,0.9c-0.2,0.2-0.8,1-0.9,1.8s-0.1,2.7,1,3.6c1.1,0.8,3.3,0.8,4,0.1s0.9-2.2,1.4-2.6
		s1.8-0.2,3.2,0.5s3.5,2.2,4.7,1.7c1.2-0.5,3.5-1.5,4.1-1.9c0.6-0.4,1.1-0.7,0.8-1s-0.3-0.9-0.9-0.9c-0.6,0-0.9,0.3-1.3,0.3
		c-0.4,0-1.5,0.2-1.9,0.5c-0.4,0.3-0.8,0.8-1.2,0.9c-0.4,0-0.8-0.4-1.2-0.9c-0.3-0.4-0.6-0.7-1.5-0.7s-2.1,0.2-2.3,0
		c-0.3-0.2-0.6-0.8-1-0.9c-0.3-0.2-0.9-0.4-1.1-0.5s-0.2-0.5-0.4-0.3c-0.2,0.2-0.8,0.5-1.1,0.7s-1.3,0.5-1.6,1.1
		c-0.2,0.6-0.1,1.5,0,1.9c0.1,0.5-0.1,1-0.5,1c-0.4,0-0.9-0.5-0.9-1c-0.1-0.5,0.1-1.9,0.2-2.3c0.1-0.4,0.9-1,1.1-1.2
		c0.2-0.2,0.5-0.9,0.2-1C110,133.8,109.4,133.7,108.6,134.6z"/>
	<linearGradient id="SVGID_4_" gradientUnits="userSpaceOnUse" x1="265.4037" y1="225.9136" x2="265.4037" y2="183.6665">
		<stop  offset="0" style="stop-color:#FFEF1A"/>
		<stop  offset="1" style="stop-color:#EA5B0C"/>
	</linearGradient>
	<path class="st4" d="M255,183.7c0,0,1.8,8.7,3.5,11.8s2.5,6.7,3.7,5.2s2-3.7,2.3-1.7s7.5,4.3,9.7,3.7c2.2-0.7,4.7-0.5,4,2.2
		c-0.7,2.7-2.2,9.3-2.2,10.8s0.3,2.7,1,3.5c0.7,0.8-0.2,3.8-3.5,4.8c0,0-0.8,0.3-1.4,0.5s-0.9-0.3-1.2,0s-0.7,0.6-1.2,0.7
		c-0.5,0.1-1,0.1-1.6,0.3c-0.5,0.2-0.9,0.6-1.6,0.4s-1.5,0.1-2-0.3c-0.4-0.4-0.6-0.9-0.6-1.5c0-0.6-0.4-0.6-0.7-1
		c-0.3-0.4-1-1-0.6-1s1.5,0.5,1.2-0.2s-0.5-1.6-0.8-2.2s-1-1.2-1-1.7c-0.1-0.5,0.1-1.5,0-2s-1.2-1.7-1.6-2.3s-1.6-2-2-4
		s-0.7-2.8-0.6-4.1c0.1-1.3,0.6-3,0.1-3.6c-0.5-0.6-1.5-1.9-1.8-2.8s-1-2.6-1.6-3.3c-0.5-0.7-1.3-1.3-1.6-2c-0.3-0.7-0.6-2.1-0.4-3
		c0.2-0.8,1.1-1.9,1.1-2.5c0-0.5-0.3-1.2-0.1-1.9s0.5-2,0.7-2.5C254.5,183.7,255,183.7,255,183.7z"/>
	<linearGradient id="SVGID_5_" gradientUnits="userSpaceOnUse" x1="309.7011" y1="207.5949" x2="309.7011" y2="194.5">
		<stop  offset="0" style="stop-color:#FFEF1A"/>
		<stop  offset="1" style="stop-color:#EA5B0C"/>
	</linearGradient>
	<path class="st5" d="M308.4,194.5c0,0,1.1,5.1,1.5,5.8c0.4,0.8,1.5,3.8,3.5,4.8c-0.5,0.7-0.8,1.6-1,1.7s-1.2,0.2-1.6,0.3
		s-1,0.6-1.7,0.4c-0.7-0.2-1.9-0.4-2-0.9s-0.2-1.8-0.2-2.5s0.1-1.3-0.3-1.7c-0.4-0.4-0.8-0.2-0.4-1c0.4-0.8,1.1-1.8,1.4-2.1
		c0.3-0.3,0.6-0.9,0.6-1.5C308.2,197.3,308.2,195.4,308.4,194.5z"/>
	<linearGradient id="SVGID_6_" gradientUnits="userSpaceOnUse" x1="283.0393" y1="132.9874" x2="283.0393" y2="54.9438">
		<stop  offset="0" style="stop-color:#FFEF1A"/>
		<stop  offset="0.1244" style="stop-color:#FFDB18"/>
		<stop  offset="0.5001" style="stop-color:#F59C0E"/>
		<stop  offset="0.7651" style="stop-color:#ED6E0C"/>
		<stop  offset="0.8933" style="stop-color:#EA5B0C"/>
	</linearGradient>
	<path class="st6" d="M205.1,124.4c0,0,4.9-2.7,5.9-3.7s2,0.5,3.8,2.2s18.5,4,23.8,2.5s10-3.5,10.5-2.8s1.8,2.2,3,2.5s11-2.2,11-2.2
		s-1.2,2.2,0,2.8s14.2,0.8,15.8,0.8s3.5-2.2,2.5-2.8s2.5-1,2.8-0.2s0.8,4.2,2.8,4.8s4.5-2.2,5.8-3.2s3.2-0.5,4.2-0.5
		s2.2-0.8,2.2-0.8l0.4-0.5c0,0-1.1-0.6-1.9-1.2s-1.2-2.4-1.2-3.6c0-1.2-0.4-2.8-1.1-3.8c-0.7-1-1.2-1.3-1.8-1.9
		c-0.7-0.6-0.9-0.9-1.1-2c-0.2-1.1-0.9-2.8-1.4-4.2s-1.8-3.5-2.3-4.2c-0.5-0.7-1.5-2.4-1.2-2.4s1,0.6,1.6,1.4
		c0.6,0.8,0.9,1.5,1.5,1.5c0.6,0,0.8-0.8,0.8-1.3s0.2-1.2,0.2-1.2l0.5,2.2c0,0,0.4,1.4,0.5,1.8s0.2,0.3,0.8,0.9
		c0.6,0.6,1.4,1.3,1.6,1.8c0.2,0.5,0,0.8,0.5,1.8s1,1.3,1.5,1.6s0.3,0.2,0.7,1.1c0.3,0.8,0.9,1.6,1.5,2.1s0.3,0.2,0.7,1.8
		c0.3,1.5,0.7,3.2,1.4,3.8s2.3,1,2.6,1.7c0.2,0.7-0.4,1.7,0.2,2.3c0.7,0.7,1.8,0.9,2.4,3.3c0.6,2.4,0.8,2.5,0.8,3.4s0.8,1.8,1.1,2.4
		c0.3,0.6,1.1,1.1,2.1,0.7c1-0.4,1.4-1.2,1.9-1.2s1.2,0,1.3-0.5s0.3-1.2,0.9-1c0.7,0.2,2.5,0.5,3.2-0.3s1.5-1.2,2.6-1.1
		c1.1,0.1,2.5,0.1,2.3-0.8c-0.2-0.9-2-2.4,0-2.6s3.2-0.6,4.2-0.8s1.3-0.8,1.2-1.3s0.6-0.6,1-0.7c0.4-0.1,0.4-0.4,0.7-0.7
		s0.5-0.6,1.1-0.6s1.2-0.7,1.2-1.8c0-1.1-0.2-2.4,0.3-2.2s1,0.8,1.3-0.2c0.3-1,1.2-2.1,0.6-2.9c-0.7-0.8-1.7-2.2-2-2.5
		c-0.3-0.3-0.2-0.7-1.1-0.8c-0.8-0.2-2.2-0.8-2.7-1.8s-0.6-2.2-0.9-2.2c-0.3,0-0.8,1.7-0.8,2.2s-0.4,0.2-0.4,0.2s-0.7-0.1-1.2,0.8
		c-0.6,0.8-1.4,0.8-2.1,0.8s-2.2-0.4-2.5-0.7s-0.7-1.1-1-1.1s-1.9,0.2-2-0.9s0.3-1.7,0-2.2s-0.6-1-0.7-1.4c-0.1-0.4-0.2-0.9-0.7-0.9
		c-0.4,0-2.7-2.7-2.4-3.2s1.2-1.2,2.1-1.2c0.8,0,2,1.6,2.3,2.1s0.7,1,1,1.4c0.3,0.4,0.1,0.7,0.7,1s2,1.6,2.9,1.8
		c0.9,0.2,1.7,0.3,2.6,0.4s1.3,0.1,1.8-0.2s1.1-1.2,1.5-0.4c0.4,0.8,1.2,1.7,1.8,2.2c0.6,0.4,0.9,0.8,1.5,0.9c0.6,0.2,1.2-0.3,1.8,0
		c0.6,0.3,1.4,0.7,2.2,0.8s2.9-0.8,3.8-0.8s1.6,0.1,2.4,0.1c0.8,0,2.2,0.1,2.7-0.2c0.5-0.3,1.1-1.3,1.1-0.1s0.4,1.2,0.8,1.9
		s1.2,0.9,1.4,1.3c0.2,0.4,0.4,0.3,1,0.8c0.6,0.4,1.6,0.6,2.2,1c0.7,0.4,1.3,0.5,0.7,0.4c-0.7-0.1-2.2-0.1-1.6,0.8s1.1,1.2,1.8,1.7
		s0.5,1,1.1,1.2c0.6,0.2,0.9-0.1,1.5-0.2c0.6-0.1,1.5,0.2,1.5-0.7s0.1-1.7,0.1-2.1c0,0,0.6-6.5-0.1-7.8c-0.7-1.3-0.7-2.8,0.3-3.5
		c1-0.7,3-3.3,4.2-4.7c1.2-1.3,2.8-5.5,1.8-6.7s-4.8-4.2-5.8-4.2s-5.2-0.5-5.2-0.5l-2.7-1.3c0,0-4.3-0.3-5-0.7
		c-0.7-0.3-1.2-1.8-0.3-1.8c0.8,0,2.2,0.2,3.2,0.3c1,0.2,2-1.3,0.8-1.8c-1.2-0.5-3.5-0.3-4.2-0.2c-0.7,0.2-2.7,0-3.8-0.5
		c-1.2-0.5-2.3-3-2-3.8c0.3-0.8,2-2,3.2-2.7c1.2-0.7,1.2-1.8,0.5-2.2c-0.7-0.3-0.7-2.2,0.3-1.3c1,0.8,3,1.5,3.8,1.5s10,0.3,11.7-2.2
		c1.7-2.5,0.5-3.3-0.2-3.7s-0.5-1.2,0.2-1.5c0.7-0.3,2.2-2,1.3-3.3s-2.5-3.2-2.5-4s-1.3-2.5-2.2-2.7c-0.8-0.2-3,0-2.2,1
		c0.8,1,1.2,2.8,0.5,2.8c-0.7,0-3.8,0-6.5-0.7c-2.7-0.7-6.3-0.8-7.3-0.5s-5.3-0.5-6.5-0.5c-1.2,0-3.3,0.3-3.3,1.2s1.5,2.8,0.7,3
		c-0.8,0.2-2.7-0.8-3.7-1.8s-4.3-1.7-5.7-1.7c-1.3,0-3,0.3-3.5,0s-2.3-0.5-2.3-0.5l-0.8,0.8l1,1.5c0,0,0,0.8-1.3,0.8
		c-1.3,0-2.7,1-4.3,1.3s-2.8,1.5-3,2.8s0.3,2.8,0.3,3.7c0,0.8-0.3,1.5,0.2,2.5s0.2,1.8,1.7-0.2c0,0-0.1,0.3,0.2,0.4
		c0.2,0.1,1.2,0.1,1.4,0.6c0.2,0.4,0.3,1.2,0.3,1.6c0,0.4-0.1,0.7,0.4,1c0.4,0.4,0.7,0.5,1,0.9c0.3,0.5,0.4,0.5,0.7,1
		c0.3,0.5,0.8,0.7,1.1,1s0.6,0.6,0.9,1s1.1,0.9,0.7,1c-0.4,0.1-0.8,0.1-0.9,0.6s0,0.8,0,1.1s0.1,0.7,0,0.9c-0.1,0.2-0.2,0.6-0.5,0.9
		c-0.3,0.3-0.5,0-0.7-0.2c-0.2-0.1-0.7-0.4-0.8-0.4s-0.6,0-0.4,0.5c0.2,0.5,0.5,0.9,0.8,1.2c0.2,0.3,0.1,0.1,0.6,0.6
		c0.5,0.5,0.8,0.5,1,1c0.2,0.4,0,0.7-0.2,0.9c-0.2,0.2-0.5,0.4-0.5,0.6c0,0.1,0.3,0.4,0.7,0.4c0,0,1,0.4,1.4,1.5s0.1,0.9,0.5,2
		s0.9,1.2,2.1,2.4s1.9,1,2.4,2.1s2.6,1.8,4.9,3.2s2.7,1.4,3.9,1.1s1.7,0,0.4,0.5s-2.8,0.6-4.5-0.3s-4.9-2.4-6.7-4.1s-1.9-1.4-4-1.6
		s-2.6-1.9-3.9-3.1s-1.1-2.1-3.4-2.8s-4.4-1.1-6.1-0.6s-3.2,3.4-4.8,5.1s-1.4,1.4-2,2.3s-1,1.6-1.2,0.8s-0.8-1.2-0.8-1.2
		s0,0.5,0,1.1s0.3,0.9-0.1,1.3c-0.4,0.5-0.5,0.6-1,0c-0.5-0.5-0.5-0.4-0.9-0.2c-0.3,0.2-0.8,0-1.5-0.2c-0.7-0.3-1.5-0.3-2-0.3
		s-0.9-0.2-1.2-0.3c-0.3-0.2-0.5-0.3-1,0.1s-1.4,1.2-1.9,1.5c-0.5,0.3-0.7,0.8-1.3,0c-0.6-0.7-1.3-1.6-2.2-1.7s-1.2,0-1.7-0.2
		c-0.4-0.2-1.8-0.4-2.5-0.7c-0.7-0.2-1.3-0.5-1.7-0.4c-0.4,0-0.9-0.1-1.3-0.3c-0.3-0.3-1-0.8-1.5-0.8c-0.5,0-1.1-0.1-1.8,0.4
		c-0.7,0.5-1.2,0.4-1.5,0.8s-0.7,0.3-0.3,0.9s0.7,1.2,0.8,1.8c0.1,0.6,0,0.9-0.5,1c-0.5,0.1-1.2,0.1-2.1-0.4s-1.1-0.8-1.9-1
		c-0.8-0.2-1.1-0.4-1.5-0.2c-0.5,0.2-0.8,0.3-1.1-0.3s-0.4-1-0.8-1.9c-0.4-0.9-0.6-1.8-1.1-1.6c-0.5,0.2-1.2,0.5-1.9,0.5
		c-0.7,0.1-2.2-0.1-2.8-0.5s-1.1-0.8-1.4-1.3s-0.6-1-0.6-1s-0.4,0.2-1.5,0.8c-1.1,0.7-1.4,0.2-2.3,0.1c-0.9-0.1-1.9-0.1-2.5,0.1
		c-0.6,0.2-2.4,0.5-3.6,1.1c-1.2,0.6-5.2,3.2-6.2,3.3c-1,0-2-0.2-2.9,0.3c-0.9,0.5-2.3,0.4-3.8,0.2c-1.4-0.2-1.8-0.2-2.6,0.4
		c-0.8,0.6-3,1.4-4.1,1.7c-1.1,0.3-4.1,2-4.6,2.2c-0.5,0.2-0.4,0.3-1.2,0.4c-0.8,0.1-1.1,0.5-1.6,0.8c-0.5,0.3-1.2,0.5-2.2,1
		c-0.9,0.5-1.1,1.2-1.5,1.8c-0.3,0.6-0.6,1.2-1.2,1.7s-1,0.9-1,1.6c0,0.7-0.2,1.8-0.4,2.2c-0.2,0.4-0.2,0.8-0.8,0.5
		c-0.6-0.2-1.1-0.2-1.3,0.4c-0.2,0.7-0.4,1.8-0.8,2.4c-0.4,0.6-1.4,1.3-1.1,2.1s0.7,1.1,0.9,1.8c0.2,0.7,0.5,1.1,0.7,1.7
		c0.2,0.6,0.3,0.7,0.1,1.4c-0.2,0.8-0.2,1.3-0.2,2S205.1,124.4,205.1,124.4z"/>
	<linearGradient id="SVGID_7_" gradientUnits="userSpaceOnUse" x1="365.4806" y1="141.0021" x2="365.4806" y2="112.4444">
		<stop  offset="0" style="stop-color:#FFEF1A"/>
		<stop  offset="1" style="stop-color:#EA5B0C"/>
	</linearGradient>
	<path class="st7" d="M367.1,141c0,0,1.2-2.4,1.4-4.5s-0.1-3.2-0.9-4.9s-1.9-3.2-2.8-4.2s-3.9-2.2-4.8-3.2s-2.5-0.9-2.8-3.8
		s0.8-5.4,1.8-6.4s1.8-2.5,2.5-0.8s-0.5,1.5-0.4,2s2.9,0.2,3.9,0.8s2,2.4,1.8,3.9s-0.2,3.2,0,4.4s1.1,2.1,1.2,2.9s0.2,3.1,0.9,1.8
		s1.1-2.5,2-3.5s1.2-1.9,2.6-1.4c0,0,0-0.1-0.1,0.5c-0.1,0.6,0.4,1.2-0.1,1.4c-0.5,0.2-0.8-0.5-1.4,0.3c-0.6,0.8-0.7,1-0.9,1.7
		c-0.2,0.7-0.4,1.2-0.3,1.8s0.6,1.8,0.1,2.4c-0.5,0.6-1,1-1,1.4c0,0.4,0.4,1.3,0.4,2s0,1,0.2,1.3c0.2,0.3,0.5,0.6-0.1,0.8
		s-0.9,0.1-1.1,0.5s-0.6,1-1,1.4c-0.3,0.4-0.6,0.5-0.7,0.8S367.5,141,367.1,141z"/>
	<linearGradient id="SVGID_8_" gradientUnits="userSpaceOnUse" x1="376.73" y1="88.1686" x2="376.73" y2="52.1745">
		<stop  offset="0" style="stop-color:#FFEF1A"/>
		<stop  offset="1" style="stop-color:#EA5B0C"/>
	</linearGradient>
	<path class="st8" d="M364.8,69.8c-0.3,0.1-0.5,0.7-0.3,1c0.2,0.5,0.9,0.4,1.3,0.4c1,0,1.9-0.1,2.8-0.2c1.8-0.1,3.7-0.1,5.5-0.2
		c0.8,0,1.7-0.4,2.5-0.2c0.5,0.1,0.6,0.3,1.1,0.5c0.5,0.2,0.9,0,1.3,0.2c1,0.2,1,1,0.1,1.4c-0.5,0.2-0.8,0.3-1.3,0.5
		c-0.5,0.1-0.7,0.4-1.2,0.6c-0.7,0.4-1.3,0.6-2.2,0.7c-0.5,0.1-1-0.1-1.5,0c-0.5,0.2-1.1,0.6-1.5,0.9c-0.7,0.4-1.4,0.6-2.1,0.7
		c-0.9,0.2-1.6-0.2-2.4-0.3c-1.9-0.2-3.8-0.2-5.7-0.2c-0.4,0-0.9-0.1-1.3,0c-0.5,0.1-0.5,0.3-0.9,0.4c-0.7,0.3-1.6,0.2-2.4,0.5
		c-0.3,0.1-0.6,0.3-0.9,0.4c-0.3,0.1-0.6,0.2-0.9,0.3c-0.5,0.2-1.5,0.7-1.9,1.1c-1.3,1.8,0.9,3,2.2,3.6c0.6,0.3,1.4,0.7,2,1.2
		c0.3,0.2,0.5,0.6,0.8,0.8c0.2,0.1,0.4,0.1,0.6,0.1c0.3,0.2,0.4,0.3,0.6,0.5c0.3,0.2,0.7,0.3,1,0.6c0.1,0.1,0.2,0.4,0.2,0.5
		c0.2,0.2,0.3,0.2,0.5,0.4c0.5,0.5,1.1,0.8,1.7,1.2c0.7,0.5,0.9,0.8,1.8,0.8c0.9,0,1.5-0.5,2.2-1c0.6-0.5,1.2-1.1,1.8-1.5
		c0.2-0.1,0.5,0,0.7-0.2c0.1-0.1,0.1-0.5,0.3-0.7c0.2-0.3,0.6-0.4,0.8-0.6c0.4-0.5,0.6-1.2,1-1.7c0.5-0.7,1.2-1,1.9-1.2
		c1.5-0.5,2.6-2.4,4.3-2.5c1.2-0.1,0.5,1.3-0.1,1.7c-0.5,0.3-1.5,0.5-1.7,1.3c-0.1,1,1.3,0.7,1.9,0.8c0.5,0.1,0.6,0.2,1.1,0.3
		c0.3,0.1,0.8,0.1,1.1,0.2c0.4,0.2,0.4,0.4,0.9,0.5c0.3,0.1,0.8,0.1,1.1,0.2c0.8,0.1,1.8,0,2.6,0c0.9,0,1.9,0,2.8,0
		c0.5,0,2.3,0.6,2-0.3c-0.5,0-0.6-0.4-0.8-0.9c-0.2-0.5-0.5-0.9-0.9-1.4c-0.2-0.3-0.6-0.3-0.9-0.6c-0.2-0.2-0.2-0.7-0.3-1
		c-0.2-0.7-0.3-0.9-1-1.3c-0.4-0.2-0.9-0.3-1.3-0.5c-0.6-0.3-1.1-1.2,0-0.9c0.6,0.1,1.2,0.9,1.7,1.2c0.5,0.3,1.1,0.6,1.6,0.9
		c1.2,0.7,2.4,1,3.7,1.6c1.1,0.5,2.1,1,3.2,1.4c1,0.4,2.4,0.7,3.1,1.7c0.4,0.5,0.6,0.9,0.9,1.3c0.2,0.4,1,0.8,0.9,1.3
		c0.1-0.5-0.4-0.6-0.5-1c-0.2-0.3,0-0.8-0.2-1.1c-0.3-0.8-0.5-1.5-1-2.2c-0.8-1.2-1.8-2.7-2-4.3c-0.1-0.9-0.4-1.4-0.6-2.1
		c-0.2-0.8-0.5-1.5-0.6-2.2c-0.3-1.4,0.2-3.4,1.5-4.2c0.6-0.3,1.6-0.2,2.2-0.4c0.3-0.1,0.9-0.5,1.2-0.7c0.4-0.2,0.8-0.4,1-0.8
		c0.8-1.6-2.2-2.3-3.1-2.8c-0.5-0.3-1-0.8-1.5-1.3c-0.5-0.5-1-1.1-1.5-1.6c-0.5-0.4-1.2-0.8-1.7-1.1c-0.3-0.2-0.7-0.1-1.1-0.3
		c-0.1-0.1-0.1-0.3-0.3-0.4c-0.3-0.2-0.6-0.2-0.9-0.3c-0.2-0.1-0.1-0.2-0.4-0.3c-0.2,0-0.5,0-0.7,0c-0.4,0-0.9,0-1.3,0
		c-0.9,0-1.9-0.1-2.8,0c-0.7,0.1-1.4,0.2-2.1,0.4c-0.4,0.1-0.7,0.2-1.1,0.4c-0.3,0.2-0.5,0.6-0.8,0.7c-0.7,0.2-1.6,0.2-2.3,0.2
		c-0.9,0.1-1.8,0.4-2.6-0.1c-0.3-0.2-0.8-0.6-1-0.9c-0.4-0.4-0.7-0.7-1.1-1.1c-0.5-0.5-0.9-1-1.3-1.5c-0.4-0.5-1.1-0.9-1.5-1.3
		c-0.2-0.2-0.5-0.4-0.7-0.7c-0.1-0.1-0.2-0.3-0.2-0.3c0-0.1-0.4-0.4-0.4-0.5c-0.3-0.5-0.7-1.3-1.2-1.7c-0.2-0.2-0.7-0.3-0.9-0.4
		c-0.4-0.2-0.7-0.4-1.3-0.3c-0.6,0.1-1.1,0.6-1.5,1c-0.4,0.4-1.3,0.9-1.6,1.4c-0.5,0.8,0.1,1.3,0.6,1.8c0.3,0.4,0.8,0.6,1.1,1
		c0.3,0.3,0.3,0.7,0.4,1.1c0.1,0.3,0.3,0.5,0.4,0.9c0.1,0.4,0.1,0.7,0.2,1.1c0.3,0.7,0.5,1.7,0.8,2.2c0.4,0.7,1.1,1.4,1.7,1.9
		c0.4,0.4,2.1,0.6,2.3,1c-0.9,0.4-1.5-0.3-2.2-0.7c-0.8-0.4-1.6-0.6-2.4-1.1c-0.4-0.3-0.7-0.6-1.1-0.8c-0.5-0.3-1-0.4-1.6-0.6
		c-0.9-0.3-1.5-0.6-2.6-0.5c-0.9,0.1-1.1,0.9-0.7,1.7c0.4,0.7,1.5,0.9,2,1.3c0.5,0.4,1,0.9,1.6,1.3c0.8,0.7,1.4,1.2,0.3,1.8
		c-0.1,0.3,0.9,2.6-0.4,2.1"/>
	<linearGradient id="SVGID_9_" gradientUnits="userSpaceOnUse" x1="294.4932" y1="155.1251" x2="294.4932" y2="147.267">
		<stop  offset="0" style="stop-color:#FFEF1A"/>
		<stop  offset="1" style="stop-color:#EA5B0C"/>
	</linearGradient>
	<path class="st9" d="M293,147.3c0.7,0,1-0.1,1.3,0.3c0.2,0.2,0.5,0.7,0.7,1c0.6,0.6,1.2,1.2,1.9,1.6c0.2,0.1,0.6,0.3,0.8,0.5
		c0.4,0.4,0.2,0.8,0.3,1.4c0.1,0.3,0.3,0.2,0.4,0.5c0,0.2,0,0.6,0,0.8c0,0.6,0.1,1.1,0,1.7c-0.4,0.1-1,0.1-1.3-0.2
		c-0.1-0.2,0-0.7-0.1-0.9c-0.1-0.2-0.5-0.6-0.7-0.7c-0.3-0.1-1.6-0.2-1.8-0.1c-0.4,0.1-1,0.9-1.6,0.4c-0.6-0.5,0.1-0.7,0.3-1.2
		c0.3-0.8-0.5-1.2-0.9-1.8c-0.3-0.4-0.6-0.7-0.8-1.1c-0.3-0.5-0.3-1.1-0.7-1.6c0.2-0.1,0.8-0.4,1-0.5c0.4-0.1,0.9,0.2,1-0.1H293z"/>
	<linearGradient id="SVGID_10_" gradientUnits="userSpaceOnUse" x1="310.9173" y1="155.2106" x2="310.9173" y2="127.75">
		<stop  offset="0" style="stop-color:#FFEF1A"/>
		<stop  offset="1" style="stop-color:#EA5B0C"/>
	</linearGradient>
	<path class="st10" d="M301.2,127.8c0.2,0.6,0.8,0.8,1.4,1c0.8,0.2,1.6,0.3,1.8,1.3s0.8,1.4,1.2,1.5s1.5,1.5,1.5,1.9
		s0.3,1.6,0.9,2.4s1.5,1.5,2.2,1.5s1-1,1.6-0.6s1.5,1,1.9,0.4s0.2-1.6,1.1-1.5s2.4,0,2.8,0s0.1,0.1,1.1-0.5s1.9-1.9,1.9-0.9
		s0.6,2.6,0.2,4s-2,3.8-2.6,5.1s-1.9,3.8-2.1,4.4s0.1,0.9-0.9,2s-1.4,1.8-2.4,2.6c-1.4,1.2-2.4,1.5-3,2c-0.9,0.9-1,0.8-1,0.8
		s1.8-1.8,2.8-3s1.9-1.5,2.6-2.9s0.6-2.5,1.2-3.2s0.9-1.8,1.4-2.9s1.2-2.6,1.6-3.2s1.2-2.6,1.2-2.6l0-1.8c0,0-1,1-1.8,1
		s-2.4,0.1-2.9,0.2s-0.2,1.6-1.2,1.5s-1.9-1-2.5-0.8s-1.2,0.8-2.2,0.6s-2.4-1.2-3.1-2.5s-1.1-1-1.6-1.6s-0.9-1.4-1-2.4
		s-0.4-1.4-1.1-1.9s-1.6-0.9-1.6-1.2S301.2,127.8,301.2,127.8z"/>
	<linearGradient id="SVGID_11_" gradientUnits="userSpaceOnUse" x1="443.8851" y1="219.2174" x2="443.8851" y2="193.8259">
		<stop  offset="0" style="stop-color:#FFEF1A"/>
		<stop  offset="1" style="stop-color:#EA5B0C"/>
	</linearGradient>
	<path class="st11" d="M441,194.8c0.8-1.4,5.5-1.2,6.7-0.3c1.2,0.8,1.3,2.2,2.8,3.2s5.3,1.5,5.5,3.2c0.2,1.7,1.5,4.3,1,6
		c-0.5,1.7-2.7,4.7-4,3.7s-3.3-1.8-3.5-1.3s1.3,1.3,2,2.2c0.7,0.8,2.8,1.5,2.8,4.2s0.3,4-1.5,3.7c-1.8-0.3-5.8-1.8-6.5-3.2
		c-0.7-1.3-2.3-5.2-3.3-5.8c-1-0.7-3.7-1.3-5-0.7s-5.5,3.7-6.7,2.3c-1.2-1.3-0.7-4.3,0.3-5.2c1-0.8,3.2-2.3,2.8-3.5
		c-0.3-1.2,1-5.2,1.8-5.3C437.2,197.7,440.5,195.7,441,194.8z"/>
	<linearGradient id="SVGID_12_" gradientUnits="userSpaceOnUse" x1="103.7356" y1="206.5835" x2="103.7356" y2="164.5573">
		<stop  offset="0" style="stop-color:#FFEF1A"/>
		<stop  offset="1" style="stop-color:#EA5B0C"/>
	</linearGradient>
	<path class="st12" d="M102.6,186.2c0,0-1-3.2-1.9-4.4s-1.6-3.1-2.1-4.2s-1.2-2.4-2-3.4s-1.8-2.8-2.4-3.2s-1.4-0.6-1.6-0.8
		s-0.2-1.9-0.4-2.4s-0.7-1.1-0.1-1.9s0.9-1.3,1.7-1.2s0.5,2,1.2,3.2s2.2,5,3.2,6.6s2.6,4.3,3.3,5.8s1.2,3.8,2,4.7s1.7,1.4,3.4,2.2
		s5.3,2.9,5.7,3.2l0,0c2.8,2.3,3,6.3,3,9c0,2.7-1.5,7.2-1.5,7.2c-0.3-1.7-0.5-1.9-0.6-2.8c-0.2-1.3,0.2-2.2,0-5.6
		c-0.2-3.3-0.8-3.8-2-5.4s-3.1-3.1-5.1-3.6s-3.7-1.5-3.8-2.8L102.6,186.2z"/>
	<linearGradient id="SVGID_13_" gradientUnits="userSpaceOnUse" x1="124.4082" y1="259.6689" x2="124.4082" y2="201.3256">
		<stop  offset="0" style="stop-color:#FFEF1A"/>
		<stop  offset="1" style="stop-color:#EA5B0C"/>
	</linearGradient>
	<path class="st13" d="M114.2,212.6c0,0,0.3-0.9,1-2s1.4-2.4,1.8-3.7s0.5-3.5,0.7-4.6s0.9-1.6,0.9-0.3s-0.2,6.3-0.5,7.8
		s-0.2,3.8,0.1,4.9s2.7,7.2,2.9,9.1s2.1,3.4,3.5,5.4s6,7.3,6.2,7.9s0.1,1.8,0.5,2.1s1.6,0.2,2.4,0.8s1.1,0.8,0.8,1.1s-1,0.5-1.5,0.6
		s-0.9,0.6-0.4,1.2s1.2,1,0.6,1.7s-1.6,1.5-2.2,2.2s-1.1,1.1,0.9,1.9s2.2,1.1,2.4,2s0.2,1.1-0.4,1.5s-1.1,1-1.1,1.6s0.3,1.2-0.2,1.6
		s-0.8,0.6-0.1,1.5s1.1,1.8,1.4,2.2s-0.6,0.8-2.4-0.6s-3.1-2.4-4.5-5.3s-2.1-6.9-3.6-11.1s-3.6-11-4.5-13.7s-1.3-5-2-6.8
		s-1.4-2.9-1.8-4.2S114.2,213.1,114.2,212.6z"/>
</g>
<g id="ser">
	<path class="st14" d="M103.1,62.4c1.7,0.2,2.2,0.8,1.9,1.7c-0.3,0.9-0.2,0.9,0,1.7s-0.1,1.6,1.1,1.6c1.2,0,1.3,0,1.9,0.2
		c0.6,0.2,1.1-0.4,1.8,0.9s1.8,1.9,0.8,2.2s-1-0.5-1.7-0.3c-0.7,0.2-0.5,0.1-1.2,1.1c-0.7,1-0.8,1.2-1.6,1.9s-0.9,0.8-1.6,1.4
		c-0.7,0.6-1.9,1-0.8,1.2c1.1,0.2,1,0.1,1.6-0.3s0.7-0.8,1.5-0.9s0.7-0.3,1.6-0.4c0.9-0.1,1.4,0.2,1.8-0.4c0.3-0.6,1.4-1.8,0.8-0.7
		c-0.7,1.2-1.5,2.4-2.8,2.7s-1.1,0.5-2.2,0.9c-1.2,0.4-1.5,0.9-2.4,0.4c-0.9-0.5-1.7-0.6-1.2-1.2s0.5-1.2,1.5-1.8s2.3-1.2,1.6-1.8
		s-2.3,0-1.4-0.8c0.9-0.8,1.7-0.9,1.2-1.8c-0.4-0.9-0.4-1.4-1.3-1c-0.9,0.4-3.4,1.6-3.8,2.4c-0.3,0.8-0.2,1.2-0.8,2.4
		c-0.6,1.2-0.3,1-1.4,1.7c-1.2,0.7-1.8,2.3-1.8,0.8c0.1-1.6,0.7-4.2,1.5-5.1c0.8-0.9,0.8-0.8,1.9-1.8c1.2-0.9,1-1.7,2.6-1.6
		c1.6,0.1,3.1-0.1,3.1-0.1s-0.4-1.3-1.9-1.2c-1.5,0.1-1.3,0.9-2.7,0.1c-1.4-0.8-1.2-0.9-2.6-0.6c-1.3,0.3-1,0.5-2.5,0.6
		s-2.8-0.4,0.9-1.7S101.1,62.2,103.1,62.4z"/>
	<path class="st14" d="M313.2,65.7c0,0-0.3,0.2-1.7,0.9c-1.3,0.8-0.7,1.1-1.9,1.5c-1.2,0.4-1.8-0.3-1.9,0.9s-0.9,1.9-0.1,2.2
		c0.8,0.2,1.3,0.1,1.4,1.2c0.2,1.2-0.4,1.2,0.7,2s1,1.5,2,2.3s2.6,2.3,2.1,2.5s-1,0.1-0.9,1.2c0.1,1.2,0.2,1.7-0.2,2
		c-0.4,0.3-0.7,0.5-0.1,1.2c0.7,0.7,0.9,1,1.7,1.1s0.5,0.3,1.3,0.8c0.8,0.5-0.2,1.7,2.1,1c2.3-0.7,3.1-0.8,3.3-1.5s0.2-1.1-0.2-1.8
		c-0.3-0.8,0-1.2-0.5-2s-0.5-0.8-1.2-1.1c-0.7-0.3-1.5-0.6-0.9-1.1s0.5-0.2,1.3-0.6c0.8-0.4,1.4-0.8,0.7-1.7
		c-0.8-0.8-0.7-1.8-1.4-1.3s-0.6,1.2-1.2,0.5c-0.7-0.7-0.4-1-0.9-1.6c-0.5-0.6,0-0.8-1.2-1.2s-1,0.1-1.6-0.8
		c-0.6-0.9-2.2-0.2-1.2-1.2c0.9-0.9,1.3-0.2,1.3-1.1c0-0.8-0.2-1.4,0.5-1.2s1.1,0.7,1.7,0.2c0.6-0.4,1.7,0.3,1.2-0.8
		s-0.2-0.8-0.7-1.7c-0.4-0.8-0.5-1.1-1.1-1c-0.6,0.1-0.7-0.1-1.1-0.2C314.1,65.6,313.2,65.7,313.2,65.7z"/>
</g>
<g id="txt">
	<text transform="matrix(1 0 0 1 20.5229 194.1182)" class="st15 st16 st17">Stillehavet</text>
	<text transform="matrix(1 0 0 1 136.8628 100)" class="st15 st16 st17">Atlanterhavet</text>
	<text transform="matrix(1 0 0 1 481.9609 119.6079)" class="st15 st16 st17">Stillehavet</text>
	<text transform="matrix(1 0 0 1 330.3271 177.124)" class="st15 st16 st17">Indiske Ocean</text>
	<text transform="matrix(1 0 0 1 232.2876 139.2158)" class="st15 st16 st17">Afrika</text>
	<text transform="matrix(1 0 0 1 96.9937 168.6274)" class="st15 st16 st17">Sydamerika</text>
	<text transform="matrix(1 0 0 1 72.1567 88.8892)" class="st15 st16 st17">USA</text>
	<text transform="matrix(1 0 0 1 246.0132 64.0522)" class="st15 st16 st17">Europa</text>
	<text transform="matrix(1 0 0 1 434.9014 213.7256)" class="st15 st16 st17">Australien</text>
	<text transform="matrix(1 0 0 1 405.4902 66.6665)" class="st15 st16 st17">Asien</text>
</g>
</svg>
