<?xml version="1.0" encoding="utf-8"?>
<!-- Generator: Adobe Illustrator 19.1.0, SVG Export Plug-In . SVG Version: 6.00 Build 0)  -->
<svg version="1.1" xmlns="http://www.w3.org/2000/svg" xmlns:xlink="http://www.w3.org/1999/xlink" x="0px" y="0px"
	 viewBox="0 0 566.9 487.6" style="enable-background:new 0 0 566.9 487.6;" xml:space="preserve">
<style type="text/css">
	.st0{fill:#1B2D56;}
	.st1{fill:url(#SVGID_1_);}
	.st2{fill:url(#SVGID_2_);}
	.st3{fill:#FFFFFF;}
	.st4{font-family:'Verdana';}
	.st5{font-size:9px;}
	.st6{letter-spacing:67;}
	.st7{letter-spacing:78;}
	.st8{letter-spacing:111;}
	.st9{letter-spacing:91;}
	.st10{letter-spacing:53;}
	.st11{letter-spacing:147;}
	.st12{letter-spacing:76;}
	.st13{letter-spacing:47;}
	.st14{letter-spacing:168;}
	.st15{letter-spacing:90;}
	.st16{letter-spacing:45;}
	.st17{letter-spacing:19;}
	.st18{letter-spacing:81;}
	.st19{letter-spacing:29;}
	.st20{letter-spacing:59;}
	.st21{letter-spacing:60;}
	.st22{letter-spacing:49;}
	.st23{letter-spacing:83;}
	.st24{letter-spacing:84;}
	.st25{letter-spacing:102;}
	.st26{letter-spacing:41;}
	.st27{letter-spacing:69;}
	.st28{letter-spacing:14;}
	.st29{letter-spacing:43;}
	.st30{letter-spacing:12;}
	.st31{letter-spacing:50;}
	.st32{letter-spacing:197;}
	.st33{letter-spacing:79;}
	.st34{letter-spacing:16;}
	.st35{letter-spacing:13;}
	.st36{letter-spacing:93;}
	.st37{letter-spacing:40;}
	.st38{letter-spacing:61;}
	.st39{letter-spacing:75;}
	.st40{letter-spacing:88;}
	.st41{letter-spacing:87;}
	.st42{letter-spacing:74;}
	.st43{letter-spacing:37;}
	.st44{letter-spacing:58;}
	.st45{letter-spacing:72;}
</style>
<g id="Lag_2">
	<rect y="0" class="st0" width="566.9" height="28.9"/>
	<linearGradient id="SVGID_1_" gradientUnits="userSpaceOnUse" x1="283.4644" y1="311.1856" x2="283.4644" y2="28.9473">
		<stop  offset="0" style="stop-color:#D5EDFA"/>
		<stop  offset="1" style="stop-color:#5EC5ED"/>
	</linearGradient>
	<rect y="28.9" class="st1" width="566.9" height="282.2"/>
	<rect y="310.8" class="st0" width="566.9" height="28.9"/>
	<linearGradient id="SVGID_2_" gradientUnits="userSpaceOnUse" x1="283.4644" y1="486.8496" x2="283.4644" y2="339.4209">
		<stop  offset="0" style="stop-color:#D5EDFA"/>
		<stop  offset="0.568" style="stop-color:#8CCDC9"/>
		<stop  offset="1" style="stop-color:#40B4A6"/>
	</linearGradient>
	<rect y="339.4" class="st2" width="566.9" height="147.4"/>
</g>
<g id="Lag_3">
</g>
<g id="Lag_1">

	<text transform="matrix(1 0 0 1 8.5547 43.6169)" class="st4 st5 yText">ATP</text>
	<text transform="matrix(1 0 0 1 8.5547 57.6169)" class="st4 st5 yText">Kreatin</text>
	<text transform="matrix(1 0 0 1 8.5547 71.6169)" class="st4 st5 yText">EPO</text>
	<text transform="matrix(1 0 0 1 8.5547 85.6169)" class="st4 st5 yText">Anabolske steroider</text>
	<text transform="matrix(1 0 0 1 8.5547 99.6169)" class="st4 st5 yText">Væksthormon</text>
	<text transform="matrix(1 0 0 1 8.5547 113.6169)" class="st4 st5 yText">Betablokkere</text>
	<text transform="matrix(1 0 0 1 8.5547 155.6169)" class="st4 st5 yText">Vanddrivende stoffer</text>
	<text transform="matrix(1 0 0 1 8.5547 169.6169)" class="st4 st5 yText">Sløringsstoffer</text>
	<text transform="matrix(1 0 0 1 8.5547 295.6169)" class="st4 st5 yText">Placebo</text>

	<text transform="matrix(1 0 0 1 8.5547 18.8169)"><tspan x="0" y="0" class="st3 st4 st5">Præparat</tspan><tspan x="41.7" y="0" class="st3 st4 st5 st6">	</tspan><tspan x="111.8" y="0" class="st3 st4 st5">Primær fordel</tspan><tspan x="173.8" y="0" class="st3 st4 st5 st7">	</tspan><tspan x="255.3" y="0" class="st3 st4 st5">Primær(e) bivirkning(er)</tspan><tspan x="366.8" y="0" class="st3 st4 st5 st8">	</tspan><tspan x="481.6" y="0" class="st3 st4 st5">På dopinglisten</tspan>
	
	
	<tspan x="111.8" y="24.8" class="st4 st5">Mere ATP i cellerne</tspan><tspan x="198.3" y="24.8" class="st4 st5 st10">	</tspan><tspan x="255.3" y="24.8" class="st4 st5">Umuligt i praksis</tspan><tspan x="331.2" y="24.8" class="st4 st5 st11">	</tspan><tspan x="481.6" y="24.8" class="st4 st5">Nej</tspan><tspan x="32.6" y="38.8" class="st4 st5 st12">	</tspan><tspan x="111.8" y="38.8" class="st4 st5">Øger eksplosiviteten</tspan><tspan x="204.3" y="38.8" class="st4 st5 st13">	</tspan><tspan x="255.3" y="38.8" class="st4 st5">Vægtøgning</tspan><tspan x="309.7" y="38.8" class="st4 st5 st14">	</tspan><tspan x="481.6" y="38.8" class="st4 st5">Nej</tspan><tspan x="18.2" y="52.8" class="st4 st5 st15">	</tspan><tspan x="111.8" y="52.8" class="st4 st5">Øger udholdenheden</tspan><tspan x="206.2" y="52.8" class="st4 st5 st16">	</tspan><tspan x="255.3" y="52.8" class="st4 st5">Blodpropper</tspan><tspan x="310.3" y="52.8" class="st4 st5 st14">	</tspan><tspan x="481.6" y="52.8" class="st4 st5">Ja</tspan><tspan x="89.5" y="66.8" class="st4 st5 st17">	</tspan><tspan x="111.8" y="66.8" class="st4 st5">Øger styrken</tspan><tspan x="170.7" y="66.8" class="st4 st5 st18">	</tspan><tspan x="255.3" y="66.8" class="st4 st5">Blodpropper, sterilitet, psykiske problemer</tspan><tspan x="448.7" y="66.8" class="st4 st5 st19">	</tspan><tspan x="481.6" y="66.8" class="st4 st5">Ja</tspan><tspan x="63.2" y="80.8" class="st4 st5 st16">	</tspan><tspan x="111.8" y="80.8" class="st4 st5">Mindre fedtmasse</tspan><tspan x="192.1" y="80.8" class="st4 st5 st20">	</tspan><tspan x="255.3" y="80.8" class="st4 st5">Ledsmerter, forkrøblet knoglevækst</tspan><tspan x="417.7" y="80.8" class="st4 st5 st21">	</tspan><tspan x="481.6" y="80.8" class="st4 st5">Ja</tspan><tspan x="59.2" y="94.8" class="st4 st5 st22">	</tspan><tspan x="111.8" y="94.8" class="st4 st5">Sænket puls</tspan><tspan x="168.1" y="94.8" class="st4 st5 st23">	</tspan><tspan x="255.3" y="94.8" class="st4 st5">Nedsat fysisk præstationsevne</tspan><tspan x="393.9" y="94.8" class="st4 st5 st24">	</tspan><tspan x="481.6" y="94.8" class="st4 st5">Ja</tspan><tspan x="0" y="108.8" class="st4 st5">Amfetamin</tspan><tspan x="49.3" y="108.8" class="st4 st5 st20">	</tspan><tspan x="111.8" y="108.8" class="st4 st5">Udsætter træthed</tspan><tspan x="193" y="108.8" class="st4 st5 st20">	</tspan><tspan x="255.3" y="108.8" class="st4 st5">Overbelastning, hjertestop</tspan><tspan x="376.1" y="108.8" class="st4 st5 st25">	</tspan><tspan x="481.6" y="108.8" class="st4 st5">Ja</tspan><tspan x="0" y="122.8" class="st4 st5">Efedrin</tspan><tspan x="31.8" y="122.8" class="st4 st5 st12">	</tspan><tspan x="111.8" y="122.8" class="st4 st5">Udsætter træthed lidt</tspan><tspan x="210.2" y="122.8" class="st4 st5 st26">	</tspan><tspan x="255.3" y="122.8" class="st4 st5">Samme som amfetamin (mildere)</tspan><tspan x="408.7" y="122.8" class="st4 st5 st27">	</tspan><tspan x="481.6" y="122.8" class="st4 st5">Ja</tspan><tspan x="94.5" y="136.8" class="st4 st5 st28">	</tspan><tspan x="111.8" y="136.8" class="st4 st5">Sænker kropsvægten</tspan><tspan x="209" y="136.8" class="st4 st5 st29">	</tspan><tspan x="255.3" y="136.8" class="st4 st5">Dårlig temperaturregulering, tab af salte i urin</tspan><tspan x="465.9" y="136.8" class="st4 st5 st30">	</tspan><tspan x="481.6" y="136.8" class="st4 st5">Ja</tspan><tspan x="65.6" y="150.8" class="st4 st5 st29">	</tspan><tspan x="111.8" y="150.8" class="st4 st5">Slører dopingstoffer</tspan><tspan x="201.8" y="150.8" class="st4 st5 st31">	</tspan><tspan x="255.3" y="150.8" class="st4 st5">Ingen</tspan><tspan x="281.4" y="150.8" class="st4 st5 st32">	</tspan><tspan x="481.6" y="150.8" class="st4 st5">Ja</tspan><tspan x="0" y="164.8" class="st4 st5">Ren ilt</tspan><tspan x="29" y="164.8" class="st4 st5 st33">	</tspan><tspan x="111.8" y="164.8" class="st4 st5">Øger maksimal iltoptagelse</tspan><tspan x="235.3" y="164.8" class="st4 st5 st34">	</tspan><tspan x="255.3" y="164.8" class="st4 st5">Ingen - bortset fra brandfare</tspan><tspan x="386.5" y="164.8" class="st4 st5 st9">	</tspan><tspan x="481.6" y="164.8" class="st4 st5">Ja</tspan><tspan x="0" y="178.8" class="st4 st5">Bikarbonat</tspan><tspan x="48.9" y="178.8" class="st4 st5 st20">	</tspan><tspan x="111.8" y="178.8" class="st4 st5">Udsætter træthed</tspan><tspan x="193" y="178.8" class="st4 st5 st20">	</tspan><tspan x="255.3" y="178.8" class="st4 st5">Ingen (men fordelene er ikke endeligt påvist)</tspan><tspan x="461.6" y="178.8" class="st4 st5 st34">	</tspan><tspan x="481.6" y="178.8" class="st4 st5">Nej</tspan><tspan x="0" y="192.8" class="st4 st5">Fosfat</tspan><tspan x="27.4" y="192.8" class="st4 st5 st18">	</tspan><tspan x="111.8" y="192.8" class="st4 st5">Mere ATP i cellerne</tspan><tspan x="198.3" y="192.8" class="st4 st5 st10">	</tspan><tspan x="255.3" y="192.8" class="st4 st5">Ingen (men fordelene er ikke endeligt påvist) </tspan><tspan x="464.7" y="192.8" class="st4 st5 st35">	</tspan><tspan x="481.6" y="192.8" class="st4 st5">Nej</tspan><tspan x="0" y="206.8" class="st4 st5">Kokain</tspan><tspan x="30.6" y="206.8" class="st4 st5 st7">	</tspan><tspan x="111.8" y="206.8" class="st4 st5">Afslapning</tspan><tspan x="158.8" y="206.8" class="st4 st5 st36">	</tspan><tspan x="255.3" y="206.8" class="st4 st5">Nedsat præstationsevne, vanedannende</tspan><tspan x="437.7" y="206.8" class="st4 st5 st37">	</tspan><tspan x="481.6" y="206.8" class="st4 st5">Ja</tspan><tspan x="0" y="220.8" class="st4 st5">Marihuana</tspan><tspan x="47.2" y="220.8" class="st4 st5 st38">	</tspan><tspan x="111.8" y="220.8" class="st4 st5">Afslapning</tspan><tspan x="158.8" y="220.8" class="st4 st5 st36">	</tspan><tspan x="255.3" y="220.8" class="st4 st5">Nedsat præstationsevne, vanedannende</tspan><tspan x="437.7" y="220.8" class="st4 st5 st37">	</tspan><tspan x="481.6" y="220.8" class="st4 st5">Ja</tspan><tspan x="0" y="234.8" class="st4 st5">Alkohol</tspan><tspan x="33" y="234.8" class="st4 st5 st39">	</tspan><tspan x="111.8" y="234.8" class="st4 st5">Afslapning</tspan><tspan x="158.8" y="234.8" class="st4 st5 st36">	</tspan><tspan x="255.3" y="234.8" class="st4 st5">Nedsat præstationsevne, vanedannende</tspan><tspan x="437.7" y="234.8" class="st4 st5 st37">	</tspan><tspan x="481.6" y="234.8" class="st4 st5">Nej</tspan><tspan x="0" y="248.8" class="st4 st5">Nikotin</tspan><tspan x="31.7" y="248.8" class="st4 st5 st12">	</tspan><tspan x="111.8" y="248.8" class="st4 st5">Afslapning</tspan><tspan x="158.8" y="248.8" class="st4 st5 st36">	</tspan><tspan x="255.3" y="248.8" class="st4 st5">Nedsat præstationsevne, vanedannende</tspan><tspan x="437.7" y="248.8" class="st4 st5 st37">	</tspan><tspan x="481.6" y="248.8" class="st4 st5">Nej</tspan><tspan x="0" y="262.8" class="st4 st5">HMB</tspan><tspan x="20.5" y="262.8" class="st4 st5 st40">	</tspan><tspan x="111.8" y="262.8" class="st4 st5">Øget styrke</tspan><tspan x="164.7" y="262.8" class="st4 st5 st41">	</tspan><tspan x="255.3" y="262.8" class="st4 st5">Ingen (men fordelene er ikke endeligt påvist)</tspan><tspan x="461.6" y="262.8" class="st4 st5 st34">	</tspan><tspan x="481.6" y="262.8" class="st4 st5">Nej</tspan><tspan x="34.4" y="276.8" class="st4 st5 st42">	</tspan><tspan x="111.8" y="276.8" class="st4 st5">Tro kan flytte bjerge...</tspan><tspan x="214.7" y="276.8" class="st4 st5 st43">	</tspan><tspan x="255.3" y="276.8" class="st4 st5">Ingen</tspan><tspan x="281.4" y="276.8" class="st4 st5 st32">	</tspan><tspan x="481.6" y="276.8" class="st4 st5">Nej</tspan><tspan x="0" y="309.2" class="st3 st4 st5">Metode</tspan><tspan x="32.9" y="309.2" class="st3 st4 st5 st39">	</tspan><tspan x="111.8" y="309.2" class="st3 st4 st5">Primær fordel</tspan><tspan x="173.8" y="309.2" class="st3 st4 st5 st7">	</tspan><tspan x="255.3" y="309.2" class="st3 st4 st5">Primær(e) Bivirkning(er)</tspan><tspan x="367.3" y="309.2" class="st3 st4 st5 st8">	</tspan><tspan x="481.6" y="309.2" class="st3 st4 st5">På dopinglisten</tspan><tspan x="0" y="334" class="st4 st5">Bloddoping</tspan><tspan x="50.2" y="334" class="st4 st5 st44">	</tspan><tspan x="111.8" y="334" class="st4 st5">Øger udholdenheden</tspan><tspan x="206.2" y="334" class="st4 st5 st16">	</tspan><tspan x="255.3" y="334" class="st4 st5">Blodpropper</tspan><tspan x="310.3" y="334" class="st4 st5 st14">	</tspan><tspan x="481.6" y="334" class="st4 st5">Ja</tspan><tspan x="0" y="348" class="st4 st5">Gendoping</tspan><tspan x="48.5" y="348" class="st4 st5 st21">	</tspan><tspan x="111.8" y="348" class="st4 st5">Fx. øget styrke</tspan><tspan x="180" y="348" class="st4 st5 st45">	</tspan><tspan x="255.3" y="348" class="st4 st5">Langsigtet virkning og svær at overskue</tspan><tspan x="438" y="348" class="st4 st5 st37">	</tspan><tspan x="481.6" y="348" class="st4 st5">Ja</tspan></text>
</g>
</svg>
