<?xml version="1.0" encoding="utf-8"?>
<!-- Generator: Adobe Illustrator 19.1.0, SVG Export Plug-In . SVG Version: 6.00 Build 0)  -->
<svg version="1.1" xmlns="http://www.w3.org/2000/svg" xmlns:xlink="http://www.w3.org/1999/xlink" x="0px" y="0px"
	 viewBox="0 0 566.9 481" style="enable-background:new 0 0 566.9 481;" xml:space="preserve">
<style type="text/css">
	.st0{fill:url(#SVGID_1_);}
	.st1{fill:url(#SVGID_2_);stroke:#000000;stroke-width:0.75;}
	.st2{fill:#FFED9A;stroke:#000000;stroke-width:0.75;}
	.st3{fill:#FFFFFF;stroke:#000000;stroke-width:0.75;}
	.st4{fill:#B0DFF5;stroke:#000000;stroke-width:0.75;}
	.st5{stroke:#000000;stroke-width:0.75;}
	.st6{fill:#C8C9CA;stroke:#000000;stroke-width:0.75;}
	.st7{fill:none;stroke:#000000;stroke-width:0.75;}
	.st8{fill:url(#SVGID_3_);stroke:#000000;stroke-width:0.75;}
	.st9{fill:none;stroke:#000000;stroke-width:0.5;}
	.st10{fill:#FBDCD7;stroke:#000000;stroke-width:0.75;}
	.st11{fill:none;stroke:#000000;}
	.st12{fill:none;stroke:#FFFFFF;}
	.st13{fill:#FFFFFF;}
	.st14{font-family:'Verdana';}
	.st15{font-size:9px;}
</style>
<g id="Lag_13">
	<linearGradient id="SVGID_1_" gradientUnits="userSpaceOnUse" x1="283.4644" y1="322.0254" x2="283.4644" y2="4.1241">
		<stop  offset="5.617980e-03" style="stop-color:#003E90"/>
		<stop  offset="1.170516e-02" style="stop-color:#004091"/>
		<stop  offset="6.731356e-02" style="stop-color:#3A5CA3"/>
		<stop  offset="0.1286" style="stop-color:#5C7AB7"/>
		<stop  offset="0.1945" style="stop-color:#7897C9"/>
		<stop  offset="0.2661" style="stop-color:#91B0D8"/>
		<stop  offset="0.3453" style="stop-color:#A5C4E4"/>
		<stop  offset="0.4355" style="stop-color:#B4D4ED"/>
		<stop  offset="0.5431" style="stop-color:#BFDFF3"/>
		<stop  offset="0.6854" style="stop-color:#C5E6F7"/>
		<stop  offset="1" style="stop-color:#C7E8F8"/>
	</linearGradient>
	<rect y="4.1" class="st0" width="566.9" height="317.9"/>
</g>
<g id="hoved">
	<linearGradient id="SVGID_2_" gradientUnits="userSpaceOnUse" x1="59.2017" y1="158.5438" x2="438.6449" y2="158.5438">
		<stop  offset="5.617980e-03" style="stop-color:#FFFFFF"/>
		<stop  offset="9.724268e-02" style="stop-color:#FAFAFA"/>
		<stop  offset="0.2255" style="stop-color:#EDEDEE"/>
		<stop  offset="0.3596" style="stop-color:#D9DADB"/>
		<stop  offset="1" style="stop-color:#87888A"/>
	</linearGradient>
	<path class="st1" d="M59.5,62.1c0,0,334-6.5,350.1-4.5c16.1,1.9,30.1,20.2,29,36.1c-1,15.7-1.9,92.9-22.6,108.4
		C401,213.3,264.4,224,264.4,224s111.6,12.5,118.1,13.5c16.1,2.6,16.8,12.7,0,13.3c-11.6,0.4-110.3,4.5-123.2,3.2
		c-12.9-1.3-171.6,2.6-200,5.8"/>
</g>
<g id="Lag_4">
	<path class="st2" d="M182,81.7c0,0-0.3,102.7,8.7,109s51,6,59.7,6.3c0.3-12.3-5-49.7-2.3-54.7c2.7-5,173.7-27,179.7-27.3
		c-0.7-5.7-1-22.3-1-22.3S212,81.1,182,80.7"/>
</g>
<g id="tænder">
	<polyline class="st3" points="388.1,243.1 387.1,234.4 383.8,242.7 	"/>
	<polyline class="st3" points="381.5,241.6 380.5,232.9 377.1,241.2 	"/>
	<polyline class="st3" points="374.6,241.2 373.6,232.6 370.3,240.9 	"/>
	<polyline class="st3" points="367.3,239.9 366.3,231.2 363,239.6 	"/>
	<polyline class="st3" points="360.6,239.1 359.6,230.4 356.3,238.7 	"/>
	<polyline class="st3" points="354.1,238.7 353.1,230.1 349.8,238.4 	"/>
	<polyline class="st3" points="347.6,237.6 346.6,228.9 343.3,237.2 	"/>
	<polyline class="st3" points="339.8,237.1 338.8,228.4 335.5,236.7 	"/>
	<polyline class="st3" points="332.3,236.1 331.3,227.4 328,235.7 	"/>
	<polyline class="st3" points="325.8,234.9 324.8,226.2 321.5,234.6 	"/>
	<polyline class="st3" points="318.1,234.1 317.1,225.4 313.8,233.7 	"/>
	<polyline class="st3" points="310.1,232.4 309.1,223.7 305.8,232.1 	"/>
	<polyline class="st3" points="301.1,231.4 300.1,222.7 296.8,231.1 	"/>
	<polyline class="st3" points="292,231.2 291,222.6 287.6,230.9 	"/>
	<polyline class="st3" points="283.3,231.9 282.3,223.2 279,231.6 	"/>
	<polyline class="st3" points="275.6,232.2 274.6,223.6 271.3,231.9 	"/>
</g>
<g id="Lag_8">
	<path class="st4" d="M182.5,87.2c0,0,5,93.5,8,98s5,4.5,8.5,6.5s11-8.5,16-15.5s23-28.5,30-32s81.5-15,93-16.5s81.5-11,81.5-11
		v-4.5c0,0-78,9.5-88.5,11s-63,9-72,11c-9,2-23,7-27.5,12.5c-6.5,8-11.5,14-15,18s-11.5,16.5-14,17c-3.9,0.8-5.5-11.5-6.5-21
		s-4.5-68-5.5-70s-4.5-5.5-7-5.5S182.5,87.2,182.5,87.2z"/>
</g>
<g id="Lag_7">
	<ellipse class="st2" cx="424.5" cy="158.4" rx="4" ry="15.2"/>
	<ellipse class="st2" cx="410" cy="158.4" rx="4.4" ry="16.8"/>
	<ellipse class="st2" cx="393.5" cy="158.4" rx="4.9" ry="18.5"/>
	<ellipse class="st2" cx="375.5" cy="158.4" rx="5.4" ry="20.4"/>
	<ellipse class="st2" cx="357.3" cy="158.4" rx="5.7" ry="21.7"/>
	<ellipse class="st2" cx="256.6" cy="158.4" rx="4" ry="15.2"/>
	<ellipse class="st2" cx="271.1" cy="158.4" rx="4.4" ry="16.8"/>
	<ellipse class="st2" cx="287.6" cy="158.4" rx="4.9" ry="18.5"/>
	<ellipse class="st2" cx="305.6" cy="158.4" rx="5.4" ry="20.4"/>
	<ellipse class="st2" cx="323.8" cy="158.4" rx="5.7" ry="21.7"/>
	<ellipse class="st2" cx="340.2" cy="158.4" rx="6.1" ry="23.4"/>
</g>
<g id="Lag_9">
	<path class="st4" d="M210,193.2c0,0,96.4-41.6,111-52c15.5-11,75-60,80.5-63.5s5.3-4.5,8.8-4.5s5.8,2.7,9.3,7.5
		c3.7,5,11.7,16.5,11.7,16.5s-10.7-21.3-13.8-26c-2.9-4.3-6.3-4.4-8.5-4c-6,1-30.8,20.8-40.5,28.5c-9.5,7.5-28,22.5-48,37.5
		c-16.5,12.3-49.5,27-59,30.5c-9.5,3.5-63,27.5-63,27.5"/>
	<g>
		<ellipse class="st5" cx="410.9" cy="64.1" rx="9" ry="4.3"/>
		<ellipse class="st6" cx="410.9" cy="64.1" rx="6.4" ry="2.5"/>
	</g>
</g>
<g id="Lag_11">
	<path class="st7" d="M181.6,70.7"/>
	<linearGradient id="SVGID_3_" gradientUnits="userSpaceOnUse" x1="181.9756" y1="75.7796" x2="374.9766" y2="75.7796">
		<stop  offset="0" style="stop-color:#FFFFFF"/>
		<stop  offset="0.3309" style="stop-color:#EC7754"/>
		<stop  offset="0.5056" style="stop-color:#E1001A"/>
		<stop  offset="1" style="stop-color:#FFFFFF"/>
	</linearGradient>
	<path class="st8" d="M375,73.4c0,0-47-6.3-193-1.3c0,3,0.7,6.3,0.7,6.3l0.3,1.3c0,0,155.6-4.7,190.3,1.7"/>
	<path class="st9" d="M183.3,74.4c0,0,173-4,190.7,1.7"/>
	<path class="st9" d="M183,77.1c0,0,169.7-4,190.3,1.7"/>
</g>
<g id="kæbe">
	<path class="st3" d="M193.3,216.1c0,0-6.3,11.7-7,15.7c-0.7,4-3.3,19.3,17.3,19c20.7-0.3,181.3-3.3,183.3-3.3s3.2-0.5,3.3-2.3
		c0.1-1.9-1-2.7-3.3-3c-2-0.2-47.7-5.3-56-6.3s-63-10.3-66.7-11.7c-3.7-1.3-30.7-0.3-35-1.3s-20.7-7.7-23.3-9
		C203.3,212.4,193.3,216.1,193.3,216.1z"/>
	<path class="st3" d="M184.4,74.5c0.5,2.5,5.8,99.8,7.7,106.3c1.9,6.5,3.9,10.3,13.5,10.3c9.7,0,182.6,0,187.7,0
		c5.2,0,7.1,0,7.7,2.6c0.6,2.6-3.9,2.6-7.7,2.6c-3.9,0-181.3,11-183.9,14.8c-2.6,3.9-3.2,14.2-6.5,14.2s-1.9-3.9-6.5-7.1
		c-4.5-3.2-9,11.3-12.9,11.6c-7.1,0.6-9.7-17.4-10.3-23.2c-0.6-5.8-5.8-12.3-4.5-20c1.3-7.7,9.3-110.4,9.7-112.7
		c0.4-2.2,0.6-3.9,3.2-3.9C184.2,70.1,183.9,71.7,184.4,74.5z"/>
</g>
<g id="hjerne">
	<ellipse class="st10" cx="192" cy="203.2" rx="10.5" ry="6.5"/>
</g>
<g id="forreste_luftsæk">
	<path class="st5" d="M409.5,91.7c0,0,16-0.5,19.5,1s3.2,13.1,2.5,19.8c-0.7,6.3-2,13.7-6.5,13.7c-3.2,0-9-2.5-9-9
		S413.5,92.2,409.5,91.7z"/>
</g>
<g id="pile">
	<g>
		<path class="st11" d="M405,104.4c0,0-147.3,1.7-188,19"/>
		<polygon points="221.8,127.6 209.9,126.3 216.9,116.7 		"/>
	</g>
	<g>
		<polygon points="401.1,161.1 390.7,167 390.7,155.1 		"/>
		<path class="st11" d="M207.3,140.1c45.7,22.7,116.3,24,184.3,20.7"/>
	</g>
	<line class="st7" x1="410.5" y1="47.2" x2="410.5" y2="62"/>
	<line class="st7" x1="266.7" y1="49.1" x2="266.7" y2="72.2"/>
	<line class="st7" x1="451.9" y1="69.4" x2="419.1" y2="75.6"/>
	<line class="st7" x1="451.9" y1="107.1" x2="432.1" y2="107.1"/>
	<line class="st7" x1="451.2" y1="136" x2="392" y2="119.4"/>
	<line class="st7" x1="451.2" y1="158.3" x2="424.8" y2="158.3"/>
	<line class="st7" x1="158" y1="143.5" x2="191.1" y2="143.5"/>
	<line class="st7" x1="158" y1="203.4" x2="187.7" y2="203.4"/>
	<g>
		<g>
			<line class="st12" x1="171.6" y1="273" x2="277.2" y2="273"/>
			<line class="st12" x1="171.4" y1="268.7" x2="171.4" y2="277.4"/>
			<line class="st12" x1="277.2" y1="268.7" x2="277.2" y2="277.4"/>
		</g>
		<text transform="matrix(1 0 0 1 206.5547 267.8886)" class="st13 st14 st15">1 meter</text>
	</g>
</g>
<g id="txt">
	<text transform="matrix(1 0 0 1 392.8643 45.4331)" class="st14 st15">Blæsehul</text>
	<text transform="matrix(1 0 0 1 453.5684 104.8638)"><tspan x="0" y="0" class="st14 st15">Forreste luftsæk</tspan><tspan x="0" y="10.8" class="st14 st15">og abelæber</tspan></text>
	<text transform="matrix(1 0 0 1 453.5684 161.4809)" class="st14 st15">Junk</text>
	<text transform="matrix(1 0 0 1 453.5684 138.6421)" class="st14 st15">Højre næsegang</text>
	<text transform="matrix(1 0 0 1 453.5684 72.5932)" class="st14 st15">Venstre næsegang</text>
	<text transform="matrix(1 0 0 1 199.4688 135.8764)" class="st14 st15">Lyd</text>
	<text transform="matrix(1 0 0 1 234.2227 45.4331)" class="st14 st15">Muskel-senelag</text>
	<text transform="matrix(1 0 0 1 208.9131 200.9878)" class="st14 st15">Overkæbe</text>
	<text transform="matrix(1 0 0 1 208.9136 239.8764)" class="st14 st15">Underkæbe</text>
	<text transform="matrix(1 0 0 1 125.2998 206.5444)" class="st14 st15">Hjerne</text>
	<text transform="matrix(1 0 0 1 82.6299 147.2856)" class="st14 st15">Bageste luftsæk</text>
	<text transform="matrix(1 0 0 1 216.5684 98.4809)" class="st14 st15">Spermacet-olie</text>
</g>
</svg>
