<?xml version="1.0" encoding="utf-8"?>
<!-- Generator: Adobe Illustrator 19.1.0, SVG Export Plug-In . SVG Version: 6.00 Build 0)  -->
<svg version="1.1" xmlns="http://www.w3.org/2000/svg" xmlns:xlink="http://www.w3.org/1999/xlink" x="0px" y="0px"
	 viewBox="0 0 864.6 487.6" style="enable-background:new 0 0 864.6 487.6;" xml:space="preserve">
<style type="text/css">
	.st0{fill:#F29634;}
	.st1{fill:#EE8032;}
	.st2{fill:#4BB180;}
	.st3{fill:#FABC34;}
	.st4{fill:#FFDF30;}
	.st5{fill:#7EC29A;}
	.st6{fill:#A1D1B2;}
	.st7{fill:#C5E1CD;}
	.st8{fill:#E9600F;}
	.st9{fill:#009D61;}
	.st10{fill:#FFFFFF;}
	.st11{font-family:'Verdana';}
	.st12{font-size:9px;}
	.st13{letter-spacing:11;}
	.st14{letter-spacing:75;}
	.st15{letter-spacing:86;}
	.st16{letter-spacing:22;}
	.st17{letter-spacing:20;}
	.st18{letter-spacing:24;}
	.st19{letter-spacing:53;}
	.st20{letter-spacing:30;}
	.st21{letter-spacing:55;}
	.st22{letter-spacing:125;}
	.st23{letter-spacing:122;}
	.st24{letter-spacing:17;}
	.st25{letter-spacing:44;}
	.st26{letter-spacing:35;}
	.st27{letter-spacing:16;}
	.st28{letter-spacing:15;}
	.st29{letter-spacing:84;}
	.st30{letter-spacing:47;}
	.st31{letter-spacing:9;}
	.st32{letter-spacing:6;}
	.st33{letter-spacing:8;}
	.st34{letter-spacing:36;}
	.st35{letter-spacing:91;}
	.st36{letter-spacing:4;}
	.st37{letter-spacing:2;}
	.st38{letter-spacing:29;}
	.st39{letter-spacing:33;}
	.st40{letter-spacing:25;}
	.st41{letter-spacing:48;}
	.st42{letter-spacing:34;}
	.st43{letter-spacing:5;}
	.st44{letter-spacing:3;}
	.st45{letter-spacing:57;}
	.st46{letter-spacing:32;}
	.st47{letter-spacing:10;}
	.st48{letter-spacing:13;}
	.st49{letter-spacing:51;}
	.st50{letter-spacing:107;}
	.st51{letter-spacing:18;}
	.st52{letter-spacing:12;}
	.st53{letter-spacing:21;}
	.st54{letter-spacing:37;}
	.st55{letter-spacing:7;}
	.st56{letter-spacing:31;}
	.st57{letter-spacing:28;}
	.st58{letter-spacing:41;}
	.st59{letter-spacing:38;}
</style>
<g id="Lag_2">
	<rect x="54.5" y="0" class="st0" width="124.3" height="488.4"/>
	<rect x="0" y="0" class="st1" width="52.3" height="488.4"/>
	<rect x="433" y="0" class="st2" width="52.3" height="488.4"/>
	<polygon class="st3" points="307.9,488.4 182.1,488.4 181.1,0 307.9,0 	"/>
	<rect x="309.9" y="0" class="st4" width="120.8" height="488.4"/>
	<rect x="487.3" class="st5" width="125.3" height="487.2"/>
	<rect x="614.9" class="st6" width="126.8" height="487.2"/>
	<rect x="743.7" class="st7" width="120.8" height="487.2"/>
</g>
<g id="Lag_3">
	<rect x="0" y="13.2" class="st8" width="432.3" height="13"/>
	<rect x="432.8" y="13.2" class="st9" width="432.3" height="13"/>
</g>
<g id="txt">
	<text transform="matrix(1 0 0 1 1.001 65.9109)" class="st10 st11 st12 yText">Kalium</text>
	<text transform="matrix(1 0 0 1 1.001 130.7109)" class="st10 st11 st12 yText">Natrium</text>
	<text transform="matrix(1 0 0 1 1.001 195.5109)" class="st10 st11 st12 yText">Calcium</text>
	<text transform="matrix(1 0 0 1 1.001 271.1109)" class="st10 st11 st12 yText">Magnesium</text>
	<text transform="matrix(1 0 0 1 1.001 335.9109)" class="st10 st11 st12 yText">Fosfor</text>
	<text transform="matrix(1 0 0 1 1.001 400.7109)" class="st10 st11 st12 yText">Jern</text>

	<text transform="matrix(1 0 0 1 433.8164 65.9114)" class="st10 st11 st12 yText">Zink</text>
	<text transform="matrix(1 0 0 1 433.8164 141.5114)" class="st10 st11 st12 yText">Mangan</text>
	<text transform="matrix(1 0 0 1 433.8164 184.7114)" class="st10 st11 st12 yText">Fluor</text>
	<text transform="matrix(1 0 0 1 433.8164 227.9114)" class="st10 st11 st12 yText">Kobber</text>
	<text transform="matrix(1 0 0 1 433.8164 292.7114)" class="st10 st11 st12 yText">Krom</text>
	<text transform="matrix(1 0 0 1 433.8164 346.7114)" class="st10 st11 st12 yText">Selen</text>
	<text transform="matrix(1 0 0 1 433.8164 389.9114)" class="st10 st11 st12 yText">Jod</text>
	
	
		<text transform="matrix(1 0 0 1 1.001 22.7109)">
		<tspan x="0" y="0" class="st10 st11 st12">Mineraler</tspan><tspan x="42" y="0" class="st10 st11 st12 st13">	</tspan><tspan x="56.7" y="0" class="st10 st11 st12">Forekomst</tspan><tspan x="104.3" y="0" class="st10 st11 st12 st14">	</tspan><tspan x="182.5" y="0" class="st10 st11 st12">Funktion</tspan><tspan x="221.6" y="0" class="st10 st11 st12 st15">	</tspan><tspan x="310.8" y="0" class="st10 st11 st12">Mangelsymptomer</tspan><tspan x="31" y="43.2" class="st11 st12 st16">	</tspan><tspan x="56.7" y="43.2" class="st11 st12">Mælk, bladgrøntsager,</tspan><tspan x="158.5" y="43.2" class="st11 st12 st17">	</tspan><tspan x="182.5" y="43.2" class="st11 st12">Nervernes funktion og</tspan><tspan x="283.2" y="43.2" class="st11 st12 st18">	</tspan><tspan x="310.8" y="43.2" class="st11 st12">Muskelsvaghed, ildebe-</tspan><tspan x="0" y="54" class="st11 st12 st19">	</tspan><tspan x="56.7" y="54" class="st11 st12">tørret frugt, nødder,</tspan><tspan x="148.6" y="54" class="st11 st12 st20">	</tspan><tspan x="182.5" y="54" class="st11 st12">muskelaktivitet</tspan><tspan x="251.8" y="54" class="st11 st12 st21">	</tspan><tspan x="310.8" y="54" class="st11 st12">findende, uregelmæssig </tspan><tspan x="0" y="64.8" class="st11 st12 st19">	</tspan><tspan x="56.7" y="64.8" class="st11 st12">bønner, fisk, kartofler</tspan><tspan x="155.3" y="64.8" class="st11 st12 st18">	</tspan><tspan x="182.5" y="64.8" class="st11 st12 st22">	</tspan><tspan x="310.8" y="64.8" class="st11 st12">hjerterytme, appetitløs-</tspan><tspan x="0" y="75.6" class="st11 st12 st19">	</tspan><tspan x="56.7" y="75.6" class="st11 st12 st23">	</tspan><tspan x="182.5" y="75.6" class="st11 st12 st22">	</tspan><tspan x="310.8" y="75.6" class="st11 st12">hed, forstoppelse, apati</tspan><tspan x="0" y="86.4" class="st11 st12 st19">	</tspan><tspan x="56.7" y="86.4" class="st11 st12 st23">	</tspan><tspan x="182.5" y="86.4" class="st11 st12 st22">	</tspan><tspan x="36.4" y="108" class="st11 st12 st24">	</tspan><tspan x="56.7" y="108" class="st11 st12">Mejeriprodukter, </tspan><tspan x="135.1" y="108" class="st11 st12 st25">	</tspan><tspan x="182.5" y="108" class="st11 st12">Nervernes funktion,</tspan><tspan x="272.2" y="108" class="st11 st12 st26">	</tspan><tspan x="310.8" y="108" class="st11 st12">Meget usædvanligt,</tspan><tspan x="0" y="118.8" class="st11 st12 st19">	</tspan><tspan x="56.7" y="118.8" class="st11 st12">dåsesupper, tomatjuice</tspan><tspan x="163" y="118.8" class="st11 st12 st27">	</tspan><tspan x="182.5" y="118.8" class="st11 st12">muskelsammentrækninger,</tspan><tspan x="306.7" y="118.8" class="st11 st12">	</tspan><tspan x="310.8" y="118.8" class="st11 st12">muskelkramper, ildebe-</tspan><tspan x="0" y="129.6" class="st11 st12 st19">	</tspan><tspan x="56.7" y="129.6" class="st11 st12">brød, cerealier, oliven,</tspan><tspan x="158.9" y="129.6" class="st11 st12 st17">	</tspan><tspan x="182.5" y="129.6" class="st11 st12">opretholdelse af væske-</tspan><tspan x="291.7" y="129.6" class="st11 st12 st28">	</tspan><tspan x="310.8" y="129.6" class="st11 st12">findende, apati, svaghed, </tspan><tspan x="0" y="140.4" class="st11 st12 st19">	</tspan><tspan x="56.7" y="140.4" class="st11 st12">bordsalt</tspan><tspan x="93.3" y="140.4" class="st11 st12 st15">	</tspan><tspan x="182.5" y="140.4" class="st11 st12">balancen</tspan><tspan x="222.8" y="140.4" class="st11 st12 st29">	</tspan><tspan x="310.8" y="140.4" class="st11 st12">svimmelhed</tspan><tspan x="0" y="151.2" class="st11 st12 st19">	</tspan><tspan x="56.7" y="151.2" class="st11 st12 st23">	</tspan><tspan x="182.5" y="151.2" class="st11 st12 st22">	</tspan><tspan x="35.8" y="172.8" class="st11 st12 st24">	</tspan><tspan x="56.7" y="172.8" class="st11 st12">Mejeriprodukter,</tspan><tspan x="131.9" y="172.8" class="st11 st12 st30">	</tspan><tspan x="182.5" y="172.8" class="st11 st12">Knogle- og tanddannelse,</tspan><tspan x="298.6" y="172.8" class="st11 st12 st31">	</tspan><tspan x="310.8" y="172.8" class="st11 st12">Kan have sammenhæng</tspan><tspan x="0" y="183.6" class="st11 st12 st19">	</tspan><tspan x="56.7" y="183.6" class="st11 st12">bladgrøntsager, æg,</tspan><tspan x="148.7" y="183.6" class="st11 st12 st20">	</tspan><tspan x="182.5" y="183.6" class="st11 st12">blodets koaguleringsevne,</tspan><tspan x="301.1" y="183.6" class="st11 st12 st32">	</tspan><tspan x="310.8" y="183.6" class="st11 st12">med formindsket</tspan><tspan x="0" y="194.4" class="st11 st12 st19">	</tspan><tspan x="56.7" y="194.4" class="st11 st12">tørrede ærter og bønner,</tspan><tspan x="170.4" y="194.4" class="st11 st12 st33">	</tspan><tspan x="182.5" y="194.4" class="st11 st12">nervernes funktion,</tspan><tspan x="271.2" y="194.4" class="st11 st12 st34">	</tspan><tspan x="310.8" y="194.4" class="st11 st12">knoglemasse hos ældre</tspan><tspan x="0" y="205.2" class="st11 st12 st19">	</tspan><tspan x="56.7" y="205.2" class="st11 st12">nødder</tspan><tspan x="88.2" y="205.2" class="st11 st12 st35">	</tspan><tspan x="182.5" y="205.2" class="st11 st12">muskelsammentrækninger</tspan><tspan x="303.4" y="205.2" class="st11 st12 st36">	</tspan><tspan x="310.8" y="205.2" class="st11 st12">(knogleskørhed),</tspan><tspan x="0" y="216" class="st11 st12 st19">	</tspan><tspan x="56.7" y="216" class="st11 st12 st23">	</tspan><tspan x="182.5" y="216" class="st11 st12 st22">	</tspan><tspan x="310.8" y="216" class="st11 st12">muskelsvind</tspan><tspan x="51.3" y="248.4" class="st11 st12 st37">	</tspan><tspan x="56.7" y="248.4" class="st11 st12">Grønne grøntsager, </tspan><tspan x="148.4" y="248.4" class="st11 st12 st20">	</tspan><tspan x="182.5" y="248.4" class="st11 st12">Nervernes funktion,</tspan><tspan x="272.2" y="248.4" class="st11 st12 st26">	</tspan><tspan x="310.8" y="248.4" class="st11 st12">Muskelrystelser,</tspan><tspan x="0" y="259.2" class="st11 st12 st19">	</tspan><tspan x="56.7" y="259.2" class="st11 st12">skaldyr, tørret frugt,</tspan><tspan x="149.7" y="259.2" class="st11 st12 st38">	</tspan><tspan x="182.5" y="259.2" class="st11 st12">muskelsammentrækninger,</tspan><tspan x="306.7" y="259.2" class="st11 st12">	</tspan><tspan x="310.8" y="259.2" class="st11 st12">muskelkramper,</tspan><tspan x="0" y="270" class="st11 st12 st19">	</tspan><tspan x="56.7" y="270" class="st11 st12">fuldkornsprodukter,</tspan><tspan x="146.2" y="270" class="st11 st12 st39">	</tspan><tspan x="182.5" y="270" class="st11 st12">coenzymer</tspan><tspan x="231.7" y="270" class="st11 st12 st14">	</tspan><tspan x="310.8" y="270" class="st11 st12">muskelsvaghed</tspan><tspan x="0" y="280.8" class="st11 st12 st19">	</tspan><tspan x="56.7" y="280.8" class="st11 st12">nødder</tspan><tspan x="88.2" y="280.8" class="st11 st12 st35">	</tspan><tspan x="182.5" y="280.8" class="st11 st12 st22">	</tspan><tspan x="310.8" y="280.8" class="st11 st12">mindsket tilvækst</tspan><tspan x="27.8" y="313.2" class="st11 st12 st40">	</tspan><tspan x="56.7" y="313.2" class="st11 st12">Mejeriprodukter, kød, fisk,</tspan><tspan x="176.9" y="313.2" class="st11 st12 st37">	</tspan><tspan x="182.5" y="313.2" class="st11 st12">Knogle- og tanddannelse,</tspan><tspan x="298.6" y="313.2" class="st11 st12 st31">	</tspan><tspan x="310.8" y="313.2" class="st11 st12">Usædvanligt, ses især</tspan><tspan x="0" y="324" class="st11 st12 st19">	</tspan><tspan x="56.7" y="324" class="st11 st12">fjerkræ, æg, jordnødder,</tspan><tspan x="169.8" y="324" class="st11 st12 st31">	</tspan><tspan x="182.5" y="324" class="st11 st12">energiproduktion</tspan><tspan x="259.5" y="324" class="st11 st12 st41">	</tspan><tspan x="310.8" y="324" class="st11 st12">i forbindelse med visse</tspan><tspan x="0" y="334.8" class="st11 st12 st19">	</tspan><tspan x="56.7" y="334.8" class="st11 st12">fuldkornsprodukter, </tspan><tspan x="149.3" y="334.8" class="st11 st12 st38">	</tspan><tspan x="182.5" y="334.8" class="st11 st12 st22">	</tspan><tspan x="310.8" y="334.8" class="st11 st12">sygdomme</tspan><tspan x="0" y="345.6" class="st11 st12 st19">	</tspan><tspan x="56.7" y="345.6" class="st11 st12">tørrede ærter og bønner</tspan><tspan x="19" y="378" class="st11 st12 st42">	</tspan><tspan x="56.7" y="378" class="st11 st12">Lever, kød, fuldkornsbrød,</tspan><tspan x="176.6" y="378" class="st11 st12 st37">	</tspan><tspan x="182.5" y="378" class="st11 st12">Røde blodlegemer for at</tspan><tspan x="292" y="378" class="st11 st12 st28">	</tspan><tspan x="310.8" y="378" class="st11 st12">Træthed, bleg hud,</tspan><tspan x="0" y="388.8" class="st11 st12 st19">	</tspan><tspan x="56.7" y="388.8" class="st11 st12">beriget fiberbrød, nødder,</tspan><tspan x="173.9" y="388.8" class="st11 st12 st43">	</tspan><tspan x="182.5" y="388.8" class="st11 st12">producere hæmoglobin,</tspan><tspan x="290.2" y="388.8" class="st11 st12 st24">	</tspan><tspan x="310.8" y="388.8" class="st11 st12">infektioner, blodmangel,</tspan><tspan x="0" y="399.6" class="st11 st12 st19">	</tspan><tspan x="56.7" y="399.6" class="st11 st12">ris, pasta, broccoli, spinat</tspan><tspan x="173.7" y="399.6" class="st11 st12 st43">	</tspan><tspan x="182.5" y="399.6" class="st11 st12">transporterer ilt til vævene</tspan><tspan x="304.7" y="399.6" class="st11 st12 st44">	</tspan><tspan x="310.8" y="399.6" class="st11 st12">forandringer i neglene</tspan><tspan x="0" y="410.4" class="st11 st12 st19">	</tspan><tspan x="56.7" y="410.4" class="st11 st12 st23">	</tspan><tspan x="182.5" y="410.4" class="st11 st12">(respirationen)</tspan><tspan x="250.1" y="410.4" class="st11 st12 st45">	</tspan><tspan x="0" y="475.2" class="st11 st12 st19">	</tspan><tspan x="0" y="486" class="st11 st12 st19">	</tspan><tspan x="56.7" y="486" class="st11 st12 st23">	</tspan><tspan x="182.5" y="486" class="st11 st12 st22">	</tspan></text>
	<text transform="matrix(1 0 0 1 433.8164 22.7114)"><tspan x="0" y="0" class="st10 st11 st12">Mineraler</tspan><tspan x="42" y="0" class="st10 st11 st12 st13">	</tspan><tspan x="56.7" y="0" class="st10 st11 st12">Forekomst</tspan><tspan x="104.3" y="0" class="st10 st11 st12 st14">	</tspan><tspan x="182.5" y="0" class="st10 st11 st12">Funktion</tspan><tspan x="221.6" y="0" class="st10 st11 st12 st15">	</tspan><tspan x="310.8" y="0" class="st10 st11 st12">Mangelsymptomer</tspan><tspan x="19.7" y="43.2" class="st11 st12 st39">	</tspan><tspan x="56.7" y="43.2" class="st11 st12">Fisk og skaldyr, kød, æg,</tspan><tspan x="171.1" y="43.2" class="st11 st12 st33">	</tspan><tspan x="182.5" y="43.2" class="st11 st12">Tilvækst, sund hud, </tspan><tspan x="275.2" y="43.2" class="st11 st12 st46">	</tspan><tspan x="310.8" y="43.2" class="st11 st12">Dårlig sårheling, øget</tspan><tspan x="0" y="54" class="st11 st12 st19">	</tspan><tspan x="56.7" y="54" class="st11 st12">nødder, bønner, fjerkræ,</tspan><tspan x="169.3" y="54" class="st11 st12 st47">	</tspan><tspan x="182.5" y="54" class="st11 st12">sårheling, energiproduk-</tspan><tspan x="294.1" y="54" class="st11 st12 st48">	</tspan><tspan x="310.8" y="54" class="st11 st12">modtagelighed for infek-</tspan><tspan x="0" y="64.8" class="st11 st12 st19">	</tspan><tspan x="56.7" y="64.8" class="st11 st12">fuldkornscerials</tspan><tspan x="127.5" y="64.8" class="st11 st12 st49">	</tspan><tspan x="182.5" y="64.8" class="st11 st12">tion</tspan><tspan x="199.7" y="64.8" class="st11 st12 st50">	</tspan><tspan x="310.8" y="64.8" class="st11 st12">tioner, dårlig tilvækst og </tspan><tspan x="0" y="75.6" class="st11 st12 st19">	</tspan><tspan x="56.7" y="75.6" class="st11 st12 st23">	</tspan><tspan x="182.5" y="75.6" class="st11 st12 st22">	</tspan><tspan x="310.8" y="75.6" class="st11 st12">forsinket seksuel udvikling </tspan><tspan x="0" y="86.4" class="st11 st12 st19">	</tspan><tspan x="56.7" y="86.4" class="st11 st12 st23">	</tspan><tspan x="182.5" y="86.4" class="st11 st12 st22">	</tspan><tspan x="310.8" y="86.4" class="st11 st12">hos børn</tspan><tspan x="35.4" y="118.8" class="st11 st12 st51">	</tspan><tspan x="56.7" y="118.8" class="st11 st12">Bladgrøntsager, te, ris,</tspan><tspan x="161.4" y="118.8" class="st11 st12 st24">	</tspan><tspan x="182.5" y="118.8" class="st11 st12">Knoglestruktur, deltager i</tspan><tspan x="298.8" y="118.8" class="st11 st12 st33">	</tspan><tspan x="310.8" y="118.8" class="st11 st12">Ingen kendte</tspan><tspan x="0" y="129.6" class="st11 st12 st19">	</tspan><tspan x="56.7" y="129.6" class="st11 st12">nødder, havregryn, bønner</tspan><tspan x="178.9" y="129.6" class="st11 st12">	</tspan><tspan x="182.5" y="129.6" class="st11 st12">kulhydratstofskiftet</tspan><tspan x="22.6" y="162" class="st11 st12 st20">	</tspan><tspan x="56.7" y="162" class="st11 st12">Fisk, skaldyr, te, kaffe,</tspan><tspan x="160.9" y="162" class="st11 st12 st51">	</tspan><tspan x="182.5" y="162" class="st11 st12">Knogle- og tanddannelse</tspan><tspan x="295.4" y="162" class="st11 st12 st52">	</tspan><tspan x="310.8" y="162" class="st11 st12">Huller i tænderne</tspan><tspan x="0" y="172.8" class="st11 st12 st19">	</tspan><tspan x="56.7" y="172.8" class="st11 st12">sojabønner</tspan><tspan x="32.1" y="205.2" class="st11 st12 st53">	</tspan><tspan x="56.7" y="205.2" class="st11 st12">Lever, skaldyr, svampe,</tspan><tspan x="165.5" y="205.2" class="st11 st12 st48">	</tspan><tspan x="182.5" y="205.2" class="st11 st12">Understøtter jernoptagelse</tspan><tspan x="304.3" y="205.2" class="st11 st12 st44">	</tspan><tspan x="310.8" y="205.2" class="st11 st12">Usædvanligt, blodmangel,</tspan><tspan x="0" y="216" class="st11 st12 st19">	</tspan><tspan x="56.7" y="216" class="st11 st12">ærter, bønner, nødder,</tspan><tspan x="161.2" y="216" class="st11 st12 st51">	</tspan><tspan x="182.5" y="216" class="st11 st12">i hæmoglobinet og </tspan><tspan x="270.3" y="216" class="st11 st12 st54">	</tspan><tspan x="310.8" y="216" class="st11 st12">skøre knogler</tspan><tspan x="0" y="226.8" class="st11 st12 st19">	</tspan><tspan x="56.7" y="226.8" class="st11 st12">fuldkornscereals og        </tspan><tspan x="170" y="226.8" class="st11 st12 st31">	</tspan><tspan x="182.5" y="226.8" class="st11 st12">skelettet </tspan><tspan x="0" y="237.6" class="st11 st12 st19">	</tspan><tspan x="56.7" y="237.6" class="st11 st12">brød,tørret frugt, vindruer</tspan><tspan x="24.3" y="270" class="st11 st12 st38">	</tspan><tspan x="56.7" y="270" class="st11 st12">Kød, fisk, skaldyr, ost, </tspan><tspan x="161.7" y="270" class="st11 st12 st24">	</tspan><tspan x="182.5" y="270" class="st11 st12">Hjælper kroppen til at </tspan><tspan x="285.2" y="270" class="st11 st12 st16">	</tspan><tspan x="310.8" y="270" class="st11 st12">Forhøjet blodsukker</tspan><tspan x="0" y="280.8" class="st11 st12 st19">	</tspan><tspan x="56.7" y="280.8" class="st11 st12">fuldkornsbrød og cereals,</tspan><tspan x="171.6" y="280.8" class="st11 st12 st55">	</tspan><tspan x="182.5" y="280.8" class="st11 st12">anvende kulhydrater</tspan><tspan x="276.2" y="280.8" class="st11 st12 st56">	</tspan><tspan x="0" y="291.6" class="st11 st12 st19">	</tspan><tspan x="56.7" y="291.6" class="st11 st12">frugt, grøntsager</tspan><tspan x="25" y="324" class="st11 st12 st57">	</tspan><tspan x="56.7" y="324" class="st11 st12">Skaldyr, fisk, kød, mælk,</tspan><tspan x="170.6" y="324" class="st11 st12 st33">	</tspan><tspan x="182.5" y="324" class="st11 st12">Beskytter celler og væv</tspan><tspan x="289.7" y="324" class="st11 st12 st51">	</tspan><tspan x="310.8" y="324" class="st11 st12">Ingen kendte</tspan><tspan x="0" y="334.8" class="st11 st12 st19">	</tspan><tspan x="56.7" y="334.8" class="st11 st12">fuldkornscerealier</tspan><tspan x="137.4" y="334.8" class="st11 st12 st58">	</tspan><tspan x="182.5" y="334.8" class="st11 st12">mod skader</tspan><tspan x="15.2" y="367.2" class="st11 st12 st59">	</tspan><tspan x="56.7" y="367.2" class="st11 st12">Saltvandsfisk, skaldyr,</tspan><tspan x="159" y="367.2" class="st11 st12 st17">	</tspan><tspan x="182.5" y="367.2" class="st11 st12">Behøves til skjoldbrusk-</tspan><tspan x="291.3" y="367.2" class="st11 st12 st27">	</tspan><tspan x="310.8" y="367.2" class="st11 st12">Forstørret skjold-</tspan><tspan x="0" y="378" class="st11 st12 st19">	</tspan><tspan x="56.7" y="378" class="st11 st12">jodberiget bordsalt,</tspan><tspan x="145.7" y="378" class="st11 st12 st39">	</tspan><tspan x="182.5" y="378" class="st11 st12">kirtlens hormonproduktion</tspan><tspan x="302.7" y="378" class="st11 st12 st36">	</tspan><tspan x="310.8" y="378" class="st11 st12">bruskkirtel</tspan><tspan x="0" y="388.8" class="st11 st12 st19">	</tspan><tspan x="56.7" y="388.8" class="st11 st12">mejeriprodukter</tspan><tspan x="0" y="410.4" class="st11 st12 st19">	</tspan><tspan x="0" y="421.2" class="st11 st12 st19">	</tspan><tspan x="56.7" y="421.2" class="st11 st12 st23">	</tspan><tspan x="182.5" y="421.2" class="st11 st12 st22">	</tspan></text>
</g>
</svg>
