<?xml version="1.0" encoding="utf-8"?>
<!-- Generator: Adobe Illustrator 19.1.0, SVG Export Plug-In . SVG Version: 6.00 Build 0)  -->
<svg version="1.1" xmlns="http://www.w3.org/2000/svg" xmlns:xlink="http://www.w3.org/1999/xlink" x="0px" y="0px"
	 viewBox="0 0 864.6 487.6" style="enable-background:new 0 0 864.6 487.6;" xml:space="preserve">
<style type="text/css">
	.st0{fill:#88BCE2;}
	.st1{fill:#6AACDA;}
	.st2{fill:#D5EDFA;}
	.st3{fill:#A4CCEA;}
	.st4{fill:#BDDDF2;}
	.st5{fill:#C7B9D8;}
	.st6{fill:#B1A1CA;}
	.st7{fill:#F5F0F7;}
	.st8{fill:#DDD1E6;}
	.st9{fill:#F3EAF3;}
	.st10{fill:#399DD3;}
	.st11{fill:#9780B5;}
	.st12{fill:#FFFFFF;}
	.st13{font-family:'Verdana';}
	.st14{font-size:9px;}
	.st15{letter-spacing:3;}
	.st16{letter-spacing:61;}
	.st17{letter-spacing:71;}
	.st18{letter-spacing:22;}
	.st19{letter-spacing:34;}
	.st20{letter-spacing:23;}
	.st21{letter-spacing:17;}
	.st22{letter-spacing:43;}
	.st23{letter-spacing:6;}
	.st24{letter-spacing:10;}
	.st25{letter-spacing:18;}
	.st26{letter-spacing:12;}
	.st27{letter-spacing:46;}
	.st28{letter-spacing:32;}
	.st29{letter-spacing:8;}
	.st30{letter-spacing:20;}
	.st31{letter-spacing:24;}
	.st32{letter-spacing:109;}
	.st33{letter-spacing:60;}
	.st34{letter-spacing:110;}
	.st35{letter-spacing:31;}
	.st36{letter-spacing:15;}
	.st37{letter-spacing:9;}
	.st38{letter-spacing:1;}
	.st39{letter-spacing:4;}
	.st40{letter-spacing:65;}
	.st41{letter-spacing:14;}
	.st42{letter-spacing:11;}
	.st43{letter-spacing:21;}
	.st44{letter-spacing:7;}
	.st45{letter-spacing:16;}
	.st46{letter-spacing:26;}
	.st47{letter-spacing:27;}
	.st48{letter-spacing:38;}
	.st49{letter-spacing:2;}
	.st50{letter-spacing:19;}
	.st51{letter-spacing:5;}
	.st52{letter-spacing:28;}
	.st53{letter-spacing:53;}
	.st54{letter-spacing:122;}
	.st55{letter-spacing:125;}
	.st56{letter-spacing:57;}
	.st57{letter-spacing:47;}
	.st58{letter-spacing:55;}
	.st59{letter-spacing:37;}
	.st60{letter-spacing:13;}
	.st61{letter-spacing:36;}
	.st62{letter-spacing:93;}
	.st63{letter-spacing:88;}
	.st64{letter-spacing:80;}
</style>
<g id="Lag_2">
	<rect x="47.2" y="0" class="st0" width="108.3" height="488.4"/>
	<rect x="0" y="0" class="st1" width="45" height="488.4"/>
	<rect x="385.3" y="0" class="st2" width="45" height="488.4"/>
	<polygon class="st3" points="269.3,488.4 158.6,488.4 157.8,0 269.3,0 	"/>
	<rect x="271.9" y="0" class="st4" width="110.8" height="488.4"/>
	<rect x="482.2" y="0" class="st5" width="108.3" height="488.4"/>
	<rect x="433.7" y="0" class="st6" width="46.3" height="488.4"/>
	<rect x="820.3" y="0" class="st7" width="45" height="488.4"/>
	<polygon class="st8" points="704.3,488.4 593.6,488.4 592.8,0 704.3,0 	"/>
	<rect x="706.9" y="0" class="st9" width="110.8" height="488.4"/>
</g>
<g id="Lag_3">
	<rect x="0" y="12" class="st10" width="430.5" height="13"/>
	<rect x="433.6" y="12" class="st11" width="437" height="13"/>
</g>
<g id="txt">

<text transform="matrix(1 0 0 1 9.765625e-04 41.7109)" class="yText">
<tspan x="0" y="0" class="st12 st13 st14"> A </tspan>
<tspan x="0" y="10" class="st12 st13 st14"> (retinol)</tspan>
</text>

<text transform="matrix(1 0 0 1 9.765625e-04 111.7109)" class="yText">
<tspan x="0" y="0" class="st12 st13 st14"> B1</tspan>
<tspan x="0" y="10" class="st12 st13 st14"> (thiamin)</tspan>
</text>

<text transform="matrix(1 0 0 1 9.765625e-04 231.7109)" class="yText">
<tspan x="0" y="0" class="st12 st13 st14"> B2</tspan>
<tspan x="0" y="10" class="st12 st13 st14"> (ribofla-</tspan>
<tspan x="0" y="20" class="st12 st13 st14"> vin)</tspan>
</text>
<text transform="matrix(1 0 0 1 9.765625e-04 301.7109)" class="yText">
<tspan x="0" y="0" class="st12 st13 st14"> B3</tspan>
<tspan x="0" y="10" class="st12 st13 st14"> (niacin)</tspan>
</text>
<text transform="matrix(1 0 0 1 9.765625e-04 401.7109)" class="yText">
<tspan x="0" y="0" class="st12 st13 st14"> B6</tspan>
<tspan x="0" y="10" class="st12 st13 st14"> (pyri-</tspan>
<tspan x="0" y="20" class="st12 st13 st14"> doxin)</tspan>
</text>


	<text transform="matrix(1 0 0 1 9.765625e-04 21.7109)"><tspan x="0" y="0" class="st12 st13 st14">Vitaminer</tspan><tspan x="43.7" y="0" class="st12 st13 st14 st15">	</tspan><tspan x="50" y="0" class="st12 st13 st14">Forekomst</tspan><tspan x="97.6" y="0" class="st12 st13 st14 st16">	</tspan><tspan x="162.7" y="0" class="st12 st13 st14">Funktion</tspan><tspan x="201.7" y="0" class="st12 st13 st14 st17">	</tspan><tspan x="276.7" y="0" class="st12 st13 st14">Mangelsymptomer</tspan><tspan x="360.1" y="0" class="st12 st13 st14 st18">	</tspan><tspan x="385.3" y="0" class="st12 st13 st14">Overdosis</tspan><tspan x="12.5" y="20" class="st13 st14 st19">	</tspan><tspan x="50" y="20" class="st13 st14">Lever, nyre, mælk,</tspan><tspan x="136.4" y="20" class="st13 st14 st20">	</tspan><tspan x="162.7" y="20" class="st13 st14">Kræves for at huden</tspan><tspan x="255.7" y="20" class="st13 st14 st21">	</tspan><tspan x="276.7" y="20" class="st13 st14">Ru og tør hud.</tspan><tspan x="342.3" y="20" class="st13 st14 st22">	</tspan><tspan x="389.3" y="20" class="st13 st14">Hårtab,</tspan><tspan x="40.2" y="30" class="st13 st14 st23">	</tspan><tspan x="50" y="30" class="st13 st14">smør, margarine, æg,</tspan><tspan x="149.5" y="30" class="st13 st14 st24">	</tspan><tspan x="162.7" y="30" class="st13 st14">og slimhinderne kan</tspan><tspan x="254.6" y="30" class="st13 st14 st25">	</tspan><tspan x="276.7" y="30" class="st13 st14">Mindsket modstands-</tspan><tspan x="373.7" y="30" class="st13 st14 st26">	</tspan><tspan x="389.3" y="30" class="st13 st14">problem</tspan><tspan x="0" y="40" class="st13 st14 st27">	</tspan><tspan x="50" y="40" class="st13 st14">grønne bladgrøntsager,</tspan><tspan x="156.2" y="40" class="st13 st14 st15">	</tspan><tspan x="162.7" y="40" class="st13 st14">danne nye celler.</tspan><tspan x="240.6" y="40" class="st13 st14 st28">	</tspan><tspan x="276.7" y="40" class="st13 st14">kraft mod infektioner.</tspan><tspan x="375.8" y="40" class="st13 st14 st24">	</tspan><tspan x="389.3" y="40" class="st13 st14">med</tspan><tspan x="0" y="50" class="st13 st14 st27">	</tspan><tspan x="50" y="50" class="st13 st14">abrikoser. Som et for-</tspan><tspan x="150.6" y="50" class="st13 st14 st29">	</tspan><tspan x="162.7" y="50" class="st13 st14">Øjets funktion.</tspan><tspan x="229.9" y="50" class="st13 st14 st22">	</tspan><tspan x="276.7" y="50" class="st13 st14">Forringet mørkesyn</tspan><tspan x="365.3" y="50" class="st13 st14 st30">	</tspan><tspan x="389.3" y="50" class="st13 st14">lever</tspan><tspan x="0" y="60" class="st13 st14 st27">	</tspan><tspan x="50" y="60" class="st13 st14">stadium (karotin) i</tspan><tspan x="134.9" y="60" class="st13 st14 st31">	</tspan><tspan x="162.7" y="60" class="st13 st14">Forbedrer mørkesynet</tspan><tspan x="263.3" y="60" class="st13 st14 st24">	</tspan><tspan x="276.7" y="60" class="st13 st14 st32">	</tspan><tspan x="389.3" y="60" class="st13 st14">m.fl.</tspan><tspan x="410.3" y="60" class="st13 st14 st25">	</tspan><tspan x="0" y="70" class="st12 st13 st14 st27">	</tspan><tspan x="50" y="70" class="st13 st14">gulerødder</tspan><tspan x="98.9" y="70" class="st13 st14 st33">	</tspan><tspan x="162.7" y="70" class="st13 st14 st34">	</tspan><tspan x="276.7" y="70" class="st13 st14 st32">	</tspan><tspan x="15.1" y="90" class="st13 st14 st35">	</tspan><tspan x="50" y="90" class="st13 st14">Svinekød, fuldkorns-</tspan><tspan x="143.9" y="90" class="st13 st14 st36">	</tspan><tspan x="162.7" y="90" class="st13 st14">Nødvendigt for en god</tspan><tspan x="263.8" y="90" class="st13 st14 st37">	</tspan><tspan x="276.7" y="90" class="st13 st14">Forandringer i hjerte-</tspan><tspan x="45.4" y="100" class="st13 st14 st38">	</tspan><tspan x="50" y="100" class="st13 st14">produkter, ærter, æg,</tspan><tspan x="149.8" y="100" class="st13 st14 st37">	</tspan><tspan x="162.7" y="100" class="st13 st14">nervefunktion, påvirker</tspan><tspan x="268.9" y="100" class="st13 st14 st39">	</tspan><tspan x="276.7" y="100" class="st13 st14">musklen (forstørret</tspan><tspan x="0" y="110" class="st13 st14 st27">	</tspan><tspan x="50" y="110" class="st13 st14">kartofler, fisk, mejeri-</tspan><tspan x="149.9" y="110" class="st13 st14 st37">	</tspan><tspan x="162.7" y="110" class="st13 st14">dermed også hjernens</tspan><tspan x="264.1" y="110" class="st13 st14 st37">	</tspan><tspan x="276.7" y="110" class="st13 st14">hjerte) ved forstyrrelse</tspan><tspan x="0" y="120" class="st13 st14 st27">	</tspan><tspan x="50" y="120" class="st13 st14">produkter</tspan><tspan x="94.3" y="120" class="st13 st14 st40">	</tspan><tspan x="162.7" y="120" class="st13 st14">og musklernes funktion</tspan><tspan x="269" y="120" class="st13 st14 st39">	</tspan><tspan x="276.7" y="120" class="st13 st14">i næringstilførslen,</tspan><tspan x="0" y="130" class="st13 st14 st27">	</tspan><tspan x="50" y="130" class="st13 st14 st32">	</tspan><tspan x="162.7" y="130" class="st13 st14 st34">	</tspan><tspan x="276.7" y="130" class="st13 st14">prikken i hænder og </tspan><tspan x="371.3" y="130" class="st13 st14 st41">	</tspan><tspan x="0" y="140" class="st13 st14 st27">	</tspan><tspan x="50" y="140" class="st13 st14 st32">	</tspan><tspan x="162.7" y="140" class="st13 st14 st34">	</tspan><tspan x="276.7" y="140" class="st13 st14">fødder (hvilket i svær</tspan><tspan x="0" y="150" class="st13 st14 st27">	</tspan><tspan x="50" y="150" class="st13 st14 st32">	</tspan><tspan x="162.7" y="150" class="st13 st14 st34">	</tspan><tspan x="276.7" y="150" class="st13 st14">form kaldes beriberi),</tspan><tspan x="375" y="150" class="st13 st14 st42">	</tspan><tspan x="0" y="160" class="st13 st14 st27">	</tspan><tspan x="50" y="160" class="st13 st14 st32">	</tspan><tspan x="162.7" y="160" class="st13 st14 st34">	</tspan><tspan x="276.7" y="160" class="st13 st14">psykisk forvirring, </tspan><tspan x="0" y="170" class="st13 st14 st27">	</tspan><tspan x="50" y="170" class="st13 st14 st32">	</tspan><tspan x="162.7" y="170" class="st13 st14 st34">	</tspan><tspan x="276.7" y="170" class="st13 st14">depression, træthed</tspan><tspan x="0" y="180" class="st13 st14 st27">	</tspan><tspan x="50" y="180" class="st13 st14 st32">	</tspan><tspan x="162.7" y="180" class="st13 st14 st34">	</tspan><tspan x="276.7" y="180" class="st13 st14">forringet muskel-</tspan><tspan x="0" y="190" class="st13 st14 st27">	</tspan><tspan x="50" y="190" class="st13 st14 st32">	</tspan><tspan x="162.7" y="190" class="st13 st14 st34">	</tspan><tspan x="276.7" y="190" class="st13 st14">koordination</tspan><tspan x="15.1" y="210" class="st13 st14 st35">	</tspan><tspan x="50" y="210" class="st13 st14">Lever, nyre, mælk,</tspan><tspan x="136.4" y="210" class="st13 st14 st20">	</tspan><tspan x="162.7" y="210" class="st13 st14">Deltager i kroppens</tspan><tspan x="251.6" y="210" class="st13 st14 st43">	</tspan><tspan x="276.7" y="210" class="st13 st14">Sprukne læber, sår</tspan><tspan x="39.8" y="220" class="st13 st14 st44">	</tspan><tspan x="50" y="220" class="st13 st14">ost, æg, grønne blad-</tspan><tspan x="148.8" y="220" class="st13 st14 st24">	</tspan><tspan x="162.7" y="220" class="st13 st14">omsætning af kulhy-</tspan><tspan x="256.7" y="220" class="st13 st14 st45">	</tspan><tspan x="276.7" y="220" class="st13 st14">på tungen, hududslæt</tspan><tspan x="20.7" y="230" class="st13 st14 st46">	</tspan><tspan x="50" y="230" class="st13 st14">grøntsager, fuldkorns-</tspan><tspan x="151.5" y="230" class="st13 st14 st44">	</tspan><tspan x="162.7" y="230" class="st13 st14">drater og protein. </tspan><tspan x="246.1" y="230" class="st13 st14 st47">	</tspan><tspan x="0" y="240" class="st13 st14 st27">	</tspan><tspan x="50" y="240" class="st13 st14">produkter, nødder,</tspan><tspan x="135.6" y="240" class="st13 st14 st20">	</tspan><tspan x="162.7" y="240" class="st13 st14">Opretholder også en </tspan><tspan x="258.3" y="240" class="st13 st14 st36">	</tspan><tspan x="0" y="250" class="st13 st14 st27">	</tspan><tspan x="50" y="250" class="st13 st14">ærter, bønner</tspan><tspan x="113.3" y="250" class="st13 st14 st27">	</tspan><tspan x="162.7" y="250" class="st13 st14">god tilstand i hud og </tspan><tspan x="259.1" y="250" class="st13 st14 st41">	</tspan><tspan x="0" y="260" class="st13 st14 st27">	</tspan><tspan x="50" y="260" class="st13 st14 st32">	</tspan><tspan x="162.7" y="260" class="st13 st14">slimhinder</tspan><tspan x="15.1" y="280" class="st13 st14 st35">	</tspan><tspan x="50" y="280" class="st13 st14">Fisk, kød, gær, mælk,</tspan><tspan x="149.8" y="280" class="st13 st14 st37">	</tspan><tspan x="162.7" y="280" class="st13 st14">Som vitamin B2</tspan><tspan x="234.9" y="280" class="st13 st14 st48">	</tspan><tspan x="276.7" y="280" class="st13 st14">Muskelsvaghed, for-</tspan><tspan x="37.8" y="290" class="st13 st14 st37">	</tspan><tspan x="50" y="290" class="st13 st14">ost, æg, ærter, bønner,</tspan><tspan x="157.3" y="290" class="st13 st14 st49">	</tspan><tspan x="162.7" y="290" class="st13 st14 st34">	</tspan><tspan x="276.7" y="290" class="st13 st14">døjelsesproblemer,</tspan><tspan x="0" y="300" class="st13 st14"> </tspan><tspan x="3.2" y="300" class="st13 st14 st22">	</tspan><tspan x="50" y="300" class="st13 st14">fuldkornsprodukter,</tspan><tspan x="139.5" y="300" class="st13 st14 st50">	</tspan><tspan x="162.7" y="300" class="st13 st14 st34">	</tspan><tspan x="276.7" y="300" class="st13 st14">irriteret og sprukken</tspan><tspan x="0" y="310" class="st13 st14 st27">	</tspan><tspan x="50" y="310" class="st13 st14">kartofler</tspan><tspan x="88.4" y="310" class="st13 st14 st17">	</tspan><tspan x="162.7" y="310" class="st13 st14 st34">	</tspan><tspan x="276.7" y="310" class="st13 st14">hud, pellagra (hvor de</tspan><tspan x="0" y="320" class="st13 st14 st27">	</tspan><tspan x="50" y="320" class="st13 st14 st32">	</tspan><tspan x="162.7" y="320" class="st13 st14 st34">	</tspan><tspan x="276.7" y="320" class="st13 st14">karakteriske symp-</tspan><tspan x="0" y="330" class="st13 st14 st27">	</tspan><tspan x="50" y="330" class="st13 st14 st32">	</tspan><tspan x="162.7" y="330" class="st13 st14 st34">	</tspan><tspan x="276.7" y="330" class="st13 st14">tomer er hudforandrin-</tspan><tspan x="0" y="340" class="st13 st14 st27">	</tspan><tspan x="50" y="340" class="st13 st14 st32">	</tspan><tspan x="162.7" y="340" class="st13 st14 st34">	</tspan><tspan x="276.7" y="340" class="st13 st14">ger, diare og forringel-</tspan><tspan x="0" y="350" class="st13 st14 st27">	</tspan><tspan x="50" y="350" class="st13 st14 st32">	</tspan><tspan x="162.7" y="350" class="st13 st14 st34">	</tspan><tspan x="276.7" y="350" class="st13 st14">se af psykiske funktio-</tspan><tspan x="0" y="360" class="st13 st14 st27">	</tspan><tspan x="50" y="360" class="st13 st14 st32">	</tspan><tspan x="162.7" y="360" class="st13 st14 st34">	</tspan><tspan x="276.7" y="360" class="st13 st14">ner)</tspan><tspan x="15.1" y="380" class="st13 st14 st35">	</tspan><tspan x="50" y="380" class="st13 st14">Forekommer i de fleste</tspan><tspan x="154.9" y="380" class="st13 st14 st39">	</tspan><tspan x="162.7" y="380" class="st13 st14">Som vitamin B2</tspan><tspan x="234.9" y="380" class="st13 st14 st48">	</tspan><tspan x="276.7" y="380" class="st13 st14">Hudforandringer,</tspan><tspan x="28.6" y="390" class="st13 st14 st25">	</tspan><tspan x="50" y="390" class="st13 st14">fødevarer, især hvis de</tspan><tspan x="154.9" y="390" class="st13 st14 st39">	</tspan><tspan x="162.7" y="390" class="st13 st14">Desuden deltager vita-</tspan><tspan x="266.4" y="390" class="st13 st14 st44">	</tspan><tspan x="276.7" y="390" class="st13 st14">nervøsitet, irritabilitet,</tspan><tspan x="31.8" y="400" class="st13 st14 st36">	</tspan><tspan x="50" y="400" class="st13 st14">er rige på andre B-</tspan><tspan x="136.3" y="400" class="st13 st14 st20">	</tspan><tspan x="162.7" y="400" class="st13 st14">minet i fedtomsætnin-</tspan><tspan x="264" y="400" class="st13 st14 st37">	</tspan><tspan x="276.7" y="400" class="st13 st14">blodmangel, søvnpro-</tspan><tspan x="0" y="410" class="st13 st14 st27">	</tspan><tspan x="50" y="410" class="st13 st14">vitaminer, kylling, fisk,</tspan><tspan x="154" y="410" class="st13 st14 st51">	</tspan><tspan x="162.7" y="410" class="st13 st14">gen og dannelsen af </tspan><tspan x="257.6" y="410" class="st13 st14 st36">	</tspan><tspan x="276.7" y="410" class="st13 st14">blemer</tspan><tspan x="0" y="420" class="st13 st14 st27">	</tspan><tspan x="50" y="420" class="st13 st14">fuldkornsprodukter,</tspan><tspan x="139.5" y="420" class="st13 st14 st50">	</tspan><tspan x="162.7" y="420" class="st13 st14">røde blodlegemer,</tspan><tspan x="245.3" y="420" class="st13 st14 st52">	</tspan><tspan x="0" y="430" class="st13 st14 st27">	</tspan><tspan x="50" y="430" class="st13 st14">bananer, ærter, bønner,</tspan><tspan x="160" y="430" class="st13 st14">	</tspan><tspan x="162.7" y="430" class="st13 st14">regulerer funktionen</tspan><tspan x="0" y="440" class="st13 st14 st27">	</tspan><tspan x="50" y="440" class="st13 st14">lever, gær, æg, mejeri-</tspan><tspan x="156.9" y="440" class="st13 st14 st49">	</tspan><tspan x="162.7" y="440" class="st13 st14">hos nervesystemets</tspan><tspan x="0" y="450" class="st13 st14 st27">	</tspan><tspan x="50" y="450" class="st13 st14">produkter</tspan><tspan x="94.3" y="450" class="st13 st14 st40">	</tspan><tspan x="162.7" y="450" class="st13 st14">celler</tspan><tspan x="0" y="460" class="st12 st13 st14 st53">	</tspan><tspan x="56.7" y="460" class="st12 st13 st14 st54">	</tspan><tspan x="0" y="510" class="st13 st14 st53">	</tspan><tspan x="0" y="520" class="st13 st14 st53">	</tspan><tspan x="56.7" y="520" class="st13 st14 st54">	</tspan><tspan x="182.5" y="520" class="st13 st14 st55">	</tspan></text>


<text transform="matrix(1 0 0 1 435.001 41.7109)" class="yText">
<tspan x="0" y="0" class="st12 st13 st14"> B12 </tspan>
<tspan x="0" y="10" class="st12 st13 st14"> (kobala-</tspan>
<tspan x="0" y="20" class="st12 st13 st14"> min)</tspan>
</text>

<text transform="matrix(1 0 0 1 435.001 101.7109)" class="st12 st13 st14 yText">
Folinsyre
</text>

<text transform="matrix(1 0 0 1 435.001 161.7109)" class="yText">
<tspan x="0" y="0" class="st12 st13 st14"> C</tspan>
<tspan x="0" y="10" class="st12 st13 st14"> (askor-</tspan>
<tspan x="0" y="20" class="st12 st13 st14"> binsyre)</tspan>
</text>

<text transform="matrix(1 0 0 1 435.001 251.7109)" class="yText">
<tspan x="0" y="0" class="st12 st13 st14"> D</tspan>
<tspan x="0" y="10" class="st12 st13 st14"> (calcife-</tspan>
<tspan x="0" y="20" class="st12 st13 st14"> rol)</tspan>
</text>

<text transform="matrix(1 0 0 1 435.001 341.7109)" class="yText">
<tspan x="0" y="00" class="st12 st13 st14"> E</tspan>
<tspan x="0" y="10" class="st12 st13 st14"> (tokofe-</tspan>
<tspan x="0" y="20" class="st12 st13 st14"> rol)</tspan>
</text>

<text transform="matrix(1 0 0 1 438.201 411.7109)" class="yText">
<tspan x="0" y="0" class="st12 st13 st14">K</tspan>
<tspan x="0" y="10" class="st12 st13 st14">(fytome-</tspan>
<tspan x="0" y="20" class="st12 st13 st14">nadion)</tspan>
</text>


	<text transform="matrix(1 0 0 1 435.001 21.7109)"><tspan x="0" y="0" class="st12 st13 st14">Vitaminer</tspan><tspan x="43.7" y="0" class="st12 st13 st14 st15">	</tspan><tspan x="50" y="0" class="st12 st13 st14">Forekomst</tspan><tspan x="97.6" y="0" class="st12 st13 st14 st16">	</tspan><tspan x="162.7" y="0" class="st12 st13 st14">Funktion</tspan><tspan x="201.7" y="0" class="st12 st13 st14 st17">	</tspan><tspan x="276.7" y="0" class="st12 st13 st14">Mangelsymptomer</tspan><tspan x="360.1" y="0" class="st12 st13 st14 st18">	</tspan><tspan x="385.3" y="0" class="st12 st13 st14">Overdosis</tspan><tspan x="23.9" y="20" class="st13 st14 st18">	</tspan><tspan x="50" y="20" class="st13 st14">Lever, oksekød, lam,</tspan><tspan x="144.9" y="20" class="st13 st14 st41">	</tspan><tspan x="162.7" y="20" class="st13 st14">Deltager i dannelsen af</tspan><tspan x="267.7" y="20" class="st13 st14 st51">	</tspan><tspan x="276.7" y="20" class="st13 st14">Anæmi som følge af</tspan><tspan x="41" y="30" class="st13 st14 st51">	</tspan><tspan x="50" y="30" class="st13 st14">svinekød, fjerkræ, fisk,</tspan><tspan x="155" y="30" class="st13 st14 st39">	</tspan><tspan x="162.7" y="30" class="st13 st14">røde og hvide blod-</tspan><tspan x="251.2" y="30" class="st13 st14 st18">	</tspan><tspan x="276.7" y="30" class="st13 st14">mangel på vitamin B12</tspan><tspan x="24.2" y="40" class="st13 st14 st18">	</tspan><tspan x="50" y="40" class="st13 st14">østers, gær</tspan><tspan x="102.1" y="40" class="st13 st14 st56">	</tspan><tspan x="162.7" y="40" class="st13 st14">legemer. Vigtigt for en </tspan><tspan x="268.3" y="40" class="st13 st14 st51">	</tspan><tspan x="276.7" y="40" class="st13 st14">eller folinsyre, sår på</tspan><tspan x="0" y="50" class="st13 st14 st27">	</tspan><tspan x="50" y="50" class="st13 st14 st32">	</tspan><tspan x="162.7" y="50" class="st13 st14">god nervefunktion</tspan><tspan x="245.1" y="50" class="st13 st14 st52">	</tspan><tspan x="276.7" y="50" class="st13 st14">tungen, forandringer i</tspan><tspan x="0" y="60" class="st13 st14 st27">	</tspan><tspan x="50" y="60" class="st13 st14 st32">	</tspan><tspan x="162.7" y="60" class="st13 st14 st34">	</tspan><tspan x="276.7" y="60" class="st13 st14">rygmarven</tspan><tspan x="43.7" y="80" class="st13 st14 st15">	</tspan><tspan x="50" y="80" class="st13 st14">Lever, grønne blad-</tspan><tspan x="139.3" y="80" class="st13 st14 st30">	</tspan><tspan x="162.7" y="80" class="st13 st14">Deltager i dannelsen af</tspan><tspan x="267.7" y="80" class="st13 st14 st51">	</tspan><tspan x="276.7" y="80" class="st13 st14">Anæmi som følge af</tspan><tspan x="0" y="90" class="st13 st14 st27">	</tspan><tspan x="50" y="90" class="st13 st14">grøntsager, svampe,</tspan><tspan x="143.9" y="90" class="st13 st14 st36">	</tspan><tspan x="162.7" y="90" class="st13 st14">røde og hvide blod-</tspan><tspan x="251.2" y="90" class="st13 st14 st18">	</tspan><tspan x="276.7" y="90" class="st13 st14">mangel på vitamin B12</tspan><tspan x="0" y="100" class="st13 st14 st27">	</tspan><tspan x="50" y="100" class="st13 st14">bønner, nødder, ærter,</tspan><tspan x="154.6" y="100" class="st13 st14 st39">	</tspan><tspan x="162.7" y="100" class="st13 st14">legemer og kroppens</tspan><tspan x="258.4" y="100" class="st13 st14 st36">	</tspan><tspan x="276.7" y="100" class="st13 st14">eller folinsyre, nedsat</tspan><tspan x="0" y="110" class="st13 st14 st27">	</tspan><tspan x="50" y="110" class="st13 st14">fuldkornsbrød</tspan><tspan x="112.5" y="110" class="st13 st14 st57">	</tspan><tspan x="162.7" y="110" class="st13 st14">øvrige celler</tspan><tspan x="218.1" y="110" class="st13 st14 st58">	</tspan><tspan x="276.7" y="110" class="st13 st14">modstandskraft mod</tspan><tspan x="0" y="120" class="st13 st14 st27">	</tspan><tspan x="50" y="120" class="st13 st14 st32">	</tspan><tspan x="162.7" y="120" class="st13 st14 st34">	</tspan><tspan x="276.7" y="120" class="st13 st14">infektioner</tspan><tspan x="9.4" y="140" class="st13 st14 st59">	</tspan><tspan x="50" y="140" class="st13 st14">Citrusfrugter, hyben,</tspan><tspan x="145" y="140" class="st13 st14 st41">	</tspan><tspan x="162.7" y="140" class="st13 st14">Deltager i iltudvekslin-</tspan><tspan x="265.2" y="140" class="st13 st14 st29">	</tspan><tspan x="276.7" y="140" class="st13 st14">Blødninger i hud, slim-</tspan><tspan x="36.1" y="150" class="st13 st14 st24">	</tspan><tspan x="50" y="150" class="st13 st14">bladgrøntsager, svam-</tspan><tspan x="152.8" y="150" class="st13 st14 st23">	</tspan><tspan x="162.7" y="150" class="st13 st14">gen i cellerne og der-</tspan><tspan x="259.7" y="150" class="st13 st14 st60">	</tspan><tspan x="276.7" y="150" class="st13 st14">hinder og indre orga-</tspan><tspan x="40.2" y="160" class="st13 st14 st23">	</tspan><tspan x="50" y="160" class="st13 st14">pe, bønner, nødder,</tspan><tspan x="140.4" y="160" class="st13 st14 st50">	</tspan><tspan x="162.7" y="160" class="st13 st14">med i nydannelsen af</tspan><tspan x="259.9" y="160" class="st13 st14 st60">	</tspan><tspan x="276.7" y="160" class="st13 st14">ner (i svær form kaldet</tspan><tspan x="0" y="170" class="st13 st14 st27">	</tspan><tspan x="50" y="170" class="st13 st14">ærter, fuldkornsbrød</tspan><tspan x="144.1" y="170" class="st13 st14 st36">	</tspan><tspan x="162.7" y="170" class="st13 st14">celler. Har betydning i</tspan><tspan x="263" y="170" class="st13 st14 st24">	</tspan><tspan x="276.7" y="170" class="st13 st14">skørbug), dårlig sårhe-</tspan><tspan x="0" y="180" class="st13 st14 st27">	</tspan><tspan x="50" y="180" class="st13 st14 st32">	</tspan><tspan x="162.7" y="180" class="st13 st14">kroppens forsvar mod</tspan><tspan x="262.1" y="180" class="st13 st14 st42">	</tspan><tspan x="276.7" y="180" class="st13 st14">ling, løse tænder, </tspan><tspan x="0" y="190" class="st13 st14 st27">	</tspan><tspan x="50" y="190" class="st13 st14 st32">	</tspan><tspan x="162.7" y="190" class="st13 st14">infektioner. Oprethol-</tspan><tspan x="260.7" y="190" class="st13 st14 st26">	</tspan><tspan x="276.7" y="190" class="st13 st14">smertende led, mod-</tspan><tspan x="0" y="200" class="st13 st14 st27">	</tspan><tspan x="50" y="200" class="st13 st14 st32">	</tspan><tspan x="162.7" y="200" class="st13 st14">der stærke kapillærer</tspan><tspan x="260.6" y="200" class="st13 st14 st26">	</tspan><tspan x="276.7" y="200" class="st13 st14">tagelighed for infektio-</tspan><tspan x="0" y="210" class="st13 st14 st27">	</tspan><tspan x="50" y="210" class="st13 st14 st32">	</tspan><tspan x="162.7" y="210" class="st13 st14 st34">	</tspan><tspan x="276.7" y="210" class="st13 st14">ner</tspan><tspan x="10.1" y="230" class="st12 st13 st14 st61">	</tspan><tspan x="50" y="230" class="st13 st14">Fiskelevertran, mælk,</tspan><tspan x="148.7" y="230" class="st13 st14 st24">	</tspan><tspan x="162.7" y="230" class="st13 st14">Regulerer kroppens</tspan><tspan x="251.2" y="230" class="st13 st14 st18">	</tspan><tspan x="276.7" y="230" class="st13 st14">Knogleskørhed, hvad</tspan><tspan x="372" y="230" class="st13 st14 st41">	</tspan><tspan x="389.3" y="230" class="st13 st14">Problem</tspan><tspan x="39.6" y="240" class="st12 st13 st14 st44">	</tspan><tspan x="50" y="240" class="st13 st14">æggeblomme. Dannes</tspan><tspan x="151.8" y="240" class="st13 st14 st44">	</tspan><tspan x="162.7" y="240" class="st13 st14">calcium-fosfor-balance</tspan><tspan x="265.4" y="240" class="st13 st14 st29">	</tspan><tspan x="276.7" y="240" class="st13 st14">der hos ældre kan give</tspan><tspan x="381" y="240" class="st13 st14 st51">	</tspan><tspan x="389.3" y="240" class="st13 st14">med</tspan><tspan x="19" y="250" class="st12 st13 st14 st47">	</tspan><tspan x="50" y="250" class="st13 st14">i huden ved solbestrå-</tspan><tspan x="151.5" y="250" class="st13 st14 st29">	</tspan><tspan x="162.7" y="250" class="st13 st14">og dermed knoglernes</tspan><tspan x="264.1" y="250" class="st13 st14 st37">	</tspan><tspan x="276.7" y="250" class="st13 st14">tilbøjelighed til knogle-</tspan><tspan x="380.7" y="250" class="st13 st14 st51">	</tspan><tspan x="389.3" y="250" class="st13 st14">nerver</tspan><tspan x="0" y="260" class="st13 st14 st27">	</tspan><tspan x="50" y="260" class="st13 st14">ling</tspan><tspan x="66.2" y="260" class="st13 st14 st62">	</tspan><tspan x="162.7" y="260" class="st13 st14">forkalkning. Bidrager</tspan><tspan x="257.9" y="260" class="st13 st14 st36">	</tspan><tspan x="276.7" y="260" class="st13 st14">brud</tspan><tspan x="297.4" y="260" class="st13 st14 st63">	</tspan><tspan x="389.3" y="260" class="st13 st14">og</tspan><tspan x="0" y="270" class="st13 st14 st27">	</tspan><tspan x="50" y="270" class="st13 st14 st32">	</tspan><tspan x="162.7" y="270" class="st13 st14">til at opretholde nerve-</tspan><tspan x="267.7" y="270" class="st13 st14 st51">	</tspan><tspan x="276.7" y="270" class="st13 st14 st32">	</tspan><tspan x="389.3" y="270" class="st13 st14">fordø-</tspan><tspan x="0" y="280" class="st13 st14 st27">	</tspan><tspan x="50" y="280" class="st13 st14 st32">	</tspan><tspan x="162.7" y="280" class="st13 st14">systemets og muskler-</tspan><tspan x="266.2" y="280" class="st13 st14 st44">	</tspan><tspan x="276.7" y="280" class="st13 st14 st32">	</tspan><tspan x="389.3" y="280" class="st13 st14">jelse</tspan><tspan x="0" y="290" class="st13 st14 st27">	</tspan><tspan x="50" y="290" class="st13 st14 st32">	</tspan><tspan x="162.7" y="290" class="st13 st14">nes funktion samt til </tspan><tspan x="0" y="300" class="st13 st14 st27">	</tspan><tspan x="50" y="300" class="st13 st14 st32">	</tspan><tspan x="162.7" y="300" class="st13 st14">blodets koagulation</tspan><tspan x="8.9" y="320" class="st13 st14 st59">	</tspan><tspan x="50" y="320" class="st13 st14">Vegetabilske olier, æg</tspan><tspan x="150.8" y="320" class="st13 st14 st29">	</tspan><tspan x="162.7" y="320" class="st13 st14">Deltager i dannelsen af</tspan><tspan x="267.7" y="320" class="st13 st14 st51">	</tspan><tspan x="276.7" y="320" class="st13 st14">Usædvanligt hvis man</tspan><tspan x="39.7" y="330" class="st13 st14 st44">	</tspan><tspan x="50" y="330" class="st13 st14">hvedespirer, sojabøn-</tspan><tspan x="149.1" y="330" class="st13 st14 st24">	</tspan><tspan x="162.7" y="330" class="st13 st14">røde blodlegemer og </tspan><tspan x="259.4" y="330" class="st13 st14 st41">	</tspan><tspan x="276.7" y="330" class="st13 st14">ikke har svært ved at</tspan><tspan x="19" y="340" class="st12 st13 st14 st47">	</tspan><tspan x="50" y="340" class="st13 st14">ner, grønne bladgrønt-</tspan><tspan x="153.5" y="340" class="st13 st14 st23">	</tspan><tspan x="162.7" y="340" class="st13 st14">beskytter de røde blod-</tspan><tspan x="269.2" y="340" class="st13 st14 st39">	</tspan><tspan x="276.7" y="340" class="st13 st14">optage fedt. Blodman-</tspan><tspan x="0" y="350" class="st13 st14 st27">	</tspan><tspan x="50" y="350" class="st13 st14">sager, fuldkornspro-</tspan><tspan x="142.3" y="350" class="st13 st14 st21">	</tspan><tspan x="162.7" y="350" class="st13 st14">legemer mod skader </tspan><tspan x="259" y="350" class="st13 st14 st41">	</tspan><tspan x="276.7" y="350" class="st13 st14">gel hos for tidligt fødte</tspan><tspan x="0" y="360" class="st13 st14 st27">	</tspan><tspan x="50" y="360" class="st13 st14">dukter</tspan><tspan x="79.4" y="360" class="st13 st14 st64">	</tspan><tspan x="162.7" y="360" class="st13 st14">og anden påvirkning</tspan><tspan x="255.3" y="360" class="st13 st14 st25">	</tspan><tspan x="276.7" y="360" class="st13 st14">børn eller børn med lav</tspan><tspan x="0" y="370" class="st13 st14 st27">	</tspan><tspan x="50" y="370" class="st13 st14 st32">	</tspan><tspan x="162.7" y="370" class="st13 st14 st34">	</tspan><tspan x="276.7" y="370" class="st13 st14">fødselsvægt</tspan><tspan x="0" y="390" class="st13 st14"> </tspan><tspan x="9.4" y="390" class="st13 st14 st59">	</tspan><tspan x="50" y="390" class="st13 st14">Grønne bladgrøntsager,</tspan><tspan x="157.6" y="390" class="st13 st14 st38">	</tspan><tspan x="162.7" y="390" class="st13 st14">Nødvendig for blodets</tspan><tspan x="262.1" y="390" class="st13 st14 st42">	</tspan><tspan x="276.7" y="390" class="st13 st14">Øget tilbøjelighed til</tspan><tspan x="368.3" y="390" class="st13 st14 st21">	</tspan><tspan x="0" y="400" class="st13 st14"> </tspan><tspan x="43" y="400" class="st13 st14 st15">	</tspan><tspan x="50" y="400" class="st13 st14">blomkål, hvidkål, frugt,</tspan><tspan x="155.8" y="400" class="st13 st14 st15">	</tspan><tspan x="162.7" y="400" class="st13 st14">koaguleringsevne</tspan><tspan x="242" y="400" class="st13 st14 st35">	</tspan><tspan x="276.7" y="400" class="st13 st14">blødninger</tspan><tspan x="0" y="410" class="st13 st14"> </tspan><tspan x="37.6" y="410" class="st13 st14 st37">	</tspan><tspan x="50" y="410" class="st13 st14">kartofler, mælk, ost, </tspan><tspan x="0" y="420" class="st13 st14 st27">	</tspan><tspan x="50" y="420" class="st13 st14">æg. Dannes også af</tspan><tspan x="0" y="430" class="st13 st14 st27">	</tspan><tspan x="50" y="430" class="st13 st14">bakterier i tyktarmen</tspan><tspan x="0" y="480" class="st13 st14 st53">	</tspan><tspan x="0" y="490" class="st13 st14 st53">	</tspan><tspan x="56.7" y="490" class="st13 st14 st54">	</tspan><tspan x="182.5" y="490" class="st13 st14 st55">	</tspan></text>
</g>
</svg>
