<?xml version="1.0" encoding="utf-8"?>
<!-- Generator: Adobe Illustrator 21.1.0, SVG Export Plug-In . SVG Version: 6.00 Build 0)  -->
<svg version="1.1" xmlns="http://www.w3.org/2000/svg" xmlns:xlink="http://www.w3.org/1999/xlink" x="0px" y="0px"
	 viewBox="0 0 566.9 481" style="enable-background:new 0 0 566.9 481;" xml:space="preserve">
<style type="text/css">
	.st0{fill:url(#SVGID_1_);}
	.st1{fill:url(#SVGID_2_);}
	.st2{fill:none;stroke:#08AE92;stroke-width:0.5;stroke-miterlimit:10;}
	.st3{fill:url(#SVGID_3_);stroke:#000000;stroke-width:0.2441;stroke-miterlimit:10;}
	.st4{fill:#E5083B;}
	.st5{fill:none;stroke:#000000;stroke-width:0.2283;stroke-miterlimit:10;}
	.st6{stroke:#757474;stroke-width:0.25;stroke-miterlimit:10;}
	.st7{fill:#FFFFFF;}
	.st8{font-family:'Verdana-Bold';}
	.st9{font-size:9px;}
	.st10{letter-spacing:42;}
	.st11{letter-spacing:18;}
	.st12{letter-spacing:32;}
	.st13{font-family:'Verdana';}
	.st14{letter-spacing:3;}
	.st15{letter-spacing:25;}
	.st16{letter-spacing:82;}
	.st17{letter-spacing:11;}
	.st18{letter-spacing:14;}
	.st19{letter-spacing:7;}
	.st20{letter-spacing:-1;}
</style>
<g id="Lag_2">
	<linearGradient id="SVGID_1_" gradientUnits="userSpaceOnUse" x1="283.4646" y1="258.096" x2="283.4646" y2="0">
		<stop  offset="0" style="stop-color:#5F7ABB"/>
		<stop  offset="1" style="stop-color:#009989"/>
	</linearGradient>
	<rect class="st0" width="566.9" height="258.1"/>
</g>
<g id="Lag_5">
	<g>
		
			<image style="overflow:visible;opacity:0.75;" width="2002" height="998" xlink:href="EBA18E7D11BADFC3.png"  transform="matrix(0.24 0 0 0.24 10.9514 11.1953)">
		</image>
		<g>
			<linearGradient id="SVGID_2_" gradientUnits="userSpaceOnUse" x1="249.6529" y1="244.751" x2="249.6529" y2="14.0635">
				<stop  offset="0" style="stop-color:#6D83C1"/>
				<stop  offset="1" style="stop-color:#009F91"/>
			</linearGradient>
			<rect x="13.8" y="14.1" class="st1" width="471.7" height="230.7"/>
		</g>
	</g>
</g>
<g id="Lag_4">
	
		<image style="overflow:visible;opacity:0.75;" width="1977" height="974" xlink:href="EBA18E7D11BADFC1.png"  transform="matrix(0.24 0 0 0.24 12.8661 12.8661)">
	</image>
	<g>
		<g>
			<line class="st2" x1="14" y1="73.2" x2="484.9" y2="73.2"/>
			<line class="st2" x1="14" y1="104.9" x2="484.9" y2="104.9"/>
			<line class="st2" x1="14" y1="147.9" x2="484.9" y2="147.9"/>
			<line class="st2" x1="14" y1="180.9" x2="484.9" y2="180.9"/>
			<line class="st2" x1="14" y1="223.9" x2="484.9" y2="223.9"/>
			<line class="st2" x1="14" y1="202.9" x2="484.9" y2="202.9"/>
			<line class="st2" x1="14" y1="47.5" x2="484.9" y2="47.5"/>
			<line class="st2" x1="156.8" y1="14" x2="156.8" y2="244.2"/>
		</g>
	</g>
</g>
<g id="Lag_7">
	<linearGradient id="SVGID_3_" gradientUnits="userSpaceOnUse" x1="572.3751" y1="156.4649" x2="523.975" y2="72.6336">
		<stop  offset="0" style="stop-color:#FFFFFF"/>
		<stop  offset="1" style="stop-color:#000000"/>
	</linearGradient>
	<path class="st3" d="M512.7,188.8l69.2-149.6l1.6,0.6l-69.1,150.1C514.4,189.9,513.3,190.6,512.7,188.8z"/>
</g>
<g id="Lag_9">
	<g>
		
			<image style="overflow:visible;opacity:0.75;" width="553" height="433" xlink:href="EBA18E7D11BADFC7.png"  transform="matrix(0.24 0 0 0.24 457.9498 -2.5328)">
		</image>
		<g>
			<path class="st4" d="M584.7,42.5c0.4,0.3-2.3,5.6-3.5,8.2c-1.2,2.6-19.6,42.3-20.1,43.4c-0.5,1.1-1.1,1.8-2.6,1.1
				c-1.5-0.8-20.1-14.9-26.6-17.7s-24.5-7.3-36.7-9.1s-31.7-13.1-34.3-14.8c4-12.5,22.5-53.1,22.5-53.1s23.7,13.4,31.2,15.8
				c12.9,4.1,26.8,3.5,39.4,8.7C563.4,28.8,583.1,41.2,584.7,42.5z"/>
			<path class="st5" d="M584.7,42.5c0.4,0.3-2.3,5.6-3.5,8.2c-1.2,2.6-19.6,42.3-20.1,43.4c-0.5,1.1-1.1,1.8-2.6,1.1
				c-1.5-0.8-20.1-14.9-26.6-17.7s-24.5-7.3-36.7-9.1s-31.7-13.1-34.3-14.8c4-12.5,22.5-53.1,22.5-53.1s23.7,13.4,31.2,15.8
				c12.9,4.1,26.8,3.5,39.4,8.7C563.4,28.8,583.1,41.2,584.7,42.5z"/>
		</g>
	</g>
</g>
<g id="Lag_8">
	<polygon class="st6" points="528.8,158.8 520.6,176.8 528.2,173.3 530.7,167.8 529.9,160.7 	"/>
	<g>
		<path class="st6" d="M511.5,165.2c0,0-2.4,3-3,4.9c-0.5,1.9-0.2,3.8,0.4,5.5c0.7,1.7,4,5.6,4.2,5.8s2.7,1,3.2-1.9
			S511.5,165.2,511.5,165.2z"/>
		<path class="st6" d="M515.4,159.9c0,0-3.2,1.7-3.9,5.3s0.5,7.8,1.2,9.6c0.7,1.8,1.8,3.6,2.7,4.2c0.9,0.5,2.4,0.1,3.4-0.8
			c1-0.9,2.1-2.9,1.7-6.2c-0.4-3.3-3.4-11.8-3.4-11.8L515.4,159.9z"/>
		<path class="st6" d="M523.1,151.8c0,0-1.2,0.3-2.8,1.8c-1.6,1.5-3.5,3.6-4.2,5s-0.2,4.1,0.7,6.4c0.9,2.3,2.3,5.8,3.2,6.4
			c0.8,0.6,2.6,0.4,3.6-0.5c1-0.9,1.8-4.1,1.5-5.8c-0.2-1.8-0.2-3.2-0.6-3.9c1-0.2,2-2.1,2.1-4.1
			C525.5,154.4,523.1,151.8,523.1,151.8z"/>
		<path class="st6" d="M533,144.7c0,0-3.5-0.2-5.9,0.8s-3.5,2.1-4,4.5c-0.5,2.4-0.9,5.8-0.6,6.8c0.3,1,1.6,1.5,3.6,1
			c1.9-0.5,5-6.2,5-6.2l0.1-3.5l0.3-0.4L533,144.7z"/>
	</g>
	<g>
		<path class="st6" d="M512.4,180.9c0,0-0.9,2.6-2.5,5.5c-1.6,2.9-3.5,5.6-3.3,9c0.1,3.4,1.8,4.5,2.2,5.9s0.4,4.2-1.3,11.1
			s-8.2,45.4-8.2,45.4h32.4c0,0-1.5-37.7-1-41.5c0.5-3.9,2-12.2,4-17.7c2-5.5,5.9-13.3,8.4-17.8c2.5-4.6,5.2-7.3,4.9-11.5
			c-0.4-4.2-2.9-10.3-4.2-14.2s-3.6-7.8-5.1-8.7c-1.5-0.8-3.8-1.2-3.8-1.2l-1.1,2.2c0,0-1.8,1.3-2.7,2.7c-0.8,1.5-2.1,3.5-2.2,6.7
			c-0.2,3.2-0.5,9.4-0.7,11.2c-0.2,1.8-0.4,3-0.4,2.7s-1.3,0.8-1.5,2.1c-1.6,0.1-3.9,0.5-5.8,4.1c-1.8,3.6-6.1,13.1-6.1,13.1
			s-1.4,0.6-1.9-1.2c0.8-1.7,4.4-9.4,4.4-9.4l-0.6,0.2C516.3,179.5,515.6,183.4,512.4,180.9z"/>
		<path class="st6" d="M533.8,147.3c0,0,2.1-0.9,3.6-0.4c1.5,0.5,1.8,0.9,1.6,3.2c-0.2,2.2-0.1,8.6-0.5,9.6c0.3,1.1,0.4,2.2,0.1,2.9
			c-0.1,1.8-0.4,5.9-0.2,8.3c0.2,2.4,1.2,6.1,0.5,8.2s-1.3,3.1-1.3,3.1"/>
	</g>
</g>
<g id="txt">
	<text transform="matrix(1 0 0 1 23.3999 32.3087)">
		<tspan x="0" y="0" class="st7 st8 st9">BEGREB</tspan>
		<tspan x="40.3" y="0" class="st7 st8 st9 st10">	</tspan>
		<tspan x="86" y="0" class="st7 st8 st9 st11">	</tspan>
		<tspan x="108" y="0" class="st7 st8 st9 st12">	</tspan>
	</text>
	<text transform="matrix(1 0 0 1 23.3999 32.3087)">
		<tspan x="244" y="0" class="st7 st8 st9">EKSEMPEL</tspan>
	</text>
	<text transform="matrix(1 0 0 1 23.3999 32.3087)">
		<tspan x="0" y="32.4" class="st7 st13 st9">Den rituelle dimension</tspan>
		<tspan x="101.7" y="32.4" class="st7 st13 st9 st14">	</tspan>
		<tspan x="108" y="32.4" class="st7 st13 st9 st12">	</tspan>
	</text>
	<text  transform="matrix(1 0 0 1 23.3999 32.3087)"	>
		<tspan x="0" y="86.4" class="st7 st13 st9">Den sociale dimension</tspan>
		<tspan x="101.1" y="86.4" class="st7 st13 st9 st14">	</tspan>
		<tspan x="108" y="86.4" class="st7 st13 st9 st12">	</tspan>
	</text>
		<text  transform="matrix(1 0 0 1 23.3999 32.3087)"	>
		<tspan x="0" y="129.6"  class="st7 st13 st9">Den følelsesmæssigt</tspan>
		<tspan x="93.2" y="129.6" class="st7 st13 st9 st17">	</tspan>
		<tspan x="108" y="129.6" class="st7 st13 st9 st12">	</tspan>
		<tspan x="0" y="140.4" class="st7 st13 st9 st14">oplevede dimension</tspan>
			<tspan x="89.9" y="140.4" class="st7 st13 st9 st18">	</tspan>
	</text>
		<text  transform="matrix(1 0 0 1 23.3999 32.3087)"	>
			<tspan x="0" y="54" class="st7 st13 st9">Den materielle dimension</tspan>
		<tspan x="115.6" y="54" class="st7 st13 st9 st15">	</tspan>
	</text>
		<text  transform="matrix(1 0 0 1 23.3999 32.3087)"	>
		<tspan x="0" y="162" class="st7 st13 st9">Den etiske dimension</tspan>
		<tspan x="97.3" y="162" class="st7 st13 st9 st19">	</tspan>
		<tspan x="108" y="162" class="st7 st13 st9 st12">	</tspan>
	</text>
		<text  transform="matrix(1 0 0 1 23.3999 32.3087)"	>
	<tspan x="0" y="183.6" class="st7 st13 st9">Den dogmatiske dimension</tspan>
		<tspan x="122.8" y="183.6" class="st7 st13 st9 st11">	</tspan>
	</text>
		<text  transform="matrix(1 0 0 1 23.3999 32.3087)"	>
		<tspan x="0" y="205.2" class="st7 st13 st9">Den mytiske dimension</tspan>
		<tspan x="106" y="205.2" class="st7 st13 st9 st20">	</tspan>
		<tspan x="108" y="205.2" class="st7 st13 st9 st12">	</tspan>
	</text>

		<text transform="matrix(1 0 0 1 183.3999 64.3087)" class="yText">
		<tspan x="0" y="0" class="st7 st13 st9">Gentagne handlinger som fx at sidde det samme sted på stadion</tspan>
	</text>

	<text  transform="matrix(1 0 0 1 183.3999 86.3087)"	class="yText">
			<tspan x="0" y="0" class="st7 st13 st9">Steder, bygninger, billeder og skulpturer.</tspan>
		<tspan x="0" y="10" class="st7 st13 st9 st15">Det kunne fx være Camp Nou (FC Barcelonas hjemmebane)</tspan>
	</text>

	<text  transform="matrix(1 0 0 1 183.3999 118.3087)"	class="yText">
		<tspan x="0" y="0" class="st7 st13 st9">Rollerne og fællesskabet, der kan opstå, når man sammen med</tspan>
		<tspan x="0" y="10" class="st7 st13 st9">andre står i klubtrøjen på stadion og ser sine helte (guder) udøve</tspan>
		<tspan x="0" y="20" class="st7 st13 st9">deres magi</tspan>
	</text>

		<text  transform="matrix(1 0 0 1 183.3999 161.3087)" class="yText"	>
		<tspan x="0" y="0"  class="st7 st13 st9">Den personlige oplevelse som fx at køre stærkt på ski </tspan>
	</text>

	<text  transform="matrix(1 0 0 1 183.3999 194.3087)"	class="yText">
		<tspan x="0" y="0" class="st7 st13 st9">Regler og uskrevne regler som fx fairplay</tspan>
	</text>

<text  transform="matrix(1 0 0 1 183.3999 237.3087)"	class="yText">
		<tspan x="0" y="0" class="st7 st13 st9">De store historier som fx da Bjarne Riis vandt Tour de France i 1996</tspan>
	</text>

<text  transform="matrix(1 0 0 1 183.3999 215.3087)"	class="yText">
	<tspan x="0" y="0" class="st7 st13 st9">Filosofien eller troen bag</tspan>
	</text>

	<text>


	</text>
</g>
</svg>
