<?xml version="1.0" encoding="utf-8"?>
<!-- Generator: Adobe Illustrator 24.0.1, SVG Export Plug-In . SVG Version: 6.00 Build 0)  -->
<svg version="1.1" xmlns="http://www.w3.org/2000/svg" xmlns:xlink="http://www.w3.org/1999/xlink" x="0px" y="0px"
	 viewBox="0 0 269.29 481.04" style="enable-background:new 0 0 269.29 481.04;" xml:space="preserve">
<style type="text/css">
	.st0{fill:url(#SVGID_1_);}
	.st1{fill:url(#SVGID_2_);}
	.st2{fill:none;stroke:#000000;stroke-width:0.5;stroke-miterlimit:10;}
	.st3{font-family:'Verdana';}
	.st4{font-size:9px;}
	.st5{font-size:7px;}
</style>
<g id="Lag_2">
	<linearGradient id="SVGID_1_" gradientUnits="userSpaceOnUse" x1="134.645" y1="221.5784" x2="134.645" y2="0">
		<stop  offset="0.1097" style="stop-color:#FFE5A9"/>
		<stop  offset="1" style="stop-color:#F07F00"/>
	</linearGradient>
	<rect x="0" class="st0" width="269.29" height="221.58"/>
</g>
<g id="Lag_1">
	<linearGradient id="SVGID_2_" gradientUnits="userSpaceOnUse" x1="40.3951" y1="118.1461" x2="229.5" y2="118.1461">
		<stop  offset="0.25" style="stop-color:#E83F2A"/>
		<stop  offset="0.2592" style="stop-color:#E14F2C"/>
		<stop  offset="0.2944" style="stop-color:#CA792F"/>
		<stop  offset="0.33" style="stop-color:#AF9130"/>
		<stop  offset="0.3653" style="stop-color:#949F32"/>
		<stop  offset="0.4003" style="stop-color:#78A633"/>
		<stop  offset="0.435" style="stop-color:#5FAA33"/>
		<stop  offset="0.469" style="stop-color:#4CAB34"/>
		<stop  offset="0.5019" style="stop-color:#45AC34"/>
		<stop  offset="0.5318" style="stop-color:#4BAB33"/>
		<stop  offset="0.5628" style="stop-color:#5DA931"/>
		<stop  offset="0.5943" style="stop-color:#73A52E"/>
		<stop  offset="0.6261" style="stop-color:#8C9D29"/>
		<stop  offset="0.6583" style="stop-color:#A58E24"/>
		<stop  offset="0.6907" style="stop-color:#BD751E"/>
		<stop  offset="0.7227" style="stop-color:#D14E18"/>
		<stop  offset="0.75" style="stop-color:#E30613"/>
	</linearGradient>
	<path class="st1" d="M40.4,182.94c0,0,58.02-129.98,97.53-129.98c38.95,0,91.57,130.37,91.57,130.37"/>
</g>
<g id="Lag_3">
	<g>
		<g>
			<polyline class="st2" points="39.57,42.55 39.57,183.41 252.86,183.41 			"/>
			<g>
				<polygon points="37.08,43.28 39.57,38.97 42.07,43.28 				"/>
			</g>
			<g>
				<polygon points="252.14,185.9 256.45,183.41 252.14,180.92 				"/>
			</g>
		</g>
	</g>
</g>
<g id="txt">
	<text transform="matrix(1 0 0 1 14.9518 31.3736)" class="st3 st4">Præstationsevne</text>
	<text transform="matrix(1 0 0 1 175.6509 201.7027)" class="st3 st4">Spændingsniveau</text>
	<text transform="matrix(1 0 0 1 124.6777 73.7632)" class="yText"><tspan x="0" y="0" class="st3 st5">Tændt</tspan><tspan x="-6.08" y="8.4" class="st3 st5"> men ikke</tspan><tspan x="-7" y="16.8" class="st3 st5">overtændt</tspan></text>
	<text transform="matrix(1 0 0 1 54.9505 169.7632)" class="yText"><tspan x="0" y="0" class="st3 st5">Afslappet</tspan><tspan x="7.67" y="8.4" class="st3 st5">Rolig</tspan></text>
	<text transform="matrix(1 0 0 1 179.556 169.7632)" class="yText"><tspan x="0" y="0" class="st3 st5">Anspændt</tspan><tspan x="5.51" y="8.4" class="st3 st5">Nervøs</tspan></text>
</g>
</svg>
