<?xml version="1.0" encoding="utf-8"?>
<!-- Generator: Adobe Illustrator 21.1.0, SVG Export Plug-In . SVG Version: 6.00 Build 0)  -->
<svg version="1.1" xmlns="http://www.w3.org/2000/svg" xmlns:xlink="http://www.w3.org/1999/xlink" x="0px" y="0px"
	 viewBox="0 0 269.3 481" style="enable-background:new 0 0 269.3 481;" xml:space="preserve">
<style type="text/css">
	.st0{fill:url(#SVGID_1_);}
	.st1{fill:#F28D49;stroke:#E30613;stroke-width:0.5;stroke-miterlimit:10;}
	.st2{fill:#9DD0B2;stroke:#EF7900;stroke-width:0.5;stroke-miterlimit:10;}
	.st3{font-family:'Verdana';}
	.st4{font-size:9px;}
</style>
<g id="Lag_3">
	<linearGradient id="SVGID_1_" gradientUnits="userSpaceOnUse" x1="134.645" y1="81.7822" x2="134.645" y2="-3.637979e-12">
		<stop  offset="0" style="stop-color:#F9B457"/>
		<stop  offset="0.8428" style="stop-color:#E30613"/>
	</linearGradient>
	<rect x="0" y="0" class="st0" width="269.3" height="81.8"/>
</g>
<g id="Lag_2">
	
		<image style="overflow:visible;opacity:0.75;" width="1026" height="262" xlink:href="89FC9E298D126FCA.png"  transform="matrix(0.24 0 0 0.24 11.4992 9.8192)">
	</image>
	<g>
		<g>
			<rect x="13" y="11.2" class="st1" width="45.3" height="37.5"/>
			<rect x="62.2" y="11.2" class="st1" width="45.3" height="37.5"/>
			<rect x="111.4" y="11.2" class="st1" width="45.3" height="37.5"/>
			<rect x="160.6" y="11.2" class="st1" width="45.3" height="37.5"/>
			<rect x="209.7" y="11.2" class="st1" width="45.3" height="37.5"/>
			<rect x="13" y="53.8" class="st2" width="45.3" height="16"/>
			<rect x="62.2" y="53.8" class="st2" width="45.3" height="16"/>
			<rect x="111.4" y="53.8" class="st2" width="45.3" height="16"/>
			<rect x="160.6" y="53.8" class="st2" width="45.3" height="16"/>
			<rect x="209.7" y="53.8" class="st2" width="45.3" height="16"/>
		</g>
	</g>
</g>
<g id="txt">
	<text transform="matrix(1 0 0 1 22 22.25)" class="st3 st4">Hvem</text>
	<text transform="matrix(1 0 0 1 74 22.25)"><tspan x="0" y="0" class="st3 st4">siger </tspan><tspan x="0" y="10.8" class="st3 st4">hvad</tspan></text>
	<text transform="matrix(1 0 0 1 114.5 22.25)"><tspan x="0" y="0" class="st3 st4">i hvilken</tspan><tspan x="0" y="10.8" class="st3 st4">kanal</tspan></text>
	<text transform="matrix(1 0 0 1 171 22.25)"><tspan x="0" y="0" class="st3 st4">til</tspan><tspan x="0" y="10.8" class="st3 st4">hvem</tspan></text>
	<text transform="matrix(1 0 0 1 215.75 22.25)"><tspan x="0" y="0" class="st3 st4">med </tspan><tspan x="0" y="10.8" class="st3 st4">hvilken</tspan><tspan x="0" y="21.6" class="st3 st4">effekt?</tspan></text>
	<text transform="matrix(1 0 0 1 15.75 65)" class="yText st3 st4">Afsender</text>
	<text transform="matrix(1 0 0 1 65.5 65)" class="yText st3 st4">Budskab</text>
	<text transform="matrix(1 0 0 1 120.25 65)" class="yText st3 st4">Medie</text>
	<text transform="matrix(1 0 0 1 162 65)" class="yText st3 st4">Modtager</text>
	<text transform="matrix(1 0 0 1 218.75 65)" class="yText st3 st4">Effekt</text>
</g>
</svg>
