<?xml version="1.0" encoding="utf-8"?>
<!-- Generator: Adobe Illustrator 21.1.0, SVG Export Plug-In . SVG Version: 6.00 Build 0)  -->
<svg version="1.1" xmlns="http://www.w3.org/2000/svg" xmlns:xlink="http://www.w3.org/1999/xlink" x="0px" y="0px"
	 viewBox="0 0 566.9 481" style="enable-background:new 0 0 566.9 481;" xml:space="preserve">
<style type="text/css">
	.st0{fill:url(#SVGID_1_);}
	.st1{fill:url(#SVGID_2_);}
	.st2{fill:none;stroke:#ED6D3D;stroke-width:0.5;stroke-miterlimit:10;}
	.st3{fill:#FFFFFF;}
	.st4{font-family:'Verdana';}
	.st5{font-size:9px;}
</style>
<g id="Lag_1">
	<linearGradient id="SVGID_1_" gradientUnits="userSpaceOnUse" x1="283.465" y1="181.8061" x2="283.465" y2="0">
		<stop  offset="0" style="stop-color:#A1DAF8"/>
		<stop  offset="0.6175" style="stop-color:#00A7A9"/>
		<stop  offset="0.9593" style="stop-color:#33619F"/>
	</linearGradient>
	<rect class="st0" width="566.9" height="181.8"/>
</g>
<g id="Lag_2">
	<g>
		
			<image style="overflow:visible;opacity:0.75;" width="2262" height="651" xlink:href="7F883F32C053EF8E.png"  transform="matrix(0.24 0 0 0.24 14.6016 13.4411)">
		</image>
		<g>
			<linearGradient id="SVGID_2_" gradientUnits="userSpaceOnUse" x1="284.5144" y1="163.9143" x2="284.5144" y2="16.2757">
				<stop  offset="0" style="stop-color:#66ABDE"/>
				<stop  offset="0.6175" style="stop-color:#00A7A9"/>
				<stop  offset="0.9593" style="stop-color:#33619F"/>
			</linearGradient>
			<rect x="17.4" y="16.3" class="st1" width="534.2" height="147.6"/>
		</g>
	</g>
</g>
<g id="Lag_4">
	<g>
		
			<image style="overflow:visible;opacity:0.75;" width="2249" height="24" xlink:href="7F883F32C053EF89.png"  transform="matrix(0.24 0 0 0.24 15.2046 56.8311)">
		</image>
		<g>
			<line class="st2" x1="16.9" y1="58.8" x2="551.5" y2="58.8"/>
		</g>
	</g>
	<g>
		
			<image style="overflow:visible;opacity:0.75;" width="2249" height="24" xlink:href="7F883F32C053EF88.png"  transform="matrix(0.24 0 0 0.24 15.2046 121.2632)">
		</image>
		<g>
			<line class="st2" x1="16.9" y1="123.2" x2="551.5" y2="123.2"/>
		</g>
	</g>
	<g>
		
			<image style="overflow:visible;opacity:0.75;" width="24" height="634" xlink:href="7F883F32C053EF87.png"  transform="matrix(0.24 0 0 0.24 159.8105 14.9288)">
		</image>
		<g>
			<line class="st2" x1="161.8" y1="16.6" x2="161.8" y2="163.5"/>
		</g>
	</g>
	<g>
		
			<image style="overflow:visible;opacity:0.75;" width="24" height="634" xlink:href="7F883F32C053EF96.png"  transform="matrix(0.24 0 0 0.24 283.2673 14.9288)">
		</image>
		<g>
			<line class="st2" x1="285.2" y1="16.6" x2="285.2" y2="163.5"/>
		</g>
	</g>
	<g>
		
			<image style="overflow:visible;opacity:0.75;" width="24" height="634" xlink:href="7F883F32C053EF99.png"  transform="matrix(0.24 0 0 0.24 387.7241 14.9288)">
		</image>
		<g>
			<line class="st2" x1="389.7" y1="16.6" x2="389.7" y2="163.5"/>
		</g>
	</g>
</g>
<g id="txt">
	<text transform="matrix(1 0 0 1 28.4895 30.2838)"><tspan x="0" y="0" class="st3 st4 st5">DIF (Dansk IdrætsForbund)</tspan><tspan x="0" y="43.2" class="st3 st4 st5">DGI (De Danske Gymnastik- </tspan><tspan x="0" y="54" class="st3 st4 st5">og Idrætsforeninger)</tspan><tspan x="0" y="108" class="st3 st4 st5">DFIF (Dansk </tspan><tspan x="0" y="118.8" class="st3 st4 st5">FirmaIdrætsForbund)</tspan></text>
	<text transform="matrix(1 0 0 1 172.5186 30.2837)"><tspan x="0" y="0" class="st3 st4 st5">Skal fremme idrætten i </tspan><tspan x="0" y="10.8" class="st3 st4 st5">Danmark herunder stå </tspan><tspan x="0" y="21.6" class="st3 st4 st5">for udtagelserne til OL</tspan></text>
	<text transform="matrix(1 0 0 1 296.0859 31.1611)" class="yText st3 st4 st5">Idrætten er målet</text>
	<text transform="matrix(1 0 0 1 296.0859 73.6637)" class="yText st3 st4 st5">Idrætten er vejen</text>
	<text transform="matrix(1 0 0 1 296.0859 138.3425)" class="yText st3 st4 st5">Idrætten er vejen</text>
	<text transform="matrix(1 0 0 1 399.7899 30.2838)" class="yText st3 st4 st5">Ca. 1,9 miomedlemmer (2016)</text>
	<text transform="matrix(1 0 0 1 172.5186 72.7861)" class="yText"><tspan x="0" y="0" class="st3 st4 st5">Skal fremme </tspan><tspan x="0" y="10.8" class="st3 st4 st5">folkeoplysningen, </tspan><tspan x="0" y="21.6" class="st3 st4 st5">sundheden og </tspan><tspan x="0" y="32.4" class="st3 st4 st5">fællesskabet gennem </tspan><tspan x="0" y="43.2" class="st3 st4 st5">idrætten</tspan></text>
	<text transform="matrix(1 0 0 1 399.79 72.7861)" class="yText st3 st4 st5">Ca. 1,6 mio medlemmer (2016)</text>
	<text transform="matrix(1 0 0 1 399.79 137.4648)" class="yText st3 st4 st5">Ca. 365.000 medlemmer (2016)</text>
	<text transform="matrix(1 0 0 1 172.5186 137.4653)" class="yText"><tspan x="0" y="0" class="st3 st4 st5">Skal motivere danske </tspan><tspan x="0" y="10.8" class="st3 st4 st5">arbejdspladser til idræt </tspan><tspan x="0" y="21.6" class="st3 st4 st5">og sundhedsfremme</tspan></text>
</g>
</svg>
