<?xml version="1.0" encoding="utf-8"?>
<!-- Generator: Adobe Illustrator 19.1.0, SVG Export Plug-In . SVG Version: 6.00 Build 0)  -->
<svg version="1.1" xmlns="http://www.w3.org/2000/svg" xmlns:xlink="http://www.w3.org/1999/xlink" x="0px" y="0px"
	 viewBox="0 0 269.3 487.6" style="enable-background:new 0 0 269.3 487.6;" xml:space="preserve">
<style type="text/css">
	.st0{fill:url(#SVGID_1_);}
	.st1{fill:#FFE7AB;}
	.st2{fill:none;stroke:#000000;stroke-width:0.5;}
	.st3{fill:#FFE7AB;stroke:#000000;stroke-width:0.5;}
	.st4{fill:#E2001A;stroke:#000000;stroke-width:0.5;}
	.st5{fill:url(#SVGID_2_);stroke:#000000;stroke-width:0.5;}
	.st6{fill:url(#SVGID_3_);stroke:#000000;stroke-width:0.5;}
	.st7{fill:none;stroke:#000000;}
	.st8{fill:#F29400;stroke:#000000;stroke-width:0.5;}
	.st9{fill:#8ACCC6;}
	.st10{fill:#FFFFFF;stroke:#000000;stroke-width:0.5;}
	.st11{fill:#55C3EC;}
	.st12{fill:#A90F1A;stroke:#000000;stroke-width:0.5;}
	.st13{fill:#009036;stroke:#000000;stroke-width:0.5;}
	.st14{fill:url(#SVGID_4_);stroke:#000000;stroke-width:0.5;}
	.st15{fill:#F08807;stroke:#000000;stroke-width:0.5;}
	.st16{fill:#49494B;stroke:#000000;stroke-width:0.5;}
	.st17{fill:#FFFFFF;}
	.st18{font-family:'Verdana';}
	.st19{font-size:9px;}
</style>
<g id="Lag_8">
	<linearGradient id="SVGID_1_" gradientUnits="userSpaceOnUse" x1="134.6455" y1="487.5586" x2="134.6455" y2="-6.044502e-09">
		<stop  offset="5.617980e-03" style="stop-color:#715098"/>
		<stop  offset="3.554128e-02" style="stop-color:#7362A1"/>
		<stop  offset="9.363949e-02" style="stop-color:#7781AF"/>
		<stop  offset="0.1544" style="stop-color:#7C9AB9"/>
		<stop  offset="0.217" style="stop-color:#80ADC0"/>
		<stop  offset="0.2821" style="stop-color:#84BBC3"/>
		<stop  offset="0.3508" style="stop-color:#88C4C5"/>
		<stop  offset="0.4254" style="stop-color:#89CAC6"/>
		<stop  offset="0.5169" style="stop-color:#8ACCC6"/>
		<stop  offset="0.5289" style="stop-color:#86CBCB"/>
		<stop  offset="0.5864" style="stop-color:#73C7DA"/>
		<stop  offset="0.6462" style="stop-color:#63C5E4"/>
		<stop  offset="0.7093" style="stop-color:#59C4EA"/>
		<stop  offset="0.7809" style="stop-color:#55C3EC"/>
		<stop  offset="0.8209" style="stop-color:#38AEDF"/>
		<stop  offset="0.9442" style="stop-color:#0072B7"/>
		<stop  offset="1" style="stop-color:#005CA7"/>
	</linearGradient>
	<rect class="st0" width="269.3" height="487.6"/>
</g>
<g id="Lag_11">
	<g>
		<g>
			<path class="st1" d="M185.8,310.6c-0.3-10.2-8.8-38.5-8.8-38.5c-0.3-2.9-2.3-81.4-2.3-81.4l-97.4,5.5c0,0,1.2,68.9,0,78.2
				c-1.2,9.3-5,17.5-7.9,32.4c-2.9,14.9,2.9,55.7,8.8,100.6l47.6,1.8l2.3-56.9l2-0.3l4.3,57.5l46.1,1.7
				C180.8,406.3,186.1,320.8,185.8,310.6z"/>
		</g>
		<g>
			<path class="st2" d="M185.8,310.6c-0.3-10.2-8.8-38.5-8.8-38.5c-0.3-2.9-2.3-81.4-2.3-81.4l-97.4,5.5c0,0,1.2,68.9,0,78.2
				c-1.2,9.3-5,17.5-7.9,32.4c-2.9,14.9,2.9,55.7,8.8,100.6l47.6,1.8l2.3-56.9l2-0.3l4.3,57.5l46.1,1.7
				C180.8,406.3,186.1,320.8,185.8,310.6z"/>
		</g>
	</g>
	<path class="st3" d="M200.7,221.3c0.3-8.5-0.7-40.8-1.5-54.3c-0.9-16-14-17.2-39.4-22.8c-16.3-3.6-23.2-16.6-23.2-16.6l-30.9-12.2
		c0,0,2.6,18.2-8.7,24.4C86.6,145.8,73.8,151,73.8,151s-18.2,6.1-21.9,10.2c-5,5.5-4.7,11.1-4.1,21.3c0.6,10.2,1.2,38.2,1.5,42.9"/>
	<line class="st2" x1="175.6" y1="222.5" x2="173.8" y2="189"/>
	<line class="st2" x1="77.6" y1="225.1" x2="78" y2="192.5"/>
	<path class="st1" d="M77,149.6c13.3-5.8,13.2-5.8,20.1-9.7c12.6-7,8.5-24.2,8.5-24.2c-4.2,0-13.1-1.5-14.9-10.7
		c-1.8-9.2-3.8-40.1,1.8-45.7c5.6-5.6,12.5-17.7,22.7-18.4c10.1-0.7,36.7-2.4,43.4,1.8c6.6,4.2,8.5,13.5,9.4,14.4
		c-1.9-1.9-1.3,0.9-1.3,0.9l-1.4-1.4v3.6l-1.9-1.9v2.3h-1.9c0,0,6.5,9.8,6.5,10.9c0,1.1-1.3,3-1.3,3.9c0,0.9,5.8,11.1,7,12.5
		c1.9,2.3,6.8,6.6-5.4,7.9h-0.1c0,0,3,8.7,0.7,8.7c-2.2,0-3.3-5.3-3.9-3.5c-0.6,1.8-1.1,3.1-1.5,1.7c-0.4-1.5-9.4-7.7-15.1-7.9
		c-5.7-0.2-12.4,3-14,2.2c-1.7-0.7-1.5-3.3,1.7-4.1c3.1-0.7,24.4-6.1,32.7,0.2l1.7-1.5c0,0-4.6-9.7-7.7-10.9
		c-3.2-1.2-13-2.8-15.9-2.6c-4.8,0.3-6.9,1.7-11.3,6.4c-4.4,4.7-10.2,12.2-10.9,16.3c-0.7,4.2-1.5,8.9-2.2,12
		c-0.7,3.2-3.5,8.2-4.6,10.1c-1.1,1.9-4.7,8.9-4.7,11.3c2.1-3.6,3.9-7.1,4.8-8.3c1-1.2,1.9-3,3.2-3c-0.8,2.5-2.9,9.1-3.5,13.8
		c-0.6,4.7-0.6,10.8-0.4,12.2C117.3,150.2,77,149.6,77,149.6z"/>
	<path class="st2" d="M77.2,149.6c0,0,9.5-3.7,20.5-10.4c11-6.8,8.1-23.5,8.1-23.5c-4.2,0-13.1-1.5-14.9-10.7
		c-1.8-9.2-3.8-40.1,1.8-45.7c5.6-5.6,12.5-17.7,22.7-18.4c10.1-0.7,36.7-2.4,43.4,1.8c6.6,4.2,8.5,13.5,9.4,14.4
		c-1.9-1.9-1.3,0.9-1.3,0.9l-1.4-1.4v3.6l-1.9-1.9v2.3h-1.9c0,0,6.5,9.8,6.5,10.9c0,1.1-1.3,3-1.3,3.9c0,0.9,5.7,11.3,7,12.5
		c1.3,1.3,6.8,6.6-5.3,7.9"/>
	<path class="st4" d="M153.3,249c0.5,0.3,1.1,0.9,1.2,1.7c0.6-0.1,1-0.1,1.5-0.5c0.9,1.4,2.1,0.3,3.2,0c1.2,1.6,1.6,0.5,2.7,1.1
		c1,0.6,0.9,1.5,0.2,2.5c0.2,0.2,0.3,0.5,0.5,0.7c-0.5,0.6-1.1,0.8-1.8,1c0.1,0.5-0.1,1,0.1,1.5c-0.6,0-1.3,0.1-1.9,0.1
		c0,0.2-0.1,0.5-0.1,0.7c-0.5,0-1,0.4-1.5,0.5c-0.3,1.6-4,1.3-4.4,2.7c-0.3-0.2-1.2-0.9-1.6-0.9c-0.8,0-0.8,0.6-1.5,0.8
		c-1.1,0.3-3.3,0.8-4.1,0c-0.4,0.6-5,1.5-5.6,0.8c-1.1,0.8-3.6,1.6-4.9,0.7c-0.6,0.9-4.8,2-5.6,1.2c-0.4,0.5-1,0.7-1.6,0.9
		c-0.2-0.4-0.8-0.6-1-0.9c-0.9,1.4-1.5-0.3-2.7-0.3c-0.6-0.7-1.4-1.7-1-2.6c-1.3-0.6-0.1-1.2-0.2-1.8c-0.1-0.9-0.7-1.5-0.5-2.5
		c0.2-0.1,0.4-0.2,0.7-0.2c-0.3-1.8,0.5-2.6,2.2-3c0.3,0.3,0.3,0,0.4-0.1"/>
	<g>
		<linearGradient id="SVGID_2_" gradientUnits="userSpaceOnUse" x1="134.5253" y1="96.8081" x2="134.5253" y2="92.7764">
			<stop  offset="0.5899" style="stop-color:#FFFFFF"/>
			<stop  offset="0.6097" style="stop-color:#F6FBFE"/>
			<stop  offset="0.7055" style="stop-color:#C9E9F8"/>
			<stop  offset="0.7953" style="stop-color:#A0D9F3"/>
			<stop  offset="0.8766" style="stop-color:#7BCDEF"/>
			<stop  offset="0.9465" style="stop-color:#60C6ED"/>
			<stop  offset="0.997" style="stop-color:#55C3EC"/>
		</linearGradient>
		<path class="st5" d="M134.2,96.8c-1.6-0.7-1.5-3.3,1.6-4"/>
		<linearGradient id="SVGID_3_" gradientUnits="userSpaceOnUse" x1="141.2832" y1="273.4795" x2="141.2832" y2="78.076">
			<stop  offset="0.5899" style="stop-color:#FFFFFF"/>
			<stop  offset="0.6097" style="stop-color:#F6FBFE"/>
			<stop  offset="0.7055" style="stop-color:#C9E9F8"/>
			<stop  offset="0.7953" style="stop-color:#A0D9F3"/>
			<stop  offset="0.8766" style="stop-color:#7BCDEF"/>
			<stop  offset="0.9465" style="stop-color:#60C6ED"/>
			<stop  offset="0.997" style="stop-color:#55C3EC"/>
		</linearGradient>
		<path class="st6" d="M171.7,95.2c-0.6-1.8-1.3-3.8-1.3-3.8s-4.4-10.9-10.1-11.6c-5.7-0.7-15.9-4.2-22.1,1.8
			c-6.3,6.1-11.6,13.5-12.9,16.6c-1.3,3.1-2.2,15.1-4.4,19.2c-2.2,4.1-8.5,14.6-7.7,17c2-3.7,6.1-11.1,7.2-11.3
			c1.1-0.2,1.2-1.7-1.3,6.5c-2.2,7.2-1.7,17-1.7,22.1c0,0,0.3,47.1,13.8,67.3l-0.2-0.3c2,4.4,3.8,10.8,2.9,16.6
			c-0.9,5.8-9.9,5.8-17.8,10.2c-7.9,4.4-5.6,17.9-1.2,24.2c2.9,4.1,14.9,2.6,17.2,2c2.3-0.6,6.5,1.7,6.5,1.7s2.1-2.3,3.1-2.8
			c1.3-0.6,2.9-0.4,2.9-0.4s-0.3-2.5-1.2-3.5c-3.3-3.7-9.3,0.3-19-0.6c-9.6-0.9-7.3-10.8-4.7-14c2.6-3.2,4.4,3.8,22.8,0.6
			c18.4-3.2,19.8-19,19.5-30c-0.3-11.1-20.1-3.5-20.1-3.5c-15.5-17.3-19.2-67-18.5-79.6c0.2-3.3,1.8-12.2,4.4-21.3
			c2-7.1,4.2-14.1,5.7-11.9c1.5,2.2,4.2,7,3.1,1.5c-1.1-5.5,2.4-13.9,10.7-9.6c0,0,2.2,4.1,5.7,4.8c3.5,0.7,10,0.2,6.3,3
			c-3.7,2.8-0.7,4.2,1.3,2c2-2.2,2.6-0.7,2.4,0.4c3.1-1.8,8.5-1.7,3.9,1.7c-4.6,3.3,1.3,4.1-0.2,8.5c-1.5,4.4-6.1,3.5-13.1,2
			c-7-1.5-10.9-3.7-13.5,4.8c-2.6,8.5-3,10.4-4,12.1"/>
	</g>
	<path class="st7" d="M119.1,253.2c2-0.2,2.8,1.5,4.1,2.5"/>
	<path class="st7" d="M117.7,261.2c1.4-1.5,3.6-2,5.4-2.7"/>
	<path class="st8" d="M129.6,89.5c0-0.1,0.5-1.4,0.4-1.8c-0.4-1.2-0.9-0.6-1.5-1.2c-1.3-1.3-1.2-2.2-3.3-1.5c-1.6-1.1-2,0.3-3.3,0.7
		c-1.8,0.6-1.9,0.2-3,1.5c-0.6,0.7-1.9,1.8-2,2.9c0,0.6,0.9,0.6,0.8,1.5c-0.1,1.2-0.6,0.6-1.1,1.4c-0.5,0.6-0.9,0.4-1,1.3
		c-0.1,0.6,1,0.9,0.8,1.6c-0.2,0.8-1,0.5-1.4,1c-0.1,0.1-0.6,0.2-0.7,0.4c-0.2,0.4,0.3,0.9,0.2,1.1c-0.3,0.6-1.1,1.6-1.1,2.7
		c0-0.2,0.7,1.4,0.7,1.4c0.3,0.7,0,1.1,0.6,1.7c1-1,1.8-0.3,2,1c0.5-0.1,0.8-0.7,1.1-0.8c0.1,0,0.2-0.6,0.4-0.7
		c0.2-0.1,0.7,0.1,0.9,0c0.6-0.4,2.1-1,2.5-1.5c0.3-0.4,0.2-1.3,0.2-1.4c0.2-0.3,0.9-0.7,1-0.9c0.7-1.1,0.9-1.4,1-2.9
		c2.2-0.4,1.9-2.2,2.7-3.6c0.1-0.3,0.7-0.2,0.9-0.6c0.2-0.4,0-0.9,0.2-1.3c0.3-0.6,0.8-1.2,1.2-1.9c0.2-0.1,0.4,0,0.5,0"/>
	<polygon class="st9" points="171.6,95.4 167.2,96.1 168.7,100.3 	"/>
	<ellipse class="st10" cx="145.6" cy="112.8" rx="7" ry="3.6"/>
	
		<ellipse transform="matrix(0.8586 -0.5126 0.5126 0.8586 -34.1339 94.5502)" class="st10" cx="154.3" cy="109.2" rx="1.6" ry="3.2"/>
	<polygon class="st9" points="166.2,100.8 161.1,107.8 163.2,109.3 168.1,108.8 169.2,103.2 	"/>
	<path class="st3" d="M168.2,95.8c0,0,3,8.7,0.7,8.7c-2.2,0-3.3-5.3-3.9-3.5c-0.6,1.8-1.1,3.1-1.5,1.7c-0.4-1.5-9.4-7.7-15.1-7.9
		c-5.7-0.2-12.4,3-14,2.2c-1.7-0.7-1.5-3.3,1.7-4.1c3.1-0.7,24.4-6.1,32.7,0.2c0,0,0.5,0.7,1.3,2.5"/>
	<path class="st7" d="M128,90.5c6.3-1.8,7.2,4,9.8,7.7"/>
	<path class="st11" d="M152.2,119.6c0,0-7.8-3-10.2,0.5s-4.3,11.6-4.3,11.6l3.4,1.8l12.9-12L152.2,119.6z"/>
	<path class="st3" d="M123.7,148.8c0,0-0.3-7.5-0.1-9.1c0.4-4,2-13.8,4-20.1c2.2-7,4.6-15.3,6.1-13.1c1.5,2.2,4.2,7,3.1,1.5
		c-1.1-5.5,2.4-13.9,10.7-9.6c0,0,2.2,4.1,5.7,4.8c3.5,0.7,10,0.2,6.3,3c-3.7,2.8-0.7,4.2,1.3,2c2-2.2,2.6-0.7,2.4,0.4
		c3.1-1.8,8.5-1.7,3.9,1.7c-4.6,3.3,1.3,4.1-0.2,8.5c-1.5,4.4-6.1,3.5-13.1,2c-7-1.5-10.9-3.7-13.5,4.8c-1.8,5.8-2.2,11.2-6.5,16.3"
		/>
	<path class="st1" d="M139.2,131.2c0,0-0.9,3.9-2.2,6.3c3.5-3.3,4.1-4.3,4.1-4.3S141.2,133.5,139.2,131.2"/>
	<line class="st2" x1="141.1" y1="133.6" x2="138.9" y2="130.9"/>
	<path class="st12" d="M133.9,227.6c-9.5,7-25,14.6-25,14.6l-6.9,7.8c0,0-2.9,5.8-3.9,7.8c-1,1.9-6.4,7.4-9.5-2.5
		c-3.1-9.9-3.7-29.3,2.1-33.7c4.6-3.5,13.8-4.6,25.1-2.6c11.3,1.9,13.4,0,15.4,0L133.9,227.6z"/>
	<path class="st13" d="M108.8,246.4c0,0-4.5,4.3-6.4,3.3c-1.9-1-5.8-4.9-0.4-6.6c5.4-1.8,6.6-0.8,8-0.8
		C111.3,242.3,113.5,245.6,108.8,246.4z"/>
	<ellipse class="st8" cx="146.1" cy="112.4" rx="5.1" ry="2.6"/>
	<ellipse transform="matrix(0.7696 -0.6386 0.6386 0.7696 -34.5228 123.3292)" class="st8" cx="153.6" cy="109.5" rx="1.6" ry="3"/>
	<line class="st10" x1="168.2" y1="95.8" x2="170" y2="95.4"/>
</g>
<g id="Lag_5">
	<linearGradient id="SVGID_4_" gradientUnits="userSpaceOnUse" x1="93.4931" y1="300.4816" x2="158.8093" y2="300.4816">
		<stop  offset="0" style="stop-color:#633B3D"/>
		<stop  offset="3.570452e-03" style="stop-color:#663E3F"/>
		<stop  offset="5.256856e-02" style="stop-color:#855F5E"/>
		<stop  offset="0.1052" style="stop-color:#9F7D79"/>
		<stop  offset="0.1628" style="stop-color:#B49891"/>
		<stop  offset="0.2265" style="stop-color:#C5ADA4"/>
		<stop  offset="0.2995" style="stop-color:#D0BCB2"/>
		<stop  offset="0.39" style="stop-color:#D7C5BA"/>
		<stop  offset="0.5506" style="stop-color:#D9C8BD"/>
		<stop  offset="0.6771" style="stop-color:#D7C6BA"/>
		<stop  offset="0.7456" style="stop-color:#D0BDB2"/>
		<stop  offset="0.8002" style="stop-color:#C5ADA5"/>
		<stop  offset="0.8475" style="stop-color:#B59992"/>
		<stop  offset="0.8901" style="stop-color:#A07E7A"/>
		<stop  offset="0.9293" style="stop-color:#86605F"/>
		<stop  offset="0.9651" style="stop-color:#673F41"/>
		<stop  offset="0.9944" style="stop-color:#482225"/>
	</linearGradient>
	<path class="st14" d="M114,321.8c1.4-0.6,2.2-4.2,1.8-5.6c-0.7-2.1-4.2-1.7-5.9-1.7c-1.1,0-2.4,0.2-3.6,0c-0.8-0.1-0.9-0.3-1.4-0.9
		c0,0-0.6-0.8-0.6-0.8c-0.3-0.2-0.5-0.2-0.8-0.4c-1.8-1.5-2.5-3-2.3-5.4c1.4-0.3,2,0.4,2.9,1c0.9,0.6,2.3,0.5,3.3,0.4
		c0.3-0.8-0.8-1.3-1.3-1.9c-0.7-0.8-1.6-1.4-2.3-2.2c-1.3-1.3-2.4-2.8-3.7-4.2c-0.5-0.5-1-1-1.5-1.5c-0.8-0.8-0.8-1.5-1.2-2.5
		c-0.2-0.1-0.3-0.2-0.4-0.3c-0.1-0.3,0.1-0.7,0-1c0-0.3-0.2-1-0.2-1.3c-0.3-1.1-0.5-1.8-0.5-2.9c0-1.2,0.2-2.1-0.6-2.9
		c-0.7-0.8-1.2-1.2-1.5-2.2c-0.6-1.6-1.6-4.9,1.1-5.1c1.1-0.1,1.7,0,2.4-0.9c0.5-0.6,0.8-1.4,1.5-2c0.8-0.6,5.9-2.4,5.7-0.4
		c1.1,0.2,2.1,0.8,3.2,1c1.3,0.3,2.4,0.7,3.6,1.1c0.5,0.1,1,0.6,1.3,0.7c0.6,0.1,1.4,0,2,0c0.7,0,1.2-0.1,1.8-0.2
		c0.9-0.2,1.6-0.6,2.4-0.8c1.1-0.3,3,0.2,4.1,0.5c0.3,0.1,0.3,0.4,0.7,0.6c0.2,0.1,0.7,0,1,0c0.8,0.1,1.6,0.3,2.4,0.4
		c1.4,0.2,3.2,0.2,4.7,0.1c1.4-0.2,2-1.4,3.3-1.8c1.3-0.4,2.9,0.4,4.2,0c0.5-0.2,0.9-0.6,1.5-0.8c0.7-0.2,1.5-0.1,2.3-0.3
		c0.6-0.1,1.4-0.5,1.9-0.9c0.7-0.5,1.2-1.3,2.1-1.6c1.7-0.5,2.3,0.5,2.6,1.8c0.2,1.3,0.7,1.5,1.7,2.2c1,0.7,2.2,1.1,3.3,1.5
		c1.2,0.4,2,0.1,3.1,1.2c1,1,1,2.6,0,3.4c-1.1,0.8-1.2,1.1-1.1,2.6c0,0.6,0.1,1,0.3,1.5c0.1,0.2,0.1,0.7,0.1,0.9
		c0,0.2,0.4,0.5,0.4,0.8c0.2,1.1-0.4,2.2-0.2,3.4c0.2,1.2,0.8,2.2,1.2,3.4c0.1,0.4,0.3,1.1,0.2,1.6c-0.1,0.8-0.6,0.7-0.8,1.3
		c-0.4,1.1,0,2.9,0,4c0,1.3-0.1,2.3-0.4,3.4c0,0.2-0.3,0.5-0.4,0.8c-0.1,0.3,0.2,0.8,0,1c-0.2,0.5-0.7,0.7-1.2,0.4
		c-0.3-1-0.5-1.2-1.5-1.6c-1.1-0.4-1.9-0.7-2.6,0.4c-0.5,0.7-0.7,1.6-1.1,2.3c-0.4,0.7-1.2,1.5-1.2,2.3c-1-0.1-1.8,0.6-2.9,0.2
		c-0.4-0.1-0.7-0.4-1-0.8c-0.2-0.3-0.1-0.9-0.4-1.1c-0.6-0.7-1.8-0.9-2.7-0.5c-0.7,0.3-1.3,0.9-2,1.2c-1.8,0.8-3.7,1.3-4.9,2.9
		c-0.3,0.4-1,1-1.2,1.5c-0.1,0.4,0,0.9-0.2,1.3c-0.3,0.5-1.5,0.9-2,1.2c-0.1,0.1-0.2,0.3-0.2,0.5c-0.4,0.2-0.6,0-1,0.1
		c-0.5,0.1-0.8,0.3-1.3,0.3c-1.1,0-1.7-0.7-2.7-0.8c-1-0.1-2.3-0.2-3.3,0c-0.8,0.1-1.4,0.8-2,1.2c-1,0.6-1.7,0.6-2.9,0.6
		c-1,0-1.6-0.4-2.6,0c-0.8,0.3-1.2,0.9-1.6,1.6c-0.5,0.8-1.6,1.6-1.4,2.6"/>
	<path class="st15" d="M134.3,333.3c-0.4,1.3-2.4,8.4-2.4,8.4v8.8l-4.5,0.2c0,0,0-6.6-0.4-9.3c-2.4-4.7-0.8-12.7-0.3-15.9
		c0.3-2.1,1.9-4,2.2-4.7c0.4-0.9,1.3-2.5,1.5-3.5c0-0.1,0.5-0.7,0.5-0.9c0.2-0.4,0.3-0.6,0.6-1c0.9-1,1.7-0.4,2.8-0.8
		c0-1.2,1-2.3,1.7-3c1.3-1.1,2-1.5,3.7-1.4c0.8,0,1,0,1.5,0.5c0.5,0.5,0.4,1.2,1.5,1c0.6-0.1,1.2-1.1,1.9-1.3c0.7-0.2,1.3-0.2,2.1,0
		c2.7,0.8,1.5,4.2,3.6,5.3c0.5,0.3,0.8,0.1,1.3,0.6c0.4,0.4,0.7,0.9,0.8,1.4c0.2,0.7,0,1.4,0.1,2.1c0.1,0.9,0.7,1.3,0.7,2.1
		c-0.7,0.9-0.5,2.2-0.5,3.4c0-0.8,0-1.4,0.4-2.1c0.6-1.1,1.1-1.7,1.1-3.1c0-1.3-0.5-2.5-0.2-3.7c0.2-1.1,1.2-1.5,1.5-2.5
		c0.1-0.5,0.1-1.5,0-2c-0.1-0.7-0.4-0.8-0.6-1.4c-0.4-1.4,0-2.7,0.6-3.8c0.6-1.1,0.9-1.5,0.4-2.6c-0.6-1.2-1.4-1.5-1.4-2.9
		c0-0.6-0.2-1.4,0-1.9c0.2-0.6,0.6-0.7,0.9-1c1.5-2.2-0.8-4.6-0.9-6.9c0-1.3-0.1-2.3,0.7-3.4c0.3-0.4,0.8-0.4,1-1
		c0.2-0.5,0.1-1.3,0-1.9c0-0.8-0.2-1.8,0-2.5c0.1-0.5,0.4-0.9,0.7-1.3c0.2-0.4,0.5-1.1,0.6-1.6c0-0.2,0-0.8,0-1
		c-0.1-0.3-0.4-0.5-0.4-0.7c-0.3-1.4,0.1-2.5,1.1-3.5c0.5-0.5,0.6-0.5,1-1.2c0.2-0.4,0.7-1.1,0.5-1.5c-0.2,0.8-1.5,1.9-2,2.7
		c-0.6,0.8-1,1.8-2.1,1.5c-0.9-0.2-1.9-1.3-2.9-0.2c-0.4,0.5-0.3,1.1-0.8,1.7c-0.2,0.3-0.6,0.5-0.9,0.7l-0.8,0.2
		c0.1-0.7-0.3-1-1-0.7c0,0.3-0.6,1.6-0.8,1.9c-1.4,2.1-4,2.2-6.3,2c-1.3-0.1-2.2-0.2-3.3,0.4c-1.3,0.7-2,1.1-3.5,1.1
		c-0.7,0-1.6,0.1-2.3,0c-0.6-0.1-1-0.5-1.6-0.2c-0.3,0.1-0.6,0.7-1,0.9c-0.5,0.2-0.9,0.2-1.5,0.3c-1,0-1.4-0.3-2.2-0.5
		c-0.6-0.2-1,0.1-1.7-0.3c-0.5-0.3-0.4-0.7-1-1c-0.4-0.1-1.3,0-1.8,0.1c-0.6,0.1-1.1,0.6-1.6,0.8c-0.5,0.2-1.2,0.1-1.9,0.1
		c-0.7,0-1.3-0.1-2-0.2c-0.3,0-0.8,0-1.1,0c-0.5-0.1-0.3-0.4-0.7-0.5c-0.3-0.1-0.6-0.1-1-0.3c-0.2-0.1-0.2-0.5-0.4-0.6
		c-0.5-0.3-1.3-0.1-1.9-0.1c-0.6-0.1-1.1-0.1-1.7-0.2c-0.5-0.1-1-0.5-1.3-0.6c-0.7-0.3-1.3-0.3-1.8-1c-0.4-0.5-0.4-1-0.8-1.4
		c-1-0.9-1.9-0.1-3.1-0.2c-2.6-0.2-4.2-2.2-5.2-4.2c-0.5,1-1,0.9-0.6,2c0.3,0.9,0.7,1.5,0.9,2.6c0.3,1.7,0.1,3.1-1,4.4
		c0.5,0.2,0.4,0.7,0.8,1.1c0.4,0.4,0.7,0.4,1,0.7c0.6,0.7,0.9,1.7,1,2.6c0.1,1.1,0,2.2-0.4,3.2c-0.4,1-1.2,1.5-1.3,2.6
		c0,1-0.1,2.4,0.2,3.3c0.3,0.9,1.1,1.1,1.6,1.9c0.5,0.8,1.2,1.7,1.4,2.6c0.2,0.9-0.4,2.2,0,3c0.3,0.6,1.3,1,1.8,1.5
		c0.8,0.7,1.1,1,1.2,2.1c0.1,1.1-0.2,2.3,0,3.3c0.3,1.1,0.9,1.1,1.7,1.7c1.4,1,2.4,2.1,2.6,3.9c0.1,1.5-0.3,2.4,1.5,1.7
		c0.9-0.4,1.4-0.4,2.4-0.2c0.8,0.2,1.7,0.4,2.1,1.1c0.2,0.3,0.1,0.8,0.4,1.2c0.2,0.3,1,0.3,1.3,0.6c0.6,0.7,0.4,1.7,0.3,2.6
		c-0.1,0.7-0.1,1.8-0.4,2.4c-0.1-0.1-0.1-0.1-0.2-0.2c0,0.7,0.7,1.6,0.8,2.4c0.2,0.9,0.2,1.9,0.6,2.7c0.8,1.8,2.5,2.1,2.3,4.2
		c-1.3,0.5-1.6-1.1-2.1-1.8c-0.5-0.7-1.5-1.5-1.8-2.4c-0.3-0.6-0.2-1.4-0.3-2c0-0.1-0.5-1.1-0.7-1.2c-1-0.7-1.8,1.5-2.2,2
		c-0.4,0.5-0.3,0.7-1,1c-0.7,0.3-1,0.5-1.7,0.7c-1.2,0.4-3,0.3-4.1-0.2c-0.4-0.2-0.8-0.5-1.2-0.7c-0.7-0.4-0.9-0.8-1.3-1.4
		c-0.6-0.9-1.1-1.8-1.7-2.6c-0.8-1-1.4-1.2-2.4-1.8c-0.9-0.5-2.1-1.6-2.6-2.6c-0.4-0.9-0.6-2.7-0.2-3.6c0.2-0.6,0.8-0.8,0.9-1.6
		c0.1-0.9-0.2-1.3-0.7-1.8c-2-2.1-3-3.4-3.3-6.2c-0.2-1.3,0.3-2.7,0-3.9c-0.3-1.1-1.3-1.7-1.8-2.7c-0.8-1.5-1-3.5-0.8-5.3
		c0.2-1.3,2-3.1,0.5-4.3c-0.5-0.4-1.3-0.5-1.6-1.1c-0.4-0.6-0.7-1.5-1-2.2c-0.5-1.3-1.2-3.8-0.3-5c0.4-0.5,1.3-0.8,1.7-1.3
		c0.5-0.7,0.5-1.8,0-2.4c0,0-0.7-0.5-0.8-0.5c-0.2-0.2-0.6-0.6-0.8-0.9c-0.5-0.6-0.9-1.1-1.2-1.8c-0.7-1.3-1.5-2.4-1.4-4
		c0.1-2.1,2.6-1.7,4-1.8c-1-1.8-2.6-3.4-3.6-5.3c-0.5-0.9-0.7-1.7-0.6-2.9c0.1-1.1,0.9-1.5,1-2.5c0.6,0,0.8-0.6,1.3-0.8
		c0.6-0.3,1.3-0.3,2-0.3c0.7,0,1.3-0.1,2,0c1,0.1,0.6,0.1,1.3,0.6c0.7,0.6,1,1.5,1.8,2c0.5,0.3,2.7,0.8,2.9-0.3
		c1.4-0.5,2.8,3,4.2,3.5c0.8,0.3,1.9,0.2,2.7,0.5c0.9,0.3,2,1.2,2.8,1.8c0.7,0.5,1.1,1.3,1.7,2c0.7,0.8,1.5,0.9,2.6,0.9
		c1.1,0,2.3,0,3.4,0c1.6,0,1.4,0.6,2.4,1.6c1.6,1.6,3.8,0.1,5.4-0.2c1.1-0.2,1.9-0.3,2.9,0.2c0.9,0.4,1.4,1.1,2.4,1.1
		c1.3,0.1,1.8-0.7,2.8-1.4c0.7-0.6,1.9-0.9,3-0.8c1,0.1,1.5,0.6,2.6,0.7c2.6,0.3,2.9-1.8,5-2.7c1.1-0.5,2,0.8,3.1,1
		c1.5,0.2,2.2-0.3,3.3-1c1-0.7,1.6-1.9,2.9-2.3c1.1-0.4,2.1,0.1,3.1-0.7c0.9-0.8,1.5-2,2.7-2.5c1-0.4,2.6,0.2,3.4-0.3
		c1.1-0.8,1-2.2,2.6-2.6c0.7-0.2,3.3-0.2,3.9,0.3c0.4,0.3,0.3,0.9,0.5,1.3c0.3,0.4,1.2,0.7,1.5,1c0.8,0.7,1.6,1.3,1.6,2.5
		c0,1.3-1.1,1.9-2,2.6c-2.4,1.8-0.3,4.9-1.8,7.2c-1.4,2.1-1.4,3.8-1.4,6.5c0,1.1,0.2,2.3-0.4,3.1c-0.7,1-1.3,1.1-0.9,2.5
		c0.5,1.9,0.8,3.9,0.8,5.9c0,0.6,0.1,1.3-0.2,1.8c-0.3,0.7-0.7,0.6-0.8,1.4c-0.2,1.4,0.6,1.8,1,3c0.3,0.8,0.6,3,0.2,3.9
		c-0.2,0.3-0.8,0.7-1,1c-0.3,0.4-0.7,0.9-0.7,1.4c-0.1,1,0.7,2.2,0.8,3.3c0.1,1.1,0.2,2.5-0.4,3.4c-0.2,0.3-0.8,0.6-1,1
		c-0.3,0.6-0.3,1.5-0.2,2.1c0.1,1.1,0.8,2,1,2.9c0.2,1.1-0.4,2.2-1.1,3c-0.8,0.9-2.2,0.8-2.4,2c-0.2,1.1,0.7,2.2,0.8,3.3
		c0.1,1.3,0.2,2.3-0.8,3.2c-0.4,0.4-0.9,0.7-1.5,0.8c-0.7,0.1-1.4-0.4-2-0.3c-1.2,0.3-0.6,2.6-2.7,2c-0.4-0.1-0.7-0.4-1-0.7
		c-0.7-0.6-0.8-0.5-1.6-0.9c-2.2-1-1.4-2.9-1.6-5c-0.1-1.1-0.5-1.3-1.2-2.1c-0.9-1.1-0.3-1.9-0.6-3.2c-0.3-1.9-2.5-2.1-3.3-3.6
		c-0.5-1-1-0.9-1.9-1.3c-0.4-0.2-0.5-0.6-1-0.8c-0.4-0.2-1.4,0-1.8,0.1c-0.1,0.6,0.1,1.1-0.3,1.7c-0.5,0.7-0.9,0.5-1.5,0.8
		c-1.1,0.6-1,2.3-1,3.6c0,0.7-0.4,4.7-0.7,6.5L134.3,333.3z"/>
	<ellipse class="st16" cx="129.8" cy="350.9" rx="2.7" ry="0.7"/>
	<path class="st2" d="M127.1,344.7c0,0-4.5-1.8,2.3-1.9c6.8-0.2,5.1,1.7,2.3,1.9"/>
	<g>
		<g>
			<path class="st2" d="M103.5,282.6c0,0-2.8,15.5,4.8,17.2s11-2.2,10.2-6s-8-4-9.5-6s-1.8-3,0.5-3.5"/>
			<path class="st2" d="M126,312.6c0,0-4.5,5-8.2,0.2s-4.5-9.5,0-12s9.2,0.2,13.5,0.2s11-5,4.8-10.2"/>
			<path class="st2" d="M143.8,279.1c0,0-4.5,4.2-2.2,6.8s9,3.8,7.5,8.5s-3,6.5-3.5,7.2"/>
			<path class="st2" d="M131.8,316.8c0,0-7.5-0.8-5-6.8c2.5-6,8.5-2,12.2-1.8s3.5-1,5.5-1.8"/>
			<path class="st2" d="M128.3,281.8c0,0,4,7.8-1,10.8c-5,3-4.2,2.8-8.7,2"/>
			<path class="st2" d="M129.5,306.8c0,0-0.5-5.5,7.8-6.2s14.5,3.8,15.2,5.8s-2,6-5.2,7"/>
			<path class="st2" d="M108,308.6c0,0,7.8-0.2,6.5-8.5"/>
			<path class="st2" d="M138.5,294.1c0,0,0.5-2,5-1.8"/>
			<path class="st2" d="M127.3,292.6c0,0,1.8,1,1.5,4.5"/>
			<path class="st2" d="M109.8,288.6c0,0-3.2,5.2-1.8,7"/>
			<path class="st2" d="M126.3,281.6c0,0-4.7,12.8-14.2-1"/>
			<path class="st2" d="M99.8,274.8c0,0,0.8,13,11.2,5.8"/>
			<path class="st2" d="M155,290.8c0,0,0.8,1.5-3.5,1.8"/>
			<path class="st2" d="M139.8,293.1c0,0,1.8,1.8,3.2,4.8"/>
			<path class="st2" d="M125.8,304.8c0,0-2.5-1-4.7,2.5"/>
			<path class="st2" d="M135.8,313.6c0,0-2,0.5-4.8-2.5"/>
			<path class="st2" d="M157,296.3c0,0-1,3.8-5.2,4.2"/>
			<path class="st2" d="M120.3,315.6c0,0-1.2,1.5-0.5,3.8"/>
		</g>
		<g>
			<path class="st2" d="M98,274.3c0,0-1.4-3.7-3.8-5.3"/>
			<path class="st2" d="M100,268.8c1.5,1.8,4,5.2,6.2,5.8"/>
			<path class="st2" d="M119.5,277.6c2.8,0,7.2,0,8.7,1.8"/>
			<path class="st2" d="M143.3,277.3c2.5-1.5,6-4.5,7.2-4.5s5.2-0.8,7-3"/>
			<path class="st2" d="M161,282.3c0,0-3.8,4.2-2.5,6.5s2.8,4.5,1.8,7"/>
			<path class="st2" d="M158,319.3c-1,2.2-2,4.8-1.5,6.5s-1.8,5-3.5,3"/>
			<path class="st2" d="M92.5,275.6c0.8,1.8,2,6.2,1,9s0,6.8,1,8.5"/>
			<path class="st2" d="M98.5,307.6c0,2.2,0.2,7.5,2.5,9.2s6.2,6.2,6.5,7.2"/>
			<path class="st2" d="M149.1,319.2c-0.9-1.3-1.3-4.3-2.6-4.5c-1.3-0.2-7.5-1.9-7.5-1.9"/>
			<path class="st2" d="M133.4,321.4c-0.4,2.4-1.7,3.2-1.9,5.2c-0.2,1.9-1.3,5.6-1.1,8c0.2,2.4-1.1,6.2-1.1,8.8"/>
		</g>
	</g>
</g>
<g id="streger">
	<line class="st2" x1="206.7" y1="106" x2="171.7" y2="106"/>
	<line class="st2" x1="206.7" y1="178" x2="131.2" y2="178"/>
	<line class="st2" x1="206.7" y1="234.4" x2="165.1" y2="234.4"/>
	<line class="st2" x1="206.7" y1="253.8" x2="165.9" y2="253.8"/>
	<line class="st2" x1="48.1" y1="94.7" x2="111.5" y2="94.7"/>
	<line class="st2" x1="32.5" y1="227.8" x2="83.1" y2="227.8"/>
	<line class="st2" x1="60.6" y1="246.4" x2="101.8" y2="246.4"/>
	<line class="st2" x1="48.9" y1="328.9" x2="97.9" y2="328.9"/>
	<line class="st2" x1="58.1" y1="345.6" x2="116.4" y2="334.8"/>
	<line class="st2" x1="43.4" y1="306.7" x2="89.7" y2="306.8"/>
	<line class="st2" x1="134" y1="345.6" x2="206.7" y2="345.6"/>
	<line class="st2" x1="206.7" y1="293.5" x2="145.9" y2="290.5"/>
	<line class="st2" x1="206.7" y1="295.4" x2="151.1" y2="298.2"/>
	<line class="st2" x1="69.9" y1="265.9" x2="109.2" y2="260"/>
	<line class="st2" x1="94.8" y1="412.1" x2="124.3" y2="346"/>
	<line class="st2" x1="206.7" y1="123.5" x2="158.9" y2="111.7"/>
	<line class="st2" x1="206.7" y1="124.9" x2="154.5" y2="115.6"/>
</g>
<g id="txt">
	<text transform="matrix(1 0 0 1 207.291 238.2524)" class="st17 st18 st19">Mavesæk</text>
	<text transform="matrix(1 0 0 1 207.291 181.4614)" class="st17 st18 st19">Spiserør</text>
	<text transform="matrix(1 0 0 1 207.291 111.4433)" class="st17 st18 st19">Mund</text>
	<text transform="matrix(1 0 0 1 207.291 127.3916)" class="st17 st18 st19">Spytkirtler</text>
	<text transform="matrix(1 0 0 1 207.291 258.0898)" class="st17 st18 st19">Bugspytkirtel</text>
	<text transform="matrix(1 0 0 1 207.291 297.7666)" class="st17 st18 st19">Tyndtarm</text>
	<text transform="matrix(1 0 0 1 207.291 350.2793)" class="st17 st18 st19">Endetarm</text>
	<text transform="matrix(1 0 0 1 2.3154 98.9971)" class="st17 st18 st19">Spytkirtel</text>
	<text transform="matrix(1 0 0 1 2.3154 249.5332)" class="st17 st18 st19">Galdeblære</text>
	<text transform="matrix(1 0 0 1 2.3154 309.8262)" class="st17 st18 st19">Tyktarm</text>
	<text transform="matrix(1 0 0 1 2.3154 331.2197)" class="st17 st18 st19">Blindtarm</text>
	<text transform="matrix(1 0 0 1 2.3154 349.1143)"><tspan x="0" y="0" class="st17 st18 st19">Blindtarms-</tspan><tspan x="0" y="10.8" class="st17 st18 st19">vedhæng</tspan></text>
	<text transform="matrix(1 0 0 1 2.3154 269.3711)" class="st17 st18 st19">Tolvfingertarm</text>
	<text transform="matrix(1 0 0 1 60.4351 421.705)" class="st17 st18 st19">Lukkemuskel</text>
	<text transform="matrix(1 0 0 1 3.3154 230.4731)" class="st17 st18 st19">Lever</text>
</g>
</svg>
