<?xml version="1.0" encoding="UTF-8" standalone="no"?>
<!-- Generator: Adobe Illustrator 16.0.0, SVG Export Plug-In . SVG Version: 6.00 Build 0)  -->

<svg
   xmlns:dc="http://purl.org/dc/elements/1.1/"
   xmlns:cc="http://creativecommons.org/ns#"
   xmlns:rdf="http://www.w3.org/1999/02/22-rdf-syntax-ns#"
   xmlns:svg="http://www.w3.org/2000/svg"
   xmlns="http://www.w3.org/2000/svg"
   xmlns:sodipodi="http://sodipodi.sourceforge.net/DTD/sodipodi-0.dtd"
   xmlns:inkscape="http://www.inkscape.org/namespaces/inkscape"
   version="1.1"
   id="Ikoner"
   x="0px"
   y="0px"
   width="82"
   height="81.999001"
   viewBox="0 0 82.000002 81.999002"
   enable-background="new 0 0 425.197 283.465"
   xml:space="preserve"
   inkscape:version="0.91 r13725"
   sodipodi:docname="yubio_em_icon.svg"><metadata
     id="metadata3422"><rdf:RDF><cc:Work
         rdf:about=""><dc:format>image/svg+xml</dc:format><dc:type
           rdf:resource="http://purl.org/dc/dcmitype/StillImage" /><dc:title></dc:title></cc:Work></rdf:RDF></metadata><defs
     id="defs3420" /><sodipodi:namedview
     pagecolor="#ffffff"
     bordercolor="#666666"
     borderopacity="1"
     objecttolerance="10"
     gridtolerance="10"
     guidetolerance="10"
     inkscape:pageopacity="0"
     inkscape:pageshadow="2"
     inkscape:window-width="823"
     inkscape:window-height="600"
     id="namedview3418"
     showgrid="false"
     fit-margin-top="0"
     fit-margin-left="0"
     fit-margin-right="0"
     fit-margin-bottom="0"
     inkscape:zoom="2.1131357"
     inkscape:cx="20.554774"
     inkscape:cy="39.269501"
     inkscape:window-x="298"
     inkscape:window-y="31"
     inkscape:window-maximized="0"
     inkscape:current-layer="Ikoner" /><rect
     x="0"
     y="0"
     width="82"
     height="81.999001"
     id="rect3408"
     style="fill:#1c213a" /><g
     id="g3410"
     transform="translate(-40.610001,-99.002998)"><path
       d="m 100.598,121.4 c 2.256,2.299 3.996,4.981 5.219,8.044 1.223,3.063 1.835,6.365 1.835,9.905 0,7.239 -2.516,13.381 -7.544,18.424 -5.03,5.043 -11.162,7.562 -18.398,7.562 -5.49,0 -10.39,-1.437 -14.7,-4.311 l -5.522,6.517 -3.59,-2.942 5.526,-6.52 c -5.235,-5.08 -7.854,-11.251 -7.854,-18.516 0,-4.751 1.153,-9.161 3.461,-13.23 2.307,-4.068 5.455,-7.245 9.444,-9.532 3.987,-2.286 8.367,-3.431 13.14,-3.431 5.757,0 10.964,1.638 15.62,4.911 l 4.855,-5.818 3.588,2.94 -5.08,5.997 z m -33.95,32.874 27.215,-32.104 c -3.761,-2.645 -7.883,-3.967 -12.364,-3.967 -3.653,0 -7.114,0.953 -10.385,2.857 -3.272,1.904 -5.825,4.47 -7.663,7.697 -1.839,3.228 -2.756,6.835 -2.756,10.823 0,5.716 1.984,10.613 5.953,14.694 z m 30.65,-28.978 -27.048,31.906 c 3.413,2.202 7.17,3.303 11.27,3.303 3.832,0 7.378,-0.931 10.638,-2.79 3.26,-1.859 5.802,-4.402 7.629,-7.63 1.826,-3.227 2.739,-6.812 2.739,-10.756 -10e-4,-5.468 -1.744,-10.145 -5.228,-14.033 z"
       id="path3412"
       inkscape:connector-curvature="0"
       style="fill:#ea661e;stroke:#ea661e;stroke-width:1.671" /></g><g
     id="g3414"
     transform="translate(-40.610001,-99.002998)"><path
       d="m 91.071,146.728 5.42,0 6.969,19.675 7.069,-19.675 5.414,0 -9.979,27.695 -5.083,0 -9.81,-27.695 z"
       id="path3416"
       inkscape:connector-curvature="0"
       style="fill:#ffffff" /></g></svg>