<?xml version="1.0" encoding="utf-8"?>
<!-- Generator: Adobe Illustrator 19.1.0, SVG Export Plug-In . SVG Version: 6.00 Build 0)  -->
<svg version="1.1" id="Lag_1" xmlns="http://www.w3.org/2000/svg" xmlns:xlink="http://www.w3.org/1999/xlink" x="0px" y="0px"
	 viewBox="0 0 141.7 141.7" style="enable-background:new 0 0 141.7 141.7;" xml:space="preserve">
<style type="text/css">
	.st0{fill:#26213B;}
	.st1{fill:#407770;}
	.st2{fill:#6AC1B7;}
	.st3{fill:#3C436C;}
	.st4{fill:#5E6BAF;}
	.st5{fill:#FFFFFF;}
	.st6{font-family:'Verdana';}
	.st7{font-size:14px;}
	.st8{letter-spacing:1;}
</style>
<g>
	<rect x="30.4" y="31.3" class="st0" width="82" height="82"/>
	<g>
		<g>
			<path class="st1" d="M100.2,89.8c6.1-8-9.1-25.5-9.1-25.5l9.5-7.8C100.6,56.5,112.6,70.3,100.2,89.8"/>
			<path class="st2" d="M50.1,97.9c12.3,14.3,29,9.7,40.2,2.1c11.2-7.6,13.9-19.2,13.9-19.2c-25.4,28.6-43.4,8.3-43.4,8.3l5.8-4.8
				l-18.9-0.3l-3.4,18.6L50.1,97.9z"/>
		</g>
		<g>
			<path class="st3" d="M42.6,53.5c-6.1,8,9.1,25.5,9.1,25.5l-9.5,7.8C42.2,86.8,30.1,73,42.6,53.5"/>
			<path class="st4" d="M92.7,45.4c-12.3-14.3-29-9.7-40.2-2.1c-11.2,7.6-13.9,19.2-13.9,19.2C64,33.8,82,54.1,82,54.1l-5.8,4.8
				L95,59.2l3.4-18.6L92.7,45.4z"/>
		</g>
	</g>
	<text transform="matrix(1 -8.400000e-04 8.400000e-04 1 36.5028 77.5927)" class="st5 st6 st7 st8">MEMORY</text>
</g>
</svg>
