<?xml version="1.0" encoding="UTF-8" standalone="no"?>
<!-- Generator: Adobe Illustrator 12.0.0, SVG Export Plug-In . SVG Version: 6.00 Build 51448)  -->

<svg
   xmlns:dc="http://purl.org/dc/elements/1.1/"
   xmlns:cc="http://creativecommons.org/ns#"
   xmlns:rdf="http://www.w3.org/1999/02/22-rdf-syntax-ns#"
   xmlns:svg="http://www.w3.org/2000/svg"
   xmlns="http://www.w3.org/2000/svg"
   xmlns:sodipodi="http://sodipodi.sourceforge.net/DTD/sodipodi-0.dtd"
   xmlns:inkscape="http://www.inkscape.org/namespaces/inkscape"
   version="1.1"
   width="82"
   height="82"
   opacity="0.2"
   viewBox="0 0 81.999999 81.999998"
   overflow="visible"
   enable-background="new 0 0 1558.379 1918.541"
   xml:space="preserve"
   id="svg2"
   inkscape:version="0.48.2 r9819"
   sodipodi:docname="yubio_docs_logo.svg"
   style="overflow:visible"><metadata
   id="metadata636"><rdf:RDF><cc:Work
       rdf:about=""><dc:format>image/svg+xml</dc:format><dc:type
         rdf:resource="http://purl.org/dc/dcmitype/StillImage" /><dc:title></dc:title></cc:Work></rdf:RDF></metadata><defs
   id="defs634"><inkscape:perspective
   sodipodi:type="inkscape:persp3d"
   inkscape:vp_x="0 : 959.27051 : 1"
   inkscape:vp_y="0 : 1000 : 0"
   inkscape:vp_z="1558.379 : 959.27051 : 1"
   inkscape:persp3d-origin="779.18951 : 639.51367 : 1"
   id="perspective3855" />
	
	
	
	
	
	
	
	
	
	
	
	
	
	
	
	
	
	
</defs><sodipodi:namedview
   pagecolor="#ffffff"
   bordercolor="#666666"
   borderopacity="1"
   objecttolerance="10"
   gridtolerance="10"
   guidetolerance="10"
   inkscape:pageopacity="0"
   inkscape:pageshadow="2"
   inkscape:window-width="1440"
   inkscape:window-height="798"
   id="namedview632"
   showgrid="false"
   inkscape:zoom="0.59714111"
   inkscape:cx="268.40482"
   inkscape:cy="-146.6588"
   inkscape:window-x="0"
   inkscape:window-y="0"
   inkscape:window-maximized="0"
   inkscape:current-layer="svg2"
   fit-margin-top="0"
   fit-margin-left="0"
   fit-margin-right="0"
   fit-margin-bottom="0" />








<g
   id="g4091"
   transform="translate(-798.85309,169.0569)"><rect
     style="fill:#374492"
     id="rect3861"
     height="82"
     width="82"
     y="-169.0569"
     x="798.85309" /><g
     id="g3925"
     transform="translate(-303.11093,-170.81389)">
		<ellipse
   style="fill:#ffffff"
   sodipodi:ry="17.291"
   sodipodi:rx="25.745001"
   sodipodi:cy="42.084999"
   sodipodi:cx="1143.104"
   d="m 1168.849,42.084999 c 0,9.549556 -11.5264,17.291 -25.745,17.291 -14.2186,0 -25.745,-7.741444 -25.745,-17.291 0,-9.549556 11.5264,-17.291 25.745,-17.291 14.2186,0 25.745,7.741444 25.745,17.291 z"
   id="ellipse3927"
   ry="17.291"
   rx="25.745001"
   cy="42.084999"
   cx="1143.104" />
		<path
   inkscape:connector-curvature="0"
   id="path3929"
   d="m 1117.835,36.386 c 0,0 1.33,1.331 0.949,8.741 3.42,6.458 9.88,12.54 24.89,12.54 0,0 16.72,1.14 23.94,-13.3 -0.38,-3.99 -0.402,-4.177 0.19,-7.41 -6.604,-10e-4 -49.969,-0.571 -49.969,-0.571 z" />
		<ellipse
   style="fill:#ffffff"
   sodipodi:ry="17.291"
   sodipodi:rx="25.745001"
   sodipodi:cy="33.535"
   sodipodi:cx="1143.104"
   d="m 1168.849,33.535 c 0,9.549556 -11.5264,17.291 -25.745,17.291 -14.2186,0 -25.745,-7.741444 -25.745,-17.291 0,-9.549556 11.5264,-17.291001 25.745,-17.291001 14.2186,0 25.745,7.741445 25.745,17.291001 z"
   id="ellipse3931"
   ry="17.291"
   rx="25.745001"
   cy="33.535"
   cx="1143.104" />
		<path
   inkscape:connector-curvature="0"
   id="path3933"
   d="m 1167.234,39.426 c 0,0 -1.711,37.239 -45.789,25.839 0.188,4.75 0.379,7.222 0.379,7.222 0,0 43.131,12.539 45.98,-27.552 0,-5.7 0.189,-7.029 0.189,-7.029 l -0.759,1.52 z" />
		<ellipse
   sodipodi:ry="3.7609999"
   sodipodi:rx="6.7919998"
   sodipodi:cy="21.388"
   sodipodi:cx="1143.9659"
   d="m 1150.7579,21.388 c 0,2.077143 -3.0408,3.761 -6.792,3.761 -3.7511,0 -6.792,-1.683857 -6.792,-3.761 0,-2.077142 3.0409,-3.760999 6.792,-3.760999 3.7512,0 6.792,1.683857 6.792,3.760999 z"
   id="ellipse3935"
   ry="3.7609999"
   rx="6.7919998"
   cy="21.388"
   cx="1143.9659" />
		<ellipse
   sodipodi:ry="3.7620001"
   sodipodi:rx="6.7919998"
   sodipodi:cy="44.971001"
   sodipodi:cx="1143.9659"
   d="m 1150.7579,44.971001 c 0,2.077695 -3.0408,3.762 -6.792,3.762 -3.7511,0 -6.792,-1.684305 -6.792,-3.762 0,-2.077696 3.0409,-3.762 6.792,-3.762 3.7512,0 6.792,1.684304 6.792,3.762 z"
   id="ellipse3937"
   ry="3.7620001"
   rx="6.7919998"
   cy="44.971001"
   cx="1143.9659" />
		<ellipse
   sodipodi:ry="3.763"
   sodipodi:rx="6.7919998"
   sodipodi:cy="32.431"
   sodipodi:cx="1160.442"
   d="m 1167.234,32.431 c 0,2.078247 -3.0409,3.763 -6.792,3.763 -3.7511,0 -6.792,-1.684753 -6.792,-3.763 0,-2.078248 3.0409,-3.763 6.792,-3.763 3.7511,0 6.792,1.684752 6.792,3.763 z"
   id="ellipse3939"
   ry="3.763"
   rx="6.7919998"
   cy="32.431"
   cx="1160.442" />
		<ellipse
   sodipodi:ry="3.763"
   sodipodi:rx="6.7930002"
   sodipodi:cy="32.431"
   sodipodi:cx="1126.337"
   d="m 1133.13,32.431 c 0,2.078247 -3.0413,3.763 -6.793,3.763 -3.7516,0 -6.793,-1.684753 -6.793,-3.763 0,-2.078248 3.0414,-3.763 6.793,-3.763 3.7517,0 6.793,1.684752 6.793,3.763 z"
   id="ellipse3941"
   ry="3.763"
   rx="6.7930002"
   cy="32.431"
   cx="1126.337" />
		<ellipse
   sodipodi:ry="1.14"
   sodipodi:rx="2.1849999"
   sodipodi:cy="32.777"
   sodipodi:cx="1144.149"
   d="m 1146.334,32.777 c 0,0.629605 -0.9782,1.14 -2.185,1.14 -1.2067,0 -2.185,-0.510395 -2.185,-1.14 0,-0.629604 0.9783,-1.14 2.185,-1.14 1.2068,0 2.185,0.510396 2.185,1.14 z"
   id="ellipse3943"
   ry="1.14"
   rx="2.1849999"
   cy="32.777"
   cx="1144.149" />
		<g
   id="g3945">
			<polygon
   style="fill:#9c9d9f;stroke:#000000;stroke-width:0.84280002"
   id="polygon3947"
   points="1127.643,67.854 1122.727,66.785 1122.94,71.916 1127.786,72.984 " />
			<polygon
   style="fill:#9c9d9f;stroke:#000000;stroke-width:0.84280002"
   id="polygon3949"
   points="1134.127,68.566 1128.854,67.996 1128.997,73.056 1134.198,73.696 " />
			<polygon
   style="fill:#9c9d9f;stroke:#000000;stroke-width:0.84280002"
   id="polygon3951"
   points="1140.254,68.496 1135.338,68.638 1135.338,73.626 1140.184,73.482 " />
			<polygon
   style="fill:#9c9d9f;stroke:#000000;stroke-width:0.84280002"
   id="polygon3953"
   points="1145.812,67.498 1141.323,68.281 1141.323,73.34 1145.741,72.699 " />
			<path
   style="fill:#9c9d9f;stroke:#000000;stroke-width:0.84280002"
   inkscape:connector-curvature="0"
   id="path3955"
   d="m 1146.952,67.071 -0.071,5.343 4.204,-1.354 c 0.071,-1.069 -0.071,-5.486 -0.071,-5.486 l -4.062,1.497 z" />
			<path
   style="fill:#9c9d9f;stroke:#000000;stroke-width:0.84280002"
   inkscape:connector-curvature="0"
   id="path3957"
   d="m 1152.225,65.146 v 5.202 c 0,0 3.634,-1.853 3.99,-2.281 -0.072,-1.567 -0.072,-5.486 -0.072,-5.486 0,0 -3.42,2.28 -3.918,2.565 z" />
			<path
   style="fill:#9c9d9f;stroke:#000000;stroke-width:0.84280002"
   inkscape:connector-curvature="0"
   id="path3959"
   d="m 1157.07,61.94 v 5.485 c 0,0 2.991,-2.85 3.206,-3.206 -0.143,-0.356 0.071,-5.415 0.071,-5.415 l -3.277,3.136 z" />
			<polygon
   style="fill:#9c9d9f;stroke:#000000;stroke-width:0.84280002"
   id="polygon3961"
   points="1162.342,61.441 1160.917,63.365 1160.917,58.022 1162.413,55.884 " />
			<polygon
   style="fill:#9c9d9f;stroke:#000000;stroke-width:0.84280002"
   id="polygon3963"
   points="1164.194,52.25 1163.055,54.887 1162.983,60.515 1164.194,57.807 " />
			<polygon
   style="fill:#9c9d9f;stroke:#000000;stroke-width:0.84280002"
   id="polygon3965"
   points="1165.549,49.257 1164.693,51.324 1164.622,56.882 1165.549,54.815 " />
			<polygon
   style="fill:#9c9d9f;stroke:#000000;stroke-width:0.84280002"
   id="polygon3967"
   points="1166.403,51.537 1165.977,52.962 1165.905,48.617 1166.332,47.333 " />
			<polygon
   style="fill:#9c9d9f;stroke:#000000;stroke-width:0.84280002"
   id="polygon3969"
   points="1166.902,50.112 1166.688,46.763 1167.115,45.41 1167.188,48.545 " />
		</g>
	</g></g></svg>