<?xml version="1.0" encoding="utf-8"?>
<!-- Generator: Adobe Illustrator 21.1.0, SVG Export Plug-In . SVG Version: 6.00 Build 0)  -->
<svg version="1.1" xmlns="http://www.w3.org/2000/svg" xmlns:xlink="http://www.w3.org/1999/xlink" x="0px" y="0px"
	 viewBox="0 0 566.9 481" style="enable-background:new 0 0 566.9 481;" xml:space="preserve">
<style type="text/css">
	.st0{fill:url(#SVGID_1_);}
	.st1{fill:url(#SVGID_2_);}
	.st2{fill:url(#SVGID_3_);}
	.st3{fill:url(#SVGID_4_);}
	.st4{fill:url(#SVGID_5_);}
	.st5{fill:url(#SVGID_6_);}
	.st6{fill:url(#SVGID_7_);}
	.st7{opacity:0.63;}
	.st8{fill:#FFFFFF;}
	.st9{opacity:0.87;}
	.st10{fill:#DC9863;}
	.st11{fill:url(#SVGID_8_);}
	.st12{fill:url(#SVGID_9_);}
	.st13{fill:url(#SVGID_10_);}
	.st14{fill:url(#SVGID_11_);}
	.st15{fill:url(#SVGID_12_);}
	.st16{fill:url(#SVGID_13_);}
	.st17{fill:url(#SVGID_14_);}
	.st18{fill:url(#SVGID_15_);}
	.st19{fill:#FCD6C0;}
	.st20{fill:#DE9E6C;}
	.st21{fill:#E6B48C;}
	.st22{fill:#DB935C;}
	.st23{fill:#88401D;}
	.st24{fill:#E1A778;}
	.st25{fill:none;stroke:#FFFFFF;stroke-width:0.8354;stroke-miterlimit:10;}
	.st26{opacity:0.85;}
	.st27{opacity:0.74;fill:#FFFFFF;}
	.st28{fill:url(#SVGID_16_);stroke:#FFFFFF;stroke-width:0.2088;stroke-miterlimit:10;}
	.st29{fill:url(#SVGID_17_);stroke:#FFFFFF;stroke-width:0.2088;stroke-miterlimit:10;}
	.st30{fill:none;stroke:#FFFFFF;stroke-width:1.5;stroke-miterlimit:10;}
	.st31{fill:none;stroke:#000000;stroke-width:0.5;stroke-miterlimit:10;}
	.st32{font-family:'Verdana';}
	.st33{font-size:11px;}
	.st34{font-size:9px;}
</style>
<g id="Lag_7">
	<linearGradient id="SVGID_1_" gradientUnits="userSpaceOnUse" x1="283.465" y1="298.8945" x2="283.465" y2="-9.094947e-13">
		<stop  offset="0" style="stop-color:#32BCED"/>
		<stop  offset="1" style="stop-color:#24388D"/>
	</linearGradient>
	<rect class="st0" width="566.9" height="298.9"/>
</g>
<g id="knæ">
	<g>
		
			<image style="overflow:visible;opacity:0.75;" width="451" height="902" xlink:href="7CC38328CC9FF1AC.png"  transform="matrix(0.24 0 0 0.24 159.9168 64.3968)">
		</image>
		<g>
			<g>
				<g>
					<linearGradient id="SVGID_2_" gradientUnits="userSpaceOnUse" x1="163.8752" y1="232.6646" x2="185.9476" y2="232.6646">
						<stop  offset="0" style="stop-color:#E2AA7D"/>
						<stop  offset="0.1711" style="stop-color:#E3AB7F"/>
						<stop  offset="0.2628" style="stop-color:#E5B086"/>
						<stop  offset="0.3355" style="stop-color:#E8B993"/>
						<stop  offset="0.3631" style="stop-color:#E9BE9A"/>
						<stop  offset="0.4124" style="stop-color:#E6B48C"/>
						<stop  offset="0.5706" style="stop-color:#DC9762"/>
						<stop  offset="0.6508" style="stop-color:#D88C53"/>
						<stop  offset="1" style="stop-color:#F29587"/>
					</linearGradient>
					<path class="st1" d="M174.9,192.8c-2.1-0.6-4.6-0.8-7.3,1.3s-4.2,5.4-3.6,9.2c0.6,3.8,3.1,7.5,3.8,10.2c0.6,2.7,1.3,14,1.3,23
						s0.8,14.4,0.8,22.6c0,8.1,0,14,0,14h9.4c0,0,0.4-28.8,1.5-37.4c1-8.6,0.2-15.9,1.9-19.4s2.5-4,3.3-4.6
						c-3.8-4.2-6.9-9.2-7.9-12.3C177,196.1,174.9,192.8,174.9,192.8z"/>
				</g>
				<g>
					<linearGradient id="SVGID_3_" gradientUnits="userSpaceOnUse" x1="173.5838" y1="225.675" x2="255.7014" y2="225.675">
						<stop  offset="0" style="stop-color:#E2AA7D"/>
						<stop  offset="0.1913" style="stop-color:#E3AB7F"/>
						<stop  offset="0.294" style="stop-color:#E5B086"/>
						<stop  offset="0.3756" style="stop-color:#E8B993"/>
						<stop  offset="0.4456" style="stop-color:#ECC5A5"/>
						<stop  offset="0.5084" style="stop-color:#F1D5BD"/>
						<stop  offset="0.5123" style="stop-color:#F1D6BF"/>
						<stop  offset="0.6115" style="stop-color:#E6B48C"/>
						<stop  offset="0.7059" style="stop-color:#DC9762"/>
						<stop  offset="0.7534" style="stop-color:#D88C53"/>
						<stop  offset="1" style="stop-color:#F29587"/>
					</linearGradient>
					<path class="st2" d="M229.8,180.3l19,0.2c0,0,6.9,4.2,6.9,5.8c0,1.7-0.8,8.8-3.3,16.5c-2.5,7.7-11.7,16.5-13.8,20.5
						c-2.1,4-2.3,15.2-4.4,23.6c-2.1,8.4-1.3,25.9-1.3,25.9h-33c0,0-0.2-4-0.8-11.9c-0.6-7.9-1.3-11.3-3.6-18
						c-2.3-6.7-3.8-13.6-6.5-20.7s-4-7.5-6.9-11.7c-2.9-4.2-6.3-11.3-7.5-14.4c-1.3-3.1-1.5-6.9-0.4-10.7c1-3.8,6.5-5.2,9.4-6.9
						L229.8,180.3z"/>
				</g>
				<g>
					<linearGradient id="SVGID_4_" gradientUnits="userSpaceOnUse" x1="215.2487" y1="188.7386" x2="215.2487" y2="168.974">
						<stop  offset="0.1588" style="stop-color:#F1D6BF"/>
						<stop  offset="0.4034" style="stop-color:#E6B48C"/>
						<stop  offset="0.6361" style="stop-color:#DC9762"/>
						<stop  offset="0.7534" style="stop-color:#D88C53"/>
						<stop  offset="1" style="stop-color:#F29587"/>
					</linearGradient>
					<path class="st3" d="M215.6,188c-4.2,0.2-11.7-0.4-15,0.2c-3.3,0.6-10.4,0.8-12.5,0c-2.1-0.8-6.7-2.1-9.2-2.9
						c-2.5-0.8-4.4-2.7-1.9-4.6c2.5-1.9,11.9-2.7,16.1-4.4c4.2-1.7,13.4-6.7,13.4-6.7s3.3,1.3,7.3,1.3s8.8-1.9,8.8-1.9l21.1,6.1
						l11.1,9.8c0,0,0.6,1.3-2.3,1.5c-2.9,0.2-10.7,0.4-14,1c-3.3,0.6-11.5,1.7-14.8,0.8C220.2,187.4,215.6,188,215.6,188z"/>
				</g>
				
					<image style="overflow:visible;" width="147" height="67" xlink:href="7CC38328CC9FF1AD.png"  transform="matrix(0.24 0 0 0.24 174.96 170.64)">
				</image>
				
					<image style="overflow:visible;" width="154" height="63" xlink:href="7CC38328CC9FF1AB.png"  transform="matrix(0.24 0 0 0.24 219.36 170.88)">
				</image>
				<linearGradient id="SVGID_5_" gradientUnits="userSpaceOnUse" x1="255.7014" y1="160.2646" x2="213.2635" y2="160.2646">
					<stop  offset="0" style="stop-color:#FFFFFF"/>
					<stop  offset="1" style="stop-color:#F29587"/>
				</linearGradient>
				<path class="st4" d="M215.4,140.8c0,0-1,4.6-1.7,7.5c-0.6,2.9-0.2,7.3-0.4,10.9c-0.2,3.6,0.4,6.5,0.4,6.5s5.2,0.6,7.3,2.7
					c2.1,2.1,3.8,6.9,8.4,9.2c4.6,2.3,11.1,2.7,16.5,1.7s9.2-4.4,9.8-9.8c-4.4-6.3-6.3-6.7-8.1-11.5s-2.7-12.9-7.7-14.2
					c-5-1.3-8.4-0.2-12.7-1C222.7,141.8,215.4,140.8,215.4,140.8z"/>
				<linearGradient id="SVGID_6_" gradientUnits="userSpaceOnUse" x1="172.1352" y1="158.2166" x2="216.4388" y2="158.2166">
					<stop  offset="0" style="stop-color:#FFFFFF"/>
					<stop  offset="1" style="stop-color:#F39A8D"/>
				</linearGradient>
				<path class="st5" d="M213.7,139.5c-6.1-2.5-10.2-4.4-15.5-3.1c-5.2,1.3-11.7,0.6-14,5.6c-2.3,5-6.1,8.8-8.4,12.9
					c-2.3,4.2-2.3,7.3-3.1,10.2s-1.7,6.9,2.9,10.9c4.6,4,14,5.4,19.4,3.6s8.1-5.4,11.7-9.4c3.6-4,5.8-5,6.9-4.6
					c0.4-7.5,0.4-13.4,0.8-16.7c0.4-3.3,1.9-8.4,1.9-8.4L213.7,139.5z"/>
				<g>
					<linearGradient id="SVGID_7_" gradientUnits="userSpaceOnUse" x1="170.4861" y1="118.8835" x2="260.4014" y2="118.8835">
						<stop  offset="0" style="stop-color:#E2AA7D"/>
						<stop  offset="0.1356" style="stop-color:#E3AB7F"/>
						<stop  offset="0.2083" style="stop-color:#E5B086"/>
						<stop  offset="0.2662" style="stop-color:#E8B993"/>
						<stop  offset="0.3158" style="stop-color:#ECC5A5"/>
						<stop  offset="0.3603" style="stop-color:#F1D5BD"/>
						<stop  offset="0.3631" style="stop-color:#F1D6BF"/>
						<stop  offset="0.4814" style="stop-color:#E6B48C"/>
						<stop  offset="0.594" style="stop-color:#DC9762"/>
						<stop  offset="0.6508" style="stop-color:#D88C53"/>
						<stop  offset="1" style="stop-color:#F29587"/>
					</linearGradient>
					<path class="st6" d="M234.2,68.3c0,0-0.4,16.7,1.7,24.9c2.1,8.1,5.2,25.9,8.6,29.9c3.3,4,9.6,7.5,12.3,12.5
						c2.7,5,4.4,9.2,3.3,15.7s-1.5,8.4-2.9,11.7c-1.5,3.3-0.4,6.1-1.5,6.5c-1,0.4-7.1-1-10-9.4c-2.9-8.4-3.1-12.7-10.4-13.8
						s-12.7,0.2-18.8-1.9c-6.1-2.1-11.3-6.1-15-5.4c-3.8,0.6-6.9,1.9-9.6,2.5s-4.2,0.2-6.9,4.2c-2.7,4-2.7,6.7-6.1,10.4
						c-3.3,3.8-4.8,9.8-6.1,9.2c-1.3-0.6-1.5-2.9-2.1-8.1c-0.6-5.2,0-9.8,3.3-14.4c3.3-4.6,2.7-7.3,5.6-11.3c2.9-4,5.2-1.7,9.2-8.4
						c4-6.7,7.9-14.6,8.8-24s0.6-30.3,0.6-30.3L234.2,68.3z"/>
				</g>
				<g class="st7">
					<path class="st8" d="M180,185.8c0,0,1.1,0.3,3.1,0.8c1,0.3,2.2,0.6,3.6,1c1.3,0.4,3,0.6,4.7,0.7c1.7,0.1,3.6,0,5.6-0.2
						c1-0.1,2-0.2,3.1-0.4c1-0.2,2.2-0.3,3.3-0.3c2.2-0.1,4.5-0.1,6.8,0c2.3,0.1,4.6-0.1,7-0.2c2.4-0.1,4.8,0.2,7.1,0.6
						c1.1,0.2,2.2,0.2,3.3,0.2c1.1,0,2.2,0,3.3-0.1c1.1,0,2.2-0.1,3.2-0.3c1-0.1,2-0.4,3.1-0.5c2-0.3,3.9-0.5,5.7-0.6
						c1.8-0.1,3.4-0.2,4.8-0.3c1.4,0,2.7,0,3.7,0c1,0,1.8-0.1,2.4-0.3c0.5-0.1,0.8-0.3,0.8-0.3s-0.2,0.2-0.8,0.4
						c-0.5,0.2-1.3,0.4-2.4,0.5c-1,0.1-2.3,0.2-3.7,0.3c-1.4,0.1-3,0.3-4.8,0.5c-1.7,0.2-3.6,0.5-5.6,0.8c-1,0.2-2,0.4-3.1,0.6
						c-1.1,0.2-2.2,0.3-3.3,0.3c-1.1,0.1-2.2,0.1-3.4,0.1c-1.1,0-2.3,0-3.5-0.2c-2.2-0.3-4.6-0.5-6.9-0.5c-2.3,0-4.7,0.2-7.1,0.1
						c-2.3-0.1-4.6-0.1-6.8,0c-1.1,0-2.1,0.1-3.2,0.2c-1.1,0.1-2.1,0.2-3.1,0.3c-2,0.1-4,0.2-5.8,0c-1.8-0.2-3.4-0.5-4.8-1
						c-1.3-0.5-2.5-0.9-3.5-1.2C181.1,186.1,180,185.8,180,185.8z"/>
				</g>
				<g class="st9">
					<path class="st10" d="M173.6,164.7c0,0,0.3-0.3,0.6-1c0.4-0.7,0.9-1.7,1.6-3c0.3-0.7,0.7-1.4,1.2-2.1c0.5-0.8,1.1-1.5,1.7-2.3
						c1.3-1.6,2.3-3.7,3.4-6c0.6-1.1,1.2-2.3,1.8-3.5c0.7-1.2,1.4-2.4,2.4-3.5c0.3-0.3,0.5-0.5,0.9-0.8c0.3-0.2,0.7-0.3,1.1-0.5
						c0.7-0.3,1.5-0.4,2.2-0.6c0.7-0.1,1.5-0.3,2.3-0.5c0.7-0.2,1.5-0.4,2.2-0.7c1.5-0.5,3-1.1,4.6-1.5c0.8-0.2,1.6-0.3,2.5-0.4
						c0.2,0,0.4,0,0.7,0c0.2,0,0.4,0.1,0.6,0.1c0.4,0.1,0.8,0.2,1.2,0.3c3.2,1.1,6.3,2.5,9.4,3.8c1.5,0.7,3.1,1.4,4.7,1.9
						c1.6,0.5,3.2,0.8,4.8,0.9c3.3,0.1,6.6-0.1,9.8,0.1c1.6,0.1,3.2,0.4,4.6,1.1c0.7,0.3,1.4,0.6,2.1,1c0.7,0.4,1.2,1,1.7,1.6
						c0.9,1.2,1.4,2.6,1.9,3.9c0.4,1.3,0.8,2.6,1.2,3.8c0.8,2.4,1.5,4.6,2.5,6.4c0.5,0.9,1.1,1.6,1.7,2.3c0.6,0.7,1.1,1.3,1.6,1.8
						c1.1,1,2.2,1.5,2.9,1.7c0.7,0.3,1.2,0.3,1.2,0.3s-0.4-0.1-1.2-0.3c-0.7-0.2-1.9-0.7-3-1.7c-0.6-0.5-1.1-1.1-1.7-1.8
						c-0.6-0.7-1.2-1.4-1.8-2.3c-1.1-1.8-1.9-4-2.7-6.4c-0.4-1.2-0.8-2.5-1.3-3.7c-0.5-1.3-1-2.6-1.9-3.7c-0.4-0.5-0.9-1-1.5-1.4
						c-0.6-0.4-1.3-0.7-2-0.9c-1.4-0.6-2.9-0.9-4.4-1c-3.1-0.2-6.4,0.1-9.8-0.1c-1.7-0.1-3.4-0.4-5-0.9c-1.6-0.5-3.2-1.2-4.8-1.9
						c-3.1-1.4-6.2-2.8-9.3-3.8c-0.4-0.1-0.8-0.2-1.2-0.3c-0.2-0.1-0.4-0.1-0.6-0.1c-0.2,0-0.4,0-0.6,0c-0.8,0-1.6,0.2-2.3,0.3
						c-1.6,0.4-3.1,0.9-4.6,1.4c-0.7,0.3-1.5,0.5-2.3,0.7c-0.8,0.2-1.5,0.3-2.3,0.4c-0.7,0.1-1.5,0.3-2.2,0.5
						c-0.3,0.1-0.7,0.2-1,0.4c-0.3,0.2-0.5,0.4-0.8,0.6c-1,1-1.7,2.2-2.4,3.4c-0.7,1.2-1.3,2.3-1.9,3.5c-1.1,2.2-2.2,4.4-3.6,5.9
						c-0.7,0.8-1.3,1.5-1.8,2.2c-0.5,0.7-0.9,1.4-1.3,2.1c-0.7,1.3-1.3,2.3-1.7,3C173.8,164.3,173.6,164.7,173.6,164.7z"/>
				</g>
				
					<image style="overflow:visible;" width="283" height="151" xlink:href="7CC38328CC9FF1B4.png"  transform="matrix(0.24 0 0 0.24 185.04 186.24)">
				</image>
				
					<image style="overflow:visible;" width="67" height="75" xlink:href="7CC38328CC9FF1B7.png"  transform="matrix(0.24 0 0 0.24 165.36 195.36)">
				</image>
			</g>
		</g>
	</g>
	<g>
		
			<image style="overflow:visible;opacity:0.75;" width="451" height="902" xlink:href="7CC38328CC9FF1B5.png"  transform="matrix(0.24 0 0 0.24 20.2368 64.3968)">
		</image>
		<g>
			<g>
				<g>
					<linearGradient id="SVGID_8_" gradientUnits="userSpaceOnUse" x1="24.0489" y1="232.6646" x2="46.1213" y2="232.6646">
						<stop  offset="0" style="stop-color:#E2AA7D"/>
						<stop  offset="0.1711" style="stop-color:#E3AB7F"/>
						<stop  offset="0.2628" style="stop-color:#E5B086"/>
						<stop  offset="0.3355" style="stop-color:#E8B993"/>
						<stop  offset="0.3631" style="stop-color:#E9BE9A"/>
						<stop  offset="0.4124" style="stop-color:#E6B48C"/>
						<stop  offset="0.5706" style="stop-color:#DC9762"/>
						<stop  offset="0.6508" style="stop-color:#D88C53"/>
						<stop  offset="1" style="stop-color:#F29587"/>
					</linearGradient>
					<path class="st11" d="M35.1,192.8c-2.1-0.6-4.6-0.8-7.3,1.3s-4.2,5.4-3.6,9.2c0.6,3.8,3.1,7.5,3.8,10.2c0.6,2.7,1.3,14,1.3,23
						S30,250.8,30,259c0,8.1,0,14,0,14h9.4c0,0,0.4-28.8,1.5-37.4c1-8.6,0.2-15.9,1.9-19.4s2.5-4,3.3-4.6c-3.8-4.2-6.9-9.2-7.9-12.3
						C37.1,196.1,35.1,192.8,35.1,192.8z"/>
				</g>
				<g>
					<linearGradient id="SVGID_9_" gradientUnits="userSpaceOnUse" x1="33.7575" y1="225.675" x2="115.8751" y2="225.675">
						<stop  offset="0" style="stop-color:#E2AA7D"/>
						<stop  offset="0.1913" style="stop-color:#E3AB7F"/>
						<stop  offset="0.294" style="stop-color:#E5B086"/>
						<stop  offset="0.3756" style="stop-color:#E8B993"/>
						<stop  offset="0.4456" style="stop-color:#ECC5A5"/>
						<stop  offset="0.5084" style="stop-color:#F1D5BD"/>
						<stop  offset="0.5123" style="stop-color:#F1D6BF"/>
						<stop  offset="0.6115" style="stop-color:#E6B48C"/>
						<stop  offset="0.7059" style="stop-color:#DC9762"/>
						<stop  offset="0.7534" style="stop-color:#D88C53"/>
						<stop  offset="1" style="stop-color:#F29587"/>
					</linearGradient>
					<path class="st12" d="M90,180.3l19,0.2c0,0,6.9,4.2,6.9,5.8c0,1.7-0.8,8.8-3.3,16.5c-2.5,7.7-11.7,16.5-13.8,20.5
						c-2.1,4-2.3,15.2-4.4,23.6c-2.1,8.4-1.3,25.9-1.3,25.9h-33c0,0-0.2-4-0.8-11.9c-0.6-7.9-1.3-11.3-3.6-18
						c-2.3-6.7-3.8-13.6-6.5-20.7s-4-7.5-6.9-11.7c-2.9-4.2-6.3-11.3-7.5-14.4c-1.3-3.1-1.5-6.9-0.4-10.7c1-3.8,6.5-5.2,9.4-6.9
						L90,180.3z"/>
				</g>
				<g>
					<linearGradient id="SVGID_10_" gradientUnits="userSpaceOnUse" x1="75.4224" y1="188.7386" x2="75.4224" y2="168.974">
						<stop  offset="0.1588" style="stop-color:#FDECD4"/>
						<stop  offset="0.4388" style="stop-color:#EABA8E"/>
						<stop  offset="0.648" style="stop-color:#DD9963"/>
						<stop  offset="0.7534" style="stop-color:#D88C53"/>
						<stop  offset="1" style="stop-color:#F29587"/>
					</linearGradient>
					<path class="st13" d="M75.8,188c-4.2,0.2-11.7-0.4-15,0.2c-3.3,0.6-10.4,0.8-12.5,0c-2.1-0.8-6.7-2.1-9.2-2.9
						c-2.5-0.8-4.4-2.7-1.9-4.6s11.9-2.7,16.1-4.4c4.2-1.7,13.4-6.7,13.4-6.7s3.3,1.3,7.3,1.3c4,0,8.8-1.9,8.8-1.9l21.1,6.1
						l11.1,9.8c0,0,0.6,1.3-2.3,1.5c-2.9,0.2-10.7,0.4-14,1c-3.3,0.6-11.5,1.7-14.8,0.8C80.4,187.4,75.8,188,75.8,188z"/>
				</g>
				
					<image style="overflow:visible;" width="149" height="67" xlink:href="7CC38328CC9FF1BB.png"  transform="matrix(0.24 0 0 0.24 35.04 170.64)">
				</image>
				
					<image style="overflow:visible;" width="154" height="63" xlink:href="7CC38328CC9FF1BC.png"  transform="matrix(0.24 0 0 0.24 79.44 170.88)">
				</image>
				<linearGradient id="SVGID_11_" gradientUnits="userSpaceOnUse" x1="115.8751" y1="160.2646" x2="73.4372" y2="160.2646">
					<stop  offset="0" style="stop-color:#FFFFFF"/>
					<stop  offset="1" style="stop-color:#F29587"/>
				</linearGradient>
				<path class="st14" d="M75.6,140.8c0,0-1,4.6-1.7,7.5c-0.6,2.9-0.2,7.3-0.4,10.9c-0.2,3.6,0.4,6.5,0.4,6.5s5.2,0.6,7.3,2.7
					c2.1,2.1,3.8,6.9,8.4,9.2c4.6,2.3,11.1,2.7,16.5,1.7s9.2-4.4,9.8-9.8c-4.4-6.3-6.3-6.7-8.1-11.5S105,145,100,143.7
					c-5-1.3-8.4-0.2-12.7-1C82.9,141.8,75.6,140.8,75.6,140.8z"/>
				<linearGradient id="SVGID_12_" gradientUnits="userSpaceOnUse" x1="32.3089" y1="158.2166" x2="76.6125" y2="158.2166">
					<stop  offset="0" style="stop-color:#FFFFFF"/>
					<stop  offset="1" style="stop-color:#F39A8D"/>
				</linearGradient>
				<path class="st15" d="M73.9,139.5c-6.1-2.5-10.2-4.4-15.5-3.1c-5.2,1.3-11.7,0.6-14,5.6c-2.3,5-6.1,8.8-8.4,12.9
					s-2.3,7.3-3.1,10.2s-1.7,6.9,2.9,10.9c4.6,4,14,5.4,19.4,3.6s8.1-5.4,11.7-9.4c3.6-4,5.8-5,6.9-4.6c0.4-7.5,0.4-13.4,0.8-16.7
					c0.4-3.3,1.9-8.4,1.9-8.4L73.9,139.5z"/>
				<g>
					<linearGradient id="SVGID_13_" gradientUnits="userSpaceOnUse" x1="30.6598" y1="118.8835" x2="120.5751" y2="118.8835">
						<stop  offset="0" style="stop-color:#E2AA7D"/>
						<stop  offset="0.1356" style="stop-color:#E3AB7F"/>
						<stop  offset="0.2083" style="stop-color:#E5B086"/>
						<stop  offset="0.2662" style="stop-color:#E8B993"/>
						<stop  offset="0.3158" style="stop-color:#ECC5A5"/>
						<stop  offset="0.3603" style="stop-color:#F1D5BD"/>
						<stop  offset="0.3631" style="stop-color:#F1D6BF"/>
						<stop  offset="0.4814" style="stop-color:#E6B48C"/>
						<stop  offset="0.594" style="stop-color:#DC9762"/>
						<stop  offset="0.6508" style="stop-color:#D88C53"/>
						<stop  offset="1" style="stop-color:#F29587"/>
					</linearGradient>
					<path class="st16" d="M94.4,68.3c0,0-0.4,16.7,1.7,24.9c2.1,8.1,5.2,25.9,8.6,29.9c3.3,4,9.6,7.5,12.3,12.5
						c2.7,5,4.4,9.2,3.3,15.7c-1,6.5-1.5,8.4-2.9,11.7c-1.5,3.3-0.4,6.1-1.5,6.5c-1,0.4-7.1-1-10-9.4c-2.9-8.4-3.1-12.7-10.4-13.8
						s-12.7,0.2-18.8-1.9c-6.1-2.1-11.3-6.1-15-5.4c-3.8,0.6-6.9,1.9-9.6,2.5c-2.7,0.6-4.2,0.2-6.9,4.2c-2.7,4-2.7,6.7-6.1,10.4
						c-3.3,3.8-4.8,9.8-6.1,9.2c-1.3-0.6-1.5-2.9-2.1-8.1c-0.6-5.2,0-9.8,3.3-14.4s2.7-7.3,5.6-11.3c2.9-4,5.2-1.7,9.2-8.4
						c4-6.7,7.9-14.6,8.8-24c0.8-9.4,0.6-30.3,0.6-30.3L94.4,68.3z"/>
				</g>
				<g class="st7">
					<path class="st8" d="M40.1,185.8c0,0,1.1,0.3,3.1,0.8c1,0.3,2.2,0.6,3.6,1c1.3,0.4,3,0.6,4.7,0.7c1.7,0.1,3.6,0,5.6-0.2
						c1-0.1,2-0.2,3.1-0.4c1-0.2,2.2-0.3,3.3-0.3c2.2-0.1,4.5-0.1,6.8,0c2.3,0.1,4.6-0.1,7-0.2c2.4-0.1,4.8,0.2,7.1,0.6
						c1.1,0.2,2.2,0.2,3.3,0.2c1.1,0,2.2,0,3.3-0.1c1.1,0,2.2-0.1,3.2-0.3c1-0.1,2-0.4,3.1-0.5c2-0.3,3.9-0.5,5.7-0.6
						c1.8-0.1,3.4-0.2,4.8-0.3c1.4,0,2.7,0,3.7,0c1,0,1.8-0.1,2.4-0.3c0.5-0.1,0.8-0.3,0.8-0.3s-0.2,0.2-0.8,0.4
						c-0.5,0.2-1.3,0.4-2.4,0.5c-1,0.1-2.3,0.2-3.7,0.3c-1.4,0.1-3,0.3-4.8,0.5c-1.7,0.2-3.6,0.5-5.6,0.8c-1,0.2-2,0.4-3.1,0.6
						c-1.1,0.2-2.2,0.3-3.3,0.3c-1.1,0.1-2.2,0.1-3.4,0.1c-1.1,0-2.3,0-3.5-0.2c-2.2-0.3-4.6-0.5-6.9-0.5c-2.3,0-4.7,0.2-7.1,0.1
						c-2.3-0.1-4.6-0.1-6.8,0c-1.1,0-2.1,0.1-3.2,0.2c-1.1,0.1-2.1,0.2-3.1,0.3c-2,0.1-4,0.2-5.8,0c-1.8-0.2-3.4-0.5-4.8-1
						c-1.3-0.5-2.5-0.9-3.5-1.2C41.2,186.1,40.1,185.8,40.1,185.8z"/>
				</g>
				<g class="st9">
					<path class="st10" d="M33.7,164.7c0,0,0.3-0.3,0.6-1c0.4-0.7,0.9-1.7,1.6-3c0.3-0.7,0.7-1.4,1.2-2.1c0.5-0.8,1.1-1.5,1.7-2.3
						c1.3-1.6,2.3-3.7,3.4-6c0.6-1.1,1.2-2.3,1.8-3.5c0.7-1.2,1.4-2.4,2.4-3.5c0.3-0.3,0.5-0.5,0.9-0.8c0.3-0.2,0.7-0.3,1.1-0.5
						c0.7-0.3,1.5-0.4,2.2-0.6c0.7-0.1,1.5-0.3,2.3-0.5c0.7-0.2,1.5-0.4,2.2-0.7c1.5-0.5,3-1.1,4.6-1.5c0.8-0.2,1.6-0.3,2.5-0.4
						c0.2,0,0.4,0,0.7,0c0.2,0,0.4,0.1,0.6,0.1c0.4,0.1,0.8,0.2,1.2,0.3c3.2,1.1,6.3,2.5,9.4,3.8c1.5,0.7,3.1,1.4,4.7,1.9
						c1.6,0.5,3.2,0.8,4.8,0.9c3.3,0.1,6.6-0.1,9.8,0.1c1.6,0.1,3.2,0.4,4.6,1.1c0.7,0.3,1.4,0.6,2.1,1c0.7,0.4,1.2,1,1.7,1.6
						c0.9,1.2,1.4,2.6,1.9,3.9c0.4,1.3,0.8,2.6,1.2,3.8c0.8,2.4,1.5,4.6,2.5,6.4c0.5,0.9,1.1,1.6,1.7,2.3c0.6,0.7,1.1,1.3,1.6,1.8
						c1.1,1,2.2,1.5,2.9,1.7c0.7,0.3,1.2,0.3,1.2,0.3s-0.4-0.1-1.2-0.3c-0.7-0.2-1.9-0.7-3-1.7c-0.6-0.5-1.1-1.1-1.7-1.8
						c-0.6-0.7-1.2-1.4-1.8-2.3c-1.1-1.8-1.9-4-2.7-6.4c-0.4-1.2-0.8-2.5-1.3-3.7c-0.5-1.3-1-2.6-1.9-3.7c-0.4-0.5-0.9-1-1.5-1.4
						c-0.6-0.4-1.3-0.7-2-0.9c-1.4-0.6-2.9-0.9-4.4-1c-3.1-0.2-6.4,0.1-9.8-0.1c-1.7-0.1-3.4-0.4-5-0.9c-1.6-0.5-3.2-1.2-4.8-1.9
						c-3.1-1.4-6.2-2.8-9.3-3.8c-0.4-0.1-0.8-0.2-1.2-0.3c-0.2-0.1-0.4-0.1-0.6-0.1c-0.2,0-0.4,0-0.6,0c-0.8,0-1.6,0.2-2.3,0.3
						c-1.6,0.4-3.1,0.9-4.6,1.4c-0.7,0.3-1.5,0.5-2.3,0.7c-0.8,0.2-1.5,0.3-2.3,0.4c-0.7,0.1-1.5,0.3-2.2,0.5
						c-0.3,0.1-0.7,0.2-1,0.4c-0.3,0.2-0.5,0.4-0.8,0.6c-1,1-1.7,2.2-2.4,3.4c-0.7,1.2-1.3,2.3-1.9,3.5c-1.1,2.2-2.2,4.4-3.6,5.9
						c-0.7,0.8-1.3,1.5-1.8,2.2c-0.5,0.7-0.9,1.4-1.3,2.1c-0.7,1.3-1.3,2.3-1.7,3C34,164.3,33.7,164.7,33.7,164.7z"/>
				</g>
				
					<image style="overflow:visible;" width="283" height="151" xlink:href="7CC38328CC9FF1BF.png"  transform="matrix(0.24 0 0 0.24 45.12 186.24)">
				</image>
				
					<image style="overflow:visible;" width="68" height="75" xlink:href="841F4E5931DEE3B.png"  transform="matrix(0.24 0 0 0.24 25.44 195.36)">
				</image>
			</g>
		</g>
	</g>
</g>
<g id="hofte">
	<g>
		
			<image style="overflow:visible;opacity:0.75;" width="969" height="674" xlink:href="841F4E5931DEE39.png"  transform="matrix(0.24 0 0 0.24 319.2768 87.9168)">
		</image>
		<g>
			<g>
				<linearGradient id="SVGID_14_" gradientUnits="userSpaceOnUse" x1="427.4505" y1="233.4507" x2="439.9037" y2="233.4507">
					<stop  offset="0" style="stop-color:#5BC5F2"/>
					<stop  offset="5.774647e-02" style="stop-color:#73CBF4"/>
					<stop  offset="0.3654" style="stop-color:#C4E7FB"/>
					<stop  offset="0.5088" style="stop-color:#DDF1FD"/>
					<stop  offset="0.6394" style="stop-color:#C6E7FB"/>
					<stop  offset="0.9166" style="stop-color:#7DCEF5"/>
					<stop  offset="1" style="stop-color:#5BC5F2"/>
				</linearGradient>
				<path class="st17" d="M427.5,226.2c0,0,4.6-2.5,12.4,0.1c-0.4,4.2-0.4,14.6-0.4,14.6s-11.8,2.4-12-1.1
					C427.4,236.4,427.5,226.2,427.5,226.2z"/>
				<g>
					<linearGradient id="SVGID_15_" gradientUnits="userSpaceOnUse" x1="378.4362" y1="159.6982" x2="489.0453" y2="159.6982">
						<stop  offset="0" style="stop-color:#E2AA7D"/>
						<stop  offset="0.1217" style="stop-color:#E0A475"/>
						<stop  offset="0.3134" style="stop-color:#DB9660"/>
						<stop  offset="0.5088" style="stop-color:#D58245"/>
						<stop  offset="0.6904" style="stop-color:#DB955F"/>
						<stop  offset="0.8811" style="stop-color:#E0A475"/>
						<stop  offset="1" style="stop-color:#E2AA7D"/>
					</linearGradient>
					<path class="st18" d="M437.3,134.8c-4.4,0.4-17.5-2.4-21-4.4c-3.5-2-6.3-5.7-8.1-7.9c-1.8-2.2-2.2-4.4-3.3-5
						c-1.1-0.6-7.5-4.2-14.2-0.2s-12.1,22.6-12.3,30.2c-0.2,7.5,5.2,14.4,4.8,13.6c-0.4-0.7,2.2,1.1,5.5,1.1c3.3,0,8.8-0.7,11.2,2.6
						c2.4,3.3,4.2,9.4,9.2,14.7c5,5.3,8.1,7.7,12.3,9.4s5.9,1.1,6.1,1.8c0.2,0.7-1.3,2.6-1.1,2.9c0.2,0.4,2.6,1.1,3.1,1.8
						s0,1.7-0.4,2.2c-0.4,0.6-0.6,0.7,0.4,1.3c0.9,0.6,2.4,0.6,2.6,1.5c0.2,0.9,1.7,3.3,2.6,3.5c0.9,0.2,2.8-2.2,3.1-2.6
						c0.4-0.4,0-1.7,1.1-1.5c1.1,0.2,2.8-0.6,2-1.5c-0.7-0.9-1.5-2.9-0.4-2.9c1.1,0,4-1.1,2.9-2c-1.1-0.9-1.7-3.7-1.1-3.5
						c0.6,0.2,7.2,0,10.1-2.6c2.9-2.6,8.1-9,12.3-15.5s5.3-7.9,8.7-8.5c3.3-0.6,8.3-1.5,10.5-3.1c2.2-1.7,5.7-11.6,4.8-17.1
						c-0.9-5.5-5.5-17.7-9.4-20.2c-3.9-2.6-7.5-4.8-10.7-5.3s-5.5-1.1-5.9-0.2c-0.4,0.9-3.9,6.3-7,9.2c-3.1,2.9-4.2,3.7-9,6.6
						C442.1,136.2,437.3,134.8,437.3,134.8z"/>
				</g>
				<g>
					<path class="st19" d="M436.2,132.4c3.5,0.1,9.2-1.5,11.4-2c2.2-0.6,6.1,1.3,7.5,4s1.3,5.5,0.2,7.5s-7.7,6.8-17.1,6.8
						c-9.4,0-16.4-2.4-19.3-4.8s-2.8-4.6-1.8-7.4c0.9-2.8,2-6.8,6.4-6.1C428,131.3,431.6,132.2,436.2,132.4z"/>
				</g>
				<g>
					<path class="st20" d="M436.4,133.5c4.2,0,10.9-2,12.5-2s4.2,2.2,4.2,6.1c0,3.9-1.8,7.2-6.1,7.7c-4.2,0.6-11.4,1.3-18.2,0.4
						c-6.8-0.9-9-3.5-9.4-5.9c-0.4-2.4,0.2-7.5,2.2-7.7c2-0.2,2.2-0.7,8.1,0.6C435.7,133.8,434.2,133.5,436.4,133.5z"/>
				</g>
				<g>
					
						<image style="overflow:visible;" width="447" height="623" xlink:href="841F4E5931DEE3F.png"  transform="matrix(0.24 0 0 0.24 323.04 91.92)">
					</image>
					<g>
						<path class="st21" d="M396.2,113.4c0,0-0.5-0.5-1.4-1.4c-0.9-0.9-2.3-2.2-4-3.8c-1.8-1.6-3.9-3.5-6.7-5.1
							c-1.4-0.8-2.9-1.6-4.6-2.2c-0.8-0.3-1.7-0.6-2.6-0.8c-0.4-0.1-0.9-0.2-1.4-0.3c-0.5-0.1-1-0.2-1.5-0.3
							c-3.9-0.6-8.3-1-12.8-0.7c-4.5,0.2-9.2,1.1-13.4,3.3c-4.2,2.3-7.7,5.9-10.6,10.1c-1.5,2.1-2.7,4.3-3.8,6.7
							c-0.5,1.2-1,2.4-1.5,3.6c-0.2,0.6-0.4,1.2-0.6,1.8l-0.3,0.9l-0.1,0.5l-0.1,0.2c0,0,0-0.1,0,0l0,0.1l0,0.1
							c-1.4,5-1.3,10.2-0.4,15.2c0.2,1.2,0.5,2.5,0.9,3.7c0.2,0.6,0.4,1.2,0.6,1.7c0.1,0.3,0.2,0.6,0.3,0.8l0.1,0.2l0,0.1
							c0,0.1-0.2-0.3-0.1-0.1l0,0.1l0.3,0.4c0.1,0,0.4,0.5,0.9,0.8c0.4,0.3,0.9,0.7,1.5,1c1.1,0.7,2.2,1.3,3.3,2
							c2.2,1.4,4.5,2.9,6.3,4.9c1.7,1.8,3.3,3.7,4.8,5.6c2.9,3.8,5.5,7.5,7,11.6c0.2,0.5,0.3,1.1,0.5,1.6l0.1,0.8c0,0.1,0,0.1,0,0.2
							l0,0.2l0,0.4c0,0.5,0,1.1,0,1.6c0,0.5-0.1,1-0.1,1.5c-0.2,1.9-0.7,3.7-1.1,5.3c-0.4,1.6-0.7,3.1-0.7,4.4
							c0,1.3,0.5,2.4,1.1,3.5c1.2,2,2.3,3.5,3.1,4.5c0.8,1,1.3,1.5,1.3,1.5s-0.5-0.4-1.5-1.3c-0.9-0.9-2.3-2.2-3.7-4.2
							c-0.4-0.5-0.7-1.1-1-1.7c-0.1-0.3-0.3-0.7-0.4-1l-0.1-0.2c0-0.1,0,0,0-0.2l0-0.1c0-0.2-0.1-0.4-0.1-0.6
							c-0.1-1.6,0.1-3.1,0.3-4.8c0.2-1.6,0.5-3.4,0.6-5.1c0-0.4,0-0.9,0-1.3c0-0.5,0-0.8-0.1-1.3l0-0.4l0-0.2c0,0,0-0.1,0-0.1
							l-0.2-0.6c-0.1-0.4-0.3-0.8-0.5-1.3c-0.7-1.7-1.8-3.5-3.1-5.2c-1.2-1.7-2.6-3.5-4.1-5.2c-1.5-1.7-3.1-3.5-4.8-5.1
							c-1.6-1.5-3.5-2.9-5.7-4.1c-1.1-0.6-2.2-1.3-3.4-1.9c-0.6-0.3-1.2-0.7-1.8-1.1c-0.6-0.5-1.2-0.9-2-1.9l-0.3-0.4l0-0.1
							c0.1,0.1-0.1-0.2-0.1-0.2l-0.1-0.1l-0.1-0.3c-0.2-0.4-0.3-0.7-0.4-1c-0.3-0.7-0.5-1.3-0.7-2c-0.4-1.3-0.8-2.7-1.1-4.1
							c-0.6-2.8-0.9-5.6-0.8-8.5c0-1.4,0.1-2.9,0.3-4.3c0.1-0.7,0.2-1.5,0.4-2.2c0.1-0.7,0.3-1.3,0.5-2l0.1-0.3l0.1-0.3l0.2-0.5
							l0.3-1c0.2-0.7,0.5-1.3,0.7-2c0.5-1.3,1.1-2.6,1.7-3.9c1.2-2.6,2.6-5,4.3-7.3c1.6-2.3,3.5-4.4,5.5-6.3c1-0.9,2.1-1.8,3.3-2.6
							c0.6-0.4,1.2-0.8,1.7-1.1l0.8-0.5c0.4-0.2,0.6-0.3,1-0.5c5-2.5,10.3-3.1,15.1-3.2c4.8,0,9.3,0.6,13.4,1.6
							c0.5,0.1,1,0.2,1.5,0.4c0.5,0.1,1,0.3,1.5,0.4c1,0.3,1.9,0.6,2.8,1.1c1.8,0.8,3.3,1.7,4.7,2.8c2.8,2,4.8,4.2,6.4,5.9
							c1.6,1.8,2.7,3.3,3.6,4.3C395.7,112.9,396.2,113.4,396.2,113.4z"/>
					</g>
				</g>
				<g>
					<path class="st22" d="M403.9,117.8c0,0-0.8,0.1-2.2,0.6c-1.3,0.5-3.1,1.6-4.9,3.2c-0.9,0.8-1.9,1.7-2.8,2.8
						c-0.9,1-1.9,2.2-2.8,3.4c-1.8,2.5-3.5,5.3-4.8,8.2c-0.6,1.5-1.1,3-1.4,4.6c-0.4,1.6-0.6,3.1-0.8,4.6c-0.2,1.5-0.2,3-0.2,4.4
						c0.1,1.4,0.2,2.7,0.3,4c0.6,4.9,0.9,8.2,0.9,8.2s-0.2-0.8-0.5-2.2c-0.3-1.4-0.7-3.4-1.1-5.9c-0.2-1.2-0.4-2.6-0.5-4
						c-0.1-1.4-0.1-3,0-4.5c0.1-1.6,0.4-3.2,0.7-4.8c0.4-1.6,0.8-3.2,1.5-4.8c1.4-3.1,3.1-5.9,5.1-8.4c0.9-1.2,2-2.4,3-3.4
						c1-1,2-1.9,3-2.7c2-1.6,3.9-2.5,5.3-2.9C403,117.8,403.9,117.8,403.9,117.8z"/>
				</g>
				<g>
					
						<image style="overflow:visible;" width="446" height="623" xlink:href="841F4E5931DEE3A.png"  transform="matrix(0.24 0 0 0.24 437.04 91.92)">
					</image>
					<g>
						<path class="st21" d="M471.1,113.4c0,0,0.4-0.5,1.2-1.5c0.8-1,2-2.5,3.6-4.3c1.6-1.8,3.6-3.9,6.4-5.9c1.4-1,3-2,4.7-2.8
							c0.9-0.4,1.8-0.7,2.8-1.1c0.5-0.1,1-0.3,1.5-0.4c0.5-0.1,1-0.2,1.5-0.4c4.1-0.9,8.6-1.6,13.4-1.6c4.8,0.1,10.1,0.7,15.1,3.2
							c0.3,0.2,0.6,0.3,1,0.5l0.8,0.5c0.5,0.3,1.1,0.7,1.7,1.1c1.2,0.8,2.2,1.7,3.3,2.6c2.1,1.9,3.9,4,5.5,6.3
							c1.6,2.3,3.1,4.7,4.3,7.3c0.6,1.3,1.2,2.6,1.7,3.9c0.2,0.7,0.5,1.3,0.7,2l0.3,1l0.2,0.5l0.1,0.3l0.1,0.3
							c0.2,0.7,0.3,1.3,0.5,2c0.1,0.7,0.3,1.5,0.4,2.2c0.2,1.4,0.3,2.9,0.3,4.3c0,2.9-0.3,5.7-0.8,8.5c-0.3,1.4-0.6,2.7-1.1,4.1
							c-0.2,0.7-0.5,1.3-0.7,2c-0.1,0.3-0.3,0.7-0.4,1l-0.1,0.3l-0.1,0.1c0,0-0.2,0.4-0.1,0.2l0,0.1l-0.3,0.4c-0.8,1-1.4,1.4-2,1.9
							c-0.6,0.4-1.2,0.8-1.8,1.1c-1.1,0.6-2.3,1.3-3.4,1.9c-2.2,1.2-4.1,2.5-5.7,4.1c-1.7,1.7-3.3,3.4-4.8,5.1
							c-1.5,1.7-2.9,3.5-4.1,5.2c-1.2,1.7-2.3,3.5-3.1,5.2c-0.2,0.4-0.3,0.9-0.5,1.3l-0.2,0.6c0,0,0,0.1,0,0.1l0,0.2l0,0.4
							c-0.1,0.5-0.1,0.9-0.1,1.3c0,0.4,0,0.9,0,1.3c0.1,1.8,0.4,3.5,0.6,5.1c0.2,1.6,0.5,3.2,0.3,4.8c0,0.2-0.1,0.4-0.1,0.6l0,0.1
							c0,0.1,0,0.1,0,0.2l-0.1,0.2c-0.1,0.3-0.3,0.7-0.4,1c-0.3,0.6-0.7,1.2-1,1.7c-1.4,2-2.8,3.3-3.7,4.2c-0.9,0.9-1.5,1.3-1.5,1.3
							s0.5-0.5,1.3-1.5c0.8-1,2-2.5,3.1-4.5c0.6-1,1.1-2.2,1.1-3.5c0-1.3-0.3-2.8-0.7-4.4c-0.4-1.6-0.8-3.3-1.1-5.3
							c-0.1-0.5-0.1-1-0.1-1.5c0-0.5,0-1.1,0-1.6l0-0.4l0-0.2c0-0.1,0-0.2,0-0.2l0.1-0.8c0.1-0.5,0.3-1.1,0.5-1.6
							c1.5-4.1,4.1-7.9,7-11.6c1.5-1.9,3.1-3.8,4.8-5.6c1.8-2,4.1-3.5,6.3-4.9c1.1-0.7,2.2-1.3,3.3-2c0.5-0.3,1-0.7,1.5-1
							c0.4-0.3,0.8-0.7,0.9-0.8l0.3-0.4l0-0.1c0.1-0.2-0.1,0.2-0.1,0.1l0-0.1l0.1-0.2c0.1-0.2,0.2-0.5,0.3-0.8
							c0.2-0.6,0.4-1.1,0.6-1.7c0.4-1.2,0.7-2.4,0.9-3.7c0.9-5,1-10.2-0.4-15.2l0-0.1l0-0.1c0-0.1,0,0,0,0l-0.1-0.2l-0.1-0.5
							l-0.3-0.9c-0.2-0.6-0.4-1.2-0.6-1.8c-0.4-1.2-0.9-2.4-1.5-3.6c-1.1-2.3-2.4-4.6-3.8-6.7c-2.9-4.2-6.5-7.8-10.6-10.1
							c-4.1-2.2-8.9-3.1-13.4-3.3c-4.5-0.2-8.9,0.1-12.8,0.7c-0.5,0.1-1,0.2-1.5,0.3c-0.5,0.1-0.9,0.2-1.4,0.3
							c-0.9,0.2-1.8,0.5-2.6,0.8c-1.7,0.6-3.2,1.3-4.6,2.2c-2.8,1.7-4.9,3.6-6.7,5.1c-1.7,1.6-3.1,2.9-4,3.8
							C471.6,112.9,471.1,113.4,471.1,113.4z"/>
					</g>
				</g>
				<g>
					<path class="st22" d="M463.4,117.8c0,0,0.8,0,2.2,0.4c1.4,0.5,3.3,1.4,5.3,2.9c1,0.8,2,1.7,3,2.7c1,1,2,2.2,3,3.4
						c1.9,2.5,3.7,5.3,5.1,8.4c0.7,1.6,1.1,3.2,1.5,4.8c0.4,1.6,0.6,3.2,0.7,4.8c0.1,1.6,0.1,3.1,0,4.5c-0.1,1.4-0.3,2.8-0.5,4
						c-0.4,2.5-0.8,4.5-1.1,5.9c-0.3,1.4-0.5,2.2-0.5,2.2s0.4-3.3,0.9-8.2c0.1-1.2,0.3-2.6,0.3-4c0.1-1.4,0-2.9-0.2-4.4
						c-0.2-1.5-0.4-3.1-0.8-4.6c-0.4-1.6-0.8-3.1-1.4-4.6c-1.3-3-3-5.8-4.8-8.2c-0.9-1.2-1.8-2.4-2.8-3.4c-0.9-1-1.9-2-2.8-2.8
						c-1.8-1.6-3.6-2.7-4.9-3.2C464.3,117.9,463.4,117.8,463.4,117.8z"/>
				</g>
				<g>
					
						<ellipse transform="matrix(0.8123 -0.5833 0.5833 0.8123 -6.5877 291.2221)" class="st23" cx="449.1" cy="155.8" rx="2.6" ry="1.3"/>
					
						<ellipse transform="matrix(0.8123 -0.5833 0.5833 0.8123 -12.3425 292.0461)" class="st23" cx="447.5" cy="165.2" rx="2.3" ry="1"/>
					
						<ellipse transform="matrix(0.8123 -0.5833 0.5833 0.8123 -17.7892 292.6614)" class="st23" cx="445.8" cy="174" rx="1.8" ry="0.9"/>
					
						<ellipse transform="matrix(0.8123 -0.5833 0.5833 0.8123 -23.1202 293.6072)" class="st23" cx="444.6" cy="182.7" rx="1.6" ry="0.7"/>
					
						<ellipse transform="matrix(0.5833 -0.8123 0.8123 0.5833 48.8957 406.9972)" class="st23" cx="421.1" cy="155.8" rx="1.3" ry="2.6"/>
					
						<ellipse transform="matrix(0.5833 -0.8123 0.8123 0.5833 41.9646 412.192)" class="st23" cx="422.7" cy="165.2" rx="1" ry="2.3"/>
					
						<ellipse transform="matrix(0.5833 -0.8123 0.8123 0.5833 35.5781 417.2821)" class="st23" cx="424.5" cy="174" rx="0.9" ry="1.8"/>
					
						<ellipse transform="matrix(0.5833 -0.8123 0.8123 0.5833 28.9653 421.902)" class="st23" cx="425.7" cy="182.7" rx="0.7" ry="1.6"/>
				</g>
				<g>
					<g>
						<path class="st24" d="M406.1,157.3c0,0,1-0.4,2.7-1.1c1.7-0.6,4.1-1.6,7.2-2.4c1.5-0.4,3.2-0.8,5-1.1c0.5-0.1,0.9-0.1,1.4-0.1
							c0.2,0,0.5,0.1,0.8,0.1l0.2,0l0,0c0,0,0,0,0,0l0,0l0.1,0l0.3,0.1c1,0.3,1.9,1.1,2.4,2.1c0.5,0.9,0.6,2.1,1.1,2.5
							c0.2,0.2,0.8,0.3,1.2,0.5c0.5,0.1,0.9,0.2,1.4,0.3c2,0.4,4,0.5,6.1,0.4c2.1,0,4.1-0.1,6.1-0.4c1-0.2,2-0.3,2.7-0.9
							c0.7-0.5,1.1-1.3,1.5-2.2c0.4-0.9,1-1.9,2-2.4c0.1-0.1,0.2-0.1,0.4-0.2l0.3-0.1c0.3-0.1,0.5-0.1,0.8-0.2
							c0.5-0.1,0.9-0.1,1.4-0.2c1.8-0.1,3.6,0.1,5.1,0.5c1.6,0.3,2.9,0.8,4.1,1.2c1.2,0.5,2.2,0.9,3,1.3c0.8,0.4,1.4,0.8,1.9,1
							c0.4,0.2,0.6,0.4,0.6,0.4s-0.2-0.1-0.7-0.3c-0.4-0.2-1.1-0.5-1.9-0.9c-0.8-0.4-1.9-0.8-3.1-1.1c-1.2-0.4-2.6-0.7-4.1-1
							c-1.5-0.3-3.2-0.4-4.9-0.3c-0.4,0-0.9,0.1-1.3,0.2c-0.2,0-0.4,0.1-0.6,0.2l-0.3,0.1c-0.1,0-0.2,0.1-0.2,0.1
							c-0.7,0.4-1.2,1.1-1.6,2c-0.4,0.9-0.8,2-1.8,2.7c-0.5,0.3-1,0.5-1.5,0.7c-0.5,0.2-1,0.3-1.5,0.4c-2.1,0.4-4.2,0.5-6.3,0.5
							c-2.1,0-4.2-0.1-6.3-0.5c-0.5-0.1-1-0.2-1.6-0.4c-0.3-0.1-0.5-0.2-0.7-0.2c-0.2-0.1-0.6-0.2-0.8-0.4c-0.5-0.5-0.7-1-0.9-1.5
							c-0.2-0.5-0.3-0.9-0.5-1.3c-0.4-0.8-1-1.3-1.8-1.6l-0.3-0.1l-0.1,0l0,0c0,0,0,0,0,0l0,0l-0.2,0c-0.2,0-0.4-0.1-0.6-0.1
							c-0.4,0-0.9,0-1.3,0c-1.7,0.1-3.4,0.5-4.9,0.9c-3,0.7-5.5,1.5-7.3,2C407.1,156.9,406.1,157.3,406.1,157.3z"/>
					</g>
					<g>
						<path class="st24" d="M410.3,163.1c0,0,0.8-0.3,2.2-0.5c1.4-0.2,3.4-0.6,5.9-0.5c1.2,0,2.6,0.1,4,0.6c1.3,0.5,2.7,1.1,4.1,1.6
							c1.4,0.6,2.8,1.1,4.4,1.4c1.5,0.4,3.1,0.6,4.6,0.7c1.6,0.1,3.1-0.1,4.6-0.5c1.5-0.4,2.9-1,4.2-1.7c1.3-0.7,2.7-1.3,4-1.9
							c1.3-0.5,2.6-0.9,3.8-1.1c2.4-0.4,4.5-0.3,5.9-0.1c0.7,0.1,1.2,0.3,1.6,0.4c0.4,0.1,0.6,0.2,0.6,0.2s-0.2,0-0.6-0.1
							c-0.4-0.1-0.9-0.1-1.6-0.2c-1.4-0.1-3.4-0.1-5.8,0.4c-1.2,0.3-2.4,0.7-3.6,1.2c-1.2,0.6-2.5,1.3-3.9,2
							c-1.4,0.7-2.8,1.4-4.4,1.8c-1.6,0.4-3.3,0.7-4.9,0.6c-1.7-0.1-3.3-0.3-4.9-0.7c-1.6-0.4-3.1-1-4.5-1.6c-1.4-0.6-2.7-1.3-4-1.8
							c-1.2-0.5-2.5-0.7-3.7-0.7c-2.4-0.1-4.4,0-5.8,0.1C411.1,162.9,410.3,163.1,410.3,163.1z"/>
					</g>
					<g>
						<path class="st24" d="M415.6,170.8c0,0,0.1-0.1,0.4-0.2c0.3-0.1,0.7-0.3,1.3-0.4c1.1-0.2,2.8-0.3,4.8,0.2c1,0.2,2,0.8,3,1.3
							c1,0.5,2,1.1,3.1,1.5c1.1,0.5,2.3,0.8,3.5,1.1c0.6,0.1,1.2,0.2,1.9,0.2l0.9,0c0.3,0,0.7,0,1,0c1.2-0.1,2.5-0.4,3.7-0.7
							c1.2-0.4,2.4-0.8,3.5-1.3c1.1-0.5,2.2-1,3.2-1.5c1-0.5,2-1,2.9-1.3c1.9-0.7,3.6-0.8,4.7-0.9c1.2,0,1.8,0,1.8,0s-0.7,0-1.8,0.2
							c-1.1,0.1-2.7,0.5-4.5,1.2c-0.9,0.4-1.8,0.9-2.8,1.5c-1,0.5-2,1.1-3.2,1.6c-1.1,0.5-2.3,1-3.6,1.4c-1.3,0.4-2.6,0.7-4,0.8
							c-0.3,0-0.7,0-1,0l-1-0.1c-0.7-0.1-1.3-0.1-2-0.3c-1.3-0.3-2.5-0.7-3.7-1.2c-1.1-0.5-2.2-1.1-3.1-1.7c-1-0.6-1.8-1.1-2.7-1.4
							c-1.8-0.6-3.5-0.7-4.6-0.6C416.2,170.6,415.6,170.8,415.6,170.8z"/>
					</g>
					<g>
						<path class="st24" d="M418.6,177.2c0,0,0.5,0.2,1.4,0.6c0.9,0.4,2.1,1,3.5,1.7c1.5,0.7,3.1,1.5,5,2.2c0.9,0.3,1.9,0.6,2.9,0.8
							c1,0.2,2,0.5,3.1,0.6c1,0.1,2.1,0.1,3.1,0c1-0.2,2-0.4,2.8-0.8c0.9-0.4,1.8-0.8,2.6-1.2c0.8-0.4,1.6-0.8,2.3-1.2
							c2.9-1.4,4.8-2.4,4.8-2.4s-1.8,1.3-4.5,3c-0.7,0.4-1.4,0.9-2.2,1.3c-0.8,0.5-1.6,0.9-2.6,1.4c-0.9,0.4-2,0.8-3.1,1
							c-1.1,0.2-2.2,0.2-3.3,0.1c-1.1-0.1-2.2-0.4-3.2-0.6c-1-0.3-2.1-0.6-3-1c-1.9-0.8-3.6-1.7-5-2.5c-1.4-0.8-2.5-1.6-3.3-2
							C419.1,177.5,418.6,177.2,418.6,177.2z"/>
					</g>
				</g>
			</g>
		</g>
	</g>
</g>
<g id="rammer">
	<rect x="372.5" y="110.5" class="st25" width="35.9" height="57.6"/>
	<rect x="422.2" y="217.4" class="st25" width="22.6" height="32.2"/>
</g>
<g id="ledvæske" class="st26">
	<path class="st27" d="M250.6,206c9.8-22.3,9.6-40.6,8.4-51.3c-5.2,4-12.5-2.6-14.6-6.5c-2.1-4-7.1-6.9-7.1-6.9
		c-2.9-1.7-5-2.7-7.9-5.8c-2.9-3.1-6.3-7.1-9.6-7.7c-3.3-0.6-7.3,0.8-10.4,3.1c-3.1,2.3-9,3.6-12.3,5c-3.3,1.5-7.3,2.5-11.5,4.2
		c-4.2,1.7-9,11.7-11.9,14.2c-2.9,2.5-3.5,0.5-3.5,0.5c-3.3,13.9-1.1,27.3,1.1,34.3c2.2,7,7.4,16.3,7.4,16.3s-3.1-9.7,0-13
		c1.4-1.5,8.8-2.9,13.8,0.8c5,3.8,11.5,10,17.5,11.7c6.1,1.7,12.5,0,18.2-4.2c5.6-4.2,11.3-7.9,15.5-8.8c4.2-0.8,6.3-0.6,7.1,0.6
		C251.4,193.6,252.5,196,250.6,206z"/>
</g>
<g id="ledbånd">
	<g>
		<linearGradient id="SVGID_16_" gradientUnits="userSpaceOnUse" x1="180.3246" y1="241.5306" x2="180.3246" y2="77.1012">
			<stop  offset="0" style="stop-color:#FECC2F"/>
			<stop  offset="0.5123" style="stop-color:#FFF9C1"/>
			<stop  offset="0.5193" style="stop-color:#FFF8BF"/>
			<stop  offset="0.7503" style="stop-color:#FFE079"/>
			<stop  offset="0.9163" style="stop-color:#FFD146"/>
			<stop  offset="1" style="stop-color:#FECC2F"/>
		</linearGradient>
		<path class="st28" d="M198.4,77.1c0,0,1.7,20.3-3.8,34.9c-2.1,5.6-3.9,8.1-5.4,10.4c-1.5,2.4-3.1,4-5,5.4c-1.9,1.4-4,1.8-5.3,4.5
			c-1.3,2.6-1.9,5.7-3.3,8.1s-4,5-4.6,7.9c-0.6,2.9-0.7,6.1-0.7,6.1s-1.8,10.9-1.8,15.2c0,6.5,0.4,7.7,1,11.4
			c0.6,4.4,2.1,9.6,4.5,14.6c2.6,5.6,3.1,7.4,5.6,10.6s4.7,6.5,6.7,9.7s3.2,7.2,4.5,11c1.3,3.8,2.2,7.7,3.2,10.2
			c1,2.5,1.3,4.3,1.3,4.3s-6.5-16.7-10.2-21.6c-3.6-4.9-16.7-23.8-19.1-31.2s-5-19.4-3.1-31.7c1.9-12.4,2.8-14.5,4.7-17.5
			c1.9-2.9,3.6-6.7,4.6-8.8c1-2.1,10.2-9.5,14-14.4C189.8,111.5,197.9,81.6,198.4,77.1z"/>
		<linearGradient id="SVGID_17_" gradientUnits="userSpaceOnUse" x1="250.5957" y1="243.0621" x2="250.5957" y2="78.4207">
			<stop  offset="0" style="stop-color:#FECC2F"/>
			<stop  offset="0.5123" style="stop-color:#FFF9C1"/>
			<stop  offset="0.5193" style="stop-color:#FFF8BF"/>
			<stop  offset="0.7503" style="stop-color:#FFE079"/>
			<stop  offset="0.9163" style="stop-color:#FFD146"/>
			<stop  offset="1" style="stop-color:#FECC2F"/>
		</linearGradient>
		<path class="st29" d="M234.3,78.6c-0.4-2.1,1.7,19,5.3,30.8c1.2,4,2.4,9.6,3.6,11.7c1.3,2.1,4.3,4.7,7.7,7.8
			c3.3,3.1,6.3,6,7.8,10.2c1.5,4.2,1.9,6.8,1.7,9.3c-0.3,2.5-1.2,5.8-1.1,6.2c0.1,0.2,0.7,3.8,0.8,7.5c0.1,3.3-0.1,9.9-0.9,16.6
			c-0.8,6.7-3.8,16.7-5.2,20.5c-1.4,3.8-2.4,7-5.2,10.6c-2.8,3.6-5.8,7.2-7.9,10.3c-2.1,3.1-2.4,2.4-3.3,7.5
			c-1,5.2-1.5,9.3-1.9,12.4c-0.4,3.1-0.4,3.1-0.4,3.1s3.3-13.2,4.9-16.6c1.5-3.3,8.1-9.9,11.6-15.3s9.7-10.8,12.4-23.2
			c2.6-12.4,2.9-23.3,2.9-30.1c0-6.8,0.9-14.3-3.1-21.5s-12.2-14-16.1-19.4C240.3,106.8,235.7,86.7,234.3,78.6z"/>
	</g>
</g>
<g id="ledkapsel">
	<path class="st30" d="M250.6,206c9.8-22.3,9.6-40.6,8.4-51.3c-5.2,4-12.5-2.6-14.6-6.5c-2.1-4-7.1-6.9-7.1-6.9
		c-2.9-1.7-5-2.7-7.9-5.8c-2.9-3.1-6.3-7.1-9.6-7.7c-3.3-0.6-7.3,0.8-10.4,3.1c-3.1,2.3-9,3.6-12.3,5c-3.3,1.5-7.3,2.5-11.5,4.2
		c-4.2,1.7-9,11.7-11.9,14.2c-2.9,2.5-3.5,0.5-3.5,0.5c-3.3,13.9-1.1,27.3,1.1,34.3c2.2,7,7.4,16.3,7.4,16.3s-3.1-9.7,0-13
		c1.4-1.5,8.8-2.9,13.8,0.8c5,3.8,11.5,10,17.5,11.7c6.1,1.7,12.5,0,18.2-4.2c5.6-4.2,11.3-7.9,15.5-8.8c4.2-0.8,6.3-0.6,7.1,0.6
		C251.4,193.6,252.5,196,250.6,206z"/>
</g>
<g id="streger">
	<path class="st31" d="M276,197"/>
	<line class="st31" x1="276.7" y1="159.7" x2="263.3" y2="159.7"/>
	<line class="st31" x1="276.7" y1="175" x2="256.3" y2="175"/>
	<line class="st31" x1="276.7" y1="189.7" x2="256.3" y2="189.7"/>
	<polyline class="st31" points="74.7,183.3 119,173.3 95.2,169.2 	"/>
</g>
<g id="txt">
	<g>
		<text transform="matrix(1 0 0 1 109.9434 22)"><tspan x="0" y="0" class="st8 st32 st33">ET ÆGTE LED</tspan><tspan x="23.3" y="15" class="st8 st32 st34">Knæet</tspan></text>
		<text transform="matrix(1 0 0 1 403.2178 22)"><tspan x="0" y="0" class="st8 st32 st33">UÆGTE LED</tspan><tspan x="18.3" y="15" class="st8 st32 st34">Hoften</tspan></text>
		<text transform="matrix(1 0 0 1 389.5 264.8333)" class="st32 st34">Skambenssymfysen</text>
		<text transform="matrix(1 0 0 1 328.1644 135.4504)" class="st32 st34">Hofteben</text>
		<text transform="matrix(1 0 0 1 455 149.8333)" class="st32 st34">Korsben</text>
		<text transform="matrix(1 0 0 1 61.6667 113.6667)" class="st32 st34">Lårben</text>
		<text transform="matrix(1 0 0 1 50.8333 242.1667)" class="st32 st34">Skinneben</text>
		<text transform="matrix(1 0 0 1 277.6665 192.9997)" class="st32 st34">Ledkapsel</text>
		<text transform="matrix(1 0 0 1 277.666 177.6668)" class="st32 st34">Ledvæske</text>
		<text transform="matrix(1 0 0 1 277.666 162.6668)" class="st32 st34">Ledbånd</text>
		<text transform="matrix(1 0 0 1 120 176)" class="st32 st34">Ledbrusk</text>
		<text transform="matrix(1 0 0 1 198.6665 175.3332)" class="st32 st34">Ledhule</text>
	</g>
</g>
</svg>
