<?xml version="1.0" encoding="utf-8"?>
<!-- Generator: Adobe Illustrator 21.1.0, SVG Export Plug-In . SVG Version: 6.00 Build 0)  -->
<svg version="1.1" xmlns="http://www.w3.org/2000/svg" xmlns:xlink="http://www.w3.org/1999/xlink" x="0px" y="0px"
	 viewBox="0 0 566.9 313" style="enable-background:new 0 0 566.9 313;" xml:space="preserve">
<style type="text/css">
	.st0{fill:url(#SVGID_1_);}
	.st1{fill:#172983;}
	.st2{fill:url(#SVGID_2_);stroke:#650D0E;stroke-width:0.5374;}
	.st3{fill:url(#SVGID_3_);stroke:#650D0E;stroke-width:0.5374;}
	.st4{fill:url(#SVGID_4_);stroke:#650D0E;stroke-width:0.5374;}
	.st5{fill:url(#SVGID_5_);stroke:#650D0E;stroke-width:0.5374;}
	.st6{fill:url(#SVGID_6_);stroke:#650D0E;stroke-width:0.5374;}
	.st7{fill:url(#SVGID_7_);stroke:#650D0E;stroke-width:0.5374;}
	.st8{fill:url(#SVGID_8_);stroke:#650D0E;stroke-width:0.5374;}
	.st9{fill:url(#SVGID_9_);stroke:#650D0E;stroke-width:0.5374;}
	.st10{fill:url(#SVGID_10_);stroke:#650D0E;stroke-width:0.5374;}
	.st11{fill:url(#SVGID_11_);stroke:#650D0E;stroke-width:0.5374;}
	.st12{fill:url(#SVGID_12_);stroke:#650D0E;stroke-width:0.5374;}
	.st13{fill:url(#SVGID_13_);stroke:#650D0E;stroke-width:0.5374;}
	.st14{fill:url(#SVGID_14_);stroke:#650D0E;stroke-width:0.5374;}
	.st15{fill:url(#SVGID_15_);stroke:#000000;stroke-width:0.5;}
	.st16{fill:url(#SVGID_16_);stroke:#000000;stroke-width:0.5;}
	.st17{fill:url(#SVGID_17_);stroke:#000000;stroke-width:0.5;}
	.st18{fill:url(#SVGID_18_);stroke:#650D0E;stroke-width:0.5374;}
	.st19{fill:url(#SVGID_19_);stroke:#650D0E;stroke-width:0.5374;}
	.st20{fill:url(#SVGID_20_);stroke:#650D0E;stroke-width:0.5374;}
	.st21{fill:url(#SVGID_21_);stroke:#650D0E;stroke-width:0.5374;}
	.st22{fill:url(#SVGID_22_);stroke:#650D0E;stroke-width:0.5374;}
	.st23{fill:url(#SVGID_23_);stroke:#650D0E;stroke-width:0.5374;}
	.st24{fill:url(#SVGID_24_);stroke:#650D0E;stroke-width:0.5374;}
	.st25{fill:url(#SVGID_25_);stroke:#000000;stroke-width:0.5;}
	.st26{fill:url(#SVGID_26_);}
	.st27{fill:url(#SVGID_27_);stroke:#000000;stroke-width:0.5;}
	.st28{fill:url(#SVGID_28_);}
	.st29{fill:url(#SVGID_29_);stroke:#000000;stroke-width:0.5;}
	.st30{fill:url(#SVGID_30_);}
	.st31{fill:url(#SVGID_31_);stroke:#000000;stroke-width:0.5;}
	.st32{fill:url(#SVGID_32_);}
	.st33{fill:url(#SVGID_33_);stroke:#000000;stroke-width:0.5;}
	.st34{fill:#D10019;stroke:#000000;stroke-width:0.5;}
	.st35{fill:url(#SVGID_34_);stroke:#000000;stroke-width:0.5;}
	.st36{fill:url(#SVGID_35_);stroke:#000000;stroke-width:0.5;}
	.st37{fill:url(#SVGID_36_);stroke:#000000;stroke-width:0.5;}
	.st38{fill:url(#SVGID_37_);stroke:#000000;stroke-width:0.5;}
	.st39{fill:none;stroke:#FFFFFF;stroke-width:0.75;}
	.st40{fill:#FFFFFF;}
	.st41{font-family:'Verdana';}
	.st42{font-size:9px;}
</style>
<g id="muskelfiber">
	<linearGradient id="SVGID_1_" gradientUnits="userSpaceOnUse" x1="283.4644" y1="312.9966" x2="283.4644" y2="-9.094947e-13">
		<stop  offset="0.1011" style="stop-color:#EE7C25"/>
		<stop  offset="0.5169" style="stop-color:#E2001A"/>
		<stop  offset="0.6027" style="stop-color:#D40019"/>
		<stop  offset="0.7809" style="stop-color:#AE0917"/>
		<stop  offset="1" style="stop-color:#790E11"/>
	</linearGradient>
	<polyline class="st0" points="0,0 0,313 566.9,313 566.9,0.3 	"/>
</g>
<g id="Lag_4">
	<polyline class="st1" points="316,101.3 333.7,94.8 335.7,102.1 316,109 316.4,100.6 	"/>
	
		<radialGradient id="SVGID_2_" cx="339.8923" cy="97.4773" r="16.2256" gradientTransform="matrix(1 0 0 1.155 0 -12.6456)" gradientUnits="userSpaceOnUse">
		<stop  offset="0" style="stop-color:#FFFFFF"/>
		<stop  offset="6.440890e-02" style="stop-color:#FEEBDB"/>
		<stop  offset="0.1609" style="stop-color:#FBCFAB"/>
		<stop  offset="0.2621" style="stop-color:#F7B580"/>
		<stop  offset="0.3662" style="stop-color:#F39E5C"/>
		<stop  offset="0.474" style="stop-color:#F08B40"/>
		<stop  offset="0.5864" style="stop-color:#EE7C2B"/>
		<stop  offset="0.7055" style="stop-color:#EC721B"/>
		<stop  offset="0.8362" style="stop-color:#EB6B0F"/>
		<stop  offset="1" style="stop-color:#EB690B"/>
	</radialGradient>
	<ellipse class="st2" cx="339.9" cy="99.9" rx="18.9" ry="15.1"/>
	
		<radialGradient id="SVGID_3_" cx="373.7477" cy="85.4853" r="16.2259" gradientTransform="matrix(1 0 0 1.155 0 -12.6456)" gradientUnits="userSpaceOnUse">
		<stop  offset="0" style="stop-color:#FFFFFF"/>
		<stop  offset="6.440890e-02" style="stop-color:#FEEBDB"/>
		<stop  offset="0.1609" style="stop-color:#FBCFAB"/>
		<stop  offset="0.2621" style="stop-color:#F7B580"/>
		<stop  offset="0.3662" style="stop-color:#F39E5C"/>
		<stop  offset="0.474" style="stop-color:#F08B40"/>
		<stop  offset="0.5864" style="stop-color:#EE7C2B"/>
		<stop  offset="0.7055" style="stop-color:#EC721B"/>
		<stop  offset="0.8362" style="stop-color:#EB6B0F"/>
		<stop  offset="1" style="stop-color:#EB690B"/>
	</radialGradient>
	<ellipse class="st3" cx="373.7" cy="86.1" rx="18.9" ry="15.1"/>
	
		<radialGradient id="SVGID_4_" cx="223.2991" cy="97.4773" r="16.2259" gradientTransform="matrix(1 0 0 1.155 0 -12.6456)" gradientUnits="userSpaceOnUse">
		<stop  offset="0" style="stop-color:#FFFFFF"/>
		<stop  offset="6.440890e-02" style="stop-color:#FEEBDB"/>
		<stop  offset="0.1609" style="stop-color:#FBCFAB"/>
		<stop  offset="0.2621" style="stop-color:#F7B580"/>
		<stop  offset="0.3662" style="stop-color:#F39E5C"/>
		<stop  offset="0.474" style="stop-color:#F08B40"/>
		<stop  offset="0.5864" style="stop-color:#EE7C2B"/>
		<stop  offset="0.7055" style="stop-color:#EC721B"/>
		<stop  offset="0.8362" style="stop-color:#EB6B0F"/>
		<stop  offset="1" style="stop-color:#EB690B"/>
	</radialGradient>
	<ellipse class="st4" cx="223.3" cy="99.9" rx="18.9" ry="15.1"/>
	
		<radialGradient id="SVGID_5_" cx="255.2481" cy="82.0863" r="16.2261" gradientTransform="matrix(1 0 0 1.155 0 -12.6456)" gradientUnits="userSpaceOnUse">
		<stop  offset="0" style="stop-color:#FFFFFF"/>
		<stop  offset="6.440890e-02" style="stop-color:#FEEBDB"/>
		<stop  offset="0.1609" style="stop-color:#FBCFAB"/>
		<stop  offset="0.2621" style="stop-color:#F7B580"/>
		<stop  offset="0.3662" style="stop-color:#F39E5C"/>
		<stop  offset="0.474" style="stop-color:#F08B40"/>
		<stop  offset="0.5864" style="stop-color:#EE7C2B"/>
		<stop  offset="0.7055" style="stop-color:#EC721B"/>
		<stop  offset="0.8362" style="stop-color:#EB6B0F"/>
		<stop  offset="1" style="stop-color:#EB690B"/>
	</radialGradient>
	<ellipse class="st5" cx="255.2" cy="82.2" rx="18.9" ry="15.1"/>
	
		<radialGradient id="SVGID_6_" cx="292.9532" cy="79.7786" r="16.2254" gradientTransform="matrix(1 0 0 1.155 0 -12.6456)" gradientUnits="userSpaceOnUse">
		<stop  offset="0" style="stop-color:#FFFFFF"/>
		<stop  offset="6.440890e-02" style="stop-color:#FEEBDB"/>
		<stop  offset="0.1609" style="stop-color:#FBCFAB"/>
		<stop  offset="0.2621" style="stop-color:#F7B580"/>
		<stop  offset="0.3662" style="stop-color:#F39E5C"/>
		<stop  offset="0.474" style="stop-color:#F08B40"/>
		<stop  offset="0.5864" style="stop-color:#EE7C2B"/>
		<stop  offset="0.7055" style="stop-color:#EC721B"/>
		<stop  offset="0.8362" style="stop-color:#EB6B0F"/>
		<stop  offset="1" style="stop-color:#EB690B"/>
	</radialGradient>
	<ellipse class="st6" cx="293" cy="79.5" rx="18.9" ry="15.1"/>
	
		<radialGradient id="SVGID_7_" cx="331.8143" cy="83.6259" r="16.2263" gradientTransform="matrix(1 0 0 1.155 0 -12.6456)" gradientUnits="userSpaceOnUse">
		<stop  offset="0" style="stop-color:#FFFFFF"/>
		<stop  offset="6.440890e-02" style="stop-color:#FEEBDB"/>
		<stop  offset="0.1609" style="stop-color:#FBCFAB"/>
		<stop  offset="0.2621" style="stop-color:#F7B580"/>
		<stop  offset="0.3662" style="stop-color:#F39E5C"/>
		<stop  offset="0.474" style="stop-color:#F08B40"/>
		<stop  offset="0.5864" style="stop-color:#EE7C2B"/>
		<stop  offset="0.7055" style="stop-color:#EC721B"/>
		<stop  offset="0.8362" style="stop-color:#EB6B0F"/>
		<stop  offset="1" style="stop-color:#EB690B"/>
	</radialGradient>
	<ellipse class="st7" cx="331.8" cy="83.9" rx="18.9" ry="15.1"/>
	
		<radialGradient id="SVGID_8_" cx="369.1319" cy="88.6273" r="16.2256" gradientTransform="matrix(1 0 0 1.155 0 -12.6456)" gradientUnits="userSpaceOnUse">
		<stop  offset="0" style="stop-color:#FFFFFF"/>
		<stop  offset="6.440890e-02" style="stop-color:#FEEBDB"/>
		<stop  offset="0.1609" style="stop-color:#FBCFAB"/>
		<stop  offset="0.2621" style="stop-color:#F7B580"/>
		<stop  offset="0.3662" style="stop-color:#F39E5C"/>
		<stop  offset="0.474" style="stop-color:#F08B40"/>
		<stop  offset="0.5864" style="stop-color:#EE7C2B"/>
		<stop  offset="0.7055" style="stop-color:#EC721B"/>
		<stop  offset="0.8362" style="stop-color:#EB6B0F"/>
		<stop  offset="1" style="stop-color:#EB690B"/>
	</radialGradient>
	<ellipse class="st8" cx="369.1" cy="89.7" rx="18.9" ry="15.1"/>
	
		<radialGradient id="SVGID_9_" cx="115.5829" cy="82.0863" r="16.2259" gradientTransform="matrix(1 0 0 1.155 0 -12.6456)" gradientUnits="userSpaceOnUse">
		<stop  offset="0" style="stop-color:#FFFFFF"/>
		<stop  offset="6.440890e-02" style="stop-color:#FEEBDB"/>
		<stop  offset="0.1609" style="stop-color:#FBCFAB"/>
		<stop  offset="0.2621" style="stop-color:#F7B580"/>
		<stop  offset="0.3662" style="stop-color:#F39E5C"/>
		<stop  offset="0.474" style="stop-color:#F08B40"/>
		<stop  offset="0.5864" style="stop-color:#EE7C2B"/>
		<stop  offset="0.7055" style="stop-color:#EC721B"/>
		<stop  offset="0.8362" style="stop-color:#EB6B0F"/>
		<stop  offset="1" style="stop-color:#EB690B"/>
	</radialGradient>
	<ellipse class="st9" cx="115.6" cy="82.2" rx="18.9" ry="15.1"/>
	
		<radialGradient id="SVGID_10_" cx="153.2879" cy="79.7786" r="16.2256" gradientTransform="matrix(1 0 0 1.155 0 -12.6456)" gradientUnits="userSpaceOnUse">
		<stop  offset="0" style="stop-color:#FFFFFF"/>
		<stop  offset="6.440890e-02" style="stop-color:#FEEBDB"/>
		<stop  offset="0.1609" style="stop-color:#FBCFAB"/>
		<stop  offset="0.2621" style="stop-color:#F7B580"/>
		<stop  offset="0.3662" style="stop-color:#F39E5C"/>
		<stop  offset="0.474" style="stop-color:#F08B40"/>
		<stop  offset="0.5864" style="stop-color:#EE7C2B"/>
		<stop  offset="0.7055" style="stop-color:#EC721B"/>
		<stop  offset="0.8362" style="stop-color:#EB6B0F"/>
		<stop  offset="1" style="stop-color:#EB690B"/>
	</radialGradient>
	<ellipse class="st10" cx="153.3" cy="79.5" rx="18.9" ry="15.1"/>
	
		<radialGradient id="SVGID_11_" cx="190.993" cy="83.6259" r="16.226" gradientTransform="matrix(1 0 0 1.155 0 -12.6456)" gradientUnits="userSpaceOnUse">
		<stop  offset="0" style="stop-color:#FFFFFF"/>
		<stop  offset="6.440890e-02" style="stop-color:#FEEBDB"/>
		<stop  offset="0.1609" style="stop-color:#FBCFAB"/>
		<stop  offset="0.2621" style="stop-color:#F7B580"/>
		<stop  offset="0.3662" style="stop-color:#F39E5C"/>
		<stop  offset="0.474" style="stop-color:#F08B40"/>
		<stop  offset="0.5864" style="stop-color:#EE7C2B"/>
		<stop  offset="0.7055" style="stop-color:#EC721B"/>
		<stop  offset="0.8362" style="stop-color:#EB6B0F"/>
		<stop  offset="1" style="stop-color:#EB690B"/>
	</radialGradient>
	<ellipse class="st11" cx="191" cy="83.9" rx="18.9" ry="15.1"/>
	
		<radialGradient id="SVGID_12_" cx="228.3139" cy="88.6273" r="16.2259" gradientTransform="matrix(1 0 0 1.155 0 -12.6456)" gradientUnits="userSpaceOnUse">
		<stop  offset="0" style="stop-color:#FFFFFF"/>
		<stop  offset="6.440890e-02" style="stop-color:#FEEBDB"/>
		<stop  offset="0.1609" style="stop-color:#FBCFAB"/>
		<stop  offset="0.2621" style="stop-color:#F7B580"/>
		<stop  offset="0.3662" style="stop-color:#F39E5C"/>
		<stop  offset="0.474" style="stop-color:#F08B40"/>
		<stop  offset="0.5864" style="stop-color:#EE7C2B"/>
		<stop  offset="0.7055" style="stop-color:#EC721B"/>
		<stop  offset="0.8362" style="stop-color:#EB6B0F"/>
		<stop  offset="1" style="stop-color:#EB690B"/>
	</radialGradient>
	<ellipse class="st12" cx="228.3" cy="89.7" rx="18.9" ry="15.1"/>
	
		<radialGradient id="SVGID_13_" cx="409.339" cy="82.0863" r="16.2259" gradientTransform="matrix(1 0 0 1.155 0 -12.6456)" gradientUnits="userSpaceOnUse">
		<stop  offset="0" style="stop-color:#FFFFFF"/>
		<stop  offset="6.440890e-02" style="stop-color:#FEEBDB"/>
		<stop  offset="0.1609" style="stop-color:#FBCFAB"/>
		<stop  offset="0.2621" style="stop-color:#F7B580"/>
		<stop  offset="0.3662" style="stop-color:#F39E5C"/>
		<stop  offset="0.474" style="stop-color:#F08B40"/>
		<stop  offset="0.5864" style="stop-color:#EE7C2B"/>
		<stop  offset="0.7055" style="stop-color:#EC721B"/>
		<stop  offset="0.8362" style="stop-color:#EB6B0F"/>
		<stop  offset="1" style="stop-color:#EB690B"/>
	</radialGradient>
	<ellipse class="st13" cx="409.3" cy="82.2" rx="18.9" ry="15.1"/>
	
		<radialGradient id="SVGID_14_" cx="447.044" cy="79.7786" r="16.2256" gradientTransform="matrix(1 0 0 1.155 0 -12.6456)" gradientUnits="userSpaceOnUse">
		<stop  offset="0" style="stop-color:#FFFFFF"/>
		<stop  offset="6.440890e-02" style="stop-color:#FEEBDB"/>
		<stop  offset="0.1609" style="stop-color:#FBCFAB"/>
		<stop  offset="0.2621" style="stop-color:#F7B580"/>
		<stop  offset="0.3662" style="stop-color:#F39E5C"/>
		<stop  offset="0.474" style="stop-color:#F08B40"/>
		<stop  offset="0.5864" style="stop-color:#EE7C2B"/>
		<stop  offset="0.7055" style="stop-color:#EC721B"/>
		<stop  offset="0.8362" style="stop-color:#EB6B0F"/>
		<stop  offset="1" style="stop-color:#EB690B"/>
	</radialGradient>
	<ellipse class="st14" cx="447" cy="79.5" rx="18.9" ry="15.1"/>
	<linearGradient id="SVGID_15_" gradientUnits="userSpaceOnUse" x1="191.5695" y1="91.9045" x2="203.6836" y2="91.9045">
		<stop  offset="0" style="stop-color:#FFFFFF"/>
		<stop  offset="1" style="stop-color:#009EE0"/>
	</linearGradient>
	<circle class="st15" cx="197.6" cy="91.9" r="6.1"/>
	<linearGradient id="SVGID_16_" gradientUnits="userSpaceOnUse" x1="216.5787" y1="99.6689" x2="228.693" y2="99.6689">
		<stop  offset="0" style="stop-color:#FFFFFF"/>
		<stop  offset="1" style="stop-color:#009EE0"/>
	</linearGradient>
	<circle class="st16" cx="222.6" cy="99.7" r="6.1"/>
	<linearGradient id="SVGID_17_" gradientUnits="userSpaceOnUse" x1="139.2204" y1="79.301" x2="151.3345" y2="79.301">
		<stop  offset="0" style="stop-color:#FFFFFF"/>
		<stop  offset="1" style="stop-color:#009EE0"/>
	</linearGradient>
	<circle class="st17" cx="145.3" cy="79.3" r="6.1"/>
	<path class="st1" d="M446,113.2c0,0-13.5,4.1-39.6,2.4c-26.1-1.8-98.9-26.6-122.9-31.4c-15.3-3-37.3,0-37.3,0s-1-1.6-1.5-2.4
		c-0.4-0.5-3-3.2-3-3.2s26.5-4.5,41.9-1.5c24.1,4.7,96.8,29.6,122.9,31.4c26.1,1.8,39.6-2.4,39.6-2.4V113.2z"/>
	<path class="st1" d="M305.2,113.2c0,0-13.5,4.1-39.6,2.4c-26.1-1.8-98.9-26.6-122.9-31.4c-15.3-3-47.1,1.2-47.1,1.2v-7.1
		c0,0,31.8-4.2,47.1-1.2c24.1,4.7,96.8,29.6,122.9,31.4c26.1,1.8,39.6-2.4,39.6-2.4V113.2z"/>
	<path class="st1" d="M459.7,90.3c-8.5-2.8-16.1-5-22.1-6.1c-23.1-4.2-50.5,0.1-50.5,0.1s-0.7-0.8-1.6-2.6c-0.8-1.5-2-2.6-2-2.6
		s37.6-5.1,53-2.1c6.9,1.4,16.1,4.2,26.2,7.6"/>
	
		<radialGradient id="SVGID_18_" cx="406.068" cy="92.8609" r="16.2257" gradientTransform="matrix(1 0 0 1.155 0 -12.6456)" gradientUnits="userSpaceOnUse">
		<stop  offset="0" style="stop-color:#FFFFFF"/>
		<stop  offset="6.440890e-02" style="stop-color:#FEEBDB"/>
		<stop  offset="0.1609" style="stop-color:#FBCFAB"/>
		<stop  offset="0.2621" style="stop-color:#F7B580"/>
		<stop  offset="0.3662" style="stop-color:#F39E5C"/>
		<stop  offset="0.474" style="stop-color:#F08B40"/>
		<stop  offset="0.5864" style="stop-color:#EE7C2B"/>
		<stop  offset="0.7055" style="stop-color:#EC721B"/>
		<stop  offset="0.8362" style="stop-color:#EB6B0F"/>
		<stop  offset="1" style="stop-color:#EB690B"/>
	</radialGradient>
	<ellipse class="st18" cx="406.1" cy="94.6" rx="18.9" ry="15.1"/>
	
		<radialGradient id="SVGID_19_" cx="442.6217" cy="99.4006" r="16.2259" gradientTransform="matrix(1 0 0 1.155 0 -12.6456)" gradientUnits="userSpaceOnUse">
		<stop  offset="0" style="stop-color:#FFFFFF"/>
		<stop  offset="6.440890e-02" style="stop-color:#FEEBDB"/>
		<stop  offset="0.1609" style="stop-color:#FBCFAB"/>
		<stop  offset="0.2621" style="stop-color:#F7B580"/>
		<stop  offset="0.3662" style="stop-color:#F39E5C"/>
		<stop  offset="0.474" style="stop-color:#F08B40"/>
		<stop  offset="0.5864" style="stop-color:#EE7C2B"/>
		<stop  offset="0.7055" style="stop-color:#EC721B"/>
		<stop  offset="0.8362" style="stop-color:#EB6B0F"/>
		<stop  offset="1" style="stop-color:#EB690B"/>
	</radialGradient>
	<ellipse class="st19" cx="442.6" cy="102.2" rx="18.9" ry="15.1"/>
	
		<radialGradient id="SVGID_20_" cx="112.7879" cy="92.8609" r="16.2256" gradientTransform="matrix(1 0 0 1.155 0 -12.6456)" gradientUnits="userSpaceOnUse">
		<stop  offset="0" style="stop-color:#FFFFFF"/>
		<stop  offset="6.440890e-02" style="stop-color:#FEEBDB"/>
		<stop  offset="0.1609" style="stop-color:#FBCFAB"/>
		<stop  offset="0.2621" style="stop-color:#F7B580"/>
		<stop  offset="0.3662" style="stop-color:#F39E5C"/>
		<stop  offset="0.474" style="stop-color:#F08B40"/>
		<stop  offset="0.5864" style="stop-color:#EE7C2B"/>
		<stop  offset="0.7055" style="stop-color:#EC721B"/>
		<stop  offset="0.8362" style="stop-color:#EB6B0F"/>
		<stop  offset="1" style="stop-color:#EB690B"/>
	</radialGradient>
	<ellipse class="st20" cx="112.8" cy="94.6" rx="18.9" ry="15.1"/>
	
		<radialGradient id="SVGID_21_" cx="149.3395" cy="99.4006" r="16.2259" gradientTransform="matrix(1 0 0 1.155 0 -12.6456)" gradientUnits="userSpaceOnUse">
		<stop  offset="0" style="stop-color:#FFFFFF"/>
		<stop  offset="6.440890e-02" style="stop-color:#FEEBDB"/>
		<stop  offset="0.1609" style="stop-color:#FBCFAB"/>
		<stop  offset="0.2621" style="stop-color:#F7B580"/>
		<stop  offset="0.3662" style="stop-color:#F39E5C"/>
		<stop  offset="0.474" style="stop-color:#F08B40"/>
		<stop  offset="0.5864" style="stop-color:#EE7C2B"/>
		<stop  offset="0.7055" style="stop-color:#EC721B"/>
		<stop  offset="0.8362" style="stop-color:#EB6B0F"/>
		<stop  offset="1" style="stop-color:#EB690B"/>
	</radialGradient>
	<ellipse class="st21" cx="149.3" cy="102.2" rx="18.9" ry="15.1"/>
	
		<radialGradient id="SVGID_22_" cx="265.2503" cy="92.8609" r="16.2261" gradientTransform="matrix(1 0 0 1.155 0 -12.6456)" gradientUnits="userSpaceOnUse">
		<stop  offset="0" style="stop-color:#FFFFFF"/>
		<stop  offset="6.440890e-02" style="stop-color:#FEEBDB"/>
		<stop  offset="0.1609" style="stop-color:#FBCFAB"/>
		<stop  offset="0.2621" style="stop-color:#F7B580"/>
		<stop  offset="0.3662" style="stop-color:#F39E5C"/>
		<stop  offset="0.474" style="stop-color:#F08B40"/>
		<stop  offset="0.5864" style="stop-color:#EE7C2B"/>
		<stop  offset="0.7055" style="stop-color:#EC721B"/>
		<stop  offset="0.8362" style="stop-color:#EB6B0F"/>
		<stop  offset="1" style="stop-color:#EB690B"/>
	</radialGradient>
	<ellipse class="st22" cx="265.2" cy="94.6" rx="18.9" ry="15.1"/>
	
		<radialGradient id="SVGID_23_" cx="301.8011" cy="99.4006" r="16.2263" gradientTransform="matrix(1 0 0 1.155 0 -12.6456)" gradientUnits="userSpaceOnUse">
		<stop  offset="0" style="stop-color:#FFFFFF"/>
		<stop  offset="6.440890e-02" style="stop-color:#FEEBDB"/>
		<stop  offset="0.1609" style="stop-color:#FBCFAB"/>
		<stop  offset="0.2621" style="stop-color:#F7B580"/>
		<stop  offset="0.3662" style="stop-color:#F39E5C"/>
		<stop  offset="0.474" style="stop-color:#F08B40"/>
		<stop  offset="0.5864" style="stop-color:#EE7C2B"/>
		<stop  offset="0.7055" style="stop-color:#EC721B"/>
		<stop  offset="0.8362" style="stop-color:#EB6B0F"/>
		<stop  offset="1" style="stop-color:#EB690B"/>
	</radialGradient>
	<ellipse class="st23" cx="301.8" cy="102.2" rx="18.9" ry="15.1"/>
	<path class="st1" d="M184.7,90.4c0,0-47.9,29-90,8c-1.5,5.8-1.5,8.1-1.5,8.1s45.8,22.1,92.2-11L184.7,90.4z"/>
	
		<radialGradient id="SVGID_24_" cx="187.4299" cy="103.2479" r="16.2261" gradientTransform="matrix(1 0 0 1.155 0 -12.6456)" gradientUnits="userSpaceOnUse">
		<stop  offset="0" style="stop-color:#FFFFFF"/>
		<stop  offset="6.440890e-02" style="stop-color:#FEEBDB"/>
		<stop  offset="0.1609" style="stop-color:#FBCFAB"/>
		<stop  offset="0.2621" style="stop-color:#F7B580"/>
		<stop  offset="0.3662" style="stop-color:#F39E5C"/>
		<stop  offset="0.474" style="stop-color:#F08B40"/>
		<stop  offset="0.5864" style="stop-color:#EE7C2B"/>
		<stop  offset="0.7055" style="stop-color:#EC721B"/>
		<stop  offset="0.8362" style="stop-color:#EB6B0F"/>
		<stop  offset="1" style="stop-color:#EB690B"/>
	</radialGradient>
	<ellipse class="st24" cx="187.4" cy="106.6" rx="18.9" ry="15.1"/>
</g>
<g id="troponin">
	
		<radialGradient id="SVGID_25_" cx="-41.4659" cy="-207.6018" r="27.7886" gradientTransform="matrix(-6.600000e-03 0.4759 -0.6389 -4.900000e-03 201.3384 110.9696)" gradientUnits="userSpaceOnUse">
		<stop  offset="0" style="stop-color:#006941"/>
		<stop  offset="0.1853" style="stop-color:#006B42"/>
		<stop  offset="0.3875" style="stop-color:#007046"/>
		<stop  offset="0.5976" style="stop-color:#00794C"/>
		<stop  offset="0.8119" style="stop-color:#008653"/>
		<stop  offset="0.8539" style="stop-color:#008855"/>
		<stop  offset="1" style="stop-color:#006941"/>
	</radialGradient>
	<path class="st25" d="M334.1,103.5c-11.1-0.1-20-5.2-19.9-11.4c0.1-6.2,9.2-11.1,20.3-11c11.1,0.1,20,5.2,19.9,11.4
		C354.3,98.6,345.2,103.5,334.1,103.5z"/>
	
		<linearGradient id="SVGID_26_" gradientUnits="userSpaceOnUse" x1="56.8464" y1="58.4711" x2="70.8129" y2="58.4711" gradientTransform="matrix(-1.040000e-02 0.9999 -0.9999 -1.040000e-02 393.5497 27.1)">
		<stop  offset="0" style="stop-color:#74BF9D"/>
		<stop  offset="1.280464e-02" style="stop-color:#6EBC9A"/>
		<stop  offset="0.1433" style="stop-color:#18A479"/>
		<stop  offset="0.2604" style="stop-color:#009464"/>
		<stop  offset="0.359" style="stop-color:#008C58"/>
		<stop  offset="0.427" style="stop-color:#008855"/>
		<stop  offset="0.8876" style="stop-color:#003620"/>
	</linearGradient>
	<path class="st26" d="M334.3,97.3c-6.9-0.1-12.5-3.2-12.4-7.1c0.1-3.9,5.7-6.9,12.6-6.9c6.9,0.1,12.5,3.2,12.4,7.1
		C346.9,94.3,341.2,97.4,334.3,97.3z"/>
	
		<radialGradient id="SVGID_27_" cx="-60.1023" cy="65.7603" r="27.7887" gradientTransform="matrix(-6.600000e-03 0.4759 -0.6389 -4.900000e-03 201.3384 110.9696)" gradientUnits="userSpaceOnUse">
		<stop  offset="0" style="stop-color:#006941"/>
		<stop  offset="0.1853" style="stop-color:#006B42"/>
		<stop  offset="0.3875" style="stop-color:#007046"/>
		<stop  offset="0.5976" style="stop-color:#00794C"/>
		<stop  offset="0.8119" style="stop-color:#008653"/>
		<stop  offset="0.8539" style="stop-color:#008855"/>
		<stop  offset="1" style="stop-color:#006941"/>
	</radialGradient>
	<path class="st27" d="M159.6,93.2c-11.1-0.1-20-5.2-19.9-11.4c0.1-6.2,9.2-11.1,20.3-11c11.1,0.1,20,5.2,19.9,11.4
		C179.7,88.4,170.7,93.3,159.6,93.2z"/>
	
		<linearGradient id="SVGID_28_" gradientUnits="userSpaceOnUse" x1="48.4533" y1="233.104" x2="62.4196" y2="233.104" gradientTransform="matrix(-1.040000e-02 0.9999 -0.9999 -1.040000e-02 393.5497 27.1)">
		<stop  offset="0" style="stop-color:#74BF9D"/>
		<stop  offset="1.280464e-02" style="stop-color:#6EBC9A"/>
		<stop  offset="0.1433" style="stop-color:#18A479"/>
		<stop  offset="0.2604" style="stop-color:#009464"/>
		<stop  offset="0.359" style="stop-color:#008C58"/>
		<stop  offset="0.427" style="stop-color:#008855"/>
		<stop  offset="0.8876" style="stop-color:#003620"/>
	</linearGradient>
	<path class="st28" d="M159.8,87.1c-6.9-0.1-12.5-3.2-12.4-7.1c0.1-3.9,5.7-6.9,12.6-6.9c6.9,0.1,12.5,3.2,12.4,7.1
		C172.4,84.1,166.7,87.1,159.8,87.1z"/>
	
		<radialGradient id="SVGID_29_" cx="-71.6417" cy="-363.8089" r="27.788" gradientTransform="matrix(-6.600000e-03 0.4759 -0.6389 -4.900000e-03 201.3384 110.9696)" gradientUnits="userSpaceOnUse">
		<stop  offset="0" style="stop-color:#006941"/>
		<stop  offset="0.1853" style="stop-color:#006B42"/>
		<stop  offset="0.3875" style="stop-color:#007046"/>
		<stop  offset="0.5976" style="stop-color:#00794C"/>
		<stop  offset="0.8119" style="stop-color:#008653"/>
		<stop  offset="0.8539" style="stop-color:#008855"/>
		<stop  offset="1" style="stop-color:#006941"/>
	</radialGradient>
	<path class="st29" d="M434.1,89.9c-11.1-0.1-20-5.2-19.9-11.4c0.1-6.2,9.2-11.1,20.3-11c11.1,0.1,20,5.2,19.9,11.4
		C454.3,85,445.2,89.9,434.1,89.9z"/>
	
		<linearGradient id="SVGID_30_" gradientUnits="userSpaceOnUse" x1="42.2113" y1="-41.386" x2="56.1776" y2="-41.386" gradientTransform="matrix(-1.040000e-02 0.9999 -0.9999 -1.040000e-02 393.5497 27.1)">
		<stop  offset="0" style="stop-color:#74BF9D"/>
		<stop  offset="1.280464e-02" style="stop-color:#6EBC9A"/>
		<stop  offset="0.1433" style="stop-color:#18A479"/>
		<stop  offset="0.2604" style="stop-color:#009464"/>
		<stop  offset="0.359" style="stop-color:#008C58"/>
		<stop  offset="0.427" style="stop-color:#008855"/>
		<stop  offset="0.8876" style="stop-color:#003620"/>
	</linearGradient>
	<path class="st30" d="M434.3,83.7c-6.9-0.1-12.5-3.2-12.4-7.1c0.1-3.9,5.7-6.9,12.6-6.9c6.9,0.1,12.5,3.2,12.4,7.1
		C446.9,80.7,441.2,83.8,434.3,83.7z"/>
	
		<radialGradient id="SVGID_31_" cx="-69.809" cy="-106.9012" r="27.788" gradientTransform="matrix(-6.600000e-03 0.4759 -0.6389 -4.900000e-03 201.3384 110.9696)" gradientUnits="userSpaceOnUse">
		<stop  offset="0" style="stop-color:#006941"/>
		<stop  offset="0.1853" style="stop-color:#006B42"/>
		<stop  offset="0.3875" style="stop-color:#007046"/>
		<stop  offset="0.5976" style="stop-color:#00794C"/>
		<stop  offset="0.8119" style="stop-color:#008653"/>
		<stop  offset="0.8539" style="stop-color:#008855"/>
		<stop  offset="1" style="stop-color:#006941"/>
	</radialGradient>
	<path class="st31" d="M269.9,89.5c-11.1-0.1-20-5.2-19.9-11.4c0.1-6.2,9.2-11.1,20.3-11c11.1,0.1,20,5.2,19.9,11.4
		C290.1,84.6,281,89.6,269.9,89.5z"/>
	
		<linearGradient id="SVGID_32_" gradientUnits="userSpaceOnUse" x1="43.5318" y1="122.7671" x2="57.4983" y2="122.7671" gradientTransform="matrix(-1.040000e-02 0.9999 -0.9999 -1.040000e-02 393.5497 27.1)">
		<stop  offset="0" style="stop-color:#74BF9D"/>
		<stop  offset="1.280464e-02" style="stop-color:#6EBC9A"/>
		<stop  offset="0.1433" style="stop-color:#18A479"/>
		<stop  offset="0.2604" style="stop-color:#009464"/>
		<stop  offset="0.359" style="stop-color:#008C58"/>
		<stop  offset="0.427" style="stop-color:#008855"/>
		<stop  offset="0.8876" style="stop-color:#003620"/>
	</linearGradient>
	<path class="st32" d="M270.2,83.3c-6.9-0.1-12.5-3.2-12.4-7.1c0.1-3.9,5.7-6.9,12.6-6.9c6.9,0.1,12.5,3.2,12.4,7.1
		C282.7,80.3,277.1,83.4,270.2,83.3z"/>
</g>
<g id="myosinhoved">
	<linearGradient id="SVGID_33_" gradientUnits="userSpaceOnUse" x1="277.9391" y1="285.502" x2="277.9391" y2="239.7724">
		<stop  offset="0" style="stop-color:#9D0D16"/>
		<stop  offset="0.1946" style="stop-color:#9F1116"/>
		<stop  offset="0.3409" style="stop-color:#A61E19"/>
		<stop  offset="0.4713" style="stop-color:#B12F1F"/>
		<stop  offset="0.5925" style="stop-color:#C24629"/>
		<stop  offset="0.7062" style="stop-color:#D8663C"/>
		<stop  offset="0.8034" style="stop-color:#F08B56"/>
		<stop  offset="0.8201" style="stop-color:#E57A4A"/>
		<stop  offset="0.8761" style="stop-color:#C54A2B"/>
		<stop  offset="0.9267" style="stop-color:#AF2B1D"/>
		<stop  offset="0.9697" style="stop-color:#A21617"/>
		<stop  offset="1" style="stop-color:#9D0D16"/>
	</linearGradient>
	<rect x="87.2" y="239.8" class="st33" width="381.5" height="45.7"/>
	<g>
		<path class="st34" d="M243.2,212.7c0,0,4.4,1.8,6.4,3.1c2,1.3,4.1,2.9,5.5,5.1c1.5,2.1,3.6,7.7,5.3,10c1.6,2.3,4.7,5.8,6.1,6.9
			c-3.3-1.5-5.4-2.6-8.4-4.6c-2.7-1.8-4.9-3.6-7.2-6.4c-2.2-2.8-3.4-4.6-4.5-7C245.5,217.9,244.5,214.1,243.2,212.7z"/>
		<path class="st34" d="M255.1,220.9c0,0,4.4,1.8,6.4,3.1c2,1.3,4,2.9,5.5,5.1c1.5,2.1,3.6,7.7,5.3,10c1.6,2.3,6.6,4.8,7.9,5.9
			c-3.9-0.9-7.3-1.6-10.3-3.6c-2.7-1.8-4.9-3.6-7.2-6.4c-2.2-2.8-3.4-4.6-4.5-7C257.4,226.1,256.4,222.3,255.1,220.9z"/>
		<path class="st34" d="M267,229.1c0,0,4.4,1.8,6.4,3.1c2,1.3,4.9,2.8,7,4.4c2.8,2.2,5.1,3.7,7.5,5.2c2.6,1.5,7.9,2.1,9.3,3.2
			c-2.8,0-5.8,0.1-12.7,0c-3.2-0.1-6.9,0.2-9.8-1.8c-2.9-2.1-3.4-4.6-4.5-7C269.4,234.3,268.3,230.5,267,229.1z"/>
		<path class="st34" d="M231.3,204.5c0,0,4.4,1.8,6.4,3.1c2,1.3,4,2.9,5.5,5.1c1.5,2.1,3.6,7.7,5.3,10c1.6,2.3,4.7,5.8,6.1,6.9
			c-3.3-1.5-5.4-2.6-8.4-4.6c-2.7-1.8-4.9-3.6-7.2-6.4c-2.2-2.8-3.4-4.6-4.5-7C233.6,209.8,232.5,205.9,231.3,204.5z"/>
	</g>
	<g>
		<g>
			<g>
				<path class="st34" d="M231.2,208.2c0.1-0.3,0.9,1.5,1.7-1.7c4-17,10.2-16.1,22.7-30.4c12.6-14.3,2.2-35.8-12.9-35.9
					c-15-0.1-23.3,12.8-21.7,27.1c1.6,14.3,4.4,24.5,3.9,32.8c-0.5,8.3,0.9,2.3,0.9,2.3"/>
				
					<radialGradient id="SVGID_34_" cx="376.9203" cy="80.4042" r="20.8041" gradientTransform="matrix(-6.050000e-02 0.9982 -0.9982 -6.050000e-02 344.1638 -209.7304)" gradientUnits="userSpaceOnUse">
					<stop  offset="5.617980e-03" style="stop-color:#FFFFFF"/>
					<stop  offset="0.1686" style="stop-color:#F7D3C2"/>
					<stop  offset="0.3964" style="stop-color:#E99677"/>
					<stop  offset="0.6017" style="stop-color:#DE6344"/>
					<stop  offset="0.7771" style="stop-color:#D73C29"/>
					<stop  offset="0.9156" style="stop-color:#D3191D"/>
					<stop  offset="1" style="stop-color:#D10019"/>
				</radialGradient>
				<path class="st35" d="M248.3,183.6c2.2-2,4.6-4.4,7.3-7.5c12.6-14.3,2.2-35.8-12.9-35.9c-15-0.1-23.3,12.8-21.7,27.1
					c0.5,4.6,1.2,8.9,1.8,12.7"/>
			</g>
			<g>
				<path class="st34" d="M238.7,219.7c-7.8-15.6-1.5-25.7,4.7-43.7c6.2-18-11.5-33.9-25.5-28.3c-13.9,5.6-16.7,20.7-9.8,33.3
					c5.1,9.4,10.2,17,17.7,27.9C231.2,216.8,238.7,219.7,238.7,219.7"/>
				<path class="st34" d="M277.8,346.7"/>
				
					<radialGradient id="SVGID_35_" cx="273.9974" cy="301.9752" r="20.8051" gradientTransform="matrix(0.3219 0.9468 -0.9468 0.3219 422.2445 -188.4905)" gradientUnits="userSpaceOnUse">
					<stop  offset="5.617980e-03" style="stop-color:#FFFFFF"/>
					<stop  offset="0.1686" style="stop-color:#F7D3C2"/>
					<stop  offset="0.3964" style="stop-color:#E99677"/>
					<stop  offset="0.6017" style="stop-color:#DE6344"/>
					<stop  offset="0.7771" style="stop-color:#D73C29"/>
					<stop  offset="0.9156" style="stop-color:#D3191D"/>
					<stop  offset="1" style="stop-color:#D10019"/>
				</radialGradient>
				<path class="st36" d="M239.5,185.7c1.2-2.7,2.6-5.8,3.9-9.7c6.2-18-11.5-33.9-25.5-28.3c-13.9,5.6-16.7,20.7-9.8,33.3
					c2.3,4.1,4.4,7.7,6.5,11.1"/>
			</g>
		</g>
		
			<linearGradient id="SVGID_36_" gradientUnits="userSpaceOnUse" x1="252.8731" y1="296.286" x2="265.7713" y2="296.286" gradientTransform="matrix(0.3219 0.9468 -0.9468 0.3219 422.2445 -188.4905)">
			<stop  offset="0" style="stop-color:#FFFFFF"/>
			<stop  offset="9.513974e-02" style="stop-color:#DBDBDB"/>
			<stop  offset="0.2855" style="stop-color:#9A9A9A"/>
			<stop  offset="0.4668" style="stop-color:#636363"/>
			<stop  offset="0.6338" style="stop-color:#383838"/>
			<stop  offset="0.7835" style="stop-color:#191919"/>
			<stop  offset="0.9106" style="stop-color:#070707"/>
			<stop  offset="1" style="stop-color:#000000"/>
		</linearGradient>
		<path class="st37" d="M224.7,158.4c-4.6-0.4-8.2-3.4-7.9-6.7c0.3-3.3,4.3-5.6,8.9-5.2c4.6,0.4,8.2,3.4,7.9,6.7
			C233.3,156.4,229.3,158.8,224.7,158.4z"/>
		
			<linearGradient id="SVGID_37_" gradientUnits="userSpaceOnUse" x1="253.8532" y1="275.6806" x2="266.7509" y2="275.6806" gradientTransform="matrix(0.3219 0.9468 -0.9468 0.3219 422.2445 -188.4905)">
			<stop  offset="0" style="stop-color:#FFFFFF"/>
			<stop  offset="9.513974e-02" style="stop-color:#DBDBDB"/>
			<stop  offset="0.2855" style="stop-color:#9A9A9A"/>
			<stop  offset="0.4668" style="stop-color:#636363"/>
			<stop  offset="0.6338" style="stop-color:#383838"/>
			<stop  offset="0.7835" style="stop-color:#191919"/>
			<stop  offset="0.9106" style="stop-color:#070707"/>
			<stop  offset="1" style="stop-color:#000000"/>
		</linearGradient>
		<path class="st38" d="M244.5,152.7c-4.6-0.4-8.2-3.4-7.9-6.7c0.3-3.3,4.3-5.6,8.9-5.2c4.6,0.4,8.2,3.4,7.9,6.7
			C253.1,150.7,249.1,153.1,244.5,152.7z"/>
	</g>
	<g>
		<path class="st34" d="M277.6,234.2c0,0,6.3,1.4,8.8,1.3c2.4-0.1,5,0.1,7.4,1.1c2.4,0.9,7.3,4.3,10,5.3c2.7,1,7.2,2.1,8.9,2.2
			c-3.6,0.6-5.9,0.9-9.5,1c-3.2,0.1-6.1-0.2-9.5-1.3c-3.4-1.1-5.4-1.9-7.7-3.2C284.2,239.6,279.5,234.7,277.6,234.2z"/>
		<path class="st34" d="M293.8,236.6c0,0,4.6-1,7-1.1c2.4-0.1,5,0.1,7.4,1.1c2.4,0.9,7.3,4.3,10,5.3c2.7,1,7.2,2.1,8.9,2.2
			c-3.6,0.6-5.9,0.9-9.5,1c-3.2,0.1-6.1-0.2-9.5-1.3c-3.4-1.1-5.4-1.9-7.7-3.2C298.7,239.6,295.7,237,293.8,236.6z"/>
		<path class="st34" d="M308.3,236.6c0,0,4.6-1,7-1.1c2.4-0.1,5,0.1,7.4,1.1c2.4,0.9,7.3,4.3,10,5.3c2.7,1,7.2,2.1,8.9,2.2
			c-3.6,0.6-5.9,0.9-9.5,1c-3.2,0.1-6.1-0.2-9.5-1.3c-3.4-1.1-5.4-1.9-7.7-3.2C313.2,239.6,310.1,237,308.3,236.6z"/>
		<path class="st34" d="M322.7,236.6c0,0,4.6-1,7-1.1c2.4-0.1,5,0.1,7.4,1.1c2.4,0.9,7.3,4.3,10,5.3c2.7,1,7.2,2.1,8.9,2.2
			c-3.6,0.6-5.9,0.9-9.5,1c-3.2,0.1-6.1-0.2-9.5-1.3c-3.4-1.1-5.4-1.9-7.7-3.2C327.6,239.6,324.6,237,322.7,236.6z"/>
		<path class="st34" d="M337.2,236.6c0,0,4.6-1,7-1.1c2.4-0.1,5,0.1,7.4,1.1c2.4,0.9,7.4,4.3,10,5.3c2.7,1,7.2,2.1,8.9,2.2
			c-3.6,0.6-5.9,0.9-9.5,1c-3.2,0.1-6.1-0.2-9.5-1.3c-3.4-1.1-5.4-1.9-7.7-3.2C342.1,239.6,339.1,237,337.2,236.6z"/>
		<path class="st34" d="M351.7,236.6c0,0,4.6-1,7-1.1c2.4-0.1,5,0.1,7.4,1.1c2.4,0.9,7.3,4.3,10,5.3c2.7,1,7.2,2.1,8.9,2.2
			c-3.6,0.6-5.9,0.9-9.5,1c-3.2,0.1-6.1-0.2-9.5-1.3c-3.4-1.1-5.4-1.9-7.7-3.2C356.6,239.6,353.5,237,351.7,236.6z"/>
		<path class="st34" d="M366.1,236.6c0,0,4.6-1,7-1.1c2.4-0.1,5,0.1,7.4,1.1c2.4,0.9,7.3,4.3,10,5.3c2.7,1,7.2,2.1,8.9,2.2
			c-3.6,0.6-5.9,0.9-9.5,1c-3.2,0.1-6.1-0.2-9.5-1.3c-3.4-1.1-5.4-1.9-7.7-3.2C371,239.6,368,237,366.1,236.6z"/>
		<path class="st34" d="M380.6,236.6c0,0,4.6-1,7-1.1c2.4-0.1,5,0.1,7.4,1.1c2.4,0.9,7.4,4.3,10,5.3c2.7,1,7.2,2.1,8.9,2.2
			c-3.6,0.6-5.9,0.9-9.5,1c-3.2,0.1-6.1-0.2-9.5-1.3c-3.4-1.1-5.4-1.9-7.7-3.2C385.5,239.6,382.5,237,380.6,236.6z"/>
		<path class="st34" d="M395.1,236.6c0,0,4.6-1,7-1.1c2.4-0.1,5,0.1,7.4,1.1c2.4,0.9,7.3,4.3,10,5.3c2.7,1,7.2,2.1,8.9,2.2
			c-3.6,0.6-5.9,0.9-9.5,1c-3.2,0.1-6.1-0.2-9.5-1.3c-3.4-1.1-5.4-1.9-7.7-3.2C400,239.6,396.9,237,395.1,236.6z"/>
		<path class="st34" d="M409.5,236.6c0,0,4.6-1,7-1.1c2.4-0.1,5,0.1,7.4,1.1c2.4,0.9,7.4,4.3,10,5.3c2.7,1,7.2,2.1,8.9,2.2
			c-3.6,0.6-5.9,0.9-9.5,1c-3.2,0.1-6.1-0.2-9.5-1.3c-3.4-1.1-5.4-1.9-7.7-3.2C414.4,239.6,411.4,237,409.5,236.6z"/>
	</g>
</g>
<g id="pile">
	<line class="st39" x1="116.5" y1="69.4" x2="116.5" y2="37"/>
	<line class="st39" x1="272.4" y1="76" x2="272.4" y2="37"/>
	<line class="st39" x1="370.1" y1="105.3" x2="370.1" y2="37"/>
	<line class="st39" x1="278.1" y1="165.4" x2="253.4" y2="165.4"/>
	<line class="st39" x1="161.8" y1="143.8" x2="223.3" y2="98.5"/>
	<line class="st39" x1="372.4" y1="241" x2="372.4" y2="202"/>
</g>
<g id="txt">
	<text transform="matrix(1 0 0 1 80.5474 29.0867)" class="st40 st41 st42">Aktin-filament</text>
	<text transform="matrix(1 0 0 1 280.4238 169.3279)" class="st40 st41 st42">Myosinhoved</text>
	<text transform="matrix(1 0 0 1 224.4238 265.2078)" class="st40 st41 st42">Myosin-filament</text>
	<text transform="matrix(1 0 0 1 250.9351 29.0866)" class="st40 st41 st42">Troponin</text>
	<text transform="matrix(1 0 0 1 344.2295 29.0866)" class="st40 st41 st42">Tropomyosin</text>
	<text transform="matrix(1 0 0 1 85.2451 156.1452)"><tspan x="0" y="0" class="st40 st41 st42">Bindingssted for</tspan><tspan x="0" y="10.8" class="st40 st41 st42">myosinhoved</tspan><tspan x="0" y="21.6" class="st40 st41 st42">(blokeret)</tspan></text>
	<text transform="matrix(1 0 0 1 343.4238 197.3279)" class="st40 st41 st42">Myosinhale</text>
</g>
</svg>
