<?xml version="1.0" encoding="utf-8"?>
<!-- Generator: Adobe Illustrator 21.1.0, SVG Export Plug-In . SVG Version: 6.00 Build 0)  -->
<svg version="1.1" xmlns="http://www.w3.org/2000/svg" xmlns:xlink="http://www.w3.org/1999/xlink" x="0px" y="0px"
	 viewBox="0 0 269.3 481" style="enable-background:new 0 0 269.3 481;" xml:space="preserve">
<style type="text/css">
	.st0{fill:url(#SVGID_1_);}
	.st1{fill:#FFE3A4;}
	.st2{fill:none;stroke:#000000;stroke-width:0.5;}
	.st3{fill:#FCD399;stroke:#000000;stroke-width:0.5;}
	.st4{fill:url(#SVGID_2_);stroke:#000000;stroke-width:0.5;}
	.st5{fill:url(#SVGID_3_);stroke:#000000;stroke-width:0.5;stroke-dasharray:2,2;}
	.st6{fill:url(#SVGID_4_);stroke:#000000;stroke-width:0.5;stroke-dasharray:2,2;}
	.st7{fill:#FFFFFF;stroke:#000000;stroke-width:0.5;}
	.st8{fill:#ECEDED;stroke:#000000;stroke-width:0.5;}
	.st9{fill:none;stroke:#FFFFFF;stroke-width:0.75;}
	.st10{fill:#E64715;}
	.st11{font-family:'Verdana';}
	.st12{font-size:9px;}
</style>
<g id="Lag_6">
	<linearGradient id="SVGID_1_" gradientUnits="userSpaceOnUse" x1="134.6455" y1="482.6153" x2="134.6455" y2="135.6667">
		<stop  offset="5.617980e-03" style="stop-color:#38BEEA"/>
		<stop  offset="0.1175" style="stop-color:#00B5D8"/>
		<stop  offset="0.2935" style="stop-color:#00AABE"/>
		<stop  offset="0.471" style="stop-color:#00A2AA"/>
		<stop  offset="0.648" style="stop-color:#009C9B"/>
		<stop  offset="0.8245" style="stop-color:#009892"/>
		<stop  offset="1" style="stop-color:#009790"/>
	</linearGradient>
	<rect y="135.7" class="st0" width="269.3" height="346.9"/>
</g>
<g id="Lag_7">
</g>
<g id="Lag_2">
</g>
<g id="Lag_5">
</g>
<g id="Lag_1">
</g>
<g id="Lag_4">
</g>
<g id="Lag_8">
	<g>
		<g>
			<path class="st1" d="M258.1,231.7c-1.3-7.8-21-1.7-31.3,2.8c-10.3,4.5-46.5,19-58.2,19c-11.7,0-19.4-2.6-21.4-16.9
				c-1.9-14.3,2.9-81.4-12.7-82.1H132c-15.6,0.6-11.4,67.8-13.4,82.1c-1.9,14.3-9.7,16.9-21.4,16.9c-11.7,0-40.8-12.5-51-17
				c-10.3-4.5-30-10.6-31.3-2.8c-1.1,6.9,18.7,20,24,23.1c13.6,7.8,40.8,18.6,42.1,37.4c1.3,18.8-24.7,42.2-24.7,42.2l153.4,0.4
				c0,0-24.6-14.3-23.5-43.3c0.6-16.9,36.2-31,49.8-38.7C241.4,251.7,259.3,238.6,258.1,231.7z M99,299.7c-0.3-10.7,21.6-39,33.7-39
				c16,0,37.7,32.7,38,38.7C171.3,311,99.3,312.3,99,299.7z"/>
		</g>
		<g>
			<path class="st2" d="M258.1,231.7c-1.3-7.8-21-1.7-31.3,2.8c-10.3,4.5-46.5,19-58.2,19c-11.7,0-19.4-2.6-21.4-16.9
				c-1.9-14.3,2.9-81.4-12.7-82.1H132c-15.6,0.6-11.4,67.8-13.4,82.1c-1.9,14.3-9.7,16.9-21.4,16.9c-11.7,0-40.8-12.5-51-17
				c-10.3-4.5-30-10.6-31.3-2.8c-1.1,6.9,18.7,20,24,23.1c13.6,7.8,40.8,18.6,42.1,37.4c1.3,18.8-24.7,42.2-24.7,42.2l153.4,0.4
				c0,0-24.6-14.3-23.5-43.3c0.6-16.9,36.2-31,49.8-38.7C241.4,251.7,259.3,238.6,258.1,231.7z M99,299.7c-0.3-10.7,21.6-39,33.7-39
				c16,0,37.7,32.7,38,38.7C171.3,311,99.3,312.3,99,299.7z"/>
		</g>
	</g>
	<path class="st3" d="M132.6,327.1c0,0-31.8-5-39.4-5c-14,0-71.3,14.4-47.4,81.9c20.2,56.9,78,58.8,83.8,58.5h7.5
		c5.8,0.3,63.6-1.6,83.8-58.5c23.9-67.5-35.4-81.4-47.4-81.9c-7.7-0.3-39.4,5-39.4,5H132.6z"/>
	<radialGradient id="SVGID_2_" cx="133.1114" cy="392.5105" r="65.0214" gradientUnits="userSpaceOnUse">
		<stop  offset="0" style="stop-color:#FFFFFF"/>
		<stop  offset="0.1633" style="stop-color:#FFFCF5"/>
		<stop  offset="0.4374" style="stop-color:#FFF3DB"/>
		<stop  offset="0.7865" style="stop-color:#FEE5B1"/>
		<stop  offset="1" style="stop-color:#FEDB94"/>
	</radialGradient>
	<path class="st4" d="M132.6,342.3c0,0-25.3-3.9-31.5-3.9c-11.2,0-56.9,11.1-37.8,63c16.1,43.8,62.3,45.3,66.8,45h6
		c4.6,0.2,50.8-1.2,66.8-45c19.1-52-28.3-62.7-37.8-63c-6.1-0.2-31.5,3.9-31.5,3.9H132.6z"/>
</g>
<g id="Lag_9">
	
		<linearGradient id="SVGID_3_" gradientUnits="userSpaceOnUse" x1="120.0369" y1="351.6108" x2="105.4685" y2="326.3775" gradientTransform="matrix(0.649 -0.6521 0.9571 0.9526 -229.8961 36.0834)">
		<stop  offset="5.617980e-03" style="stop-color:#DBDCDD"/>
		<stop  offset="0.1416" style="stop-color:#E4E5E6"/>
		<stop  offset="0.4281" style="stop-color:#F3F4F4"/>
		<stop  offset="0.7148" style="stop-color:#FCFCFC"/>
		<stop  offset="1" style="stop-color:#FFFFFF"/>
	</linearGradient>
	<path class="st5" d="M151.2,275c0,0,19-2.7,26.5,5c0,0,5.1,5,7.2,9.3c-0.4,0.5-1.3,0.6-1.3,0.6s-2.6-4.2-3.7-5.5
		c-1.1-1.3-2.6-3.4-4.8-4.5c-2.2-1.1-2.4,1.2-3,3.8c-1,4.6-7.9,9.7-11.2,9.5c-0.8-2.1-0.7-2.1-0.7-2.1s2.8-0.5,5.1-2.2
		c2.3-1.8,4.4-4.7,4.8-6.4c0.5-2.1,2.4-5.3-3.3-5.3c-6.6,0-10.3-0.7-13.6,0C152.7,276.6,152.2,275.9,151.2,275z"/>
	
		<linearGradient id="SVGID_4_" gradientUnits="userSpaceOnUse" x1="-416.0394" y1="82.6012" x2="-431.4723" y2="55.8707" gradientTransform="matrix(-0.6095 -0.6891 -1.0114 0.8947 -90.1097 -70.4401)">
		<stop  offset="5.617980e-03" style="stop-color:#DBDCDD"/>
		<stop  offset="0.1416" style="stop-color:#E4E5E6"/>
		<stop  offset="0.4281" style="stop-color:#F3F4F4"/>
		<stop  offset="0.7148" style="stop-color:#FCFCFC"/>
		<stop  offset="1" style="stop-color:#FFFFFF"/>
	</linearGradient>
	<path class="st6" d="M116.3,273.4c0,0-19.5-3.4-28.1,4.3c0,0-5.8,5-8.3,9.3c0.3,0.6,1.3,0.7,1.3,0.7s3.1-4.2,4.4-5.5
		c1.3-1.3,3-3.4,5.4-4.4c2.4-1,2.4,1.3,2.7,4c0.6,4.7,7.3,10.1,10.8,10c1-2.1,1-2.1,1-2.1s-2.9-0.6-5.1-2.4c-2.3-1.9-4.2-5-4.4-6.7
		c-0.3-2.2-2-5.4,4-5.3c6.9,0.2,10.8-0.4,14.2,0.5C114.6,275,115.1,274.2,116.3,273.4z"/>
	<path class="st7" d="M134,269.7c2,0.1,2.9-5.9,7.2-5.6c4.3,0.4,25.2,26.8,25.6,32.9c0.5,8.5-11.9,9.6-17.3,9.7
		c-15.3,0.4-9.5-12.4-14.8-12.4c-5.2,0-0.7,12.8-14.4,12.6c-43.4-0.6,2.5-43.2,6.1-43.2C132,263.7,129.8,269.5,134,269.7z"/>
	<path class="st8" d="M134,273.6c1.8,0.1,3.7-5.7,7.6-5.4c3.9,0.3,20.2,21.2,20.5,25.9c0.5,6.5-5.4,9.3-10.3,9.4
		c-13.8,0.3-9.9-13-16.9-13.1c-7.4-0.2-4.6,13.8-16.9,13.5c-30.8-0.7,4.5-35.8,7.7-35.8C130.8,268,130.2,273.5,134,273.6z"/>
</g>
<g id="streger">
	<path class="st9" d="M81,185.3"/>
	<line class="st9" x1="118.2" y1="185.3" x2="81" y2="185.3"/>
	<line class="st9" x1="59.4" y1="217.3" x2="59.4" y2="239.5"/>
	<line class="st9" x1="136.5" y1="282.2" x2="190.8" y2="218"/>
	<line class="st9" x1="169.4" y1="397.5" x2="220.6" y2="450.8"/>
</g>
<g id="txt">
	<text transform="matrix(1 0 0 1 41.8809 187.6621)" class="st10 st11 st12">Torntap</text>
	<text transform="matrix(1 0 0 1 41.8809 213.1533)" class="st10 st11 st12">Tværtap</text>
	<text transform="matrix(1 0 0 1 167.2539 213.1523)" class="st10 st11 st12">Rygrad (neuroner)</text>
	<text transform="matrix(1 0 0 1 193.8809 464.1533)" class="st10 st11 st12">Hvirvellegeme</text>
</g>
</svg>
