<?xml version="1.0" encoding="utf-8"?>
<!-- Generator: Adobe Illustrator 19.1.0, SVG Export Plug-In . SVG Version: 6.00 Build 0)  -->
<svg version="1.1" xmlns="http://www.w3.org/2000/svg" xmlns:xlink="http://www.w3.org/1999/xlink" x="0px" y="0px"
	 viewBox="0 0 566.9 481" style="enable-background:new 0 0 566.9 481;" xml:space="preserve">
<style type="text/css">
	.st0{fill:none;}
	.st1{fill:#81B11D;}
	.st2{fill:#697FB9;}
	.st3{fill:#808CC0;}
	.st4{fill:#8398C9;}
	.st5{fill:#EABE00;}
	.st6{fill:#FDD656;}
	.st7{fill:#6CAB20;}
	.st8{fill:#00942C;}
	.st9{fill:#007A26;}
	.st10{fill:#006628;}
	.st11{fill:#138928;}
	.st12{fill:#89BA17;}
	.st13{fill:#1FA22E;}
	.st14{fill:#68902B;}
	.st15{fill:#AFCA88;}
	.st16{opacity:0.67;}
	.st17{fill:#FFFAD1;}
	.st18{fill:#FFFFFF;}
	.st19{fill:#E6DDC9;stroke:#D5D6D7;stroke-width:5.000000e-02;}
	.st20{fill:#DACDAF;stroke:#D5D6D7;stroke-width:5.000000e-02;}
	.st21{fill:none;stroke:#000000;stroke-width:5.000000e-02;}
	.st22{fill:#D5D6D7;}
	.st23{fill:#C5DFB6;}
	.st24{opacity:0.29;fill:#1C5231;}
	.st25{fill:#76B861;}
	.st26{opacity:0.4;fill:#FFFFFF;}
	.st27{fill:#54B06A;}
	.st28{fill:#D7DF7B;}
	.st29{fill:#A1C438;}
	.st30{fill:#ABD198;}
	.st31{fill:url(#SVGID_1_);}
	.st32{stroke:#000000;stroke-width:0.3477;}
	.st33{stroke:#000000;stroke-width:0.34;}
	.st34{fill:#3E3D40;stroke:#000000;stroke-width:0.2377;}
	.st35{fill:#FFFFFF;stroke:#000000;stroke-width:0.34;}
	.st36{fill:none;stroke:#000000;stroke-width:0.34;}
	.st37{fill:#A40B16;stroke:#000000;stroke-width:0.34;}
	.st38{fill:#A9AAAC;stroke:#000000;stroke-width:0.34;}
	.st39{fill:#848687;stroke:#000000;stroke-width:0.6682;}
	.st40{fill:#C6C7C8;}
	.st41{fill:none;stroke:#000000;stroke-width:0.2411;}
	.st42{stroke:#000000;stroke-width:0.5903;}
	.st43{fill:#9C9E9F;stroke:#000000;stroke-width:0.5903;}
	.st44{fill:none;stroke:#000000;stroke-width:0.5903;}
	.st45{fill:none;stroke:#000000;stroke-width:1.443;}
	.st46{fill:#3E3D40;}
	.st47{font-family:'Myriad-Roman';}
	.st48{font-size:7px;}
	.st49{stroke:#000000;stroke-width:0.2384;}
	.st50{fill:#505053;stroke:#000000;stroke-width:0.2384;}
	.st51{fill:#FFFFFF;stroke:#000000;stroke-width:0.2384;}
	.st52{fill:none;stroke:#FFFFFF;stroke-width:0.6345;}
	.st53{fill:url(#SVGID_2_);stroke:#000000;stroke-width:0.3764;}
	.st54{fill:url(#SVGID_3_);stroke:#000000;stroke-width:0.3764;}
	.st55{fill:url(#SVGID_4_);stroke:#000000;stroke-width:0.3764;}
	.st56{fill:#5D5D5F;stroke:#000000;stroke-width:0.3764;}
	.st57{stroke:#000000;stroke-width:0.3764;}
	.st58{fill:#FFFFFF;stroke:#FFFFFF;stroke-width:0.3764;}
	.st59{fill:url(#SVGID_5_);stroke:#000000;stroke-width:0.3764;}
	.st60{fill:none;stroke:#000000;stroke-width:0.3764;}
	.st61{fill:#87888A;stroke:#000000;stroke-width:0.3764;}
	.st62{fill:none;stroke:#000000;stroke-width:0.1882;}
	.st63{fill:none;stroke:#A5A6A8;stroke-width:1.6899;}
	.st64{fill:none;stroke:#E9E9EA;stroke-width:1.6899;}
	.st65{fill:url(#SVGID_6_);}
	.st66{fill:none;stroke:#000000;stroke-width:0.5;}
	.st67{fill:url(#SVGID_7_);}
	.st68{fill:#E7E7E8;}
	.st69{fill:none;stroke:#000000;stroke-width:0.4381;}
	.st70{fill:none;stroke:#FFFFFF;stroke-width:1.3;}
	.st71{font-family:'Verdana';}
	.st72{font-size:9px;}
</style>
<symbol  id="Asters" viewBox="-16.1 -14.4 32.3 28.8">
	<polygon class="st0" points="-16.1,-14.4 16.1,-14.4 16.1,14.4 -16.1,14.4 	"/>
	<g>
		<g>
			<path class="st1" d="M1.2-1C1.2-1,1.2-1,1.2-1c0,0.2,0,0.3,0,0.5C1.2-0.6,1.2-0.7,1.2-1z"/>
			<path class="st2" d="M2.1,2.8C1.7,2.2,1.5,1.9,1.5,1.9s3.5,3.4,7.1,5.7c1.5,2.2,2.4,4.1,2.4,4.1c-0.9-0.4-1.7-0.9-2.5-1.4
				C7.5,8.3,5.4,4.6,2.1,2.8z"/>
			<path class="st3" d="M1.5,1.9c0,0,4,2.4,7.9,3.3c2.4,2.1,4,4.4,4,4.4c-1.3,0-3.1-0.9-4.8-2C5.1,5.3,1.5,1.9,1.5,1.9z"/>
			<path class="st4" d="M1.5,1.9c0.2-0.1,0.4-0.2,0.6-0.2c0.6,0,2.7,0.2,5.1,0.2c3.9,0.9,8.1,2.8,8.1,2.8c-1.5,1-3.6,1-5.8,0.5
				C5.5,4.3,1.5,1.9,1.5,1.9z"/>
			<path class="st2" d="M2.1,1.7c-0.1,0-0.2,0-0.2,0c0.1-0.4,0.4-0.7,0.7-1c1.1-0.1,4.4-0.4,7.5-1c3.2,0.2,6,0.8,6,0.8
				c-0.9,1.3-5.3,1.5-9,1.4C4.8,1.9,2.7,1.7,2.1,1.7z"/>
			<path class="st3" d="M2.7,0.7c-0.2,0-0.4,0-0.4,0C2.3,0.5,2.5,0.2,2.7,0c1-0.4,3.3-1.2,5.7-2.3c3.6-0.5,7.4-0.3,7.4-0.3
				c-0.6,1-3,1.8-5.6,2.3C7.1,0.3,3.8,0.6,2.7,0.7z"/>
			<path class="st2" d="M2.7,0C2.3,0.1,2.2,0.2,2.2,0.2c0-0.1,0.1-0.2,0.2-0.3c1.2-0.7,4.1-2.6,6.5-4.5c2.8-1.2,5.4-1.9,5.4-1.9
				c-0.3,1.3-3.1,2.9-5.9,4.2C6-1.3,3.6-0.4,2.7,0z"/>
			<path class="st4" d="M2.3-0.2C2,0,1.8,0.2,1.8,0.2c0-0.3,0.1-0.6,0.2-0.9c0.1-0.2,0.3-0.5,0.6-1c1.3-1.1,3.3-2.9,5-4.7
				C9.9-7.9,12-8.9,12-8.9c0.3,1-1.2,2.6-3.2,4.2C6.5-2.8,3.5-0.9,2.3-0.2z"/>
			<path class="st3" d="M1.8-1.3c0,0.1,0,0.2,0,0.2C1.8-1,1.7-1,1.7-1C1.7-1.1,1.8-1.2,1.8-1.3z"/>
			<path class="st3" d="M1.2-1C1.2-0.9,1.3-0.9,1.2-1c0.1,0.1,0.1,0,0.1-0.2C1.4-1.1,1.5-1,1.5-0.8C1.3-0.7,1.2-0.6,1.2-0.6
				C1.2-0.7,1.2-0.8,1.2-1z"/>
			<path class="st2" d="M2.6-1.8C3.4-3,4.8-5.2,5.9-7.4c2.3-2,4.5-3.4,4.5-3.4c0.2,0.8-1.1,2.6-2.8,4.3C5.9-4.7,3.9-2.9,2.6-1.8z"/>
			<path class="st3" d="M2.6-1.8C2.3-1.3,2.1-1,2-0.8C1.9-0.7,1.9-0.6,1.9-0.6c0-0.1-0.1-0.3-0.1-0.4c0-0.1,0-0.2,0-0.2
				c0.3-1,0.8-3.2,1.3-5.5c1.7-3.4,4.2-6.1,4.2-6.1c0.5,1-0.4,3.2-1.5,5.5C4.8-5.2,3.4-3,2.6-1.8z"/>
			<path class="st3" d="M1.8-1.3c0,0.1-0.1,0.2-0.1,0.3C1.7-0.8,1.6-0.7,1.6-0.7c0,0-0.1-0.1-0.1-0.1C1.5-1,1.4-1.1,1.3-1.2
				c0.1-1.1,0.5-5,0.4-8.1c0.9-2.8,2.2-5.1,2.2-5.1c0.7,0.5,0,4.2-0.7,7.7C2.6-4.5,2.1-2.3,1.8-1.3z"/>
			<path class="st2" d="M1.3-1.2c0,0.2,0,0.3,0,0.3c0,0-0.1-0.1-0.1-0.1c0,0,0,0-0.1-0.1C1.1-2.7,0.6-8.5-0.1-11.8
				c0.2-1,0.5-1.6,0.5-1.6c0.9,0.2,1.2,1.9,1.3,4.1C1.8-6.2,1.4-2.3,1.3-1.2z"/>
			<path class="st4" d="M1.2-1c0,0.3,0,0.5,0,0.5C0.9-0.8,0.6-1,0.3-1.3C0.1-2.6-0.8-6.5-1.8-9.7c0.1-2.6,0.6-4.6,0.6-4.6
				c0.4,0,0.8,1,1.2,2.5C0.6-8.5,1.1-2.7,1.2-1z"/>
			<path class="st3" d="M0.3-1.3C0.4-1,0.4-0.9,0.4-0.9s-2.1-5.8-4.3-9.3C-4.3-12.4-4.2-14-4.2-14c0.8,0,1.6,2,2.4,4.4
				C-0.8-6.5,0.1-2.6,0.3-1.3z"/>
			<path class="st3" d="M0.4-0.9C0-1-0.4-1.3-0.8-1.6c-1-2-3.4-6.6-5.5-8.9c-0.5-1.3-0.8-2.3-0.8-2.3c1-0.3,2.1,0.9,3.2,2.6
				C-1.6-6.6,0.4-0.9,0.4-0.9z"/>
			<path class="st2" d="M-0.8-1.6C-0.6-1-0.4-0.7-0.4-0.7C-0.8-0.8-1.1-1-1.5-1.2C-2.5-3-4.8-7-7.8-9.6c-0.5-1.3-0.8-2.3-0.8-2.3
				c0.6-0.2,1.4,0.4,2.3,1.3C-4.2-8.2-1.8-3.5-0.8-1.6z"/>
			<path class="st2" d="M-1.5-1.2c0.3,0.6,0.5,1,0.5,1s-3.9-4.3-7.7-7.1c-1.4-2.4-2.4-4.4-2.4-4.4c1.1,0.5,2.2,1.2,3.2,2.1
				C-4.8-7-2.5-3-1.5-1.2z"/>
			<path class="st3" d="M-1-0.2c-0.4,0.1-0.7,0.1-1.1,0.1c-1-0.7-3.8-2.5-6.7-3.8c-2.7-2.6-4.7-5.7-4.7-5.7c1.3,0,3,1,4.8,2.3
				C-4.9-4.5-1-0.2-1-0.2z"/>
			<path class="st4" d="M-2.1-0.2C-1.8,0-1.7,0.1-1.7,0.1s-3.5-0.8-7-1.2c-3.4-1.5-6.5-3.6-6.5-3.6c1.4-1,3.9-0.3,6.4,0.7
				C-6-2.7-3.1-0.9-2.1-0.2z"/>
			<path class="st3" d="M-8.7-1.1c3.6,0.4,7,1.2,7,1.2C-1.8,0.3-1.9,0.5-2,0.7c-1.4,0-5.5-0.1-8.9,0.3c-2.9-0.6-5.3-1.4-5.3-1.4
				C-15.4-1.6-12-1.5-8.7-1.1z"/>
			<path class="st2" d="M-2,0.7c0.3,0,0.5,0,0.5,0C-1.6,1-1.7,1.2-1.9,1.5c-0.2,0.1-0.4,0.2-0.7,0.3C-2.4,1.6-2.3,1.3-2.2,1
				c0,0-3.7,0.9-7,2.2c-3.4,0-6.6-0.5-6.6-0.5c0.6-0.9,2.5-1.4,4.9-1.7C-7.5,0.5-3.4,0.6-2,0.7z"/>
			<path class="st4" d="M-2.2,1c-0.1,0.3-0.3,0.5-0.5,0.8C-4.1,2.5-7.1,4-9.3,5.6c-2.6,0.7-4.8,1-4.8,1c0.3-1.2,2.6-2.4,5.1-3.4
				C-5.8,1.9-2.2,1-2.2,1z"/>
			<path class="st3" d="M-2.6,1.8c0.3-0.1,0.5-0.3,0.7-0.3c0.2-0.1,0.3-0.1,0.3-0.1c0,0.4-0.1,0.7-0.3,1.1C-3.1,3.3-6,5.4-8.1,7.3
				c-2.1,1-3.8,1.5-3.8,1.5C-12.3,8-11,6.8-9.3,5.6C-7.1,4-4.1,2.5-2.6,1.8z"/>
			<path class="st2" d="M-1.9,2.5C-1.5,2.2-1.3,2-1.3,2c0,0.3,0,0.6-0.1,0.9c-0.7,0.8-2.4,2.7-3.8,4.6c-2.5,1.9-5.2,3.2-5.2,3.2
				c-0.2-0.8,0.8-2.1,2.3-3.4C-6,5.4-3.1,3.3-1.9,2.5z"/>
			<path class="st4" d="M-1.4,3c0.2-0.2,0.3-0.4,0.3-0.4S-2.3,5.9-3.2,9c-1.8,2.4-4.2,3.9-4.2,3.9c-0.5-1.1,0.7-3.2,2.1-5.3
				C-3.8,5.6-2.2,3.8-1.4,3z"/>
			<path class="st3" d="M-1.1,2.6c0.2,0.2,0.3,0.5,0.4,0.7c-0.3,1.2-1,4.9-1.1,7.6c-1,2-2.1,3.5-2.1,3.5C-4.4,14-3.9,11.5-3.2,9
				C-2.3,5.9-1.1,2.6-1.1,2.6z"/>
			<path class="st2" d="M-0.7,3.3c0.1-0.3,0.1-0.4,0.1-0.4s0.1,5.9,0.8,9.2c-0.5,1.3-0.9,2.1-0.9,2.1c-0.8-0.2-1-1.6-1-3.3
				C-1.7,8.2-0.9,4.5-0.7,3.3z"/>
			<path class="st3" d="M-0.6,2.9c0.3,0.2,0.5,0.4,0.7,0.6c0.3,1.5,1,4.6,1.9,7.1c-0.2,2.1-0.8,3.7-0.8,3.7c-0.5,0-0.8-0.9-1.1-2.2
				C-0.5,8.8-0.6,2.9-0.6,2.9z"/>
			<path class="st2" d="M0.1,3.5C0,3,0,2.7,0,2.7s1.9,5,4,7.9c0.3,2,0.2,3.4,0.2,3.4c-0.7,0-1.5-1.5-2.2-3.4C1.2,8.2,0.5,5,0.1,3.5z
				"/>
			<path class="st3" d="M0,2.7c0.6,0.2,1.1,0.5,1.7,1C2.6,5.3,4.3,8.2,6,10c0.8,1.6,1.2,2.8,1.2,2.8c-1,0.3-2.1-0.7-3.1-2.2
				C1.9,7.6,0,2.7,0,2.7z"/>
			<path class="st4" d="M1.6,3.7C1.2,2.9,0.9,2.3,0.9,2.3c0.4,0.1,0.8,0.3,1.1,0.5c3.3,1.8,5.5,5.5,6.4,7.4C8.8,11,9,11.5,9,11.5
				c-0.9,0.3-2-0.4-3-1.5C4.3,8.2,2.6,5.3,1.6,3.7z"/>
		</g>
	</g>
	<g>
		<polygon class="st5" points="4.1,0.9 2.6,0.3 3.7,-0.9 2.2,-0.6 3.1,-1.9 1.7,-1.2 2.2,-2.7 0.8,-1.6 0.8,-3.2 0.1,-1.8 
			-0.1,-3.3 -0.7,-1.7 -1.9,-2.9 -1.6,-1.4 -2.9,-2.3 -2.3,-0.7 -3.8,-1.1 -2.6,0 -4.2,0 -2.8,0.7 -4.3,0.9 -2.7,1.5 -3.9,2.7 
			-2.4,2.4 -3.3,3.7 -1.7,3.1 -2.1,4.6 -1,3.5 -1,5.1 -0.3,3.6 -0.1,5.2 0.5,3.5 1.7,4.7 1.4,3.2 2.7,4.1 2,2.7 3.6,2.9 2.5,1.8 
			4.1,1.8 2.6,1.1 		"/>
	</g>
	<g>
		<polygon class="st6" points="2.8,1 1.9,0.1 2.1,-0.9 1.1,-0.9 0.7,-1.8 -0.1,-1.2 -1.2,-1.7 -1.5,-0.7 -2.7,-0.4 -2.2,0.5 -3,1 
			-2.1,1.8 -2.3,2.8 -1.1,2.9 -0.7,3.8 -0.1,3.2 1,3.6 1.3,2.6 2.5,2.3 2.1,1.4 		"/>
	</g>
</symbol>
<symbol  id="Græs_1" viewBox="-14.5 -22 28.9 44.1">
	<g>
		<g>
			<path class="st7" d="M-1-18.7c0,0,4.7,15.6-2.1,40.7C9.3-0.3,1.5-13.9-1-18.7z"/>
			<path class="st8" d="M-3.3-15.6c0,0,1.3,11.6-11.1,20.5c10.8-11.4,9-21,10.3-26.9L-3.3-15.6z"/>
			<path class="st9" d="M5.3-17.8c0,0-2.4,11.6,5.7,17C9.3-4.8,6.8-10.2,5.3-17.8z"/>
			<path class="st10" d="M7.7-18.1c0,0-0.2,7.9,4.9,9.7C13.6-7.5,11.1-13,7.7-18.1z"/>
			<path class="st9" d="M-3.7-7c0,0,3.8,7.9-7.1,21.7C-8.1,8.6-4.8,0.8-3.7-7z"/>
		</g>
		<path class="st8" d="M5.2-3.7c0,0,0.5,19.4,9.3,22.3C9.4,10.3,8.1,5.8,5.2-3.7z"/>
	</g>
</symbol>
<symbol  id="Græs_3" viewBox="-17.5 -30.2 35 60.4">
	<g>
		<g>
			<path class="st0" d="M-7.8,30.2c3.3-4.7,7.2-9.1,10-14.4C9.3,2.8,8-11.6,4.4-25.8"/>
			<path class="st11" d="M-7.9,30.2c2.9-4,5.3-8.1,7.9-12.4c2.6-4.3,5-8.6,5.9-13.6c1.8-9.8-1-22.7-3.5-32.3
				c-0.3-1.1,2.5,0.8,2.8,1.9C6.1-22.2,9.6-9.3,7,3.6C4.8,13.9-1.8,21.9-7.9,30.2C-7.8,30.2-7.9,30.2-7.9,30.2L-7.9,30.2z"/>
		</g>
		<g>
			<path class="st0" d="M-3.4-25.3c5.3,24.6-13.5,11.7-13.9,38"/>
			<path class="st12" d="M-2.2-25.4c1.4,7,1.7,13.7-4.2,18.5c-2.2,1.8-4.7,2.8-6.5,5.1c-3.2,4-3.9,9.4-4.1,14.4
				c-0.2,4.4-0.6,4.4-0.5,0c0-4.4,0.5-8.9,2.4-13c1.2-2.6,3.3-4.6,5.3-6.6c1.8-1.8,3.9-3.1,5.1-5.4c2-3.8,1-8.9,0.2-12.9
				C-4.8-26.7-4.2-28.6-2.2-25.4L-2.2-25.4z"/>
		</g>
		<g>
			<path class="st0" d="M-6.8-26.6C-9-12.7-12,7.8-6.1,20.5"/>
			<path class="st13" d="M-6.2-24.8C-7.4-17.1-8.3-11.1-9-3.3c-0.6,7.9-0.3,16.4,3,23.7c0.1,0.2-0.2,0.3-0.3,0.1
				C-9.6,13.3-10,5.2-10-2.6c0-8.1,1.3-16.2,2.6-24.2c0.1-0.9,2.1-0.7,2,0.1L-6.2-24.8z"/>
		</g>
		<g>
			<path class="st0" d="M10.6-26C4.7-9.6,14.9-2,17.4,3.3"/>
			<path class="st13" d="M11.2-25.7c-2.1,6.1-2.5,12.8,0.2,18.8c1.6,3.6,4.4,6.5,6.1,10c0.1,0.2-0.2,0.3-0.3,0.1
				c-1.9-3.8-5.1-6.9-6.9-10.8c-3-6.1-3.2-11.4-1-17.7C9.6-26,11.5-26.5,11.2-25.7L11.2-25.7z"/>
		</g>
		<g>
			<path class="st0" d="M-0.5-28.6c-2.2,13.7,8.4,18,1.4,41"/>
			<path class="st13" d="M1-27.9c-0.9,6.1,0.3,10.7,1.6,16.5C4.4-3.3,3,6.9,0.6,14.7c-0.1,0.2,0.1-2.1,0.1-2.3
				C3.1,4.2,3.8-3.8,1.2-12C-0.6-17.5-1.4-22.2-0.5-28c0.1-0.9,0.4-2.8,0.3-2L1-27.9z"/>
		</g>
	</g>
</symbol>
<symbol  id="Mælkebøtte" viewBox="-36.9 -78.7 73.8 157.5">
	<g>
		<polygon class="st0" points="-36.9,-78.7 36.9,-78.7 36.9,78.7 -36.9,78.7 		"/>
		<path class="st14" d="M-21.2-58.7c0,0,12.6,8.1,16.3,16.3c3.7,8.1,5.2,2.6,5.2,2.6c0,2.6,0.4,5.9,0.4,5.9s2.6,8.5,6.3,8.5
			c-0.4,3,1.8,11.1,6.3,10.4c-1.1,4.4-0.4,5.5,2.6,7.8c5.9,4.4,4.8-2,4.8,7.4c0,2.6,1.5,3,4.8,4.8c-1.1,1.8-2.2,7.8,0.7,8.9
			c2.6,3,7,6.3,7,10.7c0,4.4,0,12.2,0,12.2c-2.6,0-9.2-7-10.7-9.6c-3.4-6-2.2-8.1-2.2-11.5c-0.7-3.3-5.2-3.7-6.7-3.3l1.5-4.8
			c0,0,0.7-5.2-1.8-5.9c-2.6-0.7-8.1-0.4-8.1-0.4l3-5.2c0,0,1.5-5.9-2.2-7.8c-3.7-1.8-5.9-3-5.9-5.2c0-2.2,2.6-5.5,0-7.8
			c-2.6-2.2-4.4-4.8-4.4-4.8l-0.4-3.3l-1.8-3.7l-6.7-6.7l-9.3-14.4L-21.2-58.7z"/>
		<path class="st15" d="M-22.7-57.5c0,0,37.4,42.8,51.9,88.3c0.4-6.3-33.7-81.7-51.4-89.5L-22.7-57.5z"/>
		<path class="st15" d="M-5.5,34.9c0,0,0.8-43.7-13.9-93.2l-9.7-4.9c0,0,13.1,1.3,20.8,95.1c0.1,1.3,2.7-0.8,2.5-2L-5.5,34.9z"/>
		<path class="st14" d="M-17.8-56.4l-11.3-6.7c0,0,13.1,1.3,20.8,95.1C-7.5,22.7-9.4-12.7-17.8-56.4z"/>
		<g class="st16">
			<g>
				<g>
					<polygon class="st17" points="-9.8,12.2 -9.4,2.4 -5.2,11.2 -4.7,1.5 -2,10.8 0.7,1.5 -0.1,11.2 6.2,3.9 2.4,12.8 10.1,6.9 
						5.2,15.2 12.9,9.2 8.3,17.8 16.5,12.5 10.3,20 19.6,17.2 11.1,21.9 20.8,22.7 11.4,25.4 21,26.9 11.7,29.7 21.5,30 12.8,34.4 
						22.6,34.5 13.4,37.8 22.9,39.7 13.2,39.8 21.1,45.4 11.8,42.5 18.7,49.3 9.7,45.6 16.5,52.6 7.4,49 13.5,56.7 5.5,51.2 
						9.2,60.1 3.8,52 3.6,61.7 0.6,52.4 -0.6,62.1 -3.6,52.8 -4,62.6 -8.1,53.8 -8.6,63.5 -11.3,54.2 -14.1,63.4 -13.2,53.8 
						-19.6,61.1 -15.7,52.2 -23.4,58.1 -18.5,49.8 -26.2,55.8 -21.6,47.2 -29.8,52.4 -23.6,45 -32.9,47.8 -24.4,43.1 -34.1,42.3 
						-24.7,39.6 -34.3,38.1 -25.1,35.3 -34.8,35 -26.1,30.6 -35.9,30.5 -26.7,27.2 -36.2,25.3 -26.5,25.2 -34.4,19.6 -25.1,22.5 
						-32,15.7 -23,19.4 -29.8,12.4 -20.8,16 -26.8,8.3 -18.8,13.8 -22.5,4.9 -17.2,13 -17,3.3 -13.9,12.6 -12.7,2.9 					"/>
				</g>
			</g>
		</g>
		<g class="st16">
			<g>
				<g>
					<polygon class="st18" points="-9.2,20.5 -8.9,14.9 -6.6,20 -6.3,14.4 -4.7,19.7 -3.1,14.4 -3.6,20 0.1,15.7 -2.2,20.9 
						2.3,17.5 -0.5,22.3 3.9,18.8 1.3,23.8 6,20.8 2.4,25.1 7.8,23.4 2.9,26.2 8.5,26.6 3.1,28.2 8.6,29.1 3.3,30.7 8.9,30.9 
						3.9,33.4 9.5,33.4 4.2,35.4 9.7,36.5 4.1,36.5 8.7,39.8 3.3,38.1 7.3,42.1 2.1,39.9 6,44 0.8,41.9 4.3,46.3 -0.3,43.1 
						1.8,48.3 -1.3,43.6 -1.4,49.2 -3.2,43.9 -3.9,49.4 -5.6,44.1 -5.8,49.7 -8.2,44.6 -8.5,50.3 -10.1,44.9 -11.7,50.2 -11.2,44.6 
						-14.8,48.9 -12.6,43.7 -17.1,47.2 -14.2,42.3 -18.7,45.8 -16,40.8 -20.8,43.9 -17.2,39.5 -22.6,41.2 -17.7,38.4 -23.3,38 
						-17.8,36.4 -23.4,35.5 -18,33.9 -23.7,33.7 -18.6,31.2 -24.3,31.2 -19,29.3 -24.5,28.1 -18.9,28.1 -23.4,24.8 -18,26.5 
						-22,22.6 -16.9,24.7 -20.8,20.7 -15.5,22.7 -19,18.3 -14.4,21.5 -16.5,16.3 -13.5,21 -13.3,15.4 -11.6,20.8 -10.9,15.2 					
						"/>
				</g>
			</g>
		</g>
		<path class="st19" d="M-15.3,28.8c0.2-0.6,1,0.7,1.3,0.2c0.2-0.4,0-2.6,0.3-2.9c0.1-0.2,1.2,1.3,1.3,1.2c0.3-0.3-0.3-2.3,0-2.6
			c0.3-0.2,0.8,1.5,1.1,1.3c0.2-0.1,0.2-2.2,0.4-2.3c0.3-0.1,0.7,2.4,1,2.3c0.6-0.2,1.1-3.1,1.8-3.2c0.2,0,0.4,2.1,0.5,2.1
			c0.5,0,1.1-2.2,1.6-2.2c0.5,0.1,0,1.9,0.5,2c0.4,0.1,1.8-1.5,2.2-1.3c0.4,0.2,0.2,3,0.6,3.2c0.3,0.2,1.1-2.3,1.4-2.1
			c0.2,0.2,0.2,3.1,0.4,3.3c0.3,0.2,0.7-2.3,1-2c0.2,0.3-0.1,2.8,0.1,3.1c0.2,0.2,0.8-1.8,1-1.6c0.2,0.3-0.1,2.3,0,2.7
			c0.2,0.4,1-2,1.1-1.6c0.2,0.5,0.2,2.2,0.2,2.8c0.8,5.4-4.2,4.9-9.3,5.7c-5,0.8-8.1,2.6-9-2.9C-16.1,32.1-15.9,30.4-15.3,28.8z"/>
		<path class="st20" d="M-13,29.2c0.1-0.4,0.7,0.5,0.9,0.1c0.2-0.3,0-1.9,0.2-2.2c0.1-0.1,0.9,1,1,0.9c0.2-0.2-0.2-1.7,0-1.9
			c0.2-0.2,0.6,1.1,0.8,1c0.2-0.1,0.1-1.6,0.3-1.7c0.2-0.1,0.5,1.8,0.7,1.7c0.4-0.2,0.8-2.3,1.3-2.3c0.1,0,0.3,1.6,0.4,1.6
			c0.4,0,0.8-1.6,1.2-1.6c0.4,0,0,1.4,0.3,1.5c0.3,0.1,1.3-1.1,1.6-1c0.3,0.1,0.2,2.2,0.4,2.4c0.2,0.1,0.8-1.7,1-1.5
			c0.2,0.1,0.2,2.3,0.3,2.4c0.2,0.2,0.5-1.7,0.7-1.5c0.2,0.2,0,2,0.1,2.2c0.1,0.2,0.6-1.3,0.7-1.1c0.1,0.2-0.1,1.7,0,2
			c0.1,0.3,0.7-1.5,0.8-1.2c0.1,0.4,0.1,1.6,0.2,2c0.6,4-3.1,3.6-6.8,4.1c-3.7,0.6-6,1.9-6.6-2.1C-13.6,31.6-13.4,30.3-13,29.2z"/>
		<path class="st21" d="M8.5,38.5c2.9,0.2,5.8,0.9,8.6,1.1"/>
		<path class="st21" d="M9.8,28.6c2.7-1,5.3-2,8.1-2.5"/>
		<path class="st21" d="M1.3,20.7c0.5-0.1,1.7-0.3,2.1-0.9c1.6-2.4,3.2-4.8,2.7-8.3"/>
		<path class="st21" d="M-7.9,16c-0.4-3-1.5-5.9-3.5-8"/>
		<path class="st21" d="M-21.6,18.7c-2.3-0.3-3.4-3.7-6.2-3.3"/>
		<path class="st21" d="M-21.3,35.1c-1.6,0.8-2.5,2.2-3.4,3.6c-1.8,2.7-3.7,5.4-6.9,6.5"/>
		<path class="st21" d="M6.6,47.9c2.2-0.3,3.6,1.3,5.8,0.9"/>
		<path class="st21" d="M7.4,35c2.2-0.3,3-2.9,4.6-3.1c2.2-0.3,3.9-0.6,6.1-0.9"/>
		<path class="st21" d="M9.5,22.5c2-1.5,2.8-4.1,4.8-5.6"/>
		<path class="st21" d="M-0.2,14.2c-0.2-1.2-0.4-3-0.6-4.2"/>
		<path class="st21" d="M-16.1,14.2c-0.8-1.7-1.6-3.4-2.9-4.4"/>
		<path class="st21" d="M-31.7,30c1.7-0.3,3.3-0.5,5-0.8"/>
		<path class="st21" d="M-20.4,41.1c0.3,1.8-0.6,3.7-1,4.4c-0.9,1.4-1.3,2.6-2.2,4"/>
		<path class="st21" d="M-7.1,58.5c0.2-2.5-0.2-4.8,1.2-6.9"/>
		<path class="st21" d="M3.6,42.9c1.1-0.2,2.2-0.3,3.3-0.5"/>
		<path class="st21" d="M4.1,35.5c1.1-0.2,1.5-1.4,1.9-2.1"/>
		<path class="st21" d="M1.3,28c0.9-1.4,0.7-3.1,0.4-4.9"/>
		<path class="st21" d="M-5.9,21.8"/>
		<path class="st21" d="M-13.6,26.6c-2.2,0.3-4.4,0.7-6.5,1.6"/>
		<path class="st21" d="M-15.6,35.5c-0.9,1.4-1.3,2.6-1,4.4"/>
		<path class="st21" d="M-1.2,41.2c1.1-0.2,1.2,0.4,2.3,0.3"/>
		<path class="st21" d="M-3.5,33.6c-0.2-1.2,0.8-2,1.3-2.6"/>
		<path class="st21" d="M-11.2,34.8c-0.6,0.1-1.1,0.2-1.7,0.3"/>
		<path class="st21" d="M-6.4,37.1c0.1,0.6,0.1,0.6,0.2,1.2"/>
		<path class="st21" d="M5.3,50.6c1.3,1,2.6,2,3.9,3.1"/>
		<path class="st21" d="M-2.6,57.9c-0.9-2.3-0.1-4.3-0.5-6.6"/>
		<path class="st21" d="M11.2,44.8c1.1-0.2,2.8-0.4,3.9-0.6"/>
		<path class="st21" d="M14.7,34.5c1.6-0.8,2.9,0.2,4.5-0.1"/>
		<path class="st21" d="M12.7,25.1c1-0.8,1.9-2.1,3.5-3"/>
		<path class="st21" d="M7.9,19.7c1.9-2.1,2.6-5.3,3.3-7.8"/>
		<path class="st21" d="M2,13.9c-0.3-1.8-0.5-3.6-0.8-5.4"/>
		<path class="st21" d="M-3.9,12.4c-0.3-1.8-0.5-3-0.7-4.8"/>
		<path class="st21" d="M-11.7,13c-1-2.9-2.5-5.1-3.4-7.4"/>
		<path class="st21" d="M-23.9,22.1c-1.7,0.3-3.9,0.6-5.5,0.8"/>
		<path class="st21" d="M-19.7,16.6c-0.8-1.7-0.6-4.2-2.5-5.1"/>
		<path class="st21" d="M-26.2,32.8c-2,1.5-4,3.7-6.7,4.1"/>
		<path class="st21" d="M-18.3,51.1c-1.5,1.4-1,4.4-3.1,5.4"/>
		<path class="st21" d="M0,45.3c1.4,1.6,2.7,2.6,4.5,3.6"/>
		<path class="st21" d="M7.2,44.8c0.4-1.3,1.6-0.8,2.1-0.9"/>
		<path class="st21" d="M4.1,27.6c1.5-1.4,3-2.3,2.7-4.7"/>
		<path class="st21" d="M-4,22.7c-0.4-2.4-0.6-4.2-1-6.6"/>
		<path class="st21" d="M-13.3,21.1c-1.8-0.9-2.2-3.3-4.3-2.4"/>
		<path class="st21" d="M-19.2,23.2c-1.7,0.3-3.3,0.5-5,0.8"/>
		<path class="st21" d="M-18.1,41.9c0.6-0.1,0.6-0.1,1.1-0.2c0.6-0.1,0.6,0.5,0.7,1.1"/>
		<path class="st21" d="M-10.4,40.2"/>
		<path class="st21" d="M-12.7,43.6c0.2,1.2,0.5,3,0.6,4.2"/>
		<path class="st21" d="M-11.3,37.9c0.6-0.1,1.1-0.2,1.2,0.4c0.1,0.6-0.4,1.3-0.3,1.9"/>
		<path class="st21" d="M1.3,31.7c0.3,1.8,0.5,3.6,0.8,5.4"/>
		<path class="st21" d="M-10.9,18.3c-0.1-0.6-0.2-1.2-0.3-1.8"/>
		<path class="st21" d="M-9.4,32.1C-10.1,31-9.3,29-10.6,28"/>
		<path class="st21" d="M-4.2,36.8c1.1-0.2,2.8-0.4,3.9-0.6"/>
		<path class="st21" d="M-5.7,41.3c0.2,1.2,0.5,3,0.6,4.2"/>
		<path class="st21" d="M1.4,39.6c1.1-0.2,2.8-0.4,3.9-0.6"/>
		<path class="st21" d="M-1.1,19.9c1-0.8,0.7-3.1,2.3-3.4"/>
		<path class="st21" d="M-16.7,32c-1.1,0.2-2.8,0.4-3.9,0.6"/>
		<path class="st21" d="M-22.4,28c-0.6,0.1-1.1,0.2-1.2-0.4"/>
		<path class="st21" d="M-22.3,40.2c-0.8,2-0.6,3.7-1.9,5.8"/>
		<path class="st21" d="M-14.5,46.9c0.3,1.8,0.6,4.2,0.9,6"/>
		<path class="st21" d="M6,29.1c1.7,0.3,2.5,1.5,4.1,1.2"/>
		<path class="st21" d="M-12.5,22.8c1.2,0.4,0.8-2,2-1.5"/>
		<path class="st21" d="M-5.4,28.4c1.7-0.3,2.6-1.6,3.5-3"/>
		<path class="st21" d="M-0.9,53.5c0.8,2.5,2.4,4.5,3.1,7"/>
		<path class="st21" d="M7.8,49.8c1.4,0.8,2.5,1.8,4.1,2.2"/>
		<path class="st21" d="M12,41.4c1.3,0,2.7,0.4,4,0.2"/>
		<path class="st21" d="M13.1,36.2c1.4,0.4,3,1,4.4,1.6"/>
		<path class="st21" d="M13.9,32.8c1.1,0,1.9-0.9,3-1.1"/>
		<path class="st21" d="M11.8,23c0.8-0.7,1.2-1.8,1.8-2.7"/>
		<path class="st21" d="M6.7,17.9c0.3-1.7,0.7-3.1,0.8-4.8"/>
		<path class="st21" d="M3.3,15.1c1-1.2,0.7-2.7,1.3-4"/>
		<path class="st21" d="M-6,12.3C-6.6,11-6.8,9.6-7,8.2"/>
		<path class="st21" d="M-6.8,19.5c-0.1-0.6,0.4-1.3,0.1-2"/>
		<path class="st21" d="M-13.5,17.3c-0.2-1.4-0.4-2.8-0.6-4.2"/>
		<path class="st21" d="M-14.8,23.8c-0.9-1.1-1.6-2.2-2.7-2.8"/>
		<path class="st21" d="M-20,20.5c-1.1,0-2.5,0-3.6-0.3"/>
		<path class="st21" d="M-20.2,25.6c-0.7,0.1-1.5,0.2-2.2,0.3"/>
		<path class="st21" d="M-22.4,30.6c-1.1,1.4-2.5,2.4-3.3,4"/>
		<path class="st21" d="M-25.9,26.3c-1.3,0.2-2.8,0.4-4.1,0.6"/>
		<path class="st21" d="M-18.6,35.7c-1,1-1.3,2.4-2.3,3.4"/>
		<path class="st21" d="M-14,30.4c-0.8-0.5-1.9-0.3-2.7-0.6"/>
		<path class="st21" d="M-12.7,32.4c-0.6,0.7-1.8,0.7-2.7,0.8"/>
		<path class="st21" d="M-7.1,32.5c0-1.4,0.7-2.7,0.9-4.2"/>
		<path class="st21" d="M-10,25.9c0.1-0.8,0.3-1.5,0.2-2.3"/>
		<path class="st21" d="M-5.6,35c0.4,0.1,0.8,0.3,1.2,0.4"/>
		<path class="st21" d="M-9,34.5c-0.3,0.7-0.4,1.3-0.7,1.7"/>
		<path class="st21" d="M-3.6,42.8c0.8,0.5,1.5,1.2,2.3,1.5"/>
		<path class="st21" d="M-5,47.5c0.1,0.8,0.2,1.4,0.3,2.2"/>
		<path class="st21" d="M-10.7,49.6C-10,50.3-9.5,51-9,51.7"/>
		<path class="st21" d="M-9.1,53.8c-0.2,1.2-0.6,2.3-0.4,3.5"/>
		<path class="st21" d="M-13.1,53.8c-0.4,1.3-1,2.4-0.6,3.7"/>
		<path class="st21" d="M-18.6,48.1c-0.8-0.1-1.2,0.8-1.3,1.4"/>
		<path class="st21" d="M-13.1,40.8c-0.2,1-0.9,1.8-1.1,2.8"/>
		<path class="st21" d="M8.8,40.3c0.5,0.5,1.1,0.9,1.7,1"/>
		<path class="st21" d="M9.7,36.3c0.6,0.1,1.2,0.4,1.7,0.3"/>
		<path class="st21" d="M11.2,33.8c0.4-0.1,0.5-0.3,0.9-0.5"/>
		<path class="st21" d="M13.4,29.6"/>
		<path class="st21" d="M8.8,26.7c1.3-0.4,2-1.7,3-2.3"/>
		<path class="st21" d="M11.8,30.1c0.4-0.1,0.6,0.1,0.9-0.5c0.8,0.5,1.4-0.6,2.1-0.9"/>
		<path class="st21" d="M3.7,44.9c0.4,0.3,0.8,0.5,1.2,0.6"/>
		<path class="st21" d="M9.2,45.5c0.9,0.7,1.7,1.6,2.8,2"/>
		<path class="st21" d="M1.8,50.1c0.9,0.1,1.7,0.3,2.7,0.4"/>
		<path class="st21" d="M-0.3,23.6c-0.3-0.6-0.7-1.1-1-1.7"/>
		<path class="st21" d="M-2,15.1"/>
		<path class="st21" d="M-3.3,18c0.7-1.5,1.2-3.2,1.5-4.9"/>
		<path class="st21" d="M-4.5,14.5c-0.9-0.1-1.5-1-2.3-1.3"/>
		<path class="st21" d="M-0.8,29.2c-0.1-0.4-0.1-1-0.2-1.4"/>
		<path class="st21" d="M4.9,31.8c-0.6-1.1-1.6-1.8-2.3-2.7"/>
		<path class="st21" d="M4.5,24.3c0.6-0.9,0.8-2.2,1.2-3.2"/>
		<path class="st21" d="M-1,37.7c-0.6,0.7-1.3,1.4-1.7,2.3"/>
		<path class="st21" d="M-1.7,46.6c0.2,1.2,0.3,2,0.5,3.2"/>
		<path class="st21" d="M1.5,52.6c0.2,1.2,1.4,1.8,1.9,2.6c0.5,0.7-0.1,2,0.8,2.7"/>
		<path class="st21" d="M4.4,52.1c0.2,1.2,0.7,2.3,1.3,3.5"/>
		<path class="st21" d="M-4.9,55.6c0.5,1.1,0.1,2.8,0.2,4"/>
		<path class="st21" d="M-22.1,50.9c0.2-1.3,0.7-2.6,0.9-3.8"/>
		<path class="st21" d="M-27,46c0.5-1.7,1.8-2.7,2.8-4.1"/>
		<path class="st21" d="M-29.4,37.8c1.5-0.2,2.6-0.4,4-0.6"/>
		<path class="st21" d="M-29.7,31.3c1.1-0.2,1.8-0.3,2.9-0.4"/>
		<path class="st21" d="M-26.7,18.7c0.5,0.7,2,0.5,2.1,1.7"/>
		<path class="st22" d="M-4.6,25.5"/>
	</g>
</symbol>
<symbol  id="Planter_1" viewBox="-53.9 -72.7 107.8 145.4">
	<g>
		<path class="st23" d="M20.4-56.8c0,0-5.3,21.2-3.5,29.7c1.8,8.5,9.7,15.3,7.9,25c-1.8,9.7-5,21.2-1.5,26.8
			c3.5,5.6,8.5,2.1,13.8,3.5c5.3,1.5,12.7,8.5,16.8,8.5c0,0-4.1-2.9-6.5-6.5c-2.4-3.5-3.2-10-9.4-8.8c-6.2,1.2-12.9,3.8-13.8,1.5
			c-0.9-2.4-1.2-9.4,0-14.1c1.2-4.7,3.2-14.4,1.5-19.4c-1.8-5-7.1-15.3-7.1-18.8c0-6.2,3.2-26.5,6.2-41.2
			C24.8-70.6,21.5-60.6,20.4-56.8z"/>
		<path class="st24" d="M50.1,34.7c0,0-4.1-3.3-4.8-4.8c-0.7-1.6-2.4-3.8-5.3-4.1c-2.8-0.3-12.8,2.7-15.4-1c0,0,2.3,1.6,5.1,1.1
			c2.8-0.4,9-1.9,11.7-0.9C44.1,26,47.5,33.4,50.1,34.7z"/>
		<path class="st25" d="M4.3-61.8c0,0-9.8,80.9-6.2,95.7c3.6,14.9,15.2,12.8,18.1,18.4c3,5.6,11.9,12.5,20.5,11.6
			c0,0-5.9-1.8-7.7-5.1c-1.8-3.3-1.2-9.2-6.5-14.9c-5.4-5.6-22-0.9-22-14.9c0-14-1.2-13.8-0.1-25.4C1.5-7.8,5.8-62.6,5.8-68
			L4.3-61.8z"/>
		<path class="st24" d="M33.3,63.2c0,0-5.6-2.1-6.6-4.3c-1-2.1-2.4-8.8-4.6-11C20,45.8,2.6,44.4,0.4,36.4c0,0,1.1,2.6,5.3,4.3
			c4.1,1.7,10,2.7,14.1,4.4c4.1,1.7,6.3,7.6,7.8,13.2C28.3,59.9,31.7,62.5,33.3,63.2z"/>
		<path class="st26" d="M4.8,43.7c0,0,1.8,1.8,3.8,2.4c2,0.7,6.4,1.5,7.7,3.8c1.3,2.3,1.6,5.2,4.1,6.7c0,0-1.6-1.3-1.6-2.8
			c0-1.5-0.8-3.4-2.3-4.7C14.9,47.8,6.4,44.5,4.8,43.7z"/>
		<path class="st26" d="M18.5,49.8c0,0,0.8,2.6,1.8,4.6c1,2,6,8.5,12.4,9.3c0,0-4.6-1.8-6-3.6c-1.5-1.8-3.3-3.8-4.4-4.9
			C21.1,54,20.6,50.4,18.5,49.8z"/>
		<path class="st27" d="M-14.5-64.3c0,0,1.5,8.5-2.4,13.5c-3.8,5-6.5,14.1-5.6,27.1c0.9,12.9-0.9,27.1-9.1,30.6
			c-8.2,3.5-3.2-3.2-9.1-2.9c-5.9,0.3-8.2,3.5-13.2,1.8c0,0,7.7,4.7,10.9,4.4c3.2-0.3,4.1,2.1,6.2,0.6c2.1-1.5,4.7-1.8,4.7-1.8
			s8.2-4.4,10.3-14.1c2.1-9.7,0.3-15.3,1.2-24.7c0.9-9.4,3.5-16.2,5.3-19.7C-13.6-53.1-10.3-56.7-14.5-64.3z"/>
		<path class="st24" d="M-36.6,8.9c0,0-0.9,0.3-1.7-0.2c-0.7-0.5-2.3-1.6-3.9-1.4c-1.6,0.1-6.3,0.6-9.2-0.6c0,0,3.1,1.2,4.8,1.2
			c1.7,0,2.5-0.5,5.1,0.3C-38.8,9-39,9.6-36.6,8.9z"/>
		<path class="st26" d="M-51.2,7.1c0,0,3,1.5,4.7,2c1.7,0.4,1.8,0.5,3.4,0.3c1.6-0.1,3.1,0.3,4.2,0.9c1.1,0.5,2.4-0.3,3.1-0.7
			c0,0,0.1,0,0.1-0.1c0.7-0.4-1.7,0.7-2.3,0.4c-0.6-0.3-3-1.5-4-1.3c-1,0.2-2.4,0.6-3.3,0.3C-46.2,8.8-50.4,7.2-51.2,7.1z"/>
		<path class="st26" d="M-48.7,6.5c0,0,1.3-0.1,2.9-0.8c1.7-0.7,4.1-1.4,5.8-0.8c1.7,0.6,1.7,2.4,3.1,3c0,0-1.5-0.5-2.4-1.3
			c-0.8-0.8-2.2-1.3-3.7-1C-44.4,6-47.4,7.2-48.7,6.5z"/>
		<path class="st28" d="M6.4-72.7c0,0,4.2,31.2,8,43.1C18.1-18.2-4.9,29.9-7.3,50.7c-2.3,20.4,11,16.9,16.7,22c0,0-2.7-4.5-7.4-7.4
			c-4.8-3-8.3-6.8-5.4-15.5c3-8.6,3.6-21.4,11-43.4c3.7-11,13.1-28.5,8-41.6C11.7-45.2,11.7-65,6.4-72.7z"/>
		<path class="st29" d="M-30.6,27.6c0,0,17.1-9.1,20.9-25C-5.8-13.3-9.1-60-8.5-68.9c0,0-2.9,26.8-2.1,36.5
			c0.9,9.7,0.9,35.3-2.6,39.1c-3.5,3.8-11.8,1.5-13.2,7.9c-1.5,6.5-1.8,10.3-7.4,12.4C-42.5,30.3-33.5,28.5-30.6,27.6z"/>
		<path class="st24" d="M-31.2,26.5c0,0,1.3-0.8,2.6-2.7c1.3-1.9,1.5-8.7,3.7-10.4c2.2-1.7,9.1-2.7,10.7-4.4c0,0-0.6,1.9-3.1,2.5
			c-2.5,0.6-5.3,1.2-6.4,2.6c-1.1,1.4-0.6,1.5-0.4,2.7c0.2,1.2-1.2,0.9-2.2,3.1c-1.1,2.2-3.2,6.9-4.6,6.7"/>
		<path class="st24" d="M6.3,69.8c0,0-3.7-2.6-6-4.3c-2.3-1.7-7.1-5.3-5.3-11.8c1.9-6.6,5.3-22.6,6.1-27.3c0,0-3.6,13.1-4.7,17.1
			c-1.1,4-5,15-1.9,17.9C-2.2,64.4,3,68.5,6.3,69.8z"/>
		<path class="st26" d="M-35.9,28.5c0,0,3.8-0.5,5.7-1.4c1.9-0.9,8.2-5.2,14.4-13c0,0-2,2.3-3.1,2.6c-1.2,0.3-2.3-0.1-3.5,2
			c-1.2,2.2-4,5.5-4.9,6.1C-28.4,25.3-29.5,27-35.9,28.5z"/>
		<path class="st26" d="M8.2,71.4c0,0-3.6-1.6-5.1-2.4c-1.5-0.8-7.8-4.9-8.5-6.5c0,0,0.5,2.1,2.1,3.3C-1.6,66.8,2.9,70.1,8.2,71.4z"
			/>
		<path class="st30" d="M5.6-71.8c0,0,6.9,74.6,0.2,82.1c-6.7,7.5-12.6-0.8-22.6-7.5C-26.8-4-33.5-8.1-41-4.8
			c0,0,11.7,4.2,17.6,12.6c5.9,8.4,12.6,10.9,24.3,9.2c11.7-1.7,12-25.1,7.8-78.7L5.6-71.8z"/>
		<path class="st26" d="M-39.4-4.4c0,0,2.6-0.3,6.5,1.5c4,1.8,15.5,11.6,20.3,14.5c4.9,2.9,7.3,4.9,13.2,3.8c0,0-5.2,1.2-9.1,0.7
			c-3.9-0.5-6.8-2.7-13.9-9.5C-28.5,0.7-34.2-4.3-39.4-4.4z"/>
		<path class="st24" d="M-39.2-5c0,0,4.3-1.4,7.5,0.1C-28.5-3.5-23.4-0.8-21,1c2.4,1.8,14.1,11.2,20.5,12.9c0,0-5.8-0.3-9.7-3.4
			C-12.4,8.8-17.8,4.7-20,3C-22.3,1.2-32.9-6.6-39.2-5z"/>
	</g>
</symbol>
<g id="Lag_3">
	<linearGradient id="SVGID_1_" gradientUnits="userSpaceOnUse" x1="0" y1="167.8226" x2="566.9287" y2="167.8226">
		<stop  offset="5.617980e-02" style="stop-color:#E42A21"/>
		<stop  offset="0.4719" style="stop-color:#F9B410"/>
		<stop  offset="1" style="stop-color:#E74F33"/>
	</linearGradient>
	<rect y="0" class="st31" width="566.9" height="335.6"/>
</g>
<g id="Lag_1">
	<g>
		
			<ellipse transform="matrix(-0.9993 -3.658244e-02 3.658244e-02 -0.9993 951.0764 289.2636)" class="st32" cx="478.2" cy="135.9" rx="7.8" ry="7.5"/>
		<circle class="st33" cx="518" cy="150" r="7.5"/>
		<path class="st34" d="M480.8,91.6l48.3,9.3v12.3l18.1,4.5c0,0,2.3,1.8,2.3,4.8c0,2.9,0.5,17.7,0,19.3c-0.5,1.6-3.2,4.1-5.2,6.1
			c-2,2-10.2,9.5-13.6,7.9c-3.4-1.6-5.2-2.3-5.2-2.3c0.5,1.8-2.9-12.9-13.1-7.5c-1.4,0.7-2,1.1-2,1.1l-48.7-17.2v-27.9L480.8,91.6z"
			/>
		<polygon class="st35" points="547.1,122.3 547.1,133.4 533.6,143.9 533.6,130.9 		"/>
		<polygon class="st35" points="530,131.2 517.5,127.5 517.5,135.9 529.8,140.7 		"/>
		<polyline class="st36" points="461.5,101.9 510.3,114.4 529.1,100.8 		"/>
		<line class="st37" x1="510.3" y1="147" x2="510.3" y2="114.4"/>
		<ellipse class="st38" cx="547.3" cy="140.5" rx="2.2" ry="2.9"/>
		<ellipse class="st38" cx="535.5" cy="151.1" rx="2.2" ry="2.9"/>
	</g>
	<g>
		<circle class="st39" cx="305.8" cy="283.7" r="28.2"/>
		<g>
			<g>
				<g>
					<path class="st40" d="M310.9,259.1c0,0,0.1,0,0.1,0c0,0,0.1,0,0.1,0L310.9,259.1z M287.1,267.5
						C287.1,267.5,287.1,267.5,287.1,267.5c0.1-0.1,0.1-0.1,0.1-0.2L287.1,267.5z M282.3,292.2c0,0,0-0.1,0-0.1c0,0,0-0.1,0-0.1
						L282.3,292.2z M301.4,308.9c0,0-0.1,0-0.1,0c0,0-0.1,0-0.1,0L301.4,308.9z M325.3,300.5C325.2,300.5,325.2,300.5,325.3,300.5
						c-0.1,0.1-0.1,0.1-0.1,0.2L325.3,300.5z M329.2,273.3c-0.7-1.3-4.1-3.3-5.7-2.2c-1.7,1.2-14.2,10.4-14.2,10.4l0.1,0.2
						c-0.4-0.6-1-1-1.7-1.3l0.4,0.1c0,0,5.8-14.4,6.5-16.4c0.7-1.9-2.1-4.6-3.5-5c-1.5-0.2-5.1,1.3-5.2,3.3
						c-0.1,2.1-0.2,17.6-0.2,17.6l0.5,0.1c-0.8,0-1.5,0.2-2.1,0.6l0.1-0.1c0,0-9.6-12.2-10.9-13.8c-1.3-1.5-5.1-0.5-6.1,0.6
						c-0.9,1.2-1.4,5,0.3,6.1c1.7,1.1,15.2,8.9,15.2,8.9l0.1-0.1c-0.1,0.3-0.2,0.6-0.3,0.9c0,0.3-0.1,0.5-0.1,0.8l0,0
						c0,0-15.4,2.2-17.4,2.5c-2,0.4-2.9,4.1-2.6,5.6c0.6,1.4,3.6,3.8,5.4,2.8c1.8-0.9,14.7-8.3,15.3-8.6c0.4,0.5,0.9,0.9,1.4,1.2
						l-0.2,0c0,0-5.8,14.4-6.5,16.4c-0.7,1.9,2.1,4.6,3.5,5c1.5,0.2,5.1-1.3,5.2-3.3c0.1-2.1,0.2-17.6,0.2-17.6l-0.1,0
						c0.6,0,1.2-0.2,1.7-0.6c0.8,1,9.6,12.2,10.9,13.7c1.3,1.5,5.1,0.5,6.1-0.6c0.9-1.2,1.4-5-0.3-6.1c-1.7-1.1-14.1-8.3-15.1-8.9
						c0.1-0.2,0.2-0.5,0.2-0.7c0.1-0.6,0.1-1.2-0.1-1.7l0.3,0.6c0,0,15-3.9,17-4.5C329.2,278.6,329.7,274.7,329.2,273.3z
						 M329.1,273.2c0,0,0,0.1,0,0.1c0,0,0,0.1,0.1,0.1L329.1,273.2z"/>
				</g>
			</g>
			<g>
				<g>
					<path d="M305.6,258.6c0,0,0.1,0,0.1,0c0,0,0.1,0,0.1,0H305.6z M283.8,271.5C283.8,271.4,283.9,271.4,283.8,271.5
						c0.1-0.1,0.1-0.2,0.1-0.2L283.8,271.5z M283.9,296.6c0,0,0-0.1,0-0.1c0,0,0-0.1-0.1-0.1L283.9,296.6z M305.8,309.3
						c0,0-0.1,0-0.1,0c0,0-0.1,0-0.1,0H305.8z M327.5,296.6l0.1-0.2c0,0,0,0.1-0.1,0.1C327.6,296.6,327.5,296.6,327.5,296.6z
						 M326.1,290.6c-1.8-0.7-15.4-5.4-16.5-5.8c0-0.2,0.1-0.5,0.1-0.8c0-0.6-0.1-1.2-0.4-1.7l0.4,0.6c0,0,14-6.8,15.8-7.7
						c1.8-0.9,1.5-4.8,0.7-6.1c-1-1.1-4.6-2.5-6-1c-1.4,1.5-12,12.9-12,12.9l0.1,0.2c-0.5-0.5-1.2-0.8-1.9-1h0.4
						c0,0,2.9-15.3,3.2-17.3c0.3-2-3-4.1-4.4-4.2c-1.5,0.1-4.7,2.2-4.4,4.2c0.3,2,3.2,17.3,3.2,17.3h0.5c-0.7,0.1-1.4,0.5-1.9,1
						l0-0.1c0,0-11.8-10.2-13.4-11.4c-1.6-1.3-5.1,0.5-5.9,1.7c-0.6,1.3-0.4,5.2,1.4,5.9c1.9,0.7,16.6,5.9,16.6,5.9l0.1-0.1
						c-0.1,0.3-0.1,0.6-0.1,0.9c0,0.3,0,0.5,0.1,0.8l0,0c0,0-14.7,5.1-16.6,5.9c-1.9,0.7-2.1,4.6-1.4,5.9c0.8,1.2,4.3,3,5.9,1.7
						c1.6-1.3,12.8-11,13.3-11.4c0.5,0.4,1,0.7,1.6,0.9h-0.2c0,0-2.9,15.3-3.2,17.3c-0.3,2,3,4.1,4.4,4.2c1.5-0.1,4.7-2.2,4.4-4.2
						c-0.3-2-3.2-17.3-3.2-17.3h-0.1c0.6-0.2,1.1-0.5,1.6-0.9c0.9,0.8,11.8,10.2,13.3,11.4c1.6,1.3,5-0.5,5.9-1.7
						C328.2,295.2,328,291.3,326.1,290.6z M326.2,269C326.2,269,326.2,269,326.2,269c0.1,0.1,0.1,0.2,0.1,0.2L326.2,269z"/>
				</g>
				<g>
					<path class="st41" d="M305.6,258.6c0,0,0.1,0,0.1,0c0,0,0.1,0,0.1,0H305.6z M283.8,271.5C283.8,271.4,283.9,271.4,283.8,271.5
						c0.1-0.1,0.1-0.2,0.1-0.2L283.8,271.5z M283.9,296.6c0,0,0-0.1,0-0.1c0,0,0-0.1-0.1-0.1L283.9,296.6z M305.8,309.3
						c0,0-0.1,0-0.1,0c0,0-0.1,0-0.1,0H305.8z M327.5,296.6l0.1-0.2c0,0,0,0.1-0.1,0.1C327.6,296.6,327.5,296.6,327.5,296.6z
						 M326.1,290.6c-1.8-0.7-15.4-5.4-16.5-5.8c0-0.2,0.1-0.5,0.1-0.8c0-0.6-0.1-1.2-0.4-1.7l0.4,0.6c0,0,14-6.8,15.8-7.7
						c1.8-0.9,1.5-4.8,0.7-6.1c-1-1.1-4.6-2.5-6-1c-1.4,1.5-12,12.9-12,12.9l0.1,0.2c-0.5-0.5-1.2-0.8-1.9-1h0.4
						c0,0,2.9-15.3,3.2-17.3c0.3-2-3-4.1-4.4-4.2c-1.5,0.1-4.7,2.2-4.4,4.2c0.3,2,3.2,17.3,3.2,17.3h0.5c-0.7,0.1-1.4,0.5-1.9,1
						l0-0.1c0,0-11.8-10.2-13.4-11.4c-1.6-1.3-5.1,0.5-5.9,1.7c-0.6,1.3-0.4,5.2,1.4,5.9c1.9,0.7,16.6,5.9,16.6,5.9l0.1-0.1
						c-0.1,0.3-0.1,0.6-0.1,0.9c0,0.3,0,0.5,0.1,0.8l0,0c0,0-14.7,5.1-16.6,5.9c-1.9,0.7-2.1,4.6-1.4,5.9c0.8,1.2,4.3,3,5.9,1.7
						c1.6-1.3,12.8-11,13.3-11.4c0.5,0.4,1,0.7,1.6,0.9h-0.2c0,0-2.9,15.3-3.2,17.3c-0.3,2,3,4.1,4.4,4.2c1.5-0.1,4.7-2.2,4.4-4.2
						c-0.3-2-3.2-17.3-3.2-17.3h-0.1c0.6-0.2,1.1-0.5,1.6-0.9c0.9,0.8,11.8,10.2,13.3,11.4c1.6,1.3,5-0.5,5.9-1.7
						C328.2,295.2,328,291.3,326.1,290.6z M326.2,269C326.2,269,326.2,269,326.2,269c0.1,0.1,0.1,0.2,0.1,0.2L326.2,269z"/>
				</g>
			</g>
		</g>
	</g>
	<g>
		<g>
			<path class="st42" d="M413.1,141.7h-42.7c0,0,0.2-62.5,0.2-65.3s2.4-5.1,5.3-5.1c3,0,29.9,0,32.1,0c2.2,0,5.1,2.6,5.1,5.1
				C413.1,79,413.1,141.7,413.1,141.7z"/>
			<path class="st43" d="M407.1,94c0,0.9-0.7,1.7-1.7,1.7H378c-0.9,0-1.7-0.7-1.7-1.7V80.5c0-0.9,0.7-1.7,1.7-1.7h27.3
				c0.9,0,1.7,0.8,1.7,1.7V94z"/>
			<g>
				<g>
					<path d="M368.3,93.6l2.6-6.9l-0.4-2.6L366,93c0,0-1.7-0.5-2.5,0.7c-0.8,1.2-3.7,7.7-3,9c0.7,1.3,1.5,0.3,1.3,1.5
						c-0.2,1.2-0.9,3.6-0.9,3.6l2.2,1.2c0,0,6.2-13.3,5.7-13.8C368.4,94.8,368.3,93.6,368.3,93.6z M366.5,95.9l-2.4,5.8
						c-0.3,0.7-1.1,1-1.8,0.7c-0.7-0.3-1-1.1-0.7-1.8l2.4-5.8c0.3-0.7,1.1-1,1.8-0.7C366.5,94.4,366.8,95.2,366.5,95.9z"/>
				</g>
				<g>
					<path class="st44" d="M368.3,93.6l2.6-6.9l-0.4-2.6L366,93c0,0-1.7-0.5-2.5,0.7c-0.8,1.2-3.7,7.7-3,9c0.7,1.3,1.5,0.3,1.3,1.5
						c-0.2,1.2-0.9,3.6-0.9,3.6l2.2,1.2c0,0,6.2-13.3,5.7-13.8C368.4,94.8,368.3,93.6,368.3,93.6z M366.5,95.9l-2.4,5.8
						c-0.3,0.7-1.1,1-1.8,0.7c-0.7-0.3-1-1.1-0.7-1.8l2.4-5.8c0.3-0.7,1.1-1,1.8-0.7C366.5,94.4,366.8,95.2,366.5,95.9z"/>
				</g>
			</g>
			<path class="st45" d="M362.6,107.6c0,0-3.5,10.5-4.1,15.7c-0.6,5.2-2.9,16,3.6,15.4c4.3-0.4,1.9-7.6,2.8-13
				c0.9-5.4,2.7-9,5.4-8.7"/>
		</g>
		<rect x="378" y="82.9" class="st46" width="6" height="9"/>
		<rect x="385.2" y="82.9" class="st46" width="6" height="9"/>
		<rect x="392.4" y="82.9" class="st46" width="6" height="9"/>
		<rect x="399.5" y="82.9" class="st46" width="6" height="9"/>
		<text transform="matrix(1 0 0 1 379.1973 89.7837)" class="st18 st47 st48">1</text>
		<text transform="matrix(1 0 0 1 386.3643 89.7837)" class="st18 st47 st48">2</text>
		<text transform="matrix(1 0 0 1 393.5312 89.7837)" class="st18 st47 st48">9</text>
		<text transform="matrix(1 0 0 1 400.6992 89.7837)" class="st18 st47 st48">5</text>
		<rect x="391.1" y="88.7" class="st18" width="1.3" height="1.5"/>
	</g>
	<g>
		<circle class="st49" cx="470.3" cy="58.3" r="7"/>
		<circle class="st49" cx="529.4" cy="58.3" r="7"/>
		<path class="st50" d="M455,56.6c0,0,3.5-13.8,13.3-14.5c1.5-3.8,9.3-12.5,20.8-12.5c11.5,0,19.6,1,23.3,2.3
			c3.8,1.3,8.8,9.3,10.3,11.5c4.5,0.3,22.8,1.5,23.6,14.3h-8.5c0,0-4-2.3-7.8-2.3c-3.8,0-6.3,2.3-8.8,2.3c-2.5,0-43.1,0-43.1,0
			s-3-2.5-7-2.5c-4,0-7,1.8-8.3,1.8C461.5,56.8,455,56.6,455,56.6z"/>
		<path class="st51" d="M517.4,43.3c0,0-4.5-9.3-5.8-9.5c-1.3-0.3-12.5-1.8-12.5-1.8l-0.2,10.3L517.4,43.3z"/>
		<path class="st51" d="M495.6,42l0.5-9.5c0,0-14.8-2.3-16.8,9.3C492.6,41.8,495.6,42,495.6,42z"/>
		<ellipse transform="matrix(0.956 -0.2932 0.2932 0.956 8.0662 161.4408)" class="st38" cx="542.5" cy="53.8" rx="2" ry="3"/>
	</g>
	<g>
		<g>
			<g>
				<path d="M168.1,182.1c-0.2-4-11.4,8.7-11.4,8.7h-8.2c-1.9-5.3-6.5-9.3-12.2-10.3v-4.6c0,0,14-11.2,11.4-11.2
					c-1.3,0-9.1-0.2-13.9-0.2c-4.9,0-12.4-0.1-14.4,0c-4,0.2,11.2,11.4,11.2,11.4v4.6c-7.3,1.4-12.9,7.8-12.9,15.6
					c0,4.8,2.1,9.1,5.5,12h0l-7.8,6.6v6.6h3.8v-3.8H132h3h12.9v3.8h3.8v-6.6l-7.8-6.6h0c2.1-1.8,3.7-4.1,4.6-6.7v0.2h8.2
					c0,0,11.2,11.4,11.2,8.9c0-1.3,0.2-9.1,0.2-13.9C168.1,191.7,168.2,184.1,168.1,182.1z"/>
			</g>
		</g>
		<circle class="st52" cx="133.3" cy="196.1" r="9.9"/>
	</g>
	<g>
		<g>
			
				<use xlink:href="#Planter_1"  width="107.8" height="145.4" x="-53.9" y="-72.7" transform="matrix(0.8078 0 0 -0.8078 54.8374 170.8447)" style="overflow:visible;"/>
			<g>
				<g>
					
						<use xlink:href="#Græs_1"  width="28.9" height="44.1" x="-14.5" y="-22" transform="matrix(1 0 0 -1 43.1958 213.5557)" style="overflow:visible;"/>
					
						<use xlink:href="#Græs_1"  width="28.9" height="44.1" x="-14.5" y="-22" transform="matrix(1 0 0 -1 66.2583 216.1182)" style="overflow:visible;"/>
				</g>
				<g>
					
						<use xlink:href="#Græs_3"  width="35" height="60.4" x="-17.5" y="-30.2" transform="matrix(1.2726 0 0 -1.2726 68.4834 189.1147)" style="overflow:visible;"/>
					
						<use xlink:href="#Græs_3"  width="35" height="60.4" x="-17.5" y="-30.2" transform="matrix(1.2726 0 0 -1.2726 69.6299 187.9946)" style="overflow:visible;"/>
				</g>
				
					<use xlink:href="#Græs_3"  width="35" height="60.4" x="-17.5" y="-30.2" transform="matrix(1.1612 0 0 -1.1612 41.0957 194.854)" style="overflow:visible;"/>
			</g>
		</g>
		
			<use xlink:href="#Asters"  width="32.3" height="28.8" x="-16.1" y="-14.4" transform="matrix(0.8922 0 0 -0.8922 40.2349 143.4102)" style="overflow:visible;"/>
		
			<use xlink:href="#Mælkebøtte"  width="73.8" height="157.5" x="-36.9" y="-78.7" transform="matrix(0.5792 0 0 -0.5792 79.4912 192.3828)" style="overflow:visible;"/>
		
			<use xlink:href="#Mælkebøtte"  width="73.8" height="157.5" x="-36.9" y="-78.7" transform="matrix(-0.4614 0 0 -0.4614 23.0293 201.6606)" style="overflow:visible;"/>
	</g>
	<g>
		
			<linearGradient id="SVGID_2_" gradientUnits="userSpaceOnUse" x1="294.4406" y1="306.4258" x2="294.4406" y2="290.8985" gradientTransform="matrix(1 0 0 1 150.1191 0)">
			<stop  offset="0" style="stop-color:#646567"/>
			<stop  offset="1" style="stop-color:#000000"/>
		</linearGradient>
		<path class="st53" d="M439.5,293.8c0,0,4.5,2.4,4.1,4.8c-0.4,2.4-1.4,4.8-2.9,6.1c-1.5,1.3-2,1.7-2,1.7h4.9l1.5-2.8
			c0,0-0.8,2.1-0.5,2.4c0.4,0.3,0.5,0,1.5-1.9c1-1.9,1.2-1.7,2.4-2.9c1.1-1.2,2.2-2.3,1.9-3.3c-0.3-1-0.4-2.3-0.4-2.3l-3.1-4.7
			l-7.8,1.9L439.5,293.8z"/>
		
			<linearGradient id="SVGID_3_" gradientUnits="userSpaceOnUse" x1="257.9762" y1="307.3466" x2="257.9762" y2="294.2563" gradientTransform="matrix(1 0 0 1 150.1191 0)">
			<stop  offset="0" style="stop-color:#646567"/>
			<stop  offset="1" style="stop-color:#000000"/>
		</linearGradient>
		<path class="st54" d="M405.4,297.3c0,0,0.8,4,0.7,6.1c-0.1,2.2-0.5,3.3-0.9,3.5c1.2,0.1,2.6,0.8,3.5,0.3c0.2-0.9,0.3-2,0.3-2
			l0.3,1.2c0,0,0.5,1.1,0.5,0.1c0-1,0.4-4.4,0.2-5.2c-0.2-0.8-0.1-1.3,0.5-2.1c0.6-0.8,0.9-4,0.8-4.6c-0.2-0.6-3.6-0.4-3.6-0.4
			L405.4,297.3z"/>
		
			<linearGradient id="SVGID_4_" gradientUnits="userSpaceOnUse" x1="221.1557" y1="282.9942" x2="221.1557" y2="275.3721" gradientTransform="matrix(1 0 0 1 150.1191 0)">
			<stop  offset="0" style="stop-color:#000000"/>
			<stop  offset="1" style="stop-color:#5D5D5F"/>
		</linearGradient>
		<path class="st55" d="M368.7,282.2c0,0-0.8,0.8,0.4,0.8c1.2,0,4.1-0.1,4.3-0.7c0.2-0.6,0.8-7,0.8-7l-2.3,0.6L368.7,282.2z"/>
		<path class="st56" d="M369.2,284.9c0,0,2.5-1.1,3-3.4c0.5-2.3,0.8-3.9,1-4.3c0.3-0.4-0.6-1.1-1.3-0.6c-0.6,0.5-3,5.9-3.4,5.9
			c-0.4,0,0.2-1.5,1-3.3c0.8-1.8,1.3-3.4,2.3-3.6c1-0.3,6.6-3.9,8.9-5.6c2.3-1.8,14.2-5.3,21.5-6.1c7.3-0.9,12.5-2,18.2-2.5
			c5.6-0.5,16.6-1,24.2,1c7.7,2,11,3.5,12.8,5.1c1.8,1.6,1.4,2.9,2,2.6c0.6-0.3,0.9-0.5,0.9-0.5l1.4,0.9c0,0-1.6,0.6-1.5,1.5
			c0.1,0.9,3,6,1,11c-2,5-3.9,7.5-3.9,8.9c0,1.4,0.3,4.1,1.1,5c0.9,0.9,2,2.3,1,3.1c-1,0.9-1.5,1.9-1.5,3.4c0,1.5-0.6,3.3-0.6,3.3
			l-0.9-1l-0.6,1.8h-5.1c0,0,2.4-2.4,2.6-3.4c0.3-1,1-2.4,0.4-3.5c-0.6-1.1-3.5-3.9-5.5-6.5c-2-2.6-1.3-1.8-1.3-1.8s-5,1.1-8.4,1.8
			c-3.4,0.6-7.2,1.3-13.2,1.3c-6,0-13.6,0.5-17.1,0.1c-1.3,1.3-3.5,3.8-4.8,5.5c-1.3,1.8-1.6,4.6-2,5.8c-0.4,1.1-0.5,1.9-0.9,1.8
			c-0.4-0.1-0.5-1.3-0.5-1.3l-0.4,0.9l-4.4-0.3c0,0,0.4-0.5,1.3-2.3c0.9-1.8,2.6-6.3,2-8.7c-0.6-2.4-0.3-3.4-1.8-3.8
			c-1.5-0.4-2.9-0.8-4.8-0.8c-1.9,0-3.1,0.1-7.2,0c-4-0.1-7.9,0.4-9.9,0c-2-0.4-3.1-1-3.6-1.1c-0.5-0.1,0.5-0.5,0.5-0.5l-1.4,0.4
			l-1.4-0.4L369.2,284.9z"/>
		<path class="st57" d="M368.8,284.9c0.6,0,1.8,0.9,2.3,1.9c0.5,1,0.7,1.7,0.3,2.5c-0.4,0.8-1.6,1.7-2.6,1.4
			c-0.8,0.1-1.9,0.3-2.2-0.9c-0.3-1.3-0.4-2,0.3-3.2C367.4,285.5,367.6,284.8,368.8,284.9z"/>
		<ellipse class="st58" cx="367.8" cy="288.2" rx="0.5" ry="1.1"/>
		<ellipse class="st58" cx="369.6" cy="288.2" rx="0.5" ry="1.1"/>
		
			<linearGradient id="SVGID_5_" gradientUnits="userSpaceOnUse" x1="231.1082" y1="283.4999" x2="231.1082" y2="274.4307" gradientTransform="matrix(1 0 0 1 150.1191 0)">
			<stop  offset="0" style="stop-color:#000000"/>
			<stop  offset="1" style="stop-color:#5D5D5F"/>
		</linearGradient>
		<path class="st59" d="M380.2,274.4c0,0-5.2,1.3-5.5,5.5c-0.3,4.1-0.7,3.4,1.6,3.6c2.3,0.2,6.8-0.4,8.1-1.9
			c1.3-1.5,3.1-3.9,3.1-3.9s0.9-0.6,0.1-1.4c-0.8-0.8-1-1.2-1-1.2"/>
		<path class="st60" d="M371.9,290.6c0,0,5-1.6,5.1-3.9"/>
		<path class="st61" d="M469.2,271.1c0,0-3.3-0.2-3.4-0.9c-0.7,0.1-3.3,1.2-4.6,0.2c-1.3-1-2.4-3.1-1.1-4.5c1.2-1.4,2-0.8,2.9,0.1
			c0.9,0.8,1,2.5,0.3,3.3c-0.8,0.8,0,0,0,0l-1.2,0.3c0,0,0.7-2.6,0.1-2.9c-0.6-0.3-1.3-0.4-1.2,0.7c0.1,1-0.3,1.6,0.4,2
			c0.7,0.4,1.5,0.4,2.8-0.2c1.3-0.6,1.8-1.8,2.6-1.2c0.8,0.6,3.3,2.6,3.3,2.5c0-0.1,1,0,1,0l-1,0.6v0.3l-0.8-0.4"/>
		<path class="st57" d="M395.5,307.8c0,0-2.7,1.4-2,1.9c0.8,0.5,4.4,0.6,4.9-0.1c0.5-0.7,1.9-1.4,1.3-1.7c-0.6-0.3-4.4-0.4-4.4-0.4"
			/>
		<path class="st57" d="M405.3,306.8c0,0-2.8,1.7-2,2c0.8,0.3,4.4-0.3,4.4-0.3s1.4-0.9,0.8-1.5C407.8,306.4,406.5,307.4,405.3,306.8
			z"/>
		<path class="st57" d="M443.4,306.4c0,0-0.2,1.8-1.1,1.9c-0.9,0.1-5,0.5-5.6,0.1c0.8-0.8,1.7-1.9,2.1-2.1
			C439.2,306.1,443,306.4,443.4,306.4z"/>
		<path class="st57" d="M455.6,307.3c0,0-0.1,1.4-1.2,1.6c-1.1,0.2-4.9,0.8-5.6,0.5c1.3-1,1.7-1.9,2.1-2.2
			C451.2,306.9,455.3,307.6,455.6,307.3z"/>
		<path class="st60" d="M408.1,295.4c0,0,4.1-3.8,2.4-6.8"/>
		<path class="st60" d="M446.7,292c0,0-5.8-4.7-3.4-11.3"/>
		<path class="st62" d="M417.2,295.4c0,0,1.9,0.9,1.3-1.9"/>
		<path class="st62" d="M423.9,295.4c1.1-1.1,1.9-1.3,0.9-2.4"/>
		<path class="st62" d="M430.3,295.2c0,0,2.4-0.8,1.3-1.7"/>
	</g>
	<g>
		<path class="st46" d="M511.8,253.1l13.9,7.5l-0.1-6.3l-9-8.7l-0.1-18.5l34.8,9.2v-8.2l-34.7-13.9c0,0-0.3-22.9-0.3-27.9
			c0-5-2.7-6.1-5-6.5h0.7c-2.3,0.4-5,1.6-5,6.5c0,5-0.3,27.9-0.3,27.9l-34.7,13.9v8.2l34.8-9.2l-0.1,18.5l-9,8.7l-0.1,6.3l13.9-7.5
			H511.8z"/>
		<path class="st46" d="M482.8,224.6c0,0.8-0.6,1.4-1.4,1.4l0,0c-0.8,0-1.4-0.6-1.4-1.4v-3.5c0-0.8,0.6-1.4,1.4-1.4l0,0
			c0.8,0,1.4,0.6,1.4,1.4V224.6z"/>
		<path class="st46" d="M543.3,224.6c0,0.8-0.6,1.4-1.4,1.4l0,0c-0.8,0-1.4-0.6-1.4-1.4v-3.5c0-0.8,0.6-1.4,1.4-1.4l0,0
			c0.8,0,1.4,0.6,1.4,1.4V224.6z"/>
		<path class="st46" d="M494.5,219.8c0,0.8-0.6,1.4-1.4,1.4l0,0c-0.8,0-1.4-0.6-1.4-1.4v-3.5c0-0.8,0.6-1.4,1.4-1.4l0,0
			c0.8,0,1.4,0.6,1.4,1.4V219.8z"/>
		<path class="st46" d="M529.5,219.8c0,0.8-0.6,1.4-1.4,1.4l0,0c-0.8,0-1.4-0.6-1.4-1.4v-3.5c0-0.8,0.6-1.4,1.4-1.4l0,0
			c0.8,0,1.4,0.6,1.4,1.4V219.8z"/>
	</g>
	<g>
		<rect x="278" y="67.7" width="46.6" height="74"/>
		<path class="st63" d="M323.2,69.4c0,0-41.3,0.3-41.3,7.3c0,7.1,37.9,0.8,37.9,7.9c0,7.1-37.9,0-37.9,7.6c0,7.6,37.9,0.3,37.9,7.6
			c0,7.3-37.9,0.6-37.9,7.6c0,7.1,37.9,0.6,37.9,7.6c0,7.1-38.2,0.6-38.2,7.9c0,7.3,38.2,0,38.2,7.3c0,7.3-37.9,0.8-37.9,7.3"/>
		<path class="st64" d="M278.6,72.4c0,0,41.3,0.3,41.3,7.3c0,7.1-37.9,0.8-37.9,7.9c0,7.1,37.9,0,37.9,7.6c0,7.6-37.9,0.3-37.9,7.6
			c0,7.3,37.9,0.6,37.9,7.6c0,7.1-37.9,0.6-37.9,7.6c0,7.1,38.2,0.6,38.2,7.9c0,7.3-38.2,0-38.2,7.3c0,7.3,37.9,0.8,37.9,7.3"/>
	</g>
	<g>
		<g>
			<linearGradient id="SVGID_6_" gradientUnits="userSpaceOnUse" x1="194.2705" y1="202.7063" x2="244.6904" y2="202.7063">
				<stop  offset="0" style="stop-color:#848687"/>
				<stop  offset="1" style="stop-color:#000000"/>
			</linearGradient>
			<path class="st65" d="M216.7,240c0-3-5.9-4.2-10.2-4.2c-4.2,0-12.3-1.3-12.3-5.5c0-4.2,0-63.6,0-63.6v-1.3h50.4v1.3
				c0,0,0,59.4,0,63.6c0,4.2-8.1,5.5-12.3,5.5c-4.2,0-10.2,1.3-10.2,4.2H216.7z"/>
		</g>
		<g>
			<path class="st66" d="M222.2,241.8c0,0,0,1.2,0-1.8c0-3,5.9-4.2,10.2-4.2c4.2,0,12.3-1.3,12.3-5.5c0-4.2,0-35.6,0-35.6v-1.3
				c0,0,0-31.4,0-35.6c0-4.2-8.1-5.5-12.3-5.5c-4.2,0-10.2-1.3-10.2-4.2c0-3,0-6.8,0-6.8"/>
			<path class="st66" d="M216.7,241.8c0,0,0,1.2,0-1.8c0-3-5.9-4.2-10.2-4.2c-4.2,0-12.3-1.3-12.3-5.5c0-4.2,0-35.6,0-35.6v-1.3
				c0,0,0-31.4,0-35.6c0-4.2,8.1-5.5,12.3-5.5c4.2,0,10.2-1.3,10.2-4.2c0-3,0-6.8,0-6.8"/>
		</g>
		<linearGradient id="SVGID_7_" gradientUnits="userSpaceOnUse" x1="194.5" y1="164.875" x2="244.5" y2="164.875">
			<stop  offset="0" style="stop-color:#000000"/>
			<stop  offset="0.2732" style="stop-color:#49494B"/>
			<stop  offset="0.5802" style="stop-color:#6A6B6D"/>
			<stop  offset="0.8336" style="stop-color:#7E7F81"/>
			<stop  offset="1" style="stop-color:#848687"/>
		</linearGradient>
		<ellipse class="st67" cx="219.5" cy="164.9" rx="25" ry="2.4"/>
		<g>
			<g>
				<path class="st68" d="M230.3,183.7h5.9c0.8,0,1.4-0.6,1.4-1.4v-4.9c0-0.8-0.6-1.4-1.4-1.4h-5.9c-0.8,0-1.4,0.6-1.4,1.4v2.1h-8.5
					v-38.2h-2v38.2h-8.2v-2.1c0-0.8-0.6-1.4-1.4-1.4h-5.9c-0.8,0-1.4,0.6-1.4,1.4v4.9c0,0.8,0.6,1.4,1.4,1.4h5.9
					c0.8,0,1.4-0.6,1.4-1.4v-1.6h8.2v16.8h-8.2v-2.1c0-0.8-0.6-1.4-1.4-1.4h-5.9c-0.8,0-1.4,0.6-1.4,1.4v4.9c0,0.8,0.6,1.4,1.4,1.4
					h5.9c0.8,0,1.4-0.6,1.4-1.4v-1.6h8.2v16.8h-8.2v-2.1c0-0.8-0.6-1.4-1.4-1.4h-5.9c-0.8,0-1.4,0.6-1.4,1.4v4.9
					c0,0.8,0.6,1.4,1.4,1.4h5.9c0.8,0,1.4-0.6,1.4-1.4v-1.6h18.8v1.6c0,0.8,0.6,1.4,1.4,1.4h5.9c0.8,0,1.4-0.6,1.4-1.4v-4.9
					c0-0.8-0.6-1.4-1.4-1.4h-5.9c-0.8,0-1.4,0.6-1.4,1.4v2.1h-8.5v-16.8h8.5v1.6c0,0.8,0.6,1.4,1.4,1.4h5.9c0.8,0,1.4-0.6,1.4-1.4
					v-4.9c0-0.8-0.6-1.4-1.4-1.4h-5.9c-0.8,0-1.4,0.6-1.4,1.4v2.1h-8.5v-16.8h8.5v1.6C228.9,183.1,229.5,183.7,230.3,183.7z"/>
			</g>
			<g>
				<path class="st69" d="M230.3,183.7h5.9c0.8,0,1.4-0.6,1.4-1.4v-4.9c0-0.8-0.6-1.4-1.4-1.4h-5.9c-0.8,0-1.4,0.6-1.4,1.4v2.1h-8.5
					v-38.2h-2v38.2h-8.2v-2.1c0-0.8-0.6-1.4-1.4-1.4h-5.9c-0.8,0-1.4,0.6-1.4,1.4v4.9c0,0.8,0.6,1.4,1.4,1.4h5.9
					c0.8,0,1.4-0.6,1.4-1.4v-1.6h8.2v16.8h-8.2v-2.1c0-0.8-0.6-1.4-1.4-1.4h-5.9c-0.8,0-1.4,0.6-1.4,1.4v4.9c0,0.8,0.6,1.4,1.4,1.4
					h5.9c0.8,0,1.4-0.6,1.4-1.4v-1.6h8.2v16.8h-8.2v-2.1c0-0.8-0.6-1.4-1.4-1.4h-5.9c-0.8,0-1.4,0.6-1.4,1.4v4.9
					c0,0.8,0.6,1.4,1.4,1.4h5.9c0.8,0,1.4-0.6,1.4-1.4v-1.6h18.8v1.6c0,0.8,0.6,1.4,1.4,1.4h5.9c0.8,0,1.4-0.6,1.4-1.4v-4.9
					c0-0.8-0.6-1.4-1.4-1.4h-5.9c-0.8,0-1.4,0.6-1.4,1.4v2.1h-8.5v-16.8h8.5v1.6c0,0.8,0.6,1.4,1.4,1.4h5.9c0.8,0,1.4-0.6,1.4-1.4
					v-4.9c0-0.8-0.6-1.4-1.4-1.4h-5.9c-0.8,0-1.4,0.6-1.4,1.4v2.1h-8.5v-16.8h8.5v1.6C228.9,183.1,229.5,183.7,230.3,183.7z"/>
			</g>
		</g>
	</g>
</g>
<g id="pile">
	<g>
		<line class="st70" x1="94" y1="197.5" x2="112.9" y2="197.5"/>
		<polygon class="st18" points="106.1,202.5 106.1,192.6 114.7,197.5 		"/>
	</g>
	<g>
		<line class="st70" x1="70.8" y1="242.2" x2="70.8" y2="280.1"/>
		<polygon class="st18" points="65.8,273.3 75.8,273.3 70.8,281.9 		"/>
	</g>
	<line class="st70" x1="170.4" y1="197.5" x2="189.3" y2="197.5"/>
	<line class="st70" x1="246.7" y1="197.5" x2="254.6" y2="197.5"/>
	<polygon class="st18" points="182.5,202.5 182.5,192.6 191.1,197.5 	"/>
	<g>
		<polyline class="st70" points="272.8,102.5 253.9,102.5 253.9,283.2 		"/>
		<polygon class="st18" points="266,107.4 266,97.5 274.6,102.5 		"/>
	</g>
	<g>
		<line class="st70" x1="332.2" y1="102.5" x2="351.1" y2="102.5"/>
		<polygon class="st18" points="344.3,107.4 344.3,97.5 352.8,102.5 		"/>
	</g>
	<g>
		<line class="st70" x1="415.4" y1="102.5" x2="429.3" y2="102.5"/>
	</g>
	<g>
		<polyline class="st70" points="448.3,49.7 429.4,49.7 429.4,208.2 		"/>
		<polygon class="st18" points="441.5,54.7 441.5,44.8 450.1,49.7 		"/>
	</g>
	<g>
		<line class="st70" x1="429.4" y1="130.9" x2="448.3" y2="130.9"/>
		<polygon class="st18" points="441.5,135.9 441.5,126 450.1,130.9 		"/>
	</g>
	<g>
		<line class="st70" x1="429.4" y1="208.2" x2="448.3" y2="208.2"/>
		<polygon class="st18" points="441.5,213.1 441.5,203.2 450.1,208.2 		"/>
	</g>
	<g>
		<line class="st70" x1="253.9" y1="283.2" x2="272.8" y2="283.2"/>
		<polygon class="st18" points="266,288.2 266,278.3 274.6,283.2 		"/>
	</g>
	<g>
		<line class="st70" x1="337.8" y1="283.2" x2="356.7" y2="283.2"/>
		<polygon class="st18" points="349.9,288.2 349.9,278.3 358.4,283.2 		"/>
	</g>
</g>
<g id="txt">
	<text transform="matrix(1 0 0 1 16.9375 99.4854)" class="st18 st71 st72">Biomasse/organisk stof</text>
	<text transform="matrix(1 0 0 1 114.6646 151.8569)" class="st18 st71 st72">Findeling</text>
	<text transform="matrix(1 0 0 1 201.7271 133.1611)" class="st18 st71 st72">Gæring</text>
	<text transform="matrix(1 0 0 1 221.6025 98.0005)"><tspan x="0" y="0" class="st18 st71 st72">Flydende</tspan><tspan x="0" y="10.8" class="st18 st71 st72">masse</tspan></text>
	<text transform="matrix(1 0 0 1 277.5034 61.4912)" class="st18 st71 st72">Destillation</text>
	<text transform="matrix(1 0 0 1 361.8389 61.4907)" class="st18 st71 st72">Brændstoffer</text>
	<text transform="matrix(1 0 0 1 211.6646 294.0312)" class="st18 st71 st72">Fast masse</text>
	<text transform="matrix(1 0 0 1 27.8262 294.0312)" class="st18 st71 st72">Direkte afbrænding</text>
	<text transform="matrix(1 0 0 1 289.3047 249.3115)" class="st18 st71 st72">Tørring</text>
	<text transform="matrix(1 0 0 1 385.5771 249.3105)" class="st18 st71 st72">Foder</text>
	<text transform="matrix(1 0 0 1 462.5073 22.0122)" class="st18 st71 st72">Benzin-erstatning</text>
	<text transform="matrix(1 0 0 1 463.9248 85.9878)" class="st18 st71 st72">Diesel-erstatning</text>
	<text transform="matrix(1 0 0 1 448.1768 173.5649)" class="st18 st71 st72">Flybrændstof-erstatning</text>
</g>
</svg>
