<?xml version="1.0" encoding="utf-8"?>
<!-- Generator: Adobe Illustrator 19.1.0, SVG Export Plug-In . SVG Version: 6.00 Build 0)  -->
<svg version="1.1" xmlns="http://www.w3.org/2000/svg" xmlns:xlink="http://www.w3.org/1999/xlink" x="0px" y="0px"
	 viewBox="0 0 269.3 487.6" style="enable-background:new 0 0 269.3 487.6;" xml:space="preserve">
<style type="text/css">
	.st0{fill:#00A8BB;}
	.st1{fill:url(#SVGID_1_);stroke:#000000;stroke-width:0.5;}
	.st2{fill:url(#SVGID_2_);stroke:#000000;stroke-width:0.5;}
	.st3{fill:url(#SVGID_3_);stroke:#000000;stroke-width:0.5;}
	.st4{fill:url(#SVGID_4_);stroke:#000000;stroke-width:0.5;}
	.st5{fill:none;stroke:#000000;stroke-width:0.5;}
	.st6{fill:url(#SVGID_5_);stroke:#000000;stroke-width:0.5;}
	.st7{fill:url(#SVGID_6_);stroke:#000000;stroke-width:0.5;}
	.st8{fill:url(#SVGID_7_);stroke:#000000;stroke-width:0.5;}
	.st9{fill:#FFFFFF;}
	.st10{font-family:'Verdana';}
	.st11{font-size:9px;}
	.st12{fill:none;stroke:#FFFFFF;}
	.st13{fill:none;stroke:#000000;stroke-width:2;}
</style>
<g id="Lag_4">
	<rect y="0" class="st0" width="269.3" height="487.6"/>
</g>
<g id="Lag_3">
	<linearGradient id="SVGID_1_" gradientUnits="userSpaceOnUse" x1="79.7485" y1="338.2022" x2="79.7485" y2="304.8428">
		<stop  offset="0.2865" style="stop-color:#E5DEB3"/>
		<stop  offset="0.429" style="stop-color:#E9E3BD"/>
		<stop  offset="0.6697" style="stop-color:#F4F1D9"/>
		<stop  offset="0.7809" style="stop-color:#FAF8E9"/>
		<stop  offset="0.8137" style="stop-color:#F5F1DA"/>
		<stop  offset="0.877" style="stop-color:#ECE7C4"/>
		<stop  offset="0.9396" style="stop-color:#E7E0B7"/>
		<stop  offset="1" style="stop-color:#E5DEB3"/>
	</linearGradient>
	<path class="st1" d="M30.5,308.6c2.4,0.3,7.9-0.1,10.3,0.4c2.3,0.5,4.1,0.4,6.8,0.5c4.7,0.2,9.4,1.3,14,1.5
		c10.1,0.5,19.4,0.6,29.6,0.6c7.2,0,14.3-1.8,20.7-4c6.1-2.1,13.5-5.6,18.6,0.8c-4.1,4.3-3,13.8-0.1,18.2
		c-2.2,8.9-15.7,11.5-23.1,11.5c-10.4,0-18.8,0.7-27.1-5.8c-3.4-2.7-6.1-5.4-10.7-4.6c-4.7,0.9-8.4,1.7-13.4,1.2
		c-8.7-0.9-18.1-3.1-27.1-2.1c0.6,0,1.2,0,1.8,0"/>
	<linearGradient id="SVGID_2_" gradientUnits="userSpaceOnUse" x1="121.5489" y1="211.7593" x2="170.0469" y2="211.7593">
		<stop  offset="0.3764" style="stop-color:#FAF8E9"/>
		<stop  offset="0.4319" style="stop-color:#F5F1DA"/>
		<stop  offset="0.5391" style="stop-color:#ECE7C4"/>
		<stop  offset="0.645" style="stop-color:#E7E0B7"/>
		<stop  offset="0.7472" style="stop-color:#E5DEB3"/>
	</linearGradient>
	<path class="st2" d="M161.8,85.3c-4.3,0.5-7.6-1.1-12.1,1.6c-3.6,2.1-7.7,2.3-11.3,4.3c-8.6,4.7-2.6,16.6-0.4,23.4
		c6.2,18.9,6.2,39,3.4,58.5c-1.5,10.1-1.7,20.2-1.8,30.8c-0.1,10.5-1.7,21.1-0.7,31.7c1,10,1.9,19.6,3.4,29.6
		c1.4,9.7,3.8,20.7,0.7,30.2c-1.3,4.1-4,8.2-7.2,11.2c-10.5-5.3-15.9,9.7-13.9,18c2.5,10.4,11.4,14.8,21.6,13.6
		c9.4-1,18.5-9,21.3-18c3.2-10.3,1.5-19.9-0.2-30.4c-0.8-5-1-9.7-1.3-14.9c-0.3-5.4-1.7-10.8-2.1-16.1c-0.9-11.1-2.5-22.3-3-33.5
		c-1-20.6-5-43.3-0.9-63.7c1.9-9.5,2.1-19.9,3-29.6c0.5-4.9-0.3-8.8,3.6-12c3.8-3,4.6-6,5.9-10.3c0.1-0.4,0-1.1,0.1-1.5
		c0.4,0.2,0.2,0.5,0.2,0.9"/>
	<linearGradient id="SVGID_3_" gradientUnits="userSpaceOnUse" x1="105.5113" y1="57.1287" x2="193.79" y2="57.1287">
		<stop  offset="0.3034" style="stop-color:#FAF8E9"/>
		<stop  offset="0.3765" style="stop-color:#F5F1DA"/>
		<stop  offset="0.5178" style="stop-color:#ECE7C4"/>
		<stop  offset="0.6574" style="stop-color:#E7E0B7"/>
		<stop  offset="0.7921" style="stop-color:#E5DEB3"/>
		<stop  offset="0.8702" style="stop-color:#DCD7B2"/>
		<stop  offset="1" style="stop-color:#C6C4AD"/>
	</linearGradient>
	<path class="st3" d="M182.6,64.7c-2.2-2.7-4.9-3.4-8.2-4.6c-1.8-0.6-3.6-1.5-5.5-1.7c-2-0.2-3.2,0.6-5,1.2
		c-7.1,2.3-15.3-1.9-22.6-0.9c-6.7,0.9-12.7,5.7-19,8c-4.3,1.6-19.1,2.4-16.5-6.6c2-7,14.5-4.2,19.4-6.1c3.6-1.4,5.7-3,9.8-3.3
		c3.8-0.2,7.2,0.1,11,0.5c3.3,0.3,7.6,0.8,10-1.7c3-3.1,4.6-3.6,8.8-2.5c3.1,0.8,8-0.1,9.5,3.3c0.8,1.8,0.5,2.8,2.7,3.7
		c1.8,0.7,3.6,0.1,5.6,0.2c4.2,0,8.3,0.7,11.2,3.9c-0.4-0.1-0.5-0.4-0.9-0.7"/>
	<linearGradient id="SVGID_4_" gradientUnits="userSpaceOnUse" x1="160.8743" y1="136.6369" x2="240.2076" y2="122.6483">
		<stop  offset="0.1292" style="stop-color:#E5DEB3"/>
		<stop  offset="0.2458" style="stop-color:#E9E3BD"/>
		<stop  offset="0.4428" style="stop-color:#F4F1D9"/>
		<stop  offset="0.5337" style="stop-color:#FAF8E9"/>
		<stop  offset="0.5674" style="stop-color:#F6F3DE"/>
		<stop  offset="0.6778" style="stop-color:#EBE5C0"/>
		<stop  offset="0.7876" style="stop-color:#E2DBAB"/>
		<stop  offset="0.8957" style="stop-color:#DDD59E"/>
		<stop  offset="1" style="stop-color:#DBD39A"/>
	</linearGradient>
	<path class="st4" d="M150.2,75.9c2.7-1.1,6.6,0.6,8.2,3c2,2.9,1.3,7,0.5,10.2c-1.5,6.2-4.3,14.9,0.9,20.4c2.4,2.5,5.6,3.6,8.7,4.2
		c3.1,0.6,7.3,0.2,9.7,2.7c2.2,2.4,2.9,6.7,3.6,9.6c0.8,3.3,2.2,6.4,3.7,9.5c1.6,3.4,3.8,6.4,6.1,9.5c2.7,3.8,4.7,6.1,5.4,10.7
		c0.5,3.4,1.7,6.3,2,9.8c0.4,4,0.8,7.9,1.6,11.9c0.9,4.7,1.9,9.3,3.9,13.7c1.7,3.7,3.5,8.4,6.4,11.2c2.4,2.4,5,4.6,8.7,4.3
		c3.4-0.2,6.5-3.3,8.3-6.2c3.9-6.2,6.4-13.8,9.1-20.6c2.8-6.9,3-15.5,1.6-22.8c-0.8-4-3.1-7.5-3.9-11.4c-0.7-3.5-1-6.9-0.9-10.7
		c0.1-8.4,1.1-16.9,0.7-25.1c-0.2-3.7-0.4-7.7-0.5-11.4c0-2.3,0.2-4.1,0.1-6.4c0-1.1-0.4-3.9-0.5-5.9c-0.4-8.2-2.4-14.7-6.6-21.8
		c-3.6-6.2-6.8-16.5-15.1-17.1c-3.7-0.2-6,2.1-8.7,4.3c-2.6,2.2-5.7,3.7-8.7,5.3c-4.7,2.5-14.6,5.5-14.4,11.8
		c0.1,3.2,2.1,7.4,0.5,10.5c-2.2,4.2-4.6-1.7-6.7-2.9c-2.4-1.4-3.4,0.6-5.9,0.9c-1.9,0.2-1.8,0-2.1-1.8c-0.2-1.2-0.2-3,0.9-3.4"/>
	<path class="st5" d="M171.6,99.2c0.5,0.6,0.3,3.5,0.9,4.8c0.8,1.6,2.1,2.6,3.4,3.9c1.6,1.6,1.9,2.6,1.9,5c0,2.4,1,3.1,1.6,5.2
		c0-0.2,0-0.4,0-0.6"/>
	<path class="st5" d="M155.4,76.6c7.1,2.2,6.9,11.4,8.5,16.7"/>
	<path class="st5" d="M184,72c1-2.4,1-4.7,3.1-6.5c1.9-1.6,4.5-2.2,6.7-3.1c2.2-0.9,4.6-2,6.6-3.4c1.6-1.1,3.6-3.2,5.6-3.5
		c0.1-0.6,0.4-0.4,0.7-0.6"/>
	<linearGradient id="SVGID_5_" gradientUnits="userSpaceOnUse" x1="153.7515" y1="78.8662" x2="153.7515" y2="64.0472">
		<stop  offset="0.2303" style="stop-color:#FAF8E9"/>
		<stop  offset="0.3219" style="stop-color:#F5F1DA"/>
		<stop  offset="0.499" style="stop-color:#ECE7C4"/>
		<stop  offset="0.6739" style="stop-color:#E7E0B7"/>
		<stop  offset="0.8427" style="stop-color:#E5DEB3"/>
	</linearGradient>
	<path class="st6" d="M143.8,78.9c-3.1-0.3-6.1,1.1-5.9-3.7c0.1-3.7,3.9-5.4,6.9-5.9c3.3-0.5,6.9-0.5,10-1.7
		c3.2-1.2,4.9-3.4,8.6-3.5c2.9-0.1,7.3,0.5,6.3,4.7c-0.7,2.8-4.2,3.9-6.6,4.9c-3.2,1.3-6.5,0.2-9.8,1.2c-2.5,0.7-3.9,2.7-7.7,3.6
		L143.8,78.9z"/>
	<path class="st5" d="M121.4,55.1c1.6-0.5,4.4,0.4,5.5,1.8"/>
	<path class="st5" d="M129.1,61c0.4,0.8-0.4,2.1-1.4,2.7"/>
	<path class="st5" d="M152.2,51.4c2.8-1.2,8,1.5,10.7-0.7"/>
	<linearGradient id="SVGID_6_" gradientUnits="userSpaceOnUse" x1="95.0948" y1="365.6307" x2="95.0948" y2="323.5416">
		<stop  offset="0.1461" style="stop-color:#E5DEB3"/>
		<stop  offset="0.3274" style="stop-color:#E9E3BD"/>
		<stop  offset="0.6338" style="stop-color:#F4F1D9"/>
		<stop  offset="0.7753" style="stop-color:#FAF8E9"/>
		<stop  offset="0.8089" style="stop-color:#F5F1DA"/>
		<stop  offset="0.8739" style="stop-color:#ECE7C4"/>
		<stop  offset="0.9381" style="stop-color:#E7E0B7"/>
		<stop  offset="1" style="stop-color:#E5DEB3"/>
	</linearGradient>
	<path class="st7" d="M29.3,339.7c3.7-0.3,11,0,14.3,0c5,0,10.2,0.8,15.2,0c9.5-1.4,18.1-3.7,27.1-6.1c2.3-0.6,4.5-1,7-0.5
		c2.9,0.5,4.3,1.7,7.3,0.9c4.3-1.1,7.9-4.3,11.5-6.8c3.5-2.4,6.9-6.2,8.3-0.8c1.2,4.4,2.7,10,7,12.2c7.9,4.1,20.7,2.4,27.7-2.1
		c1.7-1.1,5.4-3.7,6.7-1.8c1,1.4-0.6,6.8-0.6,8.2c-0.2,4.2-1.9,8.7-5.8,11c-8.6,5.2-18.6,6.3-28.3,4.9c-5.3-0.8-9.3-0.9-14.4,0.6
		c-4.6,1.4-8.8,3.4-13.7,4.6c-10.7,2.5-20.1,2-30.8,1.6c0,0-23.2-2.1-39.6-4.6"/>
	<linearGradient id="SVGID_7_" gradientUnits="userSpaceOnUse" x1="128.9278" y1="310.8301" x2="128.9278" y2="80.3907">
		<stop  offset="0.1348" style="stop-color:#FAF8E9"/>
		<stop  offset="0.1397" style="stop-color:#FAF4E4"/>
		<stop  offset="0.2421" style="stop-color:#E6AB89"/>
		<stop  offset="0.3323" style="stop-color:#D56E4A"/>
		<stop  offset="0.4069" style="stop-color:#C9412A"/>
		<stop  offset="0.463" style="stop-color:#C31E1C"/>
		<stop  offset="0.4944" style="stop-color:#C00418"/>
		<stop  offset="0.7697" style="stop-color:#FAF8E9"/>
	</linearGradient>
	<path class="st8" d="M98.1,310.8c0,0,7.7-3,12.4-11.1c6-10.3,7-14.2,7.4-23c0.5-9.6-0.7-14.1-3.3-23.6c-3.4-12.2-8.1-24.7-8.1-27.6
		C101,203.9,114,170,114,170c2.3-7.7,14.3-43.3,16.1-48.1c1.5-4,3.6-15.1,4.5-17.2c1.1,4.2,1.8,5.3,1.8,5.3s-3.3,11-2.4,15
		c2.7-11,14.6-35,25.3-44.5c0.6,1.8,0.3,3.7,0.3,3.7s-20.1,25.9-21.3,39.6c-1.2,13.7,4.9,36.1,5.8,45.4c0,0,7.2,25.5,2.1,57.7
		c-1.5,14.8-8.2,36.3-11.4,45.1c-3.2,8.8-7.1,15.1-12,22.6c-4.2,6.5-6.7,8.7-12,13.3"/>
</g>
<g id="tekst">
	<text transform="matrix(1 0 0 1 180 232.999)" class="st9 st10 st11">Skulderblad</text>
	<text transform="matrix(1 0 0 1 180 268.499)" class="st9 st10 st11">Overarmsknogle</text>
	<text transform="matrix(1 0 0 1 55 388.999)" class="st9 st10 st11">Underarmsknogler</text>
	<text transform="matrix(1 0 0 1 27 103.999)" class="st9 st10 st11">Bicepssener</text>
	<text transform="matrix(1 0 0 1 26 201.499)"><tspan x="0" y="0" class="st9 st10 st11">Tohovedede</tspan><tspan x="0" y="10.8" class="st9 st10 st11">armbøjer</tspan><tspan x="0" y="21.6" class="st9 st10 st11">(biceps)</tspan></text>
	<text transform="matrix(1 0 0 1 30 293.999)" class="st9 st10 st11">Bicepssene</text>
	<text transform="matrix(1 0 0 1 180 333.499)" class="st9 st10 st11">Albueled</text>
	<text transform="matrix(1 0 0 1 27 84.581)" class="st9 st10 st11">Skulderled</text>
</g>
<g id="streger_til_tekst">
	<line class="st12" x1="218.5" y1="208" x2="218.5" y2="223"/>
	<line class="st12" x1="178.5" y1="265.5" x2="163.5" y2="265.5"/>
	<line class="st12" x1="105" y1="199" x2="84.5" y2="199"/>
	<polyline class="st12" points="130,117.5 84.5,101 145.5,99 	"/>
	<line class="st12" x1="82" y1="291.5" x2="105.9" y2="303"/>
	<polyline class="st12" points="69,328 87.5,382 93.5,365.5 	"/>
	<g>
		<line class="st13" x1="128.7" y1="179" x2="128.7" y2="220.3"/>
		<polygon points="135.1,215.8 128.7,227 122.2,215.8 		"/>
	</g>
	<line class="st12" x1="175.5" y1="331.5" x2="160.5" y2="331.5"/>
	<line class="st12" x1="150.5" y1="83.6" x2="82" y2="83.6"/>
</g>
</svg>
