<?xml version="1.0" encoding="utf-8"?>
<!-- Generator: Adobe Illustrator 19.1.0, SVG Export Plug-In . SVG Version: 6.00 Build 0)  -->
<svg version="1.1" xmlns="http://www.w3.org/2000/svg" xmlns:xlink="http://www.w3.org/1999/xlink" x="0px" y="0px"
	 viewBox="0 0 566.9 487.6" style="enable-background:new 0 0 566.9 487.6;" xml:space="preserve">
<style type="text/css">
	.st0{fill:url(#SVGID_1_);}
	.st1{fill:url(#SVGID_2_);stroke:#000000;stroke-width:0.5;}
	.st2{fill:url(#SVGID_3_);stroke:#000000;stroke-width:0.5;}
	.st3{fill:url(#SVGID_4_);stroke:#000000;stroke-width:0.5;}
	.st4{fill:url(#SVGID_5_);stroke:#000000;stroke-width:0.5;}
	.st5{fill:url(#SVGID_6_);stroke:#000000;stroke-width:0.5;}
	.st6{fill:url(#SVGID_7_);stroke:#000000;stroke-width:0.5;}
	.st7{fill:url(#SVGID_8_);stroke:#000000;stroke-width:0.5;}
	.st8{fill:url(#SVGID_9_);stroke:#000000;stroke-width:0.5;}
	.st9{fill:#F29A79;stroke:#000000;stroke-width:0.5;}
	.st10{fill:url(#SVGID_10_);stroke:#000000;stroke-width:0.5;}
	.st11{fill:none;stroke:#000000;stroke-width:0.5;}
	.st12{fill:url(#SVGID_11_);stroke:#000000;stroke-width:0.5;}
	.st13{fill:url(#SVGID_12_);}
	.st14{fill:#F29A79;}
	.st15{fill:none;stroke:#000000;stroke-width:0.4;}
	.st16{fill:url(#SVGID_13_);}
	.st17{display:none;}
	.st18{display:inline;}
	.st19{display:inline;fill:url(#SVGID_14_);stroke:#000000;stroke-width:0.5;}
	.st20{display:inline;fill:url(#SVGID_15_);stroke:#000000;stroke-width:0.5;}
	.st21{display:inline;fill:url(#SVGID_16_);stroke:#000000;stroke-width:0.5;}
	.st22{display:inline;fill:#F29A79;stroke:#000000;stroke-width:0.5;}
	.st23{fill:#F29A79;stroke:#E2001A;stroke-width:3.2;}
	.st24{fill:#F29A79;stroke:#00B6E8;stroke-width:3.2;}
	.st25{fill:none;stroke:#00B6E8;stroke-width:3.2;}
	.st26{fill:none;stroke:#E2001A;stroke-width:3.2;}
	.st27{fill:#15B4E5;}
	.st28{fill:#E2001A;}
	.st29{font-family:'Verdana';}
	.st30{font-size:9px;}
	.st31{fill:url(#SVGID_17_);stroke:#000000;stroke-width:0.5;}
	.st32{fill:url(#SVGID_18_);}
	.st33{fill:url(#SVGID_19_);}
	.st34{fill:url(#SVGID_20_);stroke:#000000;stroke-width:0.5;}
	.st35{fill:url(#SVGID_21_);}
	.st36{fill:#AF0917;}
	.st37{opacity:0.5;fill:#AF0917;}
</style>
<g id="Lag_8">
	<radialGradient id="SVGID_1_" cx="283.4644" cy="243.7784" r="264.3675" gradientUnits="userSpaceOnUse">
		<stop  offset="0.4157" style="stop-color:#FFF9E3"/>
		<stop  offset="0.4718" style="stop-color:#FFF5DD"/>
		<stop  offset="0.5439" style="stop-color:#FEE9CD"/>
		<stop  offset="0.6248" style="stop-color:#FBD6B2"/>
		<stop  offset="0.7114" style="stop-color:#F7B98D"/>
		<stop  offset="0.7865" style="stop-color:#F29969"/>
		<stop  offset="1" style="stop-color:#EB6A2B"/>
	</radialGradient>
	<rect y="0" class="st0" width="566.9" height="487.6"/>
</g>
<g id="Blodårer">
	<linearGradient id="SVGID_2_" gradientUnits="userSpaceOnUse" x1="200.4458" y1="219.3179" x2="200.4458" y2="236.9492">
		<stop  offset="5.617980e-03" style="stop-color:#FED254"/>
		<stop  offset="0.6404" style="stop-color:#FFF8D9"/>
		<stop  offset="1" style="stop-color:#FECF44"/>
	</linearGradient>
	<path class="st1" d="M235.8,220.1c0,0-57-3-74.2,2.4c-2.8,3.4-5.2,10.6-1.8,14.4c6.2-1.8,75.2-8,83-2.6
		C237.4,224.9,235.8,220.1,235.8,220.1z"/>
	<linearGradient id="SVGID_3_" gradientUnits="userSpaceOnUse" x1="205.9458" y1="201.7179" x2="205.9458" y2="219.3491">
		<stop  offset="5.617980e-03" style="stop-color:#FED254"/>
		<stop  offset="0.6404" style="stop-color:#FFF8D9"/>
		<stop  offset="1" style="stop-color:#FECF44"/>
	</linearGradient>
	<path class="st2" d="M241.4,202.5c0,0-57-3-74.2,2.4c-2.8,3.4-5.2,10.6-1.8,14.4c6.2-1.8,75-5.4,82.8,0
		C242.8,209.9,241.4,202.5,241.4,202.5z"/>
	<linearGradient id="SVGID_4_" gradientUnits="userSpaceOnUse" x1="209.4511" y1="141.4366" x2="201.5031" y2="171.0988">
		<stop  offset="5.617980e-03" style="stop-color:#FED254"/>
		<stop  offset="0.5337" style="stop-color:#FFF8D9"/>
		<stop  offset="1" style="stop-color:#FECF44"/>
	</linearGradient>
	<path class="st3" d="M239,149.3c0,0-57.4-10.2-60-11.6c-3.2,3.8-8,18.6-6.4,25.6c5.6,1.4,56.6,13.4,60.6,14
		C233.4,171.1,239,149.3,239,149.3z"/>
	<linearGradient id="SVGID_5_" gradientUnits="userSpaceOnUse" x1="347.5093" y1="309.2016" x2="393.9028" y2="296.7705">
		<stop  offset="5.617980e-03" style="stop-color:#FED254"/>
		<stop  offset="0.4888" style="stop-color:#FFF8D9"/>
		<stop  offset="1" style="stop-color:#FECF44"/>
	</linearGradient>
	<path class="st4" d="M379.1,427.1l-61.3-246.4c0,0,29.3-10.1,33.6-10.1c0,0,56.5,145.3,71.5,256.3
		C399.4,432.2,379.1,427.1,379.1,427.1z"/>
	<linearGradient id="SVGID_6_" gradientUnits="userSpaceOnUse" x1="170.7808" y1="192.3492" x2="257.981" y2="192.3492">
		<stop  offset="0" style="stop-color:#FED254"/>
		<stop  offset="0.5449" style="stop-color:#FFF8D9"/>
		<stop  offset="1" style="stop-color:#FECF44"/>
	</linearGradient>
	<path class="st5" d="M257.8,250.7c0,0-27.6-30.6-29-33c-1.4-2.4-9.6-32.8-7.6-47c2-14.2,6.6-37.4,8-40.6c-3.4-1-38.6-8.4-38.6-8.4
		s-8.8,45.4-9,56c-0.2,10.6,1.8,43.4-10.8,60.6l52.2-4.8l35,29.4L257.8,250.7z"/>
	<linearGradient id="SVGID_7_" gradientUnits="userSpaceOnUse" x1="366.3775" y1="208.5833" x2="369.922" y2="228.6849">
		<stop  offset="5.617980e-03" style="stop-color:#FED254"/>
		<stop  offset="0.4888" style="stop-color:#FFF8D9"/>
		<stop  offset="1" style="stop-color:#FECF44"/>
	</linearGradient>
	<path class="st6" d="M352.8,213.7c0,0,18.4-8.6,27.4-6c1.8,5.8,2.2,6.2,0.8,13.2c0,0-14.4,2.4-15.8,7.8
		C363.8,234.1,352.8,213.7,352.8,213.7z"/>
	<linearGradient id="SVGID_8_" gradientUnits="userSpaceOnUse" x1="369.3776" y1="229.3832" x2="372.922" y2="249.4848">
		<stop  offset="5.617980e-03" style="stop-color:#FED254"/>
		<stop  offset="0.4888" style="stop-color:#FFF8D9"/>
		<stop  offset="1" style="stop-color:#FECF44"/>
	</linearGradient>
	<path class="st7" d="M355.8,234.5c0,0,18.4-8.6,27.4-6c1.8,5.8,2.2,6.2,0.8,13.2c0,0-14.4,2.4-15.8,7.8
		C366.8,254.9,355.8,234.5,355.8,234.5z"/>
	<linearGradient id="SVGID_9_" gradientUnits="userSpaceOnUse" x1="323.2315" y1="248.4356" x2="323.2315" y2="147.165">
		<stop  offset="0" style="stop-color:#F9B843"/>
		<stop  offset="0.6573" style="stop-color:#FECF44"/>
		<stop  offset="0.809" style="stop-color:#FFF8D9"/>
		<stop  offset="1" style="stop-color:#FECF44"/>
	</linearGradient>
	<path class="st8" d="M276,149.1c0,0,56.8,0.6,72.6,0.6s31.6-3.4,34.8-2.4c2,4,6,14.6-0.4,29.8c-15.2,0.6-51.4-7.2-67.8,16
		c-16.4,23.2-21.4,50.8-21.4,50.8c-9.7,3.8-18.7,4.5-18.7,4.5l-12-4.7l-3.1-8.4c0,0,2.8-24.8,14.6-45.2
		c-8.2-13.6-14.2-23.8-14.2-23.8l8.4-16.2L276,149.1z"/>
	<path class="st9" d="M258.2,246.9c0,0-12.4-16.9-14.4-26.1c-2-9.2-5.2-53.2-5.2-53.2c6.4-2.4,20.4-6,27.6-0.4
		c0.4,10,3.5,25.6,6.7,28c-2.8,4-4,6.8-4,6.8s-2.3-3.5-3.9-12.7c-1.6-9.2-2.4-17.6-2.4-17.6s-9.4-3.4-19.3,1.2
		c0.8,11.6,1.8,58.8,14.6,66.8c-1.6,4.8-0.3,6.8-0.3,6.8"/>
	<linearGradient id="SVGID_10_" gradientUnits="userSpaceOnUse" x1="214.3809" y1="152.6491" x2="345.7813" y2="152.6491">
		<stop  offset="0" style="stop-color:#FED254"/>
		<stop  offset="0.5449" style="stop-color:#FFF8D9"/>
		<stop  offset="1" style="stop-color:#FECF44"/>
	</linearGradient>
	<path class="st10" d="M345.8,150.1c0,0-12.5-25.9-32.8-35c0,0-3-0.8-0.6-5.4c2.4-4.6,15.8-34,15.8-34s0.2-6.8-11.2-5
		c-5.6,10.8-19.2,35.6-19.2,35.6l0.8-35c0,0-6.2-4.2-12-0.6c0,5.6-0.4,33.8-0.4,33.8s-7,4.2-7.8,4.4c-0.8,0.2-3,1-4-1.6
		c-1-2.6-9.2-23.6-11.4-24.8c-2.2-1.2-0.6-3.2,0-4.6c0.6-1.4,5-8.6,5-8.6s-0.2-5-9.2-8.4c-6.2,7.2-7.8,8-7.8,8s-20.8-15-36.2-16.6
		c-0.2,8.2-0.4,11.8-0.4,11.8s38.2,11.4,43,33.8c4.8,22.4,2.2,16.2-1.8,21.2s-20.4,18.4-24.4,44.8c-4,26.4,3.2,56.4,3.6,59
		c0.4,2.6,1.9,4.4,1.9,4.4l19.4,25.6l1.5-6.6c0,0,1.7-7.8,2.5-11l2.8-12.6c1.8-6.8,3-9.9,4-13.5c3-7.5,3.6-9.2,6-13.1
		c2.2-3.4,3.6-4.8,3.6-4.8s-6.2-8.4-4.2-21.8c2-13.4,6.8-26.6,24.6-20.4"/>
	<path class="st11" d="M293.6,149.1c52.2,1,52.1,1,62.6,0.2"/>
	<linearGradient id="SVGID_11_" gradientUnits="userSpaceOnUse" x1="174.5806" y1="372.9488" x2="218.981" y2="372.9488">
		<stop  offset="0" style="stop-color:#FED254"/>
		<stop  offset="0.5449" style="stop-color:#FFF8D9"/>
		<stop  offset="1" style="stop-color:#FECF44"/>
	</linearGradient>
	<polygon class="st12" points="177,330.3 174.6,415.5 216.6,413.1 219,376.3 	"/>
	<path class="st11" d="M276.4,191.3c0,0,3-5.8,8-8.5"/>
</g>
<g id="Blodåre_ender">
	
		<linearGradient id="SVGID_12_" gradientUnits="userSpaceOnUse" x1="393.7827" y1="421.3318" x2="435.3891" y2="421.3318" gradientTransform="matrix(0.9674 -0.2532 0.2532 0.9674 -106.5749 124.8014)">
		<stop  offset="0" style="stop-color:#FFFFFF"/>
		<stop  offset="0.573" style="stop-color:#E85236"/>
		<stop  offset="1" style="stop-color:#A13B27"/>
	</linearGradient>
	<path class="st13" d="M422.3,426.3c0.2,3.1-9.1,6.1-20.8,6.7c-11.7,0.6-21.3-1.3-21.6-4.4c-0.2-3.1,9.1-6.1,20.8-6.7
		C412.5,421.2,422.1,423.2,422.3,426.3z"/>
	<g>
		<g>
			<path class="st14" d="M400.7,420.9c-12.2,0.7-21.9,4.1-21.6,7.6c0.2,3.5,10.3,5.8,22.5,5.1c12.2-0.7,21.9-4.1,21.6-7.6
				C423,422.5,412.9,420.2,400.7,420.9z M401.6,433c-11,0.6-20-1.4-20.2-4.4c-0.2-3.1,8.5-6,19.5-6.7c11-0.6,20,1.4,20.2,4.4
				C421.2,429.4,412.5,432.3,401.6,433z"/>
		</g>
		<g>
			<path class="st15" d="M400.7,420.9c-12.2,0.7-21.9,4.1-21.6,7.6c0.2,3.5,10.3,5.8,22.5,5.1c12.2-0.7,21.9-4.1,21.6-7.6
				C423,422.5,412.9,420.2,400.7,420.9z M401.6,433c-11,0.6-20-1.4-20.2-4.4c-0.2-3.1,8.5-6,19.5-6.7c11-0.6,20,1.4,20.2,4.4
				C421.2,429.4,412.5,432.3,401.6,433z"/>
		</g>
	</g>
	
		<linearGradient id="SVGID_13_" gradientUnits="userSpaceOnUse" x1="197.9183" y1="357.6633" x2="239.5243" y2="357.6633" gradientTransform="matrix(0.9674 -0.2532 0.2532 0.9674 -106.5749 124.8014)">
		<stop  offset="0" style="stop-color:#FFFFFF"/>
		<stop  offset="0.573" style="stop-color:#E85236"/>
		<stop  offset="1" style="stop-color:#A13B27"/>
	</linearGradient>
	<path class="st16" d="M216.7,414.3c0.2,3.1-9.1,6.1-20.8,6.7c-11.7,0.6-21.3-1.3-21.6-4.4c-0.2-3.1,9.1-6.1,20.8-6.7
		C206.9,409.2,216.5,411.2,216.7,414.3z"/>
	<g>
		<g>
			<path class="st14" d="M195.1,408.9c-12.2,0.7-21.9,4.1-21.6,7.6c0.2,3.5,10.3,5.8,22.5,5.1c12.2-0.7,21.9-4.1,21.6-7.6
				C217.4,410.5,207.3,408.2,195.1,408.9z M196,421c-11,0.6-20-1.4-20.2-4.4c-0.2-3.1,8.5-6,19.5-6.7c11-0.6,20,1.4,20.2,4.4
				C215.6,417.4,206.9,420.3,196,421z"/>
		</g>
		<g>
			<path class="st15" d="M195.1,408.9c-12.2,0.7-21.9,4.1-21.6,7.6c0.2,3.5,10.3,5.8,22.5,5.1c12.2-0.7,21.9-4.1,21.6-7.6
				C217.4,410.5,207.3,408.2,195.1,408.9z M196,421c-11,0.6-20-1.4-20.2-4.4c-0.2-3.1,8.5-6,19.5-6.7c11-0.6,20,1.4,20.2,4.4
				C215.6,417.4,206.9,420.3,196,421z"/>
		</g>
	</g>
</g>
<g id="Hjertekant_1_" class="st17">
	<g class="st18">
		<g>
			<path class="st14" d="M376.7,283.7c-10.4-14.7-4.8-26.7-5.3-45.1c-0.5-18.4-21.3-29.9-30.7-33.3c-9.3-3.5-32.8-0.5-32.8-0.5
				l-5.3,11.1l-0.3,0.7c32-10.4,50.7,6.7,50.7,6.7c22.4,27.2,2.4,40.5-3.7,45.1c-6.1,4.5-5.3,22.9-0.3,27.7
				c-1.6-1.9-2.4-11.7,1.6-21.1c4-9.3,8.5,10.7,10.4,22.4c1.9,11.7,0.3,36,3.7,57.3c3.5,21.3,6.4,28-7.5,35.2
				c-13.9,7.2-20-3.7-26.7-12.8c-6.7-9.1-17.6-50.9-25.6-72.3c-8-21.3-10.1-37.1-8.8-42.4c1.3-5.3,3.7-9.9,2.1-13.9
				c-0.5,2.9-1.3,2.4-4.3,5.1c0,0,0.8-2.9,0.8-16.5c0-13.6-11.2-16.8-25.9-15.2c-14.7,1.6-12.5,27.2-13.1,35.7
				c-1.3-2.1-13.9-17.3-26.1-25.9c-12.3-8.5-39.2-8.3-58.4,3.2c-19.2,11.5,1.3,80.5,5.3,96c4,15.5,27.7,39.2,35.5,45.6
				c7.7,6.4,72,32.3,125.1,41.1c53.1,8.8,57.6-45.6,58.7-59.7C397,343.7,387.1,298.3,376.7,283.7z M314.6,397
				c-13.6,6.6-19.2,1.3-22.9-0.3c-3.7-1.6-42.4-25.3-57.6-34.7c-15.2-9.3-26.7-22.1-26.7-22.1c-15.2-25.3-4.5-34.4-4.5-34.4
				c9.3-2.7,30.7,14.1,36.5,18.1c-6.9-24-48.3-31.2-48.3-31.2c-15.7-5.9-20.3-28.5-15.5-42.1c4.8-13.6,22.9-20.5,43.5-10.9
				c20.5,9.6,32.3,69.9,32.3,69.9s0.3-21.9,1.1-32.5c0.8-10.7,7.5-10.7,12.5-15.7c5.1-5.1,5.6-16,5.6-16s-4.5,4.3-6.4,5.9
				c-0.3-9.1,2.1-26.4,15.2-24.5s13.3,14.7,10.1,22.4c-3.2,7.7-9.3,3.2-11.5,1.6c-1.9,0.8-3.7,3.5-0.3,7.5s6.7,15.2,7.5,22.7
				c0.8,7.5,6.7,48.3,12.5,72C303.6,376.2,322,393,322,393S321.3,393.7,314.6,397z"/>
		</g>
		<g>
			<path class="st11" d="M376.7,283.7c-10.4-14.7-4.8-26.7-5.3-45.1c-0.5-18.4-21.3-29.9-30.7-33.3c-9.3-3.5-32.8-0.5-32.8-0.5
				l-5.3,11.1l-0.3,0.7c32-10.4,50.7,6.7,50.7,6.7c22.4,27.2,2.4,40.5-3.7,45.1c-6.1,4.5-5.3,22.9-0.3,27.7
				c-1.6-1.9-2.4-11.7,1.6-21.1c4-9.3,8.5,10.7,10.4,22.4c1.9,11.7,0.3,36,3.7,57.3c3.5,21.3,6.4,28-7.5,35.2
				c-13.9,7.2-20-3.7-26.7-12.8c-6.7-9.1-17.6-50.9-25.6-72.3c-8-21.3-10.1-37.1-8.8-42.4c1.3-5.3,3.7-9.9,2.1-13.9
				c-0.5,2.9-1.3,2.4-4.3,5.1c0,0,0.8-2.9,0.8-16.5c0-13.6-11.2-16.8-25.9-15.2c-14.7,1.6-12.5,27.2-13.1,35.7
				c-1.3-2.1-13.9-17.3-26.1-25.9c-12.3-8.5-39.2-8.3-58.4,3.2c-19.2,11.5,1.3,80.5,5.3,96c4,15.5,27.7,39.2,35.5,45.6
				c7.7,6.4,72,32.3,125.1,41.1c53.1,8.8,57.6-45.6,58.7-59.7C397,343.7,387.1,298.3,376.7,283.7z M314.6,397
				c-13.6,6.6-19.2,1.3-22.9-0.3c-3.7-1.6-42.4-25.3-57.6-34.7c-15.2-9.3-26.7-22.1-26.7-22.1c-15.2-25.3-4.5-34.4-4.5-34.4
				c9.3-2.7,30.7,14.1,36.5,18.1c-6.9-24-48.3-31.2-48.3-31.2c-15.7-5.9-20.3-28.5-15.5-42.1c4.8-13.6,22.9-20.5,43.5-10.9
				c20.5,9.6,32.3,69.9,32.3,69.9s0.3-21.9,1.1-32.5c0.8-10.7,7.5-10.7,12.5-15.7c5.1-5.1,5.6-16,5.6-16s-4.5,4.3-6.4,5.9
				c-0.3-9.1,2.1-26.4,15.2-24.5s13.3,14.7,10.1,22.4c-3.2,7.7-9.3,3.2-11.5,1.6c-1.9,0.8-3.7,3.5-0.3,7.5s6.7,15.2,7.5,22.7
				c0.8,7.5,6.7,48.3,12.5,72C303.6,376.2,322,393,322,393S321.3,393.7,314.6,397z"/>
		</g>
	</g>
</g>
<g id="Hjertekamre" class="st17">
	<linearGradient id="SVGID_14_" gradientUnits="userSpaceOnUse" x1="172.206" y1="313.5828" x2="323.7021" y2="313.5828">
		<stop  offset="1.123600e-02" style="stop-color:#8B0E13"/>
		<stop  offset="0.5449" style="stop-color:#E2001A"/>
		<stop  offset="1" style="stop-color:#8B0E13"/>
	</linearGradient>
	<path class="st19" d="M251.4,307.5c0,0-12-82.4-53.6-74c-41.6,8.4-26,58,1.2,63.2c27.2,5.2,35.6,16.8,39.6,25.6
		c-12.4-10-36.4-26.8-38.8-13.2c-2.4,13.6-3.6,32,39.2,57.6c42.8,25.6,58.8,37.2,67.6,34c8.8-3.2,17.1-8.2,17.1-8.2
		s-17.5-18.2-23.1-35c-5.6-16.8-12.8-64.8-14.4-76.8c-1.6-12-4-19.2-6.4-22c-2.4-2.8-3.6-5.6-2-7.6c3.6,1.6,7,5.9,11.2,0.4
		c1.2-1.5,1.6-4,1.6-4s5.2-20.4-10.8-21.6c-16-1.2-16.8,18.4-16,26.8c2.8-2.4,6-5.6,6-5.6c-1.2,7.6-8.4,16.8-13.6,19.2
		C251,268.7,250.6,283.9,251.4,307.5z"/>
	<linearGradient id="SVGID_15_" gradientUnits="userSpaceOnUse" x1="293.5146" y1="302.7675" x2="368.3968" y2="302.7675">
		<stop  offset="0" style="stop-color:#E2001A"/>
		<stop  offset="0.4712" style="stop-color:#A60B16"/>
		<stop  offset="0.7022" style="stop-color:#8B0E13"/>
	</linearGradient>
	<path class="st20" d="M293.5,253.5l1.6-15.7l4.3-12.9l4.5-11.7c5.6,0.3,22.7-3.2,34.7,1.6c0,0,12.8,4,18.9,12.8
		c0,0,7.5,10.9,6.1,18.7c-1.3,7.7-2.4,12.8-11.7,20.5c-9.3,7.7-6.4,21.1-4.5,25.1c-0.3-5.9,2.9-27.5,7.7-17.9c0,0,4.3,5.9,5.9,20.3
		c1.6,14.4,2.4,41.9,2.9,49.3c0.5,7.5,6.1,28.3,4,35.2c-2.1,6.9-15.5,22.7-29.3,8.8c-13.9-13.9-20.8-39.2-24.3-51.7
		c-3.5-12.5-15.7-45.3-17.3-54.7c-1.6-9.3-2.1-16.5-1.1-20.8c1.1-4.3,2.4-8.5,2.1-10.1c-1.9,2.7-4.3,4-4.3,4L293.5,253.5z"/>
	<linearGradient id="SVGID_16_" gradientUnits="userSpaceOnUse" x1="256.0474" y1="237.6822" x2="256.0474" y2="169.848">
		<stop  offset="5.617980e-03" style="stop-color:#E2001A"/>
		<stop  offset="0.1567" style="stop-color:#DA001A"/>
		<stop  offset="0.4293" style="stop-color:#C50219"/>
		<stop  offset="0.7898" style="stop-color:#A20C16"/>
		<stop  offset="1" style="stop-color:#8B0E13"/>
	</linearGradient>
	<path class="st21" d="M253,230.7c0,0-5.1-11.6-6.5-23.6c-2.8-22.6-3.5-34.8-3.5-34.8c4.5-1.5,9.1-4,20-1.3
		c1.1,8.5,2.7,27.1,6.1,30.8c-0.7,1.8-4,10-5.5,21.7c-2.3,2.4-3.8,4.7-4.8,7.6c-1.6,4.7-1.9,6.5-1.9,6.5L253,230.7z"/>
	<path class="st22" d="M298.4,228.1c0,0,20.6,18.6,25,31.6c4.4,13,1.6,32.4,2.4,36.8c-4-8.2-3.6-25-5.4-30.2c-1.8-5.2-3.8-10-5-10.8
		c-1.2-0.8-1.6-1.4-6-2.8c-4.4-1.4-6.2-3.6-6.8-4.8c4.2,1.4,13.6,3.6,5-4.4c-8.6-8-11.2-9.4-11.2-9.4L298.4,228.1z"/>
</g>
<g id="Pile">
	<line class="st23" x1="407.5" y1="231.1" x2="392" y2="233.7"/>
	<line class="st23" x1="358.1" y1="241" x2="343.2" y2="246"/>
	<line class="st23" x1="344.2" y1="222.2" x2="333" y2="233.2"/>
	<line class="st23" x1="313.9" y1="217.9" x2="320.7" y2="232"/>
	<line class="st23" x1="404.1" y1="209.5" x2="388.5" y2="212.1"/>
	<line class="st23" x1="138.4" y1="213" x2="154.2" y2="213.3"/>
	<line class="st23" x1="256.3" y1="193.3" x2="254.4" y2="177.6"/>
	<line class="st23" x1="265.9" y1="59.3" x2="272.7" y2="45.1"/>
	<line class="st23" x1="292.9" y1="65.9" x2="294.5" y2="50.3"/>
	<line class="st23" x1="325.9" y1="67.2" x2="332.2" y2="52.8"/>
	<line class="st23" x1="211.2" y1="57.7" x2="195.6" y2="55.7"/>
	<line class="st23" x1="133.3" y1="231.2" x2="149.1" y2="231.5"/>
	<line class="st23" x1="399.4" y1="437.4" x2="400.7" y2="453.1"/>
	<line class="st24" x1="392.3" y1="162.1" x2="408" y2="162.4"/>
	<line class="st24" x1="166" y1="146.7" x2="150.9" y2="142.1"/>
	<line class="st24" x1="193.1" y1="445" x2="194" y2="429.3"/>
	<line class="st24" x1="202.6" y1="241.7" x2="204.9" y2="257.3"/>
	<line class="st24" x1="208.4" y1="97" x2="209.8" y2="112.6"/>
	<path class="st25" d="M214.3,281.5c0,0,24.2,6.3,29.6,28.8c5.1,21.1,13.6,33.9,21.6,28c0,0,7.5-0.8,4.3-45.3"/>
	<path class="st26" d="M337.5,266.9c0,0,0,45.3,0.5,51.7c0.5,6.4,0.5,13.1-2.7,14.9c-3.2,1.9-8,1.1-13.6-8.5
		c-7.2-12.3-10.1-37.6-12-45.3"/>
	<g>
		<path class="st27" d="M217.8,107.1c-2.2,2.2-3.8,4.1-4.9,5.6c-1.1,1.6-1.9,3-2.4,4.4l-1.1,0.1c-0.8-1.5-1.8-3-3.1-4.4
			c-1.2-1.4-3-3.1-5.4-5l-0.1-1.8c3.2,1.3,5.7,2.7,7.4,4.3l0-0.1l2.4-0.1l0,0.1c1.4-1.3,2.5-2.1,3.2-2.6c0.7-0.5,2-1.3,3.8-2.3
			L217.8,107.1z"/>
	</g>
	<g>
		<path class="st27" d="M404.4,154c2.2,2.2,4.1,3.8,5.6,4.9c1.6,1.1,3,1.9,4.4,2.4l0.1,1.1c-1.5,0.8-3,1.8-4.4,3.1
			c-1.4,1.2-3,3-4.9,5.4l-1.8,0.1c1.3-3.2,2.7-5.7,4.3-7.5l-0.1,0l-0.1-2.4l0.1,0c-1.3-1.4-2.1-2.5-2.6-3.2c-0.5-0.7-1.3-2-2.3-3.8
			L404.4,154z"/>
	</g>
	<g>
		<path class="st28" d="M395,219.1c-2.5-1.7-4.7-3-6.4-3.8c-1.7-0.8-3.3-1.3-4.8-1.6l-0.2-1c1.3-1.1,2.6-2.3,3.7-3.8
			c1.1-1.5,2.4-3.5,3.9-6.2l1.8-0.4c-0.7,3.4-1.7,6.1-2.8,8.1l0.1,0l0.5,2.3l-0.1,0c1.5,1.2,2.6,2.1,3.2,2.7
			c0.6,0.6,1.6,1.7,2.9,3.3L395,219.1z"/>
	</g>
	<g>
		<path class="st28" d="M349.4,252.9c-2.6-1.6-4.9-2.7-6.7-3.4c-1.8-0.7-3.4-1.1-4.9-1.3l-0.3-1c1.3-1.2,2.4-2.5,3.5-4
			c1-1.5,2.2-3.7,3.5-6.4l1.7-0.5c-0.5,3.4-1.3,6.2-2.3,8.3l0.1,0l0.7,2.3l-0.1,0c1.6,1.1,2.7,1.9,3.4,2.5c0.7,0.6,1.7,1.6,3.1,3.1
			L349.4,252.9z"/>
	</g>
	<g>
		<path class="st28" d="M342.1,236.3c-3.1-0.1-5.6,0.1-7.5,0.3c-1.9,0.3-3.5,0.7-4.9,1.3l-0.8-0.7c0.5-1.6,0.9-3.4,1-5.2
			c0.2-1.9,0.1-4.3-0.1-7.3l1.2-1.3c1.3,3.2,2,6,2.1,8.3l0.1-0.1l1.7,1.6l-0.1,0.1c1.9,0.2,3.3,0.3,4.1,0.5c0.9,0.2,2.3,0.6,4.2,1.2
			L342.1,236.3z"/>
	</g>
	<g>
		<path class="st28" d="M326.5,224.9c-1.3,2.8-2.2,5.1-2.7,6.9c-0.5,1.8-0.8,3.5-0.8,5l-1,0.4c-1.3-1.2-2.7-2.2-4.3-3.1
			c-1.6-0.9-3.9-1.9-6.7-2.9l-0.7-1.7c3.5,0.2,6.3,0.7,8.5,1.5l-0.1-0.1l2.2-0.9l0.1,0.1c0.9-1.7,1.7-2.9,2.2-3.6
			c0.5-0.7,1.4-1.8,2.8-3.4L326.5,224.9z"/>
	</g>
	<g>
		<path class="st28" d="M246.3,182.6c2-2.3,3.5-4.3,4.5-6c1-1.6,1.7-3.2,2.1-4.6l1.1-0.1c0.9,1.4,2,2.8,3.4,4.1
			c1.3,1.3,3.2,2.8,5.7,4.6l0.2,1.8c-3.3-1.1-5.9-2.3-7.7-3.7l0,0.1l-2.4,0.3l0-0.1c-1.4,1.4-2.4,2.3-3,2.9
			c-0.7,0.6-1.9,1.4-3.6,2.5L246.3,182.6z"/>
	</g>
	<g>
		<path class="st28" d="M285.9,52.5c2.6-1.7,4.5-3.2,5.9-4.6c1.4-1.3,2.5-2.6,3.3-3.8l1.1,0.2c0.5,1.6,1.2,3.3,2.1,4.9
			c0.9,1.6,2.4,3.6,4.3,5.9l-0.3,1.8c-2.9-1.9-5-3.8-6.5-5.7l0,0.1l-2.3-0.4l0-0.1c-1.7,0.9-2.9,1.6-3.7,1.9
			c-0.8,0.4-2.2,0.8-4.1,1.5L285.9,52.5z"/>
	</g>
	<g>
		<path class="st28" d="M323.6,51.9c2.9-0.9,5.3-1.8,7-2.7c1.7-0.9,3.1-1.8,4.2-2.8l1,0.5c0,1.7,0.2,3.5,0.7,5.3
			c0.4,1.8,1.2,4.1,2.4,6.9l-0.8,1.6c-2.2-2.7-3.7-5.1-4.6-7.3l-0.1,0.1l-2.1-1l0.1-0.1c-1.9,0.4-3.2,0.7-4.1,0.8
			c-0.9,0.1-2.3,0.2-4.4,0.2L323.6,51.9z"/>
	</g>
	<g>
		<path class="st28" d="M263.6,44.7c2.9-0.9,5.3-1.8,7-2.7c1.7-0.9,3.1-1.8,4.2-2.8l1,0.5c0,1.7,0.2,3.5,0.7,5.3
			c0.4,1.8,1.2,4.1,2.4,6.9l-0.8,1.6c-2.2-2.7-3.7-5.1-4.6-7.3l-0.1,0.1l-2.1-1l0.1-0.1c-1.9,0.4-3.2,0.7-4.1,0.8
			c-0.9,0.1-2.3,0.2-4.4,0.2L263.6,44.7z"/>
	</g>
	<g>
		<path class="st28" d="M197.1,64.7c-1.4-2.7-2.7-4.9-3.9-6.4c-1.2-1.5-2.3-2.8-3.5-3.7l0.3-1c1.7-0.3,3.4-0.8,5.1-1.6
			c1.7-0.7,3.8-1.9,6.4-3.6l1.7,0.5c-2.2,2.7-4.3,4.6-6.3,5.8l0.1,0l-0.6,2.3l-0.1,0c0.8,1.8,1.3,3.1,1.5,3.9c0.3,0.8,0.6,2.3,1,4.3
			L197.1,64.7z"/>
	</g>
	<g>
		<path class="st28" d="M150.6,205.1c2.1,2.2,4,3.9,5.5,5c1.5,1.1,3,2,4.4,2.5l0,1.1c-1.5,0.8-3,1.8-4.4,3c-1.4,1.2-3.1,2.9-5.1,5.2
			l-1.8,0c1.4-3.2,2.9-5.6,4.4-7.4l-0.1,0l-0.1-2.4l0.1,0c-1.2-1.5-2.1-2.6-2.6-3.3c-0.5-0.7-1.2-2-2.2-3.8L150.6,205.1z"/>
	</g>
	<g>
		<path class="st28" d="M146,223.2c2.1,2.2,4,3.9,5.5,5c1.5,1.1,3,2,4.4,2.5l0,1.1c-1.5,0.8-3,1.8-4.4,3c-1.4,1.2-3.1,3-5.1,5.3
			l-1.8,0c1.4-3.2,2.9-5.6,4.4-7.4l-0.1,0l-0.1-2.4l0.1,0c-1.2-1.5-2.1-2.6-2.6-3.3c-0.5-0.7-1.2-2-2.2-3.8L146,223.2z"/>
	</g>
	<g>
		<path class="st28" d="M301.7,283.7c2-2.3,3.5-4.3,4.5-6c1-1.6,1.7-3.2,2.1-4.6l1.1-0.1c0.9,1.4,2,2.8,3.4,4.1
			c1.3,1.3,3.2,2.8,5.7,4.6l0.2,1.8c-3.3-1.1-5.9-2.3-7.7-3.7l0,0.1l-2.3,0.3l0-0.1c-1.4,1.4-2.4,2.3-3,2.9
			c-0.7,0.6-1.9,1.4-3.6,2.5L301.7,283.7z"/>
	</g>
	<g>
		<path class="st28" d="M409.3,447.7c-2,2.3-3.5,4.3-4.5,6c-1,1.6-1.7,3.2-2.1,4.6l-1.1,0.1c-0.9-1.5-2-2.8-3.4-4.1
			c-1.3-1.3-3.2-2.8-5.7-4.6l-0.2-1.8c3.3,1.1,5.9,2.3,7.7,3.7l0-0.1l2.4-0.3l0,0.1c1.3-1.4,2.4-2.3,3-2.9c0.7-0.6,1.9-1.4,3.6-2.5
			L409.3,447.7z"/>
	</g>
	<g>
		<path class="st28" d="M398.2,240.5c-2.5-1.7-4.7-3-6.4-3.8c-1.7-0.8-3.3-1.3-4.8-1.6l-0.2-1c1.3-1.1,2.6-2.3,3.7-3.8
			c1.1-1.5,2.4-3.5,3.9-6.2l1.8-0.4c-0.7,3.4-1.7,6.1-2.8,8.1l0.1,0l0.5,2.3l-0.1,0c1.5,1.2,2.6,2.1,3.2,2.7
			c0.6,0.6,1.6,1.7,2.9,3.3L398.2,240.5z"/>
	</g>
	<g>
		<path class="st27" d="M149.8,150.6c-0.9-2.9-1.8-5.3-2.6-7c-0.9-1.7-1.8-3.1-2.7-4.2l0.5-1c1.7,0,3.5-0.2,5.3-0.6
			c1.8-0.4,4.1-1.2,6.9-2.4l1.6,0.8c-2.7,2.2-5.1,3.7-7.3,4.6l0.1,0.1l-1,2.1l-0.1-0.1c0.4,1.9,0.7,3.2,0.8,4.1
			c0.1,0.9,0.2,2.3,0.2,4.4L149.8,150.6z"/>
	</g>
	<g>
		<path class="st27" d="M212.2,251.4c-1.8,2.5-3.1,4.6-3.9,6.4c-0.8,1.7-1.4,3.3-1.7,4.8l-1.1,0.2c-1-1.4-2.3-2.6-3.7-3.8
			c-1.4-1.2-3.5-2.5-6.1-4l-0.4-1.8c3.4,0.8,6.1,1.8,8.1,3l0-0.1l2.3-0.5l0,0.1c1.2-1.5,2.1-2.5,2.8-3.1c0.6-0.6,1.7-1.6,3.3-2.9
			L212.2,251.4z"/>
	</g>
	<g>
		<path class="st27" d="M261.1,297c2.3-2.1,4-3.9,5.2-5.4c1.2-1.5,2.1-2.9,2.6-4.3h1.1c0.7,1.5,1.7,3,2.8,4.5
			c1.2,1.5,2.9,3.2,5.1,5.2v1.8c-3.1-1.5-5.6-3-7.2-4.6v0.1h-2.4v-0.1c-1.5,1.2-2.6,2-3.4,2.5c-0.7,0.5-2,1.2-3.9,2.1V297z"/>
	</g>
	<g>
		<path class="st27" d="M185.4,432.6c2.4-1.9,4.3-3.6,5.5-5c1.3-1.4,2.3-2.8,2.9-4.1l1.1,0.1c0.6,1.6,1.5,3.2,2.5,4.7
			c1.1,1.5,2.6,3.4,4.7,5.6l-0.1,1.8c-3-1.7-5.3-3.4-6.9-5.1l0,0.1l-2.4-0.2l0-0.1c-1.6,1.1-2.8,1.8-3.5,2.2c-0.8,0.4-2.1,1-4,1.8
			L185.4,432.6z"/>
	</g>
</g>
<g id="Tekst">
	<text transform="matrix(1 0 0 1 127.5806 56.749)" class="st29 st30">Til højre arm</text>
	<text transform="matrix(1 0 0 1 279.2476 39.9487)" class="st29 st30">Til hoved</text>
	<text transform="matrix(1 0 0 1 336.0479 45.416)" class="st29 st30">Til venstre arm</text>
	<text transform="matrix(1 0 0 1 342.1807 125.9487)" class="st29 st30">Aorta</text>
	<text transform="matrix(1 0 0 1 419.7803 161.1489)"><tspan x="0" y="0" class="st29 st30">Til venstre lunge </tspan><tspan x="0" y="10.8" class="st29 st30">via lungearterier</tspan></text>
	<text transform="matrix(1 0 0 1 416.7803 217.3491)"><tspan x="0" y="0" class="st29 st30">Fra venstre lunge </tspan><tspan x="0" y="10.8" class="st29 st30">via lungevener</tspan></text>
	<text transform="matrix(1 0 0 1 156.0239 91.8823)" class="st29 st30">Fra hoved og arme</text>
	<text transform="matrix(1 0 0 1 68.5806 130.3491)"><tspan x="0" y="0" class="st29 st30">Til højre lunge via</tspan><tspan x="0" y="10.8" class="st29 st30">lungearterier</tspan></text>
	<text transform="matrix(1 0 0 1 67.5806 181.9487)" class="st29 st30">Øvre hulvene</text>
	<text transform="matrix(1 0 0 1 58.5806 217.3491)"><tspan x="0" y="0" class="st29 st30">Fra højre lunge </tspan><tspan x="0" y="10.8" class="st29 st30">via lungevener</tspan></text>
	<text transform="matrix(1 0 0 1 64.5806 373.1494)" class="st29 st30">Nedre hulvene</text>
	<text transform="matrix(1 0 0 1 157.7808 459.3486)" class="st29 st30">Fra krop og ben</text>
	<text transform="matrix(1 0 0 1 377.7803 466.3486)" class="st29 st30">Til krop og ben</text>
	<text transform="matrix(1 0 0 1 431.8477 329.0966)" class="st29 st30">Kranspulsåre</text>
	<text transform="matrix(1 0 0 1 431.8472 295.7841)" class="st29 st30">Fedtaflejringer</text>
</g>
<g id="Streger_til_tekst">
	<line class="st11" x1="133.8" y1="371.1" x2="171.8" y2="371.1"/>
	<line class="st11" x1="131" y1="178.7" x2="179.8" y2="178.7"/>
	<line class="st11" x1="339.8" y1="123.1" x2="328.2" y2="123.1"/>
</g>
<g id="Lag_12">
	<linearGradient id="SVGID_17_" gradientUnits="userSpaceOnUse" x1="209.7012" y1="388.9991" x2="209.7012" y2="224.9991">
		<stop  offset="0.1966" style="stop-color:#B90618"/>
		<stop  offset="0.5449" style="stop-color:#E95D0F"/>
		<stop  offset="1" style="stop-color:#FECF44"/>
	</linearGradient>
	<path class="st31" d="M238.3,389c0,0-13.7-4-25.7-12s-25.7-25.7-32-36.3c-6.3-10.7-14-50-15.7-59.3c-1.7-9.3-4-36.8,4.7-44.7
		C181,226.3,198.2,225,209,225c13.7,0,35.3,11.2,47,28C251.7,267,228.7,339,238.3,389z"/>
	<g>
		<g>
			
				<linearGradient id="SVGID_18_" gradientUnits="userSpaceOnUse" x1="26.019" y1="388.9991" x2="26.019" y2="121.7496" gradientTransform="matrix(1 0 0 1 184.6821 0)">
				<stop  offset="5.617980e-03" style="stop-color:#B90618"/>
				<stop  offset="0.2809" style="stop-color:#E95D0F"/>
				<stop  offset="0.5337" style="stop-color:#FECF44"/>
				<stop  offset="0.8708" style="stop-color:#FFEEC6"/>
			</linearGradient>
			<path class="st32" d="M254,259.6l4,3.4l-0.2-12.2c0,0-27.6-30.6-29-33c-1.4-2.4-9.6-32.8-7.6-47c2-14.2,6.6-37.4,8-40.6
				c-3.4-1-38.6-8.4-38.6-8.4s-8.8,45.4-9,56c-0.2,9.7,1.5,37.8-7.8,55.7c-1.4,1-2.8,2-4.1,3.2c-8.6,7.9-6.3,35.3-4.7,44.7
				c1.7,9.3,9.3,48.7,15.7,59.3c6.3,10.7,20,28.3,32,36.3s25.7,12,25.7,12C229.7,344.5,247,282.5,254,259.6z"/>
		</g>
		<g>
			<path class="st11" d="M254,259.6l4,3.4l-0.2-12.2c0,0-27.6-30.6-29-33c-1.4-2.4-9.6-32.8-7.6-47c2-14.2,6.6-37.4,8-40.6
				c-3.4-1-38.6-8.4-38.6-8.4s-8.8,45.4-9,56c-0.2,9.7,1.5,37.8-7.8,55.7c-1.4,1-2.8,2-4.1,3.2c-8.6,7.9-6.3,35.3-4.7,44.7
				c1.7,9.3,9.3,48.7,15.7,59.3c6.3,10.7,20,28.3,32,36.3s25.7,12,25.7,12C229.7,344.5,247,282.5,254,259.6z"/>
		</g>
	</g>
</g>
<g id="Lag_13">
	<g>
		<linearGradient id="SVGID_19_" gradientUnits="userSpaceOnUse" x1="191.5075" y1="125.1492" x2="228.8542" y2="125.1492">
			<stop  offset="0" style="stop-color:#FFFFFF"/>
			<stop  offset="0.573" style="stop-color:#E85236"/>
			<stop  offset="1" style="stop-color:#A13B27"/>
		</linearGradient>
		<path class="st33" d="M228.8,128.8c-0.6,2.9-9.4,3.7-19.7,1.6c-10.3-2-18.2-6-17.6-9c0.6-2.9,9.4-3.7,19.7-1.6
			C221.5,121.9,229.4,125.9,228.8,128.8z"/>
		<g>
			<g>
				<path class="st14" d="M211.4,118.9c-10.7-2.1-20-1.1-20.6,2.3c-0.7,3.4,7.5,7.8,18.2,9.9c10.7,2.1,20,1.1,20.6-2.3
					C230.3,125.4,222.1,121,211.4,118.9z M227.7,128.6c-0.6,2.9-8.9,3.8-18.5,1.9c-9.7-1.9-17-5.8-16.5-8.7
					c0.6-2.9,8.9-3.8,18.5-1.9C220.9,121.7,228.2,125.6,227.7,128.6z"/>
			</g>
			<g>
				<path class="st15" d="M211.4,118.9c-10.7-2.1-20-1.1-20.6,2.3c-0.7,3.4,7.5,7.8,18.2,9.9c10.7,2.1,20,1.1,20.6-2.3
					C230.3,125.4,222.1,121,211.4,118.9z M227.7,128.6c-0.6,2.9-8.9,3.8-18.5,1.9c-9.7-1.9-17-5.8-16.5-8.7
					c0.6-2.9,8.9-3.8,18.5-1.9C220.9,121.7,228.2,125.6,227.7,128.6z"/>
			</g>
		</g>
	</g>
</g>
<g id="Lag_10">
	<linearGradient id="SVGID_20_" gradientUnits="userSpaceOnUse" x1="315.5463" y1="418.5517" x2="315.5463" y2="203.4253">
		<stop  offset="0.1966" style="stop-color:#B90618"/>
		<stop  offset="0.5449" style="stop-color:#E95D0F"/>
		<stop  offset="1" style="stop-color:#FFE444"/>
	</linearGradient>
	<path class="st34" d="M294.7,238.8c2.3-7.2,7.7-23.3,13.5-34.7c0,0,21.5-1.7,28.8,0c7.3,1.7,19,7.3,25.3,14.3
		c6.3,7,8.2,12.8,8.8,16c0.7,3.2,0.2,13-0.2,19.8s-1.2,17.7,2.2,23c3.3,5.3,10.8,17.5,15.3,35.3c4.5,17.8,8.2,29.8,7.3,43.5
		c-0.8,13.7-2.7,24.8-6.7,34.2c-4,9.3-11.5,18.7-18,22.2s-16.2,9.5-43,3.5c-26.8-6-38.3-9.2-48.7-12.5c-10.3-3.3-33.8-11.3-42-15.2
		c-0.8-7.2-4.7-27.7-0.3-54.8c4.3-27.2,10.5-53,13.5-63.2c3-10.2,6.2-21.7,7.1-26.1c0.9-4.4,2.7-11,2.7-11"/>
</g>
<g id="Lag_15">
	<linearGradient id="SVGID_21_" gradientUnits="userSpaceOnUse" x1="334.5376" y1="323.3174" x2="334.5376" y2="203.8291">
		<stop  offset="0.3483" style="stop-color:#FECF41"/>
		<stop  offset="0.4935" style="stop-color:#FECF44"/>
		<stop  offset="0.5842" style="stop-color:#FFD24E"/>
		<stop  offset="0.66" style="stop-color:#FFD65F"/>
		<stop  offset="0.7276" style="stop-color:#FFDD75"/>
		<stop  offset="0.7897" style="stop-color:#FFE690"/>
		<stop  offset="0.847" style="stop-color:#FFF0B0"/>
		<stop  offset="0.8933" style="stop-color:#FFFACD"/>
	</linearGradient>
	<path class="st35" d="M313.3,233c-0.4,5.4,2.2,10.2,8.7,18.9c-16.3-2.9-14.2-20.3-14.2-20.3l-3.9-0.2c-4,0.7-6.3,1.3-6.3,1.3
		s6.6-20.9,10.6-28.3c0,0,22.9-1.3,28.9,0.3c6,1.7,22.9,10.1,26.9,17.1s7.5,9.9,7.2,20.9c-0.3,11-2,25.3-0.3,29.7
		c1.7,4.3,4.3,8.3,4.3,8.3s-13.3-19-15.7-25.3c-2.3-6.3-6.7-14.3-9.3-17c-2.7-2.7-4.7-2.3-6.7-2c-2,0.3-3.3,0.7-3.3,0.7s5,4,6,9.3
		c1,5.3,2,9.3,1.7,13.7c-0.3,4.3-0.3,7.3-0.3,7.3l8.3,9.7c0,0,3,2.7,5.3,8.3c2.3,5.7,1,5,1.7,12s1.7,12,1.7,12s-3.3-8.3-8-18
		c-4.7-9.7-10-14.7-10-14.7s-1,8.7-1.3,15c-0.3,6.3-2.7,24-2.7,24L339,288l1.9-4.6c-3.3,0-12,2.5-18.1,4.7
		c-6.2,2.2-8.7,9.8-9.8,15.2c-1.1,5.4,0,8.7-3.6,9.4c-3.6,0.7-15.6,10.5-15.6,10.5s1.1-1.8,4-6.2c2.9-4.4,9.8-9.1,9.8-9.1
		s0-2.2-0.7-7.6c-0.7-5.4,4.4-13.1,13.4-18.9c9.1-5.8,20-5.8,20-5.8l-0.5-6.8c-1.3-9.3-0.3-19.3-4.3-23.3c-4-4-8.3-8-14.7-10.3
		L313.3,233z"/>
</g>
<g id="Lag_14">
	<g>
		<path class="st36" d="M300.7,222.3c0,0,15.8,4.9,24.2,11c8,5.8,14.9,12.5,15.8,24.4c0.9,12,0.6,18.5-0.5,30
			c-1.1,11.5-1,30,3.3,40.4c4.3,10.4,11.1,17.7,17,30.5c5.9,12.8,9.3,23.2,6.6,34.8c-2.6,11.6-5.4,19.2-8.2,23.8l0.3-0.7
			c3-4.5,6-12,9-23.5s0-22-5.5-35s-12-20.5-16-31s-3.5-29-2-40.5s2-18,1.5-30s-6.2-19-14-25.5c-7.6-6.4-29.3-14.5-29.3-14.5"/>
		<path class="st36" d="M322.7,228.2c0,0,11.7-0.7,17.4-0.1c5.8,0.7,11.8,3.5,15.2,9.2c3,5.1,4.3,11.1,5.2,15.4
			c0.9,4.3,4,10.8,6.1,14c2.2,3.2,4.1,5,4.1,5l0.9,0.1c0,0-1.8-1.8-3.8-5.2s-4.7-10-5.3-14.3c-0.7-4.3-1.7-10.3-4.3-15.7
			c-2.7-5.3-8.3-8.5-14-10.3c-5.1-1.7-22-0.7-22-0.7"/>
		<path class="st36" d="M342.6,269c0,0,13.2,11.9,16.1,22.6c3,11,1.3,23.8,12.4,29.8c5.8,3.1,11.2,4.8,11.8,9.5l0,0.4
			c-0.3-4.7-5.7-6.6-11.3-10c-10.8-6.5-8.5-19.2-11-30.3c-2.4-10.8-15-23.3-15-23.3"/>
		<path class="st36" d="M309.4,224.6c0,0-1.3,17.8,10.5,25.5c-4.5-5.2-10.5-9.8-8.7-25"/>
		<path class="st36" d="M338.1,246c0,0-17.5,12.7-12.2,28.5c-0.5-6.7-1.5-16.3,13.3-26.3"/>
		<path class="st36" d="M342.3,291.1c0,0-18.8,10.6-15.3,27c0.2-6.7,0.3-16.4,16.2-24.7"/>
		<path class="st36" d="M342.4,323.7c0,0-15.3,15.2-7.6,30c-1.5-6.5-4-15.9,9.1-28.1"/>
		<path class="st36" d="M361.2,358.7c0,0-15.3,15.2-7.6,30c-1.5-6.5-4-15.9,9.1-28.1"/>
		<path class="st36" d="M357,347.2c0,0,21.2,4.2,23,20.8c-2.3-6.3-5.5-15.5-23.2-18.3"/>
		<path class="st36" d="M343.2,313.9c0,0,21.2,4.2,23,20.8c-2.3-6.3-5.5-15.5-23.2-18.3"/>
		<path class="st36" d="M354.2,278.9c0,0,21.2,4.2,23,20.8c-2.3-6.3-5.5-15.5-23.2-18.3"/>
		<path class="st36" d="M305.5,220.1c0,0,16.5-13.9,30.6-5c-6.4-2.1-15.5-5.4-28.8,6.6"/>
	</g>
	<path class="st36" d="M242.5,213.9c0,0-19.1,11-25,17.9c-6,7.1-10,14.3-7.8,25c2.2,10.7,4.1,16.4,8.1,26.4c4,10,8.5,26.3,7,36.3
		c-1.5,10-6.1,17.8-8.6,30.3c-2.4,12.5-5.1,15.1,0.3,24.8c5.4,9.7,0.4,2.9,4.3,6.4l0.5,0.6c-3.8-3.6,1.4,3-3.7-6.8
		c-5.1-9.8-2.1-12.4,0.8-24.8c2.9-12.4,7.7-20,9.6-30c1.9-9.9-2.1-26.4-5.7-36.5c-3.6-10.1-5.3-15.8-7.1-26.6
		c-1.8-10.8,3.4-17.9,9.8-24.4c6.8-6.9,20.9-13.9,20.9-13.9s1.3-1.6-0.1-3.6C244.4,213.1,242.5,213.9,242.5,213.9z"/>
	<path class="st36" d="M342.9,281.4c0,0-11.5,1.7-16.8,3.5c-5.5,1.9-10.7,5.9-12.8,12.2c-1.9,5.7-1.9,11.8-1.9,16.1
		c0,4.4-1.6,11.4-3.1,15c-1.5,3.6-8.3,21.1-8.3,21.1l-0.9,0.3c0,0,6.7-17.6,7.9-21.2c1.3-3.7,2.5-10.7,2.2-15.1
		c-0.2-4.4-0.5-10.5,1-16.2c1.5-5.8,6.3-10,11.4-13c4.6-2.7,21.2-5.2,21.2-5.2"/>
	<path class="st36" d="M215.5,245.1c0,0,11.5-1,17.2-0.5c5.8,0.5,11.8,3.2,15.3,8.9c3.1,5.1,4.6,11,5.6,15.3
		c1,4.3,4.2,10.7,6.5,13.9c2.3,3.2,4.2,4.9,4.2,4.9l0.9,0.1c0,0-1.9-1.8-3.9-5.1c-2.1-3.3-4.9-9.9-5.7-14.2
		c-0.8-4.3-1.9-10.3-4.7-15.6c-2.8-5.3-8.5-8.3-14.1-10c-5.1-1.5-21.8-0.2-21.8-0.2"/>
	<path class="st36" d="M226.7,324.1c0,0,11.5-1,17.2-0.5c5.8,0.5,11.8,3.2,15.3,8.9c3.1,5.1,4.6,11,5.6,15.3
		c1,4.3,4.2,10.7,6.5,13.9c2.3,3.2,4.2,4.9,4.2,4.9l0.9,0.1c0,0-1.9-1.8-3.9-5.1c-2.1-3.3-4.9-9.9-5.7-14.2
		c-0.8-4.3-1.9-10.3-4.7-15.6c-2.8-5.3-8.5-8.3-14.1-10c-5.1-1.5-21.8-0.2-21.8-0.2"/>
	<path class="st36" d="M223.4,290.5c0,0,10.9-3.9,16.5-4.8c5.7-0.9,12.2,0.2,17,4.7c4.3,4.1,7.2,9.5,9.3,13.4
		c2.1,3.9,6.8,9.3,9.7,11.8c3,2.5,5.3,3.6,5.3,3.6l0.9-0.2c0,0-2.3-1.3-5.1-3.9c-2.8-2.7-7.2-8.3-9.1-12.3c-1.8-4-4.5-9.5-8.5-13.9
		c-4-4.4-10.3-5.9-16.2-6.1c-5.3-0.2-21.1,5.3-21.1,5.3"/>
	<path class="st36" d="M216.8,270.2c0,0-10.3,14.4-11,25.4c-0.7,11.4,3.6,23.6-5.9,31.7c-5,4.2-9.9,7-9.5,11.7l0.1,0.4
		c-0.6-4.6,4.2-7.7,8.9-12.1c9.2-8.6,4.3-20.5,4.4-32c0.1-11,9.8-25.9,9.8-25.9"/>
	<path class="st36" d="M350.4,335.3c0,0-10.3,14.4-11,25.4c-0.7,11.4,3.6,23.6-5.9,31.7c-5,4.2-9.9,7-9.5,11.7l0.1,0.4
		c-0.6-4.6,4.2-7.7,8.9-12.1c9.2-8.6,4.3-20.5,4.4-32c0.1-11,9.8-25.9,9.8-25.9"/>
	<path class="st36" d="M215.2,248c0,0,19.5,8.8,17.6,25.4c-0.9-6.6-1.9-16.3-18.3-23"/>
	<path class="st36" d="M224.9,297.6c0,0,20.4,6.5,20.3,23.2c-1.6-6.5-3.7-16-20.7-20.8"/>
	<path class="st36" d="M262.5,296.3c0,0,17.1-12.9,30.7-3.1c-6.2-2.4-15.2-6.2-29,4.9"/>
	<path class="st36" d="M264.5,345.6c0,0,17.1-12.9,30.7-3.1c-6.2-2.4-15.2-6.2-29,4.9"/>
	<path class="st36" d="M226.2,327c0,0,18,11.7,13.5,27.8c0.2-6.7,0.6-16.4-14.5-25.6"/>
	<path class="st36" d="M219.2,342.1c0,0,18,11.7,13.5,27.8c0.2-6.7,0.6-16.4-14.5-25.6"/>
	<path class="st36" d="M310,318.4c0,0,18,11.7,13.5,27.8c0.2-6.7,0.6-16.4-14.5-25.6"/>
	<path class="st36" d="M216.9,352.8c0,0-13.7,6-13,17c0.8-4.4,1.9-10.8,13.4-15.4"/>
	<path class="st36" d="M268.2,355.4c0,0-13.7,6-13,17c0.8-4.4,1.9-10.8,13.4-15.4"/>
	<path class="st36" d="M226.1,313.6c0,0-19.7,8.4-18,25.1c1-6.6,2.2-16.3,18.7-22.7"/>
	<path class="st36" d="M268.9,306.3c0,0-19.7,8.4-18,25.1c1-6.6,2.2-16.3,18.7-22.7"/>
	<path class="st36" d="M309.7,309c0,0-19.7,8.4-18,25.1c1-6.6,2.2-16.3,18.7-22.7"/>
	<path class="st36" d="M337.3,360.9c0,0-19.7,8.4-18,25.1c1-6.6,2.2-16.3,18.7-22.7"/>
	<path class="st36" d="M205.7,285.5c0,0-19.7,8.4-18,25.1c1-6.6,2.2-16.3,18.7-22.7"/>
	<path class="st37" d="M302.3,216.4c0,0-12.7-3.4-20-3c-0.7,0.4-1.9,1-2.1,2.3c-0.3,2.1,1.2,3,1.2,3s13.7,1.7,18.7,3.4
		C301.9,217.3,302.3,216.4,302.3,216.4z"/>
</g>
<g id="Lag_11">
	<line class="st11" x1="428.7" y1="293.1" x2="362.6" y2="293.1"/>
	<line class="st11" x1="428.7" y1="326.1" x2="344.8" y2="326.1"/>
</g>
</svg>
