<?xml version="1.0" encoding="utf-8"?>
<!-- Generator: Adobe Illustrator 19.1.0, SVG Export Plug-In . SVG Version: 6.00 Build 0)  -->
<svg version="1.1" xmlns="http://www.w3.org/2000/svg" xmlns:xlink="http://www.w3.org/1999/xlink" x="0px" y="0px"
	 viewBox="0 0 269.3 487.6" style="enable-background:new 0 0 269.3 487.6;" xml:space="preserve">
<style type="text/css">
	.st0{fill:url(#SVGID_1_);}
	.st1{opacity:0.54;fill:url(#SVGID_2_);}
	.st2{opacity:0.1;}
	.st3{fill:none;stroke:#BDE4F7;stroke-width:0.7582;}
	.st4{fill:none;stroke:#A2DAF4;stroke-width:3;}
	.st5{fill:none;stroke:#FFFFFF;stroke-width:0.75;}
	.st6{fill:#A2DAF4;stroke:#A2DAF4;}
	.st7{fill:#FFFFFF;}
	.st8{font-family:'Verdana';}
	.st9{font-size:9px;}
</style>
<g id="Lag_8">
	<linearGradient id="SVGID_1_" gradientUnits="userSpaceOnUse" x1="134.6455" y1="260.333" x2="134.6455" y2="170.6978">
		<stop  offset="0.1236" style="stop-color:#FFFFFF"/>
		<stop  offset="0.4153" style="stop-color:#E7F5FC"/>
		<stop  offset="0.7937" style="stop-color:#C9E9F8"/>
		<stop  offset="1" style="stop-color:#BDE4F7"/>
	</linearGradient>
	<rect y="170.7" class="st0" width="269.3" height="89.6"/>
</g>
<g id="Lag_4">
	<rect y="0.7" width="269.3" height="174.7"/>
</g>
<g id="Lag_3">
	<radialGradient id="SVGID_2_" cx="215.334" cy="107.6667" r="50.3331" gradientUnits="userSpaceOnUse">
		<stop  offset="5.617980e-03" style="stop-color:#009EE0"/>
		<stop  offset="0.1094" style="stop-color:#00A0E1"/>
		<stop  offset="0.2591" style="stop-color:#00A7E3"/>
		<stop  offset="0.3483" style="stop-color:#00ADE5"/>
		<stop  offset="0.3571" style="stop-color:#00A9DF"/>
		<stop  offset="0.457" style="stop-color:#007DA5"/>
		<stop  offset="0.5566" style="stop-color:#005773"/>
		<stop  offset="0.654" style="stop-color:#003749"/>
		<stop  offset="0.7485" style="stop-color:#001F29"/>
		<stop  offset="0.8393" style="stop-color:#000E12"/>
		<stop  offset="0.9249" style="stop-color:#000405"/>
		<stop  offset="1" style="stop-color:#000000"/>
	</radialGradient>
	<circle class="st1" cx="215.3" cy="107.7" r="50.3"/>
</g>
<g id="Lag_7" class="st2">
	<g>
		<line class="st3" x1="0" y1="26" x2="269.3" y2="26"/>
		<line class="st3" x1="0" y1="13.5" x2="269.3" y2="13.5"/>
		<line class="st3" x1="0" y1="-1" x2="269.3" y2="-1"/>
		<line class="st3" x1="0" y1="39.6" x2="269.3" y2="39.6"/>
		<line class="st3" x1="0" y1="53.3" x2="269.3" y2="53.3"/>
		<line class="st3" x1="0" y1="66.9" x2="269.3" y2="66.9"/>
		<line class="st3" x1="0" y1="80.6" x2="269.3" y2="80.6"/>
		<line class="st3" x1="0" y1="94.2" x2="269.3" y2="94.2"/>
		<line class="st3" x1="0" y1="107.9" x2="269.3" y2="107.9"/>
		<line class="st3" x1="0" y1="121.5" x2="269.3" y2="121.5"/>
		<line class="st3" x1="0" y1="135.2" x2="269.3" y2="135.2"/>
		<line class="st3" x1="0" y1="148.8" x2="269.3" y2="148.8"/>
		<line class="st3" x1="0" y1="162.5" x2="269.3" y2="162.5"/>
		<line class="st3" x1="0" y1="176.1" x2="269.3" y2="176.1"/>
		<line class="st3" x1="13.6" y1="-2" x2="13.6" y2="176.5"/>
		<line class="st3" x1="26.9" y1="-2" x2="26.9" y2="176.5"/>
		<line class="st3" x1="40.2" y1="-2" x2="40.2" y2="176.5"/>
		<line class="st3" x1="53.5" y1="-2" x2="53.5" y2="176.5"/>
		<line class="st3" x1="66.7" y1="-2" x2="66.7" y2="176.5"/>
		<line class="st3" x1="80" y1="-2" x2="80" y2="176.5"/>
		<line class="st3" x1="93.3" y1="-2" x2="93.3" y2="176.5"/>
		<line class="st3" x1="106.5" y1="-2" x2="106.5" y2="176.5"/>
		<line class="st3" x1="119.8" y1="-2" x2="119.8" y2="176.5"/>
		<line class="st3" x1="133.1" y1="-2" x2="133.1" y2="176.5"/>
		<line class="st3" x1="146.3" y1="-2" x2="146.3" y2="176.5"/>
		<line class="st3" x1="159.6" y1="-2" x2="159.6" y2="176.5"/>
		<line class="st3" x1="172.9" y1="-2" x2="172.9" y2="176.5"/>
		<line class="st3" x1="186.1" y1="-2" x2="186.1" y2="176.5"/>
		<line class="st3" x1="199.4" y1="-2" x2="199.4" y2="176.5"/>
		<line class="st3" x1="212.9" y1="-2" x2="212.9" y2="176.5"/>
		<line class="st3" x1="226.4" y1="-2" x2="226.4" y2="176.5"/>
		<line class="st3" x1="239.9" y1="-2" x2="239.9" y2="176.5"/>
		<line class="st3" x1="253.4" y1="-2" x2="253.4" y2="176.5"/>
		<line class="st3" x1="266.9" y1="-2" x2="266.9" y2="176.5"/>
	</g>
</g>
<g id="Lag_2">
	<path class="st4" d="M6.5,108c0,0,29.7,0,30.7,0s2.7-0.7,3.7-4c1-3.3,1.3-8.7,3-8.7s2.3,13,4.7,13h4c0,0,1-1,1.3,2.3
		c0.3,3.3-0.3,4,1.3,4S58.8,27,60.5,27s6,125,7.3,125c1.3,0,4-42.3,4-42.3s-0.3-1.7,2.7-1.7s9.7,0,9.7,0s9-12.7,18.7,0
		c12.7,0,15,0,15,0s2.7,2.3,3.7-2c1-4.3,1.3-10.3,3.7-10.7c2.3-0.3,2.7,11.7,4.3,12.3c1.7,0.7,4.3,0,4.3,0s1,1,1,2s-0.3,5.3,1,5.3
		s2.3-89,5.3-89s5.3,126,7.3,126s4.3-42,4.3-42s0-2,3-2s9,0,9,0s9.7-12,19.7,0c12.3,0,28.7,0,28.7,0"/>
	<path class="st5" d="M6.5,108c0,0,29.7,0,30.7,0s2.7-0.7,3.7-4c1-3.3,1.3-8.7,3-8.7s2.3,13,4.7,13h4c0,0,1-1,1.3,2.3
		c0.3,3.3-0.3,4,1.3,4S58.8,27,60.5,27s6,125,7.3,125c1.3,0,4-42.3,4-42.3s-0.3-1.7,2.7-1.7s9.7,0,9.7,0s9-12.7,18.7,0
		c12.7,0,15,0,15,0s2.7,2.3,3.7-2c1-4.3,1.3-10.3,3.7-10.7c2.3-0.3,2.7,11.7,4.3,12.3c1.7,0.7,4.3,0,4.3,0s1,1,1,2s-0.3,5.3,1,5.3
		s2.3-89,5.3-89s5.3,126,7.3,126s4.3-42,4.3-42s0-2,3-2s9,0,9,0s9.7-12,19.7,0c12.3,0,28.7,0,28.7,0"/>
</g>
<g id="Lag_5">
	<g>
		<circle class="st6" cx="212.9" cy="107.9" r="2.7"/>
		<circle class="st7" cx="212.9" cy="107.9" r="1.8"/>
	</g>
</g>
<g id="txt">
	<text transform="matrix(1 0 0 1 145.5 164)" class="st7 st8 st9">S</text>
	<text transform="matrix(1 0 0 1 138 19.5)" class="st7 st8 st9">R</text>
	<text transform="matrix(1 0 0 1 132.5 127)" class="st7 st8 st9">Q</text>
	<text transform="matrix(1 0 0 1 123 90)" class="st7 st8 st9">P</text>
	<text transform="matrix(1 0 0 1 172 90)" class="st7 st8 st9">T</text>
</g>
</svg>
