<?xml version="1.0" encoding="utf-8"?>
<!-- Generator: Adobe Illustrator 19.1.0, SVG Export Plug-In . SVG Version: 6.00 Build 0)  -->
<svg version="1.1" xmlns="http://www.w3.org/2000/svg" xmlns:xlink="http://www.w3.org/1999/xlink" x="0px" y="0px"
	 viewBox="0 0 269.3 487.6" style="enable-background:new 0 0 269.3 487.6;" xml:space="preserve">
<style type="text/css">
	.st0{fill:url(#SVGID_1_);}
	.st1{fill:#C6E8FB;stroke:#000000;stroke-width:0.7;}
	.st2{fill:#EAF6FE;}
	.st3{fill:none;stroke:#000000;stroke-width:0.7;}
	.st4{fill:#EAF6FE;stroke:#000000;stroke-width:0.7;}
	.st5{fill:url(#SVGID_2_);}
	.st6{fill:none;stroke:#000000;stroke-width:0.5;}
	.st7{fill:url(#SVGID_3_);}
	.st8{fill:#A70A2D;stroke:#000000;stroke-width:0.5;}
	.st9{fill:#E30613;stroke:#000000;stroke-width:0.5;}
	.st10{fill:url(#SVGID_4_);stroke:#000000;stroke-width:0.5;}
	.st11{fill:#A70A2D;stroke:#E30613;}
	.st12{fill:url(#SVGID_5_);stroke:#000000;stroke-width:0.5;}
	.st13{fill:url(#SVGID_6_);stroke:#000000;stroke-width:0.5;}
	.st14{fill:#FFFFFF;}
	.st15{fill:none;stroke:#000000;stroke-width:1.5;}
	.st16{fill:none;stroke:#FFFFFF;stroke-width:1.5;}
	.st17{fill:none;stroke:#FFFFFF;}
	.st18{fill:none;stroke:#000000;}
	.st19{fill:none;stroke:#000000;stroke-width:2.5;}
	.st20{fill:#0069B4;}
	.st21{fill:none;stroke:#0069B4;}
	.st22{font-family:'Verdana';}
	.st23{font-size:9px;}
	.st24{stroke:#000000;stroke-width:0.5;}
</style>
<g id="Lag_13">
	<linearGradient id="SVGID_1_" gradientUnits="userSpaceOnUse" x1="0" y1="243.7784" x2="269.291" y2="243.7784">
		<stop  offset="2.416400e-04" style="stop-color:#5BC5F2"/>
		<stop  offset="0.1592" style="stop-color:#94C9D3"/>
		<stop  offset="0.3731" style="stop-color:#C1CBA8"/>
		<stop  offset="0.5717" style="stop-color:#DECA82"/>
		<stop  offset="0.7486" style="stop-color:#EFC862"/>
		<stop  offset="0.8974" style="stop-color:#F9C64C"/>
		<stop  offset="1" style="stop-color:#FDC543"/>
	</linearGradient>
	<rect y="0" class="st0" width="269.3" height="487.6"/>
</g>
<g id="Lag_12">
	<path class="st1" d="M55.5,278c0,0-18.5,3.5-13.3,20c5.2,16.5,19.8,16.3,26.2,12.8c6.3-3.5,11.3-12.7,9.3-21.3
		c-2-8.7-10.5-12.9-14.2-13.2C59.2,276,55.5,278,55.5,278z"/>
	<path class="st1" d="M78.3,78.7c0,0-7.8-4.8-16.2,1.2S53.3,89.5,53,92s-2.8,13.2,5.2,16.5c8,3.3,10,3.7,10.5,3.7s10.3,1,14.8-2.5
		s6.7-8.5,6-14c-0.7-5.5-1.2-7.7-2.7-10.3c-1.5-2.7-5.3-5.8-6.5-6.3C79.2,78.5,78.3,78.7,78.3,78.7z"/>
</g>
<g id="lymf._kapill.">
	<g>
		<g>
			<g>
				<path class="st2" d="M177.2,49.6c5.6-0.8-0.1-3.5-1.5-3.8s-8.2-1.6-9.8-1.9s2.2-0.9,6-2.2s1.1-3.4-0.2-2.8s-7.2,2.2-11.6,1.9
					s-17.5-2-23.4-1.6s-17.9,7.5-22.2,10.1S96.9,56,96.9,56s1.2,3.6,2.9,6.8c3.1-5.4,7.8-6.5,7.8-6.5c4.6-1.6,4.4-1,6.9,0
					s6.4,3.1,10.5,5.1s16.4,2,19.4,2s14.4-2.9,17.1-3.5s9.5,1.1,11.9,2.1s2.6-1.1,2.1-1.8s-3.5-1.6-4.5-1.9s4.6-2,6.6-2.6
					s0.4-2.1-1.5-2.8s-4.6-1.6-5.4-1.9S171.6,50.4,177.2,49.6z M153.4,42.8c0.6-0.3,8.9,0.7,9.2,1s0.1,1.8-0.6,2.1
					c-0.7,0.3-12.3,0.6-12.3,0.6S152.8,43.1,153.4,42.8z M159.6,51.6c-1.8,0.6-10.2,1.2-11.8,0.6c-0.2-0.1,2.4-3.2,3.3-3.4
					c0.9-0.1,7.5-0.6,8.4,0.2S161.3,50.9,159.6,51.6z M137.7,43.8c0.8-1.2,1.2-2.3,2.6-2.2c1.3,0.1,5-0.1,6.4,0.1s3.8,0.7,3.8,0.7
					s-6.9,7.6-13.6,4.8C135.7,46.7,136.9,45,137.7,43.8z M145.8,48.4c0,0-1.2,2.9-2.3,3.7c-1.1,0.8-4.5,0.7-5.8,0.2s-1.8-1.8-0.3-2
					S144.7,49.1,145.8,48.4z M130.1,44c0.8-0.4,6-3.4,5.1,0.9s-4.4,5.1-5.9,4.9c-1.4-0.2-3.6-3.2-3.6-3.2
					C126.1,46.1,129.3,44.4,130.1,44z M115.8,51.6c0,0,6.4-4.1,6.9-3.7s3,3.7,1.1,3.9s-8.1,0-8.1,0L115.8,51.6z M126.9,56.4
					c-1.6,1.5-7.4,0.9-10.1-2.6c-0.7-0.9,4,0,5.1,0.2C123,54.2,128.5,54.9,126.9,56.4z M126.9,52.3c-0.4-0.9,2.4-1.1,3.6-1.3
					s3.3-0.4,3.8,0.6s1.8,3.4-0.1,3.5S128.2,55.1,126.9,52.3z M128,59.1v-0.2c0.8-0.6,2.3-2.1,3.6-2.1s3.2-0.1,4.9,1.1
					s3.4,2.6,3.4,2.6S129.8,61.4,128,59.1z M148.2,60.1c-2.1,0.4-8.7,0.2-9.2-4.6c-0.2-1.4,2.2-0.8,3.8-1.2c1.6-0.4,3.2-1.6,3.9-0.9
					S150.2,59.6,148.2,60.1z M162.9,57.4c-3.7-0.1-10.4,1.6-11.3,2s-1.4-5-1.4-5c0.8-0.1,4.8,0.1,6.2-0.1c1.4-0.2,3.1-1.2,4.7-0.1
					S166.6,57.5,162.9,57.4z M172.9,55c-1.2,1.4-4.1,1.5-5.5,0.8s-4.6-2.7-4.6-2.7c0.6-0.2,2.8-1.7,4.2-1.2S174.2,53.6,172.9,55z
					 M165.4,49.8c-1.1-0.1-2.7-1.6-2.7-1.6c0.8-0.3,8.7-1.1,9.1,0.1S166.5,49.9,165.4,49.8z"/>
			</g>
			<g>
				<path class="st3" d="M177.2,49.6c5.6-0.8-0.1-3.5-1.5-3.8s-8.2-1.6-9.8-1.9s2.2-0.9,6-2.2s1.1-3.4-0.2-2.8s-7.2,2.2-11.6,1.9
					s-17.5-2-23.4-1.6s-17.9,7.5-22.2,10.1S96.9,56,96.9,56s1.2,3.6,2.9,6.8c3.1-5.4,7.8-6.5,7.8-6.5c4.6-1.6,4.4-1,6.9,0
					s6.4,3.1,10.5,5.1s16.4,2,19.4,2s14.4-2.9,17.1-3.5s9.5,1.1,11.9,2.1s2.6-1.1,2.1-1.8s-3.5-1.6-4.5-1.9s4.6-2,6.6-2.6
					s0.4-2.1-1.5-2.8s-4.6-1.6-5.4-1.9S171.6,50.4,177.2,49.6z M153.4,42.8c0.6-0.3,8.9,0.7,9.2,1s0.1,1.8-0.6,2.1
					c-0.7,0.3-12.3,0.6-12.3,0.6S152.8,43.1,153.4,42.8z M159.6,51.6c-1.8,0.6-10.2,1.2-11.8,0.6c-0.2-0.1,2.4-3.2,3.3-3.4
					c0.9-0.1,7.5-0.6,8.4,0.2S161.3,50.9,159.6,51.6z M137.7,43.8c0.8-1.2,1.2-2.3,2.6-2.2c1.3,0.1,5-0.1,6.4,0.1s3.8,0.7,3.8,0.7
					s-6.9,7.6-13.6,4.8C135.7,46.7,136.9,45,137.7,43.8z M145.8,48.4c0,0-1.2,2.9-2.3,3.7c-1.1,0.8-4.5,0.7-5.8,0.2s-1.8-1.8-0.3-2
					S144.7,49.1,145.8,48.4z M130.1,44c0.8-0.4,6-3.4,5.1,0.9s-4.4,5.1-5.9,4.9c-1.4-0.2-3.6-3.2-3.6-3.2
					C126.1,46.1,129.3,44.4,130.1,44z M115.8,51.6c0,0,6.4-4.1,6.9-3.7s3,3.7,1.1,3.9s-8.1,0-8.1,0L115.8,51.6z M126.9,56.4
					c-1.6,1.5-7.4,0.9-10.1-2.6c-0.7-0.9,4,0,5.1,0.2C123,54.2,128.5,54.9,126.9,56.4z M126.9,52.3c-0.4-0.9,2.4-1.1,3.6-1.3
					s3.3-0.4,3.8,0.6s1.8,3.4-0.1,3.5S128.2,55.1,126.9,52.3z M128,59.1v-0.2c0.8-0.6,2.3-2.1,3.6-2.1s3.2-0.1,4.9,1.1
					s3.4,2.6,3.4,2.6S129.8,61.4,128,59.1z M148.2,60.1c-2.1,0.4-8.7,0.2-9.2-4.6c-0.2-1.4,2.2-0.8,3.8-1.2c1.6-0.4,3.2-1.6,3.9-0.9
					S150.2,59.6,148.2,60.1z M162.9,57.4c-3.7-0.1-10.4,1.6-11.3,2s-1.4-5-1.4-5c0.8-0.1,4.8,0.1,6.2-0.1c1.4-0.2,3.1-1.2,4.7-0.1
					S166.6,57.5,162.9,57.4z M172.9,55c-1.2,1.4-4.1,1.5-5.5,0.8s-4.6-2.7-4.6-2.7c0.6-0.2,2.8-1.7,4.2-1.2S174.2,53.6,172.9,55z
					 M165.4,49.8c-1.1-0.1-2.7-1.6-2.7-1.6c0.8-0.3,8.7-1.1,9.1,0.1S166.5,49.9,165.4,49.8z"/>
			</g>
		</g>
	</g>
	<g>
		<g>
			<path class="st2" d="M189.8,351.9c-5.6-0.8-7.4-1.2-6.6-1.5c0.8-0.2,3.5-1.2,5.4-1.9c1.9-0.6,3.5-2.1,1.5-2.8
				c-2-0.6-7.6-2.4-6.6-2.6c1-0.2,4-1.3,4.5-1.9c0.5-0.6,0.2-2.8-2.1-1.8s-9.1,2.7-11.9,2.1c-2.8-0.6-14.1-3.5-17.1-3.5
				s-14.9,1-19.4,2c-5.4,1.2-7.8,3.2-10.5,5.1c-2.1,1.5-2.6,2.1-7.3,1.5c0,0-7.9-0.9-15.6-4.4c-8.7-4-15.1-13.1-17.9-14.1
				c-1.6,3.1-1,3.9-1,3.9s5.8,8.1,15.8,13.1c9.7,4.9,23.4,5.3,26.2,6.9c4.4,2.5,16.4,9.8,22.2,10.1s19-1.2,23.4-1.6
				s10.2,1.2,11.6,1.9c1.4,0.6,4-1.4,0.2-2.8c-3.8-1.4-7.5-2-6-2.2s8.4-1.6,9.8-1.9C189.7,355.4,195.5,352.7,189.8,351.9z
				 M185.5,346.5c1.2,1.4-4.5,2.8-5.9,3.2s-3.6-1.1-4.2-1.2c0,0,3.2-1.9,4.6-2.7S184.3,345.2,185.5,346.5z M164.2,342.1
				c0.9,0.4,7.6,2.1,11.3,2c3.7-0.1-0.2,2-1.9,3.1s-3.2,0.1-4.7-0.1c-1.4-0.2-5.4,0.1-6.2-0.1C162.8,347.1,163.3,341.7,164.2,342.1z
				 M172,352.5c-0.9,0.8-7.4,0.4-8.4,0.2c-0.9-0.1-3.6-3.3-3.3-3.4c1.6-0.7,10.1-0.1,11.8,0.6C173.9,350.6,172.9,351.7,172,352.5z
				 M160.8,341.5c2.1,0.4-0.8,6-1.5,6.7c-0.8,0.7-2.4-0.5-3.9-0.9s-4,0.2-3.8-1.2C152.1,341.2,158.7,341,160.8,341.5z M158.4,353.1
				c-1.1-0.7-6.9-1.7-8.4-1.9c-1.5-0.2-1-1.5,0.3-2c1.3-0.5,4.8-0.6,5.8,0.2S158.4,353.1,158.4,353.1z M140.6,342.4
				c1.8-2.2,11.9-1.4,11.9-1.4s-1.6,1.4-3.4,2.6c-1.8,1.2-3.7,1.1-4.9,1.1s-2.8-1.5-3.6-2.1V342.4z M146.8,346.5
				c1.9,0.1,0.6,2.6,0.1,3.5c-0.5,0.9-2.6,0.8-3.8,0.6c-1.2-0.2-4-0.4-3.6-1.3C140.8,346.4,145,346.4,146.8,346.5z M129.5,347.7
				c2.6-3.5,8.5-4.1,10.1-2.6c1.6,1.5-3.9,2.2-5,2.4C133.5,347.7,128.8,348.6,129.5,347.7z M135.3,353.6c-0.5,0.4-6.9-3.7-6.9-3.7
				l-0.1-0.2c0,0,6.2-0.2,8.1,0C138.3,349.9,135.8,353.2,135.3,353.6z M142.6,357.5c-0.8-0.4-3.9-2.1-4.4-2.6c0,0,2.2-3.1,3.6-3.2
				c1.4-0.2,4.9,0.5,5.9,4.9S143.4,358,142.6,357.5z M159.2,359.8c-1.4,0.2-5.1,0-6.4,0.1c-1.3,0.1-1.8-1-2.6-2.2
				c-0.8-1.2-2-2.9-0.9-3.4c6.8-2.9,13.6,4.8,13.6,4.8S160.6,359.6,159.2,359.8z M175.1,357.7c-0.2,0.3-8.6,1.3-9.2,1
				c-0.6-0.3-3.7-3.6-3.7-3.6s11.6,0.2,12.3,0.6C175.3,356,175.4,357.4,175.1,357.7z M184.4,353.2c-0.4,1.2-8.2,0.4-9.1,0.1
				c0,0,1.6-1.6,2.7-1.6S184.8,352,184.4,353.2z"/>
		</g>
		<g>
			<path class="st3" d="M189.8,351.9c-5.6-0.8-7.4-1.2-6.6-1.5c0.8-0.2,3.5-1.2,5.4-1.9c1.9-0.6,3.5-2.1,1.5-2.8
				c-2-0.6-7.6-2.4-6.6-2.6c1-0.2,4-1.3,4.5-1.9c0.5-0.6,0.2-2.8-2.1-1.8s-9.1,2.7-11.9,2.1c-2.8-0.6-14.1-3.5-17.1-3.5
				s-14.9,1-19.4,2c-5.4,1.2-7.8,3.2-10.5,5.1c-2.1,1.5-2.6,2.1-7.3,1.5c0,0-7.9-0.9-15.6-4.4c-8.7-4-15.1-13.1-17.9-14.1
				c-1.6,3.1-1,3.9-1,3.9s5.8,8.1,15.8,13.1c9.7,4.9,23.4,5.3,26.2,6.9c4.4,2.5,16.4,9.8,22.2,10.1s19-1.2,23.4-1.6
				s10.2,1.2,11.6,1.9c1.4,0.6,4-1.4,0.2-2.8c-3.8-1.4-7.5-2-6-2.2s8.4-1.6,9.8-1.9C189.7,355.4,195.5,352.7,189.8,351.9z
				 M185.5,346.5c1.2,1.4-4.5,2.8-5.9,3.2s-3.6-1.1-4.2-1.2c0,0,3.2-1.9,4.6-2.7S184.3,345.2,185.5,346.5z M164.2,342.1
				c0.9,0.4,7.6,2.1,11.3,2c3.7-0.1-0.2,2-1.9,3.1s-3.2,0.1-4.7-0.1c-1.4-0.2-5.4,0.1-6.2-0.1C162.8,347.1,163.3,341.7,164.2,342.1z
				 M172,352.5c-0.9,0.8-7.4,0.4-8.4,0.2c-0.9-0.1-3.6-3.3-3.3-3.4c1.6-0.7,10.1-0.1,11.8,0.6C173.9,350.6,172.9,351.7,172,352.5z
				 M160.8,341.5c2.1,0.4-0.8,6-1.5,6.7c-0.8,0.7-2.4-0.5-3.9-0.9s-4,0.2-3.8-1.2C152.1,341.2,158.7,341,160.8,341.5z M158.4,353.1
				c-1.1-0.7-6.9-1.7-8.4-1.9c-1.5-0.2-1-1.5,0.3-2c1.3-0.5,4.8-0.6,5.8,0.2S158.4,353.1,158.4,353.1z M140.6,342.4
				c1.8-2.2,11.9-1.4,11.9-1.4s-1.6,1.4-3.4,2.6c-1.8,1.2-3.7,1.1-4.9,1.1s-2.8-1.5-3.6-2.1V342.4z M146.8,346.5
				c1.9,0.1,0.6,2.6,0.1,3.5c-0.5,0.9-2.6,0.8-3.8,0.6c-1.2-0.2-4-0.4-3.6-1.3C140.8,346.4,145,346.4,146.8,346.5z M129.5,347.7
				c2.6-3.5,8.5-4.1,10.1-2.6c1.6,1.5-3.9,2.2-5,2.4C133.5,347.7,128.8,348.6,129.5,347.7z M135.3,353.6c-0.5,0.4-6.9-3.7-6.9-3.7
				l-0.1-0.2c0,0,6.2-0.2,8.1,0C138.3,349.9,135.8,353.2,135.3,353.6z M142.6,357.5c-0.8-0.4-3.9-2.1-4.4-2.6c0,0,2.2-3.1,3.6-3.2
				c1.4-0.2,4.9,0.5,5.9,4.9S143.4,358,142.6,357.5z M159.2,359.8c-1.4,0.2-5.1,0-6.4,0.1c-1.3,0.1-1.8-1-2.6-2.2
				c-0.8-1.2-2-2.9-0.9-3.4c6.8-2.9,13.6,4.8,13.6,4.8S160.6,359.6,159.2,359.8z M175.1,357.7c-0.2,0.3-8.6,1.3-9.2,1
				c-0.6-0.3-3.7-3.6-3.7-3.6s11.6,0.2,12.3,0.6C175.3,356,175.4,357.4,175.1,357.7z M184.4,353.2c-0.4,1.2-8.2,0.4-9.1,0.1
				c0,0,1.6-1.6,2.7-1.6S184.8,352,184.4,353.2z"/>
		</g>
	</g>
	<path class="st4" d="M129.2,344.6c0.7,0.1-9.7-0.3-20.5-5.8C98,333.3,86.9,320.6,86,320.1c1.8-1.6,2.9-3.5,2.9-3.5
		s10.8,12.8,21.9,18.6c11.4,5.9,22.9,6.8,23.1,6.3"/>
	<g>
		<g>
			<path class="st2" d="M97.4,59.6c0,0,2.8-1.7,3.6-2.4c-1-0.6-4.5-2.5-7.8-0.4c-3.4,2.2-3.6,3.5-5.1,5.7c-1.5,2.2-6.8,8.4-8.2,10.1
				c-1.4,1.7-2.3,4.1-9.7,5.9c-7.5,1.8-13.2,6.6-14.3,10.5c-1.1,3.9-2.4,9.4-0.1,14.1c2.3,4.7,6.5,5.4,7.8,6.2
				c1.3,0.8,3.6,1.3,2.3,6.5c-1.4,5.3-2.6,12.7-3,14.6l5.4,1.5c0,0-1.5-5.2-0.6-8.5c0.9-3.3,2.8-11.3,6.1-11.9
				c3.3-0.6,14.7-5,13.5-15.9c-1.3-10.9-6.6-16.9-4.2-20.4c2.5-3.5,7.4-8.5,7.8-8.9c0.5-0.5,1.8-0.3,5.3-1.2s4-2.8,4.4-3.8
				s1.1-3.3,1.1-3.3L97.4,59.6z M77,82c-0.1,1.3-0.9,6.6-1.3,7.2c-0.4,0.5-5.7,0-5.4-0.8c0.4-0.8,6.5-6.3,6.5-6.3L77,82z M66.8,82.1
				c0.8-0.1,8.8-1.7,8.8-1.7c-0.7,0.5-6.8,6-7.3,5.6C67.9,85.6,66,82.2,66.8,82.1z M67.5,90.5c1.1,0,6.5,1.5,6.5,1.5
				c0.5,0.3,2.7,4.2-0.3,4c-3-0.2-9.4-1.6-9-2.3C65.1,93.1,66.5,90.5,67.5,90.5z M58.2,89.7c1.5-2.1,6.2-6.5,6.2-6.5l0.2-0.2
				c0.1,0.8,1.6,4.2,1.7,4.6c0.1,0.5-8.2,10.4-8.6,9.4C57.2,96.1,56.7,91.8,58.2,89.7z M61.1,104.5c-0.9-0.3-3.7-1.7-3.5-2.8
				c0.3-1.1,0.8-3.4,1.9-3.7c1.1-0.4,5.2,0,4.8,3.5C64.3,102.2,62,104.8,61.1,104.5z M66.6,107.9c-0.6,0-4.1-0.8-3.6-1.4
				c0.5-0.5,4.8-4.5,4.8-4.5C67.8,102.5,67.3,107.9,66.6,107.9z M66.3,100.3c0,0-4-4.5-3.3-4.6c0.7-0.1,5.2,2,5.1,2.5
				C68,98.5,66.8,100,66.3,100.3z M69.1,108.7l1.5-10.2c0,0,1.5-0.1,3.5,0.2C75.3,104.6,69.1,108.7,69.1,108.7z M73.9,109.4
				c0.3-1.1,2.6-10.5,2.6-10.5l0.1-0.3c0.4,0.1,4.6,6,4.4,7.1C80.7,106.7,73.6,110.5,73.9,109.4z M82.6,103.7
				c-0.5,0.5-0.5-1.5-0.6-1.9c-0.2-0.5-1.9-4.1-2.4-4.3c0,0,3.5-0.8,5.2-0.9C85.9,98.8,83.2,103.3,82.6,103.7z M83.9,91.5
				c0.5,0.9,1.5,2.4-0.2,2.6c-1.7,0.3-6.5,2.5-6.5,1.2c0-1.3,0.5-3.5,0.5-3.5l0.2-0.2C78.5,91.5,83.5,90.5,83.9,91.5z M82.5,89.1
				c-0.8,0.5-3.2,1.5-3.7,0.5c-0.5-1,1.2-7.2,1.2-7.2C80.6,83.5,83.4,88.5,82.5,89.1z"/>
		</g>
		<g>
			<path class="st3" d="M97.4,59.6c0,0,2.8-1.7,3.6-2.4c-1-0.6-4.5-2.5-7.8-0.4c-3.4,2.2-3.6,3.5-5.1,5.7c-1.5,2.2-6.8,8.4-8.2,10.1
				c-1.4,1.7-2.3,4.1-9.7,5.9c-7.5,1.8-13.2,6.6-14.3,10.5c-1.1,3.9-2.4,9.4-0.1,14.1c2.3,4.7,6.5,5.4,7.8,6.2
				c1.3,0.8,3.6,1.3,2.3,6.5c-1.4,5.3-2.6,12.7-3,14.6l5.4,1.5c0,0-1.5-5.2-0.6-8.5c0.9-3.3,2.8-11.3,6.1-11.9
				c3.3-0.6,14.7-5,13.5-15.9c-1.3-10.9-6.6-16.9-4.2-20.4c2.5-3.5,7.4-8.5,7.8-8.9c0.5-0.5,1.8-0.3,5.3-1.2s4-2.8,4.4-3.8
				s1.1-3.3,1.1-3.3L97.4,59.6z M77,82c-0.1,1.3-0.9,6.6-1.3,7.2c-0.4,0.5-5.7,0-5.4-0.8c0.4-0.8,6.5-6.3,6.5-6.3L77,82z M66.8,82.1
				c0.8-0.1,8.8-1.7,8.8-1.7c-0.7,0.5-6.8,6-7.3,5.6C67.9,85.6,66,82.2,66.8,82.1z M67.5,90.5c1.1,0,6.5,1.5,6.5,1.5
				c0.5,0.3,2.7,4.2-0.3,4c-3-0.2-9.4-1.6-9-2.3C65.1,93.1,66.5,90.5,67.5,90.5z M58.2,89.7c1.5-2.1,6.2-6.5,6.2-6.5l0.2-0.2
				c0.1,0.8,1.6,4.2,1.7,4.6c0.1,0.5-8.2,10.4-8.6,9.4C57.2,96.1,56.7,91.8,58.2,89.7z M61.1,104.5c-0.9-0.3-3.7-1.7-3.5-2.8
				c0.3-1.1,0.8-3.4,1.9-3.7c1.1-0.4,5.2,0,4.8,3.5C64.3,102.2,62,104.8,61.1,104.5z M66.6,107.9c-0.6,0-4.1-0.8-3.6-1.4
				c0.5-0.5,4.8-4.5,4.8-4.5C67.8,102.5,67.3,107.9,66.6,107.9z M66.3,100.3c0,0-4-4.5-3.3-4.6c0.7-0.1,5.2,2,5.1,2.5
				C68,98.5,66.8,100,66.3,100.3z M69.1,108.7l1.5-10.2c0,0,1.5-0.1,3.5,0.2C75.3,104.6,69.1,108.7,69.1,108.7z M73.9,109.4
				c0.3-1.1,2.6-10.5,2.6-10.5l0.1-0.3c0.4,0.1,4.6,6,4.4,7.1C80.7,106.7,73.6,110.5,73.9,109.4z M82.6,103.7
				c-0.5,0.5-0.5-1.5-0.6-1.9c-0.2-0.5-1.9-4.1-2.4-4.3c0,0,3.5-0.8,5.2-0.9C85.9,98.8,83.2,103.3,82.6,103.7z M83.9,91.5
				c0.5,0.9,1.5,2.4-0.2,2.6c-1.7,0.3-6.5,2.5-6.5,1.2c0-1.3,0.5-3.5,0.5-3.5l0.2-0.2C78.5,91.5,83.5,90.5,83.9,91.5z M82.5,89.1
				c-0.8,0.5-3.2,1.5-3.7,0.5c-0.5-1,1.2-7.2,1.2-7.2C80.6,83.5,83.4,88.5,82.5,89.1z"/>
		</g>
	</g>
	<g>
		<g>
			<g>
				<path class="st2" d="M89.2,332.2c0,0-0.8-2.3-1.1-3.3c-0.4-1-1-2.9-4.4-3.7c-3.5-0.9-3.8-2-4.3-2.5c-0.5-0.4-4.5-5-7-8.4
					c-2.5-3.4,2.8-9.5,3.9-20.4c1.1-10.9-10.4-15.1-13.7-15.7c-3.3-0.6-7.8-8.4-9.3-13.6c-0.9-3.3-6.4-24.2-6.4-24.2l-3.2,0.5
					c0.4,2.1,5.4,25.7,8.9,32.4c2.5,4.8,0.8,5.7-0.5,6.5c-1.3,0.8-5,2.4-7.2,7.2c-2.2,4.8-0.8,10.2,0.3,14.1
					c1.2,3.9,7,8.6,14.4,10.3c7.5,1.7,8.4,4.1,9.8,5.8c1.4,1.7,6.9,7.8,8.3,10c1.5,2.2,0.8,4.7,4.2,6.8c3.4,2.1,5.8,0,6.8-0.6
					c-0.8-0.6-3.7-2.3-3.7-2.3L89.2,332.2z M71.6,286.1c0.6,0.4,3.3,4.9,2.3,7.1c-1.7-0.1-5.2-0.8-5.2-0.8c0.5-0.2,2.1-3.9,2.3-4.3
					C71.2,287.5,71,285.6,71.6,286.1z M69.9,284.2c0.3,1.1-3.9,7.1-4.3,7.2l-0.1-0.3c0,0-2.5-9.4-2.8-10.5
					C62.5,279.5,69.6,283.1,69.9,284.2z M63,291.2c-2,0.3-3.5,0.2-3.5,0.2L58,281.3C58,281.3,64.2,285.3,63,291.2z M55.5,282.2
					c0.6,0,1.3,5.4,1.3,5.9c0,0-4.4-3.9-4.9-4.5C51.5,283,54.9,282.2,55.5,282.2z M57.1,291.9c0.1,0.5-4.3,2.6-5.1,2.5
					c-0.7-0.1,3.2-4.7,3.2-4.7C55.8,290.1,57,291.5,57.1,291.9z M50,285.6c0.9-0.3,3.2,2.3,3.3,2.9c0.4,3.5-3.7,4-4.8,3.6
					c-1.1-0.3-1.7-2.6-2-3.7C46.3,287.4,49.1,285.9,50,285.6z M53.8,307l-0.2-0.2c0,0-4.8-4.3-6.3-6.4c-1.5-2.1-1.1-6.3-0.7-7.4
					c0.4-1,8.9,8.8,8.8,9.2C55.4,302.8,53.9,306.2,53.8,307z M53.8,296.4c-0.4-0.6,6-2.2,9-2.4c3-0.2,0.9,3.7,0.3,4
					c0,0-5.3,1.6-6.4,1.6C55.6,299.6,54.2,297,53.8,296.4z M56.1,308c-0.8-0.1,1-3.6,1.5-3.9c0.4-0.4,6.6,5,7.4,5.5
					C65,309.6,56.9,308,56.1,308z M66.1,307.8c0,0-6.2-5.4-6.6-6.2c-0.4-0.8,5-1.4,5.4-0.9c0.4,0.5,1.3,5.9,1.4,7.2L66.1,307.8z
					 M67,298.3l-0.2-0.2c0,0-0.5-2.3-0.5-3.5c0-1.3,4.8,0.8,6.6,1.1c1.7,0.2,0.7,1.7,0.2,2.6C72.6,299.3,67.7,298.3,67,298.3z
					 M69.3,307.5c0,0-1.8-6.2-1.3-7.2c0.5-1,2.9-0.1,3.7,0.4C72.6,301.3,69.9,306.4,69.3,307.5z"/>
			</g>
			<g>
				<path class="st3" d="M89.2,332.2c0,0-0.8-2.3-1.1-3.3c-0.4-1-1-2.9-4.4-3.7c-3.5-0.9-3.8-2-4.3-2.5c-0.5-0.4-4.5-5-7-8.4
					c-2.5-3.4,2.8-9.5,3.9-20.4c1.1-10.9-10.4-15.1-13.7-15.7c-3.3-0.6-7.8-8.4-9.3-13.6c-0.9-3.3-6.4-24.2-6.4-24.2l-3.2,0.5
					c0.4,2.1,5.4,25.7,8.9,32.4c2.5,4.8,0.8,5.7-0.5,6.5c-1.3,0.8-5,2.4-7.2,7.2c-2.2,4.8-0.8,10.2,0.3,14.1
					c1.2,3.9,7,8.6,14.4,10.3c7.5,1.7,8.4,4.1,9.8,5.8c1.4,1.7,6.9,7.8,8.3,10c1.5,2.2,0.8,4.7,4.2,6.8c3.4,2.1,5.8,0,6.8-0.6
					c-0.8-0.6-3.7-2.3-3.7-2.3L89.2,332.2z M71.6,286.1c0.6,0.4,3.3,4.9,2.3,7.1c-1.7-0.1-5.2-0.8-5.2-0.8c0.5-0.2,2.1-3.9,2.3-4.3
					C71.2,287.5,71,285.6,71.6,286.1z M69.9,284.2c0.3,1.1-3.9,7.1-4.3,7.2l-0.1-0.3c0,0-2.5-9.4-2.8-10.5
					C62.5,279.5,69.6,283.1,69.9,284.2z M63,291.2c-2,0.3-3.5,0.2-3.5,0.2L58,281.3C58,281.3,64.2,285.3,63,291.2z M55.5,282.2
					c0.6,0,1.3,5.4,1.3,5.9c0,0-4.4-3.9-4.9-4.5C51.5,283,54.9,282.2,55.5,282.2z M57.1,291.9c0.1,0.5-4.3,2.6-5.1,2.5
					c-0.7-0.1,3.2-4.7,3.2-4.7C55.8,290.1,57,291.5,57.1,291.9z M50,285.6c0.9-0.3,3.2,2.3,3.3,2.9c0.4,3.5-3.7,4-4.8,3.6
					c-1.1-0.3-1.7-2.6-2-3.7C46.3,287.4,49.1,285.9,50,285.6z M53.8,307l-0.2-0.2c0,0-4.8-4.3-6.3-6.4c-1.5-2.1-1.1-6.3-0.7-7.4
					c0.4-1,8.9,8.8,8.8,9.2C55.4,302.8,53.9,306.2,53.8,307z M53.8,296.4c-0.4-0.6,6-2.2,9-2.4c3-0.2,0.9,3.7,0.3,4
					c0,0-5.3,1.6-6.4,1.6C55.6,299.6,54.2,297,53.8,296.4z M56.1,308c-0.8-0.1,1-3.6,1.5-3.9c0.4-0.4,6.6,5,7.4,5.5
					C65,309.6,56.9,308,56.1,308z M66.1,307.8c0,0-6.2-5.4-6.6-6.2c-0.4-0.8,5-1.4,5.4-0.9c0.4,0.5,1.3,5.9,1.4,7.2L66.1,307.8z
					 M67,298.3l-0.2-0.2c0,0-0.5-2.3-0.5-3.5c0-1.3,4.8,0.8,6.6,1.1c1.7,0.2,0.7,1.7,0.2,2.6C72.6,299.3,67.7,298.3,67,298.3z
					 M69.3,307.5c0,0-1.8-6.2-1.3-7.2c0.5-1,2.9-0.1,3.7,0.4C72.6,301.3,69.9,306.4,69.3,307.5z"/>
			</g>
		</g>
		<g>
			<g>
				<path class="st2" d="M74.2,302c2.5,3.4,7.5,9.1,7.9,9.6c0.5,0.4,0.8,1.6,4.3,2.5c3.5,0.9,4,2.8,4.4,3.7c0.4,1,1.1,3.3,1.1,3.3
					l-4.2-1.3c0,0,2.8,1.7,3.7,2.3c-1,0.7-3.4,2.8-6.8,0.6c-3.4-2.1-2.7-4.6-4.2-6.8c-1.5-2.2-6.3-7.4-7.7-9.1"/>
			</g>
			<g>
				<path class="st3" d="M74.2,302c2.5,3.4,7.5,9.1,7.9,9.6c0.5,0.4,0.8,1.6,4.3,2.5c3.5,0.9,4,2.8,4.4,3.7c0.4,1,1.1,3.3,1.1,3.3
					l-4.2-1.3c0,0,2.8,1.7,3.7,2.3c-1,0.7-3.4,2.8-6.8,0.6c-3.4-2.1-2.7-4.6-4.2-6.8c-1.5-2.2-6.3-7.4-7.7-9.1"/>
			</g>
		</g>
	</g>
	<path class="st4" d="M45.1,215c0,0-1.5,18.8-1.8,19.4c-0.2,0.7-3.2,7.7,1.5,9.8c0.3-2,0.5-4.9,0.5-4.9l0.3,5.2c0,0,2.7-1.4,3.1-3.4
		s-0.1-4.7-2.1-6.5c-2.5-2.3,1.3-19.2,1.3-19.2"/>
	<path class="st4" d="M51.4,191.1c0,0-5.1,18.1-5.5,18.7c-0.4,0.6-4.6,6.9-0.4,9.9c0.7-1.9,1.4-4.7,1.4-4.7l-0.7,5.1
		c0,0,2.9-0.9,3.7-2.8c0.8-1.9,0.8-4.6-0.8-6.8c-2-2.7,5-18.5,5-18.5"/>
	<path class="st4" d="M52.2,195.7c0,0,6.4-0.8,6.5-3.6c0.1-2.8-0.2-6.2,0.6-8.2c0.8-2,4.2-9.4,9.5-10.3c5.2-0.9,10,4,14,9.1
		c4.5,5.8,1.9-4.2,1.9-4.2s-3.8-4.8-7.8-7.5c-2.4-1.7-8.6-3.8-10.1-15.3s-0.7-15.2,1.8-19.8c2.4-4.5-1.8-11.1-1.8-10.7
		c-0.3,1.8-1.1,4.1-1.1,4.1l0.2-4.3c0,0-4.6,2.3-4.3,5.5c0,0-0.6,3.7,0,6.3c0.6,2.7,0.7,5,0.6,8.3c-0.2,3.3,1.8,19.6,4.8,24.3
		c-2.9,2.2-6.8,5.7-7.8,7.4c-1,1.7-2.2,5.3-2.8,7.2c-0.5,1.9-2,2.6-3.4,3.4c-1.4,0.8-3.4,2-1.8,7.8c1.6-1.8,2.7-3.9,2.7-3.9
		S53.5,192,52.2,195.7z"/>
	<path class="st4" d="M91.8,194.7c0,0,0-0.1-0.1-0.2c-0.7-1.1-4.1-6.7-5.5-7.6c-1.5-1-3.2,0.2-4.4-3.2c0,0-0.4-2.9-0.4-4.3
		c0.8,0.9,2.4,2.3,2.4,2.3l-1.8-3.3c0,0,2-0.5,3.7,0.2c1.7,0.8,1.2,3.3,1.7,4.2c0.4,0.8,6.4,7.5,6.4,7.5"/>
</g>
<g id="Syst._kappilærer">
	<g>
		<g>
			
				<linearGradient id="SVGID_2_" gradientUnits="userSpaceOnUse" x1="89.5" y1="271.6231" x2="192.667" y2="271.6231" gradientTransform="matrix(1 0 0 1 24 27)">
				<stop  offset="0" style="stop-color:#A70A2D"/>
				<stop  offset="0.203" style="stop-color:#BE0B27"/>
				<stop  offset="0.4214" style="stop-color:#D2091E"/>
				<stop  offset="0.6086" style="stop-color:#DF0717"/>
				<stop  offset="0.7416" style="stop-color:#E30613"/>
			</linearGradient>
			<path class="st5" d="M205.5,294.8c-10.2-0.5-8.2-5.2-9.3-14.3c-1.2-9.2-10.3-7.8-12.7-7.8s-37,0.2-47.3,0
				c-10.3-0.2-12.2,7.7-12.5,13.2c-0.3,5.5-0.8,9.5-3.8,9.5s-6.2,0.2-6.2,0.2l-0.2,10.8c0,0,2.7,0.2,4.7,0.2c2.2,0,6.2-0.5,6.3,8
				c0.2,11.2,9.5,10,12.8,10c3.3,0,39.2,0.3,49.2,0c10-0.3,11.7-8,12.2-14s4.7-4.8,6.8-4.8s11.2-0.2,11.2-0.2v-10.7
				C216.7,294.8,215.7,295.3,205.5,294.8z M160.8,318.4c-16.7,0-30.3,1-30.2-3.3c0.1-3.2,13.5-3.3,30.2-3.3
				c16.7,0,30.2-0.7,30.2,3.3C191,318.1,177.5,318.4,160.8,318.4z M160.8,307.4c-16.7,0-30.3,1-30.2-3.3c0.1-3.2,13.5-3.3,30.2-3.3
				c16.7,0,30.2-0.7,30.2,3.3C191,307.1,177.5,307.4,160.8,307.4z M160.8,296.5c-16.7,0-30.3,1-30.2-3.3c0.1-3.2,13.5-3.3,30.2-3.3
				c16.7,0,30.2-0.7,30.2,3.3C191,296.1,177.5,296.5,160.8,296.5z M160.8,285.5c-16.7,0-30.3,1-30.2-3.3c0.1-3.2,13.5-3.3,30.2-3.3
				c16.7,0,30.2-0.7,30.2,3.3C191,285.2,177.5,285.5,160.8,285.5z"/>
		</g>
		<g>
			<path class="st6" d="M205.5,294.8c-10.2-0.5-8.2-5.2-9.3-14.3c-1.2-9.2-10.3-7.8-12.7-7.8s-37,0.2-47.3,0
				c-10.3-0.2-12.2,7.7-12.5,13.2c-0.3,5.5-0.8,9.5-3.8,9.5s-6.2,0.2-6.2,0.2l-0.2,10.8c0,0,2.7,0.2,4.7,0.2c2.2,0,6.2-0.5,6.3,8
				c0.2,11.2,9.5,10,12.8,10c3.3,0,39.2,0.3,49.2,0c10-0.3,11.7-8,12.2-14s4.7-4.8,6.8-4.8s11.2-0.2,11.2-0.2v-10.7
				C216.7,294.8,215.7,295.3,205.5,294.8z M160.8,318.4c-16.7,0-30.3,1-30.2-3.3c0.1-3.2,13.5-3.3,30.2-3.3
				c16.7,0,30.2-0.7,30.2,3.3C191,318.1,177.5,318.4,160.8,318.4z M160.8,307.4c-16.7,0-30.3,1-30.2-3.3c0.1-3.2,13.5-3.3,30.2-3.3
				c16.7,0,30.2-0.7,30.2,3.3C191,307.1,177.5,307.4,160.8,307.4z M160.8,296.5c-16.7,0-30.3,1-30.2-3.3c0.1-3.2,13.5-3.3,30.2-3.3
				c16.7,0,30.2-0.7,30.2,3.3C191,296.1,177.5,296.5,160.8,296.5z M160.8,285.5c-16.7,0-30.3,1-30.2-3.3c0.1-3.2,13.5-3.3,30.2-3.3
				c16.7,0,30.2-0.7,30.2,3.3C191,285.2,177.5,285.5,160.8,285.5z"/>
		</g>
	</g>
</g>
<g id="Pulm._kappilærer">
	<g>
		<g>
			
				<linearGradient id="SVGID_3_" gradientUnits="userSpaceOnUse" x1="101.5" y1="63.2823" x2="172.626" y2="63.2823" gradientTransform="matrix(1 0 0 1 24 27)">
				<stop  offset="0" style="stop-color:#A70A2D"/>
				<stop  offset="1" style="stop-color:#E30613"/>
			</linearGradient>
			<path class="st7" d="M190.6,84.5c0,0-8.1-12-29.5-12H161c-21.4,0-29.5,12-29.5,12h-6v10.8c0,0,3.5,0,6,0
				C141.2,109.7,161,108,161,108h0.1c0,0,19.8,1.8,29.5-12.8c2.5,0,6,0,6,0V84.5H190.6z M163.1,84l0.2-0.1c1.9-1.6,4.4,3.7,2.5,4.9
				C163.9,90.1,161.6,84.9,163.1,84z M151.8,81.6l0.2-0.5c1.4-0.9,0.7-2.8,2.8-3.6c1.7-0.7,4.3-0.7,6.1-0.5c2.7,0.3,1.8,2.8,0,3.9
				c-1.8,1.1-3.8,1.3-5.9,1.3c-1.1,0-2.7,0.3-3.5-0.4C151.6,81.8,151.7,81.7,151.8,81.6z M150.5,84.2c2-0.1,3.8,0.7,6,0.5
				c1.9-0.2,4.3-0.5,3.4,2.5c-0.4,1.2-2,3.7-3.2,4.3c-2.7,1.3-6.2-2.8-8.7-3.3l0,0C147.7,86.7,148.9,84.3,150.5,84.2z M145.5,77.7
				c2.6-1.2,3.3,0.8,2.7,3c-0.5,1.6-1.4,3.4-3.1,3.9c-1.5,0.5-3.1-1.5-3.2-2.9l-0.2-0.3C143.1,80.2,143.7,78.6,145.5,77.7z
				 M136.5,83.5c1.4-0.9,3.6-0.8,4.2,0.9c0.9,2.2-1.3,2.2-2.7,2.2c-0.8,0-3.7,1.9-3.7,0.5l-0.1-0.1
				C134.6,85.8,135.4,84.2,136.5,83.5z M138.1,93.3c-0.4,1.8-1.7,0.9-2.8,0.1c-0.7-0.5-2.2-2-1.7-3l4-0.5
				C138.7,90.2,138.3,92.3,138.1,93.3z M141,89.8l0.1-0.3c0.6-0.9,2.7-2.1,3.7-1.5c1.6,0.9,0.3,2.7-0.4,3.7c-0.5,0.8-2,3.1-3.2,2.5
				C140.1,93.7,140.6,90.6,141,89.8z M148.5,98.9c-0.6,1.3-3.3,1.4-4.3,0.9c-0.9-0.4-3.8-1.6-3.1-2.4l0.6-0.3
				c1.4-0.1,2.6-0.9,4.1-0.5C146.8,96.9,149,97.8,148.5,98.9z M150.5,97.1c-1.6-0.2-2.8-1.6-4.1-2.3c0,0,0.1-0.1,0.1-0.1l-0.4-0.3
				c1.6-0.7,2.3-1.9,4.3-1.2c0.7,0.3,3.8,1.2,4.1,1.9C155,96.5,151.4,97.2,150.5,97.1z M156.3,104c-0.9-0.2-1.7-0.6-2.6-0.8
				l-2.8-0.8c0.8-1.2,1.3-3.2,2.8-4.3c1.5-1,3.3-2.1,4.7-0.5c0.8,0.9,2.8,3.8,2.7,4.9C161.1,104.5,157.6,104.3,156.3,104z
				 M159.1,94.3l0.2-1.1c0.3-1.7,1.2-2.4,3.1-1.8c1.5,0.5,2.8,1.9,3.2,3.5C166.6,99.7,158,96,159.1,94.3z M168.1,102.5
				c-1.4,0.6-3,0.5-4.6,0.5v0.1c0,0-0.3-0.1-0.1-0.1c0,0,0.1,0,0.1,0v-0.2c0-1.6,0.1-2.9,1.6-3.7c1-0.5,3.9-1,4.6,0
				C170.6,100.5,169.2,102,168.1,102.5z M170.5,95c-1.7,1.1-4-4-2.5-4.9V90C169.6,88.5,172.3,93.9,170.5,95z M170.4,85.3l0.1-0.1
				c1.4-0.6,3.4-1,4.6,0.4c0.9,1,2.2,3.9,1.4,5.2c-1.3,1.9-3.3,0.9-4.1-0.7C171.6,88.5,170.9,86.8,170.4,85.3z M178.1,98.1
				c-0.2,1.9-1.4,2.6-3,3.1c-4.5,1.5-2.3-6.6,0.4-6.7h0.4C178.2,93.8,178.3,96.5,178.1,98.1z M176.2,82.3c-3.4-1.1-6.9-1.2-10.6-1.3
				l0.1,0.1c-0.2,0-0.3-0.1-0.5-0.1c0.1,0,0.2,0,0.3,0l-0.1-0.1c0.1-1,2.5-2.6,3.6-3c1.6-0.6,3.9,0,5.5,0.5c1.4,0.5,3.6,1.4,4.7,2.6
				c0.5,0.6,0.9,1.8-0.1,2.2C178.5,83.4,176.8,82.4,176.2,82.3z M182.7,97c-0.7,0.4-1.8,1.2-2.4,0.3c-0.4-0.5-0.1-2.5,0.2-2.9
				l2.7-1.1c1-0.1,2.1,0,3.1,0C187.1,94.9,183.6,96.5,182.7,97z M186.4,89.9c-1,0.1-2-0.3-3-0.3c-0.9-0.1-2.1,0-2.8,0l-0.2-0.1
				c-0.9-0.9-2.1-2.6-0.6-3.4c1.5-0.8,3.7,0.6,5,1.2C185.8,87.7,189.1,89.5,186.4,89.9z"/>
		</g>
		<g>
			<path class="st6" d="M190.6,84.5c0,0-8.1-12-29.5-12H161c-21.4,0-29.5,12-29.5,12h-6v10.8c0,0,3.5,0,6,0
				C141.2,109.7,161,108,161,108h0.1c0,0,19.8,1.8,29.5-12.8c2.5,0,6,0,6,0V84.5H190.6z M163.1,84l0.2-0.1c1.9-1.6,4.4,3.7,2.5,4.9
				C163.9,90.1,161.6,84.9,163.1,84z M151.8,81.6l0.2-0.5c1.4-0.9,0.7-2.8,2.8-3.6c1.7-0.7,4.3-0.7,6.1-0.5c2.7,0.3,1.8,2.8,0,3.9
				c-1.8,1.1-3.8,1.3-5.9,1.3c-1.1,0-2.7,0.3-3.5-0.4C151.6,81.8,151.7,81.7,151.8,81.6z M150.5,84.2c2-0.1,3.8,0.7,6,0.5
				c1.9-0.2,4.3-0.5,3.4,2.5c-0.4,1.2-2,3.7-3.2,4.3c-2.7,1.3-6.2-2.8-8.7-3.3l0,0C147.7,86.7,148.9,84.3,150.5,84.2z M145.5,77.7
				c2.6-1.2,3.3,0.8,2.7,3c-0.5,1.6-1.4,3.4-3.1,3.9c-1.5,0.5-3.1-1.5-3.2-2.9l-0.2-0.3C143.1,80.2,143.7,78.6,145.5,77.7z
				 M136.5,83.5c1.4-0.9,3.6-0.8,4.2,0.9c0.9,2.2-1.3,2.2-2.7,2.2c-0.8,0-3.7,1.9-3.7,0.5l-0.1-0.1
				C134.6,85.8,135.4,84.2,136.5,83.5z M138.1,93.3c-0.4,1.8-1.7,0.9-2.8,0.1c-0.7-0.5-2.2-2-1.7-3l4-0.5
				C138.7,90.2,138.3,92.3,138.1,93.3z M141,89.8l0.1-0.3c0.6-0.9,2.7-2.1,3.7-1.5c1.6,0.9,0.3,2.7-0.4,3.7c-0.5,0.8-2,3.1-3.2,2.5
				C140.1,93.7,140.6,90.6,141,89.8z M148.5,98.9c-0.6,1.3-3.3,1.4-4.3,0.9c-0.9-0.4-3.8-1.6-3.1-2.4l0.6-0.3
				c1.4-0.1,2.6-0.9,4.1-0.5C146.8,96.9,149,97.8,148.5,98.9z M150.5,97.1c-1.6-0.2-2.8-1.6-4.1-2.3c0,0,0.1-0.1,0.1-0.1l-0.4-0.3
				c1.6-0.7,2.3-1.9,4.3-1.2c0.7,0.3,3.8,1.2,4.1,1.9C155,96.5,151.4,97.2,150.5,97.1z M156.3,104c-0.9-0.2-1.7-0.6-2.6-0.8
				l-2.8-0.8c0.8-1.2,1.3-3.2,2.8-4.3c1.5-1,3.3-2.1,4.7-0.5c0.8,0.9,2.8,3.8,2.7,4.9C161.1,104.5,157.6,104.3,156.3,104z
				 M159.1,94.3l0.2-1.1c0.3-1.7,1.2-2.4,3.1-1.8c1.5,0.5,2.8,1.9,3.2,3.5C166.6,99.7,158,96,159.1,94.3z M168.1,102.5
				c-1.4,0.6-3,0.5-4.6,0.5v0.1c0,0-0.3-0.1-0.1-0.1c0,0,0.1,0,0.1,0v-0.2c0-1.6,0.1-2.9,1.6-3.7c1-0.5,3.9-1,4.6,0
				C170.6,100.5,169.2,102,168.1,102.5z M170.5,95c-1.7,1.1-4-4-2.5-4.9V90C169.6,88.5,172.3,93.9,170.5,95z M170.4,85.3l0.1-0.1
				c1.4-0.6,3.4-1,4.6,0.4c0.9,1,2.2,3.9,1.4,5.2c-1.3,1.9-3.3,0.9-4.1-0.7C171.6,88.5,170.9,86.8,170.4,85.3z M178.1,98.1
				c-0.2,1.9-1.4,2.6-3,3.1c-4.5,1.5-2.3-6.6,0.4-6.7h0.4C178.2,93.8,178.3,96.5,178.1,98.1z M176.2,82.3c-3.4-1.1-6.9-1.2-10.6-1.3
				l0.1,0.1c-0.2,0-0.3-0.1-0.5-0.1c0.1,0,0.2,0,0.3,0l-0.1-0.1c0.1-1,2.5-2.6,3.6-3c1.6-0.6,3.9,0,5.5,0.5c1.4,0.5,3.6,1.4,4.7,2.6
				c0.5,0.6,0.9,1.8-0.1,2.2C178.5,83.4,176.8,82.4,176.2,82.3z M182.7,97c-0.7,0.4-1.8,1.2-2.4,0.3c-0.4-0.5-0.1-2.5,0.2-2.9
				l2.7-1.1c1-0.1,2.1,0,3.1,0C187.1,94.9,183.6,96.5,182.7,97z M186.4,89.9c-1,0.1-2-0.3-3-0.3c-0.9-0.1-2.1,0-2.8,0l-0.2-0.1
				c-0.9-0.9-2.1-2.6-0.6-3.4c1.5-0.8,3.7,0.6,5,1.2C185.8,87.7,189.1,89.5,186.4,89.9z"/>
		</g>
	</g>
	<path class="st8" d="M126.9,84.5c0,0-9.1,0-13,2.1c-2.4,1.3-6.5,1.8-6.5,18.4v32.1c0,0-0.2,12.4,1.9,15.9s5.1,6.2,14.9,6.2
		s13.8,0,15.1,0s6.5-0.6,7.1,4.7c0,0,0,2.1,0,4.3c3.6,0,10,0.3,10,0.3s0.1-8.2,0.1-10.4c0-5.3-2.4-7.2-7.2-8.1s-12-0.9-16.2-0.9
		s-8.1,0-9.8,0s-6.4-1.1-6.4-9.1s0-32.9,0-35.2s0-9.5,5.9-9.5s4.2,0,4.2,0"/>
	<path class="st9" d="M196.4,84.5c0,0,9.1,0,13,2.1c2.4,1.3,6.5,1.8,6.5,18.4v32.1v44.2c0,0,1,13.5-14.3,14.3h-1.3l-1-9.8
		c0,0,7.4,1.5,7.4-7.4c0-8.9-0.1-38.4-0.1-38.4c0-8,0-32.9,0-35.2s0-9.5-5.9-9.5c-5.9,0-4.3,0-4.3,0"/>
</g>
<g id="Lag_6">
	<path class="st8" d="M115.3,295.4H107c0,0-5.4,1.2-6.4-6.8c-0.1-0.8-0.1-1.7-0.1-2.6c0-10.8,0.1-74.8,0.1-77.3s-0.3-5.8,5.7-5.8
		s17.2,0,17.2,0l-2.3-6.3h-18.7c0,0-2-4.8,7.7-4.8s13,0,13,0v-7.2c0,0-17.8,0-19.3,0s-13,1.5-13,11.5s0,85.7,0,88
		c0,2.3-0.7,13,3.3,17s6.3,5,12.8,5.2c6.5,0.2,7.3,0.2,7.3,0.2"/>
</g>
<g id="Lag_8">
	<path class="st9" d="M211.5,295c0,0,9.3-0.2,10.2-0.2c0.8,0,5-0.8,5-8.2c0,0,0-119,0-120.3c0-1.3,0.7-7.8-7.8-7.8
		c-9.5,0-35.2,0-36.7,0s-9.1-0.7-9.1,7c0,7.7,0.5,8.4,0.5,8.4l-10.5,0.1c0,0,0-7.5,0-8.5s-1-16.5,15.5-16.5s40.1,0,42,0
		s17.6-0.8,17.6,15.7c0,16.6,0,115.1,0,118.2c0,3.2,0.9,23.9-23.1,22.5"/>
</g>
<g id="Lag_3">
	<linearGradient id="SVGID_4_" gradientUnits="userSpaceOnUse" x1="138.9132" y1="165.4991" x2="138.9132" y2="252.333">
		<stop  offset="0" style="stop-color:#A70A2D"/>
		<stop  offset="3.320635e-03" style="stop-color:#A90A2D"/>
		<stop  offset="3.176067e-02" style="stop-color:#BB0B28"/>
		<stop  offset="6.401584e-02" style="stop-color:#CA0A22"/>
		<stop  offset="0.1021" style="stop-color:#D6091C"/>
		<stop  offset="0.1492" style="stop-color:#DE0718"/>
		<stop  offset="0.2153" style="stop-color:#E20614"/>
		<stop  offset="0.3989" style="stop-color:#E30613"/>
	</linearGradient>
	<path class="st10" d="M146.3,165.5c0,0-0.6,12.6-2.5,14.5c0,0-1.5,1.9-5-0.2c-8.7-5.2-31.8,4.7-14.7,28
		c-1.5,1.5-10.5,39.2,35.7,44.5c0-26.2,0-70.2,0-70.2s-3.7-0.8-3.5-8.2v-8.5"/>
	<path class="st9" d="M173.1,165.5c0,0,0.6,12.6,2.5,14.5c0,0,1.5,1.9,5-0.2c8.7-5.2,31.8,4.7,14.7,28c1.5,1.5,10.5,39.2-35.7,44.5
		c0-26.2,0-70.2,0-70.2s3.7-0.8,3.5-8.2v-8.5"/>
	<line class="st11" x1="159.6" y1="182.3" x2="159.6" y2="252"/>
</g>
<g id="Lag_5">
	<radialGradient id="SVGID_5_" cx="139.48" cy="208.4451" r="26.4563" gradientUnits="userSpaceOnUse">
		<stop  offset="0.1404" style="stop-color:#8B0D1B"/>
		<stop  offset="0.3103" style="stop-color:#8F0C1E"/>
		<stop  offset="0.5289" style="stop-color:#9B0C26"/>
		<stop  offset="0.691" style="stop-color:#A70A2D"/>
	</radialGradient>
	<path class="st12" d="M144.2,185.1c0,0,4.2-3.1,4.5-5.2s2.5-7,3.9-2.4s1.5,3.5,2.8,5.8s1.6,1.1,1.9,15.1s0.1,27.2-1.9,34.6
		s-5.4,7.9-6.9,8.2s-10.2-0.5-14.8-8.9s-8.3-18.1-5.2-22.2c2.1-2.9,4.5-2.9,5.9-3.4c1.2-0.4,6.1-1.9-0.5-1.9s-12-2.4-12.2-10.4
		s4.4-14.4,10.5-13.2s12.1,7,9.5,12c-2.1,4.1-3.5,5.1-3.4,8.2c0.1,3.3,1.1,3.1,1.8-1.1c0.5-3.1,2.3-3.7,3.1-6
		C144.6,190.4,144.2,185.1,144.2,185.1z"/>
	
		<radialGradient id="SVGID_6_" cx="154.5219" cy="208.4451" r="26.4565" gradientTransform="matrix(-1 0 0 1 335.6895 0)" gradientUnits="userSpaceOnUse">
		<stop  offset="0.1404" style="stop-color:#8B0D1B"/>
		<stop  offset="0.3103" style="stop-color:#8F0C1E"/>
		<stop  offset="0.5289" style="stop-color:#9B0C26"/>
		<stop  offset="0.691" style="stop-color:#A70A2D"/>
	</radialGradient>
	<path class="st13" d="M176.4,185.1c0,0-4.2-3.1-4.5-5.2c-0.2-2.1-2.5-7-3.9-2.4c-1.4,4.6-1.5,3.5-2.8,5.8
		c-1.2,2.2-1.6,1.1-1.9,15.1c-0.2,14-0.1,27.2,1.9,34.6c2,7.4,5.4,7.9,6.9,8.2s10.2-0.5,14.8-8.9s8.3-18.1,5.2-22.2
		c-2.1-2.9-4.5-2.9-5.9-3.4c-1.2-0.4-6.1-1.9,0.5-1.9c6.6,0,12-2.4,12.2-10.4c0.2-8-4.4-14.4-10.5-13.2c-6.1,1.1-12.1,7-9.5,12
		c2.1,4.1,3.5,5.1,3.4,8.2c-0.1,3.3-1.1,3.1-1.8-1.1c-0.5-3.1-2.3-3.7-3.1-6C176,190.4,176.4,185.1,176.4,185.1z"/>
</g>
<g id="pile">
	<g>
		<path d="M128.8,185.8c0.7,0.8,1.2,1.4,1.7,1.8c0.5,0.4,0.9,0.7,1.3,0.9l0,0.4c-0.5,0.3-0.9,0.6-1.4,1.1c-0.4,0.4-1,1.1-1.6,1.9
			l-0.6,0c0.4-1.1,0.9-2,1.4-2.6l-5.2,0.1l0-0.8l5.2-0.1c-0.4-0.5-0.6-0.9-0.8-1.2c-0.1-0.3-0.4-0.7-0.7-1.3L128.8,185.8z"/>
	</g>
	<g>
		<path d="M128.8,196c0.7,0.8,1.2,1.4,1.7,1.8c0.5,0.4,0.9,0.7,1.3,0.9l0,0.4c-0.5,0.3-0.9,0.6-1.4,1.1c-0.4,0.4-1,1.1-1.6,1.9
			l-0.6,0c0.4-1.1,0.9-2,1.4-2.6l-5.2,0.1l0-0.8l5.2-0.1c-0.4-0.5-0.6-0.9-0.8-1.2c-0.1-0.3-0.4-0.7-0.7-1.3L128.8,196z"/>
	</g>
	<g>
		<path class="st14" d="M192.5,194.6c-0.6-0.8-1.2-1.4-1.7-1.8c-0.5-0.4-0.9-0.7-1.3-0.9l0-0.4c0.5-0.3,0.9-0.6,1.4-1.1
			c0.4-0.4,1-1,1.6-1.9l0.6,0c-0.5,1.1-0.9,2-1.4,2.6l5.2-0.1l0,0.8l-5.2,0.1c0.4,0.5,0.6,0.9,0.8,1.2c0.1,0.3,0.4,0.7,0.7,1.3
			L192.5,194.6z"/>
	</g>
	<g>
		<g>
			<path d="M150.4,189.3c-0.6,0.5-1,0.8-1.3,0.9c-0.3,0.2-0.8,0.4-1.5,0.8l0-0.7c0.9-0.8,1.6-1.5,2-2.1c0.5-0.6,0.8-1.1,1-1.7l0.4,0
				c0.3,0.6,0.7,1.2,1.1,1.8c0.4,0.6,1.1,1.3,2,2l0,0.7c-1.2-0.6-2.1-1.2-2.8-1.8"/>
		</g>
		<path class="st15" d="M150.8,189c0,0-0.8,28.9-1,31.9c-0.4,5.9-5.8,7.1-5.9-0.5c-0.1-7.3,2.2-10.8-4.8-14.9"/>
	</g>
	<g>
		<g>
			<path class="st14" d="M170.3,189.3c0.6,0.5,1,0.8,1.3,0.9c0.3,0.2,0.8,0.4,1.5,0.8l0-0.7c-0.9-0.8-1.6-1.5-2-2.1
				c-0.5-0.6-0.8-1.1-1-1.7l-0.4,0c-0.3,0.6-0.6,1.2-1.1,1.8c-0.4,0.6-1.1,1.3-2,2l0,0.7c1.2-0.6,2.1-1.2,2.8-1.8"/>
		</g>
		<path class="st16" d="M169.9,189c0,0,0.8,28.9,1,31.9c0.4,5.9,5.8,7.1,5.9-0.5c0.1-7.3-2.2-10.8,4.8-14.9"/>
	</g>
	<g>
		<path class="st14" d="M211,154.3c-0.4,0.5-0.7,0.9-0.8,1.2c-0.2,0.3-0.4,0.7-0.7,1.4l0.6,0c0.7-0.8,1.3-1.4,1.8-1.8
			c0.5-0.4,1-0.7,1.5-0.9l0-0.4c-0.5-0.2-1.1-0.6-1.6-1c-0.5-0.4-1.1-1-1.8-1.7l-0.6,0c0.5,1.1,1.1,1.9,1.6,2.5"/>
	</g>
	<g>
		<path class="st14" d="M210.8,135.9c-0.5-0.4-0.9-0.7-1.1-0.9c-0.2-0.2-0.7-0.4-1.3-0.8l0,0.6c0.8,0.8,1.3,1.4,1.7,1.9
			c0.4,0.5,0.7,1,0.8,1.5l0.4,0c0.3-0.5,0.6-1,1.1-1.5c0.4-0.5,1-1.1,1.8-1.7l0-0.6c-1.1,0.5-2,1-2.6,1.5"/>
	</g>
	<g>
		<path class="st14" d="M208.1,187.8c0-0.7-0.1-1.1-0.1-1.4c0-0.3-0.2-0.8-0.3-1.5l-0.5,0.4c0,1.1-0.1,1.9-0.2,2.6
			c-0.1,0.7-0.3,1.2-0.5,1.7l0.2,0.3c0.6-0.2,1.2-0.3,1.8-0.3c0.6,0,1.5,0,2.5,0.1l0.5-0.4c-1.1-0.5-2.1-0.7-2.9-0.8"/>
	</g>
	<g>
		<path class="st14" d="M232.7,209.6c-0.5-0.4-0.9-0.7-1.1-0.9c-0.2-0.2-0.7-0.4-1.3-0.8l0,0.6c0.8,0.7,1.3,1.4,1.7,1.9
			c0.4,0.5,0.7,1,0.9,1.5l0.4,0c0.3-0.5,0.6-1,1-1.5c0.4-0.5,1-1.1,1.8-1.7l0-0.6c-1.1,0.5-2,1-2.6,1.5"/>
	</g>
	<line class="st17" x1="211.3" y1="153.7" x2="183.3" y2="153.5"/>
	<line class="st17" x1="233" y1="210" x2="233" y2="176"/>
	<g>
		<path class="st14" d="M232.7,272.6c-0.5-0.4-0.9-0.7-1.1-0.9c-0.2-0.2-0.7-0.4-1.3-0.8l0,0.6c0.8,0.7,1.3,1.4,1.7,1.9
			c0.4,0.5,0.7,1,0.9,1.5l0.4,0c0.3-0.5,0.6-1,1-1.5c0.4-0.5,1-1.1,1.8-1.7l0-0.6c-1.1,0.5-2,1-2.6,1.5"/>
	</g>
	<line class="st17" x1="233" y1="273" x2="233" y2="239"/>
	<g>
		<g>
			<path class="st14" d="M206.3,300c0.4-0.5,0.8-0.9,0.9-1.1c0.2-0.2,0.4-0.7,0.8-1.3l-0.6,0c-0.8,0.7-1.4,1.3-2,1.7
				c-0.6,0.4-1.1,0.6-1.5,0.8l0,0.4c0.5,0.3,1,0.7,1.5,1.1c0.5,0.4,1,1.1,1.7,1.9l0.6,0c-0.4-1.1-0.9-2-1.4-2.6"/>
		</g>
		<path class="st17" d="M204.8,300.5c0,0,26.2,4.8,27.2-11.2"/>
	</g>
	<line class="st17" x1="211.2" y1="136.7" x2="211.2" y2="108.8"/>
	<g>
		<path d="M112.6,112.2c0.5,0.4,0.9,0.7,1.1,0.9c0.2,0.2,0.7,0.4,1.3,0.8l0-0.6c-0.8-0.8-1.3-1.4-1.7-1.9c-0.4-0.5-0.7-1-0.8-1.5
			l-0.4,0c-0.3,0.5-0.6,1-1.1,1.5c-0.4,0.5-1,1.1-1.8,1.7l0,0.6c1.1-0.5,2-1,2.6-1.5"/>
	</g>
	<g>
		<path d="M124,153.4c0.4-0.5,0.7-0.9,0.8-1.2c0.2-0.3,0.4-0.7,0.7-1.4l-0.6,0c-0.7,0.8-1.3,1.4-1.8,1.8c-0.5,0.4-1,0.7-1.5,0.9
			l0,0.4c0.5,0.2,1.1,0.6,1.6,1c0.5,0.4,1.1,1,1.8,1.7l0.6,0c-0.5-1.1-1.1-1.9-1.7-2.5"/>
	</g>
	<line class="st18" x1="112.3" y1="111.5" x2="112.3" y2="139.3"/>
	<g>
		<g>
			<path d="M160.6,342.5c-1.1-0.9-1.9-1.5-2.4-1.9c-0.5-0.4-1.5-0.9-2.8-1.6l0,1.3c1.6,1.6,2.8,2.9,3.7,4c0.8,1.1,1.4,2.2,1.8,3.2
				l0.8,0c0.6-1.1,1.3-2.2,2.2-3.2c0.9-1,2.2-2.3,3.8-3.7l0-1.3c-2.3,1-4.1,2.1-5.4,3.2"/>
		</g>
		<line class="st19" x1="161.5" y1="343.7" x2="161" y2="309.8"/>
	</g>
	<g>
		<path class="st20" d="M37.8,214.2c0.5,0.4,0.9,0.7,1.1,0.9c0.2,0.2,0.7,0.4,1.3,0.8l0-0.6c-0.8-0.8-1.3-1.4-1.7-1.9
			c-0.4-0.5-0.7-1-0.8-1.5l-0.4,0c-0.3,0.5-0.6,1-1.1,1.5c-0.4,0.5-1,1.1-1.8,1.7l0,0.6c1.1-0.5,2-1,2.6-1.5"/>
	</g>
	<line class="st21" x1="37.4" y1="213.5" x2="37.4" y2="241.3"/>
	<g>
		<path class="st20" d="M66.4,324.6c0.7,0.1,1.1,0.1,1.4,0.1c0.3,0,0.8-0.1,1.5-0.1L69,324c-1.1-0.2-1.9-0.4-2.5-0.6
			c-0.6-0.2-1.2-0.5-1.6-0.7l-0.3,0.2c0.1,0.6,0.1,1.2,0,1.8c-0.1,0.6-0.2,1.5-0.5,2.5l0.3,0.5c0.6-1,1-1.9,1.2-2.7"/>
	</g>
	<line class="st21" x1="65.7" y1="324.2" x2="82.1" y2="346.7"/>
	<g>
		<path class="st20" d="M56.6,156.1c-0.5-0.4-0.9-0.7-1.2-0.8c-0.3-0.2-0.7-0.4-1.4-0.7l0,0.6c0.8,0.7,1.4,1.3,1.8,1.8
			c0.4,0.5,0.7,1,1,1.5l0.4,0c0.2-0.5,0.6-1.1,0.9-1.6c0.4-0.5,1-1.1,1.7-1.9l0-0.6c-1.1,0.5-1.9,1.1-2.4,1.7"/>
	</g>
	<line class="st21" x1="57" y1="156.8" x2="54.8" y2="129.1"/>
	<g>
		<path class="st20" d="M78.6,59.8c0-0.7,0.1-1.1,0.1-1.4c0-0.3-0.1-0.8-0.2-1.5L78,57.2c-0.1,1.1-0.3,1.9-0.5,2.5
			c-0.2,0.6-0.4,1.2-0.7,1.6l0.2,0.3c0.6-0.1,1.2-0.1,1.8-0.1c0.6,0,1.5,0.2,2.5,0.4l0.5-0.4c-1-0.6-1.9-1-2.7-1.2"/>
	</g>
	<line class="st21" x1="78.2" y1="60.5" x2="100.5" y2="43.8"/>
	<g>
		<path class="st20" d="M89.8,172.3c-0.7,0.1-1.1,0.2-1.4,0.2c-0.3,0.1-0.8,0.2-1.4,0.5l0.4,0.4c1.1-0.1,1.9-0.1,2.6,0
			c0.7,0.1,1.2,0.2,1.7,0.4l0.3-0.3c-0.2-0.6-0.3-1.2-0.4-1.8c-0.1-0.6-0.1-1.5-0.1-2.5l-0.4-0.4c-0.4,1.1-0.6,2.1-0.6,2.9"/>
	</g>
	<line class="st21" x1="90.6" y1="172.5" x2="76.9" y2="160.2"/>
	<g>
		<path d="M95.6,251.1c0.5,0.4,0.9,0.7,1.1,0.9c0.2,0.2,0.7,0.4,1.3,0.8l0-0.6c-0.8-0.8-1.3-1.4-1.7-1.9c-0.4-0.5-0.7-1-0.8-1.5
			l-0.4,0c-0.3,0.5-0.6,1-1.1,1.5c-0.4,0.5-1,1.1-1.8,1.7l0,0.6c1.1-0.5,2-1,2.6-1.5"/>
	</g>
	<g>
		<path d="M99.3,297.7c0.6-0.3,1-0.6,1.2-0.7c0.2-0.2,0.6-0.5,1.2-1l-0.6-0.2c-1,0.4-1.8,0.8-2.4,0.9c-0.6,0.2-1.2,0.3-1.7,0.3
			l-0.1,0.3c0.4,0.4,0.7,1,1.1,1.5c0.3,0.6,0.6,1.3,1,2.3l0.6,0.2c0-1.2-0.2-2.2-0.5-2.9"/>
	</g>
	<line class="st18" x1="95.3" y1="251" x2="95.3" y2="278.8"/>
	<path class="st18" d="M98.7,298.2c0,0,0.8,3,20.2,2.5"/>
	<line class="st18" x1="123.8" y1="153.8" x2="140" y2="153.8"/>
	<path class="st17" d="M207.8,188.5c0,0,3.3,1.2,3.3-15.3"/>
	<g>
		<g>
			<path d="M162.5,57.2c1.1,0.9,1.9,1.5,2.4,1.9c0.5,0.4,1.5,0.9,2.8,1.6l0-1.3c-1.6-1.6-2.8-2.9-3.7-4c-0.8-1.1-1.4-2.2-1.8-3.2
				l-0.8,0c-0.6,1.1-1.3,2.2-2.2,3.2c-0.9,1-2.2,2.3-3.8,3.7l0,1.3c2.3-1,4.1-2.1,5.4-3.2"/>
		</g>
		<line class="st19" x1="161.7" y1="56" x2="162.1" y2="89.8"/>
	</g>
</g>
<g id="tekst">
	<text transform="matrix(1 0 0 1 4.5 127.3335)" class="st22 st23">Lymfeklap</text>
	<text transform="matrix(1 0 0 1 9.5 338.4995)" class="st22 st23">Lymfeknude</text>
	<text transform="matrix(1 0 0 1 40.5 358.6665)" class="st22 st23">Lymfekar</text>
	<text transform="matrix(1 0 0 1 199.8188 60.6665)"><tspan x="0" y="0" class="st22 st23">Lunge-</tspan><tspan x="0" y="10" class="st22 st23">kapillærer</tspan></text>
	<text transform="matrix(1 0 0 1 128.9995 127.3325)" class="st22 st23">Lungekredsløb</text>
	<text transform="matrix(1 0 0 1 185.832 263.7222)" class="st22 st23">Arterie</text>
	<text transform="matrix(1 0 0 1 199.8184 327.1655)"><tspan x="0" y="0" class="st22 st23">Krops-</tspan><tspan x="0" y="10" class="st22 st23">kapillærer</tspan></text>
	<text transform="matrix(1 0 0 1 199.8184 358.6665)"><tspan x="0" y="0" class="st22 st23">Lymfatiske</tspan><tspan x="0" y="10" class="st22 st23">kapillærer</tspan></text>
	<text transform="matrix(1 0 0 1 147.832 263.7222)" class="st22 st23">Hjerte</text>
	<text transform="matrix(1 0 0 1 110.332 263.7222)" class="st22 st23">Vene</text>
	<line class="st24" x1="218.7" y1="261" x2="225.3" y2="261"/>
	<line class="st24" x1="109.7" y1="260.3" x2="101.7" y2="260.3"/>
	<line class="st24" x1="34" y1="328" x2="47" y2="309.3"/>
	<line class="st24" x1="84.3" y1="356" x2="96.3" y2="344.7"/>
	<line class="st24" x1="61.7" y1="125" x2="52.7" y2="125"/>
	<line class="st24" x1="198.3" y1="67" x2="167.7" y2="84"/>
</g>
<g id="streger_til_tekst">
	<line class="st6" x1="198.3" y1="366.3" x2="188.3" y2="362.7"/>
	<line class="st6" x1="198.3" y1="323.7" x2="162.3" y2="298.7"/>
</g>
</svg>
