<?xml version="1.0" encoding="UTF-8" standalone="no"?>
<!-- Created with Inkscape (http://www.inkscape.org/) -->

<svg
   xmlns:dc="http://purl.org/dc/elements/1.1/"
   xmlns:cc="http://creativecommons.org/ns#"
   xmlns:rdf="http://www.w3.org/1999/02/22-rdf-syntax-ns#"
   xmlns:svg="http://www.w3.org/2000/svg"
   xmlns="http://www.w3.org/2000/svg"
   version="1.1"
   width="261.76419"
   height="213.23984"
   id="svg2"
   xml:space="preserve"><metadata
     id="metadata8"><rdf:RDF><cc:Work
         rdf:about=""><dc:format>image/svg+xml</dc:format><dc:type
           rdf:resource="http://purl.org/dc/dcmitype/StillImage" /><dc:title></dc:title></cc:Work></rdf:RDF></metadata><defs
     id="defs6"><clipPath
       id="clipPath16"><path
         d="m 0,623.622 566.929,0 L 566.929,0 0,0 0,623.622 z"
         id="path18" /></clipPath><clipPath
       id="clipPath36"><path
         d="m 0,623.622 566.929,0 L 566.929,0 0,0 0,623.622 z"
         id="path38" /></clipPath><clipPath
       id="clipPath54"><path
         d="m 186.844,230.22 40.132,0 0,-83.362 -40.132,0 0,83.362 z"
         id="path56" /></clipPath><clipPath
       id="clipPath68"><path
         d="m 226.976,160.22 40.131,0 0,-83.3616 -40.131,0 0,83.3616 z"
         id="path70" /></clipPath><clipPath
       id="clipPath82"><path
         d="m 267.108,230.22 48.684,0 0,-84.862 -48.684,0 0,84.862 z"
         id="path84" /></clipPath><clipPath
       id="clipPath96"><path
         d="m 315.463,159.22 17.762,0 0,-82.3616 -17.762,0 0,82.3616 z"
         id="path98" /></clipPath><clipPath
       id="clipPath110"><path
         d="m 333.227,230.22 45.393,0 0,-85.362 -45.393,0 0,85.362 z"
         id="path112" /></clipPath><clipPath
       id="clipPath124"><path
         d="m 0,623.622 566.929,0 L 566.929,0 0,0 0,623.622 z"
         id="path126" /></clipPath><clipPath
       id="clipPath142"><path
         d="m 191.948,182.104 180.675,0 0,-56.656 -180.675,0 0,56.656 z"
         id="path144" /></clipPath><clipPath
       id="clipPath164"><path
         d="m 0,623.622 566.929,0 L 566.929,0 0,0 0,623.622 z"
         id="path166" /></clipPath><clipPath
       id="clipPath334"><path
         d="m 0,623.622 566.929,0 L 566.929,0 0,0 0,623.622 z"
         id="path336" /></clipPath><clipPath
       id="clipPath346"><path
         d="m 0,623.622 566.929,0 L 566.929,0 0,0 0,623.622 z"
         id="path348" /></clipPath><clipPath
       id="clipPath366"><path
         d="m 0,623.622 566.929,0 L 566.929,0 0,0 0,623.622 z"
         id="path368" /></clipPath><clipPath
       id="clipPath386"><path
         d="m 0,623.622 566.929,0 L 566.929,0 0,0 0,623.622 z"
         id="path388" /></clipPath><clipPath
       id="clipPath666"><path
         d="m 0,623.622 566.929,0 L 566.929,0 0,0 0,623.622 z"
         id="path668" /></clipPath></defs><g
     transform="matrix(1.25,0,0,-1.25,786.80263,1752.1566)"
     id="g10"><g
       id="g330"><g
         clip-path="url(#clipPath334)"
         id="g332"><path
           d="m 383.309,-241.391 -200.685,0 0,151.591 200.685,0 0,-151.591 z"
           id="path338"
           style="fill:#6170ac;fill-opacity:1;fill-rule:nonzero;stroke:none" /><path
           d="m 379.309,-566.874 -192.685,0 0,151.591 192.685,0 0,-151.591 z"
           id="path340"
           style="fill:#6170ac;fill-opacity:1;fill-rule:nonzero;stroke:none" /></g></g><g
       id="g342"><g
         clip-path="url(#clipPath346)"
         id="g344"><path
           d="m 368.334,-484.046 -55.334,0 0,55.334 55.334,0 0,-55.334 z"
           id="path350"
           style="fill:#ffffff;fill-opacity:1;fill-rule:nonzero;stroke:none" /><path
           d="m 368.334,-484.046 -55.334,0 0,55.334 55.334,0 0,-55.334 z"
           id="path352"
           style="fill:none;stroke:#424d94;stroke-width:2;stroke-linecap:butt;stroke-linejoin:miter;stroke-miterlimit:4;stroke-opacity:1;stroke-dasharray:none" /><path
           d="m 322.334,-553.712 -55.334,0 0,55.334 55.334,0 0,-55.334 z"
           id="path354"
           style="fill:#ffffff;fill-opacity:1;fill-rule:nonzero;stroke:none" /><path
           d="m 322.334,-553.712 -55.334,0 0,55.334 55.334,0 0,-55.334 z"
           id="path356"
           style="fill:none;stroke:#424d94;stroke-width:2;stroke-linecap:butt;stroke-linejoin:miter;stroke-miterlimit:4;stroke-opacity:1;stroke-dasharray:none" /><path
           d="m 253.667,-516.379 -55.334,0 0,55.334 55.334,0 0,-55.334 z"
           id="path358"
           style="fill:#ffffff;fill-opacity:1;fill-rule:nonzero;stroke:none" /><path
           d="m 253.667,-516.379 -55.334,0 0,55.334 55.334,0 0,-55.334 z"
           id="path360"
           style="fill:none;stroke:#424d94;stroke-width:2;stroke-linecap:butt;stroke-linejoin:miter;stroke-miterlimit:4;stroke-opacity:1;stroke-dasharray:none" /></g></g><g
       id="g362"><g
         clip-path="url(#clipPath366)"
         id="g364"><path
           d="m -227.566,578.957 -43.452,0 0,43.451 43.452,0 0,-43.451 z"
           id="path370"
           style="fill:#31366e;fill-opacity:1;fill-rule:nonzero;stroke:none" /><path
           d="m -278.897,578.957 -43.452,0 0,43.451 43.452,0 0,-43.451 z"
           id="path372"
           style="fill:#2e3144;fill-opacity:1;fill-rule:nonzero;stroke:none" /><path
           d="m -176.294,578.957 -43.452,0 0,43.451 43.452,0 0,-43.451 z"
           id="path374"
           style="fill:#424d94;fill-opacity:1;fill-rule:nonzero;stroke:none" /><path
           d="m -125.022,578.957 -43.451,0 0,43.451 43.451,0 0,-43.451 z"
           id="path376"
           style="fill:#6170ac;fill-opacity:1;fill-rule:nonzero;stroke:none" /><path
           d="m -73.75,578.957 -43.451,0 0,43.451 43.451,0 0,-43.451 z"
           id="path378"
           style="fill:#72c2b5;fill-opacity:1;fill-rule:nonzero;stroke:none" /><path
           d="m -22.477,578.957 -43.453,0 0,43.451 43.453,0 0,-43.451 z"
           id="path380"
           style="fill:#eb6b30;fill-opacity:1;fill-rule:nonzero;stroke:none" /></g></g><path
       d="m -420.03076,1231.1334 -209.41135,0 0,170.5919 209.41135,0 0,-170.5919 z"
       id="path4202"
       style="fill:#2e3144;fill-opacity:1;fill-rule:nonzero;stroke:none" /><path
       d="m -580.70529,1311.7098 -40.131,0 0,83.3609 40.131,0 0,-83.3609 z"
       id="path4204"
       style="fill:#31366e;fill-opacity:1;fill-rule:nonzero;stroke:none" /><path
       d="m -540.57429,1241.7098 -40.131,0 0,83.3609 40.131,0 0,-83.3609 z"
       id="path4206"
       style="fill:#424d94;fill-opacity:1;fill-rule:nonzero;stroke:none" /><path
       d="m -491.88929,1310.2098 -48.684,0 0,84.8609 48.684,0 0,-84.8609 z"
       id="path4208"
       style="fill:#6170ac;fill-opacity:1;fill-rule:nonzero;stroke:none" /><path
       d="m -474.45629,1241.7088 -17.762,0 0,82.3619 17.762,0 0,-82.3619 z"
       id="path4210"
       style="fill:#72c2b5;fill-opacity:1;fill-rule:nonzero;stroke:none" /><path
       d="m -429.06129,1309.7098 -45.394,0 0,85.3609 45.394,0 0,-85.3609 z"
       id="path4212"
       style="fill:#eb6b30;fill-opacity:1;fill-rule:nonzero;stroke:none" /><path
       d="m -615.73329,1333.8308 4.305,0 10.951,-24.505 10.661,24.505 4.364,0 -19,-43.531 -4.364,0 6.177,14.15 -13.094,29.381 z"
       id="path4214"
       style="fill:#ffffff;fill-opacity:1;fill-rule:nonzero;stroke:none" /><path
       d="m -574.69029,1333.8308 4.093,0 0,-14.87 c 0,-3.63 0.196,-6.128 0.588,-7.495 0.587,-1.951 1.708,-3.493 3.364,-4.625 1.655,-1.131 3.628,-1.697 5.92,-1.697 2.291,0 4.235,0.551 5.831,1.654 1.596,1.102 2.698,2.551 3.305,4.347 0.411,1.229 0.617,3.834 0.617,7.816 l 0,14.87 4.188,0 0,-15.64 c 0,-4.394 -0.513,-7.704 -1.539,-9.93 -1.026,-2.226 -2.57,-3.969 -4.632,-5.228 -2.061,-1.259 -4.646,-1.889 -7.753,-1.889 -3.107,0 -5.702,0.63 -7.783,1.889 -2.081,1.259 -3.634,3.016 -4.66,5.272 -1.027,2.255 -1.539,5.648 -1.539,10.179 l 0,15.347 z"
       id="path4216"
       style="fill:#ffffff;fill-opacity:1;fill-rule:nonzero;stroke:none" /><path
       d="m -514.99529,1305.1118 c 2.279,0 4.382,0.561 6.311,1.683 1.929,1.1219 3.463,2.697 4.603,4.7269 1.139,2.0281 1.709,4.174 1.709,6.4381 0,2.263 -0.575,4.4189 -1.724,6.4679 -1.149,2.0481 -2.693,3.643 -4.632,4.7851 -1.938,1.1409 -4.008,1.712 -6.209,1.712 -2.241,0 -4.369,-0.5711 -6.386,-1.712 -2.016,-1.1421 -3.565,-2.6781 -4.646,-4.61 -1.081,-1.931 -1.622,-4.107 -1.622,-6.526 0,-3.6871 1.213,-6.77 3.639,-9.248 2.425,-2.478 5.41,-3.717 8.957,-3.717 m -16.408,-3.156 0,44.188 4.094,0 0,-17.799 c 1.716,2.109 3.639,3.6859 5.766,4.731 2.127,1.045 4.458,1.568 6.995,1.568 4.508,0 8.356,-1.636 11.547,-4.906 3.19,-3.27 4.785,-7.237 4.785,-11.903 0,-4.607 -1.61,-8.5411 -4.829,-11.801 -3.22,-3.2601 -7.093,-4.89 -11.62,-4.89 -2.596,0 -4.947,0.555 -7.054,1.6659 -2.108,1.1101 -3.971,2.779 -5.59,5.0061 l 0,-5.86 -4.094,0 z"
       id="path4218"
       style="fill:#ffffff;fill-opacity:1;fill-rule:nonzero;stroke:none" /><path
       d="m -485.38229,1333.8308 4.094,0 0,-31.875 -4.094,0 0,31.875 z m 2.033,13.125 c 0.93,0 1.725,-0.333 2.385,-0.998 0.658,-0.665 0.988,-1.468 0.988,-2.4071 0,-0.9199 -0.33,-1.7129 -0.988,-2.3779 -0.66,-0.666 -1.455,-0.998 -2.385,-0.998 -0.912,0 -1.697,0.332 -2.356,0.998 -0.66,0.665 -0.99,1.4579 -0.99,2.3779 0,0.9391 0.33,1.7421 0.99,2.4071 0.659,0.665 1.444,0.998 2.356,0.998"
       id="path4220"
       style="fill:#ffffff;fill-opacity:1;fill-rule:nonzero;stroke:none" /><path
       d="m -451.66729,1330.6438 c -3.407,0 -6.334,-1.26 -8.782,-3.778 -2.447,-2.519 -3.671,-5.564 -3.671,-9.136 0,-2.304 0.558,-4.452 1.673,-6.443 1.118,-1.991 2.623,-3.529 4.524,-4.612 1.898,-1.084 3.984,-1.625 6.256,-1.625 2.271,0 4.357,0.541 6.256,1.625 1.9,1.083 3.406,2.621 4.523,4.612 1.115,1.991 1.674,4.139 1.674,6.443 0,3.572 -1.229,6.617 -3.686,9.136 -2.457,2.518 -5.381,3.778 -8.767,3.778 m 0.015,4 c 4.907,0 8.971,-1.777 12.196,-5.33 2.931,-3.241 4.398,-7.077 4.398,-11.508 0,-4.451 -1.549,-8.3421 -4.646,-11.67 -3.1,-3.328 -7.082,-4.992 -11.948,-4.992 -4.886,0 -8.879,1.664 -11.978,4.992 -3.098,3.3279 -4.647,7.219 -4.647,11.67 0,4.412 1.467,8.2379 4.399,11.479 3.224,3.572 7.301,5.359 12.226,5.359"
       id="path4222"
       style="fill:#ffffff;fill-opacity:1;fill-rule:nonzero;stroke:none" /></g></svg>