<?xml version="1.0" encoding="utf-8"?>
<!-- Generator: Adobe Illustrator 19.1.0, SVG Export Plug-In . SVG Version: 6.00 Build 0)  -->
<svg version="1.1" xmlns="http://www.w3.org/2000/svg" xmlns:xlink="http://www.w3.org/1999/xlink" x="0px" y="0px"
	 viewBox="0 0 566.9 481" style="enable-background:new 0 0 566.9 481;" xml:space="preserve">
<style type="text/css">
	.st0{fill:url(#SVGID_1_);}
	.st1{fill:url(#SVGID_2_);stroke:#000000;stroke-width:0.5;}
	.st2{fill:none;stroke:#000000;stroke-width:0.2752;}
	.st3{fill:url(#SVGID_3_);stroke:#000000;stroke-width:0.2752;}
	.st4{fill:url(#SVGID_4_);stroke:#000000;stroke-width:0.2752;}
	.st5{fill:url(#SVGID_5_);stroke:#000000;stroke-width:0.2752;}
	.st6{fill:url(#SVGID_6_);stroke:#000000;stroke-width:0.2752;}
	.st7{fill:url(#SVGID_7_);stroke:#000000;stroke-width:0.2752;}
	.st8{fill:url(#SVGID_8_);stroke:#000000;stroke-width:0.2752;}
	.st9{fill:url(#SVGID_9_);stroke:#000000;stroke-width:0.2752;}
	.st10{fill:url(#SVGID_10_);stroke:#000000;stroke-width:0.2752;}
	.st11{fill:url(#SVGID_11_);stroke:#000000;stroke-width:0.2752;}
	.st12{fill:url(#SVGID_12_);stroke:#000000;stroke-width:0.2752;}
	.st13{fill:url(#SVGID_13_);stroke:#000000;stroke-width:0.2752;}
	.st14{fill:url(#SVGID_14_);stroke:#000000;stroke-width:0.2752;}
	.st15{fill:url(#SVGID_15_);stroke:#000000;stroke-width:0.2752;}
	.st16{fill:url(#SVGID_16_);stroke:#000000;stroke-width:0.2752;}
	.st17{fill:url(#SVGID_17_);stroke:#000000;stroke-width:0.2752;}
	.st18{fill:url(#SVGID_18_);stroke:#000000;stroke-width:0.2752;}
	.st19{fill:url(#SVGID_19_);stroke:#000000;stroke-width:0.2752;}
	.st20{fill:url(#SVGID_20_);stroke:#000000;stroke-width:0.2752;}
	.st21{fill:url(#SVGID_21_);stroke:#000000;stroke-width:0.2752;}
	.st22{fill:url(#SVGID_22_);stroke:#000000;stroke-width:0.2752;}
	.st23{fill:url(#SVGID_23_);stroke:#000000;stroke-width:0.2752;}
	.st24{fill:url(#SVGID_24_);stroke:#000000;stroke-width:0.2752;}
	.st25{fill:url(#SVGID_25_);stroke:#000000;stroke-width:0.2752;}
	.st26{fill:url(#SVGID_26_);stroke:#000000;stroke-width:0.2752;}
	.st27{fill:url(#SVGID_27_);stroke:#000000;stroke-width:0.2752;}
	.st28{fill:url(#SVGID_28_);stroke:#000000;stroke-width:0.2752;}
	.st29{fill:none;stroke:#FFFFFF;}
	.st30{fill:#E2001A;stroke:#000000;stroke-width:0.5;}
	.st31{fill:#FFFFFF;stroke:#000000;stroke-width:0.5;}
	.st32{fill:#EA650D;stroke:#000000;stroke-width:0.5;}
	.st33{fill:#707173;stroke:#000000;stroke-width:0.4545;}
	.st34{fill:none;stroke:#000000;}
	.st35{fill:#FFFFFF;}
	.st36{fill:none;stroke:#FFFFFF;stroke-width:1.1602;}
	.st37{fill:none;stroke:#000000;stroke-width:0.5;}
	.st38{font-family:'Verdana';}
	.st39{font-size:9px;}
</style>
<g id="Lag_8">
	<linearGradient id="SVGID_1_" gradientUnits="userSpaceOnUse" x1="283.4644" y1="335.0254" x2="283.4644" y2="6.088077e-06">
		<stop  offset="0.5674" style="stop-color:#0094D7"/>
		<stop  offset="0.5749" style="stop-color:#0098D6"/>
		<stop  offset="0.6212" style="stop-color:#4BB4D0"/>
		<stop  offset="0.6647" style="stop-color:#9FCDC8"/>
		<stop  offset="0.7042" style="stop-color:#CEE0C1"/>
		<stop  offset="0.7389" style="stop-color:#ECEDB9"/>
		<stop  offset="0.7675" style="stop-color:#FDF5B4"/>
		<stop  offset="0.7865" style="stop-color:#FFF7B2"/>
		<stop  offset="0.8764" style="stop-color:#FFD600"/>
	</linearGradient>
	<rect y="0" class="st0" width="566.9" height="335"/>
</g>
<g id="Lag_2">
	<linearGradient id="SVGID_2_" gradientUnits="userSpaceOnUse" x1="283.4644" y1="158" x2="283.4644" y2="75.5">
		<stop  offset="0.264" style="stop-color:#F18E2A"/>
		<stop  offset="0.4953" style="stop-color:#F6B557"/>
		<stop  offset="0.7168" style="stop-color:#FAD37F"/>
		<stop  offset="0.8924" style="stop-color:#FBE497"/>
		<stop  offset="1" style="stop-color:#FCEAA0"/>
	</linearGradient>
	<path class="st1" d="M566.9,95c0,0-96,0-105.5,0s30.5,63-42,63s-33-63-41.5-63S266,95,257,95s0.5,63-62,63s-53.5-62.5-62-62.5
		s-133,0-133,0V76c0,0,138.5,0,147,0s-6.5,65.5,48,65.5s39-66,48-66s150.4,0,158.9,0s-36.4,66,17.5,66c53.6,0,8.5-66,18-66
		s129.5,0,129.5,0V95z"/>
</g>
<g id="Lag_1">
	<g>
		<g>
			<g>
				<polyline class="st2" points="483,81.2 482.6,85 483.9,81.4 				"/>
				<polyline class="st2" points="484.7,81.2 485.1,85 483.9,81.4 				"/>
			</g>
			<g>
				<polyline class="st2" points="488.5,81.2 488,85 489.3,81.4 				"/>
				<polyline class="st2" points="490.1,81.2 490.6,85 489.3,81.4 				"/>
			</g>
			<g>
				<polyline class="st2" points="494.3,81.2 493.8,85 495.1,81.4 				"/>
				<polyline class="st2" points="495.9,81.2 496.3,85 495.1,81.4 				"/>
			</g>
			<g>
				<polyline class="st2" points="499.9,81.2 499.4,85 500.7,81.4 				"/>
				<polyline class="st2" points="501.5,81.2 502,85 500.7,81.4 				"/>
			</g>
			<g>
				<polyline class="st2" points="505.3,81.2 504.8,85 506.1,81.4 				"/>
				<polyline class="st2" points="506.9,81.2 507.4,85 506.1,81.4 				"/>
			</g>
			<g>
				<polyline class="st2" points="510.9,81.3 510.4,85.1 511.7,81.5 				"/>
				<polyline class="st2" points="512.5,81.3 513,85.1 511.7,81.5 				"/>
			</g>
			<g>
				<polyline class="st2" points="516.4,81.2 515.9,85 517.2,81.4 				"/>
				<polyline class="st2" points="518,81.2 518.5,85 517.2,81.4 				"/>
			</g>
			<g>
				<polyline class="st2" points="521.8,81.3 521.3,85.1 522.6,81.6 				"/>
				<polyline class="st2" points="523.4,81.3 523.9,85.1 522.6,81.6 				"/>
			</g>
			<g>
				<polyline class="st2" points="527.7,81.3 527.2,85.1 528.5,81.6 				"/>
				<polyline class="st2" points="529.3,81.3 529.8,85.1 528.5,81.6 				"/>
			</g>
			<g>
				<polyline class="st2" points="533.1,81.3 532.6,85.1 533.9,81.5 				"/>
				<polyline class="st2" points="534.7,81.3 535.2,85.1 533.9,81.5 				"/>
			</g>
			<g>
				<polyline class="st2" points="538.9,81.4 538.4,85.3 539.7,81.7 				"/>
				<polyline class="st2" points="540.5,81.4 541,85.3 539.7,81.7 				"/>
			</g>
			<g>
				<polyline class="st2" points="544.3,81.3 543.8,85.1 545.1,81.6 				"/>
				<polyline class="st2" points="545.9,81.3 546.4,85.1 545.1,81.6 				"/>
			</g>
		</g>
		<g>
			<g>
				<polyline class="st2" points="483,89.5 482.6,85.7 483.9,89.3 				"/>
				<polyline class="st2" points="484.7,89.5 485.1,85.7 483.9,89.3 				"/>
			</g>
			<g>
				<polyline class="st2" points="488.5,89.5 488,85.7 489.3,89.3 				"/>
				<polyline class="st2" points="490.1,89.5 490.6,85.7 489.3,89.3 				"/>
			</g>
			<g>
				<polyline class="st2" points="494.3,89.5 493.8,85.7 495.1,89.3 				"/>
				<polyline class="st2" points="495.9,89.5 496.3,85.7 495.1,89.3 				"/>
			</g>
			<g>
				<polyline class="st2" points="499.9,89.5 499.4,85.7 500.7,89.3 				"/>
				<polyline class="st2" points="501.5,89.5 502,85.7 500.7,89.3 				"/>
			</g>
			<g>
				<polyline class="st2" points="505.3,89.5 504.8,85.7 506.1,89.3 				"/>
				<polyline class="st2" points="506.9,89.5 507.4,85.7 506.1,89.3 				"/>
			</g>
			<g>
				<polyline class="st2" points="510.9,89.4 510.4,85.6 511.7,89.2 				"/>
				<polyline class="st2" points="512.5,89.4 513,85.6 511.7,89.2 				"/>
			</g>
			<g>
				<polyline class="st2" points="516.4,89.5 515.9,85.7 517.2,89.3 				"/>
				<polyline class="st2" points="518,89.5 518.5,85.7 517.2,89.3 				"/>
			</g>
			<g>
				<polyline class="st2" points="521.8,89.4 521.3,85.6 522.6,89.1 				"/>
				<polyline class="st2" points="523.4,89.4 523.9,85.6 522.6,89.1 				"/>
			</g>
			<g>
				<polyline class="st2" points="527.7,89.4 527.2,85.6 528.5,89.1 				"/>
				<polyline class="st2" points="529.3,89.4 529.8,85.6 528.5,89.1 				"/>
			</g>
			<g>
				<polyline class="st2" points="533.1,89.4 532.6,85.6 533.9,89.2 				"/>
				<polyline class="st2" points="534.7,89.4 535.2,85.6 533.9,89.2 				"/>
			</g>
			<g>
				<polyline class="st2" points="538.9,89.3 538.4,85.4 539.7,89 				"/>
				<polyline class="st2" points="540.5,89.3 541,85.4 539.7,89 				"/>
			</g>
			<g>
				<polyline class="st2" points="544.3,89.4 543.8,85.6 545.1,89.1 				"/>
				<polyline class="st2" points="545.9,89.4 546.4,85.6 545.1,89.1 				"/>
			</g>
			<g>
				<polyline class="st2" points="550,81.8 549.6,85.6 550.8,82 				"/>
				<polyline class="st2" points="551.7,81.8 552.1,85.6 550.8,82 				"/>
			</g>
			<g>
				<polyline class="st2" points="550,89.4 549.6,85.6 550.8,89.1 				"/>
				<polyline class="st2" points="551.7,89.4 552.1,85.6 550.8,89.1 				"/>
			</g>
		</g>
		<g>
			<linearGradient id="SVGID_3_" gradientUnits="userSpaceOnUse" x1="483.877" y1="81.4844" x2="483.877" y2="76.1602">
				<stop  offset="0" style="stop-color:#92BACD"/>
				<stop  offset="1.981207e-02" style="stop-color:#9BC1D3"/>
				<stop  offset="8.501000e-02" style="stop-color:#B5D5E5"/>
				<stop  offset="0.1561" style="stop-color:#C8E3F1"/>
				<stop  offset="0.237" style="stop-color:#D3ECF8"/>
				<stop  offset="0.3483" style="stop-color:#D7EEFA"/>
				<stop  offset="0.5123" style="stop-color:#ECF7FD"/>
				<stop  offset="0.6777" style="stop-color:#FAFDFE"/>
				<stop  offset="0.7978" style="stop-color:#FFFFFF"/>
			</linearGradient>
			<path class="st3" d="M486.6,78.8c0,1.5-1.2,2.7-2.7,2.7c-1.5,0-2.7-1.2-2.7-2.7c0-1.5,1.2-2.7,2.7-2.7
				C485.4,76.2,486.6,77.4,486.6,78.8z"/>
			<linearGradient id="SVGID_4_" gradientUnits="userSpaceOnUse" x1="489.4653" y1="81.4844" x2="489.4653" y2="76.1602">
				<stop  offset="0" style="stop-color:#92BACD"/>
				<stop  offset="1.981207e-02" style="stop-color:#9BC1D3"/>
				<stop  offset="8.501000e-02" style="stop-color:#B5D5E5"/>
				<stop  offset="0.1561" style="stop-color:#C8E3F1"/>
				<stop  offset="0.237" style="stop-color:#D3ECF8"/>
				<stop  offset="0.3483" style="stop-color:#D7EEFA"/>
				<stop  offset="0.5123" style="stop-color:#ECF7FD"/>
				<stop  offset="0.6777" style="stop-color:#FAFDFE"/>
				<stop  offset="0.7978" style="stop-color:#FFFFFF"/>
			</linearGradient>
			<ellipse class="st4" cx="489.5" cy="78.8" rx="2.7" ry="2.7"/>
			<linearGradient id="SVGID_5_" gradientUnits="userSpaceOnUse" x1="495.0547" y1="81.4844" x2="495.0547" y2="76.1602">
				<stop  offset="0" style="stop-color:#92BACD"/>
				<stop  offset="1.981207e-02" style="stop-color:#9BC1D3"/>
				<stop  offset="8.501000e-02" style="stop-color:#B5D5E5"/>
				<stop  offset="0.1561" style="stop-color:#C8E3F1"/>
				<stop  offset="0.237" style="stop-color:#D3ECF8"/>
				<stop  offset="0.3483" style="stop-color:#D7EEFA"/>
				<stop  offset="0.5123" style="stop-color:#ECF7FD"/>
				<stop  offset="0.6777" style="stop-color:#FAFDFE"/>
				<stop  offset="0.7978" style="stop-color:#FFFFFF"/>
			</linearGradient>
			<ellipse class="st5" cx="495.1" cy="78.8" rx="2.7" ry="2.7"/>
			<linearGradient id="SVGID_6_" gradientUnits="userSpaceOnUse" x1="500.6436" y1="81.4844" x2="500.6436" y2="76.1602">
				<stop  offset="0" style="stop-color:#92BACD"/>
				<stop  offset="1.981207e-02" style="stop-color:#9BC1D3"/>
				<stop  offset="8.501000e-02" style="stop-color:#B5D5E5"/>
				<stop  offset="0.1561" style="stop-color:#C8E3F1"/>
				<stop  offset="0.237" style="stop-color:#D3ECF8"/>
				<stop  offset="0.3483" style="stop-color:#D7EEFA"/>
				<stop  offset="0.5123" style="stop-color:#ECF7FD"/>
				<stop  offset="0.6777" style="stop-color:#FAFDFE"/>
				<stop  offset="0.7978" style="stop-color:#FFFFFF"/>
			</linearGradient>
			<ellipse class="st6" cx="500.6" cy="78.8" rx="2.7" ry="2.7"/>
			<linearGradient id="SVGID_7_" gradientUnits="userSpaceOnUse" x1="506.2329" y1="81.4844" x2="506.2329" y2="76.1602">
				<stop  offset="0" style="stop-color:#92BACD"/>
				<stop  offset="1.981207e-02" style="stop-color:#9BC1D3"/>
				<stop  offset="8.501000e-02" style="stop-color:#B5D5E5"/>
				<stop  offset="0.1561" style="stop-color:#C8E3F1"/>
				<stop  offset="0.237" style="stop-color:#D3ECF8"/>
				<stop  offset="0.3483" style="stop-color:#D7EEFA"/>
				<stop  offset="0.5123" style="stop-color:#ECF7FD"/>
				<stop  offset="0.6777" style="stop-color:#FAFDFE"/>
				<stop  offset="0.7978" style="stop-color:#FFFFFF"/>
			</linearGradient>
			<ellipse class="st7" cx="506.2" cy="78.8" rx="2.7" ry="2.7"/>
			<linearGradient id="SVGID_8_" gradientUnits="userSpaceOnUse" x1="511.8218" y1="81.4844" x2="511.8218" y2="76.1602">
				<stop  offset="0" style="stop-color:#92BACD"/>
				<stop  offset="1.981207e-02" style="stop-color:#9BC1D3"/>
				<stop  offset="8.501000e-02" style="stop-color:#B5D5E5"/>
				<stop  offset="0.1561" style="stop-color:#C8E3F1"/>
				<stop  offset="0.237" style="stop-color:#D3ECF8"/>
				<stop  offset="0.3483" style="stop-color:#D7EEFA"/>
				<stop  offset="0.5123" style="stop-color:#ECF7FD"/>
				<stop  offset="0.6777" style="stop-color:#FAFDFE"/>
				<stop  offset="0.7978" style="stop-color:#FFFFFF"/>
			</linearGradient>
			<ellipse class="st8" cx="511.8" cy="78.8" rx="2.7" ry="2.7"/>
			<linearGradient id="SVGID_9_" gradientUnits="userSpaceOnUse" x1="517.4111" y1="81.4844" x2="517.4111" y2="76.1602">
				<stop  offset="0" style="stop-color:#92BACD"/>
				<stop  offset="1.981207e-02" style="stop-color:#9BC1D3"/>
				<stop  offset="8.501000e-02" style="stop-color:#B5D5E5"/>
				<stop  offset="0.1561" style="stop-color:#C8E3F1"/>
				<stop  offset="0.237" style="stop-color:#D3ECF8"/>
				<stop  offset="0.3483" style="stop-color:#D7EEFA"/>
				<stop  offset="0.5123" style="stop-color:#ECF7FD"/>
				<stop  offset="0.6777" style="stop-color:#FAFDFE"/>
				<stop  offset="0.7978" style="stop-color:#FFFFFF"/>
			</linearGradient>
			<ellipse class="st9" cx="517.4" cy="78.8" rx="2.7" ry="2.7"/>
			<linearGradient id="SVGID_10_" gradientUnits="userSpaceOnUse" x1="523.0005" y1="81.4844" x2="523.0005" y2="76.1602">
				<stop  offset="0" style="stop-color:#92BACD"/>
				<stop  offset="1.981207e-02" style="stop-color:#9BC1D3"/>
				<stop  offset="8.501000e-02" style="stop-color:#B5D5E5"/>
				<stop  offset="0.1561" style="stop-color:#C8E3F1"/>
				<stop  offset="0.237" style="stop-color:#D3ECF8"/>
				<stop  offset="0.3483" style="stop-color:#D7EEFA"/>
				<stop  offset="0.5123" style="stop-color:#ECF7FD"/>
				<stop  offset="0.6777" style="stop-color:#FAFDFE"/>
				<stop  offset="0.7978" style="stop-color:#FFFFFF"/>
			</linearGradient>
			<ellipse class="st10" cx="523" cy="78.8" rx="2.7" ry="2.7"/>
			<linearGradient id="SVGID_11_" gradientUnits="userSpaceOnUse" x1="528.5898" y1="81.4844" x2="528.5898" y2="76.1602">
				<stop  offset="0" style="stop-color:#92BACD"/>
				<stop  offset="1.981207e-02" style="stop-color:#9BC1D3"/>
				<stop  offset="8.501000e-02" style="stop-color:#B5D5E5"/>
				<stop  offset="0.1561" style="stop-color:#C8E3F1"/>
				<stop  offset="0.237" style="stop-color:#D3ECF8"/>
				<stop  offset="0.3483" style="stop-color:#D7EEFA"/>
				<stop  offset="0.5123" style="stop-color:#ECF7FD"/>
				<stop  offset="0.6777" style="stop-color:#FAFDFE"/>
				<stop  offset="0.7978" style="stop-color:#FFFFFF"/>
			</linearGradient>
			<path class="st11" d="M531.3,78.8c0,1.5-1.2,2.7-2.7,2.7c-1.5,0-2.7-1.2-2.7-2.7c0-1.5,1.2-2.7,2.7-2.7
				C530.1,76.2,531.3,77.4,531.3,78.8z"/>
			<linearGradient id="SVGID_12_" gradientUnits="userSpaceOnUse" x1="534.1787" y1="81.4844" x2="534.1787" y2="76.1602">
				<stop  offset="0" style="stop-color:#92BACD"/>
				<stop  offset="1.981207e-02" style="stop-color:#9BC1D3"/>
				<stop  offset="8.501000e-02" style="stop-color:#B5D5E5"/>
				<stop  offset="0.1561" style="stop-color:#C8E3F1"/>
				<stop  offset="0.237" style="stop-color:#D3ECF8"/>
				<stop  offset="0.3483" style="stop-color:#D7EEFA"/>
				<stop  offset="0.5123" style="stop-color:#ECF7FD"/>
				<stop  offset="0.6777" style="stop-color:#FAFDFE"/>
				<stop  offset="0.7978" style="stop-color:#FFFFFF"/>
			</linearGradient>
			<ellipse class="st12" cx="534.2" cy="78.8" rx="2.7" ry="2.7"/>
			<linearGradient id="SVGID_13_" gradientUnits="userSpaceOnUse" x1="539.7676" y1="81.4844" x2="539.7676" y2="76.1602">
				<stop  offset="0" style="stop-color:#92BACD"/>
				<stop  offset="1.981207e-02" style="stop-color:#9BC1D3"/>
				<stop  offset="8.501000e-02" style="stop-color:#B5D5E5"/>
				<stop  offset="0.1561" style="stop-color:#C8E3F1"/>
				<stop  offset="0.237" style="stop-color:#D3ECF8"/>
				<stop  offset="0.3483" style="stop-color:#D7EEFA"/>
				<stop  offset="0.5123" style="stop-color:#ECF7FD"/>
				<stop  offset="0.6777" style="stop-color:#FAFDFE"/>
				<stop  offset="0.7978" style="stop-color:#FFFFFF"/>
			</linearGradient>
			<path class="st13" d="M542.5,78.8c0,1.5-1.2,2.7-2.7,2.7c-1.5,0-2.7-1.2-2.7-2.7c0-1.5,1.2-2.7,2.7-2.7
				C541.2,76.2,542.5,77.4,542.5,78.8z"/>
			<linearGradient id="SVGID_14_" gradientUnits="userSpaceOnUse" x1="545.3569" y1="81.4844" x2="545.3569" y2="76.1602">
				<stop  offset="0" style="stop-color:#92BACD"/>
				<stop  offset="1.981207e-02" style="stop-color:#9BC1D3"/>
				<stop  offset="8.501000e-02" style="stop-color:#B5D5E5"/>
				<stop  offset="0.1561" style="stop-color:#C8E3F1"/>
				<stop  offset="0.237" style="stop-color:#D3ECF8"/>
				<stop  offset="0.3483" style="stop-color:#D7EEFA"/>
				<stop  offset="0.5123" style="stop-color:#ECF7FD"/>
				<stop  offset="0.6777" style="stop-color:#FAFDFE"/>
				<stop  offset="0.7978" style="stop-color:#FFFFFF"/>
			</linearGradient>
			<ellipse class="st14" cx="545.4" cy="78.8" rx="2.7" ry="2.7"/>
			<linearGradient id="SVGID_15_" gradientUnits="userSpaceOnUse" x1="550.9463" y1="81.4844" x2="550.9463" y2="76.1602">
				<stop  offset="0" style="stop-color:#92BACD"/>
				<stop  offset="1.981207e-02" style="stop-color:#9BC1D3"/>
				<stop  offset="8.501000e-02" style="stop-color:#B5D5E5"/>
				<stop  offset="0.1561" style="stop-color:#C8E3F1"/>
				<stop  offset="0.237" style="stop-color:#D3ECF8"/>
				<stop  offset="0.3483" style="stop-color:#D7EEFA"/>
				<stop  offset="0.5123" style="stop-color:#ECF7FD"/>
				<stop  offset="0.6777" style="stop-color:#FAFDFE"/>
				<stop  offset="0.7978" style="stop-color:#FFFFFF"/>
			</linearGradient>
			<ellipse class="st15" cx="550.9" cy="78.8" rx="2.7" ry="2.7"/>
		</g>
		<g>
			<linearGradient id="SVGID_16_" gradientUnits="userSpaceOnUse" x1="483.877" y1="94.3243" x2="483.877" y2="89">
				<stop  offset="0" style="stop-color:#004E7A"/>
				<stop  offset="6.901193e-02" style="stop-color:#00638E"/>
				<stop  offset="0.1581" style="stop-color:#4080A6"/>
				<stop  offset="0.2524" style="stop-color:#749EBC"/>
				<stop  offset="0.3504" style="stop-color:#9DB9D0"/>
				<stop  offset="0.4532" style="stop-color:#BED1E1"/>
				<stop  offset="0.5623" style="stop-color:#D8E4EE"/>
				<stop  offset="0.6807" style="stop-color:#EAF1F7"/>
				<stop  offset="0.815" style="stop-color:#F5FAFC"/>
				<stop  offset="1" style="stop-color:#F9FCFE"/>
			</linearGradient>
			<path class="st16" d="M486.6,91.7c0,1.5-1.2,2.7-2.7,2.7c-1.5,0-2.7-1.2-2.7-2.7c0-1.5,1.2-2.7,2.7-2.7
				C485.4,89,486.6,90.2,486.6,91.7z"/>
			<linearGradient id="SVGID_17_" gradientUnits="userSpaceOnUse" x1="489.4653" y1="94.3243" x2="489.4653" y2="89">
				<stop  offset="0" style="stop-color:#004E7A"/>
				<stop  offset="6.901193e-02" style="stop-color:#00638E"/>
				<stop  offset="0.1581" style="stop-color:#4080A6"/>
				<stop  offset="0.2524" style="stop-color:#749EBC"/>
				<stop  offset="0.3504" style="stop-color:#9DB9D0"/>
				<stop  offset="0.4532" style="stop-color:#BED1E1"/>
				<stop  offset="0.5623" style="stop-color:#D8E4EE"/>
				<stop  offset="0.6807" style="stop-color:#EAF1F7"/>
				<stop  offset="0.815" style="stop-color:#F5FAFC"/>
				<stop  offset="1" style="stop-color:#F9FCFE"/>
			</linearGradient>
			<ellipse class="st17" cx="489.5" cy="91.7" rx="2.7" ry="2.7"/>
			<linearGradient id="SVGID_18_" gradientUnits="userSpaceOnUse" x1="495.0547" y1="94.3243" x2="495.0547" y2="89">
				<stop  offset="0" style="stop-color:#004E7A"/>
				<stop  offset="6.901193e-02" style="stop-color:#00638E"/>
				<stop  offset="0.1581" style="stop-color:#4080A6"/>
				<stop  offset="0.2524" style="stop-color:#749EBC"/>
				<stop  offset="0.3504" style="stop-color:#9DB9D0"/>
				<stop  offset="0.4532" style="stop-color:#BED1E1"/>
				<stop  offset="0.5623" style="stop-color:#D8E4EE"/>
				<stop  offset="0.6807" style="stop-color:#EAF1F7"/>
				<stop  offset="0.815" style="stop-color:#F5FAFC"/>
				<stop  offset="1" style="stop-color:#F9FCFE"/>
			</linearGradient>
			<ellipse class="st18" cx="495.1" cy="91.7" rx="2.7" ry="2.7"/>
			<linearGradient id="SVGID_19_" gradientUnits="userSpaceOnUse" x1="500.6436" y1="94.3243" x2="500.6436" y2="89">
				<stop  offset="0" style="stop-color:#004E7A"/>
				<stop  offset="6.901193e-02" style="stop-color:#00638E"/>
				<stop  offset="0.1581" style="stop-color:#4080A6"/>
				<stop  offset="0.2524" style="stop-color:#749EBC"/>
				<stop  offset="0.3504" style="stop-color:#9DB9D0"/>
				<stop  offset="0.4532" style="stop-color:#BED1E1"/>
				<stop  offset="0.5623" style="stop-color:#D8E4EE"/>
				<stop  offset="0.6807" style="stop-color:#EAF1F7"/>
				<stop  offset="0.815" style="stop-color:#F5FAFC"/>
				<stop  offset="1" style="stop-color:#F9FCFE"/>
			</linearGradient>
			<ellipse class="st19" cx="500.6" cy="91.7" rx="2.7" ry="2.7"/>
			<linearGradient id="SVGID_20_" gradientUnits="userSpaceOnUse" x1="506.2329" y1="94.3243" x2="506.2329" y2="89">
				<stop  offset="0" style="stop-color:#004E7A"/>
				<stop  offset="6.901193e-02" style="stop-color:#00638E"/>
				<stop  offset="0.1581" style="stop-color:#4080A6"/>
				<stop  offset="0.2524" style="stop-color:#749EBC"/>
				<stop  offset="0.3504" style="stop-color:#9DB9D0"/>
				<stop  offset="0.4532" style="stop-color:#BED1E1"/>
				<stop  offset="0.5623" style="stop-color:#D8E4EE"/>
				<stop  offset="0.6807" style="stop-color:#EAF1F7"/>
				<stop  offset="0.815" style="stop-color:#F5FAFC"/>
				<stop  offset="1" style="stop-color:#F9FCFE"/>
			</linearGradient>
			<ellipse class="st20" cx="506.2" cy="91.7" rx="2.7" ry="2.7"/>
			<linearGradient id="SVGID_21_" gradientUnits="userSpaceOnUse" x1="511.8218" y1="94.3243" x2="511.8218" y2="89">
				<stop  offset="0" style="stop-color:#004E7A"/>
				<stop  offset="6.901193e-02" style="stop-color:#00638E"/>
				<stop  offset="0.1581" style="stop-color:#4080A6"/>
				<stop  offset="0.2524" style="stop-color:#749EBC"/>
				<stop  offset="0.3504" style="stop-color:#9DB9D0"/>
				<stop  offset="0.4532" style="stop-color:#BED1E1"/>
				<stop  offset="0.5623" style="stop-color:#D8E4EE"/>
				<stop  offset="0.6807" style="stop-color:#EAF1F7"/>
				<stop  offset="0.815" style="stop-color:#F5FAFC"/>
				<stop  offset="1" style="stop-color:#F9FCFE"/>
			</linearGradient>
			<ellipse class="st21" cx="511.8" cy="91.7" rx="2.7" ry="2.7"/>
			<linearGradient id="SVGID_22_" gradientUnits="userSpaceOnUse" x1="517.4111" y1="94.3243" x2="517.4111" y2="89">
				<stop  offset="0" style="stop-color:#004E7A"/>
				<stop  offset="6.901193e-02" style="stop-color:#00638E"/>
				<stop  offset="0.1581" style="stop-color:#4080A6"/>
				<stop  offset="0.2524" style="stop-color:#749EBC"/>
				<stop  offset="0.3504" style="stop-color:#9DB9D0"/>
				<stop  offset="0.4532" style="stop-color:#BED1E1"/>
				<stop  offset="0.5623" style="stop-color:#D8E4EE"/>
				<stop  offset="0.6807" style="stop-color:#EAF1F7"/>
				<stop  offset="0.815" style="stop-color:#F5FAFC"/>
				<stop  offset="1" style="stop-color:#F9FCFE"/>
			</linearGradient>
			<ellipse class="st22" cx="517.4" cy="91.7" rx="2.7" ry="2.7"/>
			<linearGradient id="SVGID_23_" gradientUnits="userSpaceOnUse" x1="523.0005" y1="94.3243" x2="523.0005" y2="89">
				<stop  offset="0" style="stop-color:#004E7A"/>
				<stop  offset="6.901193e-02" style="stop-color:#00638E"/>
				<stop  offset="0.1581" style="stop-color:#4080A6"/>
				<stop  offset="0.2524" style="stop-color:#749EBC"/>
				<stop  offset="0.3504" style="stop-color:#9DB9D0"/>
				<stop  offset="0.4532" style="stop-color:#BED1E1"/>
				<stop  offset="0.5623" style="stop-color:#D8E4EE"/>
				<stop  offset="0.6807" style="stop-color:#EAF1F7"/>
				<stop  offset="0.815" style="stop-color:#F5FAFC"/>
				<stop  offset="1" style="stop-color:#F9FCFE"/>
			</linearGradient>
			<ellipse class="st23" cx="523" cy="91.7" rx="2.7" ry="2.7"/>
			<linearGradient id="SVGID_24_" gradientUnits="userSpaceOnUse" x1="528.5898" y1="94.3243" x2="528.5898" y2="89">
				<stop  offset="0" style="stop-color:#004E7A"/>
				<stop  offset="6.901193e-02" style="stop-color:#00638E"/>
				<stop  offset="0.1581" style="stop-color:#4080A6"/>
				<stop  offset="0.2524" style="stop-color:#749EBC"/>
				<stop  offset="0.3504" style="stop-color:#9DB9D0"/>
				<stop  offset="0.4532" style="stop-color:#BED1E1"/>
				<stop  offset="0.5623" style="stop-color:#D8E4EE"/>
				<stop  offset="0.6807" style="stop-color:#EAF1F7"/>
				<stop  offset="0.815" style="stop-color:#F5FAFC"/>
				<stop  offset="1" style="stop-color:#F9FCFE"/>
			</linearGradient>
			<path class="st24" d="M531.3,91.7c0,1.5-1.2,2.7-2.7,2.7c-1.5,0-2.7-1.2-2.7-2.7c0-1.5,1.2-2.7,2.7-2.7
				C530.1,89,531.3,90.2,531.3,91.7z"/>
			<linearGradient id="SVGID_25_" gradientUnits="userSpaceOnUse" x1="534.1787" y1="94.3243" x2="534.1787" y2="89">
				<stop  offset="0" style="stop-color:#004E7A"/>
				<stop  offset="6.901193e-02" style="stop-color:#00638E"/>
				<stop  offset="0.1581" style="stop-color:#4080A6"/>
				<stop  offset="0.2524" style="stop-color:#749EBC"/>
				<stop  offset="0.3504" style="stop-color:#9DB9D0"/>
				<stop  offset="0.4532" style="stop-color:#BED1E1"/>
				<stop  offset="0.5623" style="stop-color:#D8E4EE"/>
				<stop  offset="0.6807" style="stop-color:#EAF1F7"/>
				<stop  offset="0.815" style="stop-color:#F5FAFC"/>
				<stop  offset="1" style="stop-color:#F9FCFE"/>
			</linearGradient>
			<ellipse class="st25" cx="534.2" cy="91.7" rx="2.7" ry="2.7"/>
			<linearGradient id="SVGID_26_" gradientUnits="userSpaceOnUse" x1="539.7676" y1="94.3243" x2="539.7676" y2="89">
				<stop  offset="0" style="stop-color:#004E7A"/>
				<stop  offset="6.901193e-02" style="stop-color:#00638E"/>
				<stop  offset="0.1581" style="stop-color:#4080A6"/>
				<stop  offset="0.2524" style="stop-color:#749EBC"/>
				<stop  offset="0.3504" style="stop-color:#9DB9D0"/>
				<stop  offset="0.4532" style="stop-color:#BED1E1"/>
				<stop  offset="0.5623" style="stop-color:#D8E4EE"/>
				<stop  offset="0.6807" style="stop-color:#EAF1F7"/>
				<stop  offset="0.815" style="stop-color:#F5FAFC"/>
				<stop  offset="1" style="stop-color:#F9FCFE"/>
			</linearGradient>
			<path class="st26" d="M542.5,91.7c0,1.5-1.2,2.7-2.7,2.7c-1.5,0-2.7-1.2-2.7-2.7c0-1.5,1.2-2.7,2.7-2.7
				C541.2,89,542.5,90.2,542.5,91.7z"/>
			<linearGradient id="SVGID_27_" gradientUnits="userSpaceOnUse" x1="545.3569" y1="94.3243" x2="545.3569" y2="89">
				<stop  offset="0" style="stop-color:#004E7A"/>
				<stop  offset="6.901193e-02" style="stop-color:#00638E"/>
				<stop  offset="0.1581" style="stop-color:#4080A6"/>
				<stop  offset="0.2524" style="stop-color:#749EBC"/>
				<stop  offset="0.3504" style="stop-color:#9DB9D0"/>
				<stop  offset="0.4532" style="stop-color:#BED1E1"/>
				<stop  offset="0.5623" style="stop-color:#D8E4EE"/>
				<stop  offset="0.6807" style="stop-color:#EAF1F7"/>
				<stop  offset="0.815" style="stop-color:#F5FAFC"/>
				<stop  offset="1" style="stop-color:#F9FCFE"/>
			</linearGradient>
			<ellipse class="st27" cx="545.4" cy="91.7" rx="2.7" ry="2.7"/>
			<linearGradient id="SVGID_28_" gradientUnits="userSpaceOnUse" x1="550.9463" y1="94.3243" x2="550.9463" y2="89">
				<stop  offset="0" style="stop-color:#004E7A"/>
				<stop  offset="6.901193e-02" style="stop-color:#00638E"/>
				<stop  offset="0.1581" style="stop-color:#4080A6"/>
				<stop  offset="0.2524" style="stop-color:#749EBC"/>
				<stop  offset="0.3504" style="stop-color:#9DB9D0"/>
				<stop  offset="0.4532" style="stop-color:#BED1E1"/>
				<stop  offset="0.5623" style="stop-color:#D8E4EE"/>
				<stop  offset="0.6807" style="stop-color:#EAF1F7"/>
				<stop  offset="0.815" style="stop-color:#F5FAFC"/>
				<stop  offset="1" style="stop-color:#F9FCFE"/>
			</linearGradient>
			<ellipse class="st28" cx="550.9" cy="91.7" rx="2.7" ry="2.7"/>
		</g>
	</g>
</g>
<g id="Lag_5">
	<circle class="st29" cx="183" cy="269.5" r="40"/>
</g>
<g id="Lag_4">
	<g>
		<g>
			<path class="st30" d="M355.8,69.8V75h-9v-5.2c-5.5,1.9-9.5,7.1-9.5,13.2c0,7.7,6.3,14,14,14c7.7,0,14-6.3,14-14
				C365.2,76.8,361.3,71.6,355.8,69.8z"/>
		</g>
		<g>
			<path class="st30" d="M355.8,69.8V75h-9v-5.2c-5.5,1.9-9.5,7.1-9.5,13.2c0,7.7,6.3,14,14,14c7.7,0,14-6.3,14-14
				C365.2,76.8,361.3,71.6,355.8,69.8z"/>
		</g>
	</g>
	<g>
		<g>
			<path class="st30" d="M298.2,69.8V75h-9v-5.2c-5.5,1.9-9.5,7.1-9.5,13.2c0,7.7,6.3,14,14,14c7.7,0,14-6.3,14-14
				C307.8,76.8,303.8,71.6,298.2,69.8z"/>
		</g>
		<g>
			<path class="st30" d="M298.2,69.8V75h-9v-5.2c-5.5,1.9-9.5,7.1-9.5,13.2c0,7.7,6.3,14,14,14c7.7,0,14-6.3,14-14
				C307.8,76.8,303.8,71.6,298.2,69.8z"/>
		</g>
	</g>
	<g>
		<g>
			<g>
				<path class="st30" d="M186,220.8v5.2h-9v-5.2c-5.5,1.9-9.5,7.1-9.5,13.2c0,7.7,6.3,14,14,14c7.7,0,14-6.3,14-14
					C195.5,227.8,191.5,222.6,186,220.8z"/>
			</g>
			<g>
				<path class="st30" d="M186,220.8v5.2h-9v-5.2c-5.5,1.9-9.5,7.1-9.5,13.2c0,7.7,6.3,14,14,14c7.7,0,14-6.3,14-14
					C195.5,227.8,191.5,222.6,186,220.8z"/>
			</g>
		</g>
		<g>
			<g>
				<path class="st30" d="M186,321v-5.2h-9v5.2c-5.5-1.9-9.5-7.1-9.5-13.2c0-7.7,6.3-14,14-14c7.7,0,14,6.3,14,14
					C195.5,313.9,191.5,319.1,186,321z"/>
			</g>
			<g>
				<path class="st30" d="M186,321v-5.2h-9v5.2c-5.5-1.9-9.5-7.1-9.5-13.2c0-7.7,6.3-14,14-14c7.7,0,14,6.3,14,14
					C195.5,313.9,191.5,319.1,186,321z"/>
			</g>
		</g>
	</g>
	<g>
		<g>
			<g>
				<path class="st30" d="M131.4,266.4h5.2v9h-5.2c1.9,5.5,7.1,9.5,13.2,9.5c7.7,0,14-6.3,14-14c0-7.7-6.3-14-14-14
					C138.5,256.9,133.3,260.9,131.4,266.4z"/>
			</g>
			<g>
				<path class="st30" d="M131.4,266.4h5.2v9h-5.2c1.9,5.5,7.1,9.5,13.2,9.5c7.7,0,14-6.3,14-14c0-7.7-6.3-14-14-14
					C138.5,256.9,133.3,260.9,131.4,266.4z"/>
			</g>
		</g>
		<g>
			<g>
				<path class="st30" d="M231.6,266.4h-5.2v9h5.2c-1.9,5.5-7.1,9.5-13.2,9.5c-7.7,0-14-6.3-14-14c0-7.7,6.3-14,14-14
					C224.5,256.9,229.7,260.9,231.6,266.4z"/>
			</g>
			<g>
				<path class="st30" d="M231.6,266.4h-5.2v9h5.2c-1.9,5.5-7.1,9.5-13.2,9.5c-7.7,0-14-6.3-14-14c0-7.7,6.3-14,14-14
					C224.5,256.9,229.7,260.9,231.6,266.4z"/>
			</g>
		</g>
	</g>
	<g>
		<g>
			<path class="st30" d="M229.8,105.7l4.9,1.9l-3.3,8.4l-4.9-1.9c-0.3,5.8,3.1,11.4,8.8,13.7c7.2,2.9,15.3-0.7,18.2-7.8
				c2.9-7.2-0.7-15.3-7.8-18.2C239.9,99.5,233.5,101.2,229.8,105.7z"/>
		</g>
		<g>
			<path class="st30" d="M229.8,105.7l4.9,1.9l-3.3,8.4l-4.9-1.9c-0.3,5.8,3.1,11.4,8.8,13.7c7.2,2.9,15.3-0.7,18.2-7.8
				c2.9-7.2-0.7-15.3-7.8-18.2C239.9,99.5,233.5,101.2,229.8,105.7z"/>
		</g>
	</g>
	<g>
		<g>
			<path class="st30" d="M216.6,130.1l2,4.8l-8.3,3.5l-2-4.8c-4.4,3.9-6,10.2-3.6,15.9c3,7.1,11.2,10.5,18.3,7.5
				c7.1-3,10.5-11.2,7.5-18.3C228.1,132.9,222.5,129.7,216.6,130.1z"/>
		</g>
		<g>
			<path class="st30" d="M216.6,130.1l2,4.8l-8.3,3.5l-2-4.8c-4.4,3.9-6,10.2-3.6,15.9c3,7.1,11.2,10.5,18.3,7.5
				c7.1-3,10.5-11.2,7.5-18.3C228.1,132.9,222.5,129.7,216.6,130.1z"/>
		</g>
	</g>
	<g>
		<g>
			<path class="st30" d="M185,133.5l-1.7,5l-8.5-3l1.7-5c-5.8,0-11.3,3.6-13.3,9.4c-2.5,7.3,1.3,15.3,8.6,17.8
				c7.3,2.5,15.3-1.3,17.8-8.6C191.6,143.3,189.6,137.1,185,133.5z"/>
		</g>
		<g>
			<path class="st30" d="M185,133.5l-1.7,5l-8.5-3l1.7-5c-5.8,0-11.3,3.6-13.3,9.4c-2.5,7.3,1.3,15.3,8.6,17.8
				c7.3,2.5,15.3-1.3,17.8-8.6C191.6,143.3,189.6,137.1,185,133.5z"/>
		</g>
	</g>
	<g>
		<g>
			<path class="st30" d="M162.6,116.9l-5,1.6l-2.8-8.6l5-1.6c-3.5-4.7-9.7-6.8-15.5-4.9c-7.4,2.4-11.4,10.3-9,17.6
				c2.4,7.4,10.3,11.4,17.6,9C158.8,128.2,162.5,122.8,162.6,116.9z"/>
		</g>
		<g>
			<path class="st30" d="M162.6,116.9l-5,1.6l-2.8-8.6l5-1.6c-3.5-4.7-9.7-6.8-15.5-4.9c-7.4,2.4-11.4,10.3-9,17.6
				c2.4,7.4,10.3,11.4,17.6,9C158.8,128.2,162.5,122.8,162.6,116.9z"/>
		</g>
	</g>
	<g>
		<g>
			<path class="st30" d="M438.4,130.6l1.9,4.9l-8.4,3.3l-1.9-4.9c-4.4,3.8-6.2,10.1-3.9,15.8c2.9,7.2,11,10.7,18.2,7.8
				c7.2-2.9,10.7-11,7.8-18.2C449.9,133.6,444.2,130.3,438.4,130.6z"/>
		</g>
		<g>
			<path class="st30" d="M438.4,130.6l1.9,4.9l-8.4,3.3l-1.9-4.9c-4.4,3.8-6.2,10.1-3.9,15.8c2.9,7.2,11,10.7,18.2,7.8
				c7.2-2.9,10.7-11,7.8-18.2C449.9,133.6,444.2,130.3,438.4,130.6z"/>
		</g>
	</g>
	<g>
		<g>
			<path class="st30" d="M397,121.7l-4.9,1.8l3.1,8.4l4.9-1.8c0.2,5.8-3.3,11.4-9.1,13.5c-7.2,2.7-15.3-1-18-8.2
				c-2.7-7.2,1-15.3,8.2-18C387,115.3,393.3,117.2,397,121.7z"/>
		</g>
		<g>
			<path class="st30" d="M397,121.7l-4.9,1.8l3.1,8.4l4.9-1.8c0.2,5.8-3.3,11.4-9.1,13.5c-7.2,2.7-15.3-1-18-8.2
				c-2.7-7.2,1-15.3,8.2-18C387,115.3,393.3,117.2,397,121.7z"/>
		</g>
	</g>
	<rect x="169.4" y="13.2" class="st31" width="9" height="9"/>
	<rect x="155.6" y="34.4" class="st31" width="9" height="9"/>
	<rect x="214.1" y="25" class="st31" width="9" height="9"/>
	<rect x="323.9" y="17" class="st31" width="9" height="9"/>
	<rect x="331.4" y="38.8" class="st31" width="9" height="9"/>
	<rect x="346.5" y="66" class="st31" width="9" height="9"/>
	<rect x="346.5" y="117.5" class="st31" width="9" height="9"/>
	<rect x="301" y="36.9" class="st31" width="9" height="9"/>
	<rect x="289" y="66" class="st31" width="9" height="9"/>
	<rect x="289" y="117.5" class="st31" width="9" height="9"/>
	<rect x="193.6" y="48" class="st31" width="9" height="9"/>
	<rect x="171.8" y="74" class="st31" width="9" height="9"/>
	<rect x="196.1" y="99.5" class="st31" width="9" height="9"/>
</g>
<g id="Lag_6">
	<ellipse class="st32" cx="52.8" cy="87" rx="8.8" ry="21"/>
	<ellipse class="st32" cx="107" cy="87" rx="8.8" ry="21"/>
	<g>
		<path class="st32" d="M74.7,51.5c-0.8,1.8-2.5,3-4.6,3c-2,0-3.8-1.2-4.6-3c-3,3.5-5.1,10.5-5.1,18.5c0,11.6,4.3,21,9.6,21
			c5.3,0,9.6-9.4,9.6-21C79.8,62,77.7,55.1,74.7,51.5z"/>
	</g>
	<g>
		<path class="st32" d="M94.2,51.5c-0.8,1.8-2.5,3-4.6,3c-2,0-3.8-1.2-4.6-3C82.1,55.1,80,62,80,70c0,11.6,4.3,21,9.6,21
			c5.3,0,9.6-9.4,9.6-21C99.3,62,97.2,55.1,94.2,51.5z"/>
	</g>
	<circle class="st33" cx="89.7" cy="49.3" r="4.5"/>
	<circle class="st33" cx="96.7" cy="15.6" r="4.5"/>
	<circle class="st33" cx="47.7" cy="19.8" r="4.5"/>
	<circle class="st33" cx="68.8" cy="14.4" r="4.5"/>
	<circle class="st33" cx="80.3" cy="30.3" r="4.5"/>
	<circle class="st33" cx="70.2" cy="49.2" r="4.5"/>
</g>
<g id="Lag_7">
	<g>
		<line class="st34" x1="297.3" y1="60.5" x2="302.3" y2="48.7"/>
		<polygon points="301.8,59.3 295.8,63.9 294.9,56.4 		"/>
	</g>
	<g>
		<line class="st34" x1="346" y1="60.3" x2="339.2" y2="49.5"/>
		<polygon points="347.7,55.9 347.9,63.4 341.3,59.9 		"/>
	</g>
	<g>
		<line class="st29" x1="222.2" y1="233.5" x2="374" y2="153"/>
		<polygon class="st35" points="226.5,235.4 219.1,235.3 222.9,228.8 		"/>
	</g>
	<g>
		<polyline class="st36" points="107.8,117 98.9,132.7 116.3,136.9 107.7,152.4 125,156.4 116.1,171.9 133.6,175.7 124.7,191.2 
			141.6,196.2 132.5,211.3 150.4,215.3 154,224.2 		"/>
		<polygon class="st35" points="156.3,229.8 149.3,224.6 157.3,221.1 		"/>
	</g>
	<g>
		<line class="st29" x1="69.9" y1="96.7" x2="69.5" y2="152.6"/>
		<polygon class="st35" points="66.1,99.6 69.9,93.1 73.6,99.6 		"/>
	</g>
	<g>
		<line class="st29" x1="184" y1="168.5" x2="183.1" y2="214.2"/>
		<polygon class="st35" points="180.1,171.2 184.1,164.8 187.6,171.5 		"/>
	</g>
	<g>
		<line class="st34" x1="293.7" y1="111.9" x2="293.7" y2="99"/>
		<polygon points="297.5,109 293.7,115.5 290,109 		"/>
	</g>
	<g>
		<line class="st34" x1="351.3" y1="111.9" x2="351.3" y2="99"/>
		<polygon points="355.1,109 351.3,115.5 347.6,109 		"/>
	</g>
	<line class="st37" x1="106.1" y1="30.1" x2="88.7" y2="30.1"/>
	<line class="st37" x1="225.3" y1="29.4" x2="244.6" y2="29.4"/>
	<line class="st37" x1="509.2" y1="38.1" x2="509.2" y2="72.3"/>
</g>
<g id="txt">
	<text transform="matrix(1 0 0 1 246.0005 33.5557)" class="st38 st39">Glukose</text>
	<text transform="matrix(1 0 0 1 109.3335 33.5566)" class="st38 st39">Insulin</text>
	<text transform="matrix(1 0 0 1 476.667 33.5562)" class="st38 st39">Cellemembran</text>
	<text transform="matrix(1 0 0 1 22.667 166.668)" class="st35 st38 st39">Insulinreceptor</text>
	<text transform="matrix(1 0 0 1 92.9443 188.0908)" class="st35 st38 st39">Signal</text>
	<text transform="matrix(1 0 0 1 167.334 274.667)" class="st35 st38 st39">GLUT4</text>
</g>
</svg>
