<?xml version="1.0" encoding="utf-8"?>
<!-- Generator: Adobe Illustrator 19.1.0, SVG Export Plug-In . SVG Version: 6.00 Build 0)  -->
<svg version="1.1" xmlns="http://www.w3.org/2000/svg" xmlns:xlink="http://www.w3.org/1999/xlink" x="0px" y="0px"
	 viewBox="0 0 566.9 487.6" style="enable-background:new 0 0 566.9 487.6;" xml:space="preserve">
<style type="text/css">
	.st0{fill:url(#SVGID_1_);}
	.st1{fill:url(#SVGID_2_);}
	.st2{fill:#A2161E;}
	.st3{fill:none;stroke:#00675A;stroke-width:5;}
	.st4{fill:#EB6A27;}
	.st5{fill:#35B095;}
	.st6{fill:#69696B;}
	.st7{fill:#FFE200;}
	.st8{fill:#009036;}
	.st9{fill:#E2001A;}
	.st10{fill:#008BD0;}
	.st11{fill:#FFFFFF;}
	.st12{fill:none;stroke:#000000;stroke-width:0.75;}
	.st13{fill:none;stroke:#FFFFFF;stroke-width:0.75;}
	.st14{fill:#8D0E14;}
	.st15{fill:none;stroke:#000000;stroke-width:1.9839;}
	.st16{fill:url(#SVGID_3_);stroke:#FFFFFF;stroke-width:0.75;}
	.st17{fill:#5591AA;stroke:#FFFFFF;stroke-width:0.75;}
	.st18{fill:url(#SVGID_4_);stroke:#FFFFFF;stroke-width:0.75;}
	.st19{fill:#BDE4F7;}
	.st20{font-family:'Verdana';}
	.st21{font-size:9px;}
</style>
<g id="Lag_6">
	<linearGradient id="SVGID_1_" gradientUnits="userSpaceOnUse" x1="0" y1="130.0034" x2="167.4717" y2="130.0034">
		<stop  offset="5.617980e-03" style="stop-color:#00388C"/>
		<stop  offset="0.1936" style="stop-color:#125BA3"/>
		<stop  offset="0.4286" style="stop-color:#2987C4"/>
		<stop  offset="0.6249" style="stop-color:#40A7DA"/>
		<stop  offset="0.7723" style="stop-color:#4FBBE7"/>
		<stop  offset="0.8539" style="stop-color:#55C3EC"/>
	</linearGradient>
	<rect class="st0" width="167.5" height="260"/>
</g>
<g id="Lag_1">
	<radialGradient id="SVGID_2_" cx="345.9648" cy="129.935" r="181.2569" gradientUnits="userSpaceOnUse">
		<stop  offset="0" style="stop-color:#EB6A27"/>
		<stop  offset="0.3846" style="stop-color:#EA6829"/>
		<stop  offset="0.5971" style="stop-color:#E9602E"/>
		<stop  offset="0.7676" style="stop-color:#E85335"/>
		<stop  offset="0.915" style="stop-color:#E63E3C"/>
		<stop  offset="1" style="stop-color:#E4283F"/>
	</radialGradient>
	<path class="st1" d="M165.7,259.7c-20.2-35.5-40.7-84.6-40.7-128.4c0-51.8,16.1-91.8,43.6-131.3h398.3v259.9L165.7,259.7z"/>
	<path class="st2" d="M153.4,259.7c-20.2-35.5-40.7-84.6-40.7-128.4c0-51.8,16.1-91.8,43.6-131.3h13.8
		c-27.5,39.5-43.6,79.5-43.6,131.3c0,43.8,20.5,92.9,40.7,128.4H153.4z"/>
</g>
<g id="Lag_3">
	<circle class="st3" cx="354.2" cy="150.3" r="83.6"/>
</g>
<g id="huller_i_membran">
	<polygon class="st4" points="423.8,103.7 422.5,109 413.8,97.1 419.3,97.5 420.6,92.2 429.2,104.1 	"/>
	<polygon class="st4" points="429.7,186.9 424,189.8 431.2,171.2 433.4,177.2 439,174.2 431.8,192.8 	"/>
	<polygon class="st4" points="391,226 387,223.5 394,219 394.6,223.7 398.5,226 391.5,230.5 	"/>
	<polygon class="st4" points="282.9,107.5 288.6,106.3 280.1,120.6 278.5,115 272.9,116.3 281.4,102 	"/>
	<polygon class="st4" points="313.9,223.5 314.5,218.9 321.5,223.4 317.6,225.9 317,230.4 310,225.9 	"/>
</g>
<g id="Lag_4">
	<circle class="st5" cx="354.2" cy="150.3" r="81.2"/>
</g>
<g id="DNA">
	<g>
		<path class="st6" d="M308.9,182.2c0,0-1.3-0.2-3.9,2.3c-2.7,2.5-10.3,9.5-10.3,9.5v4c0,0,12.5-12,13.3-12.7
			c0.8-0.7,3.2-2.6,4.1-2.2c-0.3-0.5-1.6-0.9-1.6-0.9L308.9,182.2"/>
		<path class="st6" d="M355.1,182.2c0,0-1.3-0.2-3.9,2.3c-2.7,2.5-17,17.3-18.8,18.5c1.1,0.1,2.1,1,4.3-0.3c2.2-1.3,4.9-4.4,4.9-4.4
			s11.7-12.2,12.5-12.9c0.8-0.7,3.2-2.6,4.1-2.2c-0.3-0.5-1.6-0.9-1.6-0.9L355.1,182.2"/>
		<path class="st6" d="M340.2,182.3c-0.5,0.1-1.6,0-3.9,2.2c-2.7,2.5-17,17.3-18.8,18.5c1.1,0.1,2.1,1,4.3-0.3
			c2.2-1.3,4.9-4.4,4.9-4.4s11.7-12.2,12.5-12.9s3.8-2.7,4.8-2.3c-0.3-0.5-1.4-0.7-1.7-0.9c-0.3-0.2-1.6,0-1.6,0L340.2,182.3z"/>
		<path class="st6" d="M382.1,185.2c-2.7,2.5-16.6,16.6-18.3,17.8c1.1,0.1,2.1,1,4.3-0.3c2.2-1.3,4.9-4.4,4.9-4.4s7.7-7.9,8.5-8.6"
			/>
		<rect x="305.9" y="185.1" class="st7" width="1.7" height="4.1"/>
		<rect x="344.1" y="183.4" class="st7" width="1.7" height="4.1"/>
		<rect x="315.1" y="195.4" class="st7" width="1.7" height="7.5"/>
		<rect x="333.6" y="195.5" class="st7" width="1.7" height="7.5"/>
		<rect x="315.1" y="187" class="st8" width="1.7" height="8.1"/>
		<rect x="333.6" y="188.4" class="st8" width="1.7" height="6.8"/>
		<rect x="305.9" y="189.6" class="st8" width="1.7" height="3.7"/>
		<rect x="344.1" y="187.9" class="st8" width="1.7" height="4.6"/>
		<rect x="319.8" y="197.8" class="st9" width="1.7" height="4.3"/>
		<rect x="328.5" y="193.7" class="st9" width="1.7" height="4.3"/>
		<rect x="310.3" y="182.8" class="st9" width="1.7" height="8.7"/>
		<rect x="338.8" y="192.7" class="st9" width="1.7" height="5.9"/>
		<rect x="319.8" y="193.6" class="st10" width="1.7" height="3.8"/>
		<rect x="328.5" y="198.2" class="st10" width="1.7" height="3.7"/>
		<rect x="310.3" y="191.9" class="st10" width="1.7" height="8"/>
		<rect x="352.1" y="185.1" class="st9" width="1.7" height="4.1"/>
		<rect x="361.3" y="195.4" class="st9" width="1.7" height="7.5"/>
		<rect x="361.3" y="187" class="st10" width="1.7" height="8.1"/>
		<rect x="352.1" y="189.6" class="st10" width="1.7" height="3.7"/>
		<rect x="374.5" y="194.2" class="st8" width="1.7" height="4.1"/>
		<rect x="374.5" y="198.7" class="st7" width="1.7" height="3.7"/>
		<rect x="366" y="197.8" class="st8" width="1.7" height="4.3"/>
		<rect x="356.6" y="182.8" class="st8" width="1.7" height="8.7"/>
		<rect x="366" y="193.6" class="st7" width="1.7" height="3.8"/>
		<rect x="356.6" y="191.9" class="st7" width="1.7" height="8"/>
		<rect x="338.8" y="183.5" class="st10" width="1.7" height="8.9"/>
		<path d="M308.9,182.2c0,0,2.4-0.8,6.2,5c3.8,5.8,9.8,15.2,13.3,16c4.1,0.3,6.8,0.1,6.8,0.1s-5.2-0.4-9.6-6.2
			c-4.6-6.2-8.2-13.7-11.8-15C309.9,182,308.9,182.2,308.9,182.2z"/>
		<path d="M355.2,182.2c0,0,2.4-0.8,6.2,5c3.8,5.8,9.8,15.2,13.3,16c4.1,0.3,6.4,0,6.4,0s-4.9-0.3-9.2-6.1
			c-4.6-6.2-8.1-13.7-11.8-15C356.2,182,355.2,182.2,355.2,182.2z"/>
		<path d="M341,182.2c0,0,2.4-0.8,6.2,5c3.8,5.8,9.8,15.2,13.3,16c4.1,0.3,6.4,0,6.4,0s-4.9-0.3-9.2-6.1c-4.6-6.2-8.2-13.7-11.8-15
			C342,182,341,182.2,341,182.2z"/>
		<path d="M293.7,182.2c0,0,2.4-0.8,6.2,5c3.8,5.8,9.8,15.2,13.3,16c4.1,0.3,6.4,0,6.4,0s-4.9-0.3-9.2-6.1
			c-4.6-6.2-8.1-13.7-11.8-15C294.7,182,293.7,182.2,293.7,182.2z"/>
	</g>
</g>
<g id="steroidhorm._og_recept.">
	<polygon class="st11" points="166.1,110 164,115.5 158.2,115.2 156.7,109.5 161.6,106.3 	"/>
	<polygon class="st11" points="228.8,110 226.7,115.5 220.8,115.2 219.3,109.5 224.2,106.3 	"/>
	<g>
		<polygon class="st11" points="308.6,160.9 306.5,166.3 300.6,166 299.1,160.4 304,157.2 		"/>
		<g>
			<g>
				<path d="M308.2,162l-1.4,4.3l-5.9,0l-1.5-4.4c-2.3,2-3.9,5.6-3.9,9.6c0,6.3,3.7,11.3,8.2,11.3s8.2-5.1,8.2-11.3
					C312.1,167.6,310.5,164,308.2,162z"/>
			</g>
		</g>
	</g>
	<g>
		<g>
			<path d="M228.4,114.4l-1.4,4.3l-5.9,0l-1.5-4.4c-2.3,2-3.9,5.6-3.9,9.6c0,6.3,3.7,11.3,8.2,11.3c4.5,0,8.2-5.1,8.2-11.3
				C232.3,119.9,230.7,116.4,228.4,114.4z"/>
		</g>
	</g>
</g>
<g id="Lag_10">
</g>
<g id="pile">
	<g>
		<line class="st12" x1="149.2" y1="110.5" x2="87.6" y2="110.5"/>
		<polygon points="146.1,106.5 153,110.5 146.1,114.5 		"/>
	</g>
	<g>
		<line class="st12" x1="210.6" y1="110.5" x2="175.9" y2="110.5"/>
		<polygon points="207.4,106.5 214.4,110.5 207.4,114.5 		"/>
	</g>
	<g>
		<polyline class="st12" points="304.2,150.3 304.2,110.7 233.7,110.7 		"/>
		<polygon points="308.2,147.2 304.2,154.1 300.2,147.2 		"/>
	</g>
	<line class="st13" x1="159.9" y1="39.4" x2="141.7" y2="39.4"/>
	<line class="st13" x1="224.5" y1="103" x2="224.5" y2="91.5"/>
	<line class="st13" x1="224.5" y1="149" x2="224.5" y2="137.5"/>
	<line class="st13" x1="353" y1="44.3" x2="353" y2="66.8"/>
	<line class="st13" x1="505" y1="123" x2="505" y2="138.5"/>
	<line class="st13" x1="289.8" y1="189.5" x2="249.2" y2="189.5"/>
	<line class="st13" x1="389.5" y1="185.4" x2="389.5" y2="237.7"/>
	<line class="st13" x1="422" y1="188.7" x2="422" y2="214.2"/>
	<line class="st13" x1="502.3" y1="199.1" x2="502.3" y2="236.9"/>
	<g>
		<line class="st12" x1="398.4" y1="181.5" x2="381" y2="181.5"/>
		<polygon points="396.9,177.5 400.4,181.5 396.9,185.5 		"/>
	</g>
	<line class="st12" x1="465.4" y1="181.5" x2="448" y2="181.5"/>
	<polygon points="463.9,177.5 467.4,181.5 463.9,185.5 	"/>
</g>
<g id="proteinkæde__x2B__rib">
	<g>
		<g>
			<g>
				<path class="st14" d="M512.6,182.4c-0.7,0.1-1,0.1-1.8,0.1c0-2.7,0-4,0-6.7c0.7,0,1,0,1.8-0.1
					C512.6,178.3,512.6,179.7,512.6,182.4z"/>
				<path class="st14" d="M515.1,181.9c-0.7,0.2-1,0.2-1.8,0.3c0-2.7,0-4,0-6.7c0.7-0.1,1-0.2,1.8-0.3
					C515.1,177.9,515.1,179.2,515.1,181.9z"/>
				<path class="st11" d="M517.6,181.4c-0.7,0.2-1,0.2-1.7,0.4c0-2.7,0-4,0-6.7c0.7-0.2,1-0.3,1.7-0.4
					C517.6,177.3,517.6,178.6,517.6,181.4z"/>
				<path class="st14" d="M520.1,180.9c-0.7,0.1-1.1,0.2-1.8,0.3c0-2.7,0-4.1,0-6.8c0.7-0.2,1-0.2,1.8-0.4
					C520.1,176.8,520.1,178.1,520.1,180.9z"/>
				<path class="st14" d="M522.6,180.7c-0.7,0-1,0-1.8,0.1c0-2.7,0-4.1,0-6.8c0.7-0.1,1-0.1,1.8-0.1
					C522.6,176.6,522.6,177.9,522.6,180.7z"/>
				<path class="st15" d="M510.9,183.2"/>
			</g>
			<path class="st15" d="M510.9,183.2c4.7,0,7-1.8,11.7-1.8"/>
		</g>
	</g>
	<g>
		<rect x="403.2" y="178" class="st14" width="1.8" height="6.8"/>
		<rect x="405.8" y="178" class="st14" width="1.8" height="6.8"/>
		<rect x="408.2" y="178" class="st11" width="1.8" height="6.8"/>
		<rect x="410.8" y="178" class="st14" width="1.8" height="6.8"/>
		<rect x="413.2" y="178" class="st14" width="1.8" height="6.8"/>
		<rect x="415.8" y="178" class="st9" width="1.8" height="6.8"/>
		<rect x="418.2" y="178" class="st14" width="1.8" height="6.8"/>
		<rect x="420.8" y="178" class="st14" width="1.8" height="6.8"/>
		<rect x="423.2" y="178" class="st14" width="1.8" height="6.8"/>
		<rect x="425.8" y="178" class="st14" width="1.8" height="6.8"/>
		<rect x="428.2" y="178" class="st14" width="1.8" height="6.8"/>
		<rect x="430.8" y="178" class="st9" width="1.8" height="6.8"/>
		<rect x="433.2" y="178" class="st11" width="1.8" height="6.8"/>
		<rect x="435.8" y="178" class="st9" width="1.8" height="6.8"/>
		<rect x="438.2" y="178" class="st14" width="1.8" height="6.8"/>
		<rect x="440.8" y="178" class="st14" width="1.8" height="6.8"/>
		<rect x="443.2" y="178" class="st14" width="1.8" height="6.8"/>
		<line class="st15" x1="403.3" y1="185.5" x2="445" y2="185.5"/>
	</g>
	<g>
		<g>
			<path class="st14" d="M470.9,186.6c-0.7-0.6-1-1-1.8-1.8c0-2.7,0-4,0-6.8c0.7,0.8,1,1.2,1.8,1.8
				C470.9,182.5,470.9,183.9,470.9,186.6z"/>
			<path class="st14" d="M473.4,188.4c-0.7-0.4-1-0.6-1.8-1.2c0-2.7,0-4.1,0-6.8c0.7,0.6,1,0.8,1.8,1.2
				C473.4,184.4,473.4,185.7,473.4,188.4z"/>
			<path class="st11" d="M475.9,189.4c-0.7-0.2-1-0.3-1.8-0.6c0-2.7,0-4,0-6.7c0.7,0.3,1,0.4,1.8,0.6
				C475.9,185.3,475.9,186.7,475.9,189.4z"/>
			<path class="st14" d="M478.4,189.6c-0.7,0-1,0-1.8-0.1c0-2.7,0-4,0-6.8c0.7,0.1,1,0.1,1.8,0.1
				C478.4,185.5,478.4,186.9,478.4,189.6z"/>
			<path class="st14" d="M480.9,189.2c-0.7,0.2-1,0.2-1.8,0.3c0-2.7,0-4.1,0-6.8c0.7-0.1,1-0.1,1.8-0.3
				C480.9,185.1,480.9,186.5,480.9,189.2z"/>
			<path class="st9" d="M483.4,188.3c-0.7,0.3-1,0.4-1.7,0.6c0-2.7,0-4.1,0-6.8c0.7-0.2,1-0.3,1.7-0.6
				C483.4,184.3,483.4,185.6,483.4,188.3z"/>
			<path class="st14" d="M485.9,187.1c-0.7,0.4-1.1,0.5-1.8,0.9c0-2.7,0-4,0-6.8c0.7-0.3,1.1-0.5,1.8-0.9
				C485.9,183.1,485.9,184.4,485.9,187.1z"/>
			<path class="st14" d="M488.4,185.7c-0.7,0.4-1,0.6-1.8,1c0-2.7,0-4.1,0-6.8c0.7-0.4,1-0.6,1.8-1
				C488.4,181.7,488.4,183,488.4,185.7z"/>
			<path class="st14" d="M490.9,184.2c-0.7,0.4-1,0.6-1.7,1.1c0-2.7,0-4.1,0-6.8c0.7-0.4,1-0.6,1.7-1.1
				C490.9,180.2,490.9,181.5,490.9,184.2z"/>
			<path class="st14" d="M493.4,182.8c-0.7,0.4-1.1,0.6-1.8,1c0-2.7,0-4.1,0-6.8c0.7-0.4,1.1-0.6,1.8-1
				C493.4,178.7,493.4,180.1,493.4,182.8z"/>
			<path class="st14" d="M495.9,181.5c-0.7,0.3-1,0.5-1.8,0.9c0-2.7,0-4.1,0-6.8c0.7-0.4,1-0.5,1.8-0.9
				C495.9,177.4,495.9,178.8,495.9,181.5z"/>
			<path class="st9" d="M498.4,180.5c-0.7,0.2-1,0.4-1.8,0.6c0-2.7,0-4.1,0-6.8c0.7-0.3,1-0.4,1.8-0.6
				C498.4,176.5,498.4,177.8,498.4,180.5z"/>
			<path class="st11" d="M500.9,180c-0.7,0.1-1,0.1-1.8,0.3c0-2.7,0-4.1,0-6.8c0.7-0.2,1-0.2,1.8-0.3
				C500.9,175.9,500.9,177.3,500.9,180z"/>
			<path class="st9" d="M503.4,180c-0.7-0.1-1-0.1-1.8-0.1c0-2.7,0-4.1,0-6.8c0.7,0,1,0,1.8,0.1C503.4,176,503.4,177.3,503.4,180z"
				/>
			<path class="st14" d="M505.9,180.7c-0.7-0.3-1-0.4-1.8-0.6c0-2.7,0-4.1,0-6.8c0.7,0.2,1,0.3,1.8,0.6
				C505.9,176.7,505.9,178,505.9,180.7z"/>
			<path class="st14" d="M508.4,182.3c-0.7-0.6-1-0.8-1.8-1.2c0-2.7,0-4.1,0-6.8c0.7,0.4,1,0.6,1.8,1.2
				C508.4,178.2,508.4,179.6,508.4,182.3z"/>
			<path class="st14" d="M510.9,184.7c-0.7-0.8-1-1.2-1.8-1.8c0-2.7,0-4.1,0-6.8c0.7,0.6,1,1,1.8,1.8
				C510.9,180.7,510.9,182,510.9,184.7z"/>
			<path class="st15" d="M469.2,185.5c14.7,15.5,27-15.6,41.7,0"/>
		</g>
	</g>
	
		<linearGradient id="SVGID_3_" gradientUnits="userSpaceOnUse" x1="-69.2962" y1="-90.5873" x2="-56.8931" y2="-78.1843" gradientTransform="matrix(-1 0 0 -1 436.7188 102.6768)">
		<stop  offset="0" style="stop-color:#FFFFFF"/>
		<stop  offset="5.203885e-02" style="stop-color:#FDF0E9"/>
		<stop  offset="0.1974" style="stop-color:#F6CBAF"/>
		<stop  offset="0.343" style="stop-color:#F1AB7E"/>
		<stop  offset="0.4856" style="stop-color:#ED9155"/>
		<stop  offset="0.6245" style="stop-color:#E97C36"/>
		<stop  offset="0.7588" style="stop-color:#E76E1F"/>
		<stop  offset="0.8863" style="stop-color:#E56512"/>
		<stop  offset="1" style="stop-color:#E5620D"/>
	</linearGradient>
	<path class="st16" d="M501.6,183.5c0,0-0.6,1-1.5,1.6c-0.2,0.1-0.4,0.2-0.6,0.3c-0.3,0.1-0.7,0.2-1.1,0.2c-1.9,0-6.8-1.3-8.8-0.4
		c-2,0.9-2.9,3.1-1,5c1.9,1.9,3.7,2.4,5.9,2.6c1.7,0.1,2.6-0.4,4.5-0.8c1.3-0.3,4-0.5,5.4-0.9c1.5-0.4,3.8-0.3,5.2-1.4
		c1.4-1.1,2.9-3.4,1.4-5.9c-1.5-2.4-4.6-2.2-7.1-2.7c-2.5-0.5-5-0.5-6.4,0c-1.4,0.5-2.3,1.9-0.5,2.4c0,0,2.1,0.5,3.2,1.5"/>
	<g>
		<path class="st17" d="M495.2,180.3c0,0-5.6,3.5-6.4,3.8c-1.6,0.6-3-0.5-1.7-2.8c1.3-2.3,2.4-3.8,2.4-3.8l0.7-1l5.5,2.8
			L495.2,180.3z"/>
		
			<linearGradient id="SVGID_4_" gradientUnits="userSpaceOnUse" x1="178.526" y1="-64.6563" x2="204.2482" y2="-64.6563" gradientTransform="matrix(-1 0 0 -1 689.5781 111.8848)">
			<stop  offset="0" style="stop-color:#FFFFFF"/>
			<stop  offset="2.910149e-02" style="stop-color:#F6F9FB"/>
			<stop  offset="0.2032" style="stop-color:#C5DAE2"/>
			<stop  offset="0.376" style="stop-color:#9DC0CE"/>
			<stop  offset="0.5444" style="stop-color:#7EABBE"/>
			<stop  offset="0.7073" style="stop-color:#679DB3"/>
			<stop  offset="0.862" style="stop-color:#5A94AC"/>
			<stop  offset="1" style="stop-color:#5591AA"/>
		</linearGradient>
		<path class="st18" d="M491.2,174.8c0,0,5-6.9,6.9-7.5c1.9-0.6,5.2-0.6,8.6,3.6c3.4,4.1,5.9,8.8,2.9,12.8c-3,4-7.1,1.3-8.1,1
			c-1-0.3-3.1-0.3-6.1,0.9c-3.1,1.2-4.8,0.6-4.8-0.8c0-1.3,0.1-1.7,0.1-1.7s3.5-2,4.4-3c-1-1-2.7-2.1-4.8-2.6
			c-2.1-0.5-3.9-0.7-4.4-1c-0.6-0.3-1.1-1.6,0.6-1.9C488.2,174.1,491.2,174.8,491.2,174.8z"/>
		<path class="st13" d="M496.5,175.1c0,0-3.8-0.1-5.2-0.3"/>
		<path class="st13" d="M497,181.7c0,0-1-1.4-1.9-1.8"/>
	</g>
</g>
<g id="Proteiner__x28_prikker_x29_">
	<g>
		<circle class="st19" cx="505.1" cy="167.1" r="1.8"/>
		<circle class="st19" cx="507" cy="163.1" r="1.8"/>
		<circle class="st19" cx="509" cy="159" r="1.8"/>
		<circle class="st19" cx="508" cy="154.6" r="1.8"/>
		<circle class="st19" cx="505.3" cy="151.2" r="1.8"/>
		<circle class="st19" cx="503.8" cy="147" r="1.8"/>
		<circle class="st19" cx="504.5" cy="142.7" r="1.8"/>
	</g>
</g>
<g id="txt">
	<text transform="matrix(1 0 0 1 161.7646 41.8164)" class="st11 st20 st21">Cellemembran</text>
	<text transform="matrix(1 0 0 1 177.2085 158.7158)"><tspan x="0" y="0" class="st11 st20 st21">Testosteronreceptor</tspan><tspan x="17" y="10.8" class="st11 st20 st21">i cytoplasma</tspan></text>
	<text transform="matrix(1 0 0 1 182.6636 65.0488)"><tspan x="0" y="0" class="st11 st20 st21">Testosteron binder</tspan><tspan x="0" y="10.8" class="st11 st20 st21">sig til receptoren i</tspan><tspan x="0" y="21.6" class="st11 st20 st21">cytoplasmaet</tspan></text>
	<text transform="matrix(1 0 0 1 185.2402 16.917)" class="st11 st20 st21">Cytoplasma</text>
	<text transform="matrix(1 0 0 1 341.6538 83.584)" class="st11 st20 st21">Kerne </text>
	<text transform="matrix(1 0 0 1 285.5542 41.3711)" class="st11 st20 st21">Kernemembran</text>
	<text transform="matrix(1 0 0 1 5.3784 16.917)" class="st11 st20 st21">Uden for cellen</text>
	<text transform="matrix(1 0 0 1 5.3784 103.709)"><tspan x="0" y="0" class="st11 st20 st21">Testosteron</tspan><tspan x="0" y="10.8" class="st11 st20 st21">diffunderer ind i</tspan><tspan x="0" y="21.6" class="st11 st20 st21">cellen</tspan></text>
	<text transform="matrix(1 0 0 1 493.7598 119.7549)" class="st11 st20 st21">Aktin</text>
	<text transform="matrix(1 0 0 1 359.4082 248.082)" class="st11 st20 st21">Transkription</text>
	<text transform="matrix(1 0 0 1 478.0752 248.082)" class="st11 st20 st21">Translation</text>
	<path class="st13" d="M223.4,149.1"/>
	<path class="st13" d="M223.4,184.4"/>
	<text transform="matrix(1 0 0 1 226 193)"><tspan x="0" y="0" class="st11 st20 st21">Gen</tspan><tspan x="0" y="10.8" class="st11 st20 st21">for aktin</tspan></text>
	<text transform="matrix(1 0 0 1 408.5 223.5)" class="st11 st20 st21">mRNA</text>
	<text transform="matrix(1 0 0 1 308.6636 121.0488)"><tspan x="0" y="0" class="st11 st20 st21">Receptorkomplekset</tspan><tspan x="0" y="10.8" class="st11 st20 st21">aktiverer et gen</tspan><tspan x="0" y="21.6" class="st11 st20 st21">i cellekernen</tspan></text>
</g>
</svg>
