<?xml version="1.0" encoding="utf-8"?>
<!-- Generator: Adobe Illustrator 19.1.0, SVG Export Plug-In . SVG Version: 6.00 Build 0)  -->
<svg version="1.1" xmlns="http://www.w3.org/2000/svg" xmlns:xlink="http://www.w3.org/1999/xlink" x="0px" y="0px"
	 viewBox="0 0 269.3 481" style="enable-background:new 0 0 269.3 481;" xml:space="preserve">
<style type="text/css">
	.st0{fill:url(#SVGID_1_);}
	.st1{fill:url(#SVGID_2_);}
	.st2{fill:none;stroke:#000000;stroke-width:0.5;}
	.st3{fill:#FFFFFF;stroke:#000000;stroke-width:0.5;}
	.st4{fill:#C6C7C8;}
	.st5{stroke:#000000;stroke-width:0.5;}
	.st6{fill:#ECEDED;stroke:#000000;stroke-width:0.5;}
	.st7{fill:#C6C7C8;stroke:#000000;stroke-width:0.5;}
	.st8{font-family:'Verdana';}
	.st9{font-size:9px;}
	.st10{fill:none;stroke:#000000;stroke-width:0.75;}
	.st11{fill:none;stroke:#E2001A;stroke-width:0.5;}
</style>
<g id="Lag_2">
	<linearGradient id="SVGID_1_" gradientUnits="userSpaceOnUse" x1="134.6455" y1="335.6465" x2="134.6455" y2="6.094759e-06">
		<stop  offset="0" style="stop-color:#F5A862"/>
		<stop  offset="0.1292" style="stop-color:#F19351"/>
		<stop  offset="0.4195" style="stop-color:#EA6433"/>
		<stop  offset="0.6718" style="stop-color:#E53D23"/>
		<stop  offset="0.8738" style="stop-color:#E3171C"/>
		<stop  offset="1" style="stop-color:#E2001A"/>
	</linearGradient>
	<rect y="0" class="st0" width="269.3" height="335.6"/>
</g>
<g id="Lag_1">
	<g>
		<g>
			
				<linearGradient id="SVGID_2_" gradientUnits="userSpaceOnUse" x1="126.0063" y1="368.6953" x2="126.0063" y2="50.3061" gradientTransform="matrix(1 0 0 1 0 -42)">
				<stop  offset="0" style="stop-color:#FFFFFF"/>
				<stop  offset="1" style="stop-color:#F5A761"/>
			</linearGradient>
			<path class="st1" d="M190.4,116.7c-0.8-13.8-12-14.8-33.8-19.5c-13.9-3-17.8-11.2-17.8-11.2c0.3-2.6,0.8-5.1,0.8-5.1
				c2.2-7.2,5.5-5.3,11.5-4.1c6,1.3,9.9,2,11.1-1.7c1.3-3.8-3.8-4.4,0.2-7.2c3.4-2.4,0.8-4-1.7-3.4l0.1,0l3.2-1.4
				c1.9,0-0.6-7.4-0.6-7.4h0.3c10.4-1.1,5.7-5.7,4.6-6.8c-1.1-1.1-6-9.9-6-10.7c0-0.8,1.1-2.4,1.1-3.3c0-0.9-2.5-8.3-2.5-8.3
				c-2.6-5.8-4.4-8.5-10.7-12.5c-9.1-5.7-20.3-8.1-34.3-2.7c-19,7.3-18.7,26.3-16.3,38c1.3,6.5,12.7,24,12.7,24s0.3,14.7-9.3,20.1
				c-9,5-20,9.5-20,9.5s-15.6,5.2-18.8,8.8c-4.3,4.8-4,9.5-3.5,18.2s1,32.8,1.2,36.8H86l0.2,0c0.2,17.6,0.2,37.7-0.3,42
				c-1,8-4.2,15-6.8,27.8s2.5,47.8,7.5,86.3l40.7,3l2-30.2l1.8,0.4l3.8,30.8l39.5-0.8c0.2-4.2,4.8-77.5,4.5-86.3s-7.5-33-7.5-33
				c-0.1-1.4-0.8-24.3-1.3-43.5h21.6C191.9,155.9,191,128.3,190.4,116.7z"/>
		</g>
	</g>
	<g>
		<path class="st2" d="M164,53.2"/>
		<path class="st2" d="M62,166.7c-0.2-4-0.8-28-1.2-36.8s-0.8-13.5,3.5-18.2c3.1-3.5,18.8-8.8,18.8-8.8s11-4.5,20-9.5
			c9.6-5.4,9.3-20.1,9.3-20.1s-11.4-17.5-12.7-24c-2.3-11.7-2.7-30.7,16.3-38c14-5.4,25.3-3.1,34.3,2.7c6.3,4,8.1,6.7,10.7,12.5
			c0,0,2.5,7.3,2.5,8.3c0,0.9-1.1,2.5-1.1,3.3c0,0.8,4.9,9.6,6,10.7c1.1,1.1,5.8,5.7-4.6,6.8h-0.3c0,0,2.5,7.4,0.6,7.4l-3.2,1.4"/>
		<path class="st2" d="M138.7,91.4c0,0-1.1-3.4,1.1-10.6c2.2-7.2,5.5-5.3,11.5-4.1c6,1.3,9.9,2,11.1-1.7c1.3-3.8-3.8-4.4,0.2-7.2
			c3.9-2.8-0.2-4.5-2.8-3"/>
	</g>
	<path class="st2" d="M139,85.9c0,0,3.8,8.2,17.8,11.2c21.8,4.8,33,5.8,33.8,19.5c0.6,11.6,1.5,39.2,1.2,46.5"/>
	<path class="st2" d="M86,138.7c0,0,1,62,0,70s-4.2,15-6.8,27.8s2.5,47.8,7.5,86.3"/>
	<path class="st2" d="M169.5,136.9c0,0,1.8,67.3,2,69.8c0,0,7.2,24.2,7.5,33s-4.2,82-4.5,86.3"/>
	<line class="st2" x1="131.2" y1="295.9" x2="135" y2="326.7"/>
	<line class="st2" x1="127.5" y1="325.7" x2="129.5" y2="295.4"/>
	<path class="st2" d="M151.9,202.1c0,0.3,0.4,0.8,0.4,1.1c0,0.2-0.3,0.4-0.4,0.5c-0.1,0.2-0.1,0.5-0.2,0.7c-0.1,1,0.3,1.8,0.6,2.7
		c-0.3,0.2-0.5,0.5-0.8,0.7c-0.3,0.3-0.4,0.3-0.9,0.3c-0.6,0-1.3,0.1-1.8,0.5c-0.5,0.5-0.5,1.2-0.6,1.8c-0.1,0.7-0.2,1.4-0.1,2
		c0.2,1.2,0.7,2.4,1,3.6c0.3,1.3,0.6,2.6,0.5,4c0,0.4,0,0.7,0,1.1c-0.4-0.5-1.4-0.5-1.5,0.1c0-1.4-0.1-2.7-0.2-4
		c-0.1-1.3-0.8-2.3-1.2-3.6c-0.9-2.6-0.7-5.2,0.2-7.7c0.4-1.1,1-2,2.1-2.5c0.5-0.2,1-0.4,1.5-0.7C151,202.5,151.5,202.4,151.9,202.1
		c0,0.1,0,0.2,0,0.3"/>
	<path class="st2" d="M147.2,197.8c0.2-0.2,0.2-0.7,0.2-1c0-0.4,0.1-0.7,0.2-1.1c0.3-0.7,0.8-1.3,1.2-2c0.7-1.2,1.6-2.2,2.9-2.6
		c0.6-0.2,1.3-0.5,1.9-0.6c0.8-0.1,1.4,0.3,2.1,0.6c1.4,0.6,2.5,1.6,3.6,2.7c1.1,1.1,2.1,2.3,2.6,3.9c0.2,0.6,0.6,1.2,0.9,1.8
		c0.3,0.7,0.5,1.4,0.7,2.1c0.4,1.4,0.8,2.8,0.9,4.2c0.1,1.5,0.4,3,0.2,4.4c-0.2,1.3-0.4,2.8-0.8,4c-0.2,0.6-0.6,1.1-0.9,1.7
		c-0.3,0.6-0.6,1.2-1.1,1.8c-0.9,1-1.9,1.6-3,2.4c-1.1,0.8-2.4,1.4-3.7,1.1c-0.6-0.2-1.2-0.1-1.7-0.3c-0.5-0.2-1.1-0.5-1.6-0.7
		c-1-0.5-1.4-1.4-2.3-2.2c0,0.1,0,0.1,0,0.1"/>
	<path class="st2" d="M146.9,198c0.1,0.1-0.2,0.4-0.3,0.6c-0.2,0.3-0.2,0.5-0.2,0.8c0.1,0.5,0.5,1.1,0.8,1.5
		c0.4,0.4,0.8,0.8,1.2,1.2c0.4,0.3,1,0.6,1.4,1"/>
	<path class="st2" d="M148.2,221.2c-0.8,0.7,1.4,1.1,1.6,0.4"/>
	<path class="st2" d="M152.3,207.1c1.2,0.2,2.3,0.9,3.5,1.2"/>
	<path class="st2" d="M152.2,206.8c0.6,0,1.1-0.1,1.7-0.1c0.3,0,0.5,0,0.8-0.1c0.2-0.1,0.4-0.3,0.5-0.4"/>
	<path class="st2" d="M151.9,202.1c0.2-0.4,0.4-0.7,0.6-1.1c0.2-0.3,0.4-1,0.7-1.1"/>
	<path class="st3" d="M144.9,191.2c0.2-0.6,0.4-1.2,1-1.4c0.6-0.2,1-0.5,1.5-0.9c0.4-0.4,0.8-0.8,1.4-1c0.6-0.2,1.3,0,1.8,0.1
		c1,0.2,2.6,0.8,3.1,1.8c0.3,0.6,0.2,1.2-0.4,1.6c-0.2,0.2-0.5,0.3-0.8,0.3c-0.2,0.1-0.8,0-1,0.1c-0.1,0.1-0.1,0.4-0.1,0.6
		c-0.1,0.2-0.2,0.3-0.3,0.4c-0.3,0.2-0.6,0.4-1,0.4c0.2,0.9,0,1.7-1.1,1.7c0.2,0.3,0.2,0.7,0.1,1c-0.1,0.3-0.4,0.5-0.5,0.8
		c-0.1,0.5,0.3,1.7-0.7,1.6c0.1,0.5-0.8,1-1.2,1.1c-0.5,0.2-1.3,0.1-1.7-0.3c-1.1-0.9-1.1-2.4-1.1-3.7c0-0.4,0-0.9,0.1-1.2
		c0.1-0.4,0.4-0.8,0.3-1.2c0-0.5-0.3-0.7,0.1-1.2c0.2-0.3,0.6-0.4,0.5-0.8"/>
	<path class="st2" d="M108.7,202.1c0,0.3-0.4,0.8-0.4,1.1c0,0.2,0.3,0.4,0.4,0.5c0.1,0.2,0.1,0.5,0.2,0.7c0.1,1-0.3,1.8-0.6,2.7
		c0.3,0.2,0.5,0.5,0.8,0.7c0.3,0.3,0.4,0.3,0.9,0.3c0.6,0,1.3,0.1,1.8,0.5c0.5,0.5,0.5,1.2,0.6,1.8c0.1,0.7,0.2,1.4,0.1,2
		c-0.2,1.2-0.7,2.4-1,3.6c-0.3,1.3-0.6,2.6-0.5,4c0,0.4,0,0.7,0,1.1c0.4-0.5,1.4-0.5,1.5,0.1c0-1.4,0.1-2.7,0.2-4
		c0.1-1.3,0.8-2.3,1.2-3.6c0.9-2.6,0.7-5.2-0.2-7.7c-0.4-1.1-1-2-2.1-2.5c-0.5-0.2-1-0.4-1.5-0.7
		C109.6,202.5,109.1,202.4,108.7,202.1c0,0.1,0,0.2,0,0.3"/>
	<path class="st2" d="M113.3,197.8c-0.2-0.2-0.2-0.7-0.2-1c0-0.4-0.1-0.7-0.2-1.1c-0.3-0.7-0.8-1.3-1.2-2c-0.7-1.2-1.6-2.2-2.9-2.6
		c-0.6-0.2-1.3-0.5-1.9-0.6c-0.8-0.1-1.4,0.3-2.1,0.6c-1.4,0.6-2.5,1.6-3.6,2.7c-1.1,1.1-2.1,2.3-2.6,3.9c-0.2,0.6-0.6,1.2-0.9,1.8
		c-0.3,0.7-0.5,1.4-0.7,2.1c-0.4,1.4-0.8,2.8-0.9,4.2c-0.1,1.5-0.4,3-0.2,4.4c0.2,1.3,0.4,2.8,0.8,4c0.2,0.6,0.6,1.1,0.9,1.7
		c0.3,0.6,0.6,1.2,1.1,1.8c0.9,1,1.9,1.6,3,2.4c1.1,0.8,2.4,1.4,3.7,1.1c0.6-0.2,1.2-0.1,1.7-0.3c0.5-0.2,1.1-0.5,1.6-0.7
		c1-0.5,1.4-1.4,2.3-2.2c0,0.1,0,0.1,0,0.1"/>
	<path class="st2" d="M113.7,198c-0.1,0.1,0.2,0.4,0.3,0.6c0.2,0.3,0.2,0.5,0.2,0.8c-0.1,0.5-0.5,1.1-0.8,1.5
		c-0.4,0.4-0.8,0.8-1.2,1.2c-0.4,0.3-1,0.6-1.4,1"/>
	<path class="st2" d="M112.4,221.2c0.8,0.7-1.4,1.1-1.6,0.4"/>
	<path class="st2" d="M108.3,207.1c-1.2,0.2-2.3,0.9-3.5,1.2"/>
	<path class="st2" d="M108.3,206.8c-0.6,0-1.1-0.1-1.7-0.1c-0.3,0-0.5,0-0.8-0.1c-0.2-0.1-0.4-0.3-0.5-0.4"/>
	<path class="st2" d="M108.6,202.1c-0.2-0.4-0.4-0.7-0.6-1.1c-0.2-0.3-0.4-1-0.7-1.1"/>
	<path class="st3" d="M115.7,191.2c-0.2-0.6-0.4-1.2-1-1.4c-0.6-0.2-1-0.5-1.5-0.9c-0.4-0.4-0.8-0.8-1.4-1c-0.6-0.2-1.3,0-1.8,0.1
		c-1,0.2-2.6,0.8-3.1,1.8c-0.3,0.6-0.2,1.2,0.4,1.6c0.2,0.2,0.5,0.3,0.8,0.3c0.2,0.1,0.8,0,1,0.1c0.1,0.1,0.1,0.4,0.1,0.6
		c0.1,0.2,0.2,0.3,0.3,0.4c0.3,0.2,0.6,0.4,1,0.4c-0.2,0.9,0,1.7,1.1,1.7c-0.2,0.3-0.2,0.7-0.1,1c0.1,0.3,0.4,0.5,0.5,0.8
		c0.1,0.5-0.3,1.7,0.7,1.6c-0.1,0.5,0.8,1,1.2,1.1c0.5,0.2,1.3,0.1,1.7-0.3c1.1-0.9,1.1-2.4,1.1-3.7c0-0.4,0-0.9-0.1-1.2
		c-0.1-0.4-0.4-0.8-0.3-1.2c0-0.5,0.3-0.7-0.1-1.2c-0.2-0.3-0.6-0.4-0.5-0.8"/>
	<path class="st3" d="M155.1,196.4c-6.2,1.7-8.4,1.3-12.8,2.4c-4.9,1.2-11.2,1.3-15.6,3.5c-5.2,2.5-4.6,7-5.1,12.2
		c-0.4,3.8,1.4,4.9,1.4,4.9c2,0.7,3,1.1,5.2,1c2.8-0.1,5.2-1.1,5.9-2.1c2-3-0.5,1.1,2.4-4.5c4.3-8.3,24.5-7.4,28.1-15.8
		c2.6-6.1-2.5-3.5-6.6-2.2L155.1,196.4z"/>
	<g>
		<path class="st4" d="M122.6,84.1c0,0,0.8,2.9,0.3,4.4c0.7,0.3,1,1.9,1,1.9s2.9,1.5,3.9,0.3c0-0.3,0.1-1.3,0.3-1.3
			c-0.1-0.4-0.1-2,0.3-2.4s0.6-0.6,0.6-0.6l-0.1-1.2l0.2-0.3l-0.1-1c-0.6-0.2-1.1-0.3-1.6,0.1c-0.5,0.3-0.8,0.8-1.5,0.8
			c-1.1,0-2.2-1.6-3.2-0.9"/>
		<path class="st2" d="M128,91.9c0.1-0.7-0.7-1.6,0.1-2.3c-0.1-0.6-0.2-1.1,0-1.7c0.2-0.4,0.2-1.3,0.8-1.4c-0.3-0.4-0.4-1.9,0.4-1.4
			"/>
		<path class="st2" d="M123.8,93.8c0.3-0.9,1.7-0.8,2.2-0.1c0.2-0.5,1.1-0.5,1.5-0.4c-0.1-0.3-0.1-0.8,0.2-1
			c0.2-0.1,0.9-0.3,0.9-0.1"/>
		<path class="st2" d="M128.9,84.5c0-0.5,0.3-1.1,0.7-1.3c0.5-0.2,1.5,0.1,1.1,0.8c0.4-0.2,0.7,0.1,0.8,0.5c0,0.2,0,0.4,0.1,0.6
			c0.1,0.2,0.3,0.3,0.5,0.5c0.3,0.4,0.4,2-0.4,2c0,0,0.1,0.1,0.1,0.1"/>
		<path class="st2" d="M121.9,84c0.8-0.3,1.1,1.4,1.2,1.9c0.1,0.9,0,1.7-0.2,2.6c1.1-0.5,1.6,4-0.2,3.3c0,0,0.1,0.1,0.1,0.1"/>
		<path class="st2" d="M123.5,91.7c0.2,0.1,0.5,0.3,0.6,0.5c0.2,0.3,0.1,0.8,0.2,0.9"/>
		<path class="st2" d="M122.1,83.8c0.3-0.7-0.9-0.7-1.3-0.5c-0.6,0.2-0.9,0.8-1,1.4c0,0.1,0,0.4,0,0.5c-0.1,0.1-0.3,0.3-0.4,0.4
			c-0.2,0.3-0.3,0.6-0.3,0.9c-0.1,0.6-0.5,1.2-0.5,1.8c0,0.5,0.1,0.9,0.4,1.2c0,0-0.1,0-0.1-0.1"/>
		<path class="st2" d="M132.3,87.2c0.4,0.8,0,1.5,0,2.2c0,0.6,0.6,1.5,0.2,2.2c0.6,0.6,0.6,1.5,0.5,2.3c0.4,0.3,0.5,1.1,0.5,1.6
			c-0.1,0.7-0.5,1-1.2,1c0,0,0,0.1,0,0.1"/>
		<path class="st2" d="M118.6,89.3c0,0.2-0.2,0.4-0.3,0.6c-0.1,0.3,0,0.6,0,0.9c0,0.6-0.4,0.7-0.6,1.2c-0.5,0.9-0.2,2.6,0.8,3.1
			c0-0.1-0.1-0.1-0.1-0.1"/>
		<path class="st2" d="M133,96.4c0.3-0.1,0.3,0.9,0.2,1.1c-0.1,0.4-0.4,0.9-0.7,1.3c-0.5,0.6-1.4,1.3-2.1,0.7
			c-0.1,1.2-1.8,0.3-2.3,0c-0.6,0-2-0.3-1.6-1.3c0.1,0.1,0.1,0.3,0.1,0.4"/>
		<path class="st2" d="M117.6,94c0,0.2-0.5,0.4-0.5,0.8c0,0.3,0.1,0.7,0.3,0.9c-0.4,0.7-0.4,2.3,0.6,2.5c-0.5,0.7,0.5,1.8,1.1,2.1
			c0.7,0.3,1.4-0.1,1.7-0.7c0,0,0,0.1,0,0.1"/>
		<path class="st2" d="M126.9,99.2c-0.3,0-0.8,0.3-1.2,0.3c-0.4-0.1-0.8-0.3-1-0.6c-0.2,0.8-1.2,0.9-1.8,0.4
			c-0.3,0.9-1.7,0.8-2.1,0.1c0,0.1,0.1,0.1,0.1,0.2"/>
		<path class="st2" d="M122,83.9c-0.3,0.5-0.7,0.6-0.4,1.2c0.2,0.5,0.7,0.9,0.5,1.5"/>
		<path class="st2" d="M121.5,87.9c0,0.6,0.4,0.6,0,1.2"/>
		<path class="st2" d="M122.7,88.9c0.2,0.3,0.2,0.6,0.1,0.9c-0.1,0.1-1.5,0.6-1,0.8"/>
		<path class="st2" d="M120.2,90.9c0.3,0,0.5,0.3,0.5,0.6c0,0.4-0.6,0.7-0.5,1"/>
		<path class="st2" d="M120,87.4c-0.2,0.3-0.2,1.5,0.2,1.5"/>
		<path class="st2" d="M120.8,92.9c-0.3-0.6-1.4-0.5-1.5,0"/>
		<path class="st2" d="M119,89.4c0.4-0.5,1.1-0.6,1.6-0.3c0,0.1,0,0,0,0.1"/>
		<path class="st2" d="M129.8,85.4c0,0.6,0.7,1,0.8,1.3"/>
		<path class="st2" d="M128.3,89.5c0.2-0.2,0.7-0.4,1-0.3c0-0.2,0-1,0.1-0.8"/>
		<path class="st2" d="M131.5,87.3c0.1,0.3,0.2,0.7,0.1,1c0,0.2-0.3,0.9-0.3,0.8"/>
		<path class="st2" d="M129.8,90.5c0.4-0.1,0.9-0.2,1,0.4"/>
		<path class="st2" d="M129.7,92.3c0.4-0.1,0.8,0.6,0.6,0.7"/>
		<path class="st2" d="M128.3,93.3c-0.2,0.2,0.4,0.3,0.5,0.4c0.2,0.2,0.2,0.3,0.3,0.6c0.1,0.3,0.1,0.5,0.2,0.8
			c0,0.2-0.1,0.8-0.2,0.7"/>
		<path class="st2" d="M132.2,91.6c-0.7,0.1-0.2,0.7-0.1,1c0.1,0.4-0.4,0.8-0.3,1.2"/>
		<path class="st2" d="M132,94.5c0.3,0.1,0.2,0.5,0,0.7c-0.1,0.1-0.8,0.3-0.8,0.4"/>
		<path class="st2" d="M121.5,94.8c0,0,0,0.4,0,0.5c0.1,0.2,0.2,0.3,0.3,0.5c0.2,0.3,0.1,0.8,0.4,1"/>
		<path class="st2" d="M123.3,94.9c0.1-0.1,0.2-0.2,0.3-0.4c0.5-0.2,0.8,0,0.9,0.5c0.2-0.3,0.7-0.1,1,0.2c0.1-0.3,0.6-0.3,0.9-0.2
			c0.1-0.2,0.6-0.5,0.7-0.3"/>
		<path class="st2" d="M127.6,95.3c0,0.1-0.1,0.4,0,0.5c0,0.1,0.2,0.5,0.1,0.3"/>
		<path class="st2" d="M121.9,98c0-0.8,0.2-1.2,1-1.3c0-0.9,1.3-0.9,1.3-0.5"/>
		<path class="st2" d="M128.5,96.8c-0.4,0.4,0.3,0.7,0.7,0.7"/>
		<path class="st2" d="M128.8,99.3c0.2-0.3,0.1-0.7,0.3-1c0.3-0.4,0.6-0.1,0.9,0.1c0.1-0.1,0.3-0.6,0.4-0.5"/>
		<path class="st2" d="M131.9,96.8c-0.1-0.5-1.1-1-1.3-0.3"/>
		<path class="st2" d="M119.7,95.9c-0.5,0-0.6,0.5-0.7,0.9c-0.1,0.5,0.1,0.9,0.2,1.1"/>
		<path class="st2" d="M119.5,98.4c0.3,0.2,0.3,0.9,0.1,1.1c-0.2,0.2-0.8,0.5-0.9,0.1"/>
		<path class="st2" d="M119.7,85.2c0.3,0.1,0.4,0.1,0.6,0.4c0.1,0.2,0.3,0.6,0.2,0.6"/>
		<path class="st2" d="M120.6,83.3c0.4,0.2,0.6,0.6,0.5,1"/>
		<path class="st2" d="M124.7,98.5c0,0,0,0.1,0,0.1c-0.2-0.6,0-1.3,0.6-1.4"/>
		<path class="st2" d="M127.3,97.9c-0.7,0.1-1.1-1-0.8-1"/>
		<path class="st2" d="M119.8,99c0.2,0,1.1-0.3,1-0.4"/>
		<path class="st2" d="M119.8,94.9c0-0.5,0.5-1,1-0.7"/>
		<path class="st2" d="M121.6,91.9c0.5,0.1,0.7,1,0.5,1.4"/>
		<path class="st2" d="M124,90.3c0.3,0,0.6,0.4,0.9,0.6c0.3,0.2,0.7,0.2,1,0.3c0.8,0.1,1.4,0,1.9-0.6c0,0,0,0.1,0,0.1"/>
		<path class="st2" d="M126.7,85.7c0,0,0.1,0,0.1,0c-0.6,0.3-1,1.5-0.7,2"/>
		<path class="st2" d="M124.6,85.6c1,0.7,0.7,1.6,0.8,2.5"/>
		<path class="st2" d="M122.5,83.9c0.4-0.8,1.8,0.4,2.3,0.6c0.5,0.2,0.8,0.2,1.3,0.1c0.4-0.1,0.7-0.4,1.1-0.7
			c0.2-0.1,0.5-0.2,0.8-0.3c0.2,0,0.8,0.2,0.7,0.3"/>
	</g>
	<g>
		<g>
			<path class="st2" d="M126.6,245.3c0,0,5.6-0.1,6.5,0c0.9,0.1,1.6,0.6,2.3,1.1c1.5,1.1,3.1,2.6,4.9,2.8c1.8,0.2,3.7-0.6,5-1.9
				c1.3-1.3,5.3-9.3,7.6-4.8c0.8,1.6,0.8,3.9,0.6,5.8c-0.2,1.7-0.6,3.3-1.5,4.8c-0.5,0.8-1.6,3.3-2.9,3.1c-0.4-0.7,0.7-1.6,1.1-2.2
				c0.3-0.5,0.4-0.9-0.2-0.5c-0.3,0.2-0.6,0.6-0.9,0.9c-1,0.9-1-0.3-0.4-1c0.2-0.2,2.1-1.4,1.1-1.7c-0.3-0.1-2.7,1.3-1.9-0.2
				c0.4-0.6,2.2-0.5,2-1.4c-0.5-0.2-0.8,0.3-1.2,0.2c-0.6-0.1-0.5-0.6-0.1-0.9c0.4-0.3,0.9-0.1,1.3-0.3c0.3-0.2,0.4-0.8,0.5-1.1
				c0.1-0.4,0.5-2.5-0.2-2.6c-0.5-0.1-1,1.7-1.2,2c0.1-0.1,0.2-0.2,0.2-0.2"/>
			<path class="st2" d="M144.5,250c-0.8,0.3-1.9,0.6-2.8,0.7c-0.9,0.1-1.8,0.1-2.7,0.2c1.1,0.7,2.5,1.3,3.7,1.9
				c-0.1,0.1,0.1-0.1,0,0"/>
			<path class="st2" d="M150,248.8c0-0.8-0.8-1.6-1.8-1.6c-0.9,0-2.5,1.4-3.1,2.1c-1.1,1.3-1.6,1.9-2.2,3.4
				c-0.7,1.6-0.3,3.9,1.6,4.3c1.9,0.4,3-0.5,4.4-1.6"/>
			<path class="st2" d="M134.6,266.5c0.3-1.6,0.4-2,0.6-2.9c0.3-2,1.3-3.9,1.9-5.8c0.5-1.9,1.6-3.7,1.6-5.7c0.6-0.2,1.4,0.3,2,0.6
				c0.6,0.2,1.4,0.5,1.8,0.8"/>
		</g>
		<g>
			<path class="st2" d="M126.8,245.3c-0.9,0.1-1.6,0.6-2.3,1.1c-1.5,1.1-3.1,2.6-4.9,2.8c-1.8,0.2-3.7-0.6-5-1.9
				c-1.3-1.3-5.3-9.3-7.6-4.8c-0.8,1.6-0.8,3.9-0.6,5.8c0.2,1.7,0.6,3.3,1.5,4.8c0.5,0.8,1.6,3.3,2.9,3.1c0.4-0.7-0.7-1.6-1.1-2.2
				c-0.3-0.5-0.4-0.9,0.2-0.5c0.3,0.2,0.6,0.6,0.9,0.9c1,0.9,1-0.3,0.4-1c-0.3-0.2-2.1-1.4-1.1-1.7c0.3-0.1,2.7,1.3,1.9-0.2
				c-0.4-0.6-2.2-0.5-2-1.4c0.5-0.2,0.8,0.3,1.2,0.2c0.6-0.1,0.5-0.6,0.1-0.9c-0.4-0.3-0.9-0.1-1.3-0.3c-0.3-0.2-0.4-0.8-0.5-1.1
				c-0.1-0.4-0.5-2.5,0.2-2.6c0.5-0.1,1,1.7,1.2,2c-0.1-0.1-0.1-0.1-0.2-0.2"/>
			<path class="st2" d="M115.4,250c0.8,0.3,1.9,0.6,2.8,0.7c0.9,0.1,1.8,0.1,2.7,0.2c-1.1,0.7-2.5,1.3-3.7,1.9c0.1,0.1-0.1-0.1,0,0"
				/>
			<path class="st2" d="M109.9,248.8c0-0.8,0.8-1.6,1.8-1.6c0.9,0,2.5,1.4,3.1,2.1c1.1,1.3,1.6,1.9,2.2,3.4c0.7,1.6,0.3,3.9-1.6,4.3
				c-1.9,0.4-3-0.5-4.4-1.6"/>
			<path class="st2" d="M125.3,266.5c-0.2-2.1-0.4-2-0.6-2.9c-0.3-2-1.3-3.9-1.9-5.8c-0.5-1.9-1.6-3.7-1.6-5.7
				c-0.6-0.2-1.4,0.3-2,0.6c-0.6,0.2-1.4,0.5-1.8,0.8"/>
		</g>
	</g>
	<g>
		<path class="st2" d="M122,272.4c-0.3,1,0,3.8-0.2,5c-0.1,1.4-0.2,2.8-0.5,4.1c-0.6,2.7-1.2,5.3-1.2,8.2c0,2.5,1,4.6,3.2,6.1
			c1.1,0.7,1.2,0.8,2.5,1c0.6,0.1,1.7-0.2,2.3-0.4c0.5-0.2,1.5-1,1.9-1.1h0.1c0.4,0.1,1.4,0.9,1.9,1.1c0.6,0.2,1.7,0.5,2.3,0.4
			c1.3-0.2,1.4-0.3,2.5-1c2.2-1.5,3.2-3.6,3.2-6.1c0-2.9-0.6-5.4-1.2-8.2c-0.3-1.3-0.4-2.7-0.5-4.1c-0.1-1.2,0.1-4-0.2-5"/>
		<path class="st2" d="M126.4,272.6c0,2.8,0,5.5,0.2,8.2c0.1,1.3,0.2,2.5-0.4,3.6c-0.5,1.1-0.1,2.5,0.2,3.7c0.3,1.4,1.6,6.2,3.8,5.6
			h-0.2c2.1,0.7,3.4-4.2,3.8-5.6c0.3-1.2,0.7-2.6,0.2-3.7c-0.5-1.2-0.5-2.3-0.4-3.6c0.2-2.7,0.2-5.4,0.2-8.2"/>
		<path class="st5" d="M138.8,287.1c-0.2-1-0.7-2.2-1.6-2.9c-0.7-0.6-2.4-1.3-3.2-0.5l0,0.1c0.1,0.2,0.1,0.4,0.2,0.6
			c0.5,1.1,0.1,2.5-0.2,3.7c-0.2,0.7-0.6,2.4-1.3,3.8l-0.1,0.6c-0.1,0-0.1-0.1-0.2-0.1c0,0,0,0,0,0c0.9,0.8,1.9,1,3.1,0.9
			C138.4,292.8,139.3,289.5,138.8,287.1z"/>
		<path class="st5" d="M121.6,287.1c0.2-1,0.7-2.2,1.6-2.9c0.7-0.6,2.4-1.3,3.2-0.5l0,0.1c-0.1,0.2-0.1,0.4-0.2,0.6
			c-0.5,1.1-0.1,2.5,0.2,3.7c0.2,0.7,0.6,2.4,1.3,3.8l0.1,0.6c0.1,0,0.1-0.1,0.2-0.1c0,0,0,0,0,0c-0.9,0.8-1.9,1-3.1,0.9
			C122.1,292.8,121.2,289.5,121.6,287.1z"/>
	</g>
	<g>
		<path class="st6" d="M141.5,41.6c2.3,0,4.3,0.5,6.6,0.4c2.1-0.1,4.3-0.7,6.2-1.6c2.2-1,3.7-2.1,4.3-4.5c0.3-1.1-0.1-2,0-3.1
			c0.1-1.1,0.6-2.1,0.7-3.3c0.3-2.9-0.4-3.1-2.5-4.6c-1.5-1.1-1.6-3.9-3.3-5.3c-0.8-0.7-1.6-0.8-2.4-1.6c-0.8-0.8-1.2-1.6-2.1-2.3
			c-0.8-0.6-1.8-1.1-2.8-1.2c-1.5-0.2-1.4-0.2-2.6-1.1c-1.4-1-3.8-1.8-5.3-0.9c-1.5-1-2.9-0.8-4.7-0.9c-1.6-0.1-2.8-1.1-4.4-0.4
			c-0.8,0.3-1.2,0.7-2,0.8c-0.8,0.1-1.9-0.1-2.7,0c-1.4,0.2-3,0.9-3.6,2.3c-1.8-1-3.7,0.9-4.4,2.4c-0.9-0.6-2-0.1-2.8,0.5
			c-0.8,0.6-1,1.8-1.6,2.3c-0.8,0.6-2.1,0.2-3.1,1c-1,0.9-1.1,2-1.8,2.9c-0.6,0.7-1.6,0.9-2.2,1.8c-0.6,0.9-0.7,1.8-1,2.8
			c-0.1,0.5-0.1,0.6-0.3,1.1c-0.2,0.4-0.6,0.8-0.8,1.2c-0.7,1.3-0.3,1.8-0.2,3.1c0.2,1.6-2.2,4.4,0.1,5.7c0,1.4,0,3.3,1.5,4.1
			c-0.8,1.6,2,3.5,3.4,3.7c2.1,0.3,4.4-1,5.8-2.4c1.6-1.5,2.8-3.2,5-3.5c2.3-0.4,4.4,1.2,6.8,0.8c2-0.3,1.9-3.3,3.4-4.5
			c1.9-1.5,4.8,0.1,6.7-1.7c0.9-0.8,1.3-1.9,0.7-3c-0.8-1.3-1.9-1-3.2-0.9c-2.4,0.1-4.7,0.3-6.9,0.7c-0.6,0.1-1.1,0.2-1.7,0.3
			c0.9-7.9,22.8-9.1,21.7-2.3c-0.1,0.4-0.3,0.9-0.6,1.1c-1.8,1.2-6.7,0.9-7.1,3.9c-0.1,1,0.8,3.2,1.4,4.1L141.5,41.6z"/>
		<path class="st2" d="M158.5,33.4c-0.3-0.9-1.5-0.8-2.1-1.2"/>
		<path class="st2" d="M152.1,19c-1-0.2-1.2,1.5-1.5,2.2"/>
		<path class="st2" d="M144.7,14.2c-0.3,0.5-0.8,1.3-0.7,2"/>
		<path class="st2" d="M138.5,12.7c-0.3,0.4-0.3,1.1-0.4,1.5"/>
		<path class="st2" d="M127.9,12.1c-0.8,1.3,0.3,3,0.4,4.2"/>
		<path class="st2" d="M121,14.5c0.2,0.5,0.3,1.2,0.6,1.8c0.2,0.5,0.9,1.1,1,1.5"/>
		<path class="st2" d="M116.7,16.9c-0.1,0.8,0.6,1.9,1.1,2.5"/>
		<path class="st2" d="M112,20c0.2,0.3,0.3,0.7,0.5,1"/>
		<path class="st2" d="M107.5,23.6c0.8,1.3,2.1,2.5,3.4,3.4"/>
		<path class="st2" d="M102.9,33.8c1.8,1.2,3.3,1,5.2,0.4"/>
		<path class="st2" d="M102.9,39.3c0.6,0.2,1.7,0,2.4-0.4"/>
		<path class="st2" d="M104.5,43.5c0.7,0,1.2-0.3,1.8-0.6"/>
		<path class="st2" d="M156,24.2c-0.7-0.2-1.3,0.6-1.8,1"/>
		<path class="st7" d="M124.9,64.4c0.2-4.8,0.9-9.5,1.3-14.3c0.3-3.4,0.6-10.1,4.1-11.9c2.4-1.2,3.7,0,5.1,1.7c0.9,1.1,2.8,4,4.5,4
			c0.4-0.2-0.9-1-0.9-1.9c0.1-0.9,0.8-0.6,1.6-0.3c0.8-0.1-0.8-0.7-1.2-1.2c-0.4-0.6-0.5-1.2-0.7-1.9c-0.4-1.2-0.4-3-1.4-3.7
			c-0.5-0.5,1.5-1.2,2.3-1.9c1-0.9,1-1.3,2.7-1.5c1.4-1.8-1.3-3.7-2.9-4c-2.2-0.3-4.3,0.1-6.4,0.7c-1.7,0.5-3.4,1.1-4.9,2.2
			l-2.4,1.7c-2.4,2.2-1.1,5.2-3.6,5.4c-1.1,0.1-1.6-0.3-2.1-1.4c-0.9-2.1,1.3-3.9,2.8-5.1c3.1-2.5,7.2-5.3,11.1-6.1
			c4.1-0.8,9.4-0.7,12.5,2.5c1.4,1.5,2.3,4,1.9,6c-0.5,3.1-2.6,2-4.7,1.2c-1.1-0.4-2.6-1-3.6,0c-1,1-0.7,2.8-0.1,3.8
			c0.6,1,1.8,1.6,2.3,2.7c1,2.4-1,0.8-2.1,0.9c-0.5,1.8,4.3,2,2.1,4.2c-0.8,0.8-2,0.5-2.6-0.3c-0.9-1.2-0.3-1.5-1.8-2.3
			c-1-0.5-1.5-0.9-2.2-1.8c-0.5-0.6-1.2-1.9-2.2-1.3c-1.8,1.1,1.2,4.2,1.6,5.3c0.7,1.9,0.7,5.1-0.3,6.9c-0.5,0.9-1.1,1.3-1.9,1.9
			c-0.6,0.4-0.7,0-1.1,0.7c-0.2,0.3-0.3,1.1-0.4,1.5c-1.2,4.5-2.8,4.1-3.3,8.8"/>
		<path class="st3" d="M124,50.3c-0.1-0.5-0.6-0.8-0.3-1.4c0.2-0.4,0.8-0.7,1-1c0.8-0.9,1-2,1.1-3.1c0.2-2.5-1.2-4.6-3.6-5.3
			c-2.4-0.8-5.4-0.5-7.4,0.9c-1.9,1.3-4.1,2.9-4.9,5.1c-0.9,2.3-0.3,4.1,1,6c1.3,1.9,2.3,3.2,4.1,4.6c0.9,0.7,2.2,1.9,2.9,2.3
			c0.9,0.5,1.9,1.1,3,1.3c2.5,0.3,3.6-2.4,4.1-4.4C125.1,53.9,125.2,51.4,124,50.3c0,0.1,0,0.2-0.1,0.3"/>
		<path class="st2" d="M122.5,47.1c-0.5-1.4,0.3-4.2,1.1-5.4"/>
		<path class="st2" d="M120.7,45.4c-0.3-1.5-0.4-3-0.4-4.6"/>
		<path class="st2" d="M118.9,45.8c-1.4-0.4-2.3-2.5-3-3.7"/>
		<path class="st2" d="M118.6,48c-1.1-0.4-2.6-0.4-3.7-0.8c-1.1-0.4-2.1-1.5-3.2-1.7"/>
		<path class="st2" d="M117.8,49.9c-0.2-0.2-2.6,0.4-3.2,0.4c-0.9,0-2.5-0.2-3.2-0.6"/>
		<path class="st2" d="M118.4,51.4c-0.2,1.2-1.3,3.5-2.4,4.3"/>
		<path class="st2" d="M120.3,52.4c0,1.8,0.1,3.9-0.6,5.6"/>
		<path class="st2" d="M122.2,51.5c0,1,0,1.9,0.3,2.8c0.2,0.8,0.7,1.9,0.7,2.8"/>
	</g>
	<text transform="matrix(1 0 0 1 7.3252 90.0288)" class="st8 st9">Biskjoldbruskkirtel</text>
	<text transform="matrix(1 0 0 1 7.3252 101.6958)" class="st8 st9">Skjoldbruskkirtel</text>
	<text transform="matrix(1 0 0 1 198.6582 37.0278)" class="st8 st9">Hypothalamus</text>
	<text transform="matrix(1 0 0 1 198.6582 49.6948)" class="st8 st9">Hypofyse</text>
	<text transform="matrix(1 0 0 1 198.6582 205.6948)" class="st8 st9">Bugspytkirtel</text>
	<text transform="matrix(1 0 0 1 198.6582 255.6948)" class="st8 st9">Ovarier</text>
	<text transform="matrix(1 0 0 1 11.9912 193.3608)" class="st8 st9">Binyrer</text>
	<text transform="matrix(1 0 0 1 11.9912 292.3608)" class="st8 st9">Testikler</text>
	<line class="st10" x1="116" y1="98" x2="85.3" y2="98"/>
	<line class="st10" x1="126.3" y1="86.7" x2="91.7" y2="86.7"/>
	<line class="st10" x1="195.7" y1="203" x2="142.7" y2="203"/>
	<path class="st11" d="M115.3,54.7"/>
	<line class="st10" x1="136.7" y1="34.4" x2="194" y2="34.4"/>
	<line class="st10" x1="143" y1="46.7" x2="195.3" y2="46.7"/>
	<line class="st10" x1="46.7" y1="190.7" x2="105" y2="190.7"/>
	<line class="st10" x1="54.7" y1="289.4" x2="123.7" y2="289.4"/>
	<line class="st10" x1="145.3" y1="252.7" x2="195.7" y2="252.7"/>
	<line class="st10" x1="63.3" y1="33.8" x2="120.7" y2="33.8"/>
	<text transform="matrix(1 0 0 1 7.3252 36.1675)" class="st8 st9">Koglekirtlen</text>
</g>
</svg>
