<svg id="Lag_1" data-name="Lag 1" xmlns="http://www.w3.org/2000/svg" viewBox="0 0 164 163.96"><defs><style>.cls-1{fill:#1c213a;}.cls-2{fill:#5c6ca9;}.cls-3{fill:#6ebfb3;}.cls-4{fill:#fff;}</style></defs><title>Hjælp</title><rect class="cls-1" width="164" height="54.65"/><rect class="cls-2" y="54.65" width="164" height="54.65"/><rect class="cls-3" y="109.3" width="164" height="54.65"/><path class="cls-4" d="M75.78,105.49q-.09-2.31-.09-3.47a31.26,31.26,0,0,1,2-11.64,24,24,0,0,1,4.53-7.46,76,76,0,0,1,8.18-8q6-5.24,7.73-8.35a13.57,13.57,0,0,0,1.78-6.84A15.91,15.91,0,0,0,94.66,48a17.58,17.58,0,0,0-12.75-5.07,17.15,17.15,0,0,0-12.27,4.62q-4.89,4.62-6.4,14.31L51.43,60.43q1.6-13,9.46-19.95t20.84-7q13.59,0,21.77,7.46a23.56,23.56,0,0,1,8.18,18,22.69,22.69,0,0,1-2.89,11.29q-2.89,5.16-11.15,12.53a55.49,55.49,0,0,0-7.33,7.24,16.37,16.37,0,0,0-2.58,5.42,43.89,43.89,0,0,0-.93,10Zm-.71,22.93V115.35H88.13v13.06Z" transform="translate(0 0)"/></svg>