<?xml version="1.0" encoding="UTF-8" standalone="no"?>
<!-- Created with Inkscape (http://www.inkscape.org/) -->

<svg
   xmlns:dc="http://purl.org/dc/elements/1.1/"
   xmlns:cc="http://creativecommons.org/ns#"
   xmlns:rdf="http://www.w3.org/1999/02/22-rdf-syntax-ns#"
   xmlns:svg="http://www.w3.org/2000/svg"
   xmlns="http://www.w3.org/2000/svg"
   xmlns:sodipodi="http://sodipodi.sourceforge.net/DTD/sodipodi-0.dtd"
   xmlns:inkscape="http://www.inkscape.org/namespaces/inkscape"
   width="744.09448819"
   height="1052.3622047"
   id="svg2"
   version="1.1"
   inkscape:version="0.48.2 r9819"
   sodipodi:docname="stopwatch.svg">
  <defs
     id="defs4">
    <inkscape:path-effect
       effect="envelope"
       id="path-effect3892"
       is_visible="true"
       yy="true"
       xx="true"
       bendpath1="m 149.95193,513.62864 753.06053,0"
       bendpath2="m 903.01246,513.62864 0,168.53501"
       bendpath3="m 149.95193,682.16365 753.06053,0"
       bendpath4="m 149.95193,513.62864 0,168.53501" />
    <inkscape:path-effect
       effect="envelope"
       id="path-effect3890"
       is_visible="true"
       yy="true"
       xx="true"
       bendpath1="m 556.93921,516.19437 87.3357,0"
       bendpath2="m 644.27491,516.19437 0,154.64488"
       bendpath3="m 556.93921,670.83925 87.3357,0"
       bendpath4="m 556.93921,516.19437 0,154.64488" />
    <inkscape:path-effect
       effect="envelope"
       id="path-effect3888"
       is_visible="true"
       yy="true"
       xx="true"
       bendpath1="m 476.31929,516.25003 86.41261,0"
       bendpath2="m 562.7319,516.25003 0,166.42987"
       bendpath3="m 476.31929,682.6799 86.41261,0"
       bendpath4="m 476.31929,516.25003 0,166.42987" />
    <inkscape:path-effect
       effect="envelope"
       id="path-effect3877"
       is_visible="true"
       yy="true"
       xx="false"
       bendpath1="m 148.27676,514.3027 755.47538,0"
       bendpath2="m 903.75214,514.3027 0,97.95191"
       bendpath3="m 148.27676,612.25461 c 294.30107,72.03278 437.1274,85.48289 755.47538,0"
       bendpath4="m 148.27676,514.3027 0,97.95191"
       bendpath3-nodetypes="cc" />
  </defs>
  <sodipodi:namedview
     id="base"
     pagecolor="#ffffff"
     bordercolor="#666666"
     borderopacity="1.0"
     inkscape:pageopacity="0.0"
     inkscape:pageshadow="2"
     inkscape:zoom="0.62"
     inkscape:cx="381.96415"
     inkscape:cy="309.47368"
     inkscape:document-units="px"
     inkscape:current-layer="layer1"
     showgrid="false"
     inkscape:window-width="1007"
     inkscape:window-height="729"
     inkscape:window-x="0"
     inkscape:window-y="0"
     inkscape:window-maximized="0" />
  <metadata
     id="metadata7">
    <rdf:RDF>
      <cc:Work
         rdf:about="">
        <dc:format>image/svg+xml</dc:format>
        <dc:type
           rdf:resource="http://purl.org/dc/dcmitype/StillImage" />
        <dc:title></dc:title>
      </cc:Work>
    </rdf:RDF>
  </metadata>
  <g
     inkscape:label="Layer 1"
     inkscape:groupmode="layer"
     id="layer1">
    <path
       style="fill:none;stroke:#d40000;stroke-width:7.4000001;stroke-linecap:butt;stroke-linejoin:miter;stroke-miterlimit:4;stroke-opacity:1;stroke-dasharray:none"
       d="m 80,692.36218 0,160 300,102.85715 300,-102.85715 0,-160 z"
       id="path3755"
       inkscape:connector-curvature="0"
       sodipodi:nodetypes="cccccc"
       inkscape:export-filename="/Users/torben/projects/BookEnhancement/client/views/images/stopwatch.png"
       inkscape:export-xdpi="90"
       inkscape:export-ydpi="90" />
    <text
       xml:space="preserve"
       style="font-size:179.26911926px;font-style:normal;font-weight:normal;line-height:125%;letter-spacing:0px;word-spacing:0px;fill:#d40000;fill-opacity:1;stroke:none;font-family:Sans"
       x="-73.83754"
       y="158.13197"
       id="text3757"
       sodipodi:linespacing="125%"><tspan
         sodipodi:role="line"
         id="tspan3759"
         x="-73.83754"
         y="158.13197">YUBIO</tspan></text>
    <g
       id="g3799"
       transform="translate(-157.89474,123.68421)">
      <g
         id="text3784"
         style="font-size:179.26911926px;font-style:normal;font-weight:normal;line-height:125%;letter-spacing:0px;word-spacing:0px;fill:#d40000;fill-opacity:1;stroke:none;font-family:Sans">
        <path
           id="path3789"
           d="m -324.18766,356.39146 18.99482,0 36.23898,53.74572 35.97637,-53.74572 18.99482,0 -46.21782,68.45139 0,62.2365 -17.76935,0 0,-62.2365 -46.21782,-68.45139"
           inkscape:connector-curvature="0" />
        <path
           id="path3791"
           d="m -198.66426,356.39146 17.76935,0 0,79.39311 c -3e-5,14.00544 2.53844,24.10098 7.61544,30.28668 5.07691,6.12737 13.30507,9.19105 24.68451,9.19104 11.32096,10e-6 19.51994,-3.06367 24.59699,-9.19104 5.07686,-6.1857 7.61533,-16.28124 7.61543,-30.28668 l 0,-79.39311 17.769353,0 0,81.58145 c -1.15e-4,17.03994 -4.230913,29.90739 -12.692393,38.60239 -8.40333,8.69502 -20.83311,13.04252 -37.28938,13.04252 -16.51475,0 -29.00288,-4.3475 -37.46444,-13.04252 -8.40326,-8.695 -12.60488,-21.56245 -12.60486,-38.60239 l 0,-81.58145"
           inkscape:connector-curvature="0" />
        <path
           id="path3793"
           d="m -47.66854,424.66778 0,47.88096 28.360935,0 c 9.5119275,2e-5 16.5437984,-1.9549 21.0956335,-5.86476 4.6100215,-3.96817 6.9150746,-10.00799 6.9151663,-18.11948 -9.17e-5,-8.16977 -2.3051448,-14.18042 -6.9151663,-18.03196 -4.5518351,-3.90978 -11.583706,-5.8647 -21.0956335,-5.86476 l -28.360935,0 m 0,-53.74572 0,39.39019 26.172591,0 c 8.636593,7e-5 15.0557286,-1.60471 19.2574251,-4.81436 4.2598908,-3.26784 6.3898766,-8.22808 6.3899637,-14.88074 -8.71e-5,-6.5941 -2.1300729,-11.52517 -6.3899637,-14.7932 -4.2016965,-3.26781 -10.6208321,-4.90177 -19.2574251,-4.90189 l -26.172591,0 m -17.681817,-14.5306 45.167414,0 c 13.4801216,1.3e-4 23.8674495,2.80121 31.162015,8.40324 7.294378,5.60227 10.941614,13.56784 10.941719,23.89671 -1.05e-4,7.99484 -1.86749,14.35562 -5.60216,19.08236 -3.734869,4.7269 -9.2203117,7.67386 -16.45634495,8.84091 8.69492765,1.86745 15.43501995,5.77729 20.22029595,11.72952 4.843426,5.89399 7.265191,13.276 7.265301,22.14604 -1.1e-4,11.67119 -3.968303,20.68716 -11.90459,27.04793 -7.9364833,6.36079 -19.2283257,9.54118 -33.875561,9.54118 l -46.918089,0 0,-130.68789"
           inkscape:connector-curvature="0" />
        <path
           id="path3795"
           d="m 57.547042,356.39146 17.681818,0 0,130.68789 -17.681818,0 0,-130.68789"
           inkscape:connector-curvature="0" />
        <path
           id="path3797"
           d="m 163.46286,368.38358 c -12.83835,1.2e-4 -23.05061,4.78529 -30.63682,14.35554 -7.52793,9.57045 -11.29188,22.61296 -11.29185,39.12758 -3e-5,16.4564 3.76392,29.46973 11.29185,39.04005 7.58621,9.57038 17.79847,14.35555 30.63682,14.35554 12.8382,10e-6 22.9921,-4.78516 30.46174,-14.35554 7.52779,-9.57032 11.29174,-22.58365 11.29185,-39.04005 -1.1e-4,-16.51462 -3.76406,-29.55713 -11.29185,-39.12758 -7.46964,-9.57025 -17.62354,-14.35542 -30.46174,-14.35554 m 0,-14.35553 c 18.32364,1.3e-4 32.97094,6.15666 43.94194,18.46962 10.97077,12.25482 16.45621,28.71115 16.45634,49.36903 -1.3e-4,20.59966 -5.48557,37.05598 -16.45634,49.36904 -10.971,12.25473 -25.6183,18.38208 -43.94194,18.38208 -18.38214,0 -33.0878,-6.12735 -44.11701,-18.38208 -10.97092,-12.2547 -16.45636,-28.71103 -16.45635,-49.36904 -1e-5,-20.65788 5.48543,-37.11421 16.45635,-49.36903 11.02921,-12.31296 25.73487,-18.46949 44.11701,-18.46962"
           inkscape:connector-curvature="0" />
      </g>
    </g>
    <g
       transform="scale(0.7224136,1.3842486)"
       style="font-size:129.50645447px;font-style:normal;font-weight:normal;line-height:125%;letter-spacing:0px;word-spacing:0px;fill:#d40000;fill-opacity:1;stroke:none;font-family:Sans"
       id="text3807"
       inkscape:path-effect="#path-effect3892"
       inkscape:export-filename="/Users/torben/projects/BookEnhancement/client/views/images/stopwatch.png"
       inkscape:export-xdpi="90"
       inkscape:export-ydpi="90">
      <path
         style=""
         d="m 209.64224,518.81372 c 0.82417,4.85706 1.52888,9.70053 2.11414,14.53039 -5.14781,-2.88309 -9.98532,-4.99825 -14.46157,-6.40506 -4.47634,-1.40664 -8.72105,-2.1318 -12.71373,-2.22513 -6.93473,-0.16187 -12.03542,1.18955 -15.36754,3.93603 -3.29015,2.74806 -4.5572,6.67645 -4.00112,11.87331 0.46652,4.36021 1.93645,7.73485 4.54365,10.19812 2.64622,2.42273 7.4476,4.65569 14.42755,6.73523 2.5667,0.81466 5.13037,1.63799 7.69106,2.46982 9.48296,2.92868 16.49979,7.27101 20.87205,13.05577 4.41451,5.7417 6.41848,13.14755 5.62897,21.96184 -0.94152,10.50939 -5.23365,17.8766 -12.25426,21.83931 -6.97912,3.97164 -16.44502,4.41592 -28.13877,1.62788 -4.41122,-1.05173 -8.99147,-2.70906 -13.75117,-4.91714 -4.71817,-2.1982 -9.51672,-4.90093 -14.42952,-8.04825 0.90359,-4.27789 1.66722,-8.57267 2.2909,-12.88431 4.70352,3.85741 9.34376,7.09058 13.99349,9.62007 4.64968,2.52948 9.33346,4.33826 14.07576,5.34684 7.19655,1.53056 13.03175,1.1735 17.41488,-1.19029 4.38301,-2.36378 6.9634,-6.56463 7.53327,-12.49611 0.4974,-5.17823 -0.67093,-9.46954 -3.3539,-12.77889 -2.64147,-3.30336 -7.17711,-6.08256 -13.55692,-8.32831 -2.54824,-0.8795 -5.09906,-1.75095 -7.65252,-2.61416 -9.38278,-3.21253 -16.16945,-7.10083 -20.49503,-11.67214 -4.32562,-4.57121 -6.69571,-10.39024 -7.48508,-17.69172 -0.91403,-8.4542 0.79583,-15.02332 5.66919,-19.95424 4.91544,-4.93005 12.42981,-7.57063 22.76004,-7.58328 4.42722,-0.005 9.03234,0.43303 13.80278,1.35263 4.77037,0.91982 9.72707,2.32094 14.8434,4.24179 0,0 0,0 0,0 z"
         id="path3854"
         inkscape:original-d="m 209.79219,519.32735 c 0.82417,4.85706 1.52888,9.70053 2.11414,14.53039 -5.14781,-2.88309 -9.98532,-4.99825 -14.46157,-6.40506 -4.47634,-1.40664 -8.72105,-2.1318 -12.71373,-2.22513 -6.93473,-0.16187 -12.03542,1.18955 -15.36754,3.93603 -3.29015,2.74806 -4.5572,6.67645 -4.00112,11.87331 0.46652,4.36021 1.93645,7.73485 4.54365,10.19812 2.64622,2.42273 7.4476,4.65569 14.42755,6.73523 2.5667,0.81466 5.13037,1.63799 7.69106,2.46982 9.48296,2.92868 16.49979,7.27101 20.87205,13.05577 4.41451,5.7417 6.41848,13.14755 5.62897,21.96184 -0.94152,10.50939 -5.23365,17.8766 -12.25426,21.83931 -6.97912,3.97164 -16.44502,4.41592 -28.13877,1.62788 -4.41122,-1.05173 -8.99147,-2.70906 -13.75117,-4.91714 -4.71817,-2.1982 -9.51672,-4.90093 -14.42952,-8.04825 0.90359,-4.27789 1.66722,-8.57267 2.2909,-12.88431 4.70352,3.85741 9.34376,7.09058 13.99349,9.62007 4.64968,2.52948 9.33346,4.33826 14.07576,5.34684 7.19655,1.53056 13.03175,1.1735 17.41488,-1.19029 4.38301,-2.36378 6.9634,-6.56463 7.53327,-12.49611 0.4974,-5.17823 -0.67093,-9.46954 -3.3539,-12.77889 -2.64147,-3.30336 -7.17711,-6.08256 -13.55692,-8.32831 -2.54824,-0.8795 -5.09906,-1.75095 -7.65252,-2.61416 -9.38278,-3.21253 -16.16945,-7.10083 -20.49503,-11.67214 -4.32562,-4.57121 -6.69571,-10.39024 -7.48508,-17.69172 -0.91403,-8.4542 0.79583,-15.02332 5.66919,-19.95424 4.91544,-4.93005 12.42981,-7.57063 22.76004,-7.58328 4.42722,-0.005 9.03234,0.43303 13.80278,1.35263 4.77037,0.91982 9.72707,2.32094 14.8434,4.24179 z" />
      <path
         style=""
         d="m 274.35389,526.6845 c -4.61689,-0.0932 -8.62749,0.94869 -12.0494,3.06309 -3.42191,2.11441 -6.25503,5.30112 -8.58393,9.52012 -4.61601,8.44004 -6.48587,19.82282 -6.59596,34.42025 -0.0549,7.27299 0.33533,13.83543 1.30247,19.76552 0.96713,5.93009 2.51158,11.22801 4.73799,15.93146 2.24718,4.70701 5.00843,8.48769 8.37197,11.31454 3.36353,2.82686 7.32933,4.6997 11.92086,5.55032 4.59148,0.85063 8.85801,0.49743 12.76332,-1.11652 3.90531,-1.61394 7.44902,-4.48843 10.54817,-8.65241 6.23982,-8.32149 9.83016,-20.66045 9.99029,-36.72407 0.16053,-16.12045 -3.18239,-29.14103 -9.25888,-38.66086 -3.01741,-4.75898 -6.50675,-8.32424 -10.38498,-10.71409 -3.87824,-2.38985 -8.14507,-3.60402 -12.76192,-3.69735 0,0 0,0 0,0 z m -1.77332,-13.56946 c 6.62031,-0.007 12.79698,1.45035 18.45862,4.47008 5.66164,3.01972 10.8074,7.60123 15.30001,13.77951 4.48991,6.14956 7.9566,13.40412 10.28467,21.70361 2.32808,8.29949 3.51914,17.6445 3.41505,27.9215 -0.1039,10.24802 -1.48023,19.34456 -3.96976,27.19874 -2.48954,7.85418 -6.09397,14.46588 -10.69505,19.77942 -4.59796,5.28527 -9.81045,8.8452 -15.5002,10.72983 -5.68974,1.88464 -11.85566,2.09348 -18.43003,0.72907 -6.59536,-1.36876 -12.27753,-4.02669 -17.0825,-7.84225 -4.80497,-3.81556 -8.73277,-8.78833 -11.93163,-14.861 -3.17805,-6.06869 -5.36789,-12.75815 -6.73854,-20.13743 -1.37065,-7.37928 -1.92281,-15.44881 -1.8639,-24.3516 0.0589,-8.90273 0.71744,-16.83865 2.19368,-23.90503 1.47624,-7.06638 3.77097,-13.26323 7.05639,-18.62902 3.30326,-5.39117 7.32895,-9.52376 12.21861,-12.32069 4.88967,-2.79694 10.64316,-4.25774 17.28458,-4.26474 0,0 0,0 0,0 z"
         id="path3856"
         inkscape:original-d="m 274.50384,527.19813 c -4.61689,-0.0932 -8.62749,0.94869 -12.0494,3.06309 -3.42191,2.11441 -6.25503,5.30112 -8.58393,9.52012 -4.61601,8.44004 -6.48587,19.82282 -6.59596,34.42025 -0.0549,7.27299 0.33533,13.83543 1.30247,19.76552 0.96713,5.93009 2.51158,11.22801 4.73799,15.93146 2.24718,4.70701 5.00843,8.48769 8.37197,11.31454 3.36353,2.82686 7.32933,4.6997 11.92086,5.55032 4.59148,0.85063 8.85801,0.49743 12.76332,-1.11652 3.90531,-1.61394 7.44902,-4.48843 10.54817,-8.65241 6.23982,-8.32149 9.83016,-20.66045 9.99029,-36.72407 0.16053,-16.12045 -3.18239,-29.14103 -9.25888,-38.66086 -3.01741,-4.75898 -6.50675,-8.32424 -10.38498,-10.71409 -3.87824,-2.38985 -8.14507,-3.60402 -12.76192,-3.69735 z m -1.77332,-13.56946 c 6.62031,-0.007 12.79698,1.45035 18.45862,4.47008 5.66164,3.01972 10.8074,7.60123 15.30001,13.77951 4.48991,6.14956 7.9566,13.40412 10.28467,21.70361 2.32808,8.29949 3.51914,17.6445 3.41505,27.9215 -0.1039,10.24802 -1.48023,19.34456 -3.96976,27.19874 -2.48954,7.85418 -6.09397,14.46588 -10.69505,19.77942 -4.59796,5.28527 -9.81045,8.8452 -15.5002,10.72983 -5.68974,1.88464 -11.85566,2.09348 -18.43003,0.72907 -6.59536,-1.36876 -12.27753,-4.02669 -17.0825,-7.84225 -4.80497,-3.81556 -8.73277,-8.78833 -11.93163,-14.861 -3.17805,-6.06869 -5.36789,-12.75815 -6.73854,-20.13743 -1.37065,-7.37928 -1.92281,-15.44881 -1.8639,-24.3516 0.0589,-8.90273 0.71744,-16.83865 2.19368,-23.90503 1.47624,-7.06638 3.77097,-13.26323 7.05639,-18.62902 3.30326,-5.39117 7.32895,-9.52376 12.21861,-12.32069 4.88967,-2.79694 10.64316,-4.25774 17.28458,-4.26474 z" />
      <path
         style=""
         d="m 336.47808,515.49378 c 3.60915,0.007 7.21828,0.0143 10.82737,0.0213 14.46249,0.0275 28.92452,0.0526 43.38598,0.0749 0.4183,5.40856 0.78372,10.81363 1.09627,16.21523 -13.72426,-0.21503 -27.45267,-0.45617 -41.18441,-0.71957 1.00632,13.41643 1.57889,26.79697 1.71769,40.14163 12.28568,0.80931 24.56919,1.55679 36.84855,2.23307 0.0401,5.36344 0.0261,10.72324 -0.0421,16.0794 -12.27888,-0.86642 -24.55967,-1.82401 -36.83985,-2.86085 -0.31822,21.5795 -1.77543,43.06478 -4.37163,64.45585 -0.64596,-0.10521 -1.29184,-0.21085 -1.93764,-0.3169 -3.6098,-0.59281 -7.21753,-1.19737 -10.82328,-1.81318 5.66931,-44.04687 6.11032,-88.55049 1.32301,-133.51086 10e-6,-10e-6 2e-5,-10e-6 4e-5,-2e-5 z"
         id="path3858"
         inkscape:original-d="m 336.62803,516.00741 c 3.60915,0.007 7.21828,0.0143 10.82737,0.0213 14.46249,0.0275 28.92452,0.0526 43.38598,0.0749 0.4183,5.40856 0.78372,10.81363 1.09627,16.21523 -13.72426,-0.21503 -27.45267,-0.45617 -41.18441,-0.71957 1.00632,13.41643 1.57889,26.79697 1.71769,40.14163 12.28568,0.80931 24.56919,1.55679 36.84855,2.23307 0.0401,5.36344 0.0261,10.72324 -0.0421,16.0794 -12.27888,-0.86642 -24.55967,-1.82401 -36.83985,-2.86085 -0.31822,21.5795 -1.77543,43.06478 -4.37163,64.45585 -0.64596,-0.10521 -1.29184,-0.21085 -1.93764,-0.3169 -3.6098,-0.59281 -7.21753,-1.19737 -10.82328,-1.81318 5.66931,-44.04687 6.11032,-88.55049 1.32301,-133.51086 z" />
      <path
         d="m 395.68278,515.59754 c 26.59935,0.0398 53.19678,0.0698 79.79169,0.0874 0.18405,5.69398 0.34498,11.38716 0.48282,17.07956 -11.07179,-0.0745 -22.14735,-0.17118 -33.22628,-0.28797 1.63725,43.62028 1.1098,91.47378 -1.58236,134.89217 -4.31454,-0.38451 -8.62718,-1.51573 -12.93774,-1.94907 3.03557,-43.03277 3.63169,-89.803 1.78835,-133.08605 -11.08143,-0.13192 -22.16605,-0.28319 -33.25343,-0.4518 -0.30302,-5.42479 -0.65737,-10.85285 -1.06305,-16.2842 0,-10e-6 0,-3e-5 0,-4e-5 z"
         id="path3860"
         inkscape:original-d="m 395.83273,516.11117 c 26.59935,0.0398 53.19678,0.0698 79.79169,0.0874 0.18405,5.69398 0.34498,11.38716 0.48282,17.07956 -11.07179,-0.0745 -22.14735,-0.17118 -33.22628,-0.28797 1.63725,43.62028 1.1098,91.47378 -1.58236,134.89217 -4.31454,-0.38451 -8.62718,-1.51573 -12.93774,-1.94907 3.03557,-43.03277 3.63169,-89.803 1.78835,-133.08605 -11.08143,-0.13192 -22.16605,-0.28319 -33.25343,-0.4518 -0.30302,-5.42479 -0.65737,-10.85285 -1.06305,-16.2842 z"
         inkscape:connector-curvature="0"
         sodipodi:nodetypes="cccccccccc" />
      <path
         d="m 512.12655,681.97475 c -11.52913,-55.6603 -22.35699,-111.26494 -35.95721,-166.23835 4.44301,0.003 8.88594,0.005 13.3288,0.009 10.07746,42.56866 18.7548,85.41819 27.62062,128.2826 0.81204,3.92705 1.62588,7.85407 2.44278,11.78079 10.15533,-46.57024 19.37716,-93.39378 29.75499,-140.05459 4.42175,-10e-4 8.84356,-0.002 13.26542,-0.004 -12.81814,55.30614 -23.58569,111.00492 -35.80151,166.41668 -3.29974,-0.0147 -6.59948,-0.0485 -9.89912,-0.10164 -1.58503,-0.0254 -3.16995,-0.0553 -4.75477,-0.0895 0,-3.3e-4 0,-6.6e-4 0,-9.9e-4 z"
         id="path3862"
         inkscape:path-effect="#path-effect3888"
         inkscape:original-d="m 512.2765,682.48838 c -11.52913,-55.6603 -22.35699,-111.26494 -35.95721,-166.23835 4.44301,0.003 8.88594,0.005 13.3288,0.009 10.07746,42.56866 18.7548,85.41819 27.62062,128.2826 0.81204,3.92705 1.62588,7.85407 2.44278,11.78079 10.15533,-46.57024 19.37716,-93.39378 29.75499,-140.05459 4.42175,-0.001 8.84356,-0.002 13.26542,-0.004 -12.81814,55.30614 -23.58569,111.00492 -35.80151,166.41668 -3.29974,-0.0147 -6.59948,-0.0485 -9.89912,-0.10164 -1.58503,-0.0254 -3.16995,-0.0553 -4.75477,-0.0895 z"
         inkscape:connector-curvature="0" />
      <path
         d="m 598.8642,536.03671 c -6.33522,25.37663 -11.979,50.92016 -17.31564,76.58019 11.40132,-0.3903 22.80486,-0.90601 34.20715,-1.53898 -6.25989,-24.72987 -11.76695,-49.7761 -16.89151,-75.04121 0,0 0,0 0,0 z m -6.59189,-20.344 c 4.82216,-0.004 9.64437,-0.007 14.46663,-0.012 9.98315,50.72485 21.45832,100.50223 37.38602,148.46677 -4.45569,0.4983 -8.91408,0.97019 -13.37486,1.41496 -3.77555,-12.49197 -7.28627,-25.08406 -10.57756,-37.76286 -14.0427,0.95915 -28.09254,1.71103 -42.14202,2.238 -2.58056,13.24827 -5.10211,32.30243 -7.6183,45.59553 -4.54004,0.18878 -9.08114,1.79099 -13.62296,1.91657 11.14054,-51.85465 21.85384,-110.79694 35.48305,-161.85703 0,2e-5 0,4e-5 0,6e-5 z"
         id="path3864"
         inkscape:path-effect="#path-effect3890"
         inkscape:original-d="m 599.01415,536.55034 c -6.33522,25.37663 -11.979,50.92016 -17.31564,76.58019 11.40132,-0.3903 22.80486,-0.90601 34.20715,-1.53898 -6.25989,-24.72987 -11.76695,-49.7761 -16.89151,-75.04121 z m -6.59189,-20.344 c 4.82216,-0.004 9.64437,-0.007 14.46663,-0.012 9.98315,50.72485 21.45832,100.50223 37.38602,148.46677 -4.45569,0.4983 -8.91408,0.97019 -13.37486,1.41496 -3.77555,-12.49197 -7.28627,-25.08406 -10.57756,-37.76286 -14.0427,0.95915 -28.09254,1.71103 -42.14202,2.238 -2.58056,13.24827 -5.10211,32.30243 -7.6183,45.59553 -4.54004,0.18878 -9.08114,1.79099 -13.62296,1.91657 11.14054,-51.85465 21.85384,-110.79694 35.48305,-161.85703 z"
         inkscape:connector-curvature="0"
         sodipodi:nodetypes="cccccccccccccc" />
      <path
         style=""
         d="m 656.39485,515.61176 c 11.391,-0.0159 22.78216,-0.0338 34.17342,-0.0533 8.4895,-0.0147 16.9791,-0.0303 25.46883,-0.047 -0.52212,5.1725 -0.97744,10.33919 -1.36597,15.50007 -8.43576,0.16772 -16.87068,0.32606 -25.30482,0.4743 -7.08651,0.12407 -14.17283,0.24119 -21.2588,0.35099 -0.77209,14.06879 -1.18751,28.11398 -1.24626,42.13556 7.01917,-0.37631 14.03791,-0.77777 21.05567,-1.20316 7.71656,-0.46841 15.43304,-0.9654 23.14961,-1.489 -0.0403,5.14287 -0.0144,10.28003 0.0779,15.41147 -7.7124,0.67003 -15.42579,1.30638 -23.14042,1.90656 -7.01563,0.54535 -14.03327,1.06001 -21.05223,1.54239 0.26389,17.13994 1.06212,34.24452 2.39468,51.31374 7.11253,-0.83315 14.21871,-1.72215 21.31742,-2.66438 8.82642,-1.17146 17.64257,-2.41986 26.44898,-3.73915 0.51955,5.07462 1.1062,10.14338 1.75995,15.20628 -8.8609,1.49777 -17.73548,2.91592 -26.62434,4.24763 -11.41649,1.71044 -22.85814,3.26649 -34.31976,4.65616 -4.2508,-47.62402 -4.76207,-95.47374 -1.53382,-143.54915 -2e-5,0 -3e-5,-10e-6 -4e-5,-10e-6 z"
         id="path3866"
         inkscape:original-d="m 656.5448,516.12539 c 11.391,-0.0159 22.78216,-0.0338 34.17342,-0.0533 8.4895,-0.0147 16.9791,-0.0303 25.46883,-0.047 -0.52212,5.1725 -0.97744,10.33919 -1.36597,15.50007 -8.43576,0.16772 -16.87068,0.32606 -25.30482,0.4743 -7.08651,0.12407 -14.17283,0.24119 -21.2588,0.35099 -0.77209,14.06879 -1.18751,28.11398 -1.24626,42.13556 7.01917,-0.37631 14.03791,-0.77777 21.05567,-1.20316 7.71656,-0.46841 15.43304,-0.9654 23.14961,-1.489 -0.0403,5.14287 -0.0144,10.28003 0.0779,15.41147 -7.7124,0.67003 -15.42579,1.30638 -23.14042,1.90656 -7.01563,0.54535 -14.03327,1.06001 -21.05223,1.54239 0.26389,17.13994 1.06212,34.24452 2.39468,51.31374 7.11253,-0.83315 14.21871,-1.72215 21.31742,-2.66438 8.82642,-1.17146 17.64257,-2.41986 26.44898,-3.73915 0.51955,5.07462 1.1062,10.14338 1.75995,15.20628 -8.8609,1.49777 -17.73548,2.91592 -26.62434,4.24763 -11.41649,1.71044 -22.85814,3.26649 -34.31976,4.65616 -4.2508,-47.62402 -4.76207,-95.47374 -1.53382,-143.54915 z" />
      <path
         style=""
         d="m 778.98238,580.89308 c 2.71842,0.90159 5.38035,3.15738 8.0681,6.70546 2.72905,3.54292 5.56939,8.47499 8.71764,14.71119 5.18488,10.08284 10.87788,19.84263 17.11636,29.26017 -4.52012,1.01926 -9.0433,2.02381 -13.56963,3.0127 -5.79182,-9.13971 -11.11242,-18.57036 -15.9945,-28.27556 -3.79078,-7.60719 -7.01886,-12.66506 -10.04154,-14.99626 -2.98134,-2.3363 -6.93723,-3.24334 -11.90933,-2.67129 -4.5578,0.52443 -9.116,1.038 -13.67466,1.54014 0.60735,18.09747 2.25717,36.09247 4.94946,53.98499 -4.23441,0.81044 -8.47178,1.60456 -12.71219,2.38159 -6.14728,-43.16489 -6.69851,-86.85836 -1.65369,-131.08039 9.60431,-0.0206 19.20878,-0.0423 28.81341,-0.065 10.78409,-0.0254 18.3811,2.96905 22.93157,8.73318 4.5503,5.76436 6.1355,14.34811 5.44091,25.91721 -0.45354,7.55221 -1.97066,13.89011 -4.74452,19.14218 -2.73254,5.24823 -6.60014,9.15745 -11.73739,11.6997 0,0 0,0 0,-10e-6 z m -29.49236,-50.97263 c -1.42149,15.39061 -2.10751,30.70893 -2.05808,45.95495 5.26457,-0.46751 10.5291,-0.94741 15.79366,-1.43901 6.05213,-0.56508 10.59554,-2.87187 13.71266,-6.82572 3.1592,-4.01233 4.83298,-9.55495 5.23148,-16.73439 0.39836,-7.17925 -0.67795,-12.51618 -3.46792,-16.07262 -2.74308,-3.61309 -7.14286,-5.39131 -13.25711,-5.24803 -5.3186,0.12472 -10.63683,0.24639 -15.95469,0.36482 z"
         id="path3868"
         inkscape:original-d="m 779.13233,581.40671 c 2.71842,0.90159 5.38035,3.15738 8.0681,6.70546 2.72905,3.54292 5.56939,8.47499 8.71764,14.71119 5.18488,10.08284 10.87788,19.84263 17.11636,29.26017 -4.52012,1.01926 -9.0433,2.02381 -13.56963,3.0127 -5.79182,-9.13971 -11.11242,-18.57036 -15.9945,-28.27556 -3.79078,-7.60719 -7.01886,-12.66506 -10.04154,-14.99626 -2.98134,-2.3363 -6.93723,-3.24334 -11.90933,-2.67129 -4.5578,0.52443 -9.116,1.038 -13.67466,1.54014 0.60735,18.09747 2.25717,36.09247 4.94946,53.98499 -4.23441,0.81044 -8.47178,1.60456 -12.71219,2.38159 -6.14728,-43.16489 -6.69851,-86.85836 -1.65369,-131.08039 9.60431,-0.0206 19.20878,-0.0423 28.81341,-0.065 10.78409,-0.0254 18.3811,2.96905 22.93157,8.73318 4.5503,5.76436 6.1355,14.34811 5.44091,25.91721 -0.45354,7.55221 -1.97066,13.89011 -4.74452,19.14218 -2.73254,5.24823 -6.60014,9.15745 -11.73739,11.6997 z m -29.49236,-50.97263 c -1.42149,15.39061 -2.10751,30.70893 -2.05808,45.95495 5.26457,-0.46751 10.5291,-0.94741 15.79366,-1.43901 6.05213,-0.56508 10.59554,-2.87187 13.71266,-6.82572 3.1592,-4.01233 4.83298,-9.55495 5.23148,-16.73439 0.39836,-7.17925 -0.67795,-12.51618 -3.46792,-16.07262 -2.74308,-3.61309 -7.14286,-5.39131 -13.25711,-5.24803 -5.3186,0.12472 -10.63683,0.24639 -15.95469,0.36482 z" />
      <path
         style=""
         d="m 828.26044,515.24354 c 4.25501,-0.0117 8.51006,-0.0236 12.76514,-0.0357 -2.94646,15.81228 -4.60293,31.47012 -4.9694,46.97353 14.26862,-16.9023 29.95871,-32.62829 47.31088,-47.09775 5.47717,-0.0166 10.9544,-0.0334 16.43171,-0.0503 -19.29811,15.34205 -36.55163,32.24603 -52.05866,50.61604 16.30041,17.1782 34.57126,31.89642 55.1224,43.85998 -5.49537,1.43912 -10.99449,2.86546 -16.49754,4.2773 -18.55382,-11.56219 -35.25646,-25.33617 -50.35918,-41.08867 0.24865,17.58578 2.17221,34.97105 5.77066,52.15581 -4.19588,1.00332 -8.39425,1.9956 -12.59518,2.97611 -7.36495,-36.70255 -7.6719,-74.23133 -0.92083,-112.58633 0,-10e-6 0,-10e-6 0,-2e-5 z"
         id="path3870"
         inkscape:original-d="m 828.41039,515.75717 c 4.25501,-0.0117 8.51006,-0.0236 12.76514,-0.0357 -2.94646,15.81228 -4.60293,31.47012 -4.9694,46.97353 14.26862,-16.9023 29.95871,-32.62829 47.31088,-47.09775 5.47717,-0.0166 10.9544,-0.0334 16.43171,-0.0503 -19.29811,15.34205 -36.55163,32.24603 -52.05866,50.61604 16.30041,17.1782 34.57126,31.89642 55.1224,43.85998 -5.49537,1.43912 -10.99449,2.86546 -16.49754,4.2773 -18.55382,-11.56219 -35.25646,-25.33617 -50.35918,-41.08867 0.24865,17.58578 2.17221,34.97105 5.77066,52.15581 -4.19588,1.00332 -8.39425,1.9956 -12.59518,2.97611 -7.36495,-36.70255 -7.6719,-74.23133 -0.92083,-112.58633 z" />
    </g>
    <text
       transform="scale(0.72241359,1.3842486)"
       xml:space="preserve"
       style="font-size:129.50645447px;font-style:normal;font-weight:normal;line-height:125%;letter-spacing:0px;word-spacing:0px;fill:#d40000;fill-opacity:1;stroke:none;font-family:Sans"
       x="274.52206"
       y="359.47711"
       id="text3811"
       sodipodi:linespacing="125%"><tspan
         sodipodi:role="line"
         id="tspan3813"
         x="274.52206"
         y="359.47711">SOFTVAERK</tspan></text>
  </g>
</svg>
