<?xml version="1.0" encoding="UTF-8" standalone="no"?>
<!-- Created with Inkscape (http://www.inkscape.org/) -->

<svg
   xmlns:dc="http://purl.org/dc/elements/1.1/"
   xmlns:cc="http://creativecommons.org/ns#"
   xmlns:rdf="http://www.w3.org/1999/02/22-rdf-syntax-ns#"
   xmlns:svg="http://www.w3.org/2000/svg"
   xmlns="http://www.w3.org/2000/svg"
   xmlns:sodipodi="http://sodipodi.sourceforge.net/DTD/sodipodi-0.dtd"
   xmlns:inkscape="http://www.inkscape.org/namespaces/inkscape"
   id="svg2"
   version="1.1"
   inkscape:version="0.48.2 r9819"
   width="261.76419"
   height="213.23984"
   xml:space="preserve"
   sodipodi:docname="yubio_logo_small.svg"><metadata
     id="metadata8"><rdf:RDF><cc:Work
         rdf:about=""><dc:format>image/svg+xml</dc:format><dc:type
           rdf:resource="http://purl.org/dc/dcmitype/StillImage" /><dc:title></dc:title></cc:Work></rdf:RDF></metadata><defs
     id="defs6"><clipPath
       clipPathUnits="userSpaceOnUse"
       id="clipPath16"><path
         d="m 0,623.622 566.929,0 L 566.929,0 0,0 0,623.622 z"
         id="path18"
         inkscape:connector-curvature="0" /></clipPath><clipPath
       clipPathUnits="userSpaceOnUse"
       id="clipPath36"><path
         d="m 0,623.622 566.929,0 L 566.929,0 0,0 0,623.622 z"
         id="path38"
         inkscape:connector-curvature="0" /></clipPath><clipPath
       clipPathUnits="userSpaceOnUse"
       id="clipPath54"><path
         d="m 186.844,230.22 40.132,0 0,-83.362 -40.132,0 0,83.362 z"
         id="path56"
         inkscape:connector-curvature="0" /></clipPath><clipPath
       clipPathUnits="userSpaceOnUse"
       id="clipPath68"><path
         d="m 226.976,160.22 40.131,0 0,-83.3616 -40.131,0 0,83.3616 z"
         id="path70"
         inkscape:connector-curvature="0" /></clipPath><clipPath
       clipPathUnits="userSpaceOnUse"
       id="clipPath82"><path
         d="m 267.108,230.22 48.684,0 0,-84.862 -48.684,0 0,84.862 z"
         id="path84"
         inkscape:connector-curvature="0" /></clipPath><clipPath
       clipPathUnits="userSpaceOnUse"
       id="clipPath96"><path
         d="m 315.463,159.22 17.762,0 0,-82.3616 -17.762,0 0,82.3616 z"
         id="path98"
         inkscape:connector-curvature="0" /></clipPath><clipPath
       clipPathUnits="userSpaceOnUse"
       id="clipPath110"><path
         d="m 333.227,230.22 45.393,0 0,-85.362 -45.393,0 0,85.362 z"
         id="path112"
         inkscape:connector-curvature="0" /></clipPath><clipPath
       clipPathUnits="userSpaceOnUse"
       id="clipPath124"><path
         d="m 0,623.622 566.929,0 L 566.929,0 0,0 0,623.622 z"
         id="path126"
         inkscape:connector-curvature="0" /></clipPath><clipPath
       clipPathUnits="userSpaceOnUse"
       id="clipPath142"><path
         d="m 191.948,182.104 180.675,0 0,-56.656 -180.675,0 0,56.656 z"
         id="path144"
         inkscape:connector-curvature="0" /></clipPath><clipPath
       clipPathUnits="userSpaceOnUse"
       id="clipPath164"><path
         d="m 0,623.622 566.929,0 L 566.929,0 0,0 0,623.622 z"
         id="path166"
         inkscape:connector-curvature="0" /></clipPath><clipPath
       clipPathUnits="userSpaceOnUse"
       id="clipPath334"><path
         d="m 0,623.622 566.929,0 L 566.929,0 0,0 0,623.622 z"
         id="path336"
         inkscape:connector-curvature="0" /></clipPath><clipPath
       clipPathUnits="userSpaceOnUse"
       id="clipPath346"><path
         d="m 0,623.622 566.929,0 L 566.929,0 0,0 0,623.622 z"
         id="path348"
         inkscape:connector-curvature="0" /></clipPath><clipPath
       clipPathUnits="userSpaceOnUse"
       id="clipPath366"><path
         d="m 0,623.622 566.929,0 L 566.929,0 0,0 0,623.622 z"
         id="path368"
         inkscape:connector-curvature="0" /></clipPath><clipPath
       clipPathUnits="userSpaceOnUse"
       id="clipPath386"><path
         d="m 0,623.622 566.929,0 L 566.929,0 0,0 0,623.622 z"
         id="path388"
         inkscape:connector-curvature="0" /></clipPath><clipPath
       clipPathUnits="userSpaceOnUse"
       id="clipPath666"><path
         d="m 0,623.622 566.929,0 L 566.929,0 0,0 0,623.622 z"
         id="path668"
         inkscape:connector-curvature="0" /></clipPath></defs><sodipodi:namedview
     pagecolor="#ffffff"
     bordercolor="#666666"
     borderopacity="1"
     objecttolerance="10"
     gridtolerance="10"
     guidetolerance="10"
     inkscape:pageopacity="0"
     inkscape:pageshadow="2"
     inkscape:window-width="1440"
     inkscape:window-height="798"
     id="namedview4"
     showgrid="false"
     inkscape:zoom="0.3"
     inkscape:cx="86.528383"
     inkscape:cy="123.47185"
     inkscape:window-x="0"
     inkscape:window-y="0"
     inkscape:window-maximized="1"
     inkscape:current-layer="g10"
     fit-margin-top="0"
     fit-margin-left="0"
     fit-margin-right="0"
     fit-margin-bottom="0" /><g
     id="g10"
     inkscape:groupmode="layer"
     inkscape:label="NYT logo 2 kopi"
     transform="matrix(1.25,0,0,-1.25,786.80263,1752.1566)"><g
       id="g330"><g
         id="g332"
         clip-path="url(#clipPath334)"><path
           d="m 383.309,-241.391 -200.685,0 0,151.591 200.685,0 0,-151.591 z"
           style="fill:#6170ac;fill-opacity:1;fill-rule:nonzero;stroke:none"
           id="path338"
           inkscape:connector-curvature="0" /><path
           d="m 379.309,-566.874 -192.685,0 0,151.591 192.685,0 0,-151.591 z"
           style="fill:#6170ac;fill-opacity:1;fill-rule:nonzero;stroke:none"
           id="path340"
           inkscape:connector-curvature="0" /></g></g><g
       id="g342"><g
         id="g344"
         clip-path="url(#clipPath346)"><path
           d="m 368.334,-484.046 -55.334,0 0,55.334 55.334,0 0,-55.334 z"
           style="fill:#ffffff;fill-opacity:1;fill-rule:nonzero;stroke:none"
           id="path350"
           inkscape:connector-curvature="0" /><path
           d="m 368.334,-484.046 -55.334,0 0,55.334 55.334,0 0,-55.334 z"
           style="fill:none;stroke:#424d94;stroke-width:2;stroke-linecap:butt;stroke-linejoin:miter;stroke-miterlimit:4;stroke-opacity:1;stroke-dasharray:none"
           id="path352"
           inkscape:connector-curvature="0" /><path
           d="m 322.334,-553.712 -55.334,0 0,55.334 55.334,0 0,-55.334 z"
           style="fill:#ffffff;fill-opacity:1;fill-rule:nonzero;stroke:none"
           id="path354"
           inkscape:connector-curvature="0" /><path
           d="m 322.334,-553.712 -55.334,0 0,55.334 55.334,0 0,-55.334 z"
           style="fill:none;stroke:#424d94;stroke-width:2;stroke-linecap:butt;stroke-linejoin:miter;stroke-miterlimit:4;stroke-opacity:1;stroke-dasharray:none"
           id="path356"
           inkscape:connector-curvature="0" /><path
           d="m 253.667,-516.379 -55.334,0 0,55.334 55.334,0 0,-55.334 z"
           style="fill:#ffffff;fill-opacity:1;fill-rule:nonzero;stroke:none"
           id="path358"
           inkscape:connector-curvature="0" /><path
           d="m 253.667,-516.379 -55.334,0 0,55.334 55.334,0 0,-55.334 z"
           style="fill:none;stroke:#424d94;stroke-width:2;stroke-linecap:butt;stroke-linejoin:miter;stroke-miterlimit:4;stroke-opacity:1;stroke-dasharray:none"
           id="path360"
           inkscape:connector-curvature="0" /></g></g><g
       id="g362"><g
         id="g364"
         clip-path="url(#clipPath366)"><path
           d="m -227.566,578.957 -43.452,0 0,43.451 43.452,0 0,-43.451 z"
           style="fill:#31366e;fill-opacity:1;fill-rule:nonzero;stroke:none"
           id="path370"
           inkscape:connector-curvature="0" /><path
           d="m -278.897,578.957 -43.452,0 0,43.451 43.452,0 0,-43.451 z"
           style="fill:#2e3144;fill-opacity:1;fill-rule:nonzero;stroke:none"
           id="path372"
           inkscape:connector-curvature="0" /><path
           d="m -176.294,578.957 -43.452,0 0,43.451 43.452,0 0,-43.451 z"
           style="fill:#424d94;fill-opacity:1;fill-rule:nonzero;stroke:none"
           id="path374"
           inkscape:connector-curvature="0" /><path
           d="m -125.022,578.957 -43.451,0 0,43.451 43.451,0 0,-43.451 z"
           style="fill:#6170ac;fill-opacity:1;fill-rule:nonzero;stroke:none"
           id="path376"
           inkscape:connector-curvature="0" /><path
           d="m -73.75,578.957 -43.451,0 0,43.451 43.451,0 0,-43.451 z"
           style="fill:#72c2b5;fill-opacity:1;fill-rule:nonzero;stroke:none"
           id="path378"
           inkscape:connector-curvature="0" /><path
           d="m -22.477,578.957 -43.453,0 0,43.451 43.453,0 0,-43.451 z"
           style="fill:#eb6b30;fill-opacity:1;fill-rule:nonzero;stroke:none"
           id="path380"
           inkscape:connector-curvature="0" /></g></g><g
       id="g4235"
       transform="translate(-61.467127,714.18663)"><path
         d="m -358.56363,516.9468 -209.41135,0 0,170.59187 209.41135,0 0,-170.59187 z"
         style="fill:#2e3144;fill-opacity:1;fill-rule:nonzero;stroke:none"
         id="path4202"
         inkscape:connector-curvature="0" /><path
         d="m -519.23816,597.52312 -40.131,0 0,83.361 40.131,0 0,-83.361 z"
         style="fill:#31366e;fill-opacity:1;fill-rule:nonzero;stroke:none"
         id="path4204"
         inkscape:connector-curvature="0" /><path
         d="m -479.10716,527.52312 -40.131,0 0,83.361 40.131,0 0,-83.361 z"
         style="fill:#424d94;fill-opacity:1;fill-rule:nonzero;stroke:none"
         id="path4206"
         inkscape:connector-curvature="0" /><path
         d="m -430.42216,596.02312 -48.684,0 0,84.861 48.684,0 0,-84.861 z"
         style="fill:#6170ac;fill-opacity:1;fill-rule:nonzero;stroke:none"
         id="path4208"
         inkscape:connector-curvature="0" /><path
         d="m -412.98916,527.52212 -17.762,0 0,82.362 17.762,0 0,-82.362 z"
         style="fill:#72c2b5;fill-opacity:1;fill-rule:nonzero;stroke:none"
         id="path4210"
         inkscape:connector-curvature="0" /><path
         d="m -367.59416,595.52312 -45.394,0 0,85.361 45.394,0 0,-85.361 z"
         style="fill:#eb6b30;fill-opacity:1;fill-rule:nonzero;stroke:none"
         id="path4212"
         inkscape:connector-curvature="0" /><path
         d="m -554.26616,619.64412 4.305,0 10.951,-24.505 10.661,24.505 4.364,0 -19,-43.531 -4.364,0 6.177,14.15 -13.094,29.381 z"
         style="fill:#ffffff;fill-opacity:1;fill-rule:nonzero;stroke:none"
         id="path4214"
         inkscape:connector-curvature="0" /><path
         d="m -513.22316,619.64412 4.093,0 0,-14.87 c 0,-3.63 0.196,-6.128 0.588,-7.495 0.587,-1.951 1.708,-3.493 3.364,-4.625 1.655,-1.131 3.628,-1.697 5.92,-1.697 2.291,0 4.235,0.551 5.831,1.654 1.596,1.102 2.698,2.551 3.305,4.347 0.411,1.229 0.617,3.834 0.617,7.816 l 0,14.87 4.188,0 0,-15.64 c 0,-4.394 -0.513,-7.704 -1.539,-9.93 -1.026,-2.226 -2.57,-3.969 -4.632,-5.228 -2.061,-1.259 -4.646,-1.889 -7.753,-1.889 -3.107,0 -5.702,0.63 -7.783,1.889 -2.081,1.259 -3.634,3.016 -4.66,5.272 -1.027,2.255 -1.539,5.648 -1.539,10.179 l 0,15.347 z"
         style="fill:#ffffff;fill-opacity:1;fill-rule:nonzero;stroke:none"
         id="path4216"
         inkscape:connector-curvature="0" /><path
         d="m -453.52816,590.92512 c 2.279,0 4.382,0.561 6.311,1.683 1.929,1.122 3.463,2.697 4.603,4.727 1.139,2.028 1.709,4.174 1.709,6.438 0,2.263 -0.575,4.419 -1.724,6.468 -1.149,2.048 -2.693,3.643 -4.632,4.785 -1.938,1.141 -4.008,1.712 -6.209,1.712 -2.241,0 -4.369,-0.571 -6.386,-1.712 -2.016,-1.142 -3.565,-2.678 -4.646,-4.61 -1.081,-1.931 -1.622,-4.107 -1.622,-6.526 0,-3.687 1.213,-6.77 3.639,-9.248 2.425,-2.478 5.41,-3.717 8.957,-3.717 m -16.408,-3.156 0,44.188 4.094,0 0,-17.799 c 1.716,2.109 3.639,3.686 5.766,4.731 2.127,1.045 4.458,1.568 6.995,1.568 4.508,0 8.356,-1.636 11.547,-4.906 3.19,-3.27 4.785,-7.237 4.785,-11.903 0,-4.607 -1.61,-8.541 -4.829,-11.801 -3.22,-3.26 -7.093,-4.89 -11.62,-4.89 -2.596,0 -4.947,0.555 -7.054,1.666 -2.108,1.11 -3.971,2.779 -5.59,5.006 l 0,-5.86 -4.094,0 z"
         style="fill:#ffffff;fill-opacity:1;fill-rule:nonzero;stroke:none"
         id="path4218"
         inkscape:connector-curvature="0" /><path
         d="m -423.91516,619.64412 4.094,0 0,-31.875 -4.094,0 0,31.875 z m 2.033,13.125 c 0.93,0 1.725,-0.333 2.385,-0.998 0.658,-0.665 0.988,-1.468 0.988,-2.407 0,-0.92 -0.33,-1.713 -0.988,-2.378 -0.66,-0.666 -1.455,-0.998 -2.385,-0.998 -0.912,0 -1.697,0.332 -2.356,0.998 -0.66,0.665 -0.99,1.458 -0.99,2.378 0,0.939 0.33,1.742 0.99,2.407 0.659,0.665 1.444,0.998 2.356,0.998"
         style="fill:#ffffff;fill-opacity:1;fill-rule:nonzero;stroke:none"
         id="path4220"
         inkscape:connector-curvature="0" /><path
         d="m -390.20016,616.45712 c -3.407,0 -6.334,-1.26 -8.782,-3.778 -2.447,-2.519 -3.671,-5.564 -3.671,-9.136 0,-2.304 0.558,-4.452 1.673,-6.443 1.118,-1.991 2.623,-3.529 4.524,-4.612 1.898,-1.084 3.984,-1.625 6.256,-1.625 2.271,0 4.357,0.541 6.256,1.625 1.9,1.083 3.406,2.621 4.523,4.612 1.115,1.991 1.674,4.139 1.674,6.443 0,3.572 -1.229,6.617 -3.686,9.136 -2.457,2.518 -5.381,3.778 -8.767,3.778 m 0.015,4 c 4.907,0 8.971,-1.777 12.196,-5.33 2.931,-3.241 4.398,-7.077 4.398,-11.508 0,-4.451 -1.549,-8.342 -4.646,-11.67 -3.1,-3.328 -7.082,-4.992 -11.948,-4.992 -4.886,0 -8.879,1.664 -11.978,4.992 -3.098,3.328 -4.647,7.219 -4.647,11.67 0,4.412 1.467,8.238 4.399,11.479 3.224,3.572 7.301,5.359 12.226,5.359"
         style="fill:#ffffff;fill-opacity:1;fill-rule:nonzero;stroke:none"
         id="path4222"
         inkscape:connector-curvature="0" /></g></g></svg>