<?xml version="1.0" encoding="utf-8"?>
<!-- Generator: Adobe Illustrator 21.1.0, SVG Export Plug-In . SVG Version: 6.00 Build 0)  -->
<svg version="1.1" xmlns="http://www.w3.org/2000/svg" xmlns:xlink="http://www.w3.org/1999/xlink" x="0px" y="0px"
	 viewBox="0 0 566.9 481" style="enable-background:new 0 0 566.9 481;" xml:space="preserve">
<style type="text/css">
	.st0{fill:url(#SVGID_1_);}
	.st1{fill:#57A5DB;}
	.st2{fill:#EC6907;}
	.st3{fill:url(#SVGID_2_);}
	.st4{fill:none;stroke:#000000;stroke-width:0.5;stroke-miterlimit:10;}
	.st5{fill:#FFFFFF;}
	.st6{font-family:'Verdana-Bold';}
	.st7{font-size:9px;}
	.st8{font-family:'Verdana';}
</style>
<g id="Lag_1">
	<linearGradient id="SVGID_1_" gradientUnits="userSpaceOnUse" x1="283.4646" y1="283.0703" x2="283.4646" y2="-9.094947e-13">
		<stop  offset="0" style="stop-color:#72CAF1"/>
		<stop  offset="7.581961e-02" style="stop-color:#5AC3DE"/>
		<stop  offset="0.2343" style="stop-color:#15B5BC"/>
		<stop  offset="0.3934" style="stop-color:#00A9A0"/>
		<stop  offset="0.5507" style="stop-color:#00A28A"/>
		<stop  offset="0.7054" style="stop-color:#009C7A"/>
		<stop  offset="0.8566" style="stop-color:#009971"/>
		<stop  offset="1" style="stop-color:#00986E"/>
	</linearGradient>
	<rect class="st0" width="566.9" height="283.1"/>
</g>
<g id="Lag_6">
	<g>
		
			<image style="overflow:visible;opacity:0.75;" width="525" height="306" xlink:href="723EA4534A45DC6C.png"  transform="matrix(0.24 0 0 0.24 418.5078 34.0841)">
		</image>
		<g>
			<rect x="420.2" y="35.7" class="st1" width="121" height="68.3"/>
		</g>
	</g>
	<g>
		
			<image style="overflow:visible;opacity:0.75;" width="525" height="306" xlink:href="723EA4534A45DC6D.png"  transform="matrix(0.24 0 0 0.24 418.5078 151.0841)">
		</image>
		<g>
			<rect x="420.2" y="152.7" class="st1" width="121" height="68.3"/>
		</g>
	</g>
	<g>
		
			<image style="overflow:visible;opacity:0.75;" width="525" height="200" xlink:href="723EA4534A45DC6B.png"  transform="matrix(0.24 0 0 0.24 418.5078 233.0841)">
		</image>
		<g>
			<rect x="420.2" y="234.7" class="st1" width="121" height="42.9"/>
		</g>
	</g>
	<g>
		
			<image style="overflow:visible;opacity:0.75;" width="527" height="157" xlink:href="723EA4534A45DC74.png"  transform="matrix(0.24 0 0 0.24 418.2719 107.4524)">
		</image>
		<g>
			<rect x="420.2" y="109.3" class="st1" width="121" height="32.2"/>
		</g>
	</g>
	<g>
		
			<image style="overflow:visible;opacity:0.75;" width="400" height="134" xlink:href="723EA4534A45DC77.png"  transform="matrix(0.24 0 0 0.24 24.6719 123.4524)">
		</image>
		<g>
			<rect x="26.3" y="125.3" class="st2" width="90.8" height="26.7"/>
		</g>
	</g>
</g>
<g id="Lag_2">
	<linearGradient id="SVGID_2_" gradientUnits="userSpaceOnUse" x1="1.1802" y1="20.9141" x2="566.9291" y2="20.9141">
		<stop  offset="5.302181e-02" style="stop-color:#F6A424"/>
		<stop  offset="0.4919" style="stop-color:#E30613"/>
		<stop  offset="0.5702" style="stop-color:#E10814"/>
		<stop  offset="0.6585" style="stop-color:#D91016"/>
		<stop  offset="0.7518" style="stop-color:#CB181A"/>
		<stop  offset="0.8485" style="stop-color:#B81F1E"/>
		<stop  offset="0.9469" style="stop-color:#9D2624"/>
		<stop  offset="1" style="stop-color:#8C2A27"/>
	</linearGradient>
	<rect x="1.2" y="11.3" class="st3" width="565.7" height="19.2"/>
</g>
<g id="Lag_5">
</g>
<g id="pile">
	<g>
		<g>
			<line class="st4" x1="120.8" y1="138.3" x2="169.3" y2="88.6"/>
			<g>
				<polygon points="170.6,90.8 171.8,86 167,87.4 				"/>
			</g>
		</g>
	</g>
	<g>
		<g>
			<line class="st4" x1="250.5" y1="209.3" x2="307" y2="165.9"/>
			<g>
				<polygon points="307.9,168.3 309.8,163.7 304.9,164.3 				"/>
			</g>
		</g>
	</g>
	<g>
		<g>
			<line class="st4" x1="250.5" y1="209.7" x2="306.7" y2="243.5"/>
			<g>
				<polygon points="304.8,245.2 309.8,245.3 307.4,241 				"/>
			</g>
		</g>
	</g>
	<g>
		<g>
			<line class="st4" x1="120.8" y1="138" x2="169.5" y2="197.6"/>
			<g>
				<polygon points="167.2,198.6 171.8,200.3 171,195.4 				"/>
			</g>
		</g>
	</g>
	<g>
		<g>
			<line class="st4" x1="252.5" y1="86.3" x2="308.9" y2="47.7"/>
			<g>
				<polygon points="309.7,50.2 311.8,45.7 306.8,46.1 				"/>
			</g>
		</g>
	</g>
	<g>
		<g>
			<line class="st4" x1="252.5" y1="86.7" x2="308.7" y2="117.6"/>
			<g>
				<polygon points="306.8,119.4 311.8,119.3 309.2,115.1 				"/>
			</g>
		</g>
	</g>
</g>
<g id="txt">
	<g>
		
			<image style="overflow:visible;opacity:0.75;" width="680" height="63" xlink:href="723EA4534A45DC75.png"  transform="matrix(0.24 0 0 0.24 217.6788 14.6192)">
		</image>
		<g>
			<text transform="matrix(1 0 0 1 218.8194 24.3335)" class="st5 st6 st7">FOKUS PÅ FYSIK ELLER RISIKO</text>
		</g>
	</g>
	<text transform="matrix(1 0 0 1 29.8196 143)" class="yText st6 st7">EKSTREMSPORT</text>
	<text transform="matrix(1 0 0 1 175.1529 90.3332)" class="yText st6 st7">FYSISK SPORT</text>
	<text transform="matrix(1 0 0 1 176.1529 211.6665)" class="yText st6 st7">RISIKOSPORT</text>
	<text transform="matrix(1 0 0 1 423.4859 49.3327)"><tspan x="0" y="0" class="st8 st7">• Maratonløb</tspan><tspan x="0" y="12" class="st8 st7">• Ultraløb</tspan><tspan x="0" y="24" class="st8 st7">• Ironman</tspan><tspan x="0" y="36" class="st8 st7">• Exterra</tspan><tspan x="0" y="48" class="st8 st7">• Adventureløb</tspan></text>
	<text transform="matrix(1 0 0 1 423.4856 165.6665)"><tspan x="0" y="0" class="st8 st7">• Klatring</tspan><tspan x="0" y="12" class="st8 st7">• Riverrafting</tspan><tspan x="0" y="24" class="st8 st7">• Bjergbestigning</tspan><tspan x="0" y="36" class="st8 st7">• Free-ride skiing</tspan><tspan x="0" y="48" class="st8 st7">• Downhill mountainbike</tspan></text>
	<text transform="matrix(1 0 0 1 423.4856 247.333)"><tspan x="0" y="0" class="st8 st7">• Bungeejump</tspan><tspan x="0" y="12" class="st8 st7">• Basejump</tspan><tspan x="0" y="24" class="st8 st7">• Faldskærmsudspring</tspan></text>
	<text transform="matrix(1 0 0 1 316.8194 165.6667)" class="st6 st7">Angstbeherskelse</text>
	<text transform="matrix(1 0 0 1 316.8194 247.3333)" class="st6 st7">Angstovervindelse</text>
	<text transform="matrix(1 0 0 1 316.8192 48)" class="st6 st7">Udholdenhed</text>
	<text transform="matrix(1 0 0 1 316.8191 122)" class="st6 st7">Styrkebetonet</text>
	<text transform="matrix(1 0 0 1 423.4859 122.3333)"><tspan x="0" y="0" class="st8 st7">• Stærk-mand</tspan><tspan x="0" y="12" class="st8 st7">• Bodybuilding</tspan></text>
</g>
</svg>
