<?xml version="1.0" encoding="utf-8"?>
<!-- Generator: Adobe Illustrator 21.1.0, SVG Export Plug-In . SVG Version: 6.00 Build 0)  -->
<svg version="1.1" xmlns="http://www.w3.org/2000/svg" xmlns:xlink="http://www.w3.org/1999/xlink" x="0px" y="0px"
	 viewBox="0 0 269.3 481" style="enable-background:new 0 0 269.3 481;" xml:space="preserve">
<style type="text/css">
	.st0{fill:url(#SVGID_1_);}
	.st1{fill:none;stroke:#000000;stroke-width:0.5;stroke-miterlimit:10;}
	.st2{fill:none;stroke:#FFFFFF;stroke-width:1.2;stroke-miterlimit:10;}
	.st3{fill:none;stroke:#000000;stroke-width:0.5;stroke-miterlimit:10;stroke-dasharray:1.986,1.986;}
	.st4{fill:#4EAE33;}
	.st5{fill:none;stroke:#FFFFFF;stroke-width:0.25;stroke-miterlimit:10;}
	.st6{fill:#E30613;}
	.st7{fill:#F8CF8B;}
	.st8{font-family:'Verdana';}
	.st9{font-size:9px;}
	.st10{font-family:'Verdana-Bold';}
</style>
<g id="Lag_6">
	<linearGradient id="SVGID_1_" gradientUnits="userSpaceOnUse" x1="134.645" y1="218.25" x2="134.645" y2="0">
		<stop  offset="0.2245" style="stop-color:#F8CF8B"/>
		<stop  offset="1" style="stop-color:#D01321"/>
	</linearGradient>
	<rect class="st0" width="269.3" height="218.2"/>
</g>
<g id="Lag_1">
	<g>
		<g>
			<polyline class="st1" points="37,35.1 37,179 252.2,179 			"/>
			<g>
				<polygon points="34.5,35.8 37,31.5 39.5,35.8 				"/>
			</g>
			<g>
				<polygon points="251.4,181.5 255.8,179 251.4,176.5 				"/>
			</g>
		</g>
	</g>
</g>
<g id="Lag_2">
	<g>
		
			<image style="overflow:visible;opacity:0.75;" width="517" height="480" xlink:href="FF54C4426B0DF6A5.png"  transform="matrix(0.24 0 0 0.24 39.5349 56.5157)">
		</image>
		<g>
			<path class="st2" d="M41.2,169.2c0,0,28.5-111.2,62-111s57.5,110.5,57.5,110.5"/>
		</g>
	</g>
	<g>
		
			<image style="overflow:visible;opacity:0.75;" width="517" height="480" xlink:href="FF54C4426B0DF6A7.png"  transform="matrix(0.24 0 0 0.24 111.5349 56.5157)">
		</image>
		<g>
			<path class="st2" d="M113.2,169.2c0,0,28.5-111.2,62-111s57.5,110.5,57.5,110.5"/>
		</g>
	</g>
</g>
<g id="Lag_3">
	<g>
		<g>
			<line class="st1" x1="36.8" y1="57.5" x2="37.8" y2="57.5"/>
			<line class="st3" x1="39.7" y1="57.5" x2="249.3" y2="57.5"/>
			<line class="st1" x1="250.2" y1="57.5" x2="251.2" y2="57.5"/>
		</g>
	</g>
</g>
<g id="Lag_5">
	<g>
		
			<image style="overflow:visible;opacity:0.75;" width="74" height="74" xlink:href="FF54C4426B0DF6A2.png"  transform="matrix(0.24 0 0 0.24 41.9911 131.6161)">
		</image>
		<g>
			<circle class="st4" cx="50.2" cy="139.9" r="7"/>
			<circle class="st5" cx="50.2" cy="139.9" r="7"/>
		</g>
	</g>
	<g>
		
			<image style="overflow:visible;opacity:0.75;" width="74" height="74" xlink:href="FF54C4426B0DF6A3.png"  transform="matrix(0.24 0 0 0.24 113.2411 131.6161)">
		</image>
		<g>
			<circle class="st4" cx="121.5" cy="139.9" r="7"/>
			<circle class="st5" cx="121.5" cy="139.9" r="7"/>
		</g>
	</g>
	<g>
		
			<image style="overflow:visible;opacity:0.75;" width="449" height="69" xlink:href="FF54C4426B0DF6AD.png"  transform="matrix(0.24 0 0 0.24 9.3392 9.5792)">
		</image>
		<g>
			<rect x="10.5" y="10.8" class="st6" width="104" height="12.8"/>
		</g>
	</g>
	<g>
		
			<image style="overflow:visible;opacity:0.75;" width="370" height="69" xlink:href="FF54C4426B0DF6AF.png"  transform="matrix(0.24 0 0 0.24 164.8592 196.7792)">
		</image>
		<g>
			<rect x="166" y="198" class="st7" width="85" height="12.8"/>
		</g>
	</g>
</g>
<g id="txt">
	<text transform="matrix(1 0 0 1 13.5 46.5)" class="st8 st9">Høj</text>
	<text transform="matrix(1 0 0 1 233.75 193.25)" class="st8 st9">Høj</text>
	<text transform="matrix(1 0 0 1 13.5 172.5)" class="st8 st9">Lav</text>
	<text transform="matrix(1 0 0 1 43 193.25)" class="st8 st9">Lav</text>
	<text transform="matrix(1 0 0 1 92.25 54.25)" class="st10 st9">OSN</text>
	<text transform="matrix(1 0 0 1 164 54.25)" class="st10 st9">OSN</text>
	<text transform="matrix(1 0 0 1 44.75 165.25)" class="yText st8 st9">Søvn</text>
	<text transform="matrix(1 0 0 1 45.25 126)" class="yText st8 st9">Kedsomhed</text>
	<text transform="matrix(1 0 0 1 55.25 87.25)" class="yText st8 st9">Interesse</text>
	<text transform="matrix(1 0 0 1 112.5 87.25)" class="yText st8 st9">Stress</text>
	<text transform="matrix(1 0 0 1 137 113)" class="yText st8 st9">Angst</text>
	<text transform="matrix(1 0 0 1 143.75 138.75)" class="yText st8 st9">Panik</text>
	<text transform="matrix(1 0 0 1 140.5 165.25)" class="yText st8 st9">Sammenbrud</text>
	<text transform="matrix(1 0 0 1 47 142.5)" class="st8 st9">A</text>
	<text transform="matrix(1 0 0 1 118.5 143.25)" class="st8 st9">B</text>
	<text transform="matrix(1 0 0 1 170 207)" class="st10 st9">Stimulimængde</text>
	<text transform="matrix(1 0 0 1 12.75 20.5)" class="st10 st9">Adfærd/præstation</text>
</g>
</svg>
