<?xml version="1.0" encoding="utf-8"?>
<svg style="enable-background:new 0 0 566.9 481;" x="0px" y="0px" viewBox="0 0 566.9 481" xmlns="http://www.w3.org/2000/svg">
  <style type="text/css">
	.st0{fill:url(#SVGID_1_);}
	.st1{fill:#87D1F1;}
	.st2{fill:#FCC000;}
	.st3{fill:#EB71A4;}
	.st4{fill:none;stroke:#000000;}
	.st5{font-family:'Verdana';}
	.st6{font-size:9px;}
</style>
  <g id="Lag_5">
    <linearGradient id="SVGID_1_" gradientUnits="userSpaceOnUse" x1="179.2329" y1="256.5776" x2="179.2329" y2="6.100802e-06">
      <stop offset="0" style="stop-color:#00AFBF"/>
      <stop offset="0.0569" style="stop-color:#4BBCCB"/>
      <stop offset="0.1474" style="stop-color:#8ACFDC"/>
      <stop offset="0.2353" style="stop-color:#AFDDE9"/>
      <stop offset="0.3187" style="stop-color:#C6E7F2"/>
      <stop offset="0.3959" style="stop-color:#D3ECF8"/>
      <stop offset="0.4607" style="stop-color:#D7EEFA"/>
      <stop offset="0.5148" style="stop-color:#D3EAF7"/>
      <stop offset="0.5815" style="stop-color:#C7DCF0"/>
      <stop offset="0.6549" style="stop-color:#B4C6E4"/>
      <stop offset="0.7331" style="stop-color:#9AA8D2"/>
      <stop offset="0.8151" style="stop-color:#7A82BA"/>
      <stop offset="0.9003" style="stop-color:#54569E"/>
      <stop offset="0.9866" style="stop-color:#242F86"/>
      <stop offset="1" style="stop-color:#172983"/>
    </linearGradient>
    <rect y="0" class="st0" width="358.5" height="256.6"/>
  </g>
  <g id="Lag_6">
    <rect x="15.4" y="11.4" class="st1" width="155.3" height="177.6"/>
    <rect x="186.7" y="11.4" class="st1" width="155.3" height="229.1"/>
  </g>
  <g id="Lag_3">
    <g>
      <g>
        <rect x="121.6" y="100.2" class="st2" width="24.2" height="13.7"/>
        <rect x="292.9" y="100.2" class="st2" width="31.1" height="13.7"/>
        <rect x="229.6" y="40.6" class="st3" width="46" height="13.7"/>
      </g>
    </g>
  </g>
  <g id="Lag_4"/>
  <g id="pile">
    <g>
      <line class="st4" x1="82.2" y1="64.2" x2="82.2" y2="122.6"/>
      <polygon points="88.6,119.7 82.2,130.7 75.9,119.7 &#9;&#9;"/>
    </g>
    <g>
      <path class="st4" d="M115.8,74.5c0,0-33.2,5.2-33.2,18.2s29.2,13.6,29.2,13.6"/>
      <polygon points="108.9,100.4 119.9,106.7 108.9,113.1 &#9;&#9;"/>
    </g>
    <g>
      <line class="st4" x1="251.9" y1="64.2" x2="251.9" y2="122.6"/>
      <polygon points="258.3,119.7 251.9,130.7 245.5,119.7 &#9;&#9;"/>
    </g>
    <g>
      <line class="st4" x1="251.9" y1="135.8" x2="251.9" y2="194.3"/>
      <polygon points="258.3,191.4 251.9,202.4 245.5,191.4 &#9;&#9;"/>
    </g>
    <g>
      <path class="st4" d="M285.5,74.5c0,0-33.2,5.2-33.2,18.2s29.2,13.6,29.2,13.6"/>
      <polygon points="278.6,100.4 289.6,106.7 278.6,113.1 &#9;&#9;"/>
    </g>
  </g>
  <g id="txt">
    <text transform="matrix(1 0 0 1 53.7036 49.9873)" class="st5 st6 yText" style="white-space: pre;">Kreatinfosfat</text>
    <text transform="matrix(1 0 0 1 233.9077 49.9873)" class="st5 st6 yText" style="white-space: pre;">Glukose</text>
    <text transform="matrix(1 0 0 1 125.2969 77.6533)" class="st5 st6 yText" style="white-space: pre;">ADP</text>
    <text transform="matrix(1 0 0 1 125.2969 110.1602)" class="st5 st6 yText" style="white-space: pre;">ATP</text>
    <text transform="matrix(1 0 0 1 295.457 77.6533)" class="st5 st6 yText" style="white-space: pre;">2 ADP</text>
    <text transform="matrix(1 0 0 1 295.457 110.1602)" class="st5 st6 yText" style="white-space: pre;">2 ATP</text>
    <text transform="matrix(1 0 0 1 66.1499 145.5068)" class="st5 st6 yText" style="white-space: pre;">Kreatin</text>
    <text transform="matrix(1 0 0 1 223.1538 216.5115)" class="st5 st6 yText" style="white-space: pre;">2 Mælkesyre</text>
  </g>
</svg>