<?xml version="1.0" encoding="utf-8"?>
<!-- Generator: Adobe Illustrator 21.0.2, SVG Export Plug-In . SVG Version: 6.00 Build 0)  -->
<svg version="1.1" xmlns="http://www.w3.org/2000/svg" xmlns:xlink="http://www.w3.org/1999/xlink" x="0px" y="0px"
	 viewBox="0 0 566.9 481" style="enable-background:new 0 0 566.9 481;" xml:space="preserve">
<style type="text/css">
	.st0{fill:url(#SVGID_1_);}
	.st1{fill:#87D1F1;}
	.st2{fill:#EB71A4;}
	.st3{fill:#D9EFFA;}
	.st4{fill:#B3CB3D;}
	.st5{fill:#FCC000;}
	.st6{fill:none;stroke:#000000;}
	.st7{font-family:'Verdana';}
	.st8{font-size:9px;}
	.st9{font-size:7px;}
</style>
<g id="Lag_5">
	<linearGradient id="SVGID_1_" gradientUnits="userSpaceOnUse" x1="452.4488" y1="356.7637" x2="452.4488" y2="6.100802e-06">
		<stop  offset="0" style="stop-color:#00AFBF"/>
		<stop  offset="5.694648e-02" style="stop-color:#4BBCCB"/>
		<stop  offset="0.1474" style="stop-color:#8ACFDC"/>
		<stop  offset="0.2353" style="stop-color:#AFDDE9"/>
		<stop  offset="0.3187" style="stop-color:#C6E7F2"/>
		<stop  offset="0.3959" style="stop-color:#D3ECF8"/>
		<stop  offset="0.4607" style="stop-color:#D7EEFA"/>
		<stop  offset="0.5148" style="stop-color:#D3EAF7"/>
		<stop  offset="0.5815" style="stop-color:#C7DCF0"/>
		<stop  offset="0.6549" style="stop-color:#B4C6E4"/>
		<stop  offset="0.7331" style="stop-color:#9AA8D2"/>
		<stop  offset="0.8151" style="stop-color:#7A82BA"/>
		<stop  offset="0.9003" style="stop-color:#54569E"/>
		<stop  offset="0.9866" style="stop-color:#242F86"/>
		<stop  offset="1" style="stop-color:#172983"/>
	</linearGradient>
	<rect x="338" y="0" class="st0" width="229" height="356.8"/>
</g>
<g id="Lag_6">
	<rect x="358.4" y="11.4" class="st1" width="191.9" height="334.2"/>
</g>
<g id="Lag_3">
	
		<image style="overflow:visible;opacity:0.8;" width="180" height="257" xlink:href="FBC26AE36A83FFC5.png"  transform="matrix(1 0 0 1 361.5983 37.6374)">
	</image>
	<g>
		<g>
			<rect x="418" y="40.6" class="st2" width="46" height="13.7"/>
			<rect x="364.5" y="195.5" class="st3" width="37.3" height="13.7"/>
			<rect x="511.3" y="162.5" class="st4" width="25.5" height="13.7"/>
			<rect x="482.6" y="100.2" class="st5" width="31.1" height="13.7"/>
			<rect x="482.6" y="275.3" class="st5" width="37.3" height="13.7"/>
		</g>
	</g>
</g>
<g id="Lag_4">
</g>
<g id="pile">
	<g>
		<line class="st6" x1="507.4" y1="170.4" x2="454" y2="170.4"/>
		<polygon points="456.9,176.7 445.8,170.4 456.9,164 		"/>
	</g>
	<g>
		<line class="st6" x1="405.6" y1="202.7" x2="429.1" y2="202.7"/>
		<polygon points="426.2,196.3 437.2,202.7 426.2,209.1 		"/>
	</g>
	<g>
		<line class="st6" x1="441.6" y1="65.1" x2="441.6" y2="298.6"/>
		<polygon points="447.9,295.7 441.6,306.7 435.2,295.7 		"/>
	</g>
	<g>
		<path class="st6" d="M475.2,250.5c0,0-33.2,5.2-33.2,18.2c0,13,29.2,13.6,29.2,13.6"/>
		<polygon points="468.2,276.4 479.3,282.7 468.2,289.1 		"/>
	</g>
	<g>
		<path class="st6" d="M474.8,74.5c0,0-33.2,5.2-33.2,18.2s29.2,13.6,29.2,13.6"/>
		<polygon points="467.9,100.4 478.9,106.7 467.9,113.1 		"/>
	</g>
</g>
<g id="txt">
	<text transform="matrix(1 0 0 1 423.8906 49.9873)" class="st7 st8">Glukose</text>
	<text transform="matrix(1 0 0 1 484.791 77.6533)" class="st7 st8">2 ADP</text>
	<text transform="matrix(1 0 0 1 484.791 110.1602)" class="st7 st8">2 ATP</text>
	<text transform="matrix(1 0 0 1 513.8622 172.2774)" class="st7 st8">Fedt</text>
	<text transform="matrix(1 0 0 1 484.1923 253.666)" class="st7 st8">28 ADP</text>
	<text transform="matrix(1 0 0 1 486.1924 285.3936)" class="st7 st8">28 ATP</text>
	<text transform="matrix(1 0 0 1 408.5049 319.6025)"><tspan x="0" y="0" class="st7 st8">6 CO</tspan><tspan x="22.3" y="3" class="st7 st9">2</tspan><tspan x="26.7" y="0" class="st7 st8"> + 6 H</tspan><tspan x="56" y="3" class="st7 st9">2</tspan><tspan x="60.5" y="0" class="st7 st8">O</tspan></text>
	<text transform="matrix(1 0 0 1 368.1147 205.0671)" class="st7 st8">Protein</text>
</g>
</svg>
