<?xml version="1.0" encoding="utf-8"?>
<!-- Generator: Adobe Illustrator 19.1.0, SVG Export Plug-In . SVG Version: 6.00 Build 0)  -->
<svg version="1.1" xmlns="http://www.w3.org/2000/svg" xmlns:xlink="http://www.w3.org/1999/xlink" x="0px" y="0px"
	 viewBox="0 0 269.3 487.6" style="enable-background:new 0 0 269.3 487.6;" xml:space="preserve">
<style type="text/css">
	.st0{fill:url(#SVGID_1_);}
	.st1{fill:#172983;}
	.st2{fill:none;stroke:#000000;stroke-width:0.5;}
	.st3{fill:#0099DC;}
	.st4{fill:#E95E35;}
	.st5{fill:url(#SVGID_2_);stroke:#000000;stroke-width:0.5;stroke-miterlimit:10;}
	.st6{fill:url(#SVGID_3_);}
	.st7{fill:none;stroke:#000000;stroke-width:0.5;stroke-miterlimit:10;}
	.st8{fill:#EBF6FC;stroke:#000000;stroke-width:0.5;}
	.st9{fill:#0081C7;stroke:#000000;stroke-width:0.25;}
	.st10{fill:#BD0518;stroke:#FFFFFF;stroke-width:0.5;}
	.st11{fill:#1C2D44;}
	.st12{fill:none;stroke:#000000;}
	.st13{font-family:'Verdana';}
	.st14{font-size:9px;}
</style>
<g id="Lag_7">
	<linearGradient id="SVGID_1_" gradientUnits="userSpaceOnUse" x1="323.8579" y1="432.9917" x2="-54.5669" y2="54.5669">
		<stop  offset="0" style="stop-color:#E2001A"/>
		<stop  offset="0.1381" style="stop-color:#E85336"/>
		<stop  offset="0.3258" style="stop-color:#F29A77"/>
		<stop  offset="0.4237" style="stop-color:#D6A995"/>
		<stop  offset="0.5232" style="stop-color:#BAAAA3"/>
		<stop  offset="0.6007" style="stop-color:#A8A5A4"/>
		<stop  offset="0.6461" style="stop-color:#A1A2A4"/>
	</linearGradient>
	<rect class="st0" width="269.3" height="487.6"/>
</g>
<g id="Lag_10">
	<g>
		<g>
			<g>
				<path class="st1" d="M141,228.8c0,2.2-1.8,4-4,4c-2.2,0-4-1.8-4-4h-0.6v23h9.4v-23H141z"/>
			</g>
			<g>
				<path class="st2" d="M141,228.8c0,2.2-1.8,4-4,4c-2.2,0-4-1.8-4-4h-0.6v23h9.4v-23H141z"/>
			</g>
		</g>
		<g>
			<g>
				<polygon class="st3" points="129.7,228.7 129.7,225.3 126.1,225.3 126.1,228.7 123.5,228.7 123.5,251.9 132.3,251.9 
					132.3,228.7 				"/>
			</g>
			<g>
				<polygon class="st2" points="129.7,228.7 129.7,225.3 126.1,225.3 126.1,228.7 123.5,228.7 123.5,251.9 132.3,251.9 
					132.3,228.7 				"/>
			</g>
		</g>
	</g>
	<g>
		<g>
			<g>
				<path class="st1" d="M70.4,328.7l-21.2,9.1l0.3,0.6c2.1-0.9,4.4,0.1,5.3,2.1c0.9,2.1-0.1,4.4-2.1,5.3l0,0l0.3,0.6l21.2-9.1
					L70.4,328.7z"/>
			</g>
			<g>
				<path class="st2" d="M70.4,328.7l-21.2,9.1l0.3,0.6c2.1-0.9,4.4,0.1,5.3,2.1c0.9,2.1-0.1,4.4-2.1,5.3l0,0l0.3,0.6l21.2-9.1
					L70.4,328.7z"/>
			</g>
		</g>
		<g>
			<g>
				<polygon class="st3" points="77.6,345.3 74.1,337.3 52.9,346.4 53.9,348.8 50.7,350.1 52.1,353.4 55.3,352 56.3,354.4 				"/>
			</g>
			<g>
				<polygon class="st2" points="77.6,345.3 74.1,337.3 52.9,346.4 53.9,348.8 50.7,350.1 52.1,353.4 55.3,352 56.3,354.4 				"/>
			</g>
		</g>
	</g>
	<g>
		<g>
			<path class="st4" d="M132.3,205.8L132.3,205.8l-8.8,0v23.1l2.6,0.1l0-3.7h3.6v3.6l2.6,0.1v-0.1h0.6c0-2.2,1.8-4,4-4
				c2.2,0,4,1.8,4,4h0.6v-23H132.3z"/>
		</g>
		<g>
			<path class="st2" d="M132.3,205.8L132.3,205.8l-8.8,0v23.1l2.6,0.1l0-3.7h3.6v3.6l2.6,0.1v-0.1h0.6c0-2.2,1.8-4,4-4
				c2.2,0,4,1.8,4,4h0.6v-23H132.3z"/>
		</g>
	</g>
	<g>
		<g>
			<path class="st4" d="M207.2,140.5l-3.1,2.1l-2-2.9l2.9-2l-1.4-2.2l-0.1,0l-0.4-0.5c-1.8,1.3-4.4,0.8-5.6-1
				c-1.3-1.8-0.8-4.4,1-5.6l-0.4-0.5l-18.9,13.1l5.3,7.7l0,0l5,7.2l19-13.2L207.2,140.5z"/>
		</g>
		<g>
			<path class="st2" d="M207.2,140.5l-3.1,2.1l-2-2.9l2.9-2l-1.4-2.2l-0.1,0l-0.4-0.5c-1.8,1.3-4.4,0.8-5.6-1
				c-1.3-1.8-0.8-4.4,1-5.6l-0.4-0.5l-18.9,13.1l5.3,7.7l0,0l5,7.2l19-13.2L207.2,140.5z"/>
		</g>
	</g>
	<g>
		<g>
			<path class="st4" d="M75.1,165.6L75.1,165.6l-0.1-8.8L51.9,157l0,2.6l3.7,0l0,3.6l-3.6,0l-0.1,2.6l0.1,0l0,0.6h0
				c2.2,0,4.1,1.8,4.1,4c0,2.2-1.8,4.1-4,4.1l0,0.6l23-0.2L75.1,165.6z"/>
		</g>
		<g>
			<path class="st2" d="M75.1,165.6L75.1,165.6l-0.1-8.8L51.9,157l0,2.6l3.7,0l0,3.6l-3.6,0l-0.1,2.6l0.1,0l0,0.6h0
				c2.2,0,4.1,1.8,4.1,4c0,2.2-1.8,4.1-4,4.1l0,0.6l23-0.2L75.1,165.6z"/>
		</g>
	</g>
	<g>
		<g>
			<path class="st4" d="M113.7,128.5l-8.7-21.4l-2.4,0.9l1.3,3.5l-3.3,1.3l-1.3-3.3l-2.4,0.9l0,0.1l-0.6,0.2
				c0.8,2.1-0.2,4.4-2.2,5.3c-2.1,0.8-4.4-0.2-5.3-2.2l-0.6,0.2l8.6,21.4l8.7-3.5l0,0L113.7,128.5z"/>
		</g>
		<g>
			<path class="st2" d="M113.7,128.5l-8.7-21.4l-2.4,0.9l1.3,3.5l-3.3,1.3l-1.3-3.3l-2.4,0.9l0,0.1l-0.6,0.2
				c0.8,2.1-0.2,4.4-2.2,5.3c-2.1,0.8-4.4-0.2-5.3-2.2l-0.6,0.2l8.6,21.4l8.7-3.5l0,0L113.7,128.5z"/>
		</g>
	</g>
</g>
<g id="Lag_9">
	<radialGradient id="SVGID_2_" cx="132.6919" cy="165.5166" r="52.8433" gradientUnits="userSpaceOnUse">
		<stop  offset="0" style="stop-color:#FFFAC9"/>
		<stop  offset="0.1643" style="stop-color:#FFF8C6"/>
		<stop  offset="0.3136" style="stop-color:#FFF4BC"/>
		<stop  offset="0.4571" style="stop-color:#FFEEAA"/>
		<stop  offset="0.5971" style="stop-color:#FFE490"/>
		<stop  offset="0.7344" style="stop-color:#FFD86D"/>
		<stop  offset="0.868" style="stop-color:#FDCA40"/>
		<stop  offset="1" style="stop-color:#FAB900"/>
	</radialGradient>
	<ellipse class="st5" cx="132.7" cy="165.5" rx="61.3" ry="42.7"/>
</g>
<g id="Lag_1">
	<g>
		<g>
			<radialGradient id="SVGID_3_" cx="132.6411" cy="314.0156" r="64.7788" gradientUnits="userSpaceOnUse">
				<stop  offset="0" style="stop-color:#F7AD53"/>
				<stop  offset="0.1315" style="stop-color:#F6A950"/>
				<stop  offset="0.2988" style="stop-color:#F39C47"/>
				<stop  offset="0.4857" style="stop-color:#EF863B"/>
				<stop  offset="0.6866" style="stop-color:#EA652C"/>
				<stop  offset="0.8967" style="stop-color:#E5351F"/>
				<stop  offset="1" style="stop-color:#E2001A"/>
			</radialGradient>
			<path class="st6" d="M165.7,347.4c0-8.9,7.2-16.1,16.1-16.1c4,0,7.6,1.4,10.4,3.8c2.3-6.6,3.6-13.7,3.6-21.1
				c0-35.5-28.8-64.2-64.2-64.2c-35.5,0-64.2,28.8-64.2,64.2s28.8,64.2,64.2,64.2c16.5,0,31.6-6.2,43-16.5
				C169.3,359.1,165.7,353.7,165.7,347.4z"/>
		</g>
		<g>
			<path class="st7" d="M165.7,347.4c0-8.9,7.2-16.1,16.1-16.1c4,0,7.6,1.4,10.4,3.8c2.3-6.6,3.6-13.7,3.6-21.1
				c0-35.5-28.8-64.2-64.2-64.2c-35.5,0-64.2,28.8-64.2,64.2s28.8,64.2,64.2,64.2c16.5,0,31.6-6.2,43-16.5
				C169.3,359.1,165.7,353.7,165.7,347.4z"/>
		</g>
	</g>
</g>
<g id="Lag_2">
</g>
<g id="Lag_3">
	<circle class="st8" cx="169.7" cy="309.3" r="17.7"/>
</g>
<g id="Lag_4">
	<circle class="st9" cx="176.5" cy="315.8" r="1.2"/>
	<circle class="st9" cx="176.3" cy="308" r="1.2"/>
	<circle class="st9" cx="171" cy="310.2" r="1.2"/>
	<circle class="st9" cx="170.7" cy="303.3" r="1.2"/>
	<circle class="st9" cx="166.3" cy="308" r="1.2"/>
	<circle class="st9" cx="168.7" cy="313.5" r="1.2"/>
	<circle class="st9" cx="161.5" cy="317.3" r="1.2"/>
	<circle class="st9" cx="165.8" cy="323.7" r="1.2"/>
	<circle class="st9" cx="176.2" cy="303.8" r="1.2"/>
	<circle class="st9" cx="173.7" cy="295" r="1.2"/>
	<circle class="st9" cx="163.3" cy="296" r="1.2"/>
	<circle class="st9" cx="162.3" cy="300.5" r="1.2"/>
	<circle class="st9" cx="184.3" cy="313.2" r="1.2"/>
	<circle class="st9" cx="182" cy="335.7" r="1.2"/>
	<circle class="st9" cx="175.8" cy="337.3" r="1.2"/>
	<circle class="st9" cx="181.2" cy="342.2" r="1.2"/>
	<circle class="st9" cx="178" cy="346.8" r="1.2"/>
	<circle class="st9" cx="179.8" cy="354" r="1.2"/>
	<circle class="st9" cx="187.2" cy="354" r="1.2"/>
	<circle class="st9" cx="188.8" cy="348" r="1.2"/>
	<circle class="st9" cx="199" cy="347.3" r="1.2"/>
	<circle class="st9" cx="210.5" cy="350" r="1.2"/>
	<circle class="st9" cx="208.8" cy="359.7" r="1.2"/>
	<circle class="st9" cx="220.2" cy="362" r="1.2"/>
	<circle class="st9" cx="219.7" cy="371.7" r="1.2"/>
	<circle class="st9" cx="228.9" cy="366.9" r="1.2"/>
	<circle class="st9" cx="230.8" cy="377.6" r="1.2"/>
	<circle class="st9" cx="232" cy="359.4" r="1.2"/>
	<circle class="st9" cx="241.4" cy="355.6" r="1.2"/>
	<circle class="st9" cx="243.3" cy="366.3" r="1.2"/>
	<circle class="st9" cx="175.8" cy="342.3" r="1.2"/>
	<circle class="st9" cx="171" cy="339.3" r="1.2"/>
	<circle class="st9" cx="172" cy="348.2" r="1.2"/>
	<circle class="st9" cx="173.3" cy="355.5" r="1.2"/>
	<circle class="st9" cx="185.8" cy="365.7" r="1.2"/>
	<circle class="st9" cx="196.2" cy="363.5" r="1.2"/>
	<circle class="st9" cx="199" cy="380.2" r="1.2"/>
	<circle class="st9" cx="208.7" cy="371.8" r="1.2"/>
	<circle class="st9" cx="214" cy="386.7" r="1.2"/>
	<circle class="st10" cx="137" cy="228.9" r="3.5"/>
	<circle class="st11" cx="106.2" cy="137.5" r="3.5"/>
	<circle class="st10" cx="92.7" cy="112" r="3.5"/>
	<circle class="st10" cx="92" cy="99.7" r="3.5"/>
	<circle class="st10" cx="69.5" cy="99.7" r="3.5"/>
	<circle class="st10" cx="47.8" cy="79.8" r="3.5"/>
</g>
<g id="pile">
	<g>
		<line class="st12" x1="224.8" y1="330.3" x2="224.8" y2="350.7"/>
		<polygon points="229.2,345.9 224.8,353.6 220.4,345.9 		"/>
	</g>
	<g>
		<line class="st12" x1="223.8" y1="398.3" x2="223.8" y2="418.7"/>
		<line class="st12" x1="226.1" y1="398.3" x2="226.1" y2="418.7"/>
	</g>
	<polygon points="229.4,414.9 224.9,422.6 220.5,414.9 	"/>
	<line class="st2" x1="101.5" y1="238.8" x2="118.7" y2="238.8"/>
	<line class="st2" x1="94.5" y1="217" x2="118.7" y2="217"/>
	<line class="st2" x1="48.5" y1="51.7" x2="48.5" y2="73.6"/>
</g>
<g id="txt">
	<text transform="matrix(1 0 0 1 45.3447 46.7192)" class="st13 st14">Nikkelmolekyle (allergen)</text>
	<text transform="matrix(1 0 0 1 203.1816 323.7544)" class="st13 st14">Cytokiner</text>
	<text transform="matrix(1 0 0 1 208.8418 435.1265)" class="st13 st14">EKSEM</text>
	<text transform="matrix(1 0 0 1 93.0566 314.5311)" class="st13 st14">T-lymfocyt</text>
	<text transform="matrix(1 0 0 1 112.0566 169.191)" class="st13 st14">Makrofag</text>
	<text transform="matrix(1 0 0 1 58.3062 219.9404)" class="st13 st14">MHC-II</text>
	<text transform="matrix(1 0 0 1 58.3062 242.6895)" class="st13 st14">TCR-CD4</text>
</g>
</svg>
