<?xml version="1.0" encoding="utf-8"?>
<!-- Generator: Adobe Illustrator 19.1.0, SVG Export Plug-In . SVG Version: 6.00 Build 0)  -->
<svg version="1.1" xmlns="http://www.w3.org/2000/svg" xmlns:xlink="http://www.w3.org/1999/xlink" x="0px" y="0px"
	 viewBox="0 0 566.9 487.6" style="enable-background:new 0 0 566.9 487.6;" xml:space="preserve">
<style type="text/css">
	.st0{fill:url(#SVGID_1_);}
	.st1{fill:url(#SVGID_2_);}
	.st2{fill:#FFFFFF;stroke:#000000;stroke-width:0.5;}
	.st3{fill:url(#SVGID_3_);}
	.st4{fill:none;stroke:#000000;stroke-width:0.5;}
	.st5{fill:url(#SVGID_4_);}
	.st6{fill:url(#SVGID_5_);}
	.st7{fill:url(#SVGID_6_);}
	.st8{fill:url(#SVGID_7_);}
	.st9{fill:url(#SVGID_8_);}
	.st10{fill:url(#SVGID_9_);}
	.st11{fill:url(#SVGID_10_);}
	.st12{fill:url(#SVGID_11_);}
	.st13{fill:url(#SVGID_12_);}
	.st14{fill:url(#SVGID_13_);}
	.st15{fill:url(#SVGID_14_);}
	.st16{fill:url(#SVGID_15_);}
	.st17{fill:url(#SVGID_16_);}
	.st18{fill:url(#SVGID_17_);}
	.st19{stroke:#000000;stroke-width:0.5;}
	.st20{fill:#87888A;stroke:#000000;stroke-width:0.5;}
	.st21{fill:#5EC5ED;stroke:#000000;stroke-width:0.5;}
	.st22{fill:#FFD800;stroke:#000000;stroke-width:0.5;}
	.st23{fill:none;stroke:#000000;stroke-width:0.75;}
	.st24{fill:none;stroke:#FFFFFF;stroke-width:0.75;}
	.st25{fill:#FFFFFF;}
	.st26{font-family:'Verdana';}
	.st27{font-size:9px;}
</style>
<g id="Lag_6">
	<linearGradient id="SVGID_1_" gradientUnits="userSpaceOnUse" x1="283.4644" y1="275.1015" x2="283.4644" y2="4.061639e-04">
		<stop  offset="0" style="stop-color:#D5EDFA"/>
		<stop  offset="0.2306" style="stop-color:#87CFE5"/>
		<stop  offset="0.6022" style="stop-color:#009BC2"/>
		<stop  offset="1" style="stop-color:#004480"/>
	</linearGradient>
	<rect y="0" class="st0" width="566.9" height="275.1"/>
</g>
<g id="glas">
	
		<linearGradient id="SVGID_2_" gradientUnits="userSpaceOnUse" x1="63.3707" y1="130.3789" x2="153.7827" y2="130.3789" gradientTransform="matrix(-1 0 0 1 203.3662 0)">
		<stop  offset="0.1517" style="stop-color:#BAE3F6"/>
		<stop  offset="0.2277" style="stop-color:#C3E7F7"/>
		<stop  offset="0.5499" style="stop-color:#E4F4FB"/>
		<stop  offset="0.8189" style="stop-color:#F8FCFE"/>
		<stop  offset="1" style="stop-color:#FFFFFF"/>
	</linearGradient>
	<path class="st1" d="M139.8,97v54.9c0,0,6.1,13-47.3,13.3c-9.3,0-42.9-1.4-42.9-13.3c0-3.9,0-56.4,0-56.4L139.8,97z"/>
	<line class="st2" x1="142.2" y1="69" x2="142.2" y2="151.9"/>
	<line class="st2" x1="47.2" y1="69" x2="47.2" y2="151.9"/>
	<g>
		<g>
			
				<linearGradient id="SVGID_3_" gradientUnits="userSpaceOnUse" x1="72.5786" y1="135.8266" x2="144.7194" y2="94.1761" gradientTransform="matrix(-1 0 0 1 203.3662 -46)">
				<stop  offset="0" style="stop-color:#A2DAF4"/>
				<stop  offset="0.182" style="stop-color:#C2E7F8"/>
				<stop  offset="0.3787" style="stop-color:#DDF1FB"/>
				<stop  offset="0.5794" style="stop-color:#F0F9FD"/>
				<stop  offset="0.7844" style="stop-color:#FBFDFF"/>
				<stop  offset="1" style="stop-color:#FFFFFF"/>
			</linearGradient>
			<path class="st3" d="M94.7,55.7c-26.2,0-47.5,6-47.5,13.3c0,7.4,21.3,13.3,47.5,13.3c26.2,0,47.5-6,47.5-13.3
				C142.2,61.6,120.9,55.7,94.7,55.7z M94.7,81.7c-25,0-45.2-5.5-45.2-12.2c0-6.8,20.2-12.2,45.2-12.2c25,0,45.2,5.5,45.2,12.2
				C139.9,76.2,119.7,81.7,94.7,81.7z"/>
		</g>
		<g>
			<path class="st4" d="M94.7,55.7c-26.2,0-47.5,6-47.5,13.3c0,7.4,21.3,13.3,47.5,13.3c26.2,0,47.5-6,47.5-13.3
				C142.2,61.6,120.9,55.7,94.7,55.7z M94.7,81.7c-25,0-45.2-5.5-45.2-12.2c0-6.8,20.2-12.2,45.2-12.2c25,0,45.2,5.5,45.2,12.2
				C139.9,76.2,119.7,81.7,94.7,81.7z"/>
		</g>
	</g>
	
		<linearGradient id="SVGID_4_" gradientUnits="userSpaceOnUse" x1="108.6499" y1="107.7612" x2="108.6499" y2="83.312" gradientTransform="matrix(-1 0 0 1 203.3662 0)">
		<stop  offset="9.550560e-02" style="stop-color:#BAE3F6"/>
		<stop  offset="1" style="stop-color:#F5FBFE"/>
	</linearGradient>
	<ellipse class="st5" cx="94.7" cy="95.5" rx="45.2" ry="12.2"/>
	<g>
		<g>
			
				<linearGradient id="SVGID_5_" gradientUnits="userSpaceOnUse" x1="65.5796" y1="213.3613" x2="137.7202" y2="171.7109" gradientTransform="matrix(-1 0 0 1 196.3662 -40)">
				<stop  offset="0" style="stop-color:#5EC5ED"/>
				<stop  offset="2.877438e-02" style="stop-color:#6BCAEE"/>
				<stop  offset="0.1276" style="stop-color:#92D8F3"/>
				<stop  offset="0.2334" style="stop-color:#B4E4F7"/>
				<stop  offset="0.3457" style="stop-color:#CFEEFA"/>
				<stop  offset="0.467" style="stop-color:#E5F5FC"/>
				<stop  offset="0.6015" style="stop-color:#F3FBFE"/>
				<stop  offset="0.7596" style="stop-color:#FCFEFF"/>
				<stop  offset="1" style="stop-color:#FFFFFF"/>
			</linearGradient>
			<path class="st6" d="M47.2,152.5c0,7.4,21.3,13.3,47.5,13.3c26.2,0,47.5-6,47.5-13.3c0-7.4-21.3-13.3-47.5-13.3
				C68.5,139.2,47.2,145.2,47.2,152.5z M49.5,153c0-6.8,20.2-12.2,45.2-12.2c25,0,45.2,5.5,45.2,12.2c0,6.8-20.2,12.2-45.2,12.2
				C69.7,165.2,49.5,159.8,49.5,153z"/>
		</g>
		<g>
			<path class="st4" d="M47.2,152.5c0,7.4,21.3,13.3,47.5,13.3c26.2,0,47.5-6,47.5-13.3c0-7.4-21.3-13.3-47.5-13.3
				C68.5,139.2,47.2,145.2,47.2,152.5z M49.5,153c0-6.8,20.2-12.2,45.2-12.2c25,0,45.2,5.5,45.2,12.2c0,6.8-20.2,12.2-45.2,12.2
				C69.7,165.2,49.5,159.8,49.5,153z"/>
		</g>
	</g>
	<line class="st2" x1="49.6" y1="73" x2="49.6" y2="151.9"/>
	<line class="st2" x1="139.8" y1="73" x2="139.8" y2="151.9"/>
	
		<linearGradient id="SVGID_6_" gradientUnits="userSpaceOnUse" x1="180.6754" y1="130.3789" x2="271.0874" y2="130.3789" gradientTransform="matrix(-1 0 0 1 447.9756 0)">
		<stop  offset="0.1517" style="stop-color:#BAE3F6"/>
		<stop  offset="0.2277" style="stop-color:#C3E7F7"/>
		<stop  offset="0.5499" style="stop-color:#E4F4FB"/>
		<stop  offset="0.8189" style="stop-color:#F8FCFE"/>
		<stop  offset="1" style="stop-color:#FFFFFF"/>
	</linearGradient>
	<path class="st7" d="M267.1,97v54.9c0,0,6.1,13-47.3,13.3c-9.3,0-42.9-1.4-42.9-13.3c0-3.9,0-56.4,0-56.4L267.1,97z"/>
	<line class="st2" x1="269.5" y1="69" x2="269.5" y2="151.9"/>
	<line class="st2" x1="174.5" y1="69" x2="174.5" y2="151.9"/>
	<g>
		<g>
			
				<linearGradient id="SVGID_7_" gradientUnits="userSpaceOnUse" x1="189.8833" y1="135.8266" x2="262.0241" y2="94.1761" gradientTransform="matrix(-1 0 0 1 447.9756 -46)">
				<stop  offset="0" style="stop-color:#A2DAF4"/>
				<stop  offset="0.182" style="stop-color:#C2E7F8"/>
				<stop  offset="0.3787" style="stop-color:#DDF1FB"/>
				<stop  offset="0.5794" style="stop-color:#F0F9FD"/>
				<stop  offset="0.7844" style="stop-color:#FBFDFF"/>
				<stop  offset="1" style="stop-color:#FFFFFF"/>
			</linearGradient>
			<path class="st8" d="M222,55.7c-26.2,0-47.5,6-47.5,13.3c0,7.4,21.3,13.3,47.5,13.3s47.5-6,47.5-13.3
				C269.5,61.6,248.2,55.7,222,55.7z M222,81.7c-25,0-45.2-5.5-45.2-12.2c0-6.8,20.2-12.2,45.2-12.2c25,0,45.2,5.5,45.2,12.2
				C267.2,76.2,247,81.7,222,81.7z"/>
		</g>
		<g>
			<path class="st4" d="M222,55.7c-26.2,0-47.5,6-47.5,13.3c0,7.4,21.3,13.3,47.5,13.3s47.5-6,47.5-13.3
				C269.5,61.6,248.2,55.7,222,55.7z M222,81.7c-25,0-45.2-5.5-45.2-12.2c0-6.8,20.2-12.2,45.2-12.2c25,0,45.2,5.5,45.2,12.2
				C267.2,76.2,247,81.7,222,81.7z"/>
		</g>
	</g>
	
		<linearGradient id="SVGID_8_" gradientUnits="userSpaceOnUse" x1="225.9546" y1="107.7612" x2="225.9546" y2="83.312" gradientTransform="matrix(-1 0 0 1 447.9756 0)">
		<stop  offset="9.550560e-02" style="stop-color:#BAE3F6"/>
		<stop  offset="1" style="stop-color:#F5FBFE"/>
	</linearGradient>
	<ellipse class="st9" cx="222" cy="95.5" rx="45.2" ry="12.2"/>
	<g>
		<g>
			
				<linearGradient id="SVGID_9_" gradientUnits="userSpaceOnUse" x1="187.8843" y1="213.3613" x2="260.0249" y2="171.7109" gradientTransform="matrix(-1 0 0 1 445.9756 -40)">
				<stop  offset="0" style="stop-color:#5EC5ED"/>
				<stop  offset="2.877438e-02" style="stop-color:#6BCAEE"/>
				<stop  offset="0.1276" style="stop-color:#92D8F3"/>
				<stop  offset="0.2334" style="stop-color:#B4E4F7"/>
				<stop  offset="0.3457" style="stop-color:#CFEEFA"/>
				<stop  offset="0.467" style="stop-color:#E5F5FC"/>
				<stop  offset="0.6015" style="stop-color:#F3FBFE"/>
				<stop  offset="0.7596" style="stop-color:#FCFEFF"/>
				<stop  offset="1" style="stop-color:#FFFFFF"/>
			</linearGradient>
			<path class="st10" d="M174.6,152.5c0,7.4,21.3,13.3,47.5,13.3s47.5-6,47.5-13.3c0-7.4-21.3-13.3-47.5-13.3
				S174.6,145.2,174.6,152.5z M176.8,153c0-6.8,20.2-12.2,45.2-12.2c25,0,45.2,5.5,45.2,12.2c0,6.8-20.2,12.2-45.2,12.2
				C197.1,165.2,176.8,159.8,176.8,153z"/>
		</g>
		<g>
			<path class="st4" d="M174.6,152.5c0,7.4,21.3,13.3,47.5,13.3s47.5-6,47.5-13.3c0-7.4-21.3-13.3-47.5-13.3
				S174.6,145.2,174.6,152.5z M176.8,153c0-6.8,20.2-12.2,45.2-12.2c25,0,45.2,5.5,45.2,12.2c0,6.8-20.2,12.2-45.2,12.2
				C197.1,165.2,176.8,159.8,176.8,153z"/>
		</g>
	</g>
	<line class="st2" x1="176.9" y1="73" x2="176.9" y2="151.9"/>
	<line class="st2" x1="267.1" y1="73" x2="267.1" y2="151.9"/>
	
		<linearGradient id="SVGID_10_" gradientUnits="userSpaceOnUse" x1="297.9796" y1="130.3789" x2="388.3925" y2="130.3789" gradientTransform="matrix(-1 0 0 1 692.5859 0)">
		<stop  offset="0.1517" style="stop-color:#BAE3F6"/>
		<stop  offset="0.2277" style="stop-color:#C3E7F7"/>
		<stop  offset="0.5499" style="stop-color:#E4F4FB"/>
		<stop  offset="0.8189" style="stop-color:#F8FCFE"/>
		<stop  offset="1" style="stop-color:#FFFFFF"/>
	</linearGradient>
	<path class="st11" d="M394.4,97v54.9c0,0,6.1,13-47.3,13.3c-9.3,0-42.9-1.4-42.9-13.3c0-3.9,0-56.4,0-56.4L394.4,97z"/>
	<line class="st2" x1="396.8" y1="69" x2="396.8" y2="151.9"/>
	<line class="st2" x1="301.8" y1="69" x2="301.8" y2="151.9"/>
	<g>
		<g>
			
				<linearGradient id="SVGID_11_" gradientUnits="userSpaceOnUse" x1="307.1885" y1="135.8266" x2="379.3293" y2="94.1761" gradientTransform="matrix(-1 0 0 1 692.5859 -46)">
				<stop  offset="0" style="stop-color:#A2DAF4"/>
				<stop  offset="0.182" style="stop-color:#C2E7F8"/>
				<stop  offset="0.3787" style="stop-color:#DDF1FB"/>
				<stop  offset="0.5794" style="stop-color:#F0F9FD"/>
				<stop  offset="0.7844" style="stop-color:#FBFDFF"/>
				<stop  offset="1" style="stop-color:#FFFFFF"/>
			</linearGradient>
			<path class="st12" d="M349.3,55.7c-26.2,0-47.5,6-47.5,13.3c0,7.4,21.3,13.3,47.5,13.3c26.2,0,47.5-6,47.5-13.3
				C396.8,61.6,375.5,55.7,349.3,55.7z M349.3,81.7c-25,0-45.2-5.5-45.2-12.2c0-6.8,20.2-12.2,45.2-12.2c25,0,45.2,5.5,45.2,12.2
				C394.5,76.2,374.3,81.7,349.3,81.7z"/>
		</g>
		<g>
			<path class="st4" d="M349.3,55.7c-26.2,0-47.5,6-47.5,13.3c0,7.4,21.3,13.3,47.5,13.3c26.2,0,47.5-6,47.5-13.3
				C396.8,61.6,375.5,55.7,349.3,55.7z M349.3,81.7c-25,0-45.2-5.5-45.2-12.2c0-6.8,20.2-12.2,45.2-12.2c25,0,45.2,5.5,45.2,12.2
				C394.5,76.2,374.3,81.7,349.3,81.7z"/>
		</g>
	</g>
	
		<linearGradient id="SVGID_12_" gradientUnits="userSpaceOnUse" x1="343.2592" y1="107.7612" x2="343.2592" y2="83.312" gradientTransform="matrix(-1 0 0 1 692.5859 0)">
		<stop  offset="9.550560e-02" style="stop-color:#BAE3F6"/>
		<stop  offset="1" style="stop-color:#F5FBFE"/>
	</linearGradient>
	<ellipse class="st13" cx="349.3" cy="95.5" rx="45.2" ry="12.2"/>
	<g>
		<g>
			
				<linearGradient id="SVGID_13_" gradientUnits="userSpaceOnUse" x1="310.1885" y1="213.3613" x2="382.3293" y2="171.7108" gradientTransform="matrix(-1 0 0 1 695.5859 -40)">
				<stop  offset="0" style="stop-color:#5EC5ED"/>
				<stop  offset="2.877438e-02" style="stop-color:#6BCAEE"/>
				<stop  offset="0.1276" style="stop-color:#92D8F3"/>
				<stop  offset="0.2334" style="stop-color:#B4E4F7"/>
				<stop  offset="0.3457" style="stop-color:#CFEEFA"/>
				<stop  offset="0.467" style="stop-color:#E5F5FC"/>
				<stop  offset="0.6015" style="stop-color:#F3FBFE"/>
				<stop  offset="0.7596" style="stop-color:#FCFEFF"/>
				<stop  offset="1" style="stop-color:#FFFFFF"/>
			</linearGradient>
			<path class="st14" d="M301.9,152.5c0,7.4,21.3,13.3,47.5,13.3c26.2,0,47.5-6,47.5-13.3c0-7.4-21.3-13.3-47.5-13.3
				C323.1,139.2,301.9,145.2,301.9,152.5z M304.1,153c0-6.8,20.2-12.2,45.2-12.2c25,0,45.2,5.5,45.2,12.2c0,6.8-20.2,12.2-45.2,12.2
				C324.4,165.2,304.1,159.8,304.1,153z"/>
		</g>
		<g>
			<path class="st4" d="M301.9,152.5c0,7.4,21.3,13.3,47.5,13.3c26.2,0,47.5-6,47.5-13.3c0-7.4-21.3-13.3-47.5-13.3
				C323.1,139.2,301.9,145.2,301.9,152.5z M304.1,153c0-6.8,20.2-12.2,45.2-12.2c25,0,45.2,5.5,45.2,12.2c0,6.8-20.2,12.2-45.2,12.2
				C324.4,165.2,304.1,159.8,304.1,153z"/>
		</g>
	</g>
	<line class="st2" x1="304.2" y1="73" x2="304.2" y2="151.9"/>
	<line class="st2" x1="394.4" y1="73" x2="394.4" y2="151.9"/>
	
		<linearGradient id="SVGID_14_" gradientUnits="userSpaceOnUse" x1="415.2843" y1="130.3789" x2="505.6973" y2="130.3789" gradientTransform="matrix(-1 0 0 1 937.1953 0)">
		<stop  offset="0.1517" style="stop-color:#E64415"/>
		<stop  offset="0.3312" style="stop-color:#ED7B5A"/>
		<stop  offset="0.5056" style="stop-color:#F4AA94"/>
		<stop  offset="0.6646" style="stop-color:#F9CFC2"/>
		<stop  offset="0.805" style="stop-color:#FCE9E4"/>
		<stop  offset="0.9216" style="stop-color:#FEF9F8"/>
		<stop  offset="1" style="stop-color:#FFFFFF"/>
	</linearGradient>
	<path class="st15" d="M521.7,97v54.9c0,0,6.1,13-47.3,13.3c-9.3,0-42.9-1.4-42.9-13.3c0-3.9,0-56.4,0-56.4L521.7,97z"/>
	<line class="st2" x1="524.1" y1="69" x2="524.1" y2="151.9"/>
	<line class="st2" x1="429.1" y1="69" x2="429.1" y2="151.9"/>
	<g>
		<g>
			
				<linearGradient id="SVGID_15_" gradientUnits="userSpaceOnUse" x1="413.0977" y1="109.0019" x2="508.0303" y2="109.0019" gradientTransform="matrix(-1 0 0 1 937.1953 -40)">
				<stop  offset="0.1517" style="stop-color:#E64715"/>
				<stop  offset="0.3312" style="stop-color:#ED7D5A"/>
				<stop  offset="0.5056" style="stop-color:#F4AB94"/>
				<stop  offset="0.6646" style="stop-color:#F9CFC2"/>
				<stop  offset="0.805" style="stop-color:#FCE9E4"/>
				<stop  offset="0.9216" style="stop-color:#FEF9F8"/>
				<stop  offset="1" style="stop-color:#FFFFFF"/>
			</linearGradient>
			<path class="st16" d="M476.6,55.7c-26.2,0-47.5,6-47.5,13.3c0,7.4,21.3,13.3,47.5,13.3c26.2,0,47.5-6,47.5-13.3
				C524.1,61.6,502.8,55.7,476.6,55.7z M476.6,81.7c-25,0-45.2-5.5-45.2-12.2c0-6.8,20.2-12.2,45.2-12.2c25,0,45.2,5.5,45.2,12.2
				C521.8,76.2,501.6,81.7,476.6,81.7z"/>
		</g>
		<g>
			<path class="st4" d="M476.6,55.7c-26.2,0-47.5,6-47.5,13.3c0,7.4,21.3,13.3,47.5,13.3c26.2,0,47.5-6,47.5-13.3
				C524.1,61.6,502.8,55.7,476.6,55.7z M476.6,81.7c-25,0-45.2-5.5-45.2-12.2c0-6.8,20.2-12.2,45.2-12.2c25,0,45.2,5.5,45.2,12.2
				C521.8,76.2,501.6,81.7,476.6,81.7z"/>
		</g>
	</g>
	
		<linearGradient id="SVGID_16_" gradientUnits="userSpaceOnUse" x1="460.564" y1="107.7612" x2="460.564" y2="83.312" gradientTransform="matrix(-1 0 0 1 937.1953 0)">
		<stop  offset="0.1517" style="stop-color:#E64415"/>
		<stop  offset="0.3312" style="stop-color:#ED7B5A"/>
		<stop  offset="0.5056" style="stop-color:#F4AA94"/>
		<stop  offset="0.6646" style="stop-color:#F9CFC2"/>
		<stop  offset="0.805" style="stop-color:#FCE9E4"/>
		<stop  offset="0.9216" style="stop-color:#FEF9F8"/>
		<stop  offset="1" style="stop-color:#FFFFFF"/>
	</linearGradient>
	<ellipse class="st17" cx="476.6" cy="95.5" rx="45.2" ry="12.2"/>
	<g>
		<g>
			
				<linearGradient id="SVGID_17_" gradientUnits="userSpaceOnUse" x1="429.165" y1="192.5361" x2="524.0976" y2="192.5361" gradientTransform="matrix(1 0 0 1 0 -40)">
				<stop  offset="0.1517" style="stop-color:#E64415"/>
				<stop  offset="0.3312" style="stop-color:#ED7B5A"/>
				<stop  offset="0.5056" style="stop-color:#F4AA94"/>
				<stop  offset="0.6646" style="stop-color:#F9CFC2"/>
				<stop  offset="0.805" style="stop-color:#FCE9E4"/>
				<stop  offset="0.9216" style="stop-color:#FEF9F8"/>
				<stop  offset="1" style="stop-color:#FFFFFF"/>
			</linearGradient>
			<path class="st18" d="M476.6,139.2c-26.2,0-47.5,6-47.5,13.3c0,7.4,21.3,13.3,47.5,13.3c26.2,0,47.5-6,47.5-13.3
				C524.1,145.2,502.8,139.2,476.6,139.2z M476.6,165.2c-25,0-45.2-5.5-45.2-12.2c0-6.8,20.2-12.2,45.2-12.2
				c25,0,45.2,5.5,45.2,12.2C521.8,159.8,501.6,165.2,476.6,165.2z"/>
		</g>
		<g>
			<path class="st4" d="M476.6,139.2c-26.2,0-47.5,6-47.5,13.3c0,7.4,21.3,13.3,47.5,13.3c26.2,0,47.5-6,47.5-13.3
				C524.1,145.2,502.8,139.2,476.6,139.2z M476.6,165.2c-25,0-45.2-5.5-45.2-12.2c0-6.8,20.2-12.2,45.2-12.2
				c25,0,45.2,5.5,45.2,12.2C521.8,159.8,501.6,165.2,476.6,165.2z"/>
		</g>
	</g>
	<line class="st2" x1="431.5" y1="73" x2="431.5" y2="151.9"/>
	<line class="st2" x1="521.7" y1="73" x2="521.7" y2="151.9"/>
</g>
<g id="antigen">
	<polygon class="st19" points="79.9,156.1 71.5,147.7 63.2,156.2 65.9,156.1 71.4,150.6 76.9,156.1 	"/>
	<polygon class="st19" points="102.3,160.5 93.9,152.1 85.5,160.5 88.2,160.5 93.7,155 99.2,160.5 	"/>
	<polygon class="st19" points="124.9,156.5 116.5,148.1 108.2,156.5 110.9,156.5 116.4,151 121.9,156.5 	"/>
	<polygon class="st19" points="209.2,156.1 200.8,147.7 192.4,156.2 195.2,156.1 200.7,150.6 206.2,156.1 	"/>
	<polygon class="st19" points="231.5,160.5 223.1,152.1 214.8,160.5 217.5,160.5 223,155 228.5,160.5 	"/>
	<polygon class="st19" points="254.2,156.5 245.8,148.1 237.4,156.5 240.2,156.5 245.7,151 251.2,156.5 	"/>
	<polygon class="st19" points="335.5,156.1 327.1,147.7 318.8,156.2 321.5,156.1 327,150.6 332.5,156.1 	"/>
	<polygon class="st19" points="357.9,160.5 349.5,152.1 341.1,160.5 343.8,160.5 349.3,155 354.8,160.5 	"/>
	<polygon class="st19" points="380.5,156.5 372.1,148.1 363.8,156.5 366.5,156.5 372,151 377.5,156.5 	"/>
	<polygon class="st19" points="461.9,156.1 453.5,147.7 445.1,156.2 447.8,156.1 453.3,150.6 458.8,156.1 	"/>
	<polygon class="st19" points="484.2,160.5 475.8,152.1 467.4,160.5 470.2,160.5 475.7,155 481.2,160.5 	"/>
	<polygon class="st19" points="506.9,156.5 498.5,148.1 490.1,156.5 492.8,156.5 498.3,151 503.8,156.5 	"/>
</g>
<g id="antistof">
	<polygon class="st20" points="194.2,149.5 199.1,144.5 201.8,144.5 206.8,149.4 210.1,149.4 201.8,142.3 201.8,131.3 199.1,131.3 
		199.1,142.3 190.9,149.5 	"/>
	<polygon class="st20" points="239.5,149.5 244.4,144.5 247.2,144.5 252.1,149.4 255.4,149.4 247.2,142.3 247.2,131.3 244.4,131.3 
		244.4,142.3 236.2,149.5 	"/>
	<polygon class="st20" points="216.8,154.1 221.8,149.2 224.5,149.2 229.5,154.1 232.8,154.1 224.5,147 224.5,136 221.7,136 
		221.8,147 213.5,154.1 	"/>
	<polygon class="st20" points="320.5,149.5 325.4,144.5 328.2,144.5 333.1,149.4 336.4,149.4 328.2,142.3 328.2,131.3 325.4,131.3 
		325.4,142.3 317.2,149.5 	"/>
	<polygon class="st20" points="365.8,149.5 370.8,144.5 373.5,144.5 378.5,149.4 381.8,149.4 373.5,142.3 373.5,131.3 370.7,131.3 
		370.8,142.3 362.5,149.5 	"/>
	<polygon class="st20" points="343.2,154.1 348.1,149.2 350.8,149.2 355.8,154.1 359.1,154.1 350.8,147 350.8,136 348.1,136 
		348.1,147 339.9,154.1 	"/>
	<polygon class="st2" points="320.4,133.5 325.4,128.5 328.1,128.5 333.1,133.4 336.4,133.4 328.1,126.3 328.1,115.3 325.3,115.3 
		325.4,126.3 317.1,133.5 	"/>
	<polygon class="st2" points="365.8,133.5 370.7,128.5 373.5,128.5 378.4,133.4 381.7,133.4 373.5,126.3 373.4,115.3 370.7,115.3 
		370.7,126.3 362.5,133.5 	"/>
	<polygon class="st2" points="343.1,138.1 348,133.2 350.8,133.2 355.8,138.1 359.1,138.1 350.8,131 350.8,120 348,120 348,131 
		339.8,138.1 	"/>
	<circle class="st21" cx="326.3" cy="111" r="3"/>
	<circle class="st21" cx="372" cy="111" r="3"/>
	<circle class="st21" cx="349.3" cy="115.7" r="3"/>
	<polygon class="st20" points="446.8,149.5 451.8,144.5 454.5,144.5 459.5,149.4 462.8,149.4 454.5,142.3 454.5,131.3 451.7,131.3 
		451.8,142.3 443.5,149.5 	"/>
	<polygon class="st20" points="492.2,149.5 497.1,144.5 499.8,144.5 504.8,149.4 508.1,149.4 499.8,142.3 499.8,131.3 497.1,131.3 
		497.1,142.3 488.9,149.5 	"/>
	<polygon class="st20" points="469.5,154.1 474.4,149.2 477.2,149.2 482.1,154.1 485.4,154.1 477.2,147 477.2,136 474.4,136 
		474.4,147 466.2,154.1 	"/>
	<polygon class="st2" points="446.8,133.5 451.7,128.5 454.5,128.5 459.4,133.4 462.7,133.4 454.5,126.3 454.4,115.3 451.7,115.3 
		451.7,126.3 443.5,133.5 	"/>
	<polygon class="st2" points="492.1,133.5 497,128.5 499.8,128.5 504.8,133.4 508.1,133.4 499.8,126.3 499.8,115.3 497,115.3 
		497,126.3 488.8,133.5 	"/>
	<polygon class="st2" points="469.4,138.1 474.4,133.2 477.1,133.2 482.1,138.1 485.4,138.1 477.1,131 477.1,120 474.3,120 
		474.4,131 466.1,138.1 	"/>
	<circle class="st21" cx="452.7" cy="111" r="3"/>
	<circle class="st21" cx="498.3" cy="111" r="3"/>
	<circle class="st21" cx="475.7" cy="115.7" r="3"/>
	<polygon class="st22" points="492.7,95.3 490,98.4 484.6,98.4 481.9,95.3 484.6,92.3 490,92.3 	"/>
	<polygon class="st22" points="470.1,95.3 467.4,98.4 462,98.4 459.3,95.3 462,92.3 467.4,92.3 	"/>
</g>
<g id="streger_til_tekst">
	<line class="st23" x1="93.9" y1="159" x2="93.9" y2="181.6"/>
	<line class="st23" x1="237.3" y1="150.8" x2="237.3" y2="181.6"/>
	<line class="st23" x1="363.7" y1="134.5" x2="363.7" y2="182.3"/>
	<line class="st24" x1="487" y1="89.8" x2="487" y2="37"/>
	<line class="st24" x1="349.2" y1="110.6" x2="349.2" y2="37.6"/>
</g>
<g id="txt">
	<text transform="matrix(1 0 0 1 72.7866 34.7749)" class="st25 st26 st27">Blodprøve</text>
	<text transform="matrix(1 0 0 1 78.2837 191.7485)" class="st26 st27">Antigen</text>
	<text transform="matrix(1 0 0 1 454.8188 34.7759)" class="st25 st26 st27">Substrat</text>
	<text transform="matrix(1 0 0 1 198.9448 191.7485)"><tspan x="0" y="0" class="st26 st27">Antistoffer</tspan><tspan x="0" y="10.8" class="st26 st27">(primært)</tspan></text>
	<text transform="matrix(1 0 0 1 327.8755 191.7485)"><tspan x="0" y="0" class="st26 st27">Antistoffer</tspan><tspan x="0" y="10.8" class="st26 st27">(sekundært)</tspan></text>
	<text transform="matrix(1 0 0 1 453.8882 191.7495)"><tspan x="0" y="0" class="st26 st27">Farveskift</tspan><tspan x="0" y="10.8" class="st26 st27">(fra klar til fx. rød)</tspan></text>
	<text transform="matrix(1 0 0 1 334.5737 34.7759)" class="st25 st26 st27">Enzym</text>
</g>
</svg>
