<?xml version="1.0" encoding="utf-8"?>
<!-- Generator: Adobe Illustrator 19.1.0, SVG Export Plug-In . SVG Version: 6.00 Build 0)  -->
<svg version="1.1" xmlns="http://www.w3.org/2000/svg" xmlns:xlink="http://www.w3.org/1999/xlink" x="0px" y="0px"
	 viewBox="0 0 269.3 487.6" style="enable-background:new 0 0 269.3 487.6;" xml:space="preserve">
<style type="text/css">
	.st0{fill:url(#SVGID_1_);}
	.st1{fill:none;stroke:#28A22D;stroke-width:1.5;}
	.st2{fill:#172983;stroke:#000000;stroke-width:0.5;stroke-miterlimit:10;}
	.st3{fill:#0099DC;stroke:#000000;stroke-width:0.5;stroke-miterlimit:10;}
	.st4{fill:#E95E34;stroke:#000000;stroke-width:0.5;stroke-miterlimit:10;}
	.st5{fill:#BD0518;stroke:#FFFFFF;stroke-width:0.5;stroke-miterlimit:10;}
	.st6{fill:none;stroke:#000000;}
	.st7{fill:url(#SVGID_2_);stroke:#000000;stroke-width:0.5;stroke-miterlimit:10;}
	.st8{font-family:'Verdana';}
	.st9{font-size:9px;}
	.st10{fill:url(#SVGID_3_);stroke:#000000;stroke-width:0.5;stroke-miterlimit:10;}
	.st11{fill:url(#SVGID_4_);stroke:#000000;stroke-width:0.5;}
	.st12{fill:url(#SVGID_5_);stroke:#000000;stroke-width:0.5;}
	.st13{fill:url(#SVGID_6_);stroke:#000000;stroke-width:0.5;stroke-miterlimit:10;}
	.st14{fill:url(#SVGID_7_);}
	.st15{fill:none;stroke:#000000;stroke-width:0.5;}
	.st16{fill:#D50073;stroke:#000000;stroke-width:0.3929;}
	.st17{fill:#E39AB9;stroke:#FFFFFF;stroke-width:0.3929;}
	.st18{fill:#E39AB9;stroke:#000000;stroke-width:0.4665;}
	.st19{fill:#BD0518;stroke:#FFFFFF;stroke-width:0.4199;}
	.st20{fill:none;stroke:#000000;stroke-width:0.75;}
	.st21{fill:none;stroke:#000000;stroke-width:2;}
</style>
<g id="Lag_6">
	<linearGradient id="SVGID_1_" gradientUnits="userSpaceOnUse" x1="134.6455" y1="487.5586" x2="134.6455" y2="5.061706e-04">
		<stop  offset="0" style="stop-color:#5DB896"/>
		<stop  offset="0.5853" style="stop-color:#F8B55E"/>
		<stop  offset="0.6263" style="stop-color:#EBB463"/>
		<stop  offset="0.7074" style="stop-color:#C9B170"/>
		<stop  offset="0.8209" style="stop-color:#85A581"/>
		<stop  offset="0.961" style="stop-color:#008F91"/>
		<stop  offset="1" style="stop-color:#008895"/>
	</linearGradient>
	<rect y="0" class="st0" width="269.3" height="487.6"/>
</g>
<g id="Lag_1">
	<g>
		<line class="st1" x1="211.6" y1="240.1" x2="214.5" y2="245.7"/>
		<polyline class="st1" points="220,243.3 214.4,245.6 211.7,254.4 		"/>
	</g>
	<g>
		<line class="st1" x1="226.9" y1="219.1" x2="229.4" y2="213.4"/>
		<polyline class="st1" points="224.1,210.6 229.4,213.5 238,210.1 		"/>
	</g>
	<g>
		<line class="st1" x1="208.5" y1="216.6" x2="210.9" y2="222.4"/>
		<polyline class="st1" points="216.6,220.4 210.9,222.3 207.6,230.9 		"/>
	</g>
	<g>
		<line class="st1" x1="174.2" y1="220.3" x2="180.3" y2="221.8"/>
		<polyline class="st1" points="182.2,216.1 180.2,221.8 185,229.7 		"/>
	</g>
	<g>
		<line class="st1" x1="166.4" y1="218.2" x2="162.6" y2="213.2"/>
		<polyline class="st1" points="157.6,216.6 162.7,213.3 163.7,204.1 		"/>
	</g>
	<g>
		<line class="st1" x1="231.3" y1="243.6" x2="231.8" y2="249.9"/>
		<polyline class="st1" points="237.8,249.9 231.8,249.8 225.7,256.8 		"/>
	</g>
	<g>
		<line class="st1" x1="162.8" y1="247.8" x2="162.3" y2="254"/>
		<polyline class="st1" points="156.3,254 162.4,253.9 168.4,260.9 		"/>
	</g>
	<g>
		<line class="st1" x1="179.6" y1="238.1" x2="176.7" y2="243.6"/>
		<polyline class="st1" points="171.1,241.2 176.8,243.5 179.5,252.4 		"/>
	</g>
	<g>
		<line class="st1" x1="193.3" y1="233.4" x2="197.5" y2="238"/>
		<polyline class="st1" points="202.2,234.2 197.4,237.9 197.1,247.2 		"/>
	</g>
	<g>
		<line class="st1" x1="208.6" y1="354.8" x2="211.5" y2="360.3"/>
		<polyline class="st1" points="217,358 211.4,360.2 208.7,369.1 		"/>
	</g>
	<g>
		<line class="st1" x1="222.8" y1="360.4" x2="223.3" y2="366.7"/>
		<polyline class="st1" points="229.4,366.6 223.3,366.5 217.3,373.6 		"/>
	</g>
	<g>
		<line class="st1" x1="165.8" y1="361.4" x2="165.3" y2="367.7"/>
		<polyline class="st1" points="159.3,367.7 165.4,367.6 171.4,374.6 		"/>
	</g>
	<g>
		<line class="st1" x1="180" y1="355.8" x2="177.1" y2="361.3"/>
		<polyline class="st1" points="171.6,359 177.2,361.2 179.9,370.1 		"/>
	</g>
	<g>
		<line class="st1" x1="193.3" y1="353.1" x2="197.5" y2="357.7"/>
		<polyline class="st1" points="202.2,353.9 197.4,357.6 197.1,366.8 		"/>
	</g>
	<g>
		<line class="st1" x1="211.6" y1="120.4" x2="214.5" y2="125.9"/>
		<polyline class="st1" points="220,123.5 214.4,125.8 211.7,134.7 		"/>
	</g>
	<g>
		<polyline class="st2" points="73.3,118.2 73.3,135.7 61.8,135.7 61.8,118.2 		"/>
		<polygon class="st3" points="73.1,135.7 84.1,135.7 84.1,118.2 80,118.2 80,113 74.1,113 74.1,118.2 73.1,118.2 		"/>
		<polygon class="st4" points="74,113 79.9,113 79.9,118.2 84.1,118.2 84.1,93.9 61.8,93.9 61.8,118.2 74,118.2 		"/>
		<line class="st2" x1="61.8" y1="118.2" x2="73.3" y2="118.2"/>
		<circle class="st5" cx="67.2" cy="118" r="2.3"/>
	</g>
	<g>
		<polyline class="st2" points="132.1,174.1 114.6,174.1 114.6,162.7 132.1,162.7 		"/>
		<polygon class="st3" points="114.6,173.9 114.6,184.9 132.1,184.9 132.1,180.8 137.3,180.8 137.3,174.9 132.1,174.9 132.1,173.9 
					"/>
		<polygon class="st4" points="137.3,174.9 137.3,180.8 132.1,180.8 132.1,184.9 156.3,184.9 156.3,162.7 132.1,162.7 132.1,174.9 
					"/>
		<line class="st2" x1="132.1" y1="162.7" x2="132.1" y2="174.1"/>
		<circle class="st5" cx="132.3" cy="168.1" r="2.3"/>
	</g>
</g>
<g id="Lag_4">
	<polyline class="st6" points="198.8,244 198.8,251 195.5,251 195.5,244 	"/>
	<polyline class="st6" points="179.4,246.8 181.4,253.5 178.3,254.5 176.2,247.8 	"/>
	<polyline class="st6" points="164.9,254.7 169.8,259.7 167.4,262 162.5,257 	"/>
	<polyline class="st6" points="212.2,247 210,253.6 213.1,254.7 215.4,248 	"/>
	<polyline class="st6" points="225.9,254.3 221.3,259.5 223.7,261.7 228.4,256.5 	"/>
	<polyline class="st6" points="198.8,359.7 198.8,366.7 195.5,366.7 195.5,359.7 	"/>
	<polyline class="st6" points="179.4,362.5 181.4,369.2 178.3,370.2 176.2,363.5 	"/>
	<polyline class="st6" points="167.9,368.3 172.8,373.4 170.4,375.7 165.5,370.6 	"/>
	<polyline class="st6" points="209.2,361.7 207,368.3 210.1,369.3 212.4,362.7 	"/>
	<polyline class="st6" points="220.9,367 216.3,372.2 218.8,374.4 223.4,369.2 	"/>
</g>
<g id="Lag_2">
	<radialGradient id="SVGID_2_" cx="74.9492" cy="173.3003" r="42.2019" gradientUnits="userSpaceOnUse">
		<stop  offset="0" style="stop-color:#F7AD53"/>
		<stop  offset="0.1315" style="stop-color:#F6A950"/>
		<stop  offset="0.2988" style="stop-color:#F39C47"/>
		<stop  offset="0.4857" style="stop-color:#EF863B"/>
		<stop  offset="0.6866" style="stop-color:#EA652C"/>
		<stop  offset="0.8967" style="stop-color:#E5351F"/>
		<stop  offset="1" style="stop-color:#E2001A"/>
	</radialGradient>
	<circle class="st7" cx="74.9" cy="173.3" r="42.2"/>
	<text transform="matrix(1 0 0 1 35.1709 177.1068)" class="st8 st9">T-hjælpelymfocyt</text>
	<radialGradient id="SVGID_3_" cx="195.7656" cy="173.3003" r="42.2019" gradientUnits="userSpaceOnUse">
		<stop  offset="0" style="stop-color:#FFFFFF"/>
		<stop  offset="9.902336e-02" style="stop-color:#F7F7F7"/>
		<stop  offset="0.2765" style="stop-color:#E0E0E1"/>
		<stop  offset="0.5118" style="stop-color:#B9BABC"/>
		<stop  offset="0.7926" style="stop-color:#7F8082"/>
		<stop  offset="1" style="stop-color:#4B4B4D"/>
	</radialGradient>
	<circle class="st10" cx="195.8" cy="173.3" r="42.2"/>
	<text transform="matrix(1 0 0 1 172.654 174.7734)" class="st8 st9">B-lymfocyt</text>
	<radialGradient id="SVGID_4_" cx="195.7656" cy="293.747" r="42.2021" gradientUnits="userSpaceOnUse">
		<stop  offset="0" style="stop-color:#45BCE9"/>
		<stop  offset="0.1885" style="stop-color:#44BAE6"/>
		<stop  offset="0.323" style="stop-color:#41B1DD"/>
		<stop  offset="0.4408" style="stop-color:#3CA4CE"/>
		<stop  offset="0.5489" style="stop-color:#3792BA"/>
		<stop  offset="0.6506" style="stop-color:#307BA2"/>
		<stop  offset="0.7473" style="stop-color:#2A6286"/>
		<stop  offset="0.8402" style="stop-color:#244669"/>
		<stop  offset="0.9277" style="stop-color:#1D2C4F"/>
		<stop  offset="1" style="stop-color:#15193A"/>
	</radialGradient>
	<circle class="st11" cx="195.8" cy="293.7" r="42.2"/>
	<radialGradient id="SVGID_5_" cx="195.7656" cy="409.4844" r="8.1758" gradientUnits="userSpaceOnUse">
		<stop  offset="0" style="stop-color:#FFFFFF"/>
		<stop  offset="1" style="stop-color:#000000"/>
	</radialGradient>
	<circle class="st12" cx="195.8" cy="409.5" r="8.2"/>
	<radialGradient id="SVGID_6_" cx="74.1377" cy="55.0298" r="47.688" gradientUnits="userSpaceOnUse">
		<stop  offset="0" style="stop-color:#FFFAC9"/>
		<stop  offset="0.1643" style="stop-color:#FFF8C6"/>
		<stop  offset="0.3136" style="stop-color:#FFF4BC"/>
		<stop  offset="0.4571" style="stop-color:#FFEEAA"/>
		<stop  offset="0.5971" style="stop-color:#FFE490"/>
		<stop  offset="0.7344" style="stop-color:#FFD86D"/>
		<stop  offset="0.868" style="stop-color:#FDCA40"/>
		<stop  offset="1" style="stop-color:#FAB900"/>
	</radialGradient>
	<ellipse class="st13" cx="74.1" cy="55" rx="52.6" ry="42.2"/>
	<text transform="matrix(1 0 0 1 54.8413 57.4798)" class="st8 st9">Makrofag</text>
	<g>
		<g>
			<radialGradient id="SVGID_7_" cx="191.6948" cy="409.4854" r="44.2843" gradientUnits="userSpaceOnUse">
				<stop  offset="0" style="stop-color:#45BCE9"/>
				<stop  offset="0.1885" style="stop-color:#44BAE6"/>
				<stop  offset="0.323" style="stop-color:#41B1DD"/>
				<stop  offset="0.4408" style="stop-color:#3CA4CE"/>
				<stop  offset="0.5489" style="stop-color:#3792BA"/>
				<stop  offset="0.6506" style="stop-color:#307BA2"/>
				<stop  offset="0.7473" style="stop-color:#2A6286"/>
				<stop  offset="0.8402" style="stop-color:#244669"/>
				<stop  offset="0.9277" style="stop-color:#1D2C4F"/>
				<stop  offset="1" style="stop-color:#15193A"/>
			</radialGradient>
			<path class="st14" d="M195.8,367.3c-22.6,0-41,17.7-42.1,40c0.3,0,0.7-0.1,1-0.1c5.1,0,9.2,4.1,9.2,9.2c0,4.4-3.1,8-7.2,9
				c6.3,15.4,21.4,26.3,39.1,26.3c10,0,19.3-3.5,26.5-9.4c-2.3-1.7-3.8-4.4-3.8-7.5c0-5.1,4.1-9.2,9.2-9.2c2.3,0,4.4,0.9,6.1,2.3
				c2.7-5.6,4.2-11.8,4.2-18.5C238,386.2,219.1,367.3,195.8,367.3z"/>
		</g>
		<g>
			<path class="st15" d="M195.8,367.3c-22.6,0-41,17.7-42.1,40c0.3,0,0.7-0.1,1-0.1c5.1,0,9.2,4.1,9.2,9.2c0,4.4-3.1,8-7.2,9
				c6.3,15.4,21.4,26.3,39.1,26.3c10,0,19.3-3.5,26.5-9.4c-2.3-1.7-3.8-4.4-3.8-7.5c0-5.1,4.1-9.2,9.2-9.2c2.3,0,4.4,0.9,6.1,2.3
				c2.7-5.6,4.2-11.8,4.2-18.5C238,386.2,219.1,367.3,195.8,367.3z"/>
		</g>
	</g>
	<g>
		<circle class="st16" cx="167.7" cy="281.8" r="7.2"/>
		<circle class="st17" cx="168.6" cy="281" r="1.2"/>
		<circle class="st17" cx="167.6" cy="277.4" r="1.2"/>
		<circle class="st17" cx="163.2" cy="280.2" r="1.2"/>
		<circle class="st17" cx="165.1" cy="283.4" r="1.2"/>
		<circle class="st17" cx="170.9" cy="285.8" r="1.2"/>
		<circle class="st17" cx="173.1" cy="281" r="1.2"/>
	</g>
	<g>
		<circle class="st16" cx="169.1" cy="309.9" r="7.2"/>
		<circle class="st17" cx="170" cy="309.1" r="1.2"/>
		<circle class="st17" cx="169" cy="305.5" r="1.2"/>
		<circle class="st17" cx="164.6" cy="308.3" r="1.2"/>
		<circle class="st17" cx="166.5" cy="311.5" r="1.2"/>
		<circle class="st17" cx="172.4" cy="313.9" r="1.2"/>
		<circle class="st17" cx="174.5" cy="309.1" r="1.2"/>
	</g>
	<g>
		<circle class="st16" cx="224.9" cy="284.4" r="7.2"/>
		<circle class="st17" cx="225.8" cy="283.6" r="1.2"/>
		<circle class="st17" cx="224.8" cy="280" r="1.2"/>
		<circle class="st17" cx="220.4" cy="282.7" r="1.2"/>
		<circle class="st17" cx="222.3" cy="286" r="1.2"/>
		<circle class="st17" cx="228.1" cy="288.4" r="1.2"/>
		<circle class="st17" cx="230.3" cy="283.5" r="1.2"/>
	</g>
	<g>
		<circle class="st16" cx="210.1" cy="322.8" r="7.2"/>
		<circle class="st17" cx="211" cy="322" r="1.2"/>
		<circle class="st17" cx="210" cy="318.4" r="1.2"/>
		<circle class="st17" cx="205.6" cy="321.1" r="1.2"/>
		<circle class="st17" cx="207.6" cy="324.4" r="1.2"/>
		<circle class="st17" cx="213.4" cy="326.8" r="1.2"/>
		<circle class="st17" cx="215.6" cy="321.9" r="1.2"/>
	</g>
	<g>
		<circle class="st16" cx="226.2" cy="400.1" r="7.2"/>
		<circle class="st17" cx="227.1" cy="399.3" r="1.2"/>
		<circle class="st17" cx="226.1" cy="395.7" r="1.2"/>
		<circle class="st17" cx="221.7" cy="398.5" r="1.2"/>
		<circle class="st17" cx="223.6" cy="401.7" r="1.2"/>
		<circle class="st17" cx="229.4" cy="404.2" r="1.2"/>
		<circle class="st17" cx="231.6" cy="399.3" r="1.2"/>
	</g>
	<g>
		<circle class="st16" cx="179.4" cy="424.5" r="7.2"/>
		<circle class="st17" cx="180.3" cy="423.8" r="1.2"/>
		<circle class="st17" cx="179.3" cy="420.1" r="1.2"/>
		<circle class="st17" cx="174.9" cy="422.9" r="1.2"/>
		<circle class="st17" cx="176.9" cy="426.1" r="1.2"/>
		<circle class="st17" cx="182.7" cy="428.6" r="1.2"/>
		<circle class="st17" cx="184.9" cy="423.7" r="1.2"/>
	</g>
	<g>
		<circle class="st16" cx="208.4" cy="437.6" r="7.2"/>
		<circle class="st17" cx="209.3" cy="436.8" r="1.2"/>
		<circle class="st17" cx="208.3" cy="433.2" r="1.2"/>
		<circle class="st17" cx="203.9" cy="436" r="1.2"/>
		<circle class="st17" cx="205.9" cy="439.2" r="1.2"/>
		<circle class="st17" cx="211.7" cy="441.7" r="1.2"/>
		<circle class="st17" cx="213.9" cy="436.8" r="1.2"/>
	</g>
	<circle class="st18" cx="230.1" cy="433.6" r="1.5"/>
	<circle class="st18" cx="223" cy="433.5" r="1.5"/>
	<circle class="st18" cx="224.8" cy="428.8" r="1.5"/>
	<circle class="st18" cx="226.8" cy="439.5" r="1.5"/>
	<circle class="st18" cx="159.2" cy="413.5" r="1.5"/>
	<circle class="st18" cx="156.5" cy="419.5" r="1.5"/>
	<circle class="st18" cx="151.8" cy="413.5" r="1.5"/>
	<circle class="st18" cx="147.5" cy="418.5" r="1.5"/>
	<circle class="st18" cx="146.5" cy="427.5" r="1.5"/>
	<circle class="st18" cx="139.5" cy="423.8" r="1.5"/>
	<circle class="st18" cx="131" cy="433.5" r="1.5"/>
	<circle class="st18" cx="119.8" cy="429.5" r="1.5"/>
	<circle class="st18" cx="114.8" cy="442.2" r="1.5"/>
	<circle class="st18" cx="108.2" cy="438" r="1.5"/>
	<circle class="st18" cx="100.2" cy="457.2" r="1.5"/>
	<circle class="st18" cx="122" cy="415.8" r="1.5"/>
	<circle class="st18" cx="230.5" cy="449.8" r="1.5"/>
	<circle class="st18" cx="237.5" cy="443.2" r="1.5"/>
	<circle class="st18" cx="239.5" cy="452.8" r="1.5"/>
	<circle class="st18" cx="250.8" cy="446" r="1.5"/>
	<circle class="st18" cx="254.5" cy="459.5" r="1.5"/>
	<circle class="st18" cx="246.5" cy="465" r="1.5"/>
	<circle class="st18" cx="252" cy="476" r="1.5"/>
	<circle class="st18" cx="234" cy="463" r="1.5"/>
	<circle class="st18" cx="237.5" cy="474" r="1.5"/>
	<circle class="st18" cx="225.5" cy="476.8" r="1.5"/>
	<circle class="st18" cx="223.2" cy="472" r="1.5"/>
	<circle class="st18" cx="217.2" cy="477.5" r="1.5"/>
	<circle class="st18" cx="245.5" cy="438.8" r="1.5"/>
	<circle class="st16" cx="227.3" cy="304.2" r="7.2"/>
	<circle class="st16" cx="190" cy="312.4" r="7.2"/>
	<circle class="st19" cx="148.3" cy="19.5" r="2.7"/>
	<circle class="st19" cx="210.3" cy="117.7" r="2.7"/>
	<circle class="st19" cx="168.3" cy="359.7" r="2.7"/>
	<circle class="st19" cx="205.3" cy="353.7" r="2.7"/>
	<circle class="st19" cx="220.3" cy="357.7" r="2.7"/>
</g>
<g id="streger">
	<path class="st20" d="M121.7,31.6"/>
	<path class="st20" d="M143.4,21.1"/>
	<line class="st20" x1="86.9" y1="102.6" x2="107.9" y2="102.6"/>
	<line class="st20" x1="86.9" y1="126.3" x2="107.9" y2="126.3"/>
	<line class="st20" x1="136.9" y1="213.8" x2="154.6" y2="213.8"/>
	<line class="st20" x1="136.2" y1="250.1" x2="156.6" y2="250.1"/>
	<line class="st20" x1="117.8" y1="380.9" x2="142.8" y2="413.8"/>
	<g>
		<line class="st21" x1="196.1" y1="228.1" x2="196.1" y2="217.7"/>
		<polygon points="191.3,225.1 196.1,233.3 200.8,225.1 		"/>
	</g>
	<g>
		<line class="st21" x1="131.8" y1="31" x2="143.5" y2="22.6"/>
		<polygon points="131.5,25.4 127.6,34 137,33.1 		"/>
	</g>
	<g>
		<line class="st21" x1="196.1" y1="347.5" x2="196.1" y2="337.1"/>
		<polygon points="191.3,344.5 196.1,352.7 200.8,344.5 		"/>
	</g>
</g>
<g id="txt">
	<text transform="matrix(1 0 0 1 174.0811 295.4388)" class="st8 st9">Mastcelle</text>
	<text transform="matrix(1 0 0 1 159.2373 21.0532)" class="st8 st9">Allergen</text>
	<text transform="matrix(1 0 0 1 80.4893 253.3418)" class="st8 st9">Fikseret IgE</text>
	<text transform="matrix(1 0 0 1 80.4893 378.289)" class="st8 st9">Histamin</text>
	<text transform="matrix(1 0 0 1 119.4209 217.7632)" class="st8 st9">IgE</text>
	<text transform="matrix(1 0 0 1 110.1582 129.1845)" class="st8 st9">TCR-CD4</text>
	<text transform="matrix(1 0 0 1 110.1582 105.29)" class="st8 st9">MHC-II</text>
</g>
</svg>
