<?xml version="1.0" encoding="utf-8"?>
<!-- Generator: Adobe Illustrator 19.1.0, SVG Export Plug-In . SVG Version: 6.00 Build 0)  -->
<svg version="1.1" xmlns="http://www.w3.org/2000/svg" xmlns:xlink="http://www.w3.org/1999/xlink" x="0px" y="0px"
	 viewBox="0 0 269.3 487.6" style="enable-background:new 0 0 269.3 487.6;" xml:space="preserve">
<style type="text/css">
	.st0{fill:url(#SVGID_1_);}
	.st1{fill:#E95E35;stroke:#000000;stroke-width:0.5;}
	.st2{fill:#172983;}
	.st3{fill:none;stroke:#000000;stroke-width:0.5;}
	.st4{fill:#0099DC;stroke:#000000;stroke-width:0.5;}
	.st5{fill:#F18E3A;stroke:#FFFFFF;stroke-width:0.5;}
	.st6{fill:#F18E3A;stroke:#FFFFFF;stroke-width:0.8;}
	.st7{fill:url(#SVGID_2_);stroke:#000000;stroke-width:0.5;stroke-miterlimit:10;}
	.st8{fill:url(#SVGID_3_);stroke:#000000;stroke-width:0.5;stroke-miterlimit:10;}
	.st9{fill:url(#SVGID_4_);stroke:#000000;stroke-width:0.5;stroke-miterlimit:10;}
	.st10{fill:url(#SVGID_5_);stroke:#000000;stroke-width:0.5;stroke-miterlimit:10;}
	.st11{fill:url(#SVGID_6_);stroke:#000000;stroke-width:0.5;stroke-miterlimit:10;}
	.st12{fill:none;stroke:#12A12E;stroke-width:1.9697;}
	.st13{fill:none;stroke:#28A22D;stroke-width:1.9697;}
	.st14{fill:#F18E3A;stroke:#FFFFFF;stroke-width:0.75;}
	.st15{fill:none;stroke:#000000;stroke-dasharray:1.8,1.8;}
	.st16{fill:none;stroke:#000000;}
	.st17{fill:none;stroke:#FFFFFF;stroke-width:0.5;}
	.st18{font-family:'Verdana';}
	.st19{font-size:9px;}
	.st20{fill:#FFFFFF;}
</style>
<g id="Lag_4">
	
		<linearGradient id="SVGID_1_" gradientUnits="userSpaceOnUse" x1="134.6455" y1="487.5586" x2="134.6455" y2="4.999575e-04" gradientTransform="matrix(-1 0 0 -1 269.291 487.5591)">
		<stop  offset="1.090577e-02" style="stop-color:#172983"/>
		<stop  offset="0.3953" style="stop-color:#B0DFF5"/>
		<stop  offset="0.4778" style="stop-color:#94D0EE"/>
		<stop  offset="0.6542" style="stop-color:#31A9DC"/>
		<stop  offset="0.8364" style="stop-color:#0085CA"/>
		<stop  offset="0.8585" style="stop-color:#0087C7"/>
		<stop  offset="0.8947" style="stop-color:#008CBD"/>
		<stop  offset="0.9404" style="stop-color:#0094AB"/>
		<stop  offset="0.9934" style="stop-color:#069F8D"/>
		<stop  offset="1" style="stop-color:#1DA088"/>
	</linearGradient>
	<rect y="0" class="st0" width="269.3" height="487.6"/>
</g>
<g id="Lag_2">
	<path class="st1" d="M169.8,52.5l-11.8-14.7l0.4-0.3c0,0,2.3,2.3,4.6,0.5c2.4-1.9,0.7-4.4,0.6-4.6c0.3-0.3,1.8-1.4,1.8-1.4l2.3,2.9
		l3-2.4l-2.3-2.9l1.5-1.2l11.8,14.7L169.8,52.5z"/>
	<path class="st1" d="M42.1,52.5L30.3,37.8l0.4-0.3c0,0,2.3,2.3,4.6,0.5c2.4-1.9,0.7-4.4,0.6-4.6c0.3-0.3,1.8-1.4,1.8-1.4l2.3,2.9
		l3-2.4l-2.3-2.9l1.5-1.2L54,42.9L42.1,52.5z"/>
	<g>
		<g>
			<g>
				<path class="st2" d="M158.7,232.6c-1.1-1.4-0.9-3.5,0.5-4.7c1.4-1.1,3.5-0.9,4.7,0.5c0,0,0,0,0,0l0.4-0.3l-11.7-14.8l-6,4.8
					l11.7,14.8L158.7,232.6C158.7,232.6,158.7,232.6,158.7,232.6z"/>
			</g>
			<g>
				<path class="st3" d="M158.7,232.6c-1.1-1.4-0.9-3.5,0.5-4.7c1.4-1.1,3.5-0.9,4.7,0.5c0,0,0,0,0,0l0.4-0.3l-11.7-14.8l-6,4.8
					l11.7,14.8L158.7,232.6C158.7,232.6,158.7,232.6,158.7,232.6z"/>
			</g>
		</g>
		
			<rect x="151" y="216.6" transform="matrix(0.6206 0.7841 -0.7841 0.6206 234.7312 -44.2476)" class="st4" width="24.1" height="7.7"/>
	</g>
	<path class="st1" d="M170.4,247.9l-11.8-14.7l0.4-0.3c0,0,2.3,2.3,4.6,0.5c2.4-1.9,0.7-4.4,0.6-4.6c0.3-0.3,1.8-1.4,1.8-1.4
		l2.3,2.9l3-2.4l-2.3-2.9l1.5-1.2l11.8,14.7L170.4,247.9z"/>
	<circle class="st5" cx="161.6" cy="231" r="3.6"/>
	<circle class="st6" cx="95.4" cy="20.2" r="3.6"/>
	<circle class="st6" cx="109.8" cy="30" r="3.6"/>
</g>
<g id="Lag_1">
	<g>
		<radialGradient id="SVGID_2_" cx="127.3486" cy="182.0844" r="42.2019" gradientUnits="userSpaceOnUse">
			<stop  offset="0" style="stop-color:#F7AD53"/>
			<stop  offset="0.1315" style="stop-color:#F6A950"/>
			<stop  offset="0.2988" style="stop-color:#F39C47"/>
			<stop  offset="0.4857" style="stop-color:#EF863B"/>
			<stop  offset="0.6866" style="stop-color:#EA652C"/>
			<stop  offset="0.8967" style="stop-color:#E5351F"/>
			<stop  offset="1" style="stop-color:#E2001A"/>
		</radialGradient>
		<circle class="st7" cx="127.3" cy="182.1" r="42.2"/>
	</g>
	<g>
		<radialGradient id="SVGID_3_" cx="72.3188" cy="80.4526" r="42.2016" gradientUnits="userSpaceOnUse">
			<stop  offset="0" style="stop-color:#FFFFFF"/>
			<stop  offset="9.902336e-02" style="stop-color:#F7F7F7"/>
			<stop  offset="0.2765" style="stop-color:#E0E0E1"/>
			<stop  offset="0.5118" style="stop-color:#B9BABC"/>
			<stop  offset="0.7926" style="stop-color:#7F8082"/>
			<stop  offset="1" style="stop-color:#4B4B4D"/>
		</radialGradient>
		<circle class="st8" cx="72.3" cy="80.5" r="42.2"/>
	</g>
	<g>
		<radialGradient id="SVGID_4_" cx="75.4268" cy="310.0811" r="47.688" gradientUnits="userSpaceOnUse">
			<stop  offset="0" style="stop-color:#FFFAC9"/>
			<stop  offset="0.1643" style="stop-color:#FFF8C6"/>
			<stop  offset="0.3136" style="stop-color:#FFF4BC"/>
			<stop  offset="0.4571" style="stop-color:#FFEEAA"/>
			<stop  offset="0.5971" style="stop-color:#FFE490"/>
			<stop  offset="0.7344" style="stop-color:#FFD86D"/>
			<stop  offset="0.868" style="stop-color:#FDCA40"/>
			<stop  offset="1" style="stop-color:#FAB900"/>
		</radialGradient>
		<ellipse class="st9" cx="75.4" cy="310.1" rx="52.6" ry="42.2"/>
	</g>
	<g>
		<radialGradient id="SVGID_5_" cx="199.851" cy="80.4526" r="42.2016" gradientUnits="userSpaceOnUse">
			<stop  offset="0" style="stop-color:#FFFFFF"/>
			<stop  offset="9.902336e-02" style="stop-color:#F7F7F7"/>
			<stop  offset="0.2765" style="stop-color:#E0E0E1"/>
			<stop  offset="0.5118" style="stop-color:#B9BABC"/>
			<stop  offset="0.7926" style="stop-color:#7F8082"/>
			<stop  offset="1" style="stop-color:#4B4B4D"/>
		</radialGradient>
		<circle class="st10" cx="199.9" cy="80.5" r="42.2"/>
	</g>
	<g>
		<radialGradient id="SVGID_6_" cx="199.851" cy="275.2739" r="42.2016" gradientUnits="userSpaceOnUse">
			<stop  offset="0" style="stop-color:#FFFFFF"/>
			<stop  offset="9.902336e-02" style="stop-color:#F7F7F7"/>
			<stop  offset="0.2765" style="stop-color:#E0E0E1"/>
			<stop  offset="0.5118" style="stop-color:#B9BABC"/>
			<stop  offset="0.7926" style="stop-color:#7F8082"/>
			<stop  offset="1" style="stop-color:#4B4B4D"/>
		</radialGradient>
		<circle class="st11" cx="199.9" cy="275.3" r="42.2"/>
	</g>
</g>
<g id="Lag_3">
	<g>
		<line class="st12" x1="200.5" y1="52.8" x2="206.1" y2="58.8"/>
		<polyline class="st12" points="212.3,53.8 206,58.7 205.7,70.8 		"/>
	</g>
	<g>
		<line class="st13" x1="126.2" y1="52.3" x2="123.3" y2="60"/>
		<polyline class="st13" points="130.5,63.2 123.3,59.8 112.3,64.9 		"/>
	</g>
	<g>
		<line class="st13" x1="95.7" y1="24.2" x2="97.8" y2="32.2"/>
		<polyline class="st13" points="105.6,30.6 97.8,32 91.8,42.6 		"/>
	</g>
	<g>
		<line class="st13" x1="253.6" y1="52.3" x2="250.7" y2="60"/>
		<polyline class="st13" points="257.9,63.2 250.7,59.8 239.7,64.9 		"/>
	</g>
	<g>
		<line class="st13" x1="253.6" y1="246.3" x2="250.7" y2="254"/>
		<polyline class="st13" points="257.9,257.3 250.7,253.9 239.7,259 		"/>
	</g>
	<circle class="st14" cx="199" cy="49.9" r="3.6"/>
	<circle class="st14" cx="160.7" cy="34.7" r="3.6"/>
</g>
<g id="pile">
	<path class="st15" d="M111.9,224.8c0,0,3.3,30.9,44.7,34.9"/>
	<path class="st15" d="M75.8,266.9c0,0,32.9-17.8,76.3,3.9"/>
	<polygon points="147.4,274.4 149.5,265.9 155.8,272 	"/>
	<polygon points="150.2,262.5 152.5,254 158.7,260.3 	"/>
	<g>
		<polygon points="142.2,83.1 142.2,74.3 149.8,78.7 		"/>
		<g>
			<line class="st16" x1="127" y1="77.2" x2="142.8" y2="77.2"/>
			<line class="st16" x1="127" y1="80.2" x2="142.8" y2="80.2"/>
		</g>
	</g>
	<g>
		<polygon points="197.5,175.5 206.3,175.5 201.9,183.1 		"/>
		<g>
			<line class="st16" x1="203.4" y1="141.2" x2="203.4" y2="176"/>
			<line class="st16" x1="200.4" y1="141.2" x2="200.4" y2="176"/>
		</g>
	</g>
	<line class="st3" x1="178" y1="207" x2="167.5" y2="214.5"/>
	<line class="st17" x1="22" y1="18.5" x2="33.5" y2="30"/>
	<line class="st17" x1="71.5" y1="17.5" x2="91.5" y2="35.5"/>
	<line class="st17" x1="122" y1="18.5" x2="113.5" y2="25.5"/>
</g>
<g id="txt">
	<text transform="matrix(1 0 0 1 179 207.5)" class="st18 st19">CD4-TCR</text>
	<text transform="matrix(1 0 0 1 8.5127 15.5)" class="st20 st18 st19">MHC-II</text>
	<text transform="matrix(1 0 0 1 117.5 15.5)" class="st20 st18 st19">Antigen</text>
	<text transform="matrix(1 0 0 1 48.5 15.5)" class="st20 st18 st19">Antistof</text>
	<text transform="matrix(1 0 0 1 78.5 255.1934)" class="st18 st19">Cytokiner</text>
	<text transform="matrix(1 0 0 1 54.5776 313.9807)" class="st18 st19">Makrofag</text>
	<text transform="matrix(1 0 0 1 88.9036 184.8909)" class="st18 st19">T-hjælpelymfocyt</text>
	<text transform="matrix(1 0 0 1 47.8977 81.8878)" class="st18 st19">B-lymfocyt</text>
</g>
</svg>
