<?xml version="1.0" encoding="utf-8"?>
<!-- Generator: Adobe Illustrator 19.1.0, SVG Export Plug-In . SVG Version: 6.00 Build 0)  -->
<svg version="1.1" xmlns="http://www.w3.org/2000/svg" xmlns:xlink="http://www.w3.org/1999/xlink" x="0px" y="0px"
	 viewBox="0 0 566.9 487.6" style="enable-background:new 0 0 566.9 487.6;" xml:space="preserve">
<style type="text/css">
	.st0{fill:url(#SVGID_1_);}
	.st1{fill:url(#SVGID_2_);stroke:#000000;stroke-width:0.5;}
	.st2{fill:url(#SVGID_3_);stroke:#000000;stroke-width:0.5;}
	.st3{fill:url(#SVGID_4_);stroke:#000000;stroke-width:0.5;}
	.st4{fill:url(#SVGID_5_);stroke:#000000;stroke-width:0.5;}
	.st5{fill:url(#SVGID_6_);stroke:#000000;stroke-width:0.5;}
	.st6{fill:url(#SVGID_7_);stroke:#000000;stroke-width:0.5;}
	.st7{fill:url(#SVGID_8_);stroke:#000000;stroke-width:0.5;}
	.st8{fill:url(#SVGID_9_);stroke:#000000;stroke-width:0.5;}
	.st9{fill:#F29A79;stroke:#000000;stroke-width:0.5;}
	.st10{fill:url(#SVGID_10_);stroke:#000000;stroke-width:0.5;}
	.st11{fill:none;stroke:#000000;stroke-width:0.5;}
	.st12{fill:url(#SVGID_11_);stroke:#000000;stroke-width:0.5;}
	.st13{fill:url(#SVGID_12_);}
	.st14{fill:url(#SVGID_13_);}
	.st15{fill:url(#SVGID_14_);}
	.st16{fill:#F29A79;}
	.st17{fill:none;stroke:#000000;stroke-width:0.4;}
	.st18{fill:url(#SVGID_15_);}
	.st19{fill:#004494;}
	.st20{fill:none;stroke:#000000;stroke-width:0.3825;}
	.st21{fill:url(#SVGID_16_);stroke:#000000;stroke-width:0.5;}
	.st22{fill:url(#SVGID_17_);stroke:#000000;stroke-width:0.5;}
	.st23{fill:url(#SVGID_18_);stroke:#000000;stroke-width:0.5;}
	.st24{fill:#F29A79;stroke:#C6C7C8;stroke-width:9;}
	.st25{fill:#F29A79;stroke:#C6C7C8;stroke-width:3.2;}
	.st26{fill:none;stroke:#C6C7C8;stroke-width:9;}
	.st27{fill:none;stroke:#C6C7C8;stroke-width:3.2;}
	.st28{fill:#15B4E5;stroke:#0060AA;stroke-width:3.2;}
	.st29{fill:none;stroke:#009EE0;stroke-width:3.2;}
	.st30{fill:none;stroke:#009EE0;stroke-width:9;}
	.st31{fill:#15B4E5;stroke:#009EE0;stroke-width:3.2;}
	.st32{fill:#009EE0;}
	.st33{fill:#006AB3;}
	.st34{fill:#C6C7C8;}
	.st35{fill:#FFFFFF;stroke:#006AB3;stroke-width:1.8235;}
	.st36{font-family:'Verdana';}
	.st37{font-size:9px;}
	.st38{font-family:'Verdana-Bold';}
	.st39{fill:none;stroke:#C6C7C8;stroke-width:0.75;}
	.st40{fill:none;stroke:#000000;stroke-width:0.75;}
</style>
<g id="Lag_8">
	<radialGradient id="SVGID_1_" cx="283.4644" cy="243.7784" r="264.3675" gradientUnits="userSpaceOnUse">
		<stop  offset="0.2753" style="stop-color:#FFF9E3"/>
		<stop  offset="0.3903" style="stop-color:#FDF8E4"/>
		<stop  offset="0.5036" style="stop-color:#F3F5E9"/>
		<stop  offset="0.6157" style="stop-color:#E3F1F1"/>
		<stop  offset="0.7022" style="stop-color:#D0ECF9"/>
		<stop  offset="0.8294" style="stop-color:#88CEEE"/>
		<stop  offset="0.9494" style="stop-color:#00AFE3"/>
		<stop  offset="1" style="stop-color:#00A6E0"/>
	</radialGradient>
	<rect y="0" class="st0" width="566.9" height="487.6"/>
</g>
<g id="Lag_10">
	<g>
		<linearGradient id="SVGID_2_" gradientUnits="userSpaceOnUse" x1="201.4458" y1="219.318" x2="201.4458" y2="236.9492">
			<stop  offset="0" style="stop-color:#8B0E13"/>
			<stop  offset="0.5562" style="stop-color:#E2001A"/>
			<stop  offset="0.6148" style="stop-color:#DB001A"/>
			<stop  offset="0.7187" style="stop-color:#C70119"/>
			<stop  offset="0.8548" style="stop-color:#A60B16"/>
			<stop  offset="0.9494" style="stop-color:#8B0E13"/>
		</linearGradient>
		<path class="st1" d="M236.8,220.1c0,0-57-3-74.2,2.4c-2.8,3.4-5.2,10.6-1.8,14.4c6.2-1.8,75.2-8,83-2.6
			C238.4,224.9,236.8,220.1,236.8,220.1z"/>
		<linearGradient id="SVGID_3_" gradientUnits="userSpaceOnUse" x1="206.9458" y1="201.7179" x2="206.9458" y2="219.3491">
			<stop  offset="0" style="stop-color:#8B0E13"/>
			<stop  offset="0.5562" style="stop-color:#E2001A"/>
			<stop  offset="0.6148" style="stop-color:#DB001A"/>
			<stop  offset="0.7187" style="stop-color:#C70119"/>
			<stop  offset="0.8548" style="stop-color:#A60B16"/>
			<stop  offset="0.9494" style="stop-color:#8B0E13"/>
		</linearGradient>
		<path class="st2" d="M242.4,202.5c0,0-57-3-74.2,2.4c-2.8,3.4-5.2,10.6-1.8,14.4c6.2-1.8,75-5.4,82.8,0
			C243.8,209.9,242.4,202.5,242.4,202.5z"/>
		<linearGradient id="SVGID_4_" gradientUnits="userSpaceOnUse" x1="210.4511" y1="141.4366" x2="202.5031" y2="171.0989">
			<stop  offset="0" style="stop-color:#009EE0"/>
			<stop  offset="0.1042" style="stop-color:#00AAE4"/>
			<stop  offset="0.3321" style="stop-color:#76CBEF"/>
			<stop  offset="0.5225" style="stop-color:#C9E9F8"/>
			<stop  offset="0.5925" style="stop-color:#B4E1F6"/>
			<stop  offset="0.7381" style="stop-color:#71CAEE"/>
			<stop  offset="0.9452" style="stop-color:#00A7E3"/>
			<stop  offset="1" style="stop-color:#009EE0"/>
		</linearGradient>
		<path class="st3" d="M240,149.3c0,0-57.4-10.2-60-11.6c-3.2,3.8-8,18.6-6.4,25.6c5.6,1.4,56.6,13.4,60.6,14
			C234.4,171.1,240,149.3,240,149.3z"/>
		<linearGradient id="SVGID_5_" gradientUnits="userSpaceOnUse" x1="348.5093" y1="309.2017" x2="394.9028" y2="296.7705">
			<stop  offset="0.427" style="stop-color:#E2001A"/>
			<stop  offset="0.5098" style="stop-color:#DB001A"/>
			<stop  offset="0.6568" style="stop-color:#C70119"/>
			<stop  offset="0.8493" style="stop-color:#A60B16"/>
			<stop  offset="0.9831" style="stop-color:#8B0E13"/>
		</linearGradient>
		<path class="st4" d="M380.1,427.1l-61.3-246.4c0,0,29.3-10.1,33.6-10.1c0,0,56.5,145.3,71.5,256.3
			C400.4,432.2,380.1,427.1,380.1,427.1z"/>
		<linearGradient id="SVGID_6_" gradientUnits="userSpaceOnUse" x1="171.7808" y1="192.3492" x2="258.981" y2="192.3492">
			<stop  offset="0" style="stop-color:#009EE0"/>
			<stop  offset="8.286422e-02" style="stop-color:#00ABE4"/>
			<stop  offset="0.2655" style="stop-color:#81CFF0"/>
			<stop  offset="0.3933" style="stop-color:#C9E9F8"/>
			<stop  offset="0.3947" style="stop-color:#C8E8F8"/>
			<stop  offset="0.5586" style="stop-color:#82C0E6"/>
			<stop  offset="0.7069" style="stop-color:#2FA2D8"/>
			<stop  offset="0.8345" style="stop-color:#008FCE"/>
			<stop  offset="0.9364" style="stop-color:#0085C9"/>
			<stop  offset="1" style="stop-color:#0081C7"/>
		</linearGradient>
		<path class="st5" d="M258.8,250.7c0,0-27.6-30.6-29-33c-1.4-2.4-9.6-32.8-7.6-47c2-14.2,6.6-37.4,8-40.6c-3.4-1-38.6-8.4-38.6-8.4
			s-8.8,45.4-9,56c-0.2,10.6,1.8,43.4-10.8,60.6l52.2-4.8l35,29.4L258.8,250.7z"/>
		<linearGradient id="SVGID_7_" gradientUnits="userSpaceOnUse" x1="366.7481" y1="208.7354" x2="373.3222" y2="226.7976">
			<stop  offset="0" style="stop-color:#8B0E13"/>
			<stop  offset="0.4719" style="stop-color:#E2001A"/>
			<stop  offset="0.5431" style="stop-color:#DB001A"/>
			<stop  offset="0.6693" style="stop-color:#C70119"/>
			<stop  offset="0.8345" style="stop-color:#A60B16"/>
			<stop  offset="0.9494" style="stop-color:#8B0E13"/>
		</linearGradient>
		<path class="st6" d="M353.8,213.7c0,0,18.4-8.6,27.4-6c1.8,5.8,2.2,6.2,0.8,13.2c0,0-14.4,2.4-15.8,7.8
			C364.8,234.1,353.8,213.7,353.8,213.7z"/>
		<linearGradient id="SVGID_8_" gradientUnits="userSpaceOnUse" x1="370.3776" y1="229.3832" x2="373.922" y2="249.4848">
			<stop  offset="0" style="stop-color:#8B0E13"/>
			<stop  offset="0.4719" style="stop-color:#E2001A"/>
			<stop  offset="0.5431" style="stop-color:#DB001A"/>
			<stop  offset="0.6693" style="stop-color:#C70119"/>
			<stop  offset="0.8345" style="stop-color:#A60B16"/>
			<stop  offset="0.9494" style="stop-color:#8B0E13"/>
		</linearGradient>
		<path class="st7" d="M356.8,234.5c0,0,18.4-8.6,27.4-6c1.8,5.8,2.2,6.2,0.8,13.2c0,0-14.4,2.4-15.8,7.8
			C367.8,254.9,356.8,234.5,356.8,234.5z"/>
		<linearGradient id="SVGID_9_" gradientUnits="userSpaceOnUse" x1="324.4219" y1="243.9492" x2="324.4219" y2="147.165">
			<stop  offset="0.2528" style="stop-color:#007CC3"/>
			<stop  offset="0.3989" style="stop-color:#009EE0"/>
			<stop  offset="0.4829" style="stop-color:#00ABE4"/>
			<stop  offset="0.6682" style="stop-color:#81CFF0"/>
			<stop  offset="0.7978" style="stop-color:#C9E9F8"/>
			<stop  offset="0.8274" style="stop-color:#B4E1F6"/>
			<stop  offset="0.8891" style="stop-color:#71CAEE"/>
			<stop  offset="0.9768" style="stop-color:#00A7E3"/>
			<stop  offset="1" style="stop-color:#009EE0"/>
		</linearGradient>
		<path class="st8" d="M277,149.1c0,0,56.8,0.6,72.6,0.6s31.6-3.4,34.8-2.4c2,4,6,14.6-0.4,29.8c-15.2,0.6-51.4-7.2-67.8,16
			c-16.4,23.2-21.4,50.8-21.4,50.8c-2-13-11.6-20.2-11.6-20.2l-12.8,3.2l-7.4,8.8c0,0,0.8-25.2,12.6-45.6
			c-8.2-13.6-14.2-23.8-14.2-23.8l8.4-16.2L277,149.1z"/>
		<path class="st9" d="M259.2,246.9c0,0-12.4-16.9-14.4-26.1c-2-9.2-5.2-53.2-5.2-53.2c6.4-2.4,20.4-6,27.6-0.4
			c0.4,10,3.6,26.3,6.8,28.7c-2.8,4-4.1,6-4.1,6s-2.3-3.5-3.9-12.7c-1.6-9.2-2.4-17.6-2.4-17.6s-9.4-3.4-19.3,1.2
			c0.8,11.6,3.7,59.2,16.5,67.2c-1.6,4.8-2.3,6.4-2.3,6.4"/>
		<linearGradient id="SVGID_10_" gradientUnits="userSpaceOnUse" x1="215.3809" y1="152.6492" x2="346.7813" y2="152.6492">
			<stop  offset="0.427" style="stop-color:#E2001A"/>
			<stop  offset="0.5098" style="stop-color:#DB001A"/>
			<stop  offset="0.6568" style="stop-color:#C70119"/>
			<stop  offset="0.8493" style="stop-color:#A60B16"/>
			<stop  offset="0.9831" style="stop-color:#8B0E13"/>
		</linearGradient>
		<path class="st10" d="M346.8,150.1c0,0-12.5-25.9-32.8-35c0,0-3-0.8-0.6-5.4c2.4-4.6,15.8-34,15.8-34s0.2-6.8-11.2-5
			c-5.6,10.8-19.2,35.6-19.2,35.6l0.8-35c0,0-6.2-4.2-12-0.6c0,5.6-0.4,33.8-0.4,33.8s-7,4.2-7.8,4.4c-0.8,0.2-3,1-4-1.6
			c-1-2.6-9.2-23.6-11.4-24.8c-2.2-1.2-0.6-3.2,0-4.6c0.6-1.4,5-8.6,5-8.6s-0.2-5-9.2-8.4c-6.2,7.2-7.8,8-7.8,8s-20.8-15-36.2-16.6
			c-0.2,8.2-0.4,11.8-0.4,11.8s38.2,11.4,43,33.8c4.8,22.4,2.2,16.2-1.8,21.2s-20.4,18.4-24.4,44.8c-4,26.4,3.2,56.4,3.6,59
			c0.4,2.6,1,5,1,5l20.2,25l0.6-8.2c0,0-11.4-17.8-14.4-34l-3.1-39.5c4.6-2,12.5-6.7,26.9-3.1c1.2,8.4-0.6,21.1,7,27.7
			c1.9-2.7,3.4-4.5,3.4-4.5s-6.2-8.4-4.2-21.8c2-13.4,6.8-26.6,24.6-20.4"/>
		<path class="st11" d="M294.6,149.1c52.2,1,52.1,1,62.6,0.2"/>
		<linearGradient id="SVGID_11_" gradientUnits="userSpaceOnUse" x1="175.5806" y1="372.9488" x2="219.981" y2="372.9488">
			<stop  offset="0" style="stop-color:#009EE0"/>
			<stop  offset="0.5449" style="stop-color:#C9E9F8"/>
			<stop  offset="1" style="stop-color:#009EE0"/>
		</linearGradient>
		<polygon class="st12" points="178,330.3 175.6,415.5 217.6,413.1 220,376.3 		"/>
		<path class="st11" d="M277.4,191.3c0,0,3-5.8,8-8.5"/>
		<linearGradient id="SVGID_12_" gradientUnits="userSpaceOnUse" x1="192.5075" y1="125.1492" x2="229.8542" y2="125.1492">
			<stop  offset="0" style="stop-color:#FFFFFF"/>
			<stop  offset="0.6067" style="stop-color:#009EE0"/>
			<stop  offset="1" style="stop-color:#006AB0"/>
		</linearGradient>
		<path class="st13" d="M229.8,128.8c-0.6,2.9-9.4,3.7-19.7,1.6c-10.3-2-18.2-6-17.6-9c0.6-2.9,9.4-3.7,19.7-1.6
			C222.5,121.9,230.4,125.9,229.8,128.8z"/>
		<g>
			<g>
				
					<linearGradient id="SVGID_13_" gradientUnits="userSpaceOnUse" x1="127.6299" y1="122.5557" x2="166.5733" y2="122.5557" gradientTransform="matrix(0.9978 1.144900e-02 1.144900e-02 0.9412 62.9643 8.3151)">
					<stop  offset="0" style="stop-color:#FFFFFF"/>
					<stop  offset="0.6067" style="stop-color:#009EE0"/>
					<stop  offset="1" style="stop-color:#006AB0"/>
				</linearGradient>
				<path class="st14" d="M212.3,119.6c-10.7-2.1-19.9-1.2-20.5,1.9c-0.6,3.2,7.6,7.4,18.3,9.5c10.7,2.1,19.9,1.2,20.5-1.9
					C231.2,126,223,121.7,212.3,119.6z M228.6,128.9c-0.5,2.8-8.8,3.5-18.5,1.6c-9.7-1.9-17.1-5.6-16.5-8.4
					c0.5-2.8,8.8-3.5,18.5-1.6C221.7,122.4,229.1,126.2,228.6,128.9z"/>
			</g>
		</g>
		
			<linearGradient id="SVGID_14_" gradientUnits="userSpaceOnUse" x1="394.7502" y1="421.585" x2="436.3565" y2="421.585" gradientTransform="matrix(0.9674 -0.2532 0.2532 0.9674 -106.5749 124.8014)">
			<stop  offset="0" style="stop-color:#FFFFFF"/>
			<stop  offset="0.573" style="stop-color:#E85236"/>
			<stop  offset="1" style="stop-color:#A13B27"/>
		</linearGradient>
		<path class="st15" d="M423.3,426.3c0.2,3.1-9.1,6.1-20.8,6.7c-11.7,0.6-21.3-1.3-21.6-4.4c-0.2-3.1,9.1-6.1,20.8-6.7
			C413.5,421.2,423.1,423.2,423.3,426.3z"/>
		<g>
			<g>
				<path class="st16" d="M401.7,420.9c-12.2,0.7-21.9,4.1-21.6,7.6c0.2,3.5,10.3,5.8,22.5,5.1c12.2-0.7,21.9-4.1,21.6-7.6
					C424,422.5,413.9,420.2,401.7,420.9z M402.6,433c-11,0.6-20-1.4-20.2-4.4c-0.2-3.1,8.5-6,19.5-6.7c11-0.6,20,1.4,20.2,4.4
					C422.2,429.4,413.5,432.3,402.6,433z"/>
			</g>
			<g>
				<path class="st17" d="M401.7,420.9c-12.2,0.7-21.9,4.1-21.6,7.6c0.2,3.5,10.3,5.8,22.5,5.1c12.2-0.7,21.9-4.1,21.6-7.6
					C424,422.5,413.9,420.2,401.7,420.9z M402.6,433c-11,0.6-20-1.4-20.2-4.4c-0.2-3.1,8.5-6,19.5-6.7c11-0.6,20,1.4,20.2,4.4
					C422.2,429.4,413.5,432.3,402.6,433z"/>
			</g>
		</g>
		
			<linearGradient id="SVGID_15_" gradientUnits="userSpaceOnUse" x1="198.8857" y1="357.9165" x2="240.4917" y2="357.9165" gradientTransform="matrix(0.9674 -0.2532 0.2532 0.9674 -106.5749 124.8014)">
			<stop  offset="0" style="stop-color:#FFFFFF"/>
			<stop  offset="0.6067" style="stop-color:#009EE0"/>
			<stop  offset="1" style="stop-color:#006AB0"/>
		</linearGradient>
		<path class="st18" d="M217.7,414.3c0.2,3.1-9.1,6.1-20.8,6.7c-11.7,0.6-21.3-1.3-21.6-4.4c-0.2-3.1,9.1-6.1,20.8-6.7
			C207.9,409.2,217.5,411.2,217.7,414.3z"/>
		<g>
			<g>
				<path class="st19" d="M196.1,408.9c-12.2,0.7-21.9,4.1-21.6,7.6c0.2,3.5,10.3,5.8,22.5,5.1c12.2-0.7,21.9-4.1,21.6-7.6
					C218.4,410.5,208.3,408.2,196.1,408.9z M197,421c-11,0.6-20-1.4-20.2-4.4c-0.2-3.1,8.5-6,19.5-6.7c11-0.6,20,1.4,20.2,4.4
					C216.6,417.4,207.9,420.3,197,421z"/>
			</g>
			<g>
				<path class="st17" d="M196.1,408.9c-12.2,0.7-21.9,4.1-21.6,7.6c0.2,3.5,10.3,5.8,22.5,5.1c12.2-0.7,21.9-4.1,21.6-7.6
					C218.4,410.5,208.3,408.2,196.1,408.9z M197,421c-11,0.6-20-1.4-20.2-4.4c-0.2-3.1,8.5-6,19.5-6.7c11-0.6,20,1.4,20.2,4.4
					C216.6,417.4,207.9,420.3,197,421z"/>
			</g>
		</g>
		<g>
			<g>
				<path class="st19" d="M212,119.1c-11-1.7-20.4-0.3-20.9,3.2c-0.5,3.5,8,7.7,19.1,9.4c11,1.7,20.4,0.3,20.9-3.2
					C231.6,125,223.1,120.8,212,119.1z M210.3,131.1c-9.9-1.6-17.6-5.3-17.2-8.3c0.4-3,8.8-4.2,18.7-2.7c9.9,1.6,17.6,5.3,17.2,8.3
					C228.6,131.4,220.3,132.7,210.3,131.1z"/>
			</g>
			<g>
				<path class="st20" d="M212,119.1c-11-1.7-20.4-0.3-20.9,3.2c-0.5,3.5,8,7.7,19.1,9.4c11,1.7,20.4,0.3,20.9-3.2
					C231.6,125,223.1,120.8,212,119.1z M210.3,131.1c-9.9-1.6-17.6-5.3-17.2-8.3c0.4-3,8.8-4.2,18.7-2.7c9.9,1.6,17.6,5.3,17.2,8.3
					C228.6,131.4,220.3,132.7,210.3,131.1z"/>
			</g>
		</g>
		<g>
			<g>
				<path class="st16" d="M377.7,283.7c-10.4-14.7-4.8-26.7-5.3-45.1c-0.5-18.4-21.3-29.9-30.7-33.3c-9.3-3.5-32.8-0.5-32.8-0.5
					l-5.3,11.1l-0.3,0.7c32-10.4,50.7,6.7,50.7,6.7c22.4,27.2,2.4,40.5-3.7,45.1c-6.1,4.5-5.3,22.9-0.3,27.7
					c-1.6-1.9-2.4-11.7,1.6-21.1c4-9.3,8.5,10.7,10.4,22.4c1.9,11.7,0.3,36,3.7,57.3c3.5,21.3,6.4,28-7.5,35.2
					c-13.9,7.2-20-3.7-26.7-12.8c-6.7-9.1-17.6-50.9-25.6-72.3c-8-21.3-10.1-37.1-8.8-42.4c1.3-5.3,3.7-9.9,2.1-13.9
					c-0.5,2.9-1.3,2.4-4.3,5.1c0,0,0.8-2.9,0.8-16.5c0-13.6-11.2-16.8-25.9-15.2c-14.7,1.6-12.5,27.2-13.1,35.7
					c-1.3-2.1-13.9-17.3-26.1-25.9c-12.3-8.5-39.2-8.3-58.4,3.2c-19.2,11.5,1.3,80.5,5.3,96c4,15.5,27.7,39.2,35.5,45.6
					c7.7,6.4,72,32.3,125.1,41.1c53.1,8.8,57.6-45.6,58.7-59.7C398,343.7,388.1,298.3,377.7,283.7z M315.6,397
					c-13.6,6.6-19.2,1.3-22.9-0.3c-3.7-1.6-42.4-25.3-57.6-34.7c-15.2-9.3-26.7-22.1-26.7-22.1c-15.2-25.3-4.5-34.4-4.5-34.4
					c9.3-2.7,30.7,14.1,36.5,18.1c-6.9-24-48.3-31.2-48.3-31.2c-15.7-5.9-20.3-28.5-15.5-42.1c4.8-13.6,22.9-20.5,43.5-10.9
					c20.5,9.6,32.3,69.9,32.3,69.9s0.3-21.9,1.1-32.5c0.8-10.7,7.5-10.7,12.5-15.7c5.1-5.1,5.6-16,5.6-16s-4.5,4.3-6.4,5.9
					c-0.3-9.1,2.1-26.4,15.2-24.5s13.3,14.7,10.1,22.4c-3.2,7.7-9.3,3.2-11.5,1.6c-1.9,0.8-3.7,3.5-0.3,7.5c3.5,4,6.7,15.2,7.5,22.7
					c0.8,7.5,6.7,48.3,12.5,72C304.6,376.2,323,393,323,393S322.3,393.7,315.6,397z"/>
			</g>
			<g>
				<path class="st11" d="M377.7,283.7c-10.4-14.7-4.8-26.7-5.3-45.1c-0.5-18.4-21.3-29.9-30.7-33.3c-9.3-3.5-32.8-0.5-32.8-0.5
					l-5.3,11.1l-0.3,0.7c32-10.4,50.7,6.7,50.7,6.7c22.4,27.2,2.4,40.5-3.7,45.1c-6.1,4.5-5.3,22.9-0.3,27.7
					c-1.6-1.9-2.4-11.7,1.6-21.1c4-9.3,8.5,10.7,10.4,22.4c1.9,11.7,0.3,36,3.7,57.3c3.5,21.3,6.4,28-7.5,35.2
					c-13.9,7.2-20-3.7-26.7-12.8c-6.7-9.1-17.6-50.9-25.6-72.3c-8-21.3-10.1-37.1-8.8-42.4c1.3-5.3,3.7-9.9,2.1-13.9
					c-0.5,2.9-1.3,2.4-4.3,5.1c0,0,0.8-2.9,0.8-16.5c0-13.6-11.2-16.8-25.9-15.2c-14.7,1.6-12.5,27.2-13.1,35.7
					c-1.3-2.1-13.9-17.3-26.1-25.9c-12.3-8.5-39.2-8.3-58.4,3.2c-19.2,11.5,1.3,80.5,5.3,96c4,15.5,27.7,39.2,35.5,45.6
					c7.7,6.4,72,32.3,125.1,41.1c53.1,8.8,57.6-45.6,58.7-59.7C398,343.7,388.1,298.3,377.7,283.7z M315.6,397
					c-13.6,6.6-19.2,1.3-22.9-0.3c-3.7-1.6-42.4-25.3-57.6-34.7c-15.2-9.3-26.7-22.1-26.7-22.1c-15.2-25.3-4.5-34.4-4.5-34.4
					c9.3-2.7,30.7,14.1,36.5,18.1c-6.9-24-48.3-31.2-48.3-31.2c-15.7-5.9-20.3-28.5-15.5-42.1c4.8-13.6,22.9-20.5,43.5-10.9
					c20.5,9.6,32.3,69.9,32.3,69.9s0.3-21.9,1.1-32.5c0.8-10.7,7.5-10.7,12.5-15.7c5.1-5.1,5.6-16,5.6-16s-4.5,4.3-6.4,5.9
					c-0.3-9.1,2.1-26.4,15.2-24.5s13.3,14.7,10.1,22.4c-3.2,7.7-9.3,3.2-11.5,1.6c-1.9,0.8-3.7,3.5-0.3,7.5c3.5,4,6.7,15.2,7.5,22.7
					c0.8,7.5,6.7,48.3,12.5,72C304.6,376.2,323,393,323,393S322.3,393.7,315.6,397z"/>
			</g>
		</g>
		<linearGradient id="SVGID_16_" gradientUnits="userSpaceOnUse" x1="208.5532" y1="342.4642" x2="317.9733" y2="279.2905">
			<stop  offset="0.1966" style="stop-color:#172983"/>
			<stop  offset="0.2861" style="stop-color:#003C8F"/>
			<stop  offset="0.4838" style="stop-color:#0069B2"/>
			<stop  offset="0.4888" style="stop-color:#006AB3"/>
			<stop  offset="0.525" style="stop-color:#005CA7"/>
			<stop  offset="0.5743" style="stop-color:#004D9B"/>
			<stop  offset="0.6285" style="stop-color:#004091"/>
			<stop  offset="0.6887" style="stop-color:#00368B"/>
			<stop  offset="0.7578" style="stop-color:#0E2F86"/>
			<stop  offset="0.844" style="stop-color:#152A84"/>
			<stop  offset="1" style="stop-color:#172983"/>
		</linearGradient>
		<path class="st21" d="M252.4,307.5c0,0-12-82.4-53.6-74c-41.6,8.4-26,58,1.2,63.2c27.2,5.2,35.6,16.8,39.6,25.6
			c-12.4-10-36.4-26.8-38.8-13.2c-2.4,13.6-3.6,32,39.2,57.6c42.8,25.6,58.8,37.2,67.6,34c8.8-3.2,17.1-8.2,17.1-8.2
			s-17.5-18.2-23.1-35c-5.6-16.8-12.8-64.8-14.4-76.8c-1.6-12-4-19.2-6.4-22c-2.4-2.8-3.6-5.6-2-7.6c3.6,1.6,7,5.9,11.2,0.4
			c1.2-1.5,1.6-4,1.6-4s5.2-20.4-10.8-21.6c-16-1.2-16.8,18.4-16,26.8c2.8-2.4,6-5.6,6-5.6c-1.2,7.6-8.4,16.8-13.6,19.2
			C252,268.7,251.6,283.9,252.4,307.5z"/>
		<linearGradient id="SVGID_17_" gradientUnits="userSpaceOnUse" x1="294.5146" y1="302.7676" x2="369.3968" y2="302.7676">
			<stop  offset="0" style="stop-color:#E2001A"/>
			<stop  offset="0.4712" style="stop-color:#A60B16"/>
			<stop  offset="0.7022" style="stop-color:#8B0E13"/>
		</linearGradient>
		<path class="st22" d="M294.5,253.5l1.6-15.7l4.3-12.9l4.5-11.7c5.6,0.3,22.7-3.2,34.7,1.6c0,0,12.8,4,18.9,12.8
			c0,0,7.5,10.9,6.1,18.7c-1.3,7.7-2.4,12.8-11.7,20.5c-9.3,7.7-6.4,21.1-4.5,25.1c-0.3-5.9,2.9-27.5,7.7-17.9c0,0,4.3,5.9,5.9,20.3
			c1.6,14.4,2.4,41.9,2.9,49.3c0.5,7.5,6.1,28.3,4,35.2c-2.1,6.9-15.5,22.7-29.3,8.8c-13.9-13.9-20.8-39.2-24.3-51.7
			c-3.5-12.5-15.7-45.3-17.3-54.7c-1.6-9.3-2.1-16.5-1.1-20.8c1.1-4.3,2.4-8.5,2.1-10.1c-1.9,2.7-4.3,4-4.3,4L294.5,253.5z"/>
		<linearGradient id="SVGID_18_" gradientUnits="userSpaceOnUse" x1="257.0474" y1="237.6822" x2="257.0474" y2="169.848">
			<stop  offset="5.617980e-03" style="stop-color:#E2001A"/>
			<stop  offset="0.1567" style="stop-color:#DA001A"/>
			<stop  offset="0.4293" style="stop-color:#C50219"/>
			<stop  offset="0.7898" style="stop-color:#A20C16"/>
			<stop  offset="1" style="stop-color:#8B0E13"/>
		</linearGradient>
		<path class="st23" d="M254,230.7c0,0-5.1-11.6-6.5-23.6c-2.8-22.6-3.5-34.8-3.5-34.8c4.5-1.5,9.1-4,20-1.3
			c1.1,8.5,2.7,27.1,6.1,30.8c-0.7,1.8-4,10-5.5,21.7c-2.3,2.4-3.8,4.7-4.8,7.6c-1.6,4.7-1.9,6.5-1.9,6.5L254,230.7z"/>
		<path class="st9" d="M299.4,228.1c0,0,20.6,18.6,25,31.6c4.4,13,1.6,32.4,2.4,36.8c-4-8.2-3.6-25-5.4-30.2c-1.8-5.2-3.8-10-5-10.8
			c-1.2-0.8-1.6-1.4-6-2.8c-4.4-1.4-6.2-3.6-6.8-4.8c4.2,1.4,13.6,3.6,5-4.4c-8.6-8-11.2-9.4-11.2-9.4L299.4,228.1z"/>
	</g>
</g>
<g id="Pile">
	<line class="st24" x1="407.5" y1="231.1" x2="392" y2="233.7"/>
	<line class="st25" x1="337.5" y1="232.7" x2="337.7" y2="248.4"/>
	<line class="st24" x1="404.1" y1="209.5" x2="388.5" y2="212.1"/>
	<line class="st26" x1="138.4" y1="213" x2="154.2" y2="213.3"/>
	<line class="st25" x1="256.3" y1="193.3" x2="254.4" y2="177.6"/>
	<line class="st25" x1="265.9" y1="59.3" x2="275.5" y2="39.2"/>
	<line class="st25" x1="292.9" y1="65.9" x2="295.4" y2="41.2"/>
	<line class="st25" x1="325.9" y1="67.2" x2="332.2" y2="52.8"/>
	<line class="st25" x1="211.2" y1="57.7" x2="195.6" y2="55.7"/>
	<line class="st24" x1="133.3" y1="231.2" x2="149.1" y2="231.5"/>
	<line class="st27" x1="399.4" y1="437.4" x2="400.7" y2="453.1"/>
	<line class="st28" x1="392.3" y1="162.1" x2="408" y2="162.4"/>
	<line class="st29" x1="166" y1="146.7" x2="150.9" y2="142.1"/>
	<line class="st30" x1="193.1" y1="445" x2="194" y2="429.3"/>
	<line class="st31" x1="202.6" y1="241.7" x2="204.9" y2="257.3"/>
	<line class="st30" x1="208.4" y1="97" x2="209.8" y2="112.6"/>
	<path class="st29" d="M214.3,281.5c0,0,24.2,6.3,29.6,28.8c5.1,21.1,13.6,33.9,21.6,28c0,0,7.5-0.8,4.3-45.3"/>
	<path class="st27" d="M337.5,266.9c0,0,0,45.3,0.5,51.7c0.5,6.4,0.5,13.1-2.7,14.9c-3.2,1.9-8,1.1-13.6-8.5
		c-7.2-12.3-10.1-37.6-12-45.3"/>
	<g>
		<path class="st32" d="M217.8,107.1c-2.2,2.2-3.8,4.1-4.9,5.6c-1.1,1.6-1.9,3-2.4,4.4l-1.1,0.1c-0.8-1.5-1.8-3-3.1-4.4
			c-1.2-1.4-3-3.1-5.4-5l-0.1-1.8c3.2,1.3,5.7,2.7,7.4,4.3l0-0.1l2.4-0.1l0,0.1c1.4-1.3,2.5-2.1,3.2-2.6c0.7-0.5,2-1.3,3.8-2.3
			L217.8,107.1z"/>
	</g>
	<g>
		<path class="st33" d="M404.4,154c2.2,2.2,4.1,3.8,5.6,4.9c1.6,1.1,3,1.9,4.4,2.4l0.1,1.1c-1.5,0.8-3,1.8-4.4,3.1
			c-1.4,1.2-3,3-4.9,5.4l-1.8,0.1c1.3-3.2,2.7-5.7,4.3-7.5l-0.1,0l-0.1-2.4l0.1,0c-1.3-1.4-2.1-2.5-2.6-3.2c-0.5-0.7-1.3-2-2.3-3.8
			L404.4,154z"/>
	</g>
	<g>
		<path class="st34" d="M395,219.1c-2.5-1.7-4.7-3-6.4-3.8c-1.7-0.8-3.3-1.3-4.8-1.6l-0.2-1c1.3-1.1,2.6-2.3,3.7-3.8
			c1.1-1.5,2.4-3.5,3.9-6.2l1.8-0.4c-0.7,3.4-1.7,6.1-2.8,8.1l0.1,0l0.5,2.3l-0.1,0c1.5,1.2,2.6,2.1,3.2,2.7
			c0.6,0.6,1.6,1.7,2.9,3.3L395,219.1z"/>
	</g>
	<g>
		<path class="st34" d="M346.2,244.7c-2.3,2-4.1,3.8-5.3,5.3c-1.2,1.5-2.1,2.9-2.7,4.2l-1.1,0c-0.7-1.6-1.6-3.1-2.7-4.6
			c-1.1-1.5-2.8-3.3-5-5.3l0-1.8c3.1,1.5,5.5,3.1,7.1,4.8l0-0.1l2.4,0.1l0,0.1c1.5-1.2,2.7-2,3.4-2.4c0.8-0.5,2.1-1.1,3.9-2
			L346.2,244.7z"/>
	</g>
	<g>
		<path class="st34" d="M246.3,182.6c2-2.3,3.5-4.3,4.5-6c1-1.6,1.7-3.2,2.1-4.6l1.1-0.1c0.9,1.4,2,2.8,3.4,4.1
			c1.3,1.3,3.2,2.8,5.7,4.6l0.2,1.8c-3.3-1.1-5.9-2.3-7.7-3.7l0,0.1l-2.4,0.3l0-0.1c-1.4,1.4-2.4,2.3-3,2.9
			c-0.7,0.6-1.9,1.4-3.6,2.5L246.3,182.6z"/>
	</g>
	<g>
		<path class="st34" d="M286.9,43.5c2.6-1.7,4.5-3.2,5.9-4.6c1.4-1.3,2.5-2.6,3.3-3.8l1.1,0.2c0.5,1.6,1.2,3.3,2.1,4.9
			c0.9,1.6,2.4,3.6,4.3,5.9l-0.3,1.8c-2.9-1.9-5-3.8-6.5-5.7l0,0.1l-2.3-0.4l0-0.1c-1.7,0.9-2.9,1.6-3.7,1.9
			c-0.8,0.4-2.2,0.8-4.1,1.5L286.9,43.5z"/>
	</g>
	<g>
		<path class="st34" d="M323.6,51.9c2.9-0.9,5.3-1.8,7-2.7c1.7-0.9,3.1-1.8,4.2-2.8l1,0.5c0,1.7,0.2,3.5,0.7,5.3
			c0.4,1.8,1.2,4.1,2.4,6.9l-0.8,1.6c-2.2-2.7-3.7-5.1-4.6-7.3l-0.1,0.1l-2.1-1l0.1-0.1c-1.9,0.4-3.2,0.7-4.1,0.8
			c-0.9,0.1-2.3,0.2-4.4,0.2L323.6,51.9z"/>
	</g>
	<g>
		<path class="st34" d="M266.6,38.7c2.9-0.9,5.3-1.8,7-2.7c1.7-0.9,3.1-1.8,4.2-2.8l1,0.5c0,1.7,0.2,3.5,0.7,5.3
			c0.4,1.8,1.2,4.1,2.4,6.9l-0.8,1.6c-2.2-2.7-3.7-5.1-4.6-7.3l-0.1,0.1l-2.1-1l0.1-0.1c-1.9,0.4-3.2,0.7-4.1,0.8
			c-0.9,0.1-2.3,0.2-4.4,0.2L266.6,38.7z"/>
	</g>
	<g>
		<path class="st34" d="M197.1,64.7c-1.4-2.7-2.7-4.9-3.9-6.4c-1.2-1.5-2.3-2.8-3.5-3.7l0.3-1c1.7-0.3,3.4-0.8,5.1-1.6
			c1.7-0.7,3.8-1.9,6.4-3.6l1.7,0.5c-2.2,2.7-4.3,4.6-6.3,5.8l0.1,0l-0.6,2.3l-0.1,0c0.8,1.8,1.3,3.1,1.5,3.9c0.3,0.8,0.6,2.3,1,4.3
			L197.1,64.7z"/>
	</g>
	<g>
		<path class="st34" d="M150.6,205.1c2.1,2.2,4,3.9,5.5,5c1.5,1.1,3,2,4.4,2.5l0,1.1c-1.5,0.8-3,1.8-4.4,3c-1.4,1.2-3.1,2.9-5.1,5.2
			l-1.8,0c1.4-3.2,2.9-5.6,4.4-7.4l-0.1,0l-0.1-2.4l0.1,0c-1.2-1.5-2.1-2.6-2.6-3.3c-0.5-0.7-1.2-2-2.2-3.8L150.6,205.1z"/>
	</g>
	<g>
		<path class="st34" d="M146,223.2c2.1,2.2,4,3.9,5.5,5c1.5,1.1,3,2,4.4,2.5l0,1.1c-1.5,0.8-3,1.8-4.4,3c-1.4,1.2-3.1,3-5.1,5.3
			l-1.8,0c1.4-3.2,2.9-5.6,4.4-7.4l-0.1,0l-0.1-2.4l0.1,0c-1.2-1.5-2.1-2.6-2.6-3.3c-0.5-0.7-1.2-2-2.2-3.8L146,223.2z"/>
	</g>
	<g>
		<path class="st34" d="M301.7,283.7c2-2.3,3.5-4.3,4.5-6c1-1.6,1.7-3.2,2.1-4.6l1.1-0.1c0.9,1.4,2,2.8,3.4,4.1
			c1.3,1.3,3.2,2.8,5.7,4.6l0.2,1.8c-3.3-1.1-5.9-2.3-7.7-3.7l0,0.1l-2.3,0.3l0-0.1c-1.4,1.4-2.4,2.3-3,2.9
			c-0.7,0.6-1.9,1.4-3.6,2.5L301.7,283.7z"/>
	</g>
	<g>
		<path class="st34" d="M409.3,447.7c-2,2.3-3.5,4.3-4.5,6c-1,1.6-1.7,3.2-2.1,4.6l-1.1,0.1c-0.9-1.5-2-2.8-3.4-4.1
			c-1.3-1.3-3.2-2.8-5.7-4.6l-0.2-1.8c3.3,1.1,5.9,2.3,7.7,3.7l0-0.1l2.4-0.3l0,0.1c1.3-1.4,2.4-2.3,3-2.9c0.7-0.6,1.9-1.4,3.6-2.5
			L409.3,447.7z"/>
	</g>
	<g>
		<path class="st34" d="M398.2,240.5c-2.5-1.7-4.7-3-6.4-3.8c-1.7-0.8-3.3-1.3-4.8-1.6l-0.2-1c1.3-1.1,2.6-2.3,3.7-3.8
			c1.1-1.5,2.4-3.5,3.9-6.2l1.8-0.4c-0.7,3.4-1.7,6.1-2.8,8.1l0.1,0l0.5,2.3l-0.1,0c1.5,1.2,2.6,2.1,3.2,2.7
			c0.6,0.6,1.6,1.7,2.9,3.3L398.2,240.5z"/>
	</g>
	<g>
		<path class="st32" d="M149.8,150.6c-0.9-2.9-1.8-5.3-2.6-7c-0.9-1.7-1.8-3.1-2.7-4.2l0.5-1c1.7,0,3.5-0.2,5.3-0.6
			c1.8-0.4,4.1-1.2,6.9-2.4l1.6,0.8c-2.7,2.2-5.1,3.7-7.3,4.6l0.1,0.1l-1,2.1l-0.1-0.1c0.4,1.9,0.7,3.2,0.8,4.1
			c0.1,0.9,0.2,2.3,0.2,4.4L149.8,150.6z"/>
	</g>
	<g>
		<path class="st32" d="M212.2,251.4c-1.8,2.5-3.1,4.6-3.9,6.4c-0.8,1.7-1.4,3.3-1.7,4.8l-1.1,0.2c-1-1.4-2.3-2.6-3.7-3.8
			c-1.4-1.2-3.5-2.5-6.1-4l-0.4-1.8c3.4,0.8,6.1,1.8,8.1,3l0-0.1l2.3-0.5l0,0.1c1.2-1.5,2.1-2.5,2.8-3.1c0.6-0.6,1.7-1.6,3.3-2.9
			L212.2,251.4z"/>
	</g>
	<g>
		<path class="st32" d="M261.1,297c2.3-2.1,4-3.9,5.2-5.4c1.2-1.5,2.1-2.9,2.6-4.3h1.1c0.7,1.5,1.7,3,2.8,4.5
			c1.2,1.5,2.9,3.2,5.1,5.2v1.8c-3.1-1.5-5.6-3-7.2-4.6v0.1h-2.4v-0.1c-1.5,1.2-2.6,2-3.4,2.5c-0.7,0.5-2,1.2-3.9,2.1V297z"/>
	</g>
	<g>
		<path class="st32" d="M185.4,432.6c2.4-1.9,4.3-3.6,5.5-5c1.3-1.4,2.3-2.8,2.9-4.1l1.1,0.1c0.6,1.6,1.5,3.2,2.5,4.7
			c1.1,1.5,2.6,3.4,4.7,5.6l-0.1,1.8c-3-1.7-5.3-3.4-6.9-5.1l0,0.1l-2.4-0.2l0-0.1c-1.6,1.1-2.8,1.8-3.5,2.2c-0.8,0.4-2.1,1-4,1.8
			L185.4,432.6z"/>
	</g>
</g>
<g id="kasser">
	<rect x="416" y="151" class="st35" width="77" height="27.3"/>
	<rect x="64" y="121" class="st35" width="77" height="27.3"/>
	<rect x="114" y="73.7" class="st35" width="117" height="21.3"/>
	<rect x="136.7" y="451" class="st35" width="105" height="21.3"/>
</g>
<g id="Tekst">
	<text transform="matrix(1 0 0 1 94.5806 56.749)" class="st34 st36 st37">Arterie til højre arm</text>
	<text transform="matrix(1 0 0 1 249.2476 26.9487)" class="st34 st36 st37">Arterier til hovedet</text>
	<text transform="matrix(1 0 0 1 327.0479 42.416)" class="st34 st36 st37">Arterie til venstre arm</text>
	<text transform="matrix(1 0 0 1 342.1807 125.9497)" class="st36 st37">Aorta (største arterie)</text>
	<text transform="matrix(1 0 0 1 419.7803 162.1489)" class="yText"><tspan x="0" y="0" class="st36 st37">Lungearterie</tspan><tspan x="0" y="10.8" class="st36 st37">(venstre lunge)</tspan></text>
	<text transform="matrix(1 0 0 1 420.7803 216.3491)"><tspan x="0" y="0" class="st34 st36 st37">Lungevener </tspan><tspan x="0" y="10.8" class="st34 st36 st37">(venstre lunge)</tspan></text>
	<text transform="matrix(1 0 0 1 419.7803 310.5488)" class="st34 st38 st37">Venstre hjertekammer</text>
	<text transform="matrix(1 0 0 1 398.5811 258.3496)" class="st34 st38 st37">Venstre forkammer</text>
	<text transform="matrix(1 0 0 1 118.2471 88.2807)" class="st36 st37 yText">Vene fra hoved og arme</text>
	<text transform="matrix(1 0 0 1 73.5806 131.3491)" class="yText"><tspan x="0" y="0" class="st36 st37">Lungearterie</tspan><tspan x="0" y="10.8" class="st36 st37">(højre lunge)</tspan></text>
	<text transform="matrix(1 0 0 1 57.5806 218.3491)"><tspan x="0" y="0" class="st34 st36 st37">Lungevener</tspan><tspan x="0" y="10.8" class="st34 st36 st37">(højre lunge)</tspan></text>
	<text transform="matrix(1 0 0 1 45.5806 257.9492)" class="st38 st37 yText">Højre forkammer</text>
	<text transform="matrix(1 0 0 1 141.7808 463.3486)" class="st36 st37 yText">Vene fra krop og ben</text>
	<text transform="matrix(1 0 0 1 226.9805 430.1494)" class="st38 st37 yText">Højre hjertekammer</text>
	<text transform="matrix(1 0 0 1 357.7803 469.3486)" class="st34 st36 st37">Arterie til krop og ben</text>
</g>
<g id="Streger_til_tekst">
	<line class="st39" x1="417" y1="310.7" x2="345.8" y2="310.7"/>
	<line class="st40" x1="274.6" y1="418.7" x2="274.6" y2="380.7"/>
	<line class="st40" x1="138.6" y1="254.7" x2="179.4" y2="254.7"/>
	<line class="st40" x1="339.8" y1="123.1" x2="328.2" y2="123.1"/>
	<line class="st39" x1="394.2" y1="255.1" x2="342.2" y2="255.1"/>
</g>
</svg>
