<?xml version="1.0" encoding="utf-8"?>
<!-- Generator: Adobe Illustrator 19.1.0, SVG Export Plug-In . SVG Version: 6.00 Build 0)  -->
<svg version="1.1" xmlns="http://www.w3.org/2000/svg" xmlns:xlink="http://www.w3.org/1999/xlink" x="0px" y="0px"
	 viewBox="0 0 566.9 487.6" style="enable-background:new 0 0 566.9 487.6;" xml:space="preserve">
<style type="text/css">
	.st0{fill:url(#SVGID_1_);}
	.st1{fill:#5EC5ED;}
	.st2{fill:#0066B0;}
	.st3{fill:#43B39D;}
	.st4{fill:#79579C;}
	.st5{fill:#132579;stroke:#FFFFFF;stroke-width:0.5;}
	.st6{fill:url(#SVGID_2_);stroke:#FFFFFF;stroke-width:0.5;}
	.st7{fill:none;stroke:#FFFFFF;stroke-width:0.5;}
	.st8{fill:none;stroke:#FFFFFF;}
	.st9{fill:none;stroke:#000000;stroke-width:2;}
	.st10{fill:#FFFFFF;}
	.st11{font-family:'Verdana';}
	.st12{font-size:9px;}
</style>
<g id="Lag_5_kopi">
	<linearGradient id="SVGID_1_" gradientUnits="userSpaceOnUse" x1="6.403936e-06" y1="114.094" x2="566.9287" y2="114.094">
		<stop  offset="0" style="stop-color:#14267A"/>
		<stop  offset="7.266245e-02" style="stop-color:#10287B"/>
		<stop  offset="0.1561" style="stop-color:#013080"/>
		<stop  offset="0.2448" style="stop-color:#003B87"/>
		<stop  offset="0.3374" style="stop-color:#004A93"/>
		<stop  offset="0.4329" style="stop-color:#005FA4"/>
		<stop  offset="0.5308" style="stop-color:#0076BA"/>
		<stop  offset="0.6288" style="stop-color:#008ED0"/>
		<stop  offset="0.6742" style="stop-color:#0099DA"/>
		<stop  offset="0.7202" style="stop-color:#009CDB"/>
		<stop  offset="0.7857" style="stop-color:#00A3DE"/>
		<stop  offset="0.8628" style="stop-color:#00B0E3"/>
		<stop  offset="0.9481" style="stop-color:#57C2EB"/>
		<stop  offset="1" style="stop-color:#84D0F0"/>
	</linearGradient>
	<rect x="0" class="st0" width="566.9" height="228.2"/>
</g>
<g id="Lag_3">
	<rect x="66" y="35" class="st1" width="215" height="84"/>
	<rect x="66" y="118.3" class="st2" width="215" height="10.3"/>
	<rect x="66" y="128.7" class="st3" width="215" height="36.7"/>
	<rect x="66" y="165.3" class="st4" width="215" height="31"/>
	<rect x="407.7" y="35.2" class="st5" width="100" height="161.2"/>
	<linearGradient id="SVGID_2_" gradientUnits="userSpaceOnUse" x1="345.5869" y1="165.5" x2="345.5869" y2="34.7368">
		<stop  offset="0.1854" style="stop-color:#43B39D"/>
		<stop  offset="0.2296" style="stop-color:#009BAA"/>
		<stop  offset="0.3146" style="stop-color:#0066B0"/>
		<stop  offset="0.3392" style="stop-color:#0079BD"/>
		<stop  offset="0.3835" style="stop-color:#0098D1"/>
		<stop  offset="0.4229" style="stop-color:#3FB0E0"/>
		<stop  offset="0.4556" style="stop-color:#56BFEA"/>
		<stop  offset="0.4775" style="stop-color:#5EC5ED"/>
	</linearGradient>
	<rect x="295.7" y="34.7" class="st6" width="99.7" height="130.8"/>
</g>
<g id="Lag_1">
	<rect x="65.8" y="34.7" class="st7" width="215.1" height="161.8"/>
	<line class="st8" x1="65.8" y1="169.6" x2="280.9" y2="169.6"/>
	<line class="st8" x1="65.8" y1="142.6" x2="280.9" y2="142.6"/>
	<line class="st8" x1="65.8" y1="115.7" x2="280.9" y2="115.7"/>
	<line class="st8" x1="65.8" y1="88.7" x2="280.9" y2="88.7"/>
	<line class="st8" x1="65.8" y1="61.7" x2="280.9" y2="61.7"/>
	<rect x="408.2" y="34.7" class="st7" width="99.7" height="161.8"/>
	<line class="st8" x1="173" y1="34.9" x2="173" y2="196.5"/>
</g>
<g id="Lag_4">
	<path class="st9" d="M66.7,128.3c0,0,5.3-10.7,10-10.7c4.7,0,5.7,10.5,12,10.7c18,0.3,9-92.7,16.7-92.7s-0.7,129.3,15,129.2
		c10.3-0.1,10-46.9,19.3-46.9c7.3,0,3,10.7,11,10.7s4-11,12.3-10.7c6,0.2,10,5.9,10,5.9"/>
</g>
<g id="txt">
	<text transform="matrix(1 0 0 1 38 37.3682)" class="st10 st11 st12">6000</text>
	<text transform="matrix(1 0 0 1 178.7939 59.1465)" class="yText"><tspan x="0" y="0" class="st10 st11 st12">Inspiratorisk</tspan><tspan x="0" y="10.8" class="st10 st11 st12">reservevolumen</tspan><tspan x="0" y="21.6" class="st10 st11 st12">3100 mL</tspan></text>
	<text transform="matrix(1 0 0 1 315.4604 81.48)" class="yText"><tspan x="0" y="0" class="st10 st11 st12">Vitalkapacitet </tspan><tspan x="0" y="10.8" class="st10 st11 st12">4800 mL</tspan></text>
	<text transform="matrix(1 0 0 1 38 16.9565)" class="st10 st11 st12">Milliliter (ml)</text>
	<text transform="matrix(1 0 0 1 428.1274 104.48)" class="yText"><tspan x="0" y="0" class="st10 st11 st12">Total</tspan><tspan x="0" y="10.8" class="st10 st11 st12">lungevolumen</tspan><tspan x="0" y="21.6" class="st10 st11 st12">6000 mL</tspan></text>
	<text transform="matrix(1 0 0 1 178.7939 138.813)" class="yText"><tspan x="0" y="0" class="st10 st11 st12">Expiratorisk</tspan><tspan x="0" y="10.8" class="st10 st11 st12">reservevolumen</tspan><tspan x="0" y="21.6" class="st10 st11 st12">1200 mL</tspan></text>
	<text transform="matrix(1 0 0 1 178.7939 126.48)" class="st10 st11 st12 yText">Åndingsdybde 500 mL</text>
	<text transform="matrix(1 0 0 1 178.7939 181.48)" class="yText"><tspan x="0" y="0" class="st10 st11 st12">Residualvolumen</tspan><tspan x="0" y="10.8" class="st10 st11 st12">1200 mL</tspan></text>
	<text transform="matrix(1 0 0 1 38 65)" class="st10 st11 st12">5000</text>
	<text transform="matrix(1 0 0 1 38 91.6318)" class="st10 st11 st12">4000</text>
	<text transform="matrix(1 0 0 1 38 118.2637)" class="st10 st11 st12">3000</text>
	<text transform="matrix(1 0 0 1 38 144.8955)" class="st10 st11 st12">2000</text>
	<text transform="matrix(1 0 0 1 38 171.5273)" class="st10 st11 st12">1000</text>
	<text transform="matrix(1 0 0 1 38 198.1592)" class="st10 st11 st12">     0</text>
</g>
</svg>
