<?xml version="1.0" encoding="utf-8"?>
<!-- Generator: Adobe Illustrator 19.1.0, SVG Export Plug-In . SVG Version: 6.00 Build 0)  -->
<svg version="1.1" xmlns="http://www.w3.org/2000/svg" xmlns:xlink="http://www.w3.org/1999/xlink" x="0px" y="0px"
	 viewBox="0 0 566.9 487.6" style="enable-background:new 0 0 566.9 487.6;" xml:space="preserve">
<style type="text/css">
	.st0{fill:url(#SVGID_1_);}
	.st1{fill:url(#SVGID_2_);stroke:#1A171B;}
	.st2{fill:url(#SVGID_3_);stroke:#1A171B;}
	.st3{fill:url(#SVGID_4_);stroke:#1A171B;}
	.st4{fill:url(#SVGID_5_);stroke:#1A171B;}
	.st5{fill:url(#SVGID_6_);stroke:#1A171B;}
	.st6{fill:url(#SVGID_7_);stroke:#1A171B;}
	.st7{fill:#8B0E13;stroke:#000000;}
	.st8{fill:none;stroke:#000000;}
	.st9{fill:none;stroke:#FFFFFF;stroke-width:2;}
	.st10{fill:#FFFFFF;}
	.st11{fill:none;stroke:#FFFFFF;stroke-width:2;stroke-dasharray:2,2;}
	.st12{fill:#1A171B;}
	.st13{font-family:'Verdana';}
	.st14{font-size:9px;}
</style>
<g id="Lag_5">
	<linearGradient id="SVGID_1_" gradientUnits="userSpaceOnUse" x1="283.4644" y1="487.5586" x2="283.4644" y2="6.163863e-06">
		<stop  offset="0" style="stop-color:#D4EDFC"/>
		<stop  offset="0.3012" style="stop-color:#A7D8D1"/>
		<stop  offset="0.5161" style="stop-color:#8BCBB7"/>
		<stop  offset="0.6771" style="stop-color:#6597AD"/>
		<stop  offset="0.8175" style="stop-color:#4971A5"/>
		<stop  offset="0.9298" style="stop-color:#375AA1"/>
		<stop  offset="1" style="stop-color:#31519F"/>
	</linearGradient>
	<rect y="0" class="st0" width="566.9" height="487.6"/>
</g>
<g id="Lag_4">
	<linearGradient id="SVGID_2_" gradientUnits="userSpaceOnUse" x1="286.8936" y1="79.0361" x2="310.416" y2="79.0361">
		<stop  offset="0" style="stop-color:#C52523"/>
		<stop  offset="1" style="stop-color:#9A2A20"/>
	</linearGradient>
	<path class="st1" d="M288.5,57.9l4.5-1.4l8.6,1.1l8,7.1l0.9,10.3l-3.9,13.9l-4.1,8.7l-5.9,3.9l-5.7-0.2l-3.9-0.4
		c0,0,8.6-11.2,9.6-13.4s3.4-4.8,3.2-7.7c-0.2-3.6-4.3-15.7-4.3-15.7l-1.2-3.7c0,0-0.5-1.1-1.6-1.2
		C291.5,59.2,288.5,57.9,288.5,57.9z"/>
	<linearGradient id="SVGID_3_" gradientUnits="userSpaceOnUse" x1="216.6445" y1="59.9865" x2="255.1738" y2="59.9865">
		<stop  offset="0" style="stop-color:#C52523"/>
		<stop  offset="1" style="stop-color:#9A2A20"/>
	</linearGradient>
	<path class="st2" d="M219.4,53.1c0,0,2-6.6,4.3-8.7c2.3-2.1,5.9-5.5,7-6.2c1.1-0.7,5.3-3,8.9-2.9c3.6,0.2,7.5-0.2,10.9,5.2
		c3.4,5.3,4.8,7.1,4.8,9.8c0,2.7-1.2,7.8-3.2,13.2c-2,5.3-2.1,12.1-7.7,16c-5.5,3.9-9.1,4.8-12.1,5.2c-3,0.4-8.2-1.4-10.2-4.3
		c-2-2.9-6.4-11.6-5.2-18.4C218.1,55.2,219.4,53.1,219.4,53.1z"/>
	<linearGradient id="SVGID_4_" gradientUnits="userSpaceOnUse" x1="453.575" y1="154.3869" x2="498.2656" y2="154.3869">
		<stop  offset="0" style="stop-color:#C52523"/>
		<stop  offset="1" style="stop-color:#9A2A20"/>
	</linearGradient>
	<path class="st3" d="M472.6,128.9c0,0-2,0.1-4.1,1.6c-2.1,1.5-7.6,5.9-8.4,6.5c-0.8,0.7-3.2,3.2-4.5,9.1c-1.3,5.9-2.1,7.1-1.9,10.2
		c0.3,3.1,1.3,10,2.8,12.7c1.5,2.7,2.8,6,6.7,8c3.9,2,6.4,3.2,8.4,3.1c2-0.1,7.4-0.7,7.4-0.7l10.6-5.9l7.1-6.9l1.7-9.8l-1.3-15.4
		l-6.3-8.2l-7.9-3.3l-5.1-1.3h-3.6L472.6,128.9z"/>
	<linearGradient id="SVGID_5_" gradientUnits="userSpaceOnUse" x1="517.5107" y1="157.9908" x2="550.6563" y2="157.9908">
		<stop  offset="0" style="stop-color:#C52523"/>
		<stop  offset="1" style="stop-color:#9A2A20"/>
	</linearGradient>
	<path class="st4" d="M519.5,139.1l2.3,1.9l1.3,0.7c0,0,3.7,1.5,5.1,2c1.3,0.5,1.9,1.9,2.3,2.5c0.4,0.7,2.1,3.2,3.1,4.7
		c0.9,1.5,1.2,1.1,1.6,3.6c0.4,2.5-0.9,4.9-1.6,7.5c-0.7,2.5-1.7,7.2-2.1,9c-0.4,1.7-1.6,6.4-2.3,7.9c-0.7,1.5-3.1,3.5-3.1,3.5h3.3
		l4.7-1.6l5.1-1.9l4.5-3.3l3.9-6.1l2.7-6.3l0.4-9.2l-2.8-9.4l-4.5-5.2l-6.5-4.1l-7.6-1.3l-5.2,1.3l-6.4,3.3
		C517.5,138.4,519.6,138.7,519.5,139.1z"/>
	<linearGradient id="SVGID_6_" gradientUnits="userSpaceOnUse" x1="107.8794" y1="345.4298" x2="147.962" y2="345.4298">
		<stop  offset="0" style="stop-color:#C52523"/>
		<stop  offset="1" style="stop-color:#9A2A20"/>
	</linearGradient>
	<path class="st5" d="M111.8,326.1c0,0,3.4-3,3.9-3.4c0.5-0.4,2.9-2.2,5.5-2.3c2.6-0.1,12.4,3.5,14.6,5.4c2.3,1.9,8,7.6,9,9.6
		c1.1,2,3.5,6.3,3,10.5s-1.5,8.7-1.9,10.6s-0.7,5.5-1.9,7.2c-1.2,1.7-5.7,4.1-5.7,4.1l-3.9,2.6c0,0-3,0.6-5.5-0.1
		c-2.5-0.7-6-1.9-9-4.9c-3-3-5.5-5-7.4-8.7c-1.9-3.7-3.5-5.9-4.2-11.6c-0.7-5.7-0.5-8.5-0.1-11C108.7,331.3,110,327.9,111.8,326.1z"
		/>
	<linearGradient id="SVGID_7_" gradientUnits="userSpaceOnUse" x1="164.3418" y1="323.4556" x2="206.04" y2="323.4556">
		<stop  offset="0" style="stop-color:#C52523"/>
		<stop  offset="1" style="stop-color:#9A2A20"/>
	</linearGradient>
	<path class="st6" d="M164.3,312.4c0,0,1.7-4.2,2.3-5.3c0.6-1.1,1.9-1.9,1.9-1.9l7.7-4l5.2-0.9l9.2,4.8l8.9,7.2l5.2,8.7l1.3,12
		l-3.7,6.5l-4.3,3.9l-2.6,1.1l-2.4,1.2c0,0-3.3,1-4.3,1c-1,0-4.3-0.3-5.7-0.6c0.3-0.5,1.8-3.4,2.5-5.5c0.7-2.1,1.8-3.5,1.3-5.9
		c-0.5-2.4-1.2-6.5-2-8.5c-0.8-1.9-1.4-3.7-3.1-4.3c-1.7-0.6-2.6-0.4-2.9,0.1c-0.3,0.5-1.1,1.2-1.1,1.2l-4-5.9c0,0-0.3-0.3-0.9-0.5
		c-0.6-0.2-2.3-0.1-2.9,0.2c-0.6,0.3-1.6,0.4-2.3,2.3c-0.5-0.1-1.3-0.5-1.3-0.5s-0.6-2.7-0.9-3.5
		C165.3,314.3,164.3,312.4,164.3,312.4z"/>
</g>
<g id="Lag_3">
	<path class="st7" d="M288.3,57.9c0,0,10-3.2,14.8,1.1c4.8,4.3,5,5.2,5.3,8.2c0.4,3,0.9,7.3-1.6,14.3c-2.9,8-4.6,15.1-8.7,16.9
		c-4.1,1.8-8.2,1.8-10.5,2.1c-1.6,2-2.1,2.1-2.1,2.1s6.8,2.5,8.6,2.5c1.8,0,13-0.7,17.1-7.5s6.4-12.1,7-16.2
		c0.5-4.1-0.5-9.3-1.6-12.5c-1.1-3.2-2.1-5.5-4.8-7.7c-2.7-2.1-7.3-4.5-9.6-4.8C299.7,56.1,293.1,55.2,288.3,57.9z"/>
	<path class="st7" d="M240.7,35.1c0,0,6.8,0.2,8,0.7c1.2,0.5,8.2,5.2,10.2,7.1c2,2,1.6,2.3,2.1,4.3c0.5,2,2.7,9.4,2.7,10.3
		c0,0.9,0.7,3.7-1.4,8.9c-2.1,5.2-3.7,9.6-4.5,10.7c-0.7,1.1-3,4.1-4.6,5.3c-1.6,1.2-4.5,3.9-6.6,4.5c-2.1,0.5-5.3-0.4-6.6-0.5
		c-1.2-0.2-9.1-1.6-9.1-1.6s13.4-5.2,14.4-6.8c1.1-1.6,8.7-20,9.3-22.8c0.5-2.9,1.6-5.5-0.9-8.7c-2.5-3.2-6.6-8.9-7.5-9.3
		C245.4,36.9,240.7,35.1,240.7,35.1z"/>
	<path class="st7" d="M472.3,129.1c0,0,4.9-1.1,9.6,1.6c4.7,2.7,10.3,5.9,11.6,9.1c1.3,3.2,2.5,7.5,2,13.4
		c-0.5,5.9-0.9,12.6-3.5,14.7c-2.5,2.1-9.1,7.1-12.3,9c-3.2,1.9-7.1,3.9-10.4,2.9c5.9,1.7,11.1,2.5,14.7,1.3
		c3.6-1.2,11.5-5.7,12.3-6.4c0.8-0.7,5.6-5.1,6.7-10c1.1-4.9,2.1-12.4,0.3-17.4c-1.9-4.9-3.1-8.8-5.3-11.2c-2.3-2.4-4-4-5.5-4.8
		c-1.5-0.8-5-1.5-7.4-2C482.8,128.7,475.3,127.7,472.3,129.1z"/>
	<path class="st7" d="M517.5,138.5c0,0,4.4-3.1,6.1-3.7c1.7-0.7,4.8-1.6,6.3-1.6c1.5,0,11.6,1.2,13.1,2c1.5,0.8,6.4,3.6,8.6,7
		c2.1,3.3,4,8.6,4.1,12c0.1,3.5-0.1,10.6-1.7,13.6c-1.6,3.1-3.6,7.5-7.6,9.9c-4,2.4-6.4,4-9.2,4.5c-2.8,0.5-6.8,1.2-11.4,0.1
		c1.9-0.5,9.2-3.2,12.4-5.2c3.2-2,6.4-3.9,8-8s3.3-7.9,2.9-12c-0.4-4.1-0.8-9.8-2.8-12.2c-2-2.4-2.9-5.6-7-7.5c-4-1.9-8-3.2-11-3.1
		C525.5,134.5,518.6,137.6,517.5,138.5z"/>
	<path class="st7" d="M167,306.5c0,0,6.8-5.9,9-6.7c2.1-0.8,7.9-2.5,9.8-2.5s6.8,0.9,11.1,3.6c4.3,2.7,7.6,5.3,9.1,8.2
		c1.5,2.8,4.4,9.1,4.4,13.2c0,4.1,0.4,9.4-1.2,12c-1.6,2.7-4.5,7-7.4,8.4c-2.8,1.5-7.6,2.7-9.2,3.2c2.8-1.7,8.4-9.8,9.4-12.6
		c0.9-2.8,1.1-8.7,0.5-11c-0.5-2.3-4.1-7.2-5.1-8c-0.9-0.8-4.8-4.7-7.5-6.5c-2.7-1.9-6.4-6.1-9-6C178.3,302,169,304.2,167,306.5z"/>
	<path class="st7" d="M111.6,326.3c0,0,4.3-4.3,5.5-4.4c1.2-0.1,6.3-1.5,9,0.3c2.7,1.7,11.4,8.2,13.4,10.7c2,2.5,4.5,6,4.8,9.8
		c0.3,3.7,1.1,9.4,0,12.8c-1.1,3.5-2.5,7.2-4.9,10.2c-2.4,2.9-4.9,4.7-4.9,4.7s14.7-5.7,18.3-10.7c0.4-0.7,2.5-5.7,2.9-6.8
		c0.4-1.1,0.1-4.7,0-5.5c-0.1-0.8,0.3-3.1,0.4-4c-0.8-2.7-2.3-8.2-3.2-9.6c-0.9-1.5-3.7-5.7-5.3-7.2c-1.6-1.5-5.5-4.9-8.8-6.7
		c-3.3-1.7-5.6-2.8-6.5-2.8c-0.9,0-2.1-0.3-3.3,0.1C127.5,317.4,116.7,318.9,111.6,326.3z"/>
</g>
<g id="Lag_2">
	<g>
		<path class="st8" d="M168.5,144.3c0,0,1.3,4.7-8.7-29.6c-10.1-34.3-4.4-48.4-1.3-56.5c3-8.1,14.5-16.1,21.9-21.9
			c7.4-5.7,20.8-20.8,20.8-20.8S204,13,205,9"/>
		<path class="st8" d="M174.2,51.8c0,0-10.4,4-13.4,13.8c-3,9.8-7.1,23.5-1.3,43c5.7,19.5,5.7,18.8,7.7,26.6
			c2,7.7,0.7,23.9,2.7,33.6c2,9.8,5,18.2,9.1,29.6c4,11.4,7.4,15.5,9.8,19.8c2.4,4.4,4.4,11.8,9.4,14.1c5,2.4,10.8,5.4,18.8,2.4
			c8.1-3,8.1-10.1,12.1-14.8c4-4.7,10.1-12.8,13.8-19.5c3.7-6.7,11.1-27.2,19.2-46.4c8.1-19.2,7.7-21.2,10.1-25.6
			c2.4-4.4,4.4-8.1,5.4-12.4c1-4.4,4.4-8.7,7.7-12.8c3.4-4,7.4-9.1,10.1-13.4c0,0,1.5-2.7,3.1-5.2c1.2-1.9,2-3.7,1.2-7.1
			c-0.7-3.4-2.5-8.4-3.4-11c-0.9-2.7-1.4-6.8-2.9-7.1c-1.4-0.4-3.7-0.9-4.5-1.1c-0.7-0.2-1.2-2.5-2.1-3.4c-0.9-0.9-2.1-2.3-3.2-2.3
			c-1.1,0-2.1-0.4-2.9,0.4c-1.6-1.8-2.7-3-3.7-3.4c-1.1-0.4-2.3-0.9-4.1,0.2c-0.7-1.4-3-3-4.6-2.7c-1.6,0.4-4.1-0.5-5-0.5
			c-0.9,0-2.3-0.4-2.3-0.4s2,7,2.7,10.3c0.7,3.4-0.2,7.8-2.1,12.5c-2,4.6-2.9,8.6-6.6,12.3c-3.7,3.7-6.6,5.7-9.8,5.7
			c-3.2,0-4.6-0.4-4.6-0.4s3.4,6.8,4.8,9.6c1.4,2.9,2.5,6.2,1.8,10.5c-0.7,4.3-2.6,9.9-3.7,11.9c-1.2,2.1-2.7,5.7-4.3,8.2
			c-1.5,2.3-4.8,7.5-7,10.5c-0.9,1.3-1.3,2.9-5,8.4c-2.2,3.3-10.2,10.5-11.2,11.8c0.9-5.3,4.1-11,5-18.9c0.9-7.8-2.3-18.5-3.9-22.3
			c-1.6-3.7-0.7-10.9-0.7-10.9c0.1-5.6,2.1-24.4-0.9-31.5c-3-7.1-7.4-14.1-13.4-17.5"/>
		<path class="st8" d="M197.4,183.2c0,0,3.1-9.8,6.6-14.8c1.8-2.6,7.2-7.8,11.8-10.9"/>
		<path class="st8" d="M272.8,49.7c0,0,1.1,8.2,1.6,10.9c0,0-0.9,10.5-0.9,12.5c0,2,1.2,5-1.6,7.3c-2.9,2.3-2.3,2-2.3,2"/>
		<path class="st8" d="M280.7,52.9c0,0,2,11.2,2.5,14.4c0.5,3.2,0.5,5.5,1.6,7.8c1.1,2.3,1.2,4.3,0,6.4c-1.2,2.1-2.5,3.4-2.5,3.4"/>
		<path class="st8" d="M288.9,58.3c0,0,1.6,9.8,2,11.2c0.4,1.4,1.1,3.2,1.6,5c0.5,1.8,2,4.1,0.4,6.6c-1.6,2.5-2.3,3.7-2.3,3.7"/>
	</g>
	<g>
		<path class="st8" d="M403,12.4c0,0-2.7,7.1-8.7,13.1c-6.1,6.1-14.5,11.4-18.2,15.8c-3.7,4.4-11.8,11.4-14.8,21.5
			c-3,10.1-6.7,26.6-3.7,40c3,13.4,4.1,16.8,7.5,29.3"/>
		<path class="st8" d="M382.5,49.4c0,0-8.1,0.3-12.1,4.7c-4,4.4-11.1,13.1-10.8,30.3c0.3,17.1,1.7,24.9,3.4,32.6
			c1.7,7.7,2.4,12.1,2.4,21.9c0,9.8-1.3,15.1,0.7,24.9c2,9.8,3.4,12.8,4.7,22.5c1.3,9.8,0.7,18.2,5.4,27.6
			c4.7,9.4,7.7,15.5,12.4,18.5c4.7,3,9.1,5,17.5,1.7c8.4-3.4,17.8-5.7,24.5-7.7c6.7-2,17.1-10.4,26.2-15.1
			c9.1-4.7,13.8-9.1,18.8-11.8c0,0,3.4-2.1,4.7-3c1.2-0.9,3-2.3,4.6-2.5c1.6-0.2,5.2-1.8,7-2.9c1.8-1.1,3-2.9,4.5-3.4
			c1.4-0.5,5.7-1.2,7.1-1.2c1.4,0,5.9,1.1,8.2,0.2c2.3-0.9,2.9-2.1,2.9-2.1s1.2,0.9,3.6,0.5c2.3-0.4,4.1-1.6,4.8-2
			c2.3-0.2,4.1-1.2,5.3-2.7c1.2-1.4,2.7-6.8,3.4-11c1.1-6.1,3.3-11,3.6-14.3c0.2-2.5-1.2-3-2.9-5.9c-1.8-2.9-1.9-3.2-2.5-4.1
			c-0.8-1.1-3.6-2.3-5-2.9c-1.4-0.5-3.4-1.4-3.4-1.4s-2.5-2-3.4-2.1c-0.9-0.2-2.7,0-3.4-0.2c-1.2-0.3,0.2-0.2-0.5,0.5
			c0,0-1.2-2.3-2.5-2.3c-1.2,0-6.8,0.5-6.8,0.5s2-3.6,2-5.9c0-2.3-1.1-3.4-2.5-3.9c-1.4-0.5-1.6-0.5-2.5,0c-0.9,0.5-5.7,3.2-5.7,3.2
			l-3.4,0.5c0,0,3.7,3,5.2,4.6c1.4,1.6,3.2,5.3,4.5,8.4c1.2,3,2.1,7.7,2,11.4c-0.2,3.7-0.5,6.4-1.6,9.6c-1.1,3.2-3,6.4-6.1,9.1
			c-3,2.7-8.9,5.2-11,6.2c-2.1,1.1-9.4,1.4-13.4,0.4c-3.9-1.1-10.5-3.7-12.5-6.2c-2.3,1.1-12.1,4.3-15.5,5c-3.4,0.7-6.1,1.1-9.1,1.1
			c-3,0-7.5-0.2-11,0.5c-3.6,0.7-11.9,1.2-13.7,0.7c-0.4-4.1-0.7-4.3,0-8.7c0.7-4.5,6.9-18.5,7.7-28.2c0.7-9.6,0-18.5-0.9-23.7
			c-0.9-5.2-1.6-7.3-1.8-8.6c-0.2-1.2,3.2-14.6,3.7-21.9c0.5-7.3,0.4-12.7-1.6-18.5"/>
		<path class="st8" d="M409.9,181.8c0,0-6.8-2-9.4,0c-2.7,2-3.7,3.6-6.2,6.9c-2.5,3.4-2.3,3.9-4.8,5.9"/>
		<path class="st8" d="M492.6,183c0,0,1.4,3.9,7.3,3.9"/>
		<path class="st8" d="M500.3,139.7c0,0,3.2-0.7,4.6-2.5"/>
		<path class="st8" d="M497.1,134.9c0,0,1.8-1.1,4.1-2.7c2.3-1.6,2.3-1.6,2.3-1.6l-0.7-3.6"/>
		<path class="st8" d="M502.6,139c0,0,3.2-0.5,4.5,0c1.2,0.5,5.2,5.3,6.4,8.4c1.2,3,3.4,3.7,2.3,8.6c-1.1,4.8-2.5,8.4-4.5,12.3
			c-2,3.9-3.7,7.5-4.6,9.8c-0.9,2.3-0.7,7.1-3.2,8.4"/>
		<path class="st8" d="M514.2,139c0.2,0.5,6.1,5.9,7.7,8.2c1.6,2.3,3.7,3.4,2,9.4c-1.8,6.1-4.1,11.8-5.2,15c-1.1,3.2-1.6,3.9-2,6.2
			c-0.4,2.3,0.7,4.5-2.1,6.6"/>
		<path class="st8" d="M521.5,140.8c0,0,5,6.8,6.2,8.4c1.2,1.6,3.9,2.1,1.8,7.8c-2.1,5.7-2,8-3,12.8c-1.1,4.8,0,10.2-3.6,13.2"/>
	</g>
	<g>
		<path class="st8" d="M73.5,5.7c0,0-0.7,7.4-7.4,13.8C59.4,25.8,50,35.3,44.3,40.3c-5.7,5-13.8,11.4-16.8,28.9
			c-3,17.5-2.8,28.5,4.1,49.9"/>
		<path class="st8" d="M54.3,46.4c0,0-10.8,0.7-16.5,6.1C32.2,57.8,26.8,70.6,27.4,87c0.7,16.5,3,26.6,4.7,33.3
			c1.7,6.7,1.7,11.4,2,19.8c0.3,8.4,0.3,16.8,3.4,26.6c3,9.8,2,12.1,5.4,22.9c3.4,10.8,6.4,16.1,8.1,20.8c1.7,4.7,3,6.7,4,9.4
			c1,2.7-0.3,5,2.7,9.1c3,4,5,6.7,8.4,11.8c3.4,5,8.7,12.8,12.8,19.5c4,6.7,12.1,17.8,19.5,23.5c7.4,5.7,17.5,14.8,21.2,19.2
			c3.7,4.4,8.1,7.1,9.4,14.1c0,0,2.8-0.4,4.7,0.2c1.9,0.5,5.7,2.7,8.8,4.8c3.1,2.1,6.1,5.2,7.4,7c1.2,1.7,3.3,5.5,3.3,5.5l3.1,1.9
			c0,0-0.5,4.7,0,6.1l0,0c0,0-0.8,2.8-0.5,4.9c0.3,2.1,0.5,3.1-0.1,5.3c-0.7,2.3-2,4.9-2.9,6.8c2.3,0.4,5.6,0.7,6.8,0
			c1.2-0.7,2.4-1.2,3.1-2.8c1.3,0.3,7.4-1.6,9-3.3c0.8-0.1,6-0.7,7.9-5.5c1.7-0.1,4-2.3,4.7-3.7c0.7-1.5,2.5-5.7,2.8-7.2
			c0.3-1.5-0.4-5.5-1.1-8c-0.7-2.5-2-5.7-2.9-6.4c-0.9-0.7-2.9-2.1-5.1,0.7c-1.2-1.7-3.7-5.9-3.7-5.9s-0.5-0.9-2.3-0.8
			c-1.7,0.1-3.5,0.7-4,2.7c-0.7-0.3-1.3-0.5-1.3-0.5s-0.4-3.1-1.7-5.5c-1.3-2.4-3.2-6.1-5.6-8c-2.4-1.9-2.9-2.4-4.9-3.2
			c-1.6-1.9-8.6-8.6-14-15.5c-5.5-7-12.3-18.8-14.7-23.1c-2.4-4.3-6.3-14-8.8-18.8c-2.5-4.8-8.4-12.6-11.8-15.9
			c-3.3-3.3-7.4-6.1-9.4-9.1c-2-2.9-3.7-4.5-4.9-7.9c-1.2-3.3-4-8.4-5.2-11.1c-1.2-2.7-2.7-5.2-2.3-8.3c0.4-3.1,4.9-15.7,6.7-24.6
			c2.4-12.2,0-30.7-2.1-42.6c-2.1-11.9-3.7-13.6-3.7-16.3c0-2.7,0.8-4.9,1.7-9.1c0.9-4.1,4-18.8,2-27.7c-2-8.8-3.1-10-4.3-12.6"/>
		<path class="st8" d="M145.3,309.8c0,0,1.7,0.1,2.8,2.5c1.1,2.4,1.3,3.3,2.1,3.9c0.8,0.5,9.2,3.7,11.5,5.2c2.3,1.5,6.1,4,7.6,5.6
			c1.5,1.6,2.1,4,1.3,6.8c-0.5,1.9-2.3,3.9-4,4.8c-1.5,0.8-8.8-1.6-10.4-2.4"/>
		<path class="st8" d="M133.7,316.4c0,0,0.5-3.1,1.3-4.7"/>
		<path class="st8" d="M161.2,320.8c0,0,2.8-3.2,5.2-2.1c2.4,1.1,3.1,5.2,4,6c0.9,0.8,3.9,6.1,4.5,7.9c0.7,1.7,0.7,6.1,0,9.2
			s-2.1,7.9-3.5,11.6"/>
		<path class="st8" d="M166.7,338.7c0,0,1.9,2.7,0.4,6.8c-1.5,4.1-4.5,11.2-4.5,11.2"/>
		<path class="st8" d="M177.8,323.2c0,0,2.4,6.4,3.1,8.8c0.7,2.4,1.9,3.9,1.3,7c-0.5,3.1-2.8,9-2.8,9"/>
		<path class="st8" d="M166.8,336.4c0,0-6.5-3.5-7.1-4c-0.5-0.5,0.4-2.9,0.9-4.3c0.5-1.3,1.2-2.9,3.7-2.1c2.5,0.8,5.6,2.8,5.6,2.8
			S171.1,334.3,166.8,336.4z"/>
		<path class="st8" d="M169.9,319.4c0,0,0.7-2.8,3.5-2.4c1.3,1.9,3.2,4.9,3.2,4.9s0.3,2.5-1.5,2.5s-2.9,0-3.7-1.6
			C170.6,321.3,169.9,319.4,169.9,319.4z"/>
		<path class="st8" d="M164.7,323.3l-1.2-2.4c0,0,1.5-2.4,3.7-1.5c1.5,2.3,2.8,4.9,2.8,4.9s0.3,2-1.1,2"/>
		<path class="st8" d="M180.2,324.3c0,0,0.3-2,2.9-1.2c0.9,1.9,1.3,4.1,1.3,4.1s0.1,1.3-0.5,1.7c-0.7,0.4-1.6,0.4-2.3-0.1
			C181,328.3,180.2,324.3,180.2,324.3z"/>
		<line class="st8" x1="156.3" y1="342.4" x2="159.2" y2="345.5"/>
		<path class="st8" d="M154.1,301.9c0,0-2.9-0.9-5.5-0.8"/>
	</g>
</g>
<g id="pile">
	<path class="st9" d="M101.5,136.5c0,0,33,29.5,24.5,96"/>
	<path class="st9" d="M239,116.5c0,0-5-13-16.5-10"/>
	<polygon class="st10" points="227.2,111.9 218.3,103.7 229.8,100.1 	"/>
	<polygon class="st10" points="132.1,229 124.6,238.5 120.1,227.3 	"/>
	<g>
		<polygon class="st10" points="531.6,232 542.1,238.1 531.7,244.2 		"/>
		<polygon class="st10" points="446.1,244.2 435.6,238.2 446.1,232 		"/>
		<line class="st11" x1="443.5" y1="238.1" x2="534.5" y2="238.1"/>
	</g>
</g>
<g id="txt">
	<text transform="matrix(1 0 0 1 45.6538 386.4473)"><tspan x="0" y="0" class="st12 st13 st14">Tohovedede armbøjer </tspan><tspan x="0" y="10.8" class="st12 st13 st14">excentrisk muskelarbejde</tspan></text>
	<text transform="matrix(1 0 0 1 192.0122 251.1143)"><tspan x="0" y="0" class="st12 st13 st14">Tohovedede armbøjer</tspan><tspan x="0" y="10.8" class="st12 st13 st14">koncentrisk muskelarbejde</tspan></text>
	<text transform="matrix(1 0 0 1 431.0117 270.1143)"><tspan x="0" y="0" class="st12 st13 st14">Tohovedede armbøjer</tspan><tspan x="0" y="10.8" class="st12 st13 st14">isometrisk muskelarbejde</tspan></text>
</g>
</svg>
