<?xml version="1.0" encoding="utf-8"?>
<!-- Generator: Adobe Illustrator 19.1.0, SVG Export Plug-In . SVG Version: 6.00 Build 0)  -->
<svg version="1.1" xmlns="http://www.w3.org/2000/svg" xmlns:xlink="http://www.w3.org/1999/xlink" x="0px" y="0px"
	 viewBox="0 0 269.3 487.6" style="enable-background:new 0 0 269.3 487.6;" xml:space="preserve">
<style type="text/css">
	.st0{fill:url(#SVGID_1_);}
	.st1{fill:#B1B3B4;stroke:#000000;stroke-width:0.5;}
	.st2{fill:#D9DADB;stroke:#000000;stroke-width:0.5;}
	.st3{fill:none;stroke:#000000;stroke-width:0.5;}
	.st4{fill:#FFFFFF;stroke:#000000;stroke-width:0.5;}
	.st5{fill:url(#SVGID_2_);stroke:#000000;stroke-width:0.5;}
	.st6{fill:url(#SVGID_3_);stroke:#000000;stroke-width:0.5;}
	.st7{fill:url(#SVGID_4_);stroke:#000000;stroke-width:0.5;}
	.st8{fill:#E2001A;stroke:#000000;stroke-width:0.5;}
	.st9{fill:#F6AD6E;}
	.st10{fill:#D9DADB;}
	.st11{display:none;}
	.st12{display:inline;}
	.st13{fill:#E2001A;}
	.st14{fill:#FFFFFF;}
	.st15{font-family:'Verdana';}
	.st16{font-size:8.5232px;}
	.st17{font-family:'ArialMT';}
	.st18{font-size:9px;}
	.st19{fill:none;stroke:#000000;}
</style>
<g id="Lag_9">
	<linearGradient id="SVGID_1_" gradientUnits="userSpaceOnUse" x1="134.6455" y1="487.5576" x2="134.6455" y2="-8.938294e-04">
		<stop  offset="5.617980e-03" style="stop-color:#C6E0C2"/>
		<stop  offset="5.195803e-02" style="stop-color:#C5E1CC"/>
		<stop  offset="0.1967" style="stop-color:#C3E4E4"/>
		<stop  offset="0.3156" style="stop-color:#C2E5F2"/>
		<stop  offset="0.3933" style="stop-color:#C2E6F7"/>
		<stop  offset="0.5203" style="stop-color:#BEE3F5"/>
		<stop  offset="0.6094" style="stop-color:#B0DAEE"/>
		<stop  offset="0.6871" style="stop-color:#9ACBE2"/>
		<stop  offset="0.758" style="stop-color:#7BB6D0"/>
		<stop  offset="0.8246" style="stop-color:#539CB9"/>
		<stop  offset="0.8877" style="stop-color:#107D9D"/>
		<stop  offset="0.9471" style="stop-color:#005C7C"/>
		<stop  offset="1" style="stop-color:#003B58"/>
	</linearGradient>
	<rect y="0" class="st0" width="269.3" height="487.6"/>
</g>
<g id="rygmarv">
	<g>
		<path class="st1" d="M184.9,219.8c0,0-6.3,3.3-6.9,4.1c-0.6,0.8-3.3,3.9-4.8,4.6c-1.4,0.8-4.8,4.4-5.1,5.4c-0.4,1-4.6,24,3.2,31.7
			c7.8,7.7,27.5,24.4,31.6,16.3c4.1-8.1,6.3-19.1,11.2-13.9c4.9,5.3,3.2,18.1,11.8,15.4c8.6-2.7,23.6-6.3,27.5-17.5
			c3.9-11.2,6.3-25.6,5.1-27.9c-1.2-2.3-3.9-5.3-3.9-5.3s-4.1-2.4-4.6-3.2c-0.5-0.8-1.2-2.1-3.3-3.1c-2.2-1-7.5-4.8-8.9-4.8
			c-1.4,0-9.3,0.5-18.2-0.6C210.6,220.1,184.9,219.8,184.9,219.8z"/>
		<path class="st2" d="M204,240.1c-5.3-6.3-13.2-11.3-19.1-17.3c-2.8-2.9-9-5.3-4.2-7.7c0.7-0.4,10.9-3.9,12.1-4.1
			c3.1-0.5,1.9,1.6,3.6,4.1c-0.1-1.5-0.4-2.9-0.5-4.4c2.1-1.5,1-0.2,3.4-0.4c2.2-0.2,7.2-1.2,9.8-1c0.3,1.2,0.8,2.6,1,3.9
			c0.1-3.3-0.9-4.4,2.3-4.1c2,0.2,4.6,0.6,6.6,0.5c1.7,0,4.8-0.9,6.4,0.8c0.5,1-0.8,2.7-0.3,3.7c2.2-1.4,0.3-3.7,2.6-3.2
			c1.2,0.3,3.9,1.6,5.1,1.9c1.6,0.5,2.9,1,4.4,1.3c1.1,0.2,7.4,3,7.5,4.5c0.1,0.9-4.8,3.8-5.5,4.6c-6.2,6.3-15,11.9-22.9,17
			c-2.2,1.4-3.3,2.2-6.1,2.3c-1.5,0.1-3.4,0.5-5.8-2.1L204,240.1z"/>
		<path class="st2" d="M195.2,248.1c-1.1-2.8-5.7-5.2-8.2-6.7c-3.1-1.9-6.5-4.4-9.8-6.2c-3.4-1.8-6.3-4.7-9.8-6.6
			c-4.3-2.3-5.6,1.1-7.6,5.1c-1.6,3.2-3.9,6.6-4.4,10.2c-0.6,4,0.1,8.4,0.5,12.3c0.8,7.8,4.7,18.3,11.1,23.3
			c1.5,1.2,3.1,1.9,4.8,2.9c1.7,0.9,3,2.4,4.6,3.4c3.9,2.3,8.1,3,12.3,4.1c4,1,7.1,2.9,11.3,3.5c4.3,0.6,9.2,1.7,9.2-4
			c0-4-0.8-7.9-0.3-12c0.2-1.6-0.4-3.1,2.3-3c1.8,0,1.2,4.1,1.1,5.6c-0.1,2.6-1.3,10.6,0.5,12.7c0.9,1.1,4.1,0.7,5.7,0.8
			c2,0.1,3.5-0.8,5.5-1.3c7.4-1.9,15-3.7,21.2-8.6c6-4.8,12.1-8.8,16.3-15.6c4-6.4,7-16.2,4.8-23.7c-0.7-2.3-3.3-8-4.1-10.3
			c-2.8-7.3-7.1-1.2-9.5,0c-3.2,1.6-7.3,4.5-10.5,5.9c-1.8,0.8-3.6,2.7-5.3,3.7c-0.7,0.4-5.8,3.4-6.2,4.1c-1.3,2.7,5.9,5.5,7.7,6.6
			c2.7,1.5,6.2,3.3,8,5.9c2.8,4.1-0.7,4.4-4,7.2c-2.5,2.1-3.5,3.8-6.2,5.7c-3.6,2.4-8.7,7.8-12.5,0.3c-1.5-3.1-2.1-4.6-4.5-7.3
			c-2.4-2.7-3.5-6.1-7.2-5c-3.8,1.1-6.8,4.5-9.2,7.5c-1.9,2.4-4,7.5-6.7,8.6c-3.3,1.3-7.1-3.4-9.6-4.8c-5-2.9-9.8-8.4-9.8-10.9
			c0.3-3.3,5.5-4.6,9-5.7c3.1-0.9,10.5-3,9.2-7.6L195.2,248.1z"/>
	</g>
</g>
<g id="arm">
	<g>
		<path class="st3" d="M43.8,278.3c0,0,0.4,0.5,0.3,0.5c0.5,1.2-2.4-4.2-2.7-4.9c-0.6-1.6-1.1-3.4-1.3-5.1c-0.4-3.9,0.1-8,1.2-11.7
			c0.7-2.3,1.9-4.2,2.9-6.3c1.1-2.2,1.3-4.8,1.8-7.2c1.2-6.2,0.7-12.5,0.4-18.8c-0.3-6.6-0.4-13.2-0.4-19.8c0-5.9-0.6-11.5,0.9-17.2
			c2.4-9.2,7-17.5,7.4-27.2c0.5-10.7,0.7-21.3,1.8-31.8c0.9-8.8,2.5-16.6,0.4-25.4c-2.1-8.7-4.1-16.7-2.9-26"/>
		<path class="st3" d="M89.3,112.6c0-0.3,0-0.6,0-0.8c0.9,8.6,1,16-1.7,24.4c-2.7,8.2-5,16.3-5.9,24.9c-2,19.2-5.5,38.9-10.5,57.7
			c-1.4,5.4-2.8,10.8-4.5,16.2c-1.4,4.4-3.8,8.7-4.7,13.3c-1.9,9.1-1.7,18.9-1.2,28.2c0.4,9.2-1.8,17.2-2.7,26.2
			c-0.6,6.1-4.3,14.2-9.5,18.1c-3.3,2.5-4.8-1-4.4-3.8c0.4-2.8,1-5.5,2.5-7.9c2-3.2,1.4-4.5,1.3-8.1c0-3,1-2.6,1.3-5.4"/>
		<path class="st3" d="M55.6,267.6c-0.1-0.1-1,3.6-1.1,4.7c-0.2,2-0.4,3.9-0.4,5.9c0,3.7-0.4,7.4-1.1,10.9c-0.5,2.6-3.1,7.9-6.8,5.9
			c-2.4-1.3-1.6-8.3-1.6-10.8c0-6.4-1-11.7-2.9-17.7c0,0.2,0,0.4,0,0.6"/>
		<path class="st3" d="M46.5,295.6c-1.3,2.9-0.5,5.4-0.7,8.2c-0.2,3.4-0.7,6.7-1.1,10c0-0.2,0-0.4,0-0.6"/>
		<path class="st4" d="M61.5,212.8c0.8-5.3,1.7-15.8,3.6-21.3c1-2.8,2.2-5.3,3.6-7.8c1-1.8,2.9-4.6,1.1-6.7
			c-1.7,0.4-5.1,0.9-6.5-0.4c-2.3,1.1-1.8,5.4-1.8,7.5c0,3.1-0.3,5.7-0.9,8.6c-0.6,3.2-1.2,6.6-1.8,9.8c-0.6,2.9-1,8.4-1.2,11.3"/>
		<path class="st4" d="M64.4,212.5c1-3.4,2.8-13.1,3.6-16.9c0.7-3.3,0.8-6.9,0.7-10.3c-0.2-3.3,1.3-21.3,7.7-17.8
			c2.6,1.4,1.5,6.4,1,8.8c-0.7,3.5-8.1,34.1-9.1,37.5"/>
		<path class="st4" d="M69.8,148c-0.1-0.1-0.3-0.6-0.2-0.3c0.4,3.9-0.4,9.1-1.4,12.8c-0.9,3.6-2,6.5-3.8,9.7
			c-1.8,3.2-2.9,7.1,2.2,7.1c4.1,0,5.5-2.2,6.3-6.1c1-4.8,0.4-9.1,0.1-13.9c-0.2-2.6,0.7-13.3-0.5-13.8"/>
		
			<linearGradient id="SVGID_2_" gradientUnits="userSpaceOnUse" x1="44.3161" y1="190.8887" x2="44.3161" y2="84.5122" gradientTransform="matrix(-1 0 0 1 108.1533 0)">
			<stop  offset="0.1348" style="stop-color:#FAF8E9"/>
			<stop  offset="0.1397" style="stop-color:#FAF4E4"/>
			<stop  offset="0.2421" style="stop-color:#E6AB89"/>
			<stop  offset="0.3323" style="stop-color:#D56E4A"/>
			<stop  offset="0.4069" style="stop-color:#C9412A"/>
			<stop  offset="0.463" style="stop-color:#C31E1C"/>
			<stop  offset="0.4944" style="stop-color:#C00418"/>
			<stop  offset="0.7697" style="stop-color:#FAF8E9"/>
		</linearGradient>
		<path class="st5" d="M67.6,85.1c-1,5.5-1.2,13.9-0.9,18.5c0.2,4.3,0.8,8.3,1.2,12.6c0.6,5.9,0.9,12.3,1.7,18.2
			c0.7,5.3,0.8,11,0.3,16.3c-0.4,3.9-1.4,8.4-2.3,12.1c-0.8,3.1-1.9,5.5-3.1,8.5c-1.1,2.8-1.8,6-2.6,9c-1,3.4-0.3,6.6-0.9,10.6
			l-0.3-0.5c-2.3-15.7-3.9-38.2-2.1-54c1.1-9.4,2.3-18.7,3.6-28c1.1-8,3.5-16,4.7-23.8"/>
		
			<linearGradient id="SVGID_3_" gradientUnits="userSpaceOnUse" x1="29.452" y1="169.0562" x2="29.452" y2="83.458" gradientTransform="matrix(-1 0 0 1 108.1533 0)">
			<stop  offset="0.1348" style="stop-color:#FAF8E9"/>
			<stop  offset="0.1397" style="stop-color:#FAF4E4"/>
			<stop  offset="0.2421" style="stop-color:#E6AB89"/>
			<stop  offset="0.3323" style="stop-color:#D56E4A"/>
			<stop  offset="0.4069" style="stop-color:#C9412A"/>
			<stop  offset="0.463" style="stop-color:#C31E1C"/>
			<stop  offset="0.4944" style="stop-color:#C00418"/>
			<stop  offset="0.7697" style="stop-color:#FAF8E9"/>
		</linearGradient>
		<path class="st6" d="M82.3,90c-0.1,3.4,2.9,11.6,3.8,14.9c0.8,3.4,1.5,6.8,1.9,10.3c0.8,7.3-1,14.7-3,21.5
			c-1.7,5.7-3.3,11.6-4.2,17.5c-0.8,5.2-1.8,8.6-3.2,14.8c-1.1-2-2.4-2.9-4.2-1.8c1.2-7.6-0.6-12.6-1.7-19.8
			c-1.2-8.3-2.8-17.5-2.4-26c0.4-7,0.6-13.5,1.9-20.4c1.2-6.1,2.8-11.8,4.3-17.7"/>
		<path class="st4" d="M77.1,84.3c-1.2,5.2,3.5,16.7,3.4,21c-0.2-3.3-1.1-13.7,0-16.7"/>
		
			<linearGradient id="SVGID_4_" gradientUnits="userSpaceOnUse" x1="31.0553" y1="168.7725" x2="31.0553" y2="117.1695" gradientTransform="matrix(-1 0 0 1 108.1533 0)">
			<stop  offset="0.1404" style="stop-color:#FAF8E9"/>
			<stop  offset="0.4382" style="stop-color:#AF0917"/>
		</linearGradient>
		<path class="st7" d="M80,117.2c0,0,2,44.9-2.3,51.6c-1.2-0.7-2.5-1.5-4-1C73.7,166.3,79.5,119.9,80,117.2z"/>
	</g>
</g>
<g id="Lag_7">
	<ellipse class="st8" cx="61.7" cy="158.8" rx="0.9" ry="4.3"/>
</g>
<g id="sanseceller">
	<g>
		<g>
			<path class="st9" d="M195.9,268.7c-1.6-1.5-4-1.4-5.3,0.1c-0.8,0.9-0.7,3.2-0.3,3.8c-1,0.7-11.2,5.7-23.4,2.9
				c-14.3-3.2-27.3-17.4-31.7-25.1c-4.4-7.7-7.7-17.3-11.5-35.8c-3.8-18.5-9.8-49.5-11-56.2c-1.1-6.9-7.1-31.4-12.2-46.9
				C95.6,96,88.8,79,86.8,76.5c-2-2.4-4-4.3-6.7,0.9c-2,3.8-6.1,42-6.1,49.8c0.5-2.5,1.1-6,1.1-6s0,1.1,1,1.9
				c-0.3-1.6-0.5-3.3-0.5-4.7c0-1.3,0.2-3.3,0.2-3.3c0.6,1.3,0.6,1.7,1.6,2.3c-0.4-1.5-1.2-2.9-1.2-4.7c0-1.7,0.4-2.8,0.4-2.8
				c0.7,1.4,0.8,1.7,1.6,2.1c-0.7-1.8-1.4-3.8-1.1-7.9c0.1-5,3-32.1,7.5-27.8c6.7,6.4,22.4,61.4,25.8,79.9
				c3.3,18.4,14.1,78.2,20.5,90.6c7.5,14.4,29.6,40.8,60.9,27.1c0,0,1.7,0.7,3.1,0.4C197,273.9,198.1,270.7,195.9,268.7z
				 M193.6,272.3c-0.7,0-1.2-0.6-1.2-1.2c0-0.7,0.6-1.2,1.2-1.2c0.7,0,1.2,0.6,1.2,1.2C194.9,271.7,194.3,272.3,193.6,272.3z"/>
		</g>
		<g>
			<path class="st3" d="M195.9,268.7c-1.6-1.5-4-1.4-5.3,0.1c-0.8,0.9-0.7,3.2-0.3,3.8c-1,0.7-11.2,5.7-23.4,2.9
				c-14.3-3.2-27.3-17.4-31.7-25.1c-4.4-7.7-7.7-17.3-11.5-35.8c-3.8-18.5-9.8-49.5-11-56.2c-1.1-6.9-7.1-31.4-12.2-46.9
				C95.6,96,88.8,79,86.8,76.5c-2-2.4-4-4.3-6.7,0.9c-2,3.8-6.1,42-6.1,49.8c0.5-2.5,1.1-6,1.1-6s0,1.1,1,1.9
				c-0.3-1.6-0.5-3.3-0.5-4.7c0-1.3,0.2-3.3,0.2-3.3c0.6,1.3,0.6,1.7,1.6,2.3c-0.4-1.5-1.2-2.9-1.2-4.7c0-1.7,0.4-2.8,0.4-2.8
				c0.7,1.4,0.8,1.7,1.6,2.1c-0.7-1.8-1.4-3.8-1.1-7.9c0.1-5,3-32.1,7.5-27.8c6.7,6.4,22.4,61.4,25.8,79.9
				c3.3,18.4,14.1,78.2,20.5,90.6c7.5,14.4,29.6,40.8,60.9,27.1c0,0,1.7,0.7,3.1,0.4C197,273.9,198.1,270.7,195.9,268.7z
				 M193.6,272.3c-0.7,0-1.2-0.6-1.2-1.2c0-0.7,0.6-1.2,1.2-1.2c0.7,0,1.2,0.6,1.2,1.2C194.9,271.7,194.3,272.3,193.6,272.3z"/>
		</g>
	</g>
	<path class="st8" d="M203.2,243.2c1.9,0.4,3.8-0.9,4.6,1.4c0.5,1.4-0.7,2.9-2.2,2.3c-1.5-0.6-1.1-1.4-2.7-2.3
		c-1.5-0.9-11.5-3.2-11.5-3.2s6.6,5.3,7.2,5.6c0.6,0.3,3.9-0.1,2.5,3c-0.6,1.3-2.5,1.3-3.3,0c-0.8-1.4,0.6-1.5-1.2-3.1
		c-4.2-3.7-24.2-16.1-30.6-23.7c-7.2-8.5-16.1-23-24-46.4c-7.9-23.4-19.3-60.4-23.9-73.8c-4.6-13.4-9.9-22.8-16.7-33.3
		c-1.8-2.8-10.5-8.5-16-3C80,72,77.1,74.6,74.1,96.2c-3,21.6-6,57.8-6.3,58.7c-0.3,0.9-3.8,0.4-6.5,1c-1.2,0.3-2.6,0.9-0.5,1
		c-0.1,0.2-0.1,0.7-0.1,0.7s-0.5-0.1-1.2-0.3c-1.1-0.3-0.4-1.5,1.8-2c1.9-0.5,5.3,0.1,5.6-1s3.1-30.4,3.2-31.7
		c0.1-1.3,2.5-24.1,2.6-25.1c0.1-1,2.9-17,4.7-21.8c1.7-4.3,5.8-9.2,8.1-10.8c3-2.1,6.1-2.4,8.4-1.7c2.3,0.8,7.2,3.2,10.5,8.4
		c3.3,5.2,8.4,14.2,11,20.2c1.5,3.5,8.1,22.6,9.3,26.5c1.2,3.9,8.3,25.4,8.8,27.2c0.5,1.9,8.6,27.2,9.1,28.9
		c2,6.1,8.6,21.8,10.5,25.5c2.8,5.6,11.5,19.8,15.4,24.1c0,0,16.6,13.9,21,15.6C193.4,241,201.3,242.9,203.2,243.2z"/>
	<path class="st8" d="M62.5,157.8c0,0,0.6-0.1,1.1,0.1c0.6,0.2,0.4,0.5-1.1,0.8c-1.5,0.3-3.2,0.7-2.9,0.9c0.4,0.3,1.2,0.7,1.2,0.7
		v-0.6c0,0-0.7-0.1-0.2-0.2c2-0.4,3.4-0.5,3.8-1.1c0.4-0.6-0.4-1.2-2-1.4"/>
	<path class="st8" d="M62.4,161c0,0,0.5,0.3,0.7,0.6c0.2,0.3-1.8,0.5-2.1,0.6c-0.3,0.1-0.8,0.7,0.4,0.5c1.2-0.3,2.9-0.6,2.3-1.2
		c-0.6-0.6-1.3-1-1.3-1"/>
	<g>
		<g>
			<path class="st10" d="M203.9,258.6c-0.1-1.5-2.4-4.1-5-2c-1.6,1.3-1.2,3.6-0.7,4.2c0.6,0.8-2.9,5.3-2.9,5.3l1,0.7
				c0,0,2.7-4.8,3.3-4.9c0.6-0.1,1.6,0.3,2.5-0.1C203.7,261.3,204,259.9,203.9,258.6z M201.9,259.3c-0.2,0.6-0.8,1-1.4,0.8
				c-0.6-0.2-1-0.8-0.8-1.4c0.2-0.6,0.8-1,1.4-0.8C201.7,258.1,202.1,258.7,201.9,259.3z"/>
		</g>
		<g>
			<path class="st3" d="M203.9,258.6c-0.1-1.5-2.4-4.1-5-2c-1.6,1.3-1.2,3.6-0.7,4.2c0.6,0.8-2.9,5.3-2.9,5.3l1,0.7
				c0,0,2.7-4.8,3.3-4.9c0.6-0.1,1.6,0.3,2.5-0.1C203.7,261.3,204,259.9,203.9,258.6z M201.9,259.3c-0.2,0.6-0.8,1-1.4,0.8
				c-0.6-0.2-1-0.8-0.8-1.4c0.2-0.6,0.8-1,1.4-0.8C201.7,258.1,202.1,258.7,201.9,259.3z"/>
		</g>
	</g>
	<g>
		<g>
			<path class="st9" d="M191,257.9c-1.5-1.6-3.9-1.7-5.3-0.3c-0.8,0.8-0.9,3.1-0.5,3.8c-1.1,0.6-6.8,3.5-13,2.6
				c-3.1-0.4-17.6-1.5-30.5-29c-3.7-8-8.5-30.1-10.8-48.8c-2-16.5-6.4-39.6-8.5-49.5c-1.5-6.8-9-33.3-14.8-48.5
				C102,74,91.1,59.7,87.5,57.9c-2.8-1.4-10-1.4-12.9,3.7c-5.3,9.1-10.7,66.1-14.2,90.8c0.7-2.5,1.6-5.9,1.6-5.9s-0.1,1.1,0.9,2
				c-0.2-1.6-0.2-3.4-0.1-4.7c0.1-1.3,0.5-3.3,0.5-3.3c0.5,1.4,0.5,1.8,1.4,2.5c-0.3-1.5-1-3-0.9-4.7c0.1-1.7,0.6-2.8,0.6-2.8
				c0.6,1.5,0.7,1.8,1.5,2.3c-0.6-1.9-1.1-3.9-0.5-8c0.2-2.4,5.8-60.4,10-66.6c3.8-5.5,10.1-4.9,12.3-2.7
				c4.3,4.1,11.6,15.2,17.4,27.5c3.2,6.7,13,38.6,15.9,51.5c4.4,19.5,10.8,77.2,16.6,91.8c5.6,14.2,22.3,44.9,48.8,31.8
				c0,0,1.6,0.9,3.1,0.6C191.6,263.2,192.9,260,191,257.9z M188.4,261.3c-0.7-0.1-1.2-0.7-1.1-1.3c0.1-0.7,0.7-1.2,1.3-1.1
				c0.7,0.1,1.2,0.7,1.1,1.3C189.7,260.8,189.1,261.4,188.4,261.3z"/>
		</g>
		<g>
			<path class="st3" d="M191,257.9c-1.5-1.6-3.9-1.7-5.3-0.3c-0.8,0.8-0.9,3.1-0.5,3.8c-1.1,0.6-6.8,3.5-13,2.6
				c-3.1-0.4-17.6-1.5-30.5-29c-3.7-8-8.5-30.1-10.8-48.8c-2-16.5-6.4-39.6-8.5-49.5c-1.5-6.8-9-33.3-14.8-48.5
				C102,74,91.1,59.7,87.5,57.9c-2.8-1.4-10-1.4-12.9,3.7c-5.3,9.1-10.7,66.1-14.2,90.8c0.7-2.5,1.6-5.9,1.6-5.9s-0.1,1.1,0.9,2
				c-0.2-1.6-0.2-3.4-0.1-4.7c0.1-1.3,0.5-3.3,0.5-3.3c0.5,1.4,0.5,1.8,1.4,2.5c-0.3-1.5-1-3-0.9-4.7c0.1-1.7,0.6-2.8,0.6-2.8
				c0.6,1.5,0.7,1.8,1.5,2.3c-0.6-1.9-1.1-3.9-0.5-8c0.2-2.4,5.8-60.4,10-66.6c3.8-5.5,10.1-4.9,12.3-2.7
				c4.3,4.1,11.6,15.2,17.4,27.5c3.2,6.7,13,38.6,15.9,51.5c4.4,19.5,10.8,77.2,16.6,91.8c5.6,14.2,22.3,44.9,48.8,31.8
				c0,0,1.6,0.9,3.1,0.6C191.6,263.2,192.9,260,191,257.9z M188.4,261.3c-0.7-0.1-1.2-0.7-1.1-1.3c0.1-0.7,0.7-1.2,1.3-1.1
				c0.7,0.1,1.2,0.7,1.1,1.3C189.7,260.8,189.1,261.4,188.4,261.3z"/>
		</g>
	</g>
</g>
<g id="_x31__2_3_4__x2B__-" class="st11">
	<g class="st12">
		<circle class="st13" cx="43.4" cy="160.7" r="6.7"/>
		<text transform="matrix(1 0 0 1 40.7163 163.6973)" class="st14 st15 st16">1</text>
	</g>
	<g class="st12">
		<circle class="st13" cx="176.9" cy="253.6" r="6.7"/>
		<text transform="matrix(1 0 0 1 174.2451 256.6396)" class="st14 st15 st16">2</text>
	</g>
	<g class="st12">
		<circle class="st13" cx="43.4" cy="99.2" r="6.7"/>
		<text transform="matrix(1 0 0 1 40.7163 102.209)" class="st14 st15 st16">3</text>
	</g>
	<g class="st12">
		<circle class="st13" cx="211.2" cy="273.9" r="6.7"/>
		<text transform="matrix(1 0 0 1 208.541 276.9336)" class="st14 st15 st16">4</text>
	</g>
	<g class="st12">
		<circle class="st14" cx="195.6" cy="242.9" r="4.1"/>
		<text transform="matrix(1 0 0 1 193.0654 245.7827)" class="st17 st16">+</text>
	</g>
	<g class="st12">
		<circle class="st14" cx="201.8" cy="267.6" r="4.1"/>
		<text transform="matrix(1 0 0 1 200.6279 270.0327)" class="st17 st16">-</text>
	</g>
</g>
<g id="tekst">
	<text transform="matrix(1 0 0 1 144.334 114.6455)" class="st15 st18">Den tohovedede armbøjer</text>
	<text transform="matrix(1 0 0 1 2 175.2651)" class="st15 st18">Muskelten</text>
	<text transform="matrix(1 0 0 1 144.334 136.3877)"><tspan x="0" y="0" class="st15 st18">Den trehovedede </tspan><tspan x="0" y="10.8" class="st15 st18">armstrækker</tspan></text>
	<text transform="matrix(1 0 0 1 147.4648 173.2641)" class="st15 st18">Sansecelle</text>
	<text transform="matrix(1 0 0 1 164.4424 204.0952)" class="st15 st18">Tværsnit af rygmarv</text>
</g>
<g id="streger_til_tekst">
	<line class="st3" x1="141" y1="133" x2="83.5" y2="133"/>
	<line class="st3" x1="64" y1="110.8" x2="141" y2="110.8"/>
	<line class="st3" x1="48.2" y1="171.8" x2="60" y2="160.9"/>
	<line class="st3" x1="141" y1="171.6" x2="146.8" y2="171.6"/>
</g>
<g id="pile" class="st11">
	<g class="st12">
		<path class="st19" d="M22,278c0,0,8,1.7,12.3,14.2"/>
		<polygon points="30.2,291 36.7,287.5 36.4,294.9 		"/>
	</g>
	<g class="st12">
		<path class="st19" d="M37.3,305.3c0,0-22.3,0.3-25-17"/>
		<polygon points="16.5,289.4 10.1,293.1 10.2,285.7 		"/>
	</g>
</g>
</svg>
