<?xml version="1.0" encoding="utf-8"?>
<!-- Generator: Adobe Illustrator 19.1.0, SVG Export Plug-In . SVG Version: 6.00 Build 0)  -->
<svg version="1.1" xmlns="http://www.w3.org/2000/svg" xmlns:xlink="http://www.w3.org/1999/xlink" x="0px" y="0px"
	 viewBox="0 0 566.9 481" style="enable-background:new 0 0 566.9 481;" xml:space="preserve">
<style type="text/css">
	.st0{fill:url(#SVGID_1_);}
	.st1{fill:#F8B04C;stroke:#000000;stroke-width:0.5;stroke-miterlimit:10;}
	.st2{fill:#F0E855;stroke:#000000;stroke-width:0.5;stroke-miterlimit:10;}
	.st3{fill:#6CB52D;stroke:#000000;stroke-width:0.5;stroke-miterlimit:10;}
	.st4{fill:#EB5C34;stroke:#000000;stroke-width:0.5;stroke-miterlimit:10;}
	.st5{fill:#F28C39;stroke:#FFFFFF;stroke-width:0.5;stroke-miterlimit:10;}
	.st6{fill:url(#SVGID_2_);stroke:#000000;stroke-width:0.5;stroke-miterlimit:10;}
	.st7{fill:url(#SVGID_3_);stroke:#000000;stroke-width:0.5;stroke-miterlimit:10;}
	.st8{fill:#E30613;stroke:#000000;stroke-width:0.5;}
	.st9{fill:none;stroke:#1FA637;stroke-width:2;}
	.st10{fill:url(#SVGID_4_);stroke:#000000;stroke-width:0.5;stroke-miterlimit:10;}
	.st11{fill:url(#SVGID_5_);stroke:#000000;stroke-width:0.5;stroke-miterlimit:10;}
	.st12{fill:url(#SVGID_6_);stroke:#000000;stroke-width:0.5;stroke-miterlimit:10;}
	.st13{fill:url(#SVGID_7_);stroke:#000000;stroke-width:0.5;stroke-miterlimit:10;}
	.st14{fill:url(#SVGID_8_);stroke:#000000;stroke-width:0.5;stroke-miterlimit:10;}
	.st15{fill:url(#SVGID_9_);stroke:#000000;stroke-width:0.5;stroke-miterlimit:10;}
	.st16{fill:url(#SVGID_10_);stroke:#000000;stroke-width:0.5;stroke-miterlimit:10;}
	.st17{fill:url(#SVGID_11_);stroke:#000000;stroke-width:0.5;stroke-miterlimit:10;}
	.st18{display:none;}
	.st19{display:inline;fill:url(#SVGID_12_);stroke:#000000;stroke-width:0.5;stroke-miterlimit:10;}
	.st20{fill:none;stroke:#FFFFFF;stroke-width:0.75;stroke-dasharray:2,2;}
	.st21{fill:#FFFFFF;}
	.st22{fill:none;stroke:#FFFFFF;stroke-width:0.75;}
	.st23{fill:none;stroke:#FFFFFF;stroke-width:0.5;}
	.st24{fill:none;stroke:#FFFFFF;}
	.st25{font-family:'Verdana';}
	.st26{font-size:9px;}
</style>
<g id="Lag_3">
	
		<radialGradient id="SVGID_1_" cx="134.645" cy="108.1667" r="122.1256" gradientTransform="matrix(2.1053 0 0 2.2236 0 0)" gradientUnits="userSpaceOnUse">
		<stop  offset="0.2146" style="stop-color:#83D0F5"/>
		<stop  offset="0.2875" style="stop-color:#7BC4ED"/>
		<stop  offset="0.4265" style="stop-color:#66A7D9"/>
		<stop  offset="0.617" style="stop-color:#4C79B7"/>
		<stop  offset="0.8492" style="stop-color:#38418A"/>
		<stop  offset="1" style="stop-color:#2C2274"/>
	</radialGradient>
	<rect class="st0" width="566.9" height="481"/>
</g>
<g id="Lag_2">
	<rect x="123" y="59.7" class="st1" width="35.9" height="30.5"/>
	<polyline class="st2" points="124.9,70.4 135,66.4 135,59.7 101.8,59.7 101.8,90.2 135,90.2 135,74.6 124.9,70.6 	"/>
	<rect x="124.5" y="226.2" class="st3" width="35.9" height="30.5"/>
	<polygon class="st4" points="129.4,241.1 129.4,232.9 136.5,232.9 136.5,226.2 103.2,226.2 103.2,256.7 136.5,256.7 136.5,241.1 	
		"/>
	<rect x="251.5" y="226.2" class="st4" width="35.9" height="30.5"/>
	<polygon class="st3" points="271.4,241.1 271.4,232.9 263.5,232.9 263.5,226.2 230.2,226.2 230.2,256.7 263.5,256.7 263.5,241.1 	
		"/>
	<path class="st4" d="M428.5,226.2v6.7h7.9v8.1h-7.9v3.6c2.6,0.1,4.7,2.2,4.7,4.8s-2.1,4.7-4.7,4.8v2.4h23.9v-30.5H428.5z"/>
	<path class="st3" d="M352.1,86.3c0,0,0.1,0,0.1,0c2.4,0,4.4-1.9,4.4-4.4s-1.9-4.4-4.4-4.4c0,0-0.1,0-0.1,0l0-3.3l-5.6,0l0-7.3
		l5.6,0l0-6l30.1,0.1l-0.1,27.6l-30.1-0.1L352.1,86.3z"/>
	<path class="st3" d="M484,86.7c0,0-0.1,0-0.1,0c-2.4,0-4.4-1.9-4.4-4.4c0-2.4,1.9-4.4,4.4-4.4c0,0,0.1,0,0.1,0l0-3.3l5.6,0l0-7.3
		l-5.6,0l0-6l-30.1,0.1L454,89l30.1-0.1L484,86.7z"/>
	<circle class="st5" cx="134.7" cy="83.3" r="3.2"/>
	<circle class="st5" cx="136.7" cy="249" r="3.2"/>
	<circle class="st5" cx="263.3" cy="249" r="3.2"/>
</g>
<g id="Lag_8">
	
		<radialGradient id="SVGID_2_" cx="124.2824" cy="442.0887" r="48.321" gradientTransform="matrix(-1.346900e-10 1 -1 -1.346900e-10 511.4955 285.0934)" gradientUnits="userSpaceOnUse">
		<stop  offset="0" style="stop-color:#FFFAC9"/>
		<stop  offset="0.1643" style="stop-color:#FFF8C6"/>
		<stop  offset="0.3136" style="stop-color:#FFF5BC"/>
		<stop  offset="0.4571" style="stop-color:#FFEEAA"/>
		<stop  offset="0.5971" style="stop-color:#FFE491"/>
		<stop  offset="0.7344" style="stop-color:#FFD86E"/>
		<stop  offset="0.868" style="stop-color:#FDC940"/>
		<stop  offset="1" style="stop-color:#FBB800"/>
	</radialGradient>
	<path class="st6" d="M118.1,401.3c-3.8-8.1-10.9-19.4-24.7-19.6c-17.7-0.2-25,16.3-25,27.8s4.1,28.8,25,28.8
		c14.3-0.1,21.4-13.8,24.7-21.7c7.3-7.6,0,12.2,0,12.2c-7.5,17.1-28.5,25-48.3,25c-26.7,0-52.3-17.6-52.3-44.3
		c0-26.7,25.6-44.3,52.3-44.3c19.7,0,40.6,7.8,48.2,24.6 M117.9,389.6c0,0,7.7,16.6,0.2,11.7"/>
	
		<radialGradient id="SVGID_3_" cx="293.2734" cy="425.0263" r="48.4654" gradientTransform="matrix(-1.346900e-10 1 -1 -1.346900e-10 623.4577 116.1023)" gradientUnits="userSpaceOnUse">
		<stop  offset="0" style="stop-color:#FFFAC9"/>
		<stop  offset="0.1643" style="stop-color:#FFF8C6"/>
		<stop  offset="0.3136" style="stop-color:#FFF5BC"/>
		<stop  offset="0.4571" style="stop-color:#FFEEAA"/>
		<stop  offset="0.5971" style="stop-color:#FFE491"/>
		<stop  offset="0.7344" style="stop-color:#FFD86E"/>
		<stop  offset="0.868" style="stop-color:#FDC940"/>
		<stop  offset="1" style="stop-color:#FBB800"/>
	</radialGradient>
	<path class="st7" d="M250.7,413.3h-9.1v-7.9h9.1c-2-24.9-26.8-40.4-52.2-40.4c-26.7,0-52.3,17.6-52.3,44.3s25.6,44.3,52.3,44.3
		C223.9,453.7,248.7,438.2,250.7,413.3z"/>
	<g>
		<ellipse transform="matrix(0.7817 0.6237 -0.6237 0.7817 268.0215 26.062)" class="st8" cx="96.8" cy="395.9" rx="9.4" ry="4"/>
		<g>
			<circle class="st5" cx="87.1" cy="387.8" r="3"/>
			<circle class="st5" cx="92.9" cy="386.2" r="3"/>
			<circle class="st5" cx="98.6" cy="388.6" r="3"/>
			<circle class="st5" cx="107" cy="397.2" r="3"/>
			<circle class="st5" cx="103.5" cy="392.1" r="3"/>
			<circle class="st5" cx="86.5" cy="394.2" r="3"/>
			<circle class="st5" cx="90.1" cy="399.3" r="3"/>
			<circle class="st5" cx="100.4" cy="405.5" r="3"/>
			<circle class="st5" cx="94.6" cy="403.2" r="3"/>
			<circle class="st5" cx="106.7" cy="403.5" r="3"/>
		</g>
	</g>
	<g>
		
			<ellipse transform="matrix(0.9967 -8.140008e-02 8.140008e-02 0.9967 -26.556 23.8984)" class="st8" cx="279.8" cy="337.6" rx="9.4" ry="4"/>
		<g>
			<circle class="st5" cx="267.2" cy="338.4" r="3"/>
			<circle class="st5" cx="270.4" cy="333.3" r="3"/>
			<circle class="st5" cx="276.2" cy="331.1" r="3"/>
			<circle class="st5" cx="288.2" cy="331.6" r="3"/>
			<circle class="st5" cx="282.1" cy="330.3" r="3"/>
			<circle class="st5" cx="271.2" cy="343.5" r="3"/>
			<circle class="st5" cx="277.3" cy="344.7" r="3"/>
			<circle class="st5" cx="289" cy="342.2" r="3"/>
			<circle class="st5" cx="283.3" cy="344.5" r="3"/>
			<circle class="st5" cx="292.3" cy="336.4" r="3"/>
		</g>
	</g>
	<g>
		<ellipse transform="matrix(0.9447 0.328 -0.328 0.9447 89.3589 -1.5509)" class="st8" cx="49.3" cy="264.2" rx="9.4" ry="4"/>
		<g>
			<circle class="st5" cx="37.4" cy="259.8" r="3"/>
			<circle class="st5" cx="42.4" cy="256.4" r="3"/>
			<circle class="st5" cx="48.6" cy="256.7" r="3"/>
			<circle class="st5" cx="59.3" cy="262" r="3"/>
			<circle class="st5" cx="54.3" cy="258.4" r="3"/>
			<circle class="st5" cx="39" cy="266" r="3"/>
			<circle class="st5" cx="44.1" cy="269.6" r="3"/>
			<circle class="st5" cx="55.9" cy="272.1" r="3"/>
			<circle class="st5" cx="49.7" cy="271.8" r="3"/>
			<circle class="st5" cx="61.2" cy="268" r="3"/>
		</g>
	</g>
	<g>
		
			<ellipse transform="matrix(4.210113e-02 0.9991 -0.9991 4.210113e-02 646.2205 40.5045)" class="st8" cx="302" cy="357.3" rx="9.4" ry="4"/>
		<g>
			<circle class="st5" cx="301.7" cy="344.7" r="3"/>
			<circle class="st5" cx="306.7" cy="348" r="3"/>
			<circle class="st5" cx="308.7" cy="353.9" r="3"/>
			<circle class="st5" cx="307.7" cy="365.8" r="3"/>
			<circle class="st5" cx="309.2" cy="359.9" r="3"/>
			<circle class="st5" cx="296.5" cy="348.4" r="3"/>
			<circle class="st5" cx="295" cy="354.5" r="3"/>
			<circle class="st5" cx="297.1" cy="366.3" r="3"/>
			<circle class="st5" cx="295" cy="360.5" r="3"/>
			<circle class="st5" cx="302.8" cy="369.8" r="3"/>
		</g>
	</g>
	<g>
		<ellipse transform="matrix(0.7053 0.7089 -0.7089 0.7053 361.9215 -78.9822)" class="st8" cx="276" cy="395.8" rx="9.4" ry="4"/>
		<g>
			<circle class="st5" cx="267.2" cy="386.7" r="3"/>
			<circle class="st5" cx="273.2" cy="385.8" r="3"/>
			<circle class="st5" cx="278.7" cy="388.8" r="3"/>
			<circle class="st5" cx="285.9" cy="398.3" r="3"/>
			<circle class="st5" cx="283" cy="392.9" r="3"/>
			<circle class="st5" cx="265.9" cy="393" r="3"/>
			<circle class="st5" cx="268.9" cy="398.5" r="3"/>
			<circle class="st5" cx="278.4" cy="405.8" r="3"/>
			<circle class="st5" cx="273" cy="402.9" r="3"/>
			<circle class="st5" cx="285" cy="404.5" r="3"/>
		</g>
	</g>
	<g>
		
			<ellipse transform="matrix(-0.7361 0.6769 -0.6769 -0.7361 765.8682 552.2531)" class="st8" cx="275.3" cy="425.4" rx="9.4" ry="4"/>
		<g>
			<circle class="st5" cx="284.7" cy="417.1" r="3"/>
			<circle class="st5" cx="285.4" cy="423" r="3"/>
			<circle class="st5" cx="282.2" cy="428.4" r="3"/>
			<circle class="st5" cx="272.4" cy="435.3" r="3"/>
			<circle class="st5" cx="278" cy="432.6" r="3"/>
			<circle class="st5" cx="278.5" cy="415.5" r="3"/>
			<circle class="st5" cx="272.9" cy="418.3" r="3"/>
			<circle class="st5" cx="265.2" cy="427.5" r="3"/>
			<circle class="st5" cx="268.3" cy="422.2" r="3"/>
			<circle class="st5" cx="266.2" cy="434.1" r="3"/>
		</g>
	</g>
	<g>
		
			<ellipse transform="matrix(0.7817 -0.6237 0.6237 0.7817 -243.3519 153.0481)" class="st8" cx="96.9" cy="424.1" rx="9.4" ry="4"/>
		<g>
			<circle class="st5" cx="87.2" cy="432.2" r="3"/>
			<circle class="st5" cx="93" cy="433.8" r="3"/>
			<circle class="st5" cx="98.8" cy="431.4" r="3"/>
			<circle class="st5" cx="107.1" cy="422.8" r="3"/>
			<circle class="st5" cx="103.6" cy="427.9" r="3"/>
			<circle class="st5" cx="86.7" cy="425.8" r="3"/>
			<circle class="st5" cx="90.2" cy="420.7" r="3"/>
			<circle class="st5" cx="100.5" cy="414.5" r="3"/>
			<circle class="st5" cx="94.8" cy="416.8" r="3"/>
			<circle class="st5" cx="106.9" cy="416.5" r="3"/>
		</g>
	</g>
	<g>
		<g>
			<line class="st9" x1="280.3" y1="359.2" x2="279.9" y2="347"/>
			<line class="st9" x1="280" y1="359" x2="292.1" y2="357.2"/>
		</g>
		<line class="st9" x1="269.8" y1="371.4" x2="280.4" y2="358.7"/>
	</g>
	<g>
		
			<ellipse transform="matrix(0.9967 -8.140008e-02 8.140008e-02 0.9967 -12.0074 30.2369)" class="st8" cx="364.8" cy="162.4" rx="9.4" ry="4"/>
		<g>
			<circle class="st5" cx="352.3" cy="163.2" r="3"/>
			<circle class="st5" cx="355.4" cy="158" r="3"/>
			<circle class="st5" cx="361.2" cy="155.8" r="3"/>
			<circle class="st5" cx="373.2" cy="156.4" r="3"/>
			<circle class="st5" cx="367.1" cy="155.1" r="3"/>
			<circle class="st5" cx="356.2" cy="168.2" r="3"/>
			<circle class="st5" cx="362.3" cy="169.5" r="3"/>
			<circle class="st5" cx="374" cy="167" r="3"/>
			<circle class="st5" cx="368.3" cy="169.2" r="3"/>
			<circle class="st5" cx="377.3" cy="161.1" r="3"/>
		</g>
	</g>
	<g>
		
			<ellipse transform="matrix(4.210113e-02 0.9991 -0.9991 4.210113e-02 552.5455 -212.3193)" class="st8" cx="387" cy="182" rx="9.4" ry="4"/>
		<g>
			<circle class="st5" cx="386.7" cy="169.4" r="3"/>
			<circle class="st5" cx="391.7" cy="172.7" r="3"/>
			<circle class="st5" cx="393.7" cy="178.6" r="3"/>
			<circle class="st5" cx="392.7" cy="190.6" r="3"/>
			<circle class="st5" cx="394.2" cy="184.6" r="3"/>
			<circle class="st5" cx="381.5" cy="173.1" r="3"/>
			<circle class="st5" cx="380" cy="179.2" r="3"/>
			<circle class="st5" cx="382.1" cy="191" r="3"/>
			<circle class="st5" cx="380" cy="185.2" r="3"/>
			<circle class="st5" cx="387.8" cy="194.5" r="3"/>
		</g>
	</g>
	<g>
		<g>
			<line class="st9" x1="365.3" y1="183.9" x2="364.9" y2="171.7"/>
			<line class="st9" x1="365" y1="183.7" x2="377.1" y2="181.9"/>
		</g>
		<line class="st9" x1="354.8" y1="196.1" x2="365.4" y2="183.5"/>
	</g>
	<g>
		<g>
			<line class="st9" x1="259.8" y1="410.1" x2="268.9" y2="401.9"/>
			<line class="st9" x1="259.8" y1="409.7" x2="268.9" y2="417.8"/>
		</g>
		<line class="st9" x1="243.7" y1="409.9" x2="260.2" y2="409.9"/>
	</g>
	<g>
		<g>
			<line class="st9" x1="83" y1="410" x2="90.5" y2="403.3"/>
			<line class="st9" x1="83" y1="409.8" x2="90.5" y2="416.4"/>
		</g>
		<line class="st9" x1="69.7" y1="409.9" x2="83.4" y2="409.9"/>
	</g>
</g>
<g id="Lag_1">
	<radialGradient id="SVGID_4_" cx="69.4068" cy="75.159" r="48.3471" gradientUnits="userSpaceOnUse">
		<stop  offset="0" style="stop-color:#FFFFFF"/>
		<stop  offset="0.1404" style="stop-color:#FFFDFE"/>
		<stop  offset="0.2679" style="stop-color:#FEF5FA"/>
		<stop  offset="0.3905" style="stop-color:#FCE9F3"/>
		<stop  offset="0.5101" style="stop-color:#FAD6E8"/>
		<stop  offset="0.6275" style="stop-color:#F6BCD7"/>
		<stop  offset="0.7433" style="stop-color:#F299C1"/>
		<stop  offset="0.8578" style="stop-color:#ED6AA4"/>
		<stop  offset="0.9684" style="stop-color:#E72386"/>
		<stop  offset="1" style="stop-color:#E6007E"/>
	</radialGradient>
	<circle class="st10" cx="69.4" cy="75.2" r="48.3"/>
	<radialGradient id="SVGID_5_" cx="198.4702" cy="75.159" r="48.3471" gradientUnits="userSpaceOnUse">
		<stop  offset="0" style="stop-color:#9AC31C"/>
		<stop  offset="0.3665" style="stop-color:#99C220"/>
		<stop  offset="0.5147" style="stop-color:#91BF2C"/>
		<stop  offset="0.6233" style="stop-color:#85B93A"/>
		<stop  offset="0.7128" style="stop-color:#71B04A"/>
		<stop  offset="0.7903" style="stop-color:#55A65C"/>
		<stop  offset="0.8596" style="stop-color:#299B6D"/>
		<stop  offset="0.9227" style="stop-color:#008D7C"/>
		<stop  offset="0.9794" style="stop-color:#007F87"/>
		<stop  offset="1" style="stop-color:#00798A"/>
	</radialGradient>
	<circle class="st11" cx="198.5" cy="75.2" r="48.3"/>
	<radialGradient id="SVGID_6_" cx="417.1051" cy="382.2733" r="48.3471" gradientUnits="userSpaceOnUse">
		<stop  offset="0" style="stop-color:#FFFFFF"/>
		<stop  offset="0.1513" style="stop-color:#FCFEFF"/>
		<stop  offset="0.2887" style="stop-color:#F3FAFF"/>
		<stop  offset="0.4208" style="stop-color:#E4F4FE"/>
		<stop  offset="0.5496" style="stop-color:#CDEAFC"/>
		<stop  offset="0.6761" style="stop-color:#ABDDF9"/>
		<stop  offset="0.8009" style="stop-color:#7ACDF4"/>
		<stop  offset="0.9218" style="stop-color:#00BAEE"/>
		<stop  offset="1" style="stop-color:#00ACE9"/>
	</radialGradient>
	<circle class="st12" cx="417.1" cy="382.3" r="48.3"/>
	<radialGradient id="SVGID_7_" cx="198.4702" cy="238.6052" r="48.3471" gradientUnits="userSpaceOnUse">
		<stop  offset="0" style="stop-color:#F8AC53"/>
		<stop  offset="0.1315" style="stop-color:#F7A850"/>
		<stop  offset="0.2988" style="stop-color:#F49B47"/>
		<stop  offset="0.4857" style="stop-color:#F1843A"/>
		<stop  offset="0.6866" style="stop-color:#EC632A"/>
		<stop  offset="0.8967" style="stop-color:#E6331B"/>
		<stop  offset="1" style="stop-color:#E30613"/>
	</radialGradient>
	<circle class="st13" cx="198.5" cy="238.6" r="48.3"/>
	<radialGradient id="SVGID_8_" cx="329.8647" cy="238.6052" r="48.3471" gradientUnits="userSpaceOnUse">
		<stop  offset="0" style="stop-color:#FFFFFF"/>
		<stop  offset="9.902336e-02" style="stop-color:#F7F7F7"/>
		<stop  offset="0.2765" style="stop-color:#E0E0E0"/>
		<stop  offset="0.5118" style="stop-color:#BABAB9"/>
		<stop  offset="0.7926" style="stop-color:#807F7F"/>
		<stop  offset="1" style="stop-color:#4A4A49"/>
	</radialGradient>
	<circle class="st14" cx="329.9" cy="238.6" r="48.3"/>
	<radialGradient id="SVGID_9_" cx="417.1051" cy="75.159" r="48.3471" gradientUnits="userSpaceOnUse">
		<stop  offset="0" style="stop-color:#FFFFFF"/>
		<stop  offset="8.637256e-02" style="stop-color:#F7F5FB"/>
		<stop  offset="0.2411" style="stop-color:#E1D8ED"/>
		<stop  offset="0.4465" style="stop-color:#C0ABD3"/>
		<stop  offset="0.6947" style="stop-color:#946CAC"/>
		<stop  offset="0.9766" style="stop-color:#632784"/>
		<stop  offset="0.9912" style="stop-color:#602483"/>
	</radialGradient>
	<circle class="st15" cx="417.1" cy="75.2" r="48.3"/>
	<radialGradient id="SVGID_10_" cx="494.8666" cy="238.6052" r="48.3471" gradientUnits="userSpaceOnUse">
		<stop  offset="0" style="stop-color:#FFFFFF"/>
		<stop  offset="9.902336e-02" style="stop-color:#F7F7F7"/>
		<stop  offset="0.2765" style="stop-color:#E0E0E0"/>
		<stop  offset="0.5118" style="stop-color:#BABAB9"/>
		<stop  offset="0.7926" style="stop-color:#807F7F"/>
		<stop  offset="1" style="stop-color:#4A4A49"/>
	</radialGradient>
	<circle class="st16" cx="494.9" cy="238.6" r="48.3"/>
	<radialGradient id="SVGID_11_" cx="69.4067" cy="238.6052" r="48.5123" gradientUnits="userSpaceOnUse">
		<stop  offset="0" style="stop-color:#FFFAC9"/>
		<stop  offset="0.1643" style="stop-color:#FFF8C6"/>
		<stop  offset="0.3136" style="stop-color:#FFF5BC"/>
		<stop  offset="0.4571" style="stop-color:#FFEEAA"/>
		<stop  offset="0.5971" style="stop-color:#FFE491"/>
		<stop  offset="0.7344" style="stop-color:#FFD86E"/>
		<stop  offset="0.868" style="stop-color:#FDC940"/>
		<stop  offset="1" style="stop-color:#FBB800"/>
	</radialGradient>
	<path class="st17" d="M69.4,194.3c-26.7,0-52.3,17.6-52.3,44.3c0,14.1,7.2,25.7,17.9,33.5c-1.7-2.4-2.7-5.2-2.7-8.3
		c0-8.6,7.6-15.5,17-15.5c9.4,0,17,6.9,17,15.5s-7.6,15.5-17,15.5c-0.2,0-0.5,0-0.7,0c6.5,2.4,13.6,3.7,20.8,3.7
		c26.7,0,52.3-17.6,52.3-44.3S96.1,194.3,69.4,194.3z"/>
</g>
<g id="Reserve_makrofag" class="st18">
	<radialGradient id="SVGID_12_" cx="-77.9266" cy="232.6052" r="48.5123" gradientUnits="userSpaceOnUse">
		<stop  offset="0" style="stop-color:#FFFAC9"/>
		<stop  offset="0.1643" style="stop-color:#FFF8C6"/>
		<stop  offset="0.3136" style="stop-color:#FFF5BC"/>
		<stop  offset="0.4571" style="stop-color:#FFEEAA"/>
		<stop  offset="0.5971" style="stop-color:#FFE491"/>
		<stop  offset="0.7344" style="stop-color:#FFD86E"/>
		<stop  offset="0.868" style="stop-color:#FDC940"/>
		<stop  offset="1" style="stop-color:#FBB800"/>
	</radialGradient>
	<path class="st19" d="M-25.6,232.6c0,26.7-25.6,44.3-52.3,44.3s-52.3-17.6-52.3-44.3s25.6-44.3,52.3-44.3S-25.6,205.9-25.6,232.6z"
		/>
</g>
<g id="Lag_4">
	<g>
		<g>
			<line class="st9" x1="502.1" y1="185.2" x2="496" y2="174.6"/>
			<line class="st9" x1="501.8" y1="185.1" x2="511.6" y2="177.8"/>
		</g>
		<line class="st9" x1="498.7" y1="200.9" x2="502.1" y2="184.7"/>
	</g>
	<g>
		<g>
			<line class="st9" x1="437.8" y1="360.3" x2="435.7" y2="351.1"/>
			<line class="st9" x1="437.6" y1="360.2" x2="446.5" y2="357.1"/>
		</g>
		<line class="st9" x1="431.6" y1="371.1" x2="437.9" y2="359.9"/>
	</g>
	<g>
		<g>
			<line class="st9" x1="426.6" y1="408.1" x2="424.6" y2="398.9"/>
			<line class="st9" x1="426.4" y1="408" x2="435.3" y2="404.9"/>
		</g>
		<line class="st9" x1="420.4" y1="419" x2="426.7" y2="407.8"/>
	</g>
	<g>
		<g>
			<line class="st9" x1="381.5" y1="385.9" x2="373.5" y2="380.8"/>
			<line class="st9" x1="381.2" y1="386" x2="385.3" y2="377.5"/>
		</g>
		<line class="st9" x1="384.7" y1="398" x2="381.2" y2="385.6"/>
	</g>
	<g>
		<g>
			<line class="st9" x1="357.5" y1="365.7" x2="353.6" y2="357.1"/>
			<line class="st9" x1="357.3" y1="365.6" x2="365.4" y2="360.8"/>
		</g>
		<line class="st9" x1="353.7" y1="377.6" x2="357.5" y2="365.3"/>
	</g>
	<g>
		<g>
			<line class="st9" x1="345.5" y1="396.3" x2="337.6" y2="391.2"/>
			<line class="st9" x1="345.3" y1="396.4" x2="349.4" y2="387.9"/>
		</g>
		<line class="st9" x1="348.8" y1="408.3" x2="345.3" y2="396"/>
	</g>
</g>
<g id="PILE">
	<g>
		<line class="st20" x1="199.3" y1="186.7" x2="199.3" y2="132.3"/>
		<polygon class="st21" points="194.8,133.7 199.1,126.3 203.3,133.7 		"/>
	</g>
	<g>
		<line class="st20" x1="198.8" y1="295.3" x2="198.8" y2="349.7"/>
		<polygon class="st21" points="203.3,348.3 199.1,355.7 194.8,348.3 		"/>
	</g>
	<g>
		<line class="st22" x1="358.2" y1="285" x2="386.9" y2="331.2"/>
		<polygon class="st21" points="390.1,327.6 390.3,336.1 382.9,332.1 		"/>
	</g>
	<g>
		<line class="st22" x1="239.7" y1="204" x2="364" y2="106.3"/>
		<polygon class="st21" points="360.2,103.6 368.6,102.4 365.4,110.3 		"/>
	</g>
	<g>
		<line class="st22" x1="382.2" y1="241.8" x2="419" y2="241.8"/>
		<polygon class="st21" points="418.2,237.3 425.6,241.5 418.2,245.7 		"/>
	</g>
	<g>
		<line class="st22" x1="362.2" y1="383.9" x2="325.5" y2="383.9"/>
		<polygon class="st21" points="326.2,388.4 318.9,384.2 326.2,379.9 		"/>
	</g>
	<g>
		<line class="st22" x1="145.9" y1="409.6" x2="127.1" y2="409.6"/>
		<polygon class="st21" points="127.9,414.1 120.6,409.8 127.9,405.6 		"/>
	</g>
	<g>
		<path class="st20" d="M165.3,122.3c0,0-30.3,23.3-60.7,0"/>
		<polygon class="st21" points="103.9,126.6 100.9,118.7 109.3,120 		"/>
	</g>
	<g>
		<path class="st20" d="M99.9,284.7c0,0,30.3,23.3,60.7,0"/>
		<polygon class="st21" points="161.3,288.9 164.3,281 156,282.4 		"/>
	</g>
	<g>
		<path class="st20" d="M230.9,284.7c0,0,30.3,23.3,60.7,0"/>
		<polygon class="st21" points="292.3,288.9 295.3,281 287,282.4 		"/>
	</g>
	<line class="st23" x1="43.7" y1="282" x2="43.7" y2="294.7"/>
	<line class="st24" x1="126.6" y1="210.2" x2="126.6" y2="220.8"/>
	<path class="st21" d="M94.7,289.3"/>
	<g>
		<path class="st20" d="M82.7,292c0,0,14,30,115.3,30s123.3-28,123.3-28"/>
		<polyline class="st21" points="321.8,299.4 324.8,291.5 316.5,292.9 		"/>
	</g>
	<line class="st24" x1="126.6" y1="45.2" x2="126.6" y2="55.8"/>
	<line class="st24" x1="348.6" y1="411.2" x2="348.6" y2="433.8"/>
	<line class="st24" x1="504.6" y1="153.4" x2="504.6" y2="173.8"/>
</g>
<g id="TXT">
	<text transform="matrix(1 0 0 1 25.3335 77.7778)" class="st25 st26">Inficeret kropscelle</text>
	<text transform="matrix(1 0 0 1 159.3335 77.7777)" class="st25 st26">T-dræberlymfocyt</text>
	<text transform="matrix(1 0 0 1 382.3336 77.7778)" class="st25 st26">T-huskelymfocyt</text>
	<text transform="matrix(1 0 0 1 8.3334 304)" class="st21 st25 st26">Mikroorganisme</text>
	<text transform="matrix(1 0 0 1 117.0002 145.3332)" class="st21 st25 st26">Perforin</text>
	<text transform="matrix(1 0 0 1 146.3333 311.3177)" class="st21 st25 st26">Cytokiner</text>
	<text transform="matrix(1 0 0 1 378.1111 306.7654)" class="st21 st25 st26">Celledeling</text>
	<text transform="matrix(1 0 0 1 45.3332 234)" class="st25 st26">Makrofag</text>
	<text transform="matrix(1 0 0 1 163.6665 401.6667)"><tspan x="0" y="0" class="st25 st26">Makrofag optager</tspan><tspan x="0" y="10.8" class="st25 st26">antistof &amp;</tspan><tspan x="0" y="21.6" class="st25 st26">mikroorganisme</tspan></text>
	<text transform="matrix(1 0 0 1 159.6653 242)" class="st25 st26">T-hjælpelymfocyt</text>
	<text transform="matrix(1 0 0 1 304.666 242)" class="st25 st26">B-lymfocyt</text>
	<text transform="matrix(1 0 0 1 457.6653 242)" class="st25 st26">B-huskelymfocyt</text>
	<text transform="matrix(1 0 0 1 392.6665 385.3333)" class="st25 st26">Plasmacelle</text>
	<text transform="matrix(1 0 0 1 110.1533 205.5385)" class="st21 st25 st26">MHC-II</text>
	<text transform="matrix(1 0 0 1 110.0001 41.1867)" class="st21 st25 st26">MHC-I</text>
	<text transform="matrix(1 0 0 1 313.1111 444.7654)" class="st21 st25 st26">Antistof i blodet</text>
	<text transform="matrix(1 0 0 1 468.1111 148.7654)" class="st21 st25 st26">Antistof i membran</text>
</g>
</svg>
