<?xml version="1.0" encoding="utf-8"?>
<!-- Generator: Adobe Illustrator 19.1.0, SVG Export Plug-In . SVG Version: 6.00 Build 0)  -->
<svg version="1.1" xmlns="http://www.w3.org/2000/svg" xmlns:xlink="http://www.w3.org/1999/xlink" x="0px" y="0px"
	 viewBox="0 0 269.3 487.6" style="enable-background:new 0 0 269.3 487.6;" xml:space="preserve">
<style type="text/css">
	.st0{fill:url(#SVGID_1_);}
	.st1{fill:#FFFFFF;}
	.st2{fill:#E95E35;}
	.st3{fill:none;stroke:#000000;stroke-width:0.5;stroke-miterlimit:10;}
	.st4{fill:#E95E35;stroke:#000000;stroke-width:0.5;stroke-miterlimit:10;}
	.st5{fill:#70B221;stroke:#000000;stroke-width:0.5;stroke-miterlimit:10;}
	.st6{fill:#7AB51D;stroke:#000000;stroke-width:0.5;stroke-miterlimit:10;}
	.st7{fill:url(#SVGID_2_);stroke:#000000;stroke-width:0.5;stroke-miterlimit:10;}
	.st8{fill:url(#SVGID_3_);}
	.st9{fill:#EBF6FC;stroke:#000000;stroke-width:0.5;}
	.st10{stroke:#000000;stroke-width:0.25;}
	.st11{fill:#66C2CC;stroke:#FFFFFF;stroke-width:0.5;stroke-miterlimit:10;}
	.st12{fill:none;stroke:#FFFFFF;}
	.st13{fill:none;stroke:#000000;}
	.st14{fill:none;stroke:#000000;stroke-width:0.5;}
	.st15{fill:none;stroke:#FFFFFF;stroke-width:0.5;}
	.st16{font-family:'Verdana';}
	.st17{font-size:9px;}
</style>
<g id="Lag_7">
	
		<radialGradient id="SVGID_1_" cx="134.645" cy="109.0724" r="122.1256" gradientTransform="matrix(1 0 0 2.2537 0 -2.0412)" gradientUnits="userSpaceOnUse">
		<stop  offset="0.5699" style="stop-color:#BDE4F7"/>
		<stop  offset="0.6116" style="stop-color:#B1D5ED"/>
		<stop  offset="0.6931" style="stop-color:#91B0D5"/>
		<stop  offset="0.8064" style="stop-color:#6477AE"/>
		<stop  offset="0.9458" style="stop-color:#2F3781"/>
		<stop  offset="1" style="stop-color:#122475"/>
	</radialGradient>
	<rect x="0" class="st0" width="269.3" height="487.6"/>
</g>
<g id="Lag_11">
	<rect x="200" y="431" class="st1" width="48.5" height="15.5"/>
</g>
<g id="Lag_10">
	<g>
		<g>
			<path class="st2" d="M199.6,141.4l-3.1,2.1l-2-2.9l2.9-2l-1.4-2.2l-0.1,0l-0.4-0.5c-1.8,1.3-4.4,0.8-5.6-1
				c-1.3-1.8-0.8-4.4,1-5.6l-0.4-0.5l-18.9,13.1l5.3,7.7l0,0l5,7.2l19-13.2L199.6,141.4z"/>
		</g>
		<g>
			<path class="st3" d="M199.6,141.4l-3.1,2.1l-2-2.9l2.9-2l-1.4-2.2l-0.1,0l-0.4-0.5c-1.8,1.3-4.4,0.8-5.6-1
				c-1.3-1.8-0.8-4.4,1-5.6l-0.4-0.5l-18.9,13.1l5.3,7.7l0,0l5,7.2l19-13.2L199.6,141.4z"/>
		</g>
	</g>
	<g>
		<g>
			<path class="st2" d="M80.1,165.6L80.1,165.6l-0.1-8.8L56.9,157l0,2.6l3.7,0l0,3.6l-3.6,0l-0.1,2.6l0.1,0l0,0.6h0
				c2.2,0,4.1,1.8,4.1,4c0,2.2-1.8,4.1-4,4.1l0,0.6l23-0.2L80.1,165.6z"/>
		</g>
		<g>
			<path class="st3" d="M80.1,165.6L80.1,165.6l-0.1-8.8L56.9,157l0,2.6l3.7,0l0,3.6l-3.6,0l-0.1,2.6l0.1,0l0,0.6h0
				c2.2,0,4.1,1.8,4.1,4c0,2.2-1.8,4.1-4,4.1l0,0.6l23-0.2L80.1,165.6z"/>
		</g>
	</g>
	<g>
		<g>
			<path class="st2" d="M113.7,128.5l-8.7-21.4l-2.4,0.9l1.3,3.5l-3.3,1.3l-1.3-3.3l-2.4,0.9l0,0.1l-0.6,0.2
				c0.8,2.1-0.2,4.4-2.2,5.3c-2.1,0.8-4.4-0.2-5.3-2.2l-0.6,0.2l8.6,21.4l8.7-3.5l0,0L113.7,128.5z"/>
		</g>
		<g>
			<path class="st3" d="M113.7,128.5l-8.7-21.4l-2.4,0.9l1.3,3.5l-3.3,1.3l-1.3-3.3l-2.4,0.9l0,0.1l-0.6,0.2
				c0.8,2.1-0.2,4.4-2.2,5.3c-2.1,0.8-4.4-0.2-5.3-2.2l-0.6,0.2l8.6,21.4l8.7-3.5l0,0L113.7,128.5z"/>
		</g>
	</g>
	<g>
		<rect x="120.9" y="210.9" class="st4" width="22.1" height="26"/>
		<polygon class="st5" points="131.6,227.7 125.8,227.7 125.8,232.2 120.9,232.2 120.9,256.2 143,256.2 143,232.2 131.6,232.2 		"/>
	</g>
	<path class="st6" d="M56.6,341.5C56.6,341.5,56.6,341.4,56.6,341.5c1.8-0.9,3.9-0.2,4.8,1.5c0.9,1.7,0.1,3.8-1.6,4.7
		c0,0-0.1,0-0.1,0l1.2,2.3l-4,2l2.6,5.3l4-2l2.1,4.3L87.2,349l-9.8-19.8l-21.6,10.7L56.6,341.5z"/>
</g>
<g id="Lag_9">
	<radialGradient id="SVGID_2_" cx="131.5875" cy="166.2727" r="53.435" gradientUnits="userSpaceOnUse">
		<stop  offset="0" style="stop-color:#FFFAC9"/>
		<stop  offset="0.1643" style="stop-color:#FFF8C6"/>
		<stop  offset="0.3136" style="stop-color:#FFF4BC"/>
		<stop  offset="0.4571" style="stop-color:#FFEEAA"/>
		<stop  offset="0.5971" style="stop-color:#FFE490"/>
		<stop  offset="0.7344" style="stop-color:#FFD86D"/>
		<stop  offset="0.868" style="stop-color:#FDCA40"/>
		<stop  offset="1" style="stop-color:#FAB900"/>
	</radialGradient>
	<path class="st7" d="M189.2,166.3c0,29.4-28.2,48.8-57.7,48.8s-57.7-19.4-57.7-48.8s28.2-48.8,57.7-48.8S189.2,136.9,189.2,166.3z"
		/>
</g>
<g id="Lag_1">
	<g>
		<g>
			<radialGradient id="SVGID_3_" cx="132.6411" cy="314.0156" r="64.7788" gradientUnits="userSpaceOnUse">
				<stop  offset="0" style="stop-color:#F7AD53"/>
				<stop  offset="0.1315" style="stop-color:#F6A950"/>
				<stop  offset="0.2988" style="stop-color:#F39C47"/>
				<stop  offset="0.4857" style="stop-color:#EF863B"/>
				<stop  offset="0.6866" style="stop-color:#EA652C"/>
				<stop  offset="0.8967" style="stop-color:#E5351F"/>
				<stop  offset="1" style="stop-color:#E2001A"/>
			</radialGradient>
			<path class="st8" d="M165.7,347.4c0-8.9,7.2-16.1,16.1-16.1c4,0,7.6,1.4,10.4,3.8c2.3-6.6,3.6-13.7,3.6-21.1
				c0-35.5-28.8-64.2-64.2-64.2c-35.5,0-64.2,28.8-64.2,64.2c0,35.5,28.8,64.2,64.2,64.2c16.5,0,31.6-6.2,43-16.5
				C169.3,359.1,165.7,353.7,165.7,347.4z"/>
		</g>
		<g>
			<path class="st3" d="M165.7,347.4c0-8.9,7.2-16.1,16.1-16.1c4,0,7.6,1.4,10.4,3.8c2.3-6.6,3.6-13.7,3.6-21.1
				c0-35.5-28.8-64.2-64.2-64.2c-35.5,0-64.2,28.8-64.2,64.2c0,35.5,28.8,64.2,64.2,64.2c16.5,0,31.6-6.2,43-16.5
				C169.3,359.1,165.7,353.7,165.7,347.4z"/>
		</g>
	</g>
</g>
<g id="Lag_2">
</g>
<g id="Lag_3">
	<circle class="st9" cx="169.7" cy="309.3" r="17.7"/>
</g>
<g id="Lag_4">
	<circle class="st10" cx="176.5" cy="315.8" r="1.2"/>
	<circle class="st10" cx="176.3" cy="308" r="1.2"/>
	<circle class="st10" cx="171" cy="310.2" r="1.2"/>
	<circle class="st10" cx="170.7" cy="303.3" r="1.2"/>
	<circle class="st10" cx="166.3" cy="308" r="1.2"/>
	<circle class="st10" cx="168.7" cy="313.5" r="1.2"/>
	<circle class="st10" cx="161.5" cy="317.3" r="1.2"/>
	<circle class="st10" cx="165.8" cy="323.7" r="1.2"/>
	<circle class="st10" cx="176.2" cy="303.8" r="1.2"/>
	<circle class="st10" cx="173.7" cy="295" r="1.2"/>
	<circle class="st10" cx="163.3" cy="296" r="1.2"/>
	<circle class="st10" cx="162.3" cy="300.5" r="1.2"/>
	<circle class="st10" cx="184.3" cy="313.2" r="1.2"/>
	<circle class="st10" cx="182" cy="335.7" r="1.2"/>
	<circle class="st10" cx="175.8" cy="337.3" r="1.2"/>
	<circle class="st10" cx="181.2" cy="342.2" r="1.2"/>
	<circle class="st10" cx="178" cy="346.8" r="1.2"/>
	<circle class="st10" cx="179.8" cy="354" r="1.2"/>
	<circle class="st10" cx="187.2" cy="354" r="1.2"/>
	<circle class="st10" cx="188.8" cy="348" r="1.2"/>
	<circle class="st10" cx="199" cy="347.3" r="1.2"/>
	<circle class="st10" cx="210.5" cy="350" r="1.2"/>
	<circle class="st10" cx="208.8" cy="359.7" r="1.2"/>
	<circle class="st10" cx="220.2" cy="362" r="1.2"/>
	<circle class="st10" cx="219.7" cy="371.7" r="1.2"/>
	<circle class="st10" cx="228.9" cy="366.9" r="1.2"/>
	<circle class="st10" cx="230.8" cy="377.6" r="1.2"/>
	<circle class="st10" cx="232" cy="359.4" r="1.2"/>
	<circle class="st10" cx="241.4" cy="355.6" r="1.2"/>
	<circle class="st10" cx="243.3" cy="366.3" r="1.2"/>
	<circle class="st10" cx="175.8" cy="342.3" r="1.2"/>
	<circle class="st10" cx="171" cy="339.3" r="1.2"/>
	<circle class="st10" cx="172" cy="348.2" r="1.2"/>
	<circle class="st10" cx="173.3" cy="355.5" r="1.2"/>
	<circle class="st10" cx="185.8" cy="365.7" r="1.2"/>
	<circle class="st10" cx="196.2" cy="363.5" r="1.2"/>
	<circle class="st10" cx="199" cy="380.2" r="1.2"/>
	<circle class="st10" cx="208.7" cy="371.8" r="1.2"/>
	<circle class="st10" cx="214" cy="386.7" r="1.2"/>
	<circle class="st11" cx="92.7" cy="112" r="3.5"/>
	<circle class="st11" cx="92" cy="99.7" r="3.5"/>
	<circle class="st11" cx="69.5" cy="99.7" r="3.5"/>
	<circle class="st11" cx="47.8" cy="79.8" r="3.5"/>
	<path class="st11" d="M141,232.7c0,1.9-1.6,3.5-3.5,3.5c-1.9,0-3.5-1.6-3.5-3.5c0-1.9,1.6-3.5,3.5-3.5
		C139.4,229.2,141,230.8,141,232.7"/>
</g>
<g id="pile">
	<g>
		<line class="st12" x1="224.8" y1="330.3" x2="224.8" y2="350.7"/>
		<polygon class="st1" points="229.2,345.9 224.8,353.6 220.4,345.9 		"/>
	</g>
	<g>
		<line class="st13" x1="197.4" y1="229.1" x2="149" y2="229.1"/>
		<polygon points="153.8,233.5 146.1,229.1 153.8,224.7 		"/>
	</g>
	<g>
		<line class="st12" x1="223.8" y1="398.3" x2="223.8" y2="418.7"/>
		<line class="st12" x1="226.1" y1="398.3" x2="226.1" y2="418.7"/>
	</g>
	<polygon class="st1" points="229.4,414.9 224.9,422.6 220.5,414.9 	"/>
	<path class="st14" d="M118.7,238.8"/>
	<path class="st14" d="M101.5,238.8"/>
	<line class="st14" x1="94.5" y1="220" x2="118.7" y2="220"/>
	<line class="st15" x1="48.5" y1="51.7" x2="48.5" y2="73.6"/>
</g>
<g id="txt">
	<text transform="matrix(1 0 0 1 45.3447 46.7192)" class="st1 st16 st17">Nikkelmolekyle (allergen)</text>
	<text transform="matrix(1 0 0 1 203.1816 323.7544)" class="st1 st16 st17">Cytokiner</text>
	<text transform="matrix(1 0 0 1 203.1816 231.7017)"><tspan x="0" y="0" class="st16 st17">Udstillet</tspan><tspan x="0" y="10.8" class="st16 st17">allergen</tspan></text>
	<text transform="matrix(1 0 0 1 208.8418 442.1269)" class="st16 st17">EKSEM</text>
	<text transform="matrix(1 0 0 1 94.5566 319.0312)" class="st16 st17">T-lymfocyt</text>
	<text transform="matrix(1 0 0 1 110.0566 170.1904)" class="st16 st17">Makrofag</text>
	<text transform="matrix(1 0 0 1 58.3062 222.9404)" class="st16 st17">MHC-II</text>
</g>
</svg>
