<?xml version="1.0" encoding="utf-8"?>
<!-- Generator: Adobe Illustrator 19.1.0, SVG Export Plug-In . SVG Version: 6.00 Build 0)  -->
<svg version="1.1" xmlns="http://www.w3.org/2000/svg" xmlns:xlink="http://www.w3.org/1999/xlink" x="0px" y="0px"
	 viewBox="0 0 269.3 487.6" style="enable-background:new 0 0 269.3 487.6;" xml:space="preserve">
<style type="text/css">
	.st0{fill:url(#SVGID_1_);}
	.st1{fill:none;stroke:#28A22D;stroke-width:1.5;}
	.st2{fill:#1BBBE9;stroke:#000000;stroke-width:0.5;stroke-miterlimit:10;}
	.st3{fill:#005A2F;stroke:#000000;stroke-width:0.5;stroke-miterlimit:10;}
	.st4{fill:#66C2CC;stroke:#FFFFFF;stroke-width:0.5;stroke-miterlimit:10;}
	.st5{fill:#64C1CC;stroke:#FFFFFF;stroke-width:0.5;stroke-miterlimit:10;}
	.st6{fill:#70B221;stroke:#000000;stroke-width:0.5;stroke-miterlimit:10;}
	.st7{fill:#E95E35;stroke:#000000;stroke-width:0.5;stroke-miterlimit:10;}
	.st8{fill:none;stroke:#000000;}
	.st9{fill:url(#SVGID_2_);stroke:#000000;stroke-width:0.5;stroke-miterlimit:10;}
	.st10{fill:url(#SVGID_3_);stroke:#000000;stroke-width:0.5;}
	.st11{fill:url(#SVGID_4_);stroke:#000000;stroke-width:0.5;stroke-miterlimit:10;}
	.st12{fill:url(#SVGID_5_);stroke:#000000;stroke-width:0.5;}
	.st13{font-family:'Verdana';}
	.st14{font-size:9px;}
	.st15{fill:url(#SVGID_6_);}
	.st16{fill:none;stroke:#000000;stroke-width:0.5;stroke-miterlimit:10;}
	.st17{fill:#D50073;stroke:#FFFFFF;stroke-width:0.3929;}
	.st18{fill:#E39AB9;stroke:#FFFFFF;stroke-width:0.3929;}
	.st19{fill:#E39AB9;stroke:#000000;stroke-width:0.4665;}
	.st20{fill:url(#SVGID_7_);stroke:#000000;stroke-width:0.5;stroke-miterlimit:10;}
	.st21{fill:none;stroke:#000000;stroke-width:0.75;}
	.st22{fill:none;stroke:#000000;stroke-width:2;}
	.st23{fill:#FFFFFF;}
</style>
<g id="Lag_6">
	
		<radialGradient id="SVGID_1_" cx="134.6464" cy="109.0724" r="122.1256" gradientTransform="matrix(1 0 0 2.2537 0 -2.0412)" gradientUnits="userSpaceOnUse">
		<stop  offset="0.5699" style="stop-color:#BDE4F7"/>
		<stop  offset="0.6116" style="stop-color:#B1D5ED"/>
		<stop  offset="0.6931" style="stop-color:#91B0D5"/>
		<stop  offset="0.8064" style="stop-color:#6477AE"/>
		<stop  offset="0.9458" style="stop-color:#2F3781"/>
		<stop  offset="1" style="stop-color:#122475"/>
	</radialGradient>
	<rect x="0" class="st0" width="269.3" height="487.6"/>
</g>
<g id="Lag_1">
	<g>
		<line class="st1" x1="211.6" y1="240.1" x2="214.5" y2="245.7"/>
		<polyline class="st1" points="220,243.3 214.4,245.6 211.7,254.4 		"/>
	</g>
	<g>
		<line class="st1" x1="226.9" y1="219.1" x2="229.4" y2="213.4"/>
		<polyline class="st1" points="224.1,210.6 229.4,213.5 238,210.1 		"/>
	</g>
	<g>
		<line class="st1" x1="208.5" y1="216.6" x2="210.9" y2="222.4"/>
		<polyline class="st1" points="216.6,220.4 210.9,222.3 207.6,230.9 		"/>
	</g>
	<g>
		<line class="st1" x1="174.2" y1="220.3" x2="180.3" y2="221.8"/>
		<polyline class="st1" points="182.2,216.1 180.2,221.8 185,229.7 		"/>
	</g>
	<g>
		<line class="st1" x1="166.4" y1="218.2" x2="162.6" y2="213.2"/>
		<polyline class="st1" points="157.6,216.6 162.7,213.3 163.7,204.1 		"/>
	</g>
	<g>
		<line class="st1" x1="231.3" y1="243.6" x2="231.8" y2="249.9"/>
		<polyline class="st1" points="237.8,249.9 231.8,249.8 225.7,256.8 		"/>
	</g>
	<g>
		<line class="st1" x1="162.8" y1="247.8" x2="162.3" y2="254"/>
		<polyline class="st1" points="156.3,254 162.4,253.9 168.4,260.9 		"/>
	</g>
	<g>
		<line class="st1" x1="179.6" y1="238.1" x2="176.7" y2="243.6"/>
		<polyline class="st1" points="171.1,241.2 176.8,243.5 179.5,252.4 		"/>
	</g>
	<g>
		<line class="st1" x1="193.3" y1="233.4" x2="197.5" y2="238"/>
		<polyline class="st1" points="202.2,234.2 197.4,237.9 197.1,247.2 		"/>
	</g>
	<g>
		<line class="st1" x1="211.6" y1="355.8" x2="214.5" y2="361.3"/>
		<polyline class="st1" points="220,359 214.4,361.2 211.7,370.1 		"/>
	</g>
	<g>
		<line class="st1" x1="227.9" y1="363.4" x2="228.3" y2="369.7"/>
		<polyline class="st1" points="234.4,369.7 228.3,369.6 222.3,376.6 		"/>
	</g>
	<g>
		<line class="st1" x1="162.8" y1="363.4" x2="162.3" y2="369.7"/>
		<polyline class="st1" points="156.3,369.7 162.4,369.6 168.4,376.6 		"/>
	</g>
	<g>
		<line class="st1" x1="180" y1="355.8" x2="177.1" y2="361.3"/>
		<polyline class="st1" points="171.6,359 177.2,361.2 179.9,370.1 		"/>
	</g>
	<g>
		<line class="st1" x1="193.3" y1="353.1" x2="197.5" y2="357.7"/>
		<polyline class="st1" points="202.2,353.9 197.4,357.6 197.1,366.8 		"/>
	</g>
	<g>
		<line class="st1" x1="211.6" y1="120.4" x2="214.5" y2="125.9"/>
		<polyline class="st1" points="220,123.5 214.4,125.8 211.7,134.7 		"/>
	</g>
	<line class="st2" x1="114.3" y1="161" x2="114.3" y2="185.7"/>
	<line class="st3" x1="160.7" y1="185.7" x2="160.7" y2="161"/>
	<circle class="st4" cx="165.8" cy="359.9" r="3.9"/>
	<circle class="st4" cx="208" cy="353.5" r="3.9"/>
	<circle class="st4" cx="225" cy="360" r="3.9"/>
	<circle class="st4" cx="209.5" cy="116" r="3.9"/>
	<circle class="st5" cx="150.5" cy="19.5" r="3.9"/>
	<g>
		<rect x="59.6" y="107.2" class="st6" width="30.5" height="35.9"/>
		<polygon class="st7" points="75.3,112 83.4,112 83.4,119.2 90.1,119.2 90.1,85.9 59.6,85.9 59.6,119.2 75.3,119.2 		"/>
	</g>
	<rect x="109.6" y="157.2" class="st6" width="35.9" height="30.5"/>
	<polygon class="st7" points="140.6,172.1 140.6,163.9 133.5,163.9 133.5,157.2 166.8,157.2 166.8,187.7 133.5,187.7 133.5,172.1 	
		"/>
	<circle class="st5" cx="132.5" cy="179.5" r="3.9"/>
	<circle class="st5" cx="67.5" cy="119.5" r="3.9"/>
</g>
<g id="Lag_4">
	<polyline class="st8" points="198.8,244 198.8,251 195.5,251 195.5,244 	"/>
	<polyline class="st8" points="179.4,246.8 181.4,253.5 178.3,254.5 176.2,247.8 	"/>
	<polyline class="st8" points="164.9,254.7 169.8,259.7 167.4,262 162.5,257 	"/>
	<polyline class="st8" points="212.2,247 210,253.6 213.1,254.7 215.4,248 	"/>
	<polyline class="st8" points="225.9,254.3 221.3,259.5 223.7,261.7 228.4,256.5 	"/>
	<polyline class="st8" points="198.8,359.7 198.8,366.7 195.5,366.7 195.5,359.7 	"/>
	<polyline class="st8" points="179.4,362.5 181.4,369.2 178.3,370.2 176.2,363.5 	"/>
	<polyline class="st8" points="164.9,370.3 169.8,375.4 167.4,377.7 162.5,372.6 	"/>
	<polyline class="st8" points="212.2,362.7 210,369.3 213.1,370.3 215.4,363.7 	"/>
	<polyline class="st8" points="225.9,369.9 221.3,375.2 223.7,377.4 228.4,372.2 	"/>
</g>
<g id="Lag_2">
	<radialGradient id="SVGID_2_" cx="74.9492" cy="173.3003" r="42.2019" gradientUnits="userSpaceOnUse">
		<stop  offset="0" style="stop-color:#F7AD53"/>
		<stop  offset="0.1315" style="stop-color:#F6A950"/>
		<stop  offset="0.2988" style="stop-color:#F39C47"/>
		<stop  offset="0.4857" style="stop-color:#EF863B"/>
		<stop  offset="0.6866" style="stop-color:#EA652C"/>
		<stop  offset="0.8967" style="stop-color:#E5351F"/>
		<stop  offset="1" style="stop-color:#E2001A"/>
	</radialGradient>
	<circle class="st9" cx="74.9" cy="173.3" r="42.2"/>
	<radialGradient id="SVGID_3_" cx="195.7656" cy="173.3003" r="42.2019" gradientUnits="userSpaceOnUse">
		<stop  offset="0" style="stop-color:#FFFFFF"/>
		<stop  offset="1" style="stop-color:#262626"/>
	</radialGradient>
	<circle class="st10" cx="195.8" cy="173.3" r="42.2"/>
	<radialGradient id="SVGID_4_" cx="195.7656" cy="293.747" r="42.2021" gradientUnits="userSpaceOnUse">
		<stop  offset="0" style="stop-color:#E2007A"/>
		<stop  offset="1" style="stop-color:#644692"/>
	</radialGradient>
	<circle class="st11" cx="195.8" cy="293.7" r="42.2"/>
	<radialGradient id="SVGID_5_" cx="195.7656" cy="409.4844" r="8.1758" gradientUnits="userSpaceOnUse">
		<stop  offset="0" style="stop-color:#FFFFFF"/>
		<stop  offset="1" style="stop-color:#000000"/>
	</radialGradient>
	<circle class="st12" cx="195.8" cy="409.5" r="8.2"/>
	<text transform="matrix(1 0 0 1 176.9873 390.9585)" class="st13 st14">T-hjælpe</text>
	<g>
		<g>
			<radialGradient id="SVGID_6_" cx="191.6948" cy="409.4854" r="44.2843" gradientUnits="userSpaceOnUse">
				<stop  offset="0" style="stop-color:#E2007A"/>
				<stop  offset="1" style="stop-color:#644692"/>
			</radialGradient>
			<path class="st15" d="M195.8,367.3c-22.6,0-41,17.7-42.1,40c0.3,0,0.7-0.1,1-0.1c5.1,0,9.2,4.1,9.2,9.2c0,4.4-3.1,8-7.2,9
				c6.3,15.4,21.4,26.3,39.1,26.3c10,0,19.3-3.5,26.5-9.4c-2.3-1.7-3.8-4.4-3.8-7.5c0-5.1,4.1-9.2,9.2-9.2c2.3,0,4.4,0.9,6.1,2.3
				c2.7-5.6,4.2-11.8,4.2-18.5C238,386.2,219.1,367.3,195.8,367.3z"/>
		</g>
		<g>
			<path class="st16" d="M195.8,367.3c-22.6,0-41,17.7-42.1,40c0.3,0,0.7-0.1,1-0.1c5.1,0,9.2,4.1,9.2,9.2c0,4.4-3.1,8-7.2,9
				c6.3,15.4,21.4,26.3,39.1,26.3c10,0,19.3-3.5,26.5-9.4c-2.3-1.7-3.8-4.4-3.8-7.5c0-5.1,4.1-9.2,9.2-9.2c2.3,0,4.4,0.9,6.1,2.3
				c2.7-5.6,4.2-11.8,4.2-18.5C238,386.2,219.1,367.3,195.8,367.3z"/>
		</g>
	</g>
	<g>
		<circle class="st17" cx="167.7" cy="281.8" r="7.2"/>
		<circle class="st18" cx="168.6" cy="281" r="1.2"/>
		<circle class="st18" cx="167.6" cy="277.4" r="1.2"/>
		<circle class="st18" cx="163.2" cy="280.2" r="1.2"/>
		<circle class="st18" cx="165.1" cy="283.4" r="1.2"/>
		<circle class="st18" cx="170.9" cy="285.8" r="1.2"/>
		<circle class="st18" cx="173.1" cy="281" r="1.2"/>
	</g>
	<g>
		<circle class="st17" cx="169.1" cy="309.9" r="7.2"/>
		<circle class="st18" cx="170" cy="309.1" r="1.2"/>
		<circle class="st18" cx="169" cy="305.5" r="1.2"/>
		<circle class="st18" cx="164.6" cy="308.3" r="1.2"/>
		<circle class="st18" cx="166.5" cy="311.5" r="1.2"/>
		<circle class="st18" cx="172.4" cy="313.9" r="1.2"/>
		<circle class="st18" cx="174.5" cy="309.1" r="1.2"/>
	</g>
	<g>
		<circle class="st17" cx="224.9" cy="284.4" r="7.2"/>
		<circle class="st18" cx="225.8" cy="283.6" r="1.2"/>
		<circle class="st18" cx="224.8" cy="280" r="1.2"/>
		<circle class="st18" cx="220.4" cy="282.7" r="1.2"/>
		<circle class="st18" cx="222.3" cy="286" r="1.2"/>
		<circle class="st18" cx="228.1" cy="288.4" r="1.2"/>
		<circle class="st18" cx="230.3" cy="283.5" r="1.2"/>
	</g>
	<g>
		<circle class="st17" cx="216.1" cy="314.8" r="7.2"/>
		<circle class="st18" cx="217" cy="314" r="1.2"/>
		<circle class="st18" cx="216" cy="310.4" r="1.2"/>
		<circle class="st18" cx="211.6" cy="313.1" r="1.2"/>
		<circle class="st18" cx="213.6" cy="316.4" r="1.2"/>
		<circle class="st18" cx="219.4" cy="318.8" r="1.2"/>
		<circle class="st18" cx="221.6" cy="313.9" r="1.2"/>
	</g>
	<g>
		<circle class="st17" cx="226.2" cy="400.1" r="7.2"/>
		<circle class="st18" cx="227.1" cy="399.3" r="1.2"/>
		<circle class="st18" cx="226.1" cy="395.7" r="1.2"/>
		<circle class="st18" cx="221.7" cy="398.5" r="1.2"/>
		<circle class="st18" cx="223.6" cy="401.7" r="1.2"/>
		<circle class="st18" cx="229.4" cy="404.2" r="1.2"/>
		<circle class="st18" cx="231.6" cy="399.3" r="1.2"/>
	</g>
	<g>
		<circle class="st17" cx="179.4" cy="424.5" r="7.2"/>
		<circle class="st18" cx="180.3" cy="423.8" r="1.2"/>
		<circle class="st18" cx="179.3" cy="420.1" r="1.2"/>
		<circle class="st18" cx="174.9" cy="422.9" r="1.2"/>
		<circle class="st18" cx="176.9" cy="426.1" r="1.2"/>
		<circle class="st18" cx="182.7" cy="428.6" r="1.2"/>
		<circle class="st18" cx="184.9" cy="423.7" r="1.2"/>
	</g>
	<g>
		<circle class="st17" cx="208.4" cy="437.6" r="7.2"/>
		<circle class="st18" cx="209.3" cy="436.8" r="1.2"/>
		<circle class="st18" cx="208.3" cy="433.2" r="1.2"/>
		<circle class="st18" cx="203.9" cy="436" r="1.2"/>
		<circle class="st18" cx="205.9" cy="439.2" r="1.2"/>
		<circle class="st18" cx="211.7" cy="441.7" r="1.2"/>
		<circle class="st18" cx="213.9" cy="436.8" r="1.2"/>
	</g>
	<circle class="st19" cx="230.1" cy="433.6" r="1.5"/>
	<circle class="st19" cx="223" cy="433.5" r="1.5"/>
	<circle class="st19" cx="224.8" cy="428.8" r="1.5"/>
	<circle class="st19" cx="226.8" cy="439.5" r="1.5"/>
	<circle class="st19" cx="159.2" cy="413.5" r="1.5"/>
	<circle class="st19" cx="156.5" cy="419.5" r="1.5"/>
	<circle class="st19" cx="151.8" cy="413.5" r="1.5"/>
	<circle class="st19" cx="147.5" cy="418.5" r="1.5"/>
	<circle class="st19" cx="146.5" cy="427.5" r="1.5"/>
	<circle class="st19" cx="139.5" cy="423.8" r="1.5"/>
	<circle class="st19" cx="131" cy="433.5" r="1.5"/>
	<circle class="st19" cx="119.8" cy="429.5" r="1.5"/>
	<circle class="st19" cx="114.8" cy="442.2" r="1.5"/>
	<circle class="st19" cx="108.2" cy="438" r="1.5"/>
	<circle class="st19" cx="100.2" cy="457.2" r="1.5"/>
	<circle class="st19" cx="122" cy="415.8" r="1.5"/>
	<circle class="st19" cx="230.5" cy="449.8" r="1.5"/>
	<circle class="st19" cx="237.5" cy="443.2" r="1.5"/>
	<circle class="st19" cx="239.5" cy="452.8" r="1.5"/>
	<circle class="st19" cx="250.8" cy="446" r="1.5"/>
	<circle class="st19" cx="254.5" cy="459.5" r="1.5"/>
	<circle class="st19" cx="246.5" cy="465" r="1.5"/>
	<circle class="st19" cx="252" cy="476" r="1.5"/>
	<circle class="st19" cx="234" cy="463" r="1.5"/>
	<circle class="st19" cx="237.5" cy="474" r="1.5"/>
	<circle class="st19" cx="225.5" cy="476.8" r="1.5"/>
	<circle class="st19" cx="223.2" cy="472" r="1.5"/>
	<circle class="st19" cx="217.2" cy="477.5" r="1.5"/>
	<circle class="st19" cx="245.5" cy="438.8" r="1.5"/>
	<radialGradient id="SVGID_7_" cx="72.4144" cy="55.0622" r="48.5123" gradientUnits="userSpaceOnUse">
		<stop  offset="0" style="stop-color:#FFFAC9"/>
		<stop  offset="0.1643" style="stop-color:#FFF8C6"/>
		<stop  offset="0.3136" style="stop-color:#FFF4BC"/>
		<stop  offset="0.4571" style="stop-color:#FFEEAA"/>
		<stop  offset="0.5971" style="stop-color:#FFE490"/>
		<stop  offset="0.7344" style="stop-color:#FFD86D"/>
		<stop  offset="0.868" style="stop-color:#FDCA40"/>
		<stop  offset="1" style="stop-color:#FAB900"/>
	</radialGradient>
	<path class="st20" d="M124.8,55.1c0,26.7-25.6,44.3-52.3,44.3S20.1,81.8,20.1,55.1s25.6-44.3,52.3-44.3S124.8,28.4,124.8,55.1z"/>
	<g>
		<circle class="st17" cx="190.1" cy="319.9" r="7.2"/>
		<circle class="st18" cx="191" cy="319.1" r="1.2"/>
		<circle class="st18" cx="190" cy="315.5" r="1.2"/>
		<circle class="st18" cx="185.6" cy="318.3" r="1.2"/>
		<circle class="st18" cx="187.5" cy="321.5" r="1.2"/>
		<circle class="st18" cx="193.4" cy="323.9" r="1.2"/>
		<circle class="st18" cx="195.5" cy="319.1" r="1.2"/>
	</g>
</g>
<g id="streger">
	<path class="st21" d="M121.7,31.6"/>
	<path class="st21" d="M143.4,21.1"/>
	<line class="st21" x1="86.9" y1="102.6" x2="117.2" y2="102.6"/>
	<path class="st21" d="M107.9,126.3"/>
	<path class="st21" d="M86.9,126.3"/>
	<line class="st21" x1="136.9" y1="213.8" x2="154.6" y2="213.8"/>
	<line class="st21" x1="136.2" y1="250.1" x2="156.6" y2="250.1"/>
	<line class="st21" x1="117.8" y1="380.9" x2="142.8" y2="413.8"/>
	<g>
		<line class="st22" x1="196.1" y1="228.1" x2="196.1" y2="217.7"/>
		<polygon points="191.3,225.1 196.1,233.3 200.8,225.1 		"/>
	</g>
	<g>
		<line class="st22" x1="131.8" y1="31" x2="143.5" y2="22.6"/>
		<polygon points="131.5,25.4 127.6,34 137,33.1 		"/>
	</g>
	<g>
		<line class="st22" x1="196.1" y1="347.5" x2="196.1" y2="337.1"/>
		<polygon points="191.3,344.5 196.1,352.7 200.8,344.5 		"/>
	</g>
	<line class="st21" x1="144" y1="161" x2="144" y2="110.5"/>
</g>
<g id="txt">
	<text transform="matrix(1 0 0 1 174.0339 296.095)" class="st23 st13 st14">Mastcelle</text>
	<text transform="matrix(1 0 0 1 159.2373 21.0527)" class="st23 st13 st14">Allergen</text>
	<text transform="matrix(1 0 0 1 71.4893 253.3418)" class="st13 st14">IgE i receptor</text>
	<text transform="matrix(1 0 0 1 80.4893 378.2891)" class="st13 st14">Histamin</text>
	<text transform="matrix(1 0 0 1 119.4209 217.7632)" class="st13 st14">IgE</text>
	<text transform="matrix(1 0 0 1 121.1582 106.2895)" class="st13 st14">MHC-II</text>
	<text transform="matrix(1 0 0 1 52.7942 57.1826)" class="st13 st14">Makrofag</text>
	<text transform="matrix(1 0 0 1 51.1706 174.9547)" class="st13 st14">T-lymfocyt</text>
	<text transform="matrix(1 0 0 1 172.8459 174.9545)" class="st13 st14">B-lymfocyt</text>
</g>
</svg>
