<?xml version="1.0" encoding="utf-8"?>
<!-- Generator: Adobe Illustrator 19.1.0, SVG Export Plug-In . SVG Version: 6.00 Build 0)  -->
<svg version="1.1" xmlns="http://www.w3.org/2000/svg" xmlns:xlink="http://www.w3.org/1999/xlink" x="0px" y="0px"
	 viewBox="0 0 269.3 481" style="enable-background:new 0 0 269.3 481;" xml:space="preserve">
<style type="text/css">
	.st0{fill:url(#SVGID_1_);}
	.st1{fill:#E0F2FB;}
	.st2{fill:#EE7F00;stroke:#000000;stroke-width:0.5;}
	.st3{fill:#FFE7AB;stroke:#000000;stroke-width:0.5;}
	.st4{fill:url(#SVGID_2_);stroke:#000000;stroke-width:0.5;}
	.st5{fill:#004494;}
	.st6{fill:url(#SVGID_3_);stroke:#000000;stroke-width:0.5;}
	.st7{fill:#FFE7AB;}
	.st8{fill:#EE7F00;}
	.st9{fill:#FFFFFF;}
	.st10{fill:#DB001B;}
	.st11{fill:none;stroke:#000000;stroke-width:0.5;}
	.st12{fill:#5EC5ED;stroke:#000000;stroke-width:0.5;}
	.st13{fill:#5EC5ED;}
	.st14{fill:none;stroke:#E2001A;}
	.st15{fill:#FFED00;stroke:#000000;stroke-width:0.5;}
	.st16{fill:none;stroke:#000000;stroke-dasharray:2,2;}
	.st17{fill:none;stroke:#000000;stroke-width:0.75;}
	.st18{font-family:'Verdana';}
	.st19{font-size:9px;}
</style>
<g id="Lag_8">
	<radialGradient id="SVGID_1_" cx="134.6455" cy="131.7984" r="133.2295" gradientUnits="userSpaceOnUse">
		<stop  offset="0.3315" style="stop-color:#FFFFFF"/>
		<stop  offset="0.4074" style="stop-color:#E8F5F1"/>
		<stop  offset="0.5668" style="stop-color:#ADDDCD"/>
		<stop  offset="0.7949" style="stop-color:#4FB694"/>
		<stop  offset="0.809" style="stop-color:#49B390"/>
		<stop  offset="1" style="stop-color:#00958C"/>
	</radialGradient>
	<rect y="0" class="st0" width="269.3" height="263.6"/>
</g>
<g id="Lag_11">
	<path class="st1" d="M185.2,86L182,186l2.8,3.5c0,0,19.2-22.5,20.2-25.2s9-21.2,8.5-28s-4.5-23.5-9.2-30.5s-15.5-21.5-15.5-21.5
		L185.2,86z"/>
</g>
<g id="Lag_17">
	<path class="st2" d="M175.8,199.6c-11.8,8-25.8,12.7-40.7,12.7c-41,0-73.2-35.6-73.2-78.3c0-42.7,33.2-77.3,74.2-77.3
		c14.5,0,26,4.3,37.4,11.8"/>
</g>
<g id="Lag_2">
	<path class="st3" d="M197.2,118.5c1.2,4,1.8,8,4.2,7.8s1.3-7.3,1.3-7.3c-6.6-33.5-34.4-58.6-67.5-58.6c-38.1,0-69.1,33.2-69.1,74.2
		c0,41,30.9,74.2,69.1,74.2c34,0,62.3-26.4,68-61.2c0,0,1.3-8.2-1.5-8.8s-6.2,8.2-6.5,9.8"/>
</g>
<g id="Lag_1">
	<linearGradient id="SVGID_2_" gradientUnits="userSpaceOnUse" x1="169.9918" y1="194.7108" x2="100.4997" y2="74.347">
		<stop  offset="0" style="stop-color:#FFFFFF"/>
		<stop  offset="0.1938" style="stop-color:#F2F2F3"/>
		<stop  offset="0.5505" style="stop-color:#D0D1D2"/>
		<stop  offset="0.8315" style="stop-color:#B1B3B4"/>
		<stop  offset="1" style="stop-color:#6D6E70"/>
	</linearGradient>
	<ellipse class="st4" cx="135.2" cy="134.5" rx="65" ry="70.9"/>
	<g id="Lag_7">
		<path class="st5" d="M201.5,113.7c0,0,2.2,7.8,1.5,9.5s0,3.8-3.2,2.8c-3.2-1-6.2-6.7-6.2-6.7l0.7-4l3-1.5
			C197.3,113.8,199.3,110.5,201.5,113.7z"/>
		<path class="st5" d="M202.2,153.3c0,0,1.7-10,1.2-11.7s0-4.5-4.5-1.7s-2,4.8-2,4.8l1.2,7.3C198,152.2,199.2,155.5,202.2,153.3z"/>
	</g>
</g>
<g id="Lag_3">
	<radialGradient id="SVGID_3_" cx="190.0454" cy="134.0457" r="19.1017" gradientUnits="userSpaceOnUse">
		<stop  offset="5.617980e-03" style="stop-color:#B1B3B4"/>
		<stop  offset="0.1585" style="stop-color:#CDCECF"/>
		<stop  offset="0.3255" style="stop-color:#E3E4E4"/>
		<stop  offset="0.5077" style="stop-color:#F3F3F3"/>
		<stop  offset="0.7147" style="stop-color:#FCFCFC"/>
		<stop  offset="1" style="stop-color:#FFFFFF"/>
	</radialGradient>
	<path class="st6" d="M200.5,134c0,13.8-3.1,24.9-9.5,24.9c-6.3,0-11.5-11.2-11.5-24.9c0-13.8,5.1-24.9,11.5-24.9
		C197.4,109.1,200.5,120.3,200.5,134z"/>
</g>
<g id="Lag_12">
	<g>
		<path class="st3" d="M183.8,87.3c0,0,2,3,2.3,8.5c0.3,4.5-1,6.8-0.7,9.5c0.4,2.8,3.4,1.6,5.2,0.3c0.7-0.5,1.3-0.7,2-0.3
			c0.7,0.3,2.3,2.7,2.3,0.7"/>
		<polygon class="st7" points="184.2,87.2 185.8,90.7 194.3,106.3 196.3,107 190.3,93.5 		"/>
	</g>
	<g>
		<path class="st3" d="M184.5,180.8c0,0,2-3,2.2-8.5c0.2-4.5-1.1-6.8-0.8-9.5c0.3-2.8,3.4-1.7,5.2-0.4c0.7,0.5,1.3,0.6,2,0.3
			c0.7-0.3,2.3-2.7,2.3-0.7"/>
		<polygon class="st7" points="184.8,181 186.4,177.4 194.7,161.7 196.7,161 190.9,174.6 		"/>
	</g>
</g>
<g id="Lag_4">
	<g>
		<path class="st8" d="M208.1,159.7c-3.1,6.6-5.4,11.5-17.5,25.7c-16.3,19.2-53.4,38.6-53.4,38.6l-3-2.3c0,0,36.9-17.9,53-38
			c11.5-14.4,14.1-17.6,17.8-23.2"/>
		<path class="st8" d="M204.8,111.1c-3.1-6.5-5.6-11.3-17.2-25.6c-15-18.3-53.7-37.3-53.7-37.3l3.4-1.5c0,0,38.1,17.7,53.7,38.2
			c11.3,14.9,14.2,19.6,17.2,26.2"/>
		<path class="st9" d="M196.7,94.7c-1.8,1,3.8,7.8,8.2,16.8c2.6,5.2,6.9,13.5,6.9,24v0.6c0,10.5-6,21.9-7.3,24.1
			c-7.2,11.7-7.8,13.5-6.7,13.8c1.2,0.4,2.6-1.4,2.6-1.4c1.9-3.1,13.4-16.6,14.7-35.9V136c0-10.8-4.6-20.2-6.9-24.6
			C206,107,199.3,93.3,196.7,94.7z"/>
	</g>
	<path class="st10" d="M140.6,48.3c0,0-4.9,0.1-2.8,2c-6.6-3.5-29.2-15.1-29.2-15.1l3.4-2.4L140.6,48.3z"/>
	<path class="st10" d="M114,237.8c0,0,22.4-13.1,26.1-15.2c-4.1,0-2.4-2.6-2.4-2.6l-25.5,14.2"/>
	<path class="st11" d="M155.8,60.7c-11.6-7-22-12.5-22-12.5"/>
	<path class="st11" d="M178.2,192.8c2.9-2.7,7.7-6.9,9.8-9.7c11.3-14.5,13.6-17.9,16.8-23.8c4-7.4,7.1-12.5,7.1-23v-0.6
		c0-10.5-2.9-15.8-6.5-23.5c-3.1-6.5-6-11-17.2-25.6c-3.7-4.8-9.1-9.5-14.6-13.8"/>
	<path class="st11" d="M156.8,209c-12,7.4-22.3,12.8-22.3,12.8l-22.2,12.4"/>
	<path class="st11" d="M137.5,46.7c0,0,38.1,17.7,53.7,38.2c11.3,14.9,14.2,19.6,17.2,26.2c3.6,7.8,6.5,13.2,6.5,24v0.7
		c0,10.8-2.9,16.2-6.5,24c-3.1,6.6-5.9,11.6-17.5,25.7c-16.1,19.5-53.4,38.6-53.4,38.6l-23.3,13.7"/>
	<line class="st11" x1="137.5" y1="46.7" x2="112" y2="32.8"/>
	<line class="st11" x1="133.8" y1="48.2" x2="108.6" y2="35.1"/>
</g>
<g id="Lag_14">
	<path class="st12" d="M184,181.3c-11.3,13.9-30.3,21.1-48.5,21.1c-34,0-61.5-30.4-61.5-67.9c0-37.5,27.5-67.9,61.5-67.9
		c18,0,36.9,6.8,48.2,20.4l-0.3-0.3c-11.9-14.2-29-23-48-23c-35.9,0-65,31.7-65,70.9c0,39.2,29.1,70.9,65,70.9
		c19.3,0,36.6-9.1,48.5-23.6L184,181.3z"/>
</g>
<g id="Lag_9">
	<g>
		<path class="st13" d="M38.9,57.1c0,0,15.7,10.7,30.6,20.8c14.9,10.1,24.7,2.2,24.7,2.2s-11.5,18.8-18.5,27.3c0,0,3.7-12-11.2-22.1
			C49.6,75.3,33.8,64.6,33.8,64.6"/>
		<g>
			<path class="st11" d="M93.9,80c0,0-9.8,7.9-24.7-2.2C54.3,67.6,38.6,57,38.6,57"/>
			<path class="st11" d="M75.4,107.3c0,0,3.7-12-11.2-22.1C49.3,75.1,33.6,64.4,33.6,64.4"/>
		</g>
	</g>
</g>
<g id="Lag_10">
	<path class="st14" d="M36.5,60.8L79,89.6c0,0,7.2,4.9,13.3,3c6.1-1.9,9.4-3.7,15.2-7c5.9-3.3,17.9-10.4,19.8-15.6"/>
	<path class="st14" d="M140.2,80c-7.9-0.9-12.9,1.7-15.1,5.1c-2.2,3.3-6.3,5.8-9.2,5.8c-2.9,0.1-9.8-4.6-9.8-4.6"/>
	<path class="st14" d="M138.4,67.9c-2.5,1.9-6.4,10.6-4.7,11.7"/>
	<path class="st14" d="M138,79.7c0,0-1.4,7.9,4.7,8c6,0,9.4,0.4,11.4,3.3"/>
	<path class="st14" d="M152.4,81c-0.9,3-0.4,6.6-3.5,6.9"/>
	<path class="st14" d="M122.3,88c0,0,5.4,0.9,7,6.3c1.5,5.5,2.1,7,6,7.7"/>
	<path class="st14" d="M116.9,91.2c1.5,4.3,5.1,2.6,3.3,8.3c-1.8,5.6,0.4,5.9,0.4,5.9"/>
	<path class="st14" d="M130.1,96.1c0,0,1.2-4.8,6-2.4c4.8,2.4,6.1,2.9,7.7,1.2"/>
	<path class="st14" d="M94.4,92.4c0,0,2.5-0.7,4.3,2.5c1.8,3.3-1.4,6.3-0.1,10.8c1.4,4.5,1.8,5.7,5.8,8.7"/>
	<path class="st14" d="M84.5,92.1c0,0,8.3,14.5,3.8,18.7c-4.5,4.2-8.1,6.6-8.2,12.1c-0.1,5.5,4.9,12.4,4.9,12.4"/>
	<path class="st14" d="M99.9,109.8c0,0-3.1,1.5-5.6,8.3c-2.6,6.7-1.6,5.3-0.8,9.5"/>
	<path class="st14" d="M88,136.7c0,0-5,0.4-4.3,5.3c0.5,3.6,0.3,4.5,0,9.7"/>
	<path class="st14" d="M82.9,133.7c2.6,2.1,5.5,3.7,8.2,3.9c2.7,0.2,3.3,1,3.6,4.8c0.2,3.8,0,6.5-0.8,9.5"/>
	<path class="st14" d="M94.3,118.1c1,3.9,0.5,4,3.9,6.7c3.4,2.7,6.1,5.3,4.4,7.8"/>
	<path class="st14" d="M94.7,144.2c-3.1,1.5-3.3,2.6-5.5,5.1c-2.1,2.6-1.8,4.4-1.9,7.6c-0.1,3.1,2.4,4.8,0.7,7.3"/>
	<path class="st14" d="M90.7,137c3.7-3.1,6.4-4.1,8.1-1.8c1.6,2.3-0.5,2.5,2.4,6"/>
	<path class="st14" d="M87.3,156.9c1.9,1.3,5.6,0.6,6,3.7c0.3,3.1,2.8,3.5,3.1,7.3"/>
	<path class="st14" d="M106.2,86.3c0,0,6.6-3.2,9.2-8.2c2.6-5.1,5.1-7,6.5-8.9"/>
</g>
<g id="Lag_15">
	<polygon class="st15" points="75,124.3 70.3,131.7 74.4,140 	"/>
</g>
<g id="Lag_16">
	<line class="st16" x1="74" y1="138" x2="263.3" y2="128"/>
	<line class="st16" x1="74.7" y1="124.7" x2="263.3" y2="137"/>
</g>
<g id="Lag_5">
	<line class="st17" x1="161.7" y1="61.7" x2="161.3" y2="41.7"/>
	<line class="st17" x1="127" y1="42.7" x2="126.7" y2="22.7"/>
	<line class="st17" x1="203.7" y1="105.9" x2="203.7" y2="73.7"/>
	<line class="st17" x1="41.1" y1="64.3" x2="41" y2="41"/>
	<line class="st17" x1="200.6" y1="148.7" x2="192.7" y2="208.3"/>
	<line class="st17" x1="188.7" y1="141.3" x2="168" y2="225"/>
	<line class="st17" x1="209.3" y1="138.7" x2="220.7" y2="238.7"/>
	<line class="st17" x1="84.2" y1="174.8" x2="46.5" y2="197.8"/>
	<line class="st17" x1="200.7" y1="130.7" x2="236.4" y2="99.2"/>
	<line class="st17" x1="34.7" y1="114" x2="71.3" y2="131.3"/>
</g>
<g id="txt">
	<text transform="matrix(1 0 0 1 183.916 217.7065)" class="st18 st19">Iris</text>
	<text transform="matrix(1 0 0 1 191.0791 70.0337)" class="st18 st19">Hornhinde</text>
	<text transform="matrix(1 0 0 1 147.1934 39.3413)" class="st18 st19">Senehinde</text>
	<text transform="matrix(1 0 0 1 102.749 18.4263)" class="st18 st19">Muskel</text>
	<text transform="matrix(1 0 0 1 22.9248 207.6968)" class="st18 st19">Nethinde</text>
	<text transform="matrix(1 0 0 1 13.8271 105.644)"><tspan x="0" y="0" class="st18 st19">Den gule </tspan><tspan x="0" y="10.8" class="st18 st19">plet</tspan></text>
	<text transform="matrix(1 0 0 1 20.998 38.7378)" class="st18 st19">Synsnerve</text>
	<text transform="matrix(1 0 0 1 155.4385 252.2495)" class="st18 st19">Forreste øjenkammer</text>
	<text transform="matrix(1 0 0 1 155.9473 236.2222)" class="st18 st19">Linse</text>
	<text transform="matrix(1 0 0 1 228.3438 92.4839)" class="st18 st19">Pupil</text>
	<text transform="matrix(1 0 0 1 108.5957 154.312)" class="st18 st19">Glaslegeme</text>
</g>
</svg>
