<?xml version="1.0" encoding="utf-8"?>
<!-- Generator: Adobe Illustrator 19.1.0, SVG Export Plug-In . SVG Version: 6.00 Build 0)  -->
<svg version="1.1" id="Lag_1" xmlns="http://www.w3.org/2000/svg" xmlns:xlink="http://www.w3.org/1999/xlink" x="0px" y="0px"
	 viewBox="0 0 595.3 841.9" style="enable-background:new 0 0 595.3 841.9;" xml:space="preserve">
<style type="text/css">
	.st0{fill:url(#SVGID_1_);}
	.st1{fill:#83D0F5;stroke:#000000;stroke-width:0.5;}
	.st2{fill:none;stroke:#B71F1F;}
	.st3{fill:url(#SVGID_2_);stroke:#000000;stroke-width:0.5;}
	.st4{fill:url(#SVGID_3_);stroke:#000000;stroke-width:0.5;}
	.st5{fill:url(#SVGID_4_);stroke:#000000;stroke-width:0.5;}
	.st6{fill:url(#SVGID_5_);stroke:#000000;stroke-width:0.5;}
	.st7{fill:url(#SVGID_6_);stroke:#000000;stroke-width:0.5;}
	.st8{fill:url(#SVGID_7_);stroke:#000000;stroke-width:0.5;}
	.st9{fill:url(#SVGID_8_);stroke:#000000;stroke-width:0.5;}
	.st10{fill:url(#SVGID_9_);stroke:#000000;stroke-width:0.5;}
	.st11{fill:url(#SVGID_10_);stroke:#000000;stroke-width:0.5;}
	.st12{fill:url(#SVGID_11_);stroke:#000000;stroke-width:0.5;}
	.st13{fill:url(#SVGID_12_);stroke:#000000;stroke-width:0.5;}
	.st14{fill:url(#SVGID_13_);stroke:#000000;stroke-width:0.5;}
	.st15{fill:url(#SVGID_14_);stroke:#000000;stroke-width:0.5;}
	.st16{fill:url(#SVGID_15_);stroke:#000000;stroke-width:0.5;}
	.st17{fill:url(#SVGID_16_);stroke:#000000;stroke-width:0.5;}
	.st18{fill:url(#SVGID_17_);stroke:#000000;stroke-width:0.5;}
	.st19{fill:url(#SVGID_18_);stroke:#000000;stroke-width:0.5;}
	.st20{fill:url(#SVGID_19_);stroke:#000000;stroke-width:0.5;}
	.st21{fill:#E9530E;stroke:#F0AC00;stroke-width:2;}
	.st22{fill:none;stroke:#EA5B0C;stroke-width:0.5;}
	.st23{fill:none;stroke:#312783;stroke-width:2;}
	.st24{fill:#312783;}
	.st25{fill:none;stroke:#FFFFFF;stroke-width:0.75;}
	.st26{fill:#FFFFFF;}
	.st27{font-family:'Verdana';}
	.st28{font-size:9px;}
</style>
<linearGradient id="SVGID_1_" gradientUnits="userSpaceOnUse" x1="301.7964" y1="661" x2="301.7964" y2="405">
	<stop  offset="0" style="stop-color:#009640"/>
	<stop  offset="1.999901e-02" style="stop-color:#009650"/>
	<stop  offset="5.552186e-02" style="stop-color:#00976A"/>
	<stop  offset="9.434610e-02" style="stop-color:#009983"/>
	<stop  offset="0.1361" style="stop-color:#009A97"/>
	<stop  offset="0.1816" style="stop-color:#009BA8"/>
	<stop  offset="0.2325" style="stop-color:#009CB4"/>
	<stop  offset="0.2917" style="stop-color:#009CBC"/>
	<stop  offset="0.3668" style="stop-color:#009CC1"/>
	<stop  offset="0.5112" style="stop-color:#009DC3"/>
	<stop  offset="0.6174" style="stop-color:#009CC1"/>
	<stop  offset="0.6888" style="stop-color:#009CBB"/>
	<stop  offset="0.75" style="stop-color:#009CB2"/>
	<stop  offset="0.8054" style="stop-color:#009BA4"/>
	<stop  offset="0.8569" style="stop-color:#009A92"/>
	<stop  offset="0.9056" style="stop-color:#00987A"/>
	<stop  offset="0.9521" style="stop-color:#00975F"/>
	<stop  offset="0.9956" style="stop-color:#009644"/>
	<stop  offset="1" style="stop-color:#009640"/>
</linearGradient>
<rect x="18.3" y="405" class="st0" width="567" height="256"/>
<path class="st1" d="M437.3,582.3c0,0-44.3,18.3-67.3,19s-199-0.7-199-0.7l-0.3,4c0,0,197,0.3,202,0.3s59.7-6,66.7-9.3"/>
<g>
	<line class="st2" x1="346.7" y1="520" x2="345.3" y2="512.3"/>
	<line class="st2" x1="293" y1="508.7" x2="291.7" y2="501"/>
	<line class="st2" x1="275.7" y1="506.7" x2="274.3" y2="499"/>
	<line class="st2" x1="298.3" y1="510.3" x2="297" y2="502.7"/>
	<line class="st2" x1="270.7" y1="505.7" x2="269.3" y2="498"/>
	<line class="st2" x1="254.7" y1="501.3" x2="253.3" y2="493.7"/>
	<line class="st2" x1="349.7" y1="521.3" x2="348.3" y2="513.7"/>
	<line class="st2" x1="350.5" y1="522.3" x2="352.2" y2="514.7"/>
	<line class="st2" x1="294.5" y1="509.3" x2="296.2" y2="501.7"/>
	<line class="st2" x1="270.5" y1="507" x2="272.2" y2="499.4"/>
	<line class="st2" x1="255.8" y1="501.6" x2="257.5" y2="494"/>
	<line class="st2" x1="295.2" y1="511.1" x2="299.5" y2="504.6"/>
	<line class="st2" x1="275.8" y1="507.4" x2="280.2" y2="500.9"/>
	<line class="st2" x1="254.8" y1="504.1" x2="259.2" y2="497.6"/>
	<line class="st2" x1="247.8" y1="501.7" x2="252.2" y2="495.3"/>
	<line class="st2" x1="272.8" y1="506.4" x2="277.2" y2="499.9"/>
	
		<linearGradient id="SVGID_2_" gradientUnits="userSpaceOnUse" x1="352.7462" y1="510.4149" x2="352.7462" y2="492.6407" gradientTransform="matrix(-1 0 0 1 614.9785 0)">
		<stop  offset="0" style="stop-color:#E30613"/>
		<stop  offset="1.933929e-02" style="stop-color:#DD2327"/>
		<stop  offset="5.061168e-02" style="stop-color:#D43843"/>
		<stop  offset="8.477855e-02" style="stop-color:#CB475C"/>
		<stop  offset="0.1211" style="stop-color:#C25371"/>
		<stop  offset="0.1601" style="stop-color:#BA5D84"/>
		<stop  offset="0.2028" style="stop-color:#B36393"/>
		<stop  offset="0.2504" style="stop-color:#AD689E"/>
		<stop  offset="0.3058" style="stop-color:#A96BA6"/>
		<stop  offset="0.3761" style="stop-color:#A66DAA"/>
		<stop  offset="0.5112" style="stop-color:#A66DAC"/>
		<stop  offset="0.6089" style="stop-color:#A66DAA"/>
		<stop  offset="0.6745" style="stop-color:#A96BA5"/>
		<stop  offset="0.7308" style="stop-color:#AE679C"/>
		<stop  offset="0.7818" style="stop-color:#B5628F"/>
		<stop  offset="0.8292" style="stop-color:#BD5A7F"/>
		<stop  offset="0.874" style="stop-color:#C54F6A"/>
		<stop  offset="0.9168" style="stop-color:#CE4152"/>
		<stop  offset="0.9579" style="stop-color:#D82F36"/>
		<stop  offset="0.9963" style="stop-color:#E20E17"/>
		<stop  offset="1" style="stop-color:#E30613"/>
	</linearGradient>
	<path class="st3" d="M293.3,507.7c0,0-14.3-1.3-18.7-2.7c-4.3-1.3-15.3-3.7-18.7-5c-3.3-1.3-18-4.3-21.3-6c-3.3-1.7-5-1.3-5-1.3
		v3.3c0,0,15.7,3.7,20,5.3c4.3,1.7,23.3,6,23.3,6s17,3.7,20.3,3C296.7,509.7,293.3,507.7,293.3,507.7z"/>
	
		<radialGradient id="SVGID_3_" cx="259.9105" cy="545.668" r="20.0021" gradientTransform="matrix(-1 0 0 1 614.9785 0)" gradientUnits="userSpaceOnUse">
		<stop  offset="0" style="stop-color:#FFF9C3"/>
		<stop  offset="1" style="stop-color:#FFD800"/>
	</radialGradient>
	<path class="st4" d="M367.7,557c0,0,7,12.7-3,12.7s-11.3-1.3-15.3-5.7c-4-4.3-8.3-20.7-9-27.3c-0.7-6.7,0.3-15,0.3-15l12.7,8
		L367.7,557z"/>
	
		<radialGradient id="SVGID_4_" cx="359.7565" cy="558.5521" r="35.8488" gradientTransform="matrix(-1 0 0 1 614.9785 0)" gradientUnits="userSpaceOnUse">
		<stop  offset="0" style="stop-color:#FFF9C3"/>
		<stop  offset="1" style="stop-color:#FFD800"/>
	</radialGradient>
	<path class="st5" d="M275.3,515c0,0-11.7,31.7-5,39c6.4,7,18.3-10.7,4.3,13c-5,8.5-17.3,23-20.7,26.7c-3.3,3.7-10,8-15,8
		s-10.3,1.3-9.7-0.7c0.7-2,2-11.7,7.7-18c5.7-6.3,8.7-13.7,16.7-21.3c8-7.7,11.7-12,12-15c0.3-3,4.3-23.3,4.3-23.3L275.3,515z"/>
	
		<radialGradient id="SVGID_5_" cx="306.0932" cy="558.8851" r="34.6428" gradientTransform="matrix(-1 0 0 1 614.9785 0)" gradientUnits="userSpaceOnUse">
		<stop  offset="0" style="stop-color:#FFF9C3"/>
		<stop  offset="1" style="stop-color:#FFD800"/>
	</radialGradient>
	<path class="st6" d="M330.7,516.3c0,0-6.7,26.7-3,31.7c3.7,5,9,11,2.3,18.3c-6.7,7.3-17.3,23-20.7,26.7c-3.3,3.7-10,8-15,8
		s-10.3,1.3-9.7-0.7c0.7-2,2-11.7,7.7-18C298,576,301,568.7,309,561c8-7.7,13.3-12.3,13.7-15.3c0.3-3,2.7-23,2.7-23L330.7,516.3z"/>
	
		<radialGradient id="SVGID_6_" cx="266.6825" cy="574.293" r="20.3877" gradientTransform="matrix(-1 0 0 1 614.9785 0)" gradientUnits="userSpaceOnUse">
		<stop  offset="0" style="stop-color:#FFF9C3"/>
		<stop  offset="1" style="stop-color:#FFD800"/>
	</radialGradient>
	<path class="st7" d="M344.1,547.6c0,0,0.3,16.6-2.3,18.9c-2.6,2.3-6.3,5-3.5,9.8s6.8,14.7,8.2,17.1c1.4,2.4,4.6,5.6,7.3,6.2
		c2.8,0.6,5.5,2,5.4,0.8c-0.1-1.2,0.3-6.7-2.1-10.8c-2.4-4.2-3.2-8.6-6.7-13.7c-3.5-5.2-5.9-8.4-5.7-10.1c0.2-1.7,1.3-13,1.3-13
		L344.1,547.6z"/>
	
		<radialGradient id="SVGID_7_" cx="380.1555" cy="558.5521" r="36.8243" gradientTransform="matrix(-1 0 0 1 614.9785 0)" gradientUnits="userSpaceOnUse">
		<stop  offset="0" style="stop-color:#FFF9C3"/>
		<stop  offset="1" style="stop-color:#FFD800"/>
	</radialGradient>
	<path class="st8" d="M252.3,515c0,0-13.3,32.3-6.3,36.7c12.3,7.7,29-13,5.7,15.3c-6.3,7.6-17.3,23-20.7,26.7c-3.3,3.7-10,8-15,8
		c-5,0-10.3,1.3-9.7-0.7c0.7-2,2-11.7,7.7-18c5.7-6.3,8.7-13.7,16.7-21.3c8-7.7,9.7-11.3,10-14.3c0.3-3,6.3-24,6.3-24L252.3,515z"/>
	
		<radialGradient id="SVGID_8_" cx="403.7258" cy="548.5521" r="42.8345" gradientTransform="matrix(-1 0 0 1 614.9785 0)" gradientUnits="userSpaceOnUse">
		<stop  offset="0" style="stop-color:#FFF9C3"/>
		<stop  offset="1" style="stop-color:#FFD800"/>
	</radialGradient>
	<path class="st9" d="M233,495c0,0-22,48.9-11,53.7c13,5.7,28.7-12,6.3,18.3c-5.9,8-17.3,23-20.7,26.7c-3.3,3.7-10,8-15,8
		c-5,0-10.3,1.3-9.7-0.7c0.7-2,2-11.7,7.7-18c5.7-6.3,8.7-13.7,16.7-21.3c8-7.7,7.3-16.7,7.7-19.7c0.3-3,11.7-40,11.7-40L233,495z"
		/>
	
		<radialGradient id="SVGID_9_" cx="229.332" cy="567.8345" r="24.2735" gradientTransform="matrix(-1 0 0 1 614.9785 0)" gradientUnits="userSpaceOnUse">
		<stop  offset="0" style="stop-color:#FFF9C3"/>
		<stop  offset="1" style="stop-color:#FFD800"/>
	</radialGradient>
	<path class="st10" d="M373.7,535.7c0,0,2.3,8,2.7,17.7s0,25.7,0.3,32.3c0.3,6.7,0.3,14.3,4.3,14.3s11.3-1.3,15-5
		c3.7-3.7,0.3-14.7-1.7-24.3C392.3,561,384.3,542.3,373.7,535.7z"/>
	
		<radialGradient id="SVGID_10_" cx="233.6937" cy="558.311" r="33.1097" gradientTransform="matrix(-1 0 0 1 614.9785 0)" gradientUnits="userSpaceOnUse">
		<stop  offset="0" style="stop-color:#FFF9C3"/>
		<stop  offset="1" style="stop-color:#FFD800"/>
	</radialGradient>
	<path class="st11" d="M353,521c0,0,4.7,6.7,13,11.3c8.3,4.7,18.7,18.7,19.7,24c1,5.3,0,35.7,6,38.3c6,2.7,15-0.7,17.3-5
		c2.3-4.3-2.7-27-8.7-35.7c-6-8.7-22.3-24.3-32.3-27.7S353,521,353,521z"/>
	
		<linearGradient id="SVGID_11_" gradientUnits="userSpaceOnUse" x1="280.5081" y1="527.668" x2="280.5081" y2="462.32" gradientTransform="matrix(-1 0 0 1 614.9785 0)">
		<stop  offset="5.617980e-03" style="stop-color:#B71F1F"/>
		<stop  offset="0.3372" style="stop-color:#D85815"/>
		<stop  offset="0.5787" style="stop-color:#F07F00"/>
		<stop  offset="0.6541" style="stop-color:#ED7B00"/>
		<stop  offset="0.7395" style="stop-color:#E56E0B"/>
		<stop  offset="0.8296" style="stop-color:#D85915"/>
		<stop  offset="0.9223" style="stop-color:#C73C1B"/>
		<stop  offset="1" style="stop-color:#B71F1F"/>
	</linearGradient>
	<path class="st12" d="M434,466.7c0,0-43,0.3-57,0c-14-0.3-24.7-4-41-4.3c-16.3-0.3-41.3,5.3-64,11.7c-22.7,6.3-39,12-38,14.3
		c1,2.3,9,7.7,12,5.7s11.3-1.7,30,1.7c18.7,3.3,62.3,9.7,69.3,10.3s18.7,0.3,22.7,1s2.3,16,2.3,20c4.7,0.7,4.7,0.7,4.7,0.7
		s1-17.3,2-19s4-3,10.7-2.7c6.7,0.3,26.7-2,32.3-4c4.8-1.7,15-9.3,15-9.3"/>
	
		<linearGradient id="SVGID_12_" gradientUnits="userSpaceOnUse" x1="333.8557" y1="526.8364" x2="369.6749" y2="526.8364" gradientTransform="matrix(-1 0 0 1 614.9785 0)">
		<stop  offset="0" style="stop-color:#B71F1F"/>
		<stop  offset="1" style="stop-color:#F07F00"/>
	</linearGradient>
	<path class="st13" d="M280.2,505.5c0,0-9.9-3.8-12.1-3.1c-2.2,0.7-3.7,1.7-5.1,5.6c-1.5,3.8-11,20.2-12.5,22.6
		c-1.5,2.4-6.6,13.9-4.8,17.4c1.8,3.5,7.7,4.9,12.1,2.1c4.4-2.8,9.9-14.2,11.4-17.7c1.5-3.5,5.5-13.2,7.7-16
		C279.1,513.5,282.8,509.3,280.2,505.5z"/>
	
		<linearGradient id="SVGID_13_" gradientUnits="userSpaceOnUse" x1="354.6706" y1="522.8365" x2="394.4891" y2="522.8365" gradientTransform="matrix(-1 0 0 1 614.9785 0)">
		<stop  offset="0" style="stop-color:#B71F1F"/>
		<stop  offset="1" style="stop-color:#F07F00"/>
	</linearGradient>
	<path class="st14" d="M259.3,500.6c0,0-11-4-13.5-3.3c-2.5,0.7-4.1,1.8-5.7,5.8c-1.6,4-12.3,21-13.9,23.5
		c-1.6,2.5-7.4,14.5-5.3,18.1c2,3.6,8.6,5.1,13.5,2.2c4.9-2.9,11-14.8,12.7-18.4c1.6-3.6,6.1-13.7,8.6-16.6
		C258.1,508.9,262.2,504.6,259.3,500.6z"/>
	
		<radialGradient id="SVGID_14_" cx="396.054" cy="509.2833" r="19.1667" gradientTransform="matrix(-1 0 0 1 614.9785 0)" gradientUnits="userSpaceOnUse">
		<stop  offset="0" style="stop-color:#FFF9C3"/>
		<stop  offset="1" style="stop-color:#FFD800"/>
	</radialGradient>
	<path class="st15" d="M220,488.7c0,0,15,0.7,16.3,4.7c1.3,4-4.3,9-8.3,11.7s-9.7,9.7-11.3,13c-1.7,3.3-5.7,9-7.7,11.7
		c-2,2.7-7.7-18.7-7.7-18.7l10-22.3H220z"/>
	
		<linearGradient id="SVGID_15_" gradientUnits="userSpaceOnUse" x1="303.4396" y1="601.8289" x2="303.4396" y2="509.3243" gradientTransform="matrix(-1 0 0 1 614.9785 0)">
		<stop  offset="0" style="stop-color:#E30613"/>
		<stop  offset="1.933929e-02" style="stop-color:#DD2327"/>
		<stop  offset="5.061168e-02" style="stop-color:#D43843"/>
		<stop  offset="8.477855e-02" style="stop-color:#CB475C"/>
		<stop  offset="0.1211" style="stop-color:#C25371"/>
		<stop  offset="0.1601" style="stop-color:#BA5D84"/>
		<stop  offset="0.2028" style="stop-color:#B36393"/>
		<stop  offset="0.2504" style="stop-color:#AD689E"/>
		<stop  offset="0.3058" style="stop-color:#A96BA6"/>
		<stop  offset="0.3761" style="stop-color:#A66DAA"/>
		<stop  offset="0.5112" style="stop-color:#A66DAC"/>
		<stop  offset="0.6089" style="stop-color:#A66DAA"/>
		<stop  offset="0.6745" style="stop-color:#A96BA5"/>
		<stop  offset="0.7308" style="stop-color:#AE679C"/>
		<stop  offset="0.7818" style="stop-color:#B5628F"/>
		<stop  offset="0.8292" style="stop-color:#BD5A7F"/>
		<stop  offset="0.874" style="stop-color:#C54F6A"/>
		<stop  offset="0.9168" style="stop-color:#CE4152"/>
		<stop  offset="0.9579" style="stop-color:#D82F36"/>
		<stop  offset="0.9963" style="stop-color:#E20E17"/>
		<stop  offset="1" style="stop-color:#E30613"/>
	</linearGradient>
	<path class="st16" d="M344.7,519c0,0-1.3,8,0,17c1.3,9,9,30,14,39s20,24.3,16.7,24.7c-3.3,0.3-23.7,2-23.3,0c0.3-2,2.3-7.7-2-22.7
		c-4.3-15-13-34.7-15.7-39.3c-2.7-4.7-5-7.7-11.3-1c-6.3,6.7-30.7,50.7-31.3,54c-0.7,3.3,6,9,2.7,10c-3.3,1-46.3,1.7-47,0.7
		c-0.7-1,5.3-12.7,9.7-12.7c4.3,0,20.3,3.3,28-6.7c7.7-10,18.3-26.3,22.7-33.7c4.3-7.3,5.3-21.7,2.7-24.3
		c-2.7-2.7-12.7-14.3-10.3-14.7C302.3,509,343,517.3,344.7,519z"/>
	
		<radialGradient id="SVGID_16_" cx="423.0527" cy="536.5478" r="49.6438" gradientTransform="matrix(-1 0 0 1 614.9785 0)" gradientUnits="userSpaceOnUse">
		<stop  offset="0" style="stop-color:#FFF9C3"/>
		<stop  offset="1" style="stop-color:#FFD800"/>
	</radialGradient>
	<path class="st17" d="M175.3,471.7c0,0,8.7,1,15.7,5c7,4,11.3,4.3,15.3,5.3s12,2,9.3,6c-2.7,4-10,14.7-10,20.7c0,6,5.7,27,3,35
		c-2.7,8-11.3,30-14,34.7c-2.7,4.7-7,20.3-10.3,22.3s-1.3,1.3-4.3,1.7c-3,0.3-8.7-0.3-8.7-0.3l-3.7-131.3
		C167.7,470.7,169.7,471,175.3,471.7z"/>
	
		<radialGradient id="SVGID_17_" cx="220.1956" cy="556.5065" r="38.7756" gradientTransform="matrix(-1 0 0 1 614.9785 0)" gradientUnits="userSpaceOnUse">
		<stop  offset="0" style="stop-color:#FFF9C3"/>
		<stop  offset="1" style="stop-color:#FFD800"/>
	</radialGradient>
	<path class="st18" d="M436.3,574.3c0,0-15-17-24.7-24.7c-9.7-7.7-30.3-21-38.3-23.3S356,521.7,353,521c6.3,4.7,12.7,5,25.3,12.7
		c12.7,7.7,17.3,17.3,20,27.7c2.7,10.3,5,30.3,7.3,30.7c2.3,0.3,21.7-7,24.7-9S437.7,578.7,436.3,574.3z"/>
	
		<linearGradient id="SVGID_18_" gradientUnits="userSpaceOnUse" x1="236.8393" y1="539.8911" x2="271.3573" y2="539.8911" gradientTransform="matrix(-1 0 0 1 614.9785 0)">
		<stop  offset="0" style="stop-color:#B71F1F"/>
		<stop  offset="1" style="stop-color:#F07F00"/>
	</linearGradient>
	<path class="st19" d="M348.7,519.7c0,0,3.7-0.3,4.3,1.3c0.7,1.7,16.3,13.3,19,16c2.7,2.7,7,13,6,17.7c-1,4.7-2,10-12.3,2
		c-10.3-8-22-29.3-22-31.7c0-2.3-0.3-6,1-6C346,519,348.7,519.7,348.7,519.7z"/>
	
		<linearGradient id="SVGID_19_" gradientUnits="userSpaceOnUse" x1="312.8554" y1="529.8363" x2="345.3416" y2="529.8363" gradientTransform="matrix(-1 0 0 1 614.9785 0)">
		<stop  offset="0" style="stop-color:#B71F1F"/>
		<stop  offset="1" style="stop-color:#F07F00"/>
	</linearGradient>
	<path class="st20" d="M301.3,509.3c0,0-9-3.7-11-3c-2,0.7-3.3,1.7-4.7,5.3c-1.3,3.7-10,19.3-11.3,21.7c-1.3,2.3-6,13.3-4.3,16.7
		c1.7,3.3,7,4.7,11,2c4-2.7,9-13.7,10.3-17c1.3-3.3,5-12.7,7-15.3C300.3,517,303.7,513,301.3,509.3z"/>
	<circle class="st21" cx="184.8" cy="523.5" r="5.5"/>
	<circle class="st21" cx="217.2" cy="500.2" r="4.5"/>
	<circle class="st21" cx="230.3" cy="538" r="3.8"/>
	<circle class="st21" cx="253.7" cy="543" r="3.8"/>
	<circle class="st21" cx="370.3" cy="550.3" r="3.8"/>
	<circle class="st21" cx="219.5" cy="561.2" r="5"/>
	<circle class="st21" cx="239.8" cy="565.8" r="4.7"/>
	<circle class="st21" cx="259.3" cy="571.3" r="4.8"/>
	<circle class="st21" cx="313.8" cy="570.2" r="5"/>
	<circle class="st21" cx="408.3" cy="559.3" r="5.5"/>
	<circle class="st21" cx="393" cy="566.3" r="3.2"/>
	<circle class="st21" cx="381.2" cy="570.8" r="2.7"/>
	<circle class="st21" cx="359.8" cy="560.8" r="2.7"/>
	<circle class="st21" cx="344.2" cy="577" r="2.8"/>
	<path class="st22" d="M434,471.3c0,0-65.8,2.3-79.3,1.7c-13.7-0.7-43-2-55.7,0.7c-12.7,2.7-53.3,14-53.3,14"/>
	<path class="st22" d="M433.7,477.3c0,0-48,4-58,3.7s-27.7-1.3-38.7-1.3s-34,0.3-39.3,2c-5.3,1.7-34,3.7-38.7,4.3
		c-4.7,0.7-16,3.3-16,3.3"/>
	<path class="st22" d="M434.3,485.7c0,0-5.3,0-24.3-0.3c-19-0.3-38,0.7-54,0.7s-23,0.7-30.3-0.7c-7.3-1.3-11.3-2-21-0.3
		c-9.7,1.7-32.3,2.3-32.3,2.3l-28,2.7"/>
	<path class="st22" d="M430.7,490.7c0,0-23.7-1.3-35.7,0s-27,1.7-37.7,1.7s-19.3,3-30.7,2.7c-11.3-0.3-26.7-2-31.7-2
		s-25.3-0.7-28.3-0.7s-18.3-1-22.3-1"/>
	<path class="st22" d="M422.7,496.7c-13.7,2-23.3,3.3-33.3,3c-10-0.3-18-0.3-31.3,0.3c-13.3,0.7-31.3,0.7-37.7,0
		c-6.3-0.7-14.3-2.3-24.7-2.3c-10.3,0-14.7-3.7-17-4.3c-2.3-0.7-32.3-2-32.3-2"/>
	<path class="st22" d="M404.3,503.3c0,0-23.3-0.7-26.7,0c-3.3,0.7-2.3,0.3-3.3,4.7c-1,4.3-1,11.7-1,11.7"/>
	<path class="st22" d="M346.7,504c0,0,13,0.3,17.3,0.3c4.3,0,8.3,2,8.3,4.3s0.3,14,0.3,14"/>
	<circle class="st21" cx="277.7" cy="543.7" r="3.8"/>
	<path class="st23" d="M408.3,629c0,0-27.3-37.7-45-46.3c-17.7-8.7-22-9-36-13"/>
	<path class="st23" d="M299,562c0,0-18.7-3.3-20-4.3"/>
	<circle class="st24" cx="279" cy="557.7" r="4"/>
	<circle class="st24" cx="367" cy="562.7" r="4"/>
	<circle class="st24" cx="376.7" cy="564" r="4"/>
	<path class="st23" d="M410.7,627c0,0-31.3-36.7-35-40.3c-3.7-3.7-6.7-20.3-8-25"/>
	<path class="st23" d="M412.7,624.7c0,0-32.8-37-34-38.7c-4.3-6-3.7-20.7-2.7-24.7"/>
</g>
<line class="st25" x1="368.6" y1="446.9" x2="368.6" y2="478"/>
<line class="st25" x1="200.3" y1="602.2" x2="200.3" y2="617.4"/>
<line class="st25" x1="210.8" y1="445.6" x2="249.8" y2="494.3"/>
<line class="st25" x1="352.4" y1="621.5" x2="401.2" y2="621.5"/>
<text transform="matrix(1 0 0 1 321.3643 444.0786)" class="st26 st27 st28">Tectorialmembranen</text>
<text transform="matrix(1 0 0 1 185.1436 444.0796)" class="st26 st27 st28">Stereocilier</text>
<text transform="matrix(1 0 0 1 159.1299 624.145)" class="st26 st27 st28">Basilarmembranen</text>
<text transform="matrix(1 0 0 1 304.3501 619.145)"><tspan x="0" y="0" class="st26 st27 st28">Afferente</tspan><tspan x="0" y="10.8" class="st26 st27 st28">nervefibre</tspan></text>
</svg>
