<?xml version="1.0" encoding="utf-8"?>
<!-- Generator: Adobe Illustrator 19.1.0, SVG Export Plug-In . SVG Version: 6.00 Build 0)  -->
<svg version="1.1" xmlns="http://www.w3.org/2000/svg" xmlns:xlink="http://www.w3.org/1999/xlink" x="0px" y="0px"
	 viewBox="0 0 566.9 487.6" style="enable-background:new 0 0 566.9 487.6;" xml:space="preserve">
<style type="text/css">
	.st0{fill:url(#SVGID_1_);}
	.st1{fill:url(#SVGID_2_);stroke:#000000;stroke-width:0.5;}
	.st2{fill:url(#SVGID_3_);stroke:#000000;stroke-width:0.5;}
	.st3{fill:none;stroke:#000000;stroke-width:0.5;}
	.st4{fill:none;stroke:#000000;stroke-width:0.75;}
	.st5{fill:#172983;stroke:#000000;stroke-width:0.5;}
	.st6{fill:#7ACDEF;stroke:#000000;stroke-width:0.5;}
	.st7{fill:#FFFFFF;stroke:#000000;stroke-width:0.5;}
	.st8{fill:#E2001A;stroke:#000000;stroke-width:0.5;}
	.st9{fill:#FCC128;}
	.st10{fill:#FCC128;stroke:#000000;stroke-width:0.5;}
	.st11{fill:url(#SVGID_4_);stroke:#000000;stroke-width:0.5;}
	.st12{fill:#009EE0;stroke:#000000;stroke-width:0.5515;}
	.st13{fill:url(#SVGID_5_);stroke:#000000;stroke-width:0.5106;}
	.st14{fill:none;stroke:#000000;stroke-width:0.75;stroke-dasharray:2,2,2,2,2,2;}
	.st15{fill:#FFFFFF;}
	.st16{fill:none;stroke:#FFFFFF;stroke-width:0.75;}
	.st17{fill:#009036;stroke:#000000;stroke-width:0.5;}
	.st18{fill:#FCC100;stroke:#000000;stroke-width:0.5;}
	.st19{fill:url(#SVGID_6_);stroke:#000000;stroke-width:0.5106;}
	.st20{fill:none;stroke:#E2001A;stroke-width:2;}
	.st21{fill:none;stroke:#E2001A;stroke-width:0.9859;}
	.st22{font-family:'Verdana';}
	.st23{font-size:9px;}
	.st24{font-size:7px;}
</style>
<g id="Lag_3">
	<linearGradient id="SVGID_1_" gradientUnits="userSpaceOnUse" x1="0" y1="144.7979" x2="566.7197" y2="144.7979">
		<stop  offset="5.617980e-03" style="stop-color:#F08800"/>
		<stop  offset="0.2721" style="stop-color:#F49D00"/>
		<stop  offset="0.8369" style="stop-color:#FECC19"/>
		<stop  offset="1" style="stop-color:#FFD922"/>
	</linearGradient>
	<rect class="st0" width="566.7" height="289.6"/>
</g>
<g id="Lag_1">
</g>
<g id="Lag_6">
	<linearGradient id="SVGID_2_" gradientUnits="userSpaceOnUse" x1="160.4556" y1="90.5539" x2="253.3516" y2="90.5539">
		<stop  offset="5.617980e-03" style="stop-color:#172983"/>
		<stop  offset="0.1382" style="stop-color:#41509A"/>
		<stop  offset="0.3649" style="stop-color:#848EBD"/>
		<stop  offset="0.5704" style="stop-color:#B9BEDA"/>
		<stop  offset="0.7474" style="stop-color:#DFE2EE"/>
		<stop  offset="0.889" style="stop-color:#F6F7FA"/>
		<stop  offset="0.9775" style="stop-color:#FFFFFF"/>
	</linearGradient>
	<path class="st1" d="M253.3,88.1c-1.1,0.2-22.1-0.1-24-0.3c-1.9-0.1-2.8-0.2-4.3,0c-1.5,0.2-3.9,0.3-5.6,0.2
		c-1.7-0.1-5.4-0.5-6.9-1.1c-1.5-0.5-5,0.7-8.5,0.5c-3.5-0.1-4.4,0.6-5.5,0.8c-1.1,0.2-2.6,0.5-3.2,0.6c-0.6,0.1-0.8,2-1.2,2.9
		c-0.5,0.9,0.3,2.1,0.4,3.1c0.1,1-0.6,2.4-0.6,2.4s1.4,1.9,1.7,3c0.2,1.1,2.1,2,3.2,2.6c1.1,0.5,2.6,1.5,3.6,2
		c0.9,0.5,1.7,1.6,2.4,2.4c0.6,0.7,1.2,2,0.7,1.7c-0.5-0.2-1.9-0.5-2.1-1.4c-0.2-0.9-2.7-2.1-3.5-2.5c-0.8-0.4-2.7-1.3-4-2.2
		c-1.3-0.9-2.2-2.7-2.5-4c-0.3-1.3-2.5-0.9-2.5-0.9s-2.4,1.2-3.3,1.1c-0.9-0.1-2.7-0.1-2.7-0.1s-0.1,2.3-0.6,2.8
		c-0.5,0.6-2.8,1.4-3.1,2c-0.3,0.6-0.3,2.2-0.2,3.2c0.1,1-0.3,3.8-0.3,5c0,1.2-1.2,2.4-1.8,2.8c-0.6,0.5,0.2,1.1,1.3,2
		c1.1,0.9,0.3,2.7-0.2,1.7c-0.5-1-1.9-1.3-2.7-2.5c-0.8-1.2,1.1-1.8,1.6-2.8c0.5-0.9,0.9-3.5,0.8-4.7c-0.2-1.3-0.2-1.9-0.4-3.5
		c-0.2-1.7,1.5-2.6,2.6-3.2c1.1-0.6,1.5-3.4,0.8-3.7c-0.6-0.3-1.3-1.8-1.4-3.5c-0.2-1.7-0.6-2.4-0.6-2.4s-1.4-0.3-2.1-0.5
		c-0.7-0.2-1.4-0.7-2.8-1.2c-1.3-0.5-2.6,0.1-4,0.6c-1.4,0.5-2.8-0.8-4-1.4c-1.3-0.6-2-2.4-2.4-3.5c-0.4-1.2-1.6-1.2-2.9-1.6
		c-1.3-0.5-2.1-0.9-1.5-0.9c0.6-0.1,3.1-0.3,3.7,0.1c0.6,0.3,2,2,2.6,3.1c0.6,1.1,2.4,2.4,3.5,2.5c1.1,0.2,1.9-0.6,3-0.9
		c1.1-0.2,2.1,0.1,3.5,0.8c1.4,0.7,3.2-0.2,3.2-0.2s0.9-1.9,1.2-2.4c0.2-0.5,1.5-1.4,2.7-1.8c1.2-0.4,2.3-1.8,2.9-2.3
		c0.6-0.5-0.5-1.8-0.9-3c-0.4-1.2-0.8-1.6-1.4-2.3c-0.6-0.7-1.5-1.7-1.8-2.7c-0.3-0.9-0.8-2.4-0.6-3.1c0.2-0.7-0.8-1.6-2.1-2.2
		c-1.3-0.6-1.9-1.7-2.3-3.7c-0.4-2-0.4-3.5,0.1-3.3c0.5,0.2,1.2,2.8,1.3,3.8c0.1,1,2.1,1.8,2.7,2.1c0.6,0.3,1.5,2.1,1.9,2.9
		c0.4,0.8,0.5,2.6,0.9,3.4c0.4,0.8,2.4,2.4,2.8,3c0.5,0.6,1.4,3.3,1.8,3.9c0.5,0.6,1.3,1.3,1.8,1.5c0.5,0.2,1.1,0.9,1.3,1.8
		c0.2,0.9,0.9,1.4,1.3,1.6c0.5,0.2,0.9,0.5,2.4,0.4c1.4-0.1,2.5,0.5,3.6,0.2c1.1-0.2,2.2-0.5,3.8-0.5c1.6,0,3-0.5,4.6-0.5
		c1.6,0,4.1-0.3,4.6-0.1c0.5,0.2,0.6,0.7,2.8,0.6c2.2-0.1,2.6,0.7,4.2,0.7c1.6,0,2.3,0.1,4.4-0.2c2.1-0.3,3.6-0.6,5-0.5
		c1.3,0.1,17.5,0.4,17.5,0.4l6.7,0.1"/>
</g>
<g id="Lag_8">
</g>
<g id="Lag_2">
	<linearGradient id="SVGID_3_" gradientUnits="userSpaceOnUse" x1="31.8447" y1="60.5623" x2="161.3415" y2="60.5623">
		<stop  offset="5.617980e-03" style="stop-color:#009EDF"/>
		<stop  offset="0.5449" style="stop-color:#FFFFFF"/>
		<stop  offset="1" style="stop-color:#7ACDEF"/>
	</linearGradient>
	<path class="st2" d="M31.8,70.6c2,0,15-0.6,17.5-0.6s9.9,0,13.3,0c3.4,0,20.6-0.6,27.1-0.6c6.5,0,10.7-1.7,15.5-1.7
		s14.7-2,15.8-2.8c1.1-0.8,2-2.5,3.1-3.4c1.1-0.8,2-3.7,2.5-4.8c0.6-1.1,1.1-4,2-5.1c0.8-1.1,3.4-3.7,3.7-5.1c0.3-1.4,2-5.6,3.1-7.6
		c1.1-2-1.1-4.8-2-7.1c-0.8-2.3-0.3-3-0.3-5.6c0-0.8-0.1-1.3-1.9-2.3s-2.2-1.6-1.1-2s4.1-0.2,5.8-0.5s3.3,0.5,2.6,1.6
		c-0.6,1.1-1.9,1.2-2.6,2s0.4,4.8,0.4,4.8c0.3,3.1,2,4.2,2.3,7.1c0.3,2.8-1.7,4.8-2.5,7.9c-0.8,3.1-1.7,7.1-4.2,9.3
		s-1.4,6.8-0.8,8.2c0.6,1.4,3.1,3.1,4.5,4.2c1.4,1.1,1.7,3.1,3.4,5.6c1.7,2.5,4.5,1.7,8.8,3.1c4.2,1.4,5.9,2.8,8.8,4.5
		c0,0,0.7,0.7,1.5,0.8c0.7,0.1,0.7-0.1,2-0.5s1.8,0,1.4,1.1s-1.6,2.1-2.2,2.6s-0.5,0.5-0.8,1.5c-0.2,1-0.5,3.1-1.2,1.9
		s-0.1-2.9-0.5-3.6s-1.6-1.7-2.1-2.1c0,0-3.8-2-5.6-3.1c-2-1.1-5.9-2-7.9-2s-5.4-1.4-5.9-3.1c-0.6-1.7-3.7-4.8-6.5-5.6
		c-2.8-0.8-3.1-0.8-4,0.8c-0.8,1.7,0.8,4.2,1.7,5.9c0.8,1.7,2.8,5.1,2.8,7.3s1.4,4.5,2.5,5.9c1.1,1.4,3.1,4.8,4.2,8.2
		c0,0,0.1,0.6,0.3,1.1s1.5,0.8,1.4,1.6s-0.5,1.4-2.4,0.9s-3-0.5-3.6-0.1s-2.5-0.8-1-1.9s3-0.1,3-1.1s-0.6-2.8-0.8-3.3
		c-1-2.4-3.7-4-4.8-5.6c-1.1-1.7-1.7-4.2-1.7-6.5c0-2.3-2.5-5.6-4.2-7.9c-1.7-2.3-2-1.4-3.4-2c-1.4-0.6-3.7,0.3-8.2,0.3
		c-4.5,0-19.2,2.5-24,1.7c-4.8-0.8-25.7-0.3-29.1,0c-3.4,0.3-20.1,0.8-24.9,0.8"/>
</g>
<g id="streger">
	<line class="st3" x1="100.2" y1="54.4" x2="100.2" y2="65.7"/>
	<path class="st3" d="M176.9,42.4"/>
	<line class="st4" x1="325.5" y1="50" x2="325.5" y2="91.1"/>
	<line class="st4" x1="495.7" y1="252" x2="495.7" y2="233.4"/>
</g>
<g id="Lag_9">
	<path class="st5" d="M530.2,250.6c0,0-61.6-28.1-67.2-58.9c6.7-3.7,5.5-11.3-1.3-12.7c-1.3-13.2,9.2-95.7,68.3-117.1
		C530.6,125.4,530.2,250.6,530.2,250.6z"/>
	<path class="st6" d="M274.1,95.4c0,0,24.8,6.9,46,0.9c14.1-4,37.3-24.8,66.2-34.4c27.8-9.3,39,21.8,37.1,48.3
		c-2.6,36.4-4.6,64.9-7.9,88.7c-3.4,24.2-2.4,66.6-37.1,65.6c-21.2-0.7-29.1-27.8-47-52.3c-9.8-13.5-22.5-23.2-35.8-29.8
		c-13.2-6.6-20.8-7.3-20.8-7.3"/>
</g>
<g id="Lag_11">
	<circle class="st7" cx="359" cy="139" r="15.5"/>
</g>
<g id="Lag_10">
	<circle class="st8" cx="358.5" cy="131.5" r="2.2"/>
	<circle class="st8" cx="366.5" cy="134" r="2.2"/>
	<circle class="st8" cx="366.5" cy="144" r="2.2"/>
	<circle class="st8" cx="357" cy="142.5" r="2.2"/>
	<circle class="st8" cx="360.5" cy="149" r="2.2"/>
	<circle class="st8" cx="349.2" cy="140" r="2.2"/>
	<circle class="st8" cx="350.5" cy="131.5" r="2.2"/>
	<g>
		<circle class="st9" cx="417.2" cy="180.4" r="15.5"/>
		<path class="st10" d="M415.7,195.8c-8.5-0.9-14.7-8.5-13.8-17c0.9-8.5,8.5-14.7,17-13.8"/>
	</g>
	<g>
		<linearGradient id="SVGID_4_" gradientUnits="userSpaceOnUse" x1="397.3718" y1="232.3789" x2="410.834" y2="232.3789">
			<stop  offset="5.617980e-03" style="stop-color:#0092C2"/>
			<stop  offset="0.264" style="stop-color:#7ACDEF"/>
			<stop  offset="0.3473" style="stop-color:#9CCED5"/>
			<stop  offset="0.4737" style="stop-color:#C1CFAC"/>
			<stop  offset="0.597" style="stop-color:#D9CD85"/>
			<stop  offset="0.714" style="stop-color:#EACB63"/>
			<stop  offset="0.8232" style="stop-color:#F5CA46"/>
			<stop  offset="0.9217" style="stop-color:#FBC930"/>
			<stop  offset="1" style="stop-color:#FDC826"/>
		</linearGradient>
		<path class="st11" d="M409.7,239.7c-10-2.7-14-13.3-11.7-14.5c1.8-1,8.1,8.3,12.8,9.3"/>
	</g>
	<ellipse class="st12" cx="413.9" cy="106.2" rx="2.1" ry="6.1"/>
	<linearGradient id="SVGID_5_" gradientUnits="userSpaceOnUse" x1="423.1116" y1="112.3335" x2="423.1116" y2="100.167">
		<stop  offset="5.617980e-03" style="stop-color:#009EE0"/>
		<stop  offset="0.5449" style="stop-color:#BDE4F7"/>
		<stop  offset="1" style="stop-color:#009EE0"/>
	</linearGradient>
	<path class="st13" d="M413.7,100.2h16.7c0,0,5,4.5,0,12.2c-7-0.5-16.3,0-16.3,0S417.9,106.5,413.7,100.2z"/>
</g>
<g id="pile">
	<polygon points="403,170.8 407.9,176.9 400.2,178.1 	"/>
	<g>
		<polygon points="373.3,127.5 378.2,121.4 381,128.7 		"/>
		<line class="st4" x1="378.3" y1="125.3" x2="388" y2="120.3"/>
	</g>
	<g>
		<polygon points="362.4,157.8 368.8,162.3 361.7,165.6 		"/>
		<path class="st4" d="M364.3,162.7c0,0,30.7,58.7,32.7,61.3c2,2.7,7.7,14,15,13.7c10.1-0.5,10.7-11.7,13-42"/>
	</g>
	<path class="st14" d="M374,149c0,0,22.7,25.7,31.7,26.7"/>
	<g>
		<polygon points="454,195.8 448.6,190.1 456.2,188.3 		"/>
		<line class="st4" x1="452.5" y1="192.2" x2="444.7" y2="199"/>
	</g>
	<g>
		<polygon class="st15" points="488.2,189.9 488.4,182.1 495.1,186.3 		"/>
		<line class="st16" x1="489.7" y1="186.3" x2="479.4" y2="185.7"/>
	</g>
	<g>
		<polygon points="433.7,105.8 440.9,102.7 440,110.4 		"/>
		<line class="st4" x1="439.2" y1="106.2" x2="450.1" y2="106.2"/>
	</g>
	<g>
		<polygon points="432.5,93.2 427.2,87.5 434.8,85.8 		"/>
		<line class="st4" x1="431.1" y1="87.9" x2="427.6" y2="77.6"/>
	</g>
</g>
<g id="Lag_13">
	<circle class="st8" cx="412" cy="172.9" r="2.2"/>
	<circle class="st8" cx="415.3" cy="188" r="2.2"/>
	<circle class="st8" cx="424.1" cy="185.6" r="2.2"/>
	<circle class="st8" cx="442" cy="179" r="2.2"/>
	<circle class="st8" cx="431.7" cy="176.3" r="2.2"/>
	<circle class="st17" cx="455" cy="104.3" r="2.2"/>
	<circle class="st17" cx="405.7" cy="114.3" r="2.2"/>
	<circle class="st17" cx="407.3" cy="108" r="2.2"/>
	<circle class="st17" cx="452.3" cy="110.7" r="2.2"/>
	<circle class="st18" cx="503.7" cy="180" r="2.2"/>
	<circle class="st18" cx="501" cy="188.7" r="2.2"/>
	<circle class="st18" cx="508.7" cy="185.3" r="2.2"/>
	<circle class="st18" cx="515.7" cy="180.7" r="2.2"/>
	<circle class="st18" cx="516" cy="186.7" r="2.2"/>
	<circle class="st18" cx="522.7" cy="191" r="2.2"/>
	<circle class="st18" cx="526" cy="184" r="2.2"/>
	<circle class="st17" cx="397.7" cy="118" r="2.2"/>
	<circle class="st17" cx="397.7" cy="111.3" r="2.2"/>
	<circle class="st17" cx="390.3" cy="118.3" r="2.2"/>
	<circle class="st8" cx="420.2" cy="177" r="2.2"/>
	<circle class="st8" cx="406.7" cy="182.3" r="2.2"/>
	<circle class="st18" cx="444" cy="204.7" r="2.2"/>
	<circle class="st18" cx="438" cy="199.7" r="2.2"/>
	<circle class="st18" cx="435" cy="209.7" r="2.2"/>
	<circle class="st17" cx="369.3" cy="124.3" r="2.2"/>
	<circle class="st17" cx="375.3" cy="131.3" r="2.2"/>
</g>
<g id="Lag_14">
	<ellipse class="st12" cx="458.9" cy="185.2" rx="2.1" ry="6.1"/>
	<circle class="st8" cx="459.8" cy="177.4" r="2.2"/>
	<linearGradient id="SVGID_6_" gradientUnits="userSpaceOnUse" x1="468.1116" y1="191.3335" x2="468.1116" y2="179.167">
		<stop  offset="5.617980e-03" style="stop-color:#009EE0"/>
		<stop  offset="0.5449" style="stop-color:#BDE4F7"/>
		<stop  offset="1" style="stop-color:#009EE0"/>
	</linearGradient>
	<path class="st19" d="M458.7,179.2h16.7c0,0,5,4.5,0,12.2c-7-0.5-16.3,0-16.3,0S462.9,185.5,458.7,179.2z"/>
</g>
<g id="Lag_7">
	<rect x="151.7" y="74.3" class="st20" width="16" height="16"/>
	<rect x="273.7" y="22.3" class="st20" width="257.2" height="257.2"/>
	<line class="st21" x1="168.1" y1="79.1" x2="273.9" y2="79.1"/>
</g>
<g id="txt">
	<text transform="matrix(1 0 0 1 215.3838 99.1768)" class="st22 st23">Neuron</text>
	<text transform="matrix(1 0 0 1 376.0508 96.5098)"><tspan x="0" y="0" class="st22 st23">Ca</tspan><tspan x="11.7" y="-2" class="st22 st24">2+</tspan></text>
	<text transform="matrix(1 0 0 1 501.7168 208.8428)"><tspan x="0" y="0" class="st15 st22 st23">Na</tspan><tspan x="12.1" y="-2" class="st15 st22 st24">+</tspan></text>
	<text transform="matrix(1 0 0 1 492.4536 262.5684)"><tspan x="0" y="0" class="st22 st23">Dendrit </tspan><tspan x="-80.2" y="10.8" class="st22 st23">(postsynaptisk membran)</tspan></text>
	<text transform="matrix(1 0 0 1 277.4526 34.0312)"><tspan x="0" y="0" class="st22 st23">Endeknop </tspan><tspan x="0" y="10.8" class="st22 st23">(præsynaptiske membran)</tspan></text>
	<text transform="matrix(1 0 0 1 85.1958 52.2959)" class="st22 st23">Axon</text>
	<text transform="matrix(1 0 0 1 389.0068 16.5288)" class="st22 st23">Synapsen</text>
	<text transform="matrix(1 0 0 1 421.1929 76.4946)" class="st22 st23">AP</text>
	<line class="st4" x1="391.7" y1="99" x2="395.7" y2="107.7"/>
	<line class="st16" x1="509" y1="201.3" x2="509" y2="190"/>
	<line class="st4" x1="317.6" y1="155.9" x2="345.9" y2="141.3"/>
	<text transform="matrix(1 0 0 1 278.0508 164.5098)" class="st22 st23">Transmitterstof</text>
</g>
</svg>
