<?xml version="1.0" encoding="utf-8"?>
<!-- Generator: Adobe Illustrator 19.1.0, SVG Export Plug-In . SVG Version: 6.00 Build 0)  -->
<svg version="1.1" xmlns="http://www.w3.org/2000/svg" xmlns:xlink="http://www.w3.org/1999/xlink" x="0px" y="0px"
	 viewBox="0 0 566.9 481" style="enable-background:new 0 0 566.9 481;" xml:space="preserve">
<style type="text/css">
	.st0{opacity:0.3;}
	.st1{fill:url(#SVGID_1_);}
	.st2{fill:url(#SVGID_2_);stroke:#000000;stroke-width:0.5;}
	.st3{fill:url(#SVGID_3_);stroke:#000000;stroke-width:0.5;}
	.st4{fill:url(#SVGID_4_);stroke:#000000;stroke-width:0.5;}
	.st5{fill:url(#SVGID_5_);stroke:#000000;stroke-width:0.5;}
	.st6{fill:url(#SVGID_6_);stroke:#000000;stroke-width:0.5;}
	.st7{fill:url(#SVGID_7_);stroke:#000000;stroke-width:0.5;}
	.st8{fill:#FEDA98;stroke:#000000;stroke-width:0.5;}
	.st9{fill:url(#SVGID_8_);stroke:#000000;stroke-width:0.5;}
	.st10{fill:url(#SVGID_9_);stroke:#000000;stroke-width:0.5;}
	.st11{fill:url(#SVGID_10_);stroke:#000000;stroke-width:0.5;}
	.st12{fill:none;stroke:#000000;stroke-width:0.5;}
	.st13{fill:url(#SVGID_11_);}
	.st14{fill:url(#SVGID_12_);stroke:#000000;stroke-width:0.5;}
	.st15{fill:url(#SVGID_13_);stroke:#000000;stroke-width:0.5;}
	.st16{fill:url(#SVGID_14_);stroke:#000000;stroke-width:0.5;}
	.st17{fill:none;stroke:#FFFFFF;stroke-width:0.75;}
	.st18{fill:#FFFFFF;}
	.st19{font-family:'Verdana';}
	.st20{font-size:9px;}
	.st21{fill:none;stroke:#FFFFFF;}
</style>
<g id="Lag_1" class="st0">
</g>
<g id="Lag_6">
	<linearGradient id="SVGID_1_" gradientUnits="userSpaceOnUse" x1="283.896" y1="392.333" x2="283.896" y2="67.6665">
		<stop  offset="0" style="stop-color:#009036"/>
		<stop  offset="1.999901e-02" style="stop-color:#00914A"/>
		<stop  offset="5.552186e-02" style="stop-color:#009366"/>
		<stop  offset="9.434610e-02" style="stop-color:#00957F"/>
		<stop  offset="0.1361" style="stop-color:#009794"/>
		<stop  offset="0.1816" style="stop-color:#0099A5"/>
		<stop  offset="0.2325" style="stop-color:#009AB1"/>
		<stop  offset="0.2917" style="stop-color:#009BBA"/>
		<stop  offset="0.3668" style="stop-color:#009BBF"/>
		<stop  offset="0.5112" style="stop-color:#009BC0"/>
		<stop  offset="0.6174" style="stop-color:#009BBE"/>
		<stop  offset="0.6888" style="stop-color:#009BB9"/>
		<stop  offset="0.75" style="stop-color:#009AAF"/>
		<stop  offset="0.8054" style="stop-color:#0098A1"/>
		<stop  offset="0.8569" style="stop-color:#00978E"/>
		<stop  offset="0.9056" style="stop-color:#009576"/>
		<stop  offset="0.9521" style="stop-color:#00925A"/>
		<stop  offset="0.9956" style="stop-color:#00903A"/>
		<stop  offset="1" style="stop-color:#009036"/>
	</linearGradient>
	<rect x="0.4" y="67.7" class="st1" width="567" height="324.7"/>
</g>
<g id="Lag_17">
</g>
<g id="Lag_4">
</g>
<g id="Lag_7">
</g>
<g id="Lag_15">
	
		<linearGradient id="SVGID_2_" gradientUnits="userSpaceOnUse" x1="263.2441" y1="211.3582" x2="356.8975" y2="211.3582" gradientTransform="matrix(-1 0 0 1 569.0391 0)">
		<stop  offset="0" style="stop-color:#62C6ED"/>
		<stop  offset="0.1375" style="stop-color:#92D5F2"/>
		<stop  offset="0.3062" style="stop-color:#B9E2F6"/>
		<stop  offset="0.4772" style="stop-color:#D3EDF9"/>
		<stop  offset="0.6491" style="stop-color:#E4F4FC"/>
		<stop  offset="0.8226" style="stop-color:#EEF8FD"/>
		<stop  offset="1" style="stop-color:#F1F9FD"/>
	</linearGradient>
	<path class="st2" d="M218.3,254.5c0,0,23.2-13.2,28.5-13.7s15.1,1.8,20,1.3c5.3-0.5,16-3.3,20.8-7.2c4.8-3.8,19.8-26.7,18-40.5
		c-1.8-13.8-8-22-20-25s-28.2-0.5-36.7,8.2c-8.5,8.7-7.5,15-8.3,22.5c-0.8,7.5-2.2,30.7-3.8,33.7c-1.7,3-21.3,15.2-24.7,16.5"/>
</g>
<g id="Lag_11">
	
		<linearGradient id="SVGID_3_" gradientUnits="userSpaceOnUse" x1="128.3499" y1="301.1641" x2="128.3499" y2="100.0532" gradientTransform="matrix(-1 0 0 1 569.0391 0)">
		<stop  offset="0.1573" style="stop-color:#FEEBD6"/>
		<stop  offset="0.3244" style="stop-color:#FEE6C5"/>
		<stop  offset="0.5941" style="stop-color:#FEDFAD"/>
		<stop  offset="0.8286" style="stop-color:#FEDB9D"/>
		<stop  offset="1" style="stop-color:#FEDA98"/>
	</linearGradient>
	<path class="st3" d="M404.9,125.8c0,0,14.3-36.4,44.2-22.7c29.9,13.6,27.3,46.8,27.3,48.1s2.6,27.3-18.2,61
		c-20.1,32.7-20.1,81.2-26,89c-1.9-9.7-12.3-35.1-12.3-35.1s3.9-5.2,10.4-17.5c6.5-12.3,20.8-42.9,25.3-59.1
		c4.5-16.2,8.4-75.3-29.9-46.8C417.3,134.9,404.9,125.8,404.9,125.8z"/>
	
		<linearGradient id="SVGID_4_" gradientUnits="userSpaceOnUse" x1="142.8998" y1="155.8788" x2="361.0419" y2="155.8788" gradientTransform="matrix(-1 0 0 1 569.0391 0)">
		<stop  offset="0.4213" style="stop-color:#FEDA98"/>
		<stop  offset="0.764" style="stop-color:#FFF3E1"/>
		<stop  offset="0.8187" style="stop-color:#FFF7EB"/>
		<stop  offset="0.9233" style="stop-color:#FFFDFA"/>
		<stop  offset="1" style="stop-color:#FFFFFF"/>
	</linearGradient>
	<path class="st4" d="M399.7,108.3c0,0-1.9,11,2.6,13.6c4.5,2.6,21.4,4.5,23.4,18.8c1.9,14.3-3.2,18.2-3.2,18.2s-8.4,28.6-20.1,37
		c-11.7,8.4-56.5,9.7-68.2,6.5c-11.7-3.2-30.5-7.8-30.5-7.8s-1.3-20.1-16.9-23.4c-15.6-3.2-31.2,0-41.6,16.2
		c-10.4,16.2-5.2,7.8-5.2,7.8h-18.8c0,0-19.5-27.9-11-44.2s27.9-16.9,48.1-3.2s48.7,14.3,56.5,14.3c7.8,0,16.2-9.1,22.1-19.5
		c5.8-10.4,13.6-35.1,13.6-35.1"/>
	
		<linearGradient id="SVGID_5_" gradientUnits="userSpaceOnUse" x1="108.5985" y1="197.0746" x2="283.5957" y2="197.0746" gradientTransform="matrix(-1 0 0 1 569.0391 0)">
		<stop  offset="5.617980e-03" style="stop-color:#EE7E32"/>
		<stop  offset="0.4494" style="stop-color:#F5A862"/>
		<stop  offset="1" style="stop-color:#FEEDE1"/>
	</linearGradient>
	<path class="st5" d="M410.1,171.9c0,0,14.3-48.7,33.8-43.5c19.5,5.2,19.5,48.7,11.7,67.5c-7.8,18.8-33.8,70.1-33.8,70.1
		s-10.4-14.9-16.2-20.1c-5.8-5.2-14.3-3.9-27.3-5.8c-13-1.9-47.4-15.6-63-10.4c-15.6,5.2-29.9,9.1-29.9,9.1l18.2-44.2
		c22.1,2.6,39,5.8,52.6,5.8C369.9,200.5,394.5,203.1,410.1,171.9z"/>
	
		<linearGradient id="SVGID_6_" gradientUnits="userSpaceOnUse" x1="136.515" y1="272.9257" x2="304.375" y2="272.9257" gradientTransform="matrix(-1 0 0 1 569.0391 0)">
		<stop  offset="0" style="stop-color:#FEDA98"/>
		<stop  offset="0.7865" style="stop-color:#FEEBD6"/>
		<stop  offset="0.8604" style="stop-color:#FFF5EA"/>
		<stop  offset="0.941" style="stop-color:#FFFCF9"/>
		<stop  offset="1" style="stop-color:#FFFFFF"/>
	</linearGradient>
	<path class="st6" d="M264.7,247.9c0,0,40.9-18.2,57.1-19.5c16.2-1.3,35.1,5.2,45.5,9.1c10.4,3.9,17.5-0.6,27.9,1.3
		c10.4,1.9,16.2,3.9,21.4,14.3c5.2,10.4,27.3,48.1,8.4,60.4c-18.8,12.3-26.6-5.8-34.4-20.8c-7.8-14.9-33.1-34.4-50.6-37.7
		c-17.5-3.2-37.7-1.3-48.7,1.9"/>
	
		<radialGradient id="SVGID_7_" cx="243.3092" cy="227.9662" r="22.1449" gradientTransform="matrix(-0.7653 -0.3149 -0.31 0.7533 549.6853 121.9287)" gradientUnits="userSpaceOnUse">
		<stop  offset="5.617980e-03" style="stop-color:#FCDCBD"/>
		<stop  offset="1" style="stop-color:#EE7E32"/>
	</radialGradient>
	<path class="st7" d="M285.6,214.1c-5.1,12.4-6,23.8-2.1,25.5c4,1.6,11.4-7.1,16.5-19.5c5.1-12.4,6-23.8,2.1-25.5
		C298.1,192.9,290.7,201.6,285.6,214.1z"/>
</g>
<g id="Lag_12">
	<path class="st8" d="M240.6,174.6c0,0-3,5-6.7,5.7c-3.7,0.7-4.3-1.7-4.3-4.3c0-2.7,3.7-9,6.3-10.3c2.7-1.3,10.7-4,18.3-2.3
		c4.3,0.9,9.3,3.3,11.7,6c2.3,2.7,3.7,6.7,3.7,10.3c0,3.7,0,6-1.7,5.7c-1.7-0.3-7.3,1.3-8.3-0.7s-1.3-6-2.7-7.7
		c-1.3-1.7-3.7-4.7-7.3-4.7C247.5,172.3,241.6,174.3,240.6,174.6z"/>
	
		<linearGradient id="SVGID_8_" gradientUnits="userSpaceOnUse" x1="293.711" y1="191.1896" x2="328.3985" y2="191.1896" gradientTransform="matrix(-1 0 0 1 569.0391 0)">
		<stop  offset="0.4213" style="stop-color:#FEDA98"/>
		<stop  offset="0.764" style="stop-color:#FFF3E1"/>
		<stop  offset="0.8187" style="stop-color:#FFF7EB"/>
		<stop  offset="0.9233" style="stop-color:#FFFDFA"/>
		<stop  offset="1" style="stop-color:#FFFFFF"/>
	</linearGradient>
	<path class="st9" d="M245.3,183.6c2-0.3,6-1,9-1.7c3-0.7,11.3-0.7,13.7-0.3c2.3,0.3,6,2,6.7,4.7c0.7,2.7,1.3,5.8-0.3,8.7
		c-1.7,3-5,6-10.7,6c-5.7,0-7.7-1-11-3.3c-1.4-1-4.7-3.7-5.7-3.7s-8-1.3-5-4c1.8-1.6,4.9-2.5,7.7-2.6c1.7,0,3.3,0.3,4.3,0.9
		c2.7,1.7,7.7,4,9.3,4s3.7-0.3,2.7-2.7c-0.9-2.2-1.3-1.3-6.7-1.3c-5.3,0-3.3-0.3-3.3-0.3s-12-2.3-15.3,1.3
		C241.3,185.3,245.3,183.6,245.3,183.6z"/>
	
		<linearGradient id="SVGID_9_" gradientUnits="userSpaceOnUse" x1="337.7469" y1="188.4657" x2="337.7469" y2="142.7125" gradientTransform="matrix(-1 0 0 1 569.0391 0)">
		<stop  offset="0.4213" style="stop-color:#FEDA98"/>
		<stop  offset="1" style="stop-color:#FFF3E1"/>
	</linearGradient>
	<path class="st10" d="M222.6,188c0,0-11.4-23.8-7-33.3c5.3-11.7,14-13,19.7-11.3c5.7,1.7,10.2,3.7,12,12c1.3,6.3,0.3,23-1,26.7
		c-1.3,3.7-4,6-5.7,6.3c-1.7,0.3-5.3,0.7-7-4.3s0.3-12.3,2.3-18.3s1.7-10.3-0.3-12.3s-9-2.3-9.7,2.7c-0.7,5-0.7,11.3,1,15.3
		s4,9.7,4,9.7L222.6,188z"/>
	
		<radialGradient id="SVGID_10_" cx="354.1267" cy="211.7142" r="34.0754" gradientTransform="matrix(-1 0 0 1 569.0391 0)" gradientUnits="userSpaceOnUse">
		<stop  offset="5.617980e-03" style="stop-color:#FFFFFF"/>
		<stop  offset="0.427" style="stop-color:#FFF3E1"/>
		<stop  offset="0.573" style="stop-color:#FFF1DC"/>
		<stop  offset="1" style="stop-color:#FEDA98"/>
	</radialGradient>
	<path class="st11" d="M224,219c0,0,2.7-5.3,2-10.3c-0.7-5-4.3-12.3-4.7-16.3c-0.3-4,0.3-10.3,4.3-13.3s10.7-3.3,16,2
		c4.1,4.1,5.4,11.5,6.3,19.7c1,9-2.7,23-9.3,29.7c-6.7,6.7-23.3,19.3-37.3,15.7c-14-3.7-17.3-12.7-19.3-21.3c-1-4.5,0.7-16.3,7-21
		c6.3-4.7,12.7-7.7,21.7-5c6.3,1.9,9.3,5.3,11.7,11C224.6,215.3,224,219,224,219z"/>
</g>
<g id="Lag_13">
	<path class="st12" d="M207.6,216c0,0-3.7-3.7-6.3-1c-2.7,2.7-2.5,8.4,1,9.7c6.3,2.3,13,0.3,13.7-7.7c0.7-8-6.3-11-10.3-11.3
		c-4-0.3-12.3,2.7-14.3,11.7s4.7,18,12.3,18.3c7.7,0.3,15.9-2.9,18.7-9.3c1-2.3,2-6.3,2-8.3"/>
</g>
<g id="Lag_16">
	<g>
		<g>
			
				<linearGradient id="SVGID_11_" gradientUnits="userSpaceOnUse" x1="284.1875" y1="124.458" x2="336.334" y2="124.458" gradientTransform="matrix(-1 0 0 1 583.9746 71.2988)">
				<stop  offset="0.1573" style="stop-color:#009EE0"/>
				<stop  offset="0.2631" style="stop-color:#00AFE6"/>
				<stop  offset="0.4143" style="stop-color:#6BC9EE"/>
				<stop  offset="0.5594" style="stop-color:#ACDEF5"/>
				<stop  offset="0.6943" style="stop-color:#D3EDF9"/>
				<stop  offset="0.8168" style="stop-color:#ECF7FD"/>
				<stop  offset="0.9227" style="stop-color:#FAFDFE"/>
				<stop  offset="1" style="stop-color:#FFFFFF"/>
			</linearGradient>
			<path class="st13" d="M247.6,209.5c1.2,0.5,2.2,0.2,2.2,0.2l1-2.7c0,0,6.2,0.3,7,0.3s2.5-1,2.7-1.5c2.7,0.3,14.9-0.6,16.7-1.7
				c1.5-0.9,3.7-1.8,3.8-11.2c-0.1-1.5,0-3.2,0-3.2h6.7c0,0-1.2,7.4-2.8,10c-1.6,2.7-5.1,9.8-4.8,12.2c0.1,1,0.8,2.3,1.5,2.8
				s3.4,0.9,3.4,0.9s2.6-7,7.1-13.8c2.7-4.2,7.8-7.4,7.8-7.4l-0.8-1c0,0-5.3-5.1-9-5.4c1.5-4.8,1.3-9.5-1.7-11.2s-6.3-1.3-8.3-0.5
				s-4.2,3.5-3.7,7s1.6,9.7,1.5,12.5c-0.1,1.5,0.5,6-4,7s-12.8,0.7-12.8,0.7s0.2-3.5-2.7-3.5c-2.8,0-6.8-0.2-6.8-0.2l-0.7-3
				l-2.2-0.3C248.6,196.6,248.1,208.1,247.6,209.5z M251.2,205.2c0.4-1.2,0.2-3.4,0.2-3.4c1.4,0,6.6-0.1,7.3,0.7s0.4,2.4-0.3,2.6
				C257.9,205.3,253.8,205.5,251.2,205.2z"/>
		</g>
		<g>
			<path class="st12" d="M247.6,209.5c1.2,0.5,2.2,0.2,2.2,0.2l1-2.7c0,0,6.2,0.3,7,0.3s2.5-1,2.7-1.5c2.7,0.3,14.9-0.6,16.7-1.7
				c1.5-0.9,3.7-1.8,3.8-11.2c-0.1-1.5,0-3.2,0-3.2h6.7c0,0-1.2,7.4-2.8,10c-1.6,2.7-5.1,9.8-4.8,12.2c0.1,1,0.8,2.3,1.5,2.8
				s3.4,0.9,3.4,0.9s2.6-7,7.1-13.8c2.7-4.2,7.8-7.4,7.8-7.4l-0.8-1c0,0-5.3-5.1-9-5.4c1.5-4.8,1.3-9.5-1.7-11.2s-6.3-1.3-8.3-0.5
				s-4.2,3.5-3.7,7s1.6,9.7,1.5,12.5c-0.1,1.5,0.5,6-4,7s-12.8,0.7-12.8,0.7s0.2-3.5-2.7-3.5c-2.8,0-6.8-0.2-6.8-0.2l-0.7-3
				l-2.2-0.3C248.6,196.6,248.1,208.1,247.6,209.5z M251.2,205.2c0.4-1.2,0.2-3.4,0.2-3.4c1.4,0,6.6-0.1,7.3,0.7s0.4,2.4-0.3,2.6
				C257.9,205.3,253.8,205.5,251.2,205.2z"/>
		</g>
	</g>
	
		<radialGradient id="SVGID_12_" cx="285.5645" cy="182.7989" r="4.5" gradientTransform="matrix(-1 0 0 1 569.0391 0)" gradientUnits="userSpaceOnUse">
		<stop  offset="8.426970e-02" style="stop-color:#FFFFFF"/>
		<stop  offset="1" style="stop-color:#009EE0"/>
	</radialGradient>
	<circle class="st14" cx="283.5" cy="182.8" r="4.5"/>
	
		<radialGradient id="SVGID_13_" cx="309.9056" cy="213.69" r="4.5001" gradientTransform="matrix(-0.975 0 0 0.6238 561.5203 78.8062)" gradientUnits="userSpaceOnUse">
		<stop  offset="0.4283" style="stop-color:#FFFFFF"/>
		<stop  offset="0.7143" style="stop-color:#009EE0"/>
	</radialGradient>
	<ellipse class="st15" cx="259.4" cy="212.1" rx="4.4" ry="2.8"/>
</g>
<g id="Lag_14">
	
		<linearGradient id="SVGID_14_" gradientUnits="userSpaceOnUse" x1="335.1895" y1="192.6114" x2="424.3985" y2="192.6114" gradientTransform="matrix(-1 0 0 1 569.0391 0)">
		<stop  offset="0" style="stop-color:#62C6ED"/>
		<stop  offset="1" style="stop-color:#F1F9FD"/>
	</linearGradient>
	<path class="st16" d="M158,179.3c0,0,47.9,13.8,75.9,12.8c-1.8,1.9-14.5,2.9-10.1,5.2c4.8,2.6,7.2,4.7,7.2,4.7s-4.3-0.3-14.7-3.7
		c-10.3-3.3-34.3-6.7-40-7.3c17,5.3,16.3,5.7,21.7,7.7c-5.7,2.7-10.2,5.9-11.2,7.2c-7-3.7-30.8-8-42.1-8.3"/>
</g>
<g id="Lag_18">
</g>
<g id="streger">
	<line class="st17" x1="293.5" y1="221" x2="316.9" y2="273.7"/>
	<line class="st17" x1="151.1" y1="218" x2="182.3" y2="218"/>
	<line class="st17" x1="92" y1="186.2" x2="155" y2="186.2"/>
	<polyline class="st17" points="221.3,144 199.8,144 199.8,180.4 223.2,180.4 	"/>
	<line class="st17" x1="199.2" y1="158.3" x2="181.6" y2="158.3"/>
	<line class="st17" x1="305.8" y1="147.7" x2="293.2" y2="195.4"/>
	<line class="st17" x1="284.5" y1="112.3" x2="284.5" y2="178.2"/>
	<line class="st17" x1="253.8" y1="205.7" x2="235.9" y2="273.5"/>
	<line class="st17" x1="206.6" y1="110.6" x2="248.4" y2="201.7"/>
	<line class="st17" x1="211.9" y1="252.9" x2="175.7" y2="275.1"/>
	<line class="st17" x1="261.1" y1="216.6" x2="265.3" y2="274.3"/>
</g>
<g id="txt">
	<text transform="matrix(1 0 0 1 106.3643 160.9614)" class="st18 st19 st20">Ligevægtsorgan</text>
	<text transform="matrix(1 0 0 1 39.1045 189.4819)" class="st18 st19 st20">Hørenerve</text>
	<text transform="matrix(1 0 0 1 113.7646 220.6499)" class="st18 st19 st20">Sneglen</text>
	<text transform="matrix(1 0 0 1 309.6226 282.9873)" class="st18 st19 st20">Trommehinde</text>
	<text transform="matrix(1 0 0 1 297.7646 142.6499)" class="st18 st19 st20">Hammer</text>
	<text transform="matrix(1 0 0 1 267.7646 108.6499)" class="st18 st19 st20">Ambolt</text>
	<text transform="matrix(1 0 0 1 199.8311 282.9878)" class="st18 st19 st20">Stigbøjle</text>
	<text transform="matrix(1 0 0 1 157.7646 108.6499)" class="st18 st19 st20">Det ovale vindue</text>
	<line class="st21" x1="476.5" y1="351.3" x2="181.6" y2="351.3"/>
	<line class="st21" x1="182" y1="360" x2="182" y2="343.3"/>
	<line class="st21" x1="247" y1="360" x2="247" y2="343.3"/>
	<line class="st21" x1="300" y1="360" x2="300" y2="343.3"/>
	<line class="st21" x1="477" y1="360" x2="477" y2="343.3"/>
	<text transform="matrix(1 0 0 1 193.8311 342.9873)" class="st18 st19 st20">Indre øre</text>
	<text transform="matrix(1 0 0 1 250.7686 342.9868)" class="st18 st19 st20">Mellemøre</text>
	<text transform="matrix(1 0 0 1 365.7686 343.3325)" class="st18 st19 st20">Ydre øre</text>
	<text transform="matrix(1 0 0 1 198.1104 365.3203)" class="st18 st19 st20">Væske</text>
	<text transform="matrix(1 0 0 1 292.0479 365.6655)" class="st18 st19 st20">Luft</text>
	<text transform="matrix(1 0 0 1 118.8311 282.9878)" class="st18 st19 st20">Eustakiske rør</text>
	<text transform="matrix(1 0 0 1 250.8311 282.9878)"><tspan x="0" y="0" class="st18 st19 st20">Det runde </tspan><tspan x="0" y="10.8" class="st18 st19 st20">vindue</tspan></text>
</g>
</svg>
