<?xml version="1.0" encoding="utf-8"?>
<!-- Generator: Adobe Illustrator 19.1.0, SVG Export Plug-In . SVG Version: 6.00 Build 0)  -->
<svg version="1.1" xmlns="http://www.w3.org/2000/svg" xmlns:xlink="http://www.w3.org/1999/xlink" x="0px" y="0px"
	 viewBox="0 0 566.9 481" style="enable-background:new 0 0 566.9 481;" xml:space="preserve">
<style type="text/css">
	.st0{fill:url(#SVGID_1_);}
	.st1{fill:none;stroke:#000000;stroke-width:0.5;}
	.st2{fill:url(#SVGID_2_);stroke:#000000;stroke-width:0.5;}
	.st3{fill:#F9C289;stroke:#000000;stroke-width:0.5;}
	.st4{fill:#BDE4F7;stroke:#000000;stroke-width:0.5;}
	.st5{fill:url(#SVGID_3_);stroke:#000000;stroke-width:0.5;}
	.st6{fill:#F29A79;stroke:#000000;stroke-width:0.5;}
	.st7{fill:#FFE595;stroke:#000000;stroke-width:0.5;}
	.st8{fill:#87888A;stroke:#000000;stroke-width:0.5;}
	.st9{fill:#B1B3B4;stroke:#000000;stroke-width:0.5;}
	.st10{fill:none;stroke:#FFFFFF;stroke-width:0.75;}
	.st11{fill:#FFFFFF;}
	.st12{font-family:'Verdana';}
	.st13{font-size:9px;}
</style>
<g id="Lag_2">
	<linearGradient id="SVGID_1_" gradientUnits="userSpaceOnUse" x1="407.0163" y1="247.4014" x2="407.0163" y2="4.999928e-04">
		<stop  offset="0" style="stop-color:#DA6CA3"/>
		<stop  offset="0.4892" style="stop-color:#E30050"/>
		<stop  offset="0.5461" style="stop-color:#DF0051"/>
		<stop  offset="0.6252" style="stop-color:#D50053"/>
		<stop  offset="0.7172" style="stop-color:#C30056"/>
		<stop  offset="0.819" style="stop-color:#A9115B"/>
		<stop  offset="0.9275" style="stop-color:#851F60"/>
		<stop  offset="1" style="stop-color:#662564"/>
	</linearGradient>
	<rect x="247.1" y="0" class="st0" width="319.8" height="247.4"/>
</g>
<g id="Lag_1">
	<path class="st1" d="M363.1,137.7"/>
	<linearGradient id="SVGID_2_" gradientUnits="userSpaceOnUse" x1="410.7276" y1="149.4224" x2="410.7276" y2="45.7154">
		<stop  offset="0.1404" style="stop-color:#9C9E9F"/>
		<stop  offset="0.2148" style="stop-color:#A8A9AB"/>
		<stop  offset="0.4493" style="stop-color:#C6C7C9"/>
		<stop  offset="0.666" style="stop-color:#DBDCDD"/>
		<stop  offset="0.8564" style="stop-color:#E8E9E9"/>
		<stop  offset="1" style="stop-color:#ECEDED"/>
	</linearGradient>
	<path class="st2" d="M476.3,149.4c4.4-0.2,6.6-1.3,8.6-5.2c1.7-3.4,3.3-6.6,4.4-10.3c1.3-4.4,1.2-8,1-12.5c-0.1-2,1.1-3.8,1.2-5.8
		c0.1-1.8-0.8-3.6-1.4-5.3c-1.4-3.8-3.5-7.4-4.3-11.2c-0.8-4.2-2.9-7.1-5.2-10.8c-2.4-3.8-4.6-5.5-8-8.3c-6-4.9-6.8-12.5-13.8-16.2
		c-3.4-1.8-7.5-5.1-10.8-6.8l-9.7-2.5c-2.7-2.1-8.8-2.9-12-3.9c-3.4-1.1-7.3-1.3-10.7-2.5c-1.9-0.7-3.1-1.9-5.2-2
		c-2.2-0.1-4.1,0.5-6.2,0.5c-3.9-0.1-7.6-1.7-11.5-0.5c-1.7,0.6-3.4,1.5-5.3,1.7c-2.1,0.3-3.8-0.5-6-0.5c-4.2,0-7.4,2.4-11.1,4.2
		c-3.8,1.8-8,3.1-11.7,5.1c-3.5,1.9-5,5.6-8.2,7.5c-3.2,1.9-5.4,2.1-8.1,5.4c-2.5,3.1-2.8,6.9-4.6,10.3c-5,2.9-7.1,8.5-7.4,14.2
		c-0.2,4.3,0.2,8.1,0.2,12c0,3.8-1.4,7.7-0.2,11.8c1.9,6.2,7,14.3,14.5,12.8c1.8,6.2,13.2,9.5,18.2,6.9L476.3,149.4z"/>
	<path class="st3" d="M390.3,124.9c4.1,0.8,8.9,3.5,11.5,6.9c1.3,1.6,2.3,3.3,2.6,5.4c0.4,2.8-0.8,5.7-1.7,8.3
		c-1.8,5.2-3.3,9.7-8.5,12c-3.9,1.7-7.6,1.7-11.7,1.2c-3.7-0.4-7.6-2.3-10.6-4.7c-3.1-2.4-5.1-5-6.2-8.7c-0.4-1.6-0.9-3-1-4.7
		c0-1.3-0.5-1.8-0.1-2.8c1.5,0.5,4.6-1.3,6.2-1.6c1.9-0.4,3.8-0.5,5.8-0.8c3.5-0.5,6.6-2.3,8.8-5c1.3-1.6,2.6-4.6,4.3-5.7
		C390,124.9,390.1,124.8,390.3,124.9c-0.2-0.2,0-0.3,0-0.5"/>
	<path class="st4" d="M429.9,198.3c0,0-3.1-10.4-3.8-14.4s-1.5-12-1.4-14.5s0-8.4-2-13S419,143,419,137.9s0.1-8.2-0.8-10.1
		s-2.6-2.8-3.5-4.2s-0.8-2.4,0-2.9c2.1,1.6,4.4,3.4,5.4,4s3.2,2.9,3.5,5.5s0.6,7,1.4,9.2s4.4,8.2,4.2,10.9s1.4,43.2,1.9,46.6"/>
	<linearGradient id="SVGID_3_" gradientUnits="userSpaceOnUse" x1="402.08" y1="202.7564" x2="402.08" y2="89.6724">
		<stop  offset="0" style="stop-color:#FFFFFF"/>
		<stop  offset="0.1529" style="stop-color:#FFFCFA"/>
		<stop  offset="0.3242" style="stop-color:#FEF2EC"/>
		<stop  offset="0.5045" style="stop-color:#FCE2D4"/>
		<stop  offset="0.6909" style="stop-color:#F9CAB3"/>
		<stop  offset="0.8805" style="stop-color:#F4AA8A"/>
		<stop  offset="0.882" style="stop-color:#F4A98A"/>
	</linearGradient>
	<path class="st5" d="M411.7,202.8c-0.7-1.7-2.6-8.5-2.9-9.8c-0.5-2-1.2-4.1-1.8-6.1c-0.5-1.9-0.6-3.8-1.5-5.5
		c-0.9-1.8-2.2-3.3-3.5-4.9c-3-3.5-4.7-7.6-6.5-11.6c-1.7-3.7-2.9-8.3-2.1-12.5c0.7-3.6,2.7-6.8,5.3-9.5c1.1-1.1,2.3-2.2,3-3.5
		c0.9-1.7,0-2.9-1.2-4.2c-1.3-1.6-2.9-3.4-4.8-4.3c-2.3-1.2-4.6-0.6-7-0.5c-0.9-3.9-1.1-8-2.7-11.7c-1.9-4.5-6.2-5.7-10.6-6.4
		c-4-0.6-8.5-2-11.2-5.2c-2.6-3.1-2.3-7.9,0.6-10.8c1.3-1.3,2.7-2.6,4.3-3.5c1.8-1,4-1.3,6-1.8c4.7-1.2,9.3-1.2,14.2-1.2
		c10.3,0,21.1,1.9,30.4,6.5c4.6,2.3,9.1,5.3,13.1,8.5c3.4,2.7,6.2,5.5,7.7,9.6c1.2,3.3,2.4,8.8-1.3,10.8c-0.7,0.4-1.7,0.5-2.5,0.8
		c-0.7,0.3-0.4,0.3-0.9,0.8c-0.3,0.3-0.4,0.6-0.9,0.9c-1.7,0.9-3.9-0.5-5.5,0.6c-3.1,2.1,0.9,6.3,1.9,8.5c-2.1,0.7-5.5,1.3-5.8,3.8
		c-0.7-1.8-1.4-3.9-1.5-6.1c-0.1-2,0-4.4-0.9-6.3c-0.9-1.7-2.5-2.9-4.1-3.9c-0.8-0.5-1.6-1-2.2-1.6c-0.4-0.4-1.4-1.6-1.9-1.7
		c0,0,0,0,0,0c-1.3,2.1,0.8,3.1,2.2,4.5c1.5,1.4,1.9,3,2.2,5c0.3,2.2,0,4.5,0.1,6.7c0.1,2.3,0.4,4.5,0.6,6.8c0.4,4.3,1.2,8.1,3,12.1
		c1.8,4,2.3,7.6,2.1,12c-0.2,5.1,0.5,10.4,1.4,15.3c0.9,5,2,10,3.7,14.8"/>
	<path class="st4" d="M419.1,128.2c-2.6-0.9-9.8-2.8-11.1-3.1c-5.1-1.2-9.3-1.8-12.6-5.3c-4.7-5,6.7-5.5,9.6-5.6
		c2.8-0.1,4.8,1.3,7.3,1.8c2.4,0.6,4.4,1.2,6.7,2.1c2.9,1.2,8.5,1.5,9.8-2.4l0,0.1c0-2.5-2.1-4.2-3.7-5.8c-1.8-2-3.7-3.8-5.9-5.5
		c-4.9-3.7-11.1-6.5-17-7.8c-6.7-1.4-13.2-2.8-19.8-0.7c-1.4,0.5-2.8-0.3-4.1,0.2c-0.9,0.3-2.4,1.4-3.2,2c-2.8,2.2-2.3,4.8,0.2,6.8
		c4.2,3.2,10,2.8,13.9,6.3c1.9,1.7,2,3.4,2.9,5.6c0.9,2.2,2.2,4.1,4.3,5.5c3.5,2.4,7.5,3,11.5,4c3.3,0.8,7.6,1.8,11.6,4.3"/>
	<path class="st6" d="M437.3,126.1c0,0-1.8,0.9-3.9,0.3c-2.2-0.6-4.4-1.1-6.2-8.7c-1.8-7.7-6.9-10.9-12.8-14
		c-5.8-3.1-16.7-7.4-26.8-6.2c-10.1,1.2-12.8,2.8-12.1,5.2c0.8,2.3,10.6,5.5,12.4,6.3c1.8,0.8,5.9,4.7,4.4,6.9s-6,1.8-8.2,0.5
		s-4.5-2.8-8.3-3.5c-3.8-0.8-11.8-3.1-13.3-7.3c-1.5-4.2-0.7-11.2,6.6-13.3c7.2-2.2,20.2-5,34.8-1.5s25.3,9.3,30.7,15.1
		c5.3,5.8,7.9,11.2,7.2,15S439.9,124.9,437.3,126.1z"/>
	<path class="st7" d="M395,130.3c1.1-1.5,4.2-3.9,6.2-3.4c1.3,0.4,1.6,1.9,1,3c-0.6,1-1.9,1.6-2.8,2.3c-1.2,0.8-2.6,1.3-3.4,2.6
		c-0.7,1.2-0.7,2.7-0.6,4c0.2,2.3,0.5,6.2-2.6,6.7c-1.3,0.2-2.3-0.7-3.3-1.4c-1.1-0.8-2.4-0.7-3.7-1c-1.1-0.4-2.3-1.4-2.1-2.7
		c0.1-1.4,1.8-2.1,2.9-2.6c2-0.9,5.3-2.7,5.3-5.3c0-2-2.1-0.4-2.9,0c-1.1,0.6-2.9,0.4-2.8-1.2c0.1-1.6,1.1-6.8,3-7.1
		c1-0.2,1.2,2.4,1.4,3.1c0.2,0.6,1.2,0.4,1.8,0.7c1.2,0.6,1.9,0.6,2.8,1.8C395,129.9,395,130.2,395,130.3c0-0.3,0.1-0.5,0.2-0.8"/>
	<ellipse class="st6" cx="409.1" cy="113.4" rx="15.1" ry="7.6"/>
	<path class="st4" d="M429.2,116.8"/>
	<path class="st8" d="M429.9,158.3c-1.6-1.5-3.3-3.3-4.1-5.6c-0.7-1.8-1.6-5.4,1.5-5.4c0-2-0.9-4-0.5-6.1c0.6-2.7,2.6-3,4.8-3.2
		c1.9-0.1,3.6-1.7,5.5-2.2c2.3-0.6,4.9,0,6.8,1.6c0.5,0.4,0.8,0.8,1.2,1.4c2.5-0.4,4.9-1.2,7.1,0.8c1.9,1.8,1.5,4.6,1.5,7
		c1.1-1.4,2.7-3.5,4.6-4.1c2.3-0.8,6.3-0.8,7.2,2c1.5-1.2,2.7-2.1,4.6-1.4c1.8,0.6,3.6,2.1,4.2,3.9c0.5,1.5,0.7,3.7-0.1,5.1
		c-0.9,1.6-2.7,1.5-3.9,2.3c1.6-1,4,0.1,5.1,1.4c1.3,1.4,1.4,4.1,0.9,5.9c-1.2,4.1-5,6.9-9,4.1c1.8,0.8,1.7,3.4,0.1,4.1
		c-1.3,0.6-3.8-0.3-4.7-1.2c2.4,3-0.2,8.5-4.2,8.7c-4.7,0.2-7.2-5.8-8.8-9c0.9,3.3,2.5,9.2-1.6,10.9c-4.2,1.8-6.9-1.1-6.9-5.2
		c-0.4,1.7-1.1,4-2.8,4.7c-1.5,0.7-3.9,0-5.3-0.6c-1.2-0.5-3.8-2.2-3.3-3.8c0.3-0.8,1.5-1.4,2.2-1.8c0.8-0.6,1.4-1.2,2.1-1.8
		c-1.6-0.2-3.1,1.4-4.7,1.6c-2.1,0.2-3-1.6-3.2-3.3c-0.4-3.9,2-6.3,5.3-7.9c-0.7-0.5-1.4-1.4-1.4-2.2L429.9,158.3z"/>
	<path class="st9" d="M426.9,147c2.7,1.8,5.1,3.3,7.4,5.8c0-0.2-0.1-0.3-0.2-0.5"/>
	<path class="st9" d="M432.3,138.2c0,0,0-0.1,0-0.1"/>
	<path class="st1" d="M432.3,138.2c2.5,1.3,5.6,5.3,6.1,8.3c0,0.2,0.1-0.1,0.1-0.1"/>
	<path class="st1" d="M445,138.9c0.9,3.5,1.5,7.2,1.5,11"/>
	<path class="st1" d="M453.8,146.3c-0.7,0.8-0.5,2.8-0.6,3.9c-0.1,1.4-0.2,2.8-0.2,4.2"/>
	<path class="st1" d="M465.4,144.5c-0.4,1-0.4,2.1-0.9,3.1c-0.4,1-1.1,2-1.4,2.9"/>
	<path class="st9" d="M469.9,154.3c-2.1,0.8-4,1.4-6.2,1.5c-1.1,0.1-2.4,0-3.5,0.2c-0.6,0.1-2.2,1-2.4,0.9"/>
	<path class="st1" d="M467.4,165.7c-2.1-0.5-3.5-3.1-5-4.1"/>
	<path class="st1" d="M462.6,168.8c-0.8-0.9-1.6-1.9-2.5-2.7c-1.2-0.9-3.1-1.2-4-2"/>
	<path class="st1" d="M449.5,168.3c-0.1-1-1.4-2.2-1.9-3.4"/>
	<path class="st1" d="M441.1,174.4c-0.6-1.6,0.1-3.8,0.5-5.4"/>
	<path class="st1" d="M434.3,170.4c1.6-0.3,2.8-2.5,3.1-4.1"/>
	<path class="st1" d="M432,160.9c0.7,0.8,2.4,0,3.4-0.1c1.3-0.1,2.3-0.4,3.5-0.5c1.4-0.1,2.3-0.2,3.5-0.9c1.3-0.7,1.8-1.9,2.8-2.9"
		/>
	<path class="st1" d="M442.5,160.2c1.1,0.4,2.9,0.1,4.1,0.1c1.8,0,2.6,0.3,4-1"/>
	<path class="st1" d="M403.9,85.2c3.4-3.1,2.5-7.1,2.7-11.3c0.2-3.7,0.7-7.2,3-10.3c1.1-1.5,2.1-2.4,3.8-3.2"/>
	<path class="st1" d="M385.6,52.7c-1.9,3.7-3.4,5.7-7.8,6.8c-4.1,1-7.1,1.4-9.9,5c-2.7,3.4-4.2,5.6-8.3,7.5c-3.3,1.5-6.5,2.9-9,5.5
		c-1.2,1.2-2.3,2.5-3.3,3.8"/>
	<path class="st1" d="M410.6,61.7c0.7-0.4,1.2-2.2,1-3"/>
	<path class="st1" d="M384.2,55.6c0.9-1.1,1.7-0.9,2.7-0.2"/>
	<path class="st1" d="M349.1,78.7c-0.6,0.5-2.4,1.5-3,0.5"/>
	<path class="st1" d="M364.6,126.4c0.1,0.2-0.2,0.5,0.2,0.5c-3.4-1.7-6.5,1.1-9.7-0.3c-2.8-1.2-3.5-4.6-6.2-6.2
		c-7.3-4.5-7.3-11.9-2.6-18.6"/>
	<path class="st1" d="M394.1,66.7c-2.1,0.8-3.2,5.4-4.8,7.2c-2.3,2.8-5.6,1.6-7.8,3.9c-2.9,3-2.2,5-6.9,4.8c-3.4-0.1-6.1,0.8-8.4,3
		c0.3,0.1,0.6,0.2,0.9,0.3"/>
	<path class="st1" d="M384.8,76.7c-2.2,2-1.9,6.7-1.8,9.5"/>
	<path class="st1" d="M355.1,93.7c6.3,0.5,2.3,7.1,2.5,10.5c0.4,6.1,7.4,2.3,9.5,6.9"/>
	<path class="st1" d="M392.3,67.2c0.2,0.1-0.2,0.6,0.2,0.3c0.2-1,0.6-1.9,0.3-2.8"/>
	<path class="st1" d="M364.1,108.9c1.1,0.9,1.1,2.2,1,3.5"/>
	<path class="st1" d="M343.3,106.9c-0.1-0.9-0.5-1.7-1.2-2.2"/>
	<path class="st1" d="M357.2,94.4c-0.1-0.4-1.3-1.6-0.8-2.8"/>
	<path class="st1" d="M347.2,90.9c-1,2.5-3.6,1.1-5.3,2c-1.1,0.5-1.1,1.4-1.4,2.3c-0.1,0.4-0.4,0.8-0.5,1.2c-0.1,0.4,0,1.3-0.2,0.8"
		/>
	<path class="st1" d="M397.8,54.4c2.1,0.3,2.7,2.3,3,4c0.3,2,0.6,3.5,2.2,5c0.1-0.1-0.2,0-0.3-0.1"/>
	<path class="st1" d="M339.8,95.9c-0.3,0.2-0.6,0.3-0.8,0.5"/>
	<path class="st1" d="M346,92.1c1.2,0,1.1-1.3,0.5-2"/>
	<path class="st1" d="M401.8,62.4c0.1,0.7,0,1.4-0.3,2"/>
	<path class="st1" d="M398.8,54.8c-0.1-0.1-0.5-0.8-0.7-1.2"/>
	<path class="st1" d="M425.7,95.4c0.1-1.1,3-4,4.3-4.2c2.4-0.3,4.8,1.7,7.5,1.5c4.1-0.2,9.6-6.3,13.3-1.7c0,0-0.1,0-0.1,0"/>
	<path class="st1" d="M457.3,101.9c0-0.2,0.3-0.2,0-0.3c-1.8,6,5.5,7.7,8.2,11.6c1.5,2.2,2.2,5.1,1.6,7.7c-0.6,2.8-2.9,3.1-5,4.7"/>
	<path class="st1" d="M438.3,72.3c2.1-3.2,12.6,7.6,14.4,9c2.2,1.7,4.4,3.1,7,4.1c2.6,1,5.5,1.5,7.7,3.3c5,4,4.3,10.6,6.7,15.7
		c1.2,2.7,3.3,4.8,4.5,7.5c1.2,2.6,1.5,5.4,1.5,8.3c0,1.6-0.1,4.5-1.2,5.7"/>
	<path class="st1" d="M439.7,92.1C439.9,92,439.8,92,439.7,92.1c1.2,1,0.9,2.8,1.4,4.2c0.6,1.7,1.4,2,3,2.7c1.2,0.5,2.5,1.3,3,2.6
		c0.4,1,0.5,4.3-0.4,5"/>
	<path class="st1" d="M433.3,132.1c3.1,0.1,6.5-1.1,9.5-0.7c3,0.4,5.1,7.2,7.8,6c1.6-0.7,3.8-4.6,4.8-4.6"/>
	<path class="st1" d="M463.2,136.8c3.4-1.1,6.9,6.6,10.5,5.5c1.7-0.5,2.3-1.1,3.5-2.4c0.8-0.8,2.4-3.6,3.2-3.6"/>
	<path class="st1" d="M439.3,80.4c0.2-0.1,0.1-0.3,0.3-0.3c2.3,0.9,4.5,2.2,7.1,2.5c2.3,0.2,5.4-0.6,7.6,0"/>
	<path class="st1" d="M477.3,139.6c0.2-1.1,1-1.9,1-3"/>
	<path class="st1" d="M480,120.1c-0.6,0.3-0.9,3.5-2.2,3.7"/>
	<path class="st1" d="M465.2,124.1c-1.2-0.4-2.3,1.5-2,2.5"/>
	<path class="st1" d="M427.5,92.8c-0.6-0.1-1.4,0.6-2.3,0.5"/>
	<path class="st1" d="M453,134.9c0.5-0.8,0.9-1.8,0.5-2.8"/>
	<path class="st1" d="M434.8,84.6c-1.3,0.4-2.4-4.1-2.8-5.2c-0.9-2.4-2.1-5.2-4.3-6.5c-2.2-1.4-4.4-1.5-6.7-0.6
		c-2,0.8-4,2.4-6.3,1.6c0.3,0,0.4-0.2,0.6-0.3"/>
	<path class="st1" d="M428.5,69.6c-3-2.1-4.3-9.7-4.2-13.3"/>
	<path class="st1" d="M418,73.4c-0.9,0.4-2.3-0.9-1.8-1.8"/>
	<path class="st1" d="M425,63.1c-0.6-0.7-2.1-1.4-2.7-1.8"/>
</g>
<g id="Lag_4">
	<line class="st10" x1="341.7" y1="69.8" x2="341.7" y2="38.8"/>
	<line class="st10" x1="481.2" y1="57.1" x2="467.5" y2="71.4"/>
	<line class="st10" x1="486.2" y1="142.8" x2="497.5" y2="142.8"/>
	<line class="st10" x1="464.2" y1="191.1" x2="459.2" y2="179.1"/>
	<line class="st10" x1="329.9" y1="80.1" x2="380" y2="94.8"/>
	<line class="st10" x1="404.3" y1="46.8" x2="404.3" y2="38.1"/>
	<line class="st10" x1="420.7" y1="220.8" x2="420.7" y2="194.1"/>
	<line class="st10" x1="386.7" y1="208.4" x2="408.7" y2="165.8"/>
	<line class="st10" x1="359.3" y1="188.8" x2="390.3" y2="140.4"/>
	<line class="st10" x1="348.7" y1="145.4" x2="389" y2="129.9"/>
	<line class="st10" x1="322.3" y1="115.1" x2="409.3" y2="115.1"/>
	<line class="st10" x1="367.3" y1="149.4" x2="350.7" y2="168.4"/>
</g>
<g id="txt">
	<text transform="matrix(1 0 0 1 322.0137 34.0898)" class="st11 st12 st13">Pandelap</text>
	<text transform="matrix(1 0 0 1 379.6797 34.0898)" class="st11 st12 st13">Storhjernen</text>
	<text transform="matrix(1 0 0 1 260.6797 80.0889)" class="st11 st12 st13">Hjernebjælken</text>
	<text transform="matrix(1 0 0 1 274.6797 117.7558)" class="st11 st12 st13">Thalamus</text>
	<text transform="matrix(1 0 0 1 282.0127 149.7558)" class="st11 st12 st13">Hypothalamus</text>
	<text transform="matrix(1 0 0 1 311.0127 193.4219)" class="st11 st12 st13">Hypofysen</text>
	<text transform="matrix(1 0 0 1 329.6797 214.0879)" class="st11 st12 st13">Hjernebroen</text>
	<text transform="matrix(1 0 0 1 483.5137 60.0889)" class="st11 st12 st13">Isselap</text>
	<text transform="matrix(1 0 0 1 500.1802 145.7558)" class="st11 st12 st13">Nakkelap</text>
	<text transform="matrix(1 0 0 1 467.5137 194.4238)" class="st11 st12 st13">Lillehjernen</text>
	<g>
		<text transform="matrix(1 0 0 1 297.3472 172.7568)" class="st11 st12 st13">Tindingelap  </text>
	</g>
	<text transform="matrix(1 0 0 1 389.0137 230.4238)" class="st11 st12 st13">Forlængede rygmarv</text>
</g>
</svg>
