<?xml version="1.0" encoding="utf-8"?>
<!-- Generator: Adobe Illustrator 21.1.0, SVG Export Plug-In . SVG Version: 6.00 Build 0)  -->
<svg version="1.1" xmlns="http://www.w3.org/2000/svg" xmlns:xlink="http://www.w3.org/1999/xlink" x="0px" y="0px"
	 viewBox="0 0 566.9 487.6" style="enable-background:new 0 0 566.9 487.6;" xml:space="preserve">
<style type="text/css">
	.st0{fill:url(#SVGID_1_);}
	.st1{fill:#E85412;}
	.st2{fill:#F6A800;}
	.st3{fill:#56B8E5;}
	.st4{fill:#4A77B6;}
	.st5{fill:none;stroke:#FFFFFF;stroke-width:0.5;}
	.st6{fill:none;stroke:#FFFFFF;}
	.st7{fill:#164F9B;}
	.st8{fill:none;stroke:#000000;stroke-width:2;}
	.st9{fill:#FFFFFF;}
	.st10{font-family:'Verdana';}
	.st11{font-size:9px;}
</style>
<g id="Lag_5_kopi">
	<linearGradient id="SVGID_1_" gradientUnits="userSpaceOnUse" x1="283.4646" y1="244.188" x2="283.4646" y2="16">
		<stop  offset="0" style="stop-color:#004191"/>
		<stop  offset="0.9839" style="stop-color:#0C083F"/>
	</linearGradient>
	<rect x="0" y="16" class="st0" width="566.9" height="228.2"/>
</g>
<g id="Lag_3">
</g>
<g id="Lag_1">
	<g>
		
			<image style="overflow:visible;opacity:0.75;" width="223" height="171" xlink:href="2E5209F5A9323273.png"  transform="matrix(1 0 0 1 67.5993 52.5983)">
		</image>
		<g>
			<g>
				<rect x="70" y="55" class="st1" width="215" height="84"/>
				<rect x="70" y="138.3" class="st2" width="215" height="10.3"/>
				<rect x="70" y="148.7" class="st3" width="215" height="36.7"/>
				<rect x="70" y="185.3" class="st4" width="215" height="31"/>
				<rect x="69.8" y="54.7" class="st5" width="215.1" height="161.8"/>
				<line class="st6" x1="69.8" y1="189.6" x2="284.9" y2="189.6"/>
				<line class="st6" x1="69.8" y1="162.6" x2="284.9" y2="162.6"/>
				<line class="st6" x1="69.8" y1="135.7" x2="284.9" y2="135.7"/>
				<line class="st6" x1="69.8" y1="108.7" x2="284.9" y2="108.7"/>
				<line class="st6" x1="69.8" y1="81.7" x2="284.9" y2="81.7"/>
			</g>
		</g>
	</g>
	<g>
		
			<image style="overflow:visible;opacity:0.75;" width="108" height="171" xlink:href="2E5209F5A9323271.png"  transform="matrix(1 0 0 1 404.5993 52.5983)">
		</image>
		<g>
			<g>
				<rect x="406.7" y="55" class="st1" width="100" height="84"/>
				<rect x="406.7" y="138.3" class="st2" width="100" height="10.3"/>
				<rect x="406.7" y="148.7" class="st3" width="100" height="36.7"/>
				<rect x="406.7" y="185.3" class="st4" width="100" height="31"/>
				<rect x="407.2" y="54.7" class="st5" width="99.7" height="161.8"/>
			</g>
		</g>
	</g>
	<g>
		
			<image style="overflow:visible;opacity:0.75;" width="108" height="140" xlink:href="2E5209F5A9323277.png"  transform="matrix(1 0 0 1 293.5993 52.5983)">
		</image>
		<g>
			<rect x="295.7" y="54.7" class="st7" width="99.7" height="130.8"/>
			<rect x="295.7" y="54.7" class="st5" width="99.7" height="130.8"/>
		</g>
	</g>
	<line class="st6" x1="177" y1="54.9" x2="177" y2="216.5"/>
</g>
<g id="Lag_4">
	<path class="st8" d="M70.7,148.3c0,0,5.3-10.7,10-10.7c4.7,0,5.7,10.5,12,10.7c18,0.3,9-92.7,16.7-92.7s-0.7,129.3,15,129.2
		c10.3-0.1,10-46.9,19.3-46.9c7.3,0,3,10.7,11,10.7s4-11,12.3-10.7c6,0.2,10,5.9,10,5.9"/>
</g>
<g id="txt">
	<text transform="matrix(1 0 0 1 42 57.3682)" class="st9 st10 st11">6000</text>
	<text class="yText" transform="matrix(1 0 0 1 183.7939 79.1465)"><tspan x="0" y="0" class="st9 st10 st11">Inspiratorisk</tspan><tspan x="0" y="10.8" class="st9 st10 st11">reservevolumen</tspan><tspan x="0" y="21.6" class="st9 st10 st11">3100 ml</tspan></text>
	<text class="yText" transform="matrix(1 0 0 1 315.4604 116.48)"><tspan x="0" y="0" class="st9 st10 st11">Vitalkapacitet</tspan><tspan x="0" y="10.8" class="st9 st10 st11">4800 ml</tspan></text>
	<text transform="matrix(1 0 0 1 42 36.9565)" class="st9 st10 st11">Volumen (ml)</text>
	<text class="yText" transform="matrix(1 0 0 1 428.1274 135.48)"><tspan x="0" y="0" class="st9 st10 st11">Total</tspan><tspan x="0" y="10.8" class="st9 st10 st11">lungevolumen</tspan><tspan x="0" y="21.6" class="st9 st10 st11">6000ml</tspan></text>
	<text class="yText" transform="matrix(1 0 0 1 183.7939 158.813)"><tspan x="0" y="0" class="st9 st10 st11">Ekspiratorisk</tspan><tspan x="0" y="10.8" class="st9 st10 st11">reservevolumen</tspan><tspan x="0" y="21.6" class="st9 st10 st11">1200 ml</tspan></text>
	<text  transform="matrix(1 0 0 1 183.7939 146.48)" class="yText st9 st10 st11">Åndingsdybde 500 ml</text>
	<text class="yText" transform="matrix(1 0 0 1 183.7939 201.48)"><tspan x="0" y="0" class="st9 st10 st11">Residualvolumen</tspan><tspan x="0" y="10.8" class="st9 st10 st11">1200ml</tspan></text>
	<text transform="matrix(1 0 0 1 42 85)" class="st9 st10 st11">5000</text>
	<text transform="matrix(1 0 0 1 42 111.6318)" class="st9 st10 st11">4000</text>
	<text transform="matrix(1 0 0 1 42 138.2637)" class="st9 st10 st11">3000</text>
	<text transform="matrix(1 0 0 1 42 164.8955)" class="st9 st10 st11">2000</text>
	<text transform="matrix(1 0 0 1 42 191.5273)" class="st9 st10 st11">1000</text>
	<text transform="matrix(1 0 0 1 42 218.1592)" class="st9 st10 st11">     0</text>
</g>
</svg>
