<?xml version="1.0" encoding="utf-8"?>
<!-- Generator: Adobe Illustrator 21.1.0, SVG Export Plug-In . SVG Version: 6.00 Build 0)  -->
<svg version="1.1" xmlns="http://www.w3.org/2000/svg" xmlns:xlink="http://www.w3.org/1999/xlink" x="0px" y="0px"
	 viewBox="0 0 269.3 487.6" style="enable-background:new 0 0 269.3 487.6;" xml:space="preserve">
<style type="text/css">
	.st0{fill:url(#SVGID_1_);}
	.st1{fill:#E30613;stroke:#000000;stroke-width:0.5;}
	.st2{fill:#A70A2D;stroke:#000000;stroke-width:0.5;}
	.st3{fill:#F3997B;stroke:#000000;stroke-width:0.5;}
	.st4{fill:url(#SVGID_2_);stroke:#000000;stroke-width:0.5;}
	.st5{fill:url(#SVGID_3_);stroke:#000000;stroke-width:0.5;}
	.st6{fill:url(#SVGID_4_);stroke:#000000;stroke-width:0.5;}
	.st7{fill:url(#SVGID_5_);stroke:#000000;stroke-width:0.5;}
	.st8{fill:url(#SVGID_6_);stroke:#000000;stroke-width:0.5;}
	.st9{fill:url(#SVGID_7_);stroke:#000000;stroke-width:0.5;}
	.st10{fill:url(#SVGID_8_);stroke:#000000;stroke-width:0.5;}
	.st11{fill:url(#SVGID_9_);stroke:#000000;stroke-width:0.5;}
	.st12{fill:url(#SVGID_10_);stroke:#000000;stroke-width:0.5;}
	.st13{fill:url(#SVGID_11_);stroke:#000000;stroke-width:0.5;}
	.st14{fill:url(#SVGID_12_);stroke:#000000;stroke-width:0.5;}
	.st15{fill:url(#SVGID_13_);stroke:#000000;stroke-width:0.5;}
	.st16{fill:url(#SVGID_14_);stroke:#000000;stroke-width:0.5;}
	.st17{fill:#00A183;stroke:#00A183;stroke-width:0.5;}
	.st18{fill:#00A183;}
	.st19{fill:none;}
	.st20{fill:none;stroke:#00A183;stroke-width:0.4;}
	.st21{font-family:'Verdana';}
	.st22{font-size:9px;}
	.st23{font-size:7px;}
	.st24{fill:#FFFFFF;}
	.st25{stroke:#000000;stroke-width:0.5;}
	.st26{fill:#00A183;stroke:#00A183;stroke-width:1.5;}
</style>
<g id="Lag_9">
	<linearGradient id="SVGID_1_" gradientUnits="userSpaceOnUse" x1="134.6455" y1="487.5576" x2="134.6455" y2="-9.000000e-04">
		<stop  offset="5.617980e-03" style="stop-color:#00A183"/>
		<stop  offset="0.1366" style="stop-color:#55BAA5"/>
		<stop  offset="0.2733" style="stop-color:#A2D4C7"/>
		<stop  offset="0.39" style="stop-color:#CDE7DF"/>
		<stop  offset="0.4805" style="stop-color:#E3F1ED"/>
		<stop  offset="0.5337" style="stop-color:#EBF5F3"/>
	</linearGradient>
	<rect y="0" class="st0" width="269.3" height="487.6"/>
</g>
<g id="Lag_7">
	<path class="st1" d="M129.7,83c0,0,17.9-17.5,37.9-18.5c0,0,8.7-1.1,16.8,0.5c4.8,1,9.7,3,15,0c5.3-3,7-4.7,7-4.7l6.3,7.7
		c0,0-6.7,4-2,11.7c4.7,7.7,9,10.7,13,10.7s5.3-0.7,5.3-0.7l2,9.3c0,0-9.7,3-7.7,10.7s4.7,20-5,26c-5-6.3-83.3-41.3-83.3-41.3
		L129.7,83z"/>
	<g>
		<ellipse transform="matrix(0.739 -0.6737 0.6737 0.739 11.482 157.9239)" class="st1" cx="209.6" cy="64.1" rx="1.9" ry="5.1"/>
		<ellipse transform="matrix(0.739 -0.6737 0.6737 0.739 11.4679 157.9421)" class="st1" cx="209.6" cy="64.2" rx="1.1" ry="4.3"/>
	</g>
	<g>
		<ellipse transform="matrix(0.9774 -0.2113 0.2113 0.9774 -14.7311 50.784)" class="st1" cx="230.3" cy="94.3" rx="1.8" ry="5"/>
		
			<ellipse transform="matrix(0.9774 -0.2112 0.2112 0.9774 -14.7217 50.7811)" class="st1" cx="230.3" cy="94.3" rx="1.1" ry="4.3"/>
	</g>
</g>
<g id="Lag_6">
	<path class="st2" d="M51.7,80.7c0,0,2.7,25-11.7,46.7s-10.7,51.7-9.3,62.3c1.3,10.7,7,25.7,14,39s8,42.3,8.3,48
		c10,3,15.7,11,42.3,2c-0.7-7.7,6-157,6-157l-9.7-41.3L51.7,80.7z"/>
	<ellipse class="st2" cx="71.3" cy="81.4" rx="20" ry="5.2"/>
	<ellipse class="st2" cx="71.5" cy="81.5" rx="17.2" ry="3.2"/>
</g>
<g id="Lag_5">
	<path class="st3" d="M99.3,121.3c0,0-7.7-16.3-8.7-30.7s3.3-33,3.3-33c2.7,2,17.3,16,38.7,3c-0.3,5.7,0.7,25.7,1,27.3
		c6-8,18.3-21.3,44.7-19.7c26.3,1.7,34.7,22.7,36,32.3S216,124,216,124c1.7,3,14,30.3,16.7,39.3s6.3,27,2,52s-11.3,69.3-25,80
		c-13.7,10.7-34.7,12.3-73.3,0C97.7,283,81,265,70,245.3s-22-33.6-28.3-45.7c-4.5-8.5-11.9-51.2,3.3-66.8
		C57.2,120.2,59,112.7,99.3,121.3z"/>
</g>
<g id="Lag_3">
	<linearGradient id="SVGID_2_" gradientUnits="userSpaceOnUse" x1="188.9906" y1="157.2725" x2="188.9906" y2="266.6937">
		<stop  offset="0.2247" style="stop-color:#E30613"/>
		<stop  offset="1" style="stop-color:#951004"/>
	</linearGradient>
	<path class="st4" d="M168.9,162.7l2.8,0.3c0,0,8.4-8.4,18-0.7c0,0,1.2-3.1,3.8-5.1l7.2,12.2c0,0,2.1,20.8,3.4,24.6
		c1.3,3.8,7.5,25.4,6.1,38.5c-1.4,13.1-5.1,28.1-12.5,32.9c0,0-5.3,4.4-10.8-3.6c-5.5-8.1-7.5-15.3-7.5-15.3s-1.8-36-11.6-45.8
		C167.7,190.8,168.9,162.7,168.9,162.7z"/>
	<radialGradient id="SVGID_3_" cx="174.3676" cy="117.4898" r="41.3835" gradientUnits="userSpaceOnUse">
		<stop  offset="0" style="stop-color:#E30613"/>
		<stop  offset="0.1542" style="stop-color:#DD0712"/>
		<stop  offset="0.4008" style="stop-color:#CD0B10"/>
		<stop  offset="0.7071" style="stop-color:#B30F0B"/>
		<stop  offset="1" style="stop-color:#951004"/>
	</radialGradient>
	<path class="st5" d="M171,163c0,0-10.9-18.8-19.7-27.3c-2.5-5.3-12.8-26.3-13.8-41.6c-0.4-5.6,5.9-11.3,9.8-14.5
		c4.8-4,23.2-13.1,43.8-3c17.2,8.4,16.6,15.7,18.5,23.5c1.9,7.7,2.4,26.9-0.2,31.9c-2.7,5-12.3,14.3-14,17.3s-6,10.3-5.7,13
		C186.3,161.7,176.3,160,171,163z"/>
	<linearGradient id="SVGID_4_" gradientUnits="userSpaceOnUse" x1="284.001" y1="143.9981" x2="284.001" y2="143.9981">
		<stop  offset="0" style="stop-color:#E30613"/>
		<stop  offset="1" style="stop-color:#951004"/>
	</linearGradient>
	<path class="st6" d="M284,144"/>
	<linearGradient id="SVGID_5_" gradientUnits="userSpaceOnUse" x1="212.1507" y1="143.6404" x2="212.1507" y2="190.6651">
		<stop  offset="0.191" style="stop-color:#E30613"/>
		<stop  offset="1" style="stop-color:#951004"/>
	</linearGradient>
	<path class="st7" d="M202.3,146.7c0,0,5-8.3,12,2.7S226,173,217,190.7c-3.7-9-14-21.3-14-21.3L202.3,146.7z"/>
	<linearGradient id="SVGID_6_" gradientUnits="userSpaceOnUse" x1="194.7373" y1="156.8174" x2="200.5898" y2="156.8174">
		<stop  offset="0" style="stop-color:#E30613"/>
		<stop  offset="1" style="stop-color:#951004"/>
	</linearGradient>
	<path class="st8" d="M200.6,165.6l-0.5-17.6c0,0-4.4,4.6-5.3,6.4C196,156.8,200.6,165.6,200.6,165.6z"/>
	<linearGradient id="SVGID_7_" gradientUnits="userSpaceOnUse" x1="160.5313" y1="174.3074" x2="167.2949" y2="174.3074">
		<stop  offset="0" style="stop-color:#E30613"/>
		<stop  offset="1" style="stop-color:#951004"/>
	</linearGradient>
	<path class="st9" d="M166,197.7l1.3-38.2l-6.8-8.6C160.5,150.9,164.3,193.2,166,197.7z"/>
	<linearGradient id="SVGID_8_" gradientUnits="userSpaceOnUse" x1="93.794" y1="136.5127" x2="164.0615" y2="136.5127">
		<stop  offset="0" style="stop-color:#E30613"/>
		<stop  offset="1" style="stop-color:#951004"/>
	</linearGradient>
	<path class="st10" d="M158.1,147.6c0,0,3.5,46.5,6,51.3c-1.8,4.9-3.1,11.8-1.8,14.9c0,0-17.3-27.3-19.6-29.8
		c-2.4-2.5-20.4-26.9-28.9-44c-8.5-17.1-26.9-36.9-17.1-80.7c3.6,1.3,18.9,9.5,33.6,2.7c-0.5,4.9-2.5,25.5,7.1,47.6
		c9.6,22.2,8.7,23.8,10.4,26.2C149.3,138.1,158.1,147.6,158.1,147.6z"/>
	<linearGradient id="SVGID_9_" gradientUnits="userSpaceOnUse" x1="81.2163" y1="220.0224" x2="110.7244" y2="271.1319">
		<stop  offset="0.2303" style="stop-color:#E30613"/>
		<stop  offset="1" style="stop-color:#951004"/>
	</linearGradient>
	<path class="st11" d="M83.7,227.7c0,0-9.5-2-10.7-2c-1.3,0-2.7-0.7-0.7,2.5c2,3.3,12.7,21.5,18.7,27.5c6,6,17.1,15.6,22.2,13.6
		c5.1-2,5.3-2.2,3.1-7.5c-2.2-5.3-2.5-8.9-2.5-9.5C112.4,251,83.7,227.7,83.7,227.7"/>
	<linearGradient id="SVGID_10_" gradientUnits="userSpaceOnUse" x1="87.3069" y1="236.2378" x2="108.2446" y2="236.2378">
		<stop  offset="0" style="stop-color:#E30613"/>
		<stop  offset="1" style="stop-color:#951004"/>
	</linearGradient>
	<path class="st12" d="M108.2,244.5l-19.5-14.7c0,0-3.5-1.8,0.2-1.8s7.5,0.2,8.7,1.8C99,231.4,108.2,244.5,108.2,244.5z"/>
	<linearGradient id="SVGID_11_" gradientUnits="userSpaceOnUse" x1="111.2997" y1="215.8438" x2="136.7741" y2="285.8341">
		<stop  offset="0.1573" style="stop-color:#E30613"/>
		<stop  offset="1" style="stop-color:#951004"/>
	</linearGradient>
	<path class="st13" d="M97.9,227.2c0,0,16.2,21.3,20,24.9c3.8,3.6,14,15.5,18.2,21.3c4.2,5.8,8,7.6,10.5,7.8c2.5,0.2,8.7-0.2,2.5-6
		c-6.2-5.8-15.1-22-16.5-24.9c-1.5-2.9-12.7-14.4-18.9-19.6c-6.2-5.3-10.7-11.8-10.7-11.8L97.9,227.2z"/>
	<linearGradient id="SVGID_12_" gradientUnits="userSpaceOnUse" x1="104.2446" y1="224.8745" x2="125.1533" y2="224.8745">
		<stop  offset="0" style="stop-color:#E30613"/>
		<stop  offset="1" style="stop-color:#951004"/>
	</linearGradient>
	<path class="st14" d="M104.2,217.1c0,0,15.3,18,20.9,20.7c-2-2.7-14.5-22.2-15.5-25.8C105.5,215.1,104.2,217.1,104.2,217.1z"/>
	<linearGradient id="SVGID_13_" gradientUnits="userSpaceOnUse" x1="122.9116" y1="188.5403" x2="159.8835" y2="290.1197">
		<stop  offset="0.2191" style="stop-color:#E30613"/>
		<stop  offset="1" style="stop-color:#951004"/>
	</linearGradient>
	<path class="st15" d="M118.6,215.3l-7.3-2.9c0,0,15.3,24.7,16.7,26.2c1.5,1.5,19.3,18.9,23.6,23.5s14.2,16.5,16,17.8
		c1.8,1.3,15.3,10.5,6.9-3.3c-8.4-13.8-39.6-76.4-39.6-76.4s-14.9-36-16.5,14.7"/>
	<radialGradient id="SVGID_14_" cx="81.3744" cy="174.6078" r="46.9197" gradientUnits="userSpaceOnUse">
		<stop  offset="0" style="stop-color:#E30613"/>
		<stop  offset="0.153" style="stop-color:#DE0713"/>
		<stop  offset="0.3859" style="stop-color:#CF0B10"/>
		<stop  offset="0.6696" style="stop-color:#B70E0C"/>
		<stop  offset="0.9911" style="stop-color:#961005"/>
		<stop  offset="1" style="stop-color:#951004"/>
	</radialGradient>
	<path class="st16" d="M69.7,122c12.9-1.1,26.4,3.5,28.9,5.6c2.5,2.2,8.5,10.7,12,16.5c3.5,5.8,9.5,21.3,10.4,26
		c0.9,4.7,0.9,12.4-1.3,19.6c0,0-3.5,19.3-1.5,25.6c-3.6-0.9-14.7-2.2-16.5,12c0,0-15.1-2.2-19.3-2.2c-4.2,0-18.2-3.6-30.9-21.3
		c-12.7-17.6-13.1-53-4.2-64.7C47.3,139.2,58.2,123,69.7,122z"/>
</g>
<g id="sinus_knude">
	<circle class="st17" cx="74.7" cy="158" r="7"/>
	<ellipse class="st18" cx="121.3" cy="171.2" rx="4.5" ry="5.5"/>
	<g>
		<g>
			<path class="st19" d="M119,171.3c10.3,1,19,14.7,26.7,22.3c11.3,11.7,18.7,25,27.3,39c4,7,14.3,35,23.7,35.3
				c10.3,0.3,15.7-27.3,18-35.3c1-3.7,2-8.3,2.7-11.7"/>
			<path class="st18" d="M118.3,173.7c9.1,1.3,15.4,10.2,21,16.7c7.3,8.5,14.5,16.4,20.7,25.9c4.8,7.4,9.8,15,13.5,23
				c3.2,6.9,6.3,13.8,10.4,20.3c2.6,4.3,6.3,9.5,11.5,10.7c5.2,1.2,9.3-3.5,11.7-7.5c3.7-6,5.6-13.1,7.5-19.9
				c1.9-7.1,3.8-14.2,5.2-21.4c0.6-3.1-4.2-4.5-4.8-1.3c-2.6,12.7-5.4,26.7-11.2,38.3c-2.5,4.9-6.1,9.2-11,4.5
				c-5.1-4.9-8.3-12.2-11.3-18.5c-7.1-14.7-15-28.7-24.8-41.9c-5.3-7.2-11.7-13.5-17.6-20.2c-5.2-5.9-11.3-12.5-19.4-13.6
				C116.5,168.5,115.2,173.3,118.3,173.7L118.3,173.7z"/>
		</g>
	</g>
	<g>
		<g>
			<path class="st19" d="M139,189.7c-4.7,21.3,15.3,49.3,25.3,66.7c6.3,10.7,22,28.7,3.7,33.7c-8.3,2.3-27-0.7-34.7-5
				c-1-0.3-2.3-1.7-3-2.3"/>
			<path class="st18" d="M136.6,189c-2.4,12.3,1.7,24.3,6.8,35.4c5.5,12.1,12.8,23.6,19.9,34.9c4.2,6.7,18.3,23,5.5,27.9
				c-5.6,2.1-12.5,1.2-18.3,0.3c-6-0.9-13.8-2.2-18.3-6.6c-2.3-2.2-5.9,1.3-3.5,3.5c4.4,4.2,10.6,5.8,16.4,7.1
				c6.5,1.4,13.5,2.2,20.1,1.5c5-0.5,10.2-2.5,12.8-7.1c2.6-4.5,0.5-10.2-1.4-14.5c-2.5-5.5-6.3-10.5-9.5-15.6
				c-4-6.4-7.8-12.9-11.6-19.4c-7.8-13.4-17.2-30.1-14-46.2C142,187.2,137.2,185.8,136.6,189L136.6,189z"/>
		</g>
	</g>
	<g>
		<g>
			<path class="st19" d="M216.3,220.5c0.8-3.7-2.8-10.8-4.3-14.8c-2.5-7.3-3.5-13.7-3.8-21.3c0-0.7-0.2-3-0.2-2.8"/>
			<path class="st18" d="M217.3,220.5c0.7-5.8-3.2-11.5-4.9-16.8c-2.4-7.3-2.7-14.7-3.4-22.2c-0.1-1.3-2.1-1.3-2,0
				c0.6,6.6,0.9,13,2.5,19.5c1.5,6.1,6.6,13.1,5.8,19.5C215.2,221.8,217.2,221.8,217.3,220.5L217.3,220.5z"/>
		</g>
	</g>
	<g>
		<g>
			<path class="st19" d="M218.3,220.8c8.3-7,14.3-18.8,14-30.3"/>
			<path class="st18" d="M219,221.5c8.9-7.8,14.3-19.1,14.3-31c0-1.3-2-1.3-2,0c0,11.4-5.2,22.1-13.7,29.6
				C216.7,221,218.1,222.4,219,221.5L219,221.5z"/>
		</g>
	</g>
	<g>
		<g>
			<path class="st19" d="M217,220.5c6.2-11.2,7-28.2,8-40.8c1.2-14.2-0.5-31-10-42.5"/>
			<path class="st18" d="M217.9,221c6.8-13,7.2-28.5,8.2-42.8c1.1-14.5-1.2-30-10.4-41.7c-0.8-1-2.2,0.4-1.4,1.4
				c9.3,11.8,10.8,27.3,9.7,41.8c-1,13.5-1.4,28.1-7.9,40.3C215.5,221.1,217.3,222.1,217.9,221L217.9,221z"/>
		</g>
	</g>
	<g>
		<g>
			<path class="st19" d="M166.8,288.7c-11.8-9.5-18.7-21.3-28.2-33.8c-0.5-0.7-1.2-1.5-1.7-2.2"/>
			<path class="st18" d="M167.5,288c-12.1-10-20.2-23.5-29.7-35.8c-0.8-1-2.5,0-1.7,1c9.6,12.5,17.7,26.1,30,36.2
				C167.1,290.2,168.5,288.8,167.5,288L167.5,288z"/>
		</g>
	</g>
	<g>
		<g>
			<path class="st19" d="M130.7,284.2c-4.5-2-11.8-2-17.3-4.5c-7.8-3.8-14.8-7.3-21-13.3c-9-8.8-15.7-17.2-22.3-27.8"/>
			<path class="st18" d="M130.9,283.2c-5.1-2-10.7-2.2-15.9-3.9c-5.9-2-12-5.9-17.1-9.5c-11.1-7.9-19.9-20.4-27.1-31.8
				c-0.7-1.1-2.4-0.1-1.7,1c7.2,11.4,15.7,22.8,26.3,31.4c5.2,4.3,11.4,7.2,17.4,10.2c5.5,2.7,11.9,2.4,17.6,4.6
				C131.6,285.6,132.1,283.7,130.9,283.2L130.9,283.2z"/>
		</g>
	</g>
	<g>
		<g>
			<path class="st19" d="M132,283c-3-7.7-7-15.5-12.8-21.5"/>
			<path class="st18" d="M133,282.7c-3.2-8-7.1-15.6-13.1-21.9c-0.9-0.9-2.3,0.5-1.4,1.4c5.7,6.1,9.5,13.4,12.6,21.1
				C131.5,284.4,133.4,283.9,133,282.7L133,282.7z"/>
		</g>
	</g>
	<g>
		<g>
			<path class="st19" d="M130.2,282.5c-2.8-3.8-7.8-7.3-12.2-9.5"/>
			<path class="st18" d="M131,282c-3.3-4.3-7.8-7.4-12.5-9.9c-1.1-0.6-2.2,1.1-1,1.7c4.4,2.3,8.7,5.2,11.8,9.1
				C130.1,284,131.8,283,131,282L131,282z"/>
		</g>
	</g>
	<g>
		<g>
			<path class="st19" d="M163.3,252.3c5.5-1.2,10.2,4.5,13.3,8.3"/>
			<path class="st18" d="M163.5,252.8c5.6-0.9,9.7,4.4,12.8,8.2c0.4,0.5,1.1-0.2,0.7-0.7c-3.5-4.2-7.8-9.4-13.8-8.5
				C162.6,252,162.8,252.9,163.5,252.8L163.5,252.8z"/>
		</g>
	</g>
	<g>
		<g>
			<path class="st19" d="M142.3,212c3.7,4.4,12.8,7.3,10.8,14.8"/>
			<path class="st18" d="M142,212.4c3.9,4.4,12.3,7.1,10.7,14.3c-0.1,0.6,0.8,0.9,1,0.3c1.7-7.8-6.7-10.5-11-15.3
				C142.3,211.2,141.6,211.9,142,212.4L142,212.4z"/>
		</g>
	</g>
	<g>
		<g>
			<path class="st19" d="M150.7,271.2c-0.2-3.2-0.7-6.8-1.7-9.8"/>
			<path class="st18" d="M151.2,271.2c-0.2-3.4-0.7-6.7-1.7-10c-0.2-0.6-1.2-0.4-1,0.3c1,3.1,1.5,6.4,1.6,9.7
				C150.2,271.8,151.2,271.8,151.2,271.2L151.2,271.2z"/>
		</g>
	</g>
	<g>
		<g>
			<path class="st19" d="M128.3,273.5c-0.8-2.3-0.8-5.3-0.7-8.2"/>
			<path class="st18" d="M128.8,273.4c-0.9-2.6-0.8-5.3-0.6-8c0-0.6-1-0.6-1,0c-0.2,2.8-0.2,5.6,0.7,8.3
				C128.1,274.2,129,274,128.8,273.4L128.8,273.4z"/>
		</g>
	</g>
	<g>
		<g>
			<path class="st19" d="M191.8,266.7c2.8,4,0,18.8,8.7,18.7"/>
			<path class="st18" d="M191.4,266.9c3.4,5.4-0.4,18.6,9.1,18.9c0.6,0,0.6-1,0-1c-8.5-0.3-5.1-13.4-8.2-18.4
				C191.9,265.9,191.1,266.4,191.4,266.9L191.4,266.9z"/>
		</g>
	</g>
	<g>
		<g>
			<path class="st19" d="M202.7,264.5c7.3-1.3,14.8-2.7,16.8-11.5"/>
			<path class="st18" d="M202.8,265c7.7-1.4,15-3.4,17.2-11.8c0.2-0.6-0.8-0.9-1-0.3c-2.1,8.1-9.2,9.8-16.5,11.2
				C201.9,264.1,202.2,265.1,202.8,265L202.8,265z"/>
		</g>
	</g>
	<g>
		<g>
			<path class="st19" d="M224,192c4.2-0.8,5.3-12.3,6.7-16.2"/>
			<path class="st18" d="M224.1,192.5c2.4-0.7,3.4-3.4,4.2-5.6c1.3-3.6,1.6-7.4,2.8-11c0.2-0.6-0.8-0.9-1-0.3
				c-0.8,2.4-1.2,4.9-1.8,7.4c-0.6,2.6-1.5,7.5-4.5,8.4C223.3,191.7,223.5,192.7,224.1,192.5L224.1,192.5z"/>
		</g>
	</g>
	<path class="st20" d="M208,182.7c-0.2-2.3-2.7-2.9-4-3.8"/>
	<path class="st20" d="M208.7,192c-0.7-1.1-2.3-1.5-3.3-1.7"/>
	<path class="st20" d="M229.2,180.7c0.5-1.1,1.3-2.5,3.2-2.3"/>
	<path class="st20" d="M230.2,176.2c0.7-1.5-0.7-2.7-0.8-3.8"/>
	<path class="st20" d="M208,181.7c0.3-1.5-0.3-3.3-1.5-4.3"/>
	<path class="st20" d="M230.8,176.5c0.4-0.6,0.8-2,2.2-2.2"/>
	<path class="st20" d="M215.3,259.8c1.4-0.5,5.4,0.5,5.2,2.7"/>
	<path class="st20" d="M194.2,278c0.1,1.9-1.4,5.3-3.3,4.5"/>
	<path class="st20" d="M196.8,284c0.9,1.6,2.1,3.3,1.3,5.2c-0.6,1.5-2.2,2.7-3.8,2.9c-0.1,0-0.3-0.2-0.3-0.2
		c0.1,0.1,0.2,0.2,0.3,0.3"/>
	<path class="st20" d="M195.3,283.2c-0.5,1.1-1.2,2.2-2.2,3c-1,0.9-3,1.1-3.5,1.6"/>
	<path class="st20" d="M197.3,290.7c0-0.4,0.7,1.6,1,2.2c0.4,0.7,1.4,2.1,2,2"/>
	<path class="st20" d="M193.8,285.5c-0.5,1.2,0.2,3.4,1.2,4"/>
	<path class="st20" d="M137.7,252.8c-0.6-0.7-1.7-2.3-2.2-3.5"/>
	<path class="st20" d="M120.3,262.5c-1-2.2-0.7-4.5-3.2-6.3"/>
	<path class="st20" d="M118.8,261.5c-1.5-0.7-4.1-2.8-4-4.5"/>
	<path class="st20" d="M62.5,229.3c1.2,1.2,2.4,3.1,3.5,4.5c0.8,1.2,3.5,3.6,3.5,4.7"/>
	<path class="st20" d="M71,239.2c1.3-2.4-7.4-9.5-4-11.3"/>
	<path class="st20" d="M152.7,221.8c0.5,2.1,5.3,4.5,7.2,4.2"/>
	<path class="st20" d="M153.2,226.2c1.1,1.4,2.9,2.6,4.5,3.5"/>
	<path class="st20" d="M155.5,224.8c0.2,0.1,0.2,0.2,0.5,0.1c0.8-1.3,1.1-3.6,1.9-4.5"/>
	<path class="st20" d="M155.8,228.8c0.2,1.3,0.4,2.7-0.3,3.8"/>
	<path class="st20" d="M176.7,260.7c-0.1,1.5,0.2,4.5,1,6"/>
	<path class="st20" d="M174.8,258.3c0.7-0.9,2.5-0.9,3.5-0.5"/>
	<path class="st20" d="M177,263.5c1.1,0.4,2.3,0.6,3.5,0.5"/>
	<path class="st20" d="M119.8,273.5c0.4-1.3,0.1-3,0.4-4.3c0.2,0,0.3,0,0.5,0"/>
	<path class="st20" d="M118.3,272.8c0-2.2-4.1-2.1-5.5-1.8"/>
	<path class="st20" d="M67.8,232.7c0.5-0.4,0.4-0.9,0.7-1.5c0.2-0.4,0.4-1.7,0.5-1.2"/>
	<path class="st20" d="M117.7,273c-2.6-0.8-4.1,1.1-6.6-0.5c0.1-0.2,0.3-0.1,0.4-0.2"/>
	<path class="st20" d="M136.5,252.8c-1.4-0.4-5.2-5.5-4.7-6"/>
	<path class="st20" d="M218.3,255.8c-1.7-1.1-3.8-2.3-4.3-4"/>
	<path class="st20" d="M119.2,258.5c0-0.3,0.5-1.1,0.8-1.5"/>
	<path class="st20" d="M64.5,231.7c1.5-0.7-0.5-3.1-0.5-3.3"/>
	<path class="st20" d="M218.3,260.2c0,0.5,0.6,1.6,0.7,2.3c0.2,1.2-0.2,2.1-0.5,3.2"/>
	<path class="st20" d="M113.7,273.5c-0.3,0.7,0,2.7,0.1,3.3c-0.3-0.2-0.4-0.5-0.5-0.8"/>
	<path class="st20" d="M231.7,174.7c-0.3-0.7-1-2.8-0.8-3.7"/>
	<path class="st20" d="M205.7,180.3c-0.3,0.8-0.3,2.1-0.8,2.8"/>
	<path class="st20" d="M215.5,253.7c0.6-1.5,2-1.8,1.3-3.8"/>
	<path class="st20" d="M149.8,264.8c0.9-0.1,2.1,0.4,2.8,0.8"/>
	<path class="st20" d="M133.3,249.7c0.6-1.1,0.6-1.9-0.2-3"/>
	<path class="st20" d="M230.8,199.8c-0.3-1.2-1.1-2.1-1.9-3.2c-0.7-0.9-1.9-2-2.3-3"/>
	<path class="st20" d="M232.5,190.7c-0.3-1.2,2.6-3.1,1.7-4.8"/>
	<path class="st20" d="M228,195.5c0.9-1.2,1.2-2.5,0.8-4"/>
	<path class="st20" d="M233.5,188c-1.3-0.4-2.6-1.5-3-2.5"/>
</g>
<g id="tekst">
	<text transform="matrix(1 0 0 1 169.334 39.331)" class="st21 st22 yText">Venstre forkammer</text>
	<text transform="matrix(1 0 0 1 28.501 320.33)" class="st21 st23">Venstre gren</text>
	<text transform="matrix(1 0 0 1 194.501 321.498)" class="yText"><tspan x="0" y="0" class="st21 st22">Venstre </tspan><tspan x="0" y="10.8" class="st21 st22">hjertekammer</tspan></text>
	<text transform="matrix(1 0 0 1 7.501 298.498)" class="st21 st22 yText">His’ske bundt</text>
	<text transform="matrix(1 0 0 1 27.501 309.498)" class="st21 st23 yText">Højre gren</text>
	<text transform="matrix(1 0 0 1 109.001 311.164)" class="yText"><tspan x="0" y="0" class="st21 st22">Højre </tspan><tspan x="0" y="10.8" class="st21 st22">hjertekammer</tspan></text>
	<text transform="matrix(1 0 0 1 141.3057 352.1894)" class="st21 st22 yText">Hjertemuskulatur</text>
	<text transform="matrix(1 0 0 1 65.1675 341.498)" class="st21 st22 yText">Purkinjefibre</text>
	<text transform="matrix(1 0 0 1 35.001 39.331)" class="yText st21 st22">Højre forkammer</text>
	<text transform="matrix(1 0 0 1 16.001 58.665)" class="yText st21 st22">Sinusknude</text>
	<text transform="matrix(1 0 0 1 2.501 275.498)" class="yText st21 st22">AV-knuden</text>
	<text transform="matrix(1 0 0 1 164.834 117.4897)" class="st24 st21 st22">0,09</text>
	<text transform="matrix(1 0 0 1 131.9575 153.9731)" class="st24 st21 st22">0,16</text>
	<text transform="matrix(1 0 0 1 77.9575 187.9731)" class="st24 st21 st22">0,07</text>
	<text transform="matrix(1 0 0 1 86.9575 252.9731)" class="st24 st21 st22">0,19</text>
	<text transform="matrix(1 0 0 1 179.9575 213.9731)" class="st24 st21 st22">0,18</text>
</g>
<g id="streger_til_tekst">
	<line class="st25" x1="64.3" y1="291.8" x2="129.7" y2="179.1"/>
	<line class="st25" x1="76.8" y1="316.8" x2="155.3" y2="206.3"/>
	<line class="st25" x1="68.8" y1="304.3" x2="139" y2="201"/>
	<line class="st25" x1="172.3" y1="341.5" x2="179.3" y2="296.8"/>
	<line class="st25" x1="150.2" y1="311.2" x2="163.8" y2="270.8"/>
	<line class="st25" x1="200.8" y1="312.8" x2="196.8" y2="251.8"/>
	<line class="st25" x1="91.8" y1="332.8" x2="114.3" y2="273.7"/>
	<line class="st25" x1="188.3" y1="43.3" x2="177.7" y2="101.3"/>
	<line class="st25" x1="75.8" y1="43.8" x2="82.8" y2="134.3"/>
	<line class="st25" x1="52.8" y1="61.8" x2="73.7" y2="158.7"/>
	<line class="st25" x1="41.2" y1="266.7" x2="118.7" y2="174.3"/>
	<line class="st25" x1="122.2" y1="170.7" x2="135.5" y2="156.8"/>
</g>
<g id="pile">
	<g>
		<line class="st26" x1="93.9" y1="174" x2="83.1" y2="163.6"/>
		<polygon class="st18" points="96.6,169.9 99.2,179.1 89.9,176.8 		"/>
	</g>
	<g>
		<line class="st26" x1="180.1" y1="230.1" x2="171.9" y2="217.6"/>
		<polygon class="st18" points="183.6,226.7 184.2,236.3 175.6,232 		"/>
	</g>
	<g>
		<line class="st26" x1="150.1" y1="248.8" x2="141.5" y2="236.5"/>
		<polygon class="st18" points="153.5,245.3 154.3,254.8 145.7,250.8 		"/>
	</g>
	<g>
		<line class="st26" x1="72.5" y1="183.1" x2="74" y2="168.2"/>
		<polygon class="st18" points="77.3,182.7 71.7,190.4 67.8,181.7 		"/>
	</g>
	<g>
		<line class="st26" x1="52.4" y1="169.5" x2="65.4" y2="162"/>
		<polygon class="st18" points="55.6,173.1 46,173.1 50.8,164.9 		"/>
	</g>
	<g>
		<line class="st26" x1="97.1" y1="147.7" x2="83.5" y2="154"/>
		<polygon class="st18" points="94.3,143.8 103.8,144.6 98.3,152.4 		"/>
	</g>
</g>
</svg>
