<?xml version="1.0" encoding="utf-8"?>
<!-- Generator: Adobe Illustrator 19.1.0, SVG Export Plug-In . SVG Version: 6.00 Build 0)  -->
<svg version="1.1" xmlns="http://www.w3.org/2000/svg" xmlns:xlink="http://www.w3.org/1999/xlink" x="0px" y="0px"
	 viewBox="0 0 269.3 487.6" style="enable-background:new 0 0 269.3 487.6;" xml:space="preserve">
<style type="text/css">
	.st0{fill:url(#SVGID_1_);}
	.st1{fill:#70B221;stroke:#000000;stroke-width:0.5;}
	.st2{fill:url(#SVGID_2_);stroke:#000000;stroke-width:0.5;}
	.st3{fill:#EDF7FD;stroke:#000000;stroke-width:0.3981;}
	.st4{fill:url(#SVGID_3_);}
	.st5{fill:none;stroke:#000000;stroke-width:0.5;}
	.st6{fill:url(#SVGID_4_);}
	.st7{fill:url(#SVGID_5_);}
	.st8{fill:url(#SVGID_6_);}
	.st9{fill:url(#SVGID_7_);}
	.st10{fill:url(#SVGID_8_);}
	.st11{fill:url(#SVGID_9_);}
	.st12{fill:url(#SVGID_10_);}
	.st13{fill:url(#SVGID_11_);}
	.st14{fill:url(#SVGID_12_);}
	.st15{fill:url(#SVGID_13_);}
	.st16{fill:url(#SVGID_14_);}
	.st17{fill:url(#SVGID_15_);}
	.st18{fill:url(#SVGID_16_);}
	.st19{fill:url(#SVGID_17_);}
	.st20{fill:url(#SVGID_18_);}
	.st21{fill:#BFE5F7;stroke:#000000;stroke-width:0.5;}
	.st22{fill:#706D1F;stroke:#000000;stroke-width:0.5;}
	.st23{fill:none;}
	.st24{fill:#E2001A;}
	.st25{font-family:'Verdana';}
	.st26{font-size:9px;}
</style>
<g id="Lag_10">
	<linearGradient id="SVGID_1_" gradientUnits="userSpaceOnUse" x1="134.6455" y1="487.5586" x2="134.6455" y2="-6.044502e-09">
		<stop  offset="0" style="stop-color:#FFDF88"/>
		<stop  offset="2.281064e-02" style="stop-color:#FFDB86"/>
		<stop  offset="0.26" style="stop-color:#F8B871"/>
		<stop  offset="0.484" style="stop-color:#F29861"/>
		<stop  offset="0.6886" style="stop-color:#EE8055"/>
		<stop  offset="0.8672" style="stop-color:#EC704F"/>
		<stop  offset="1" style="stop-color:#EB6B4D"/>
	</linearGradient>
	<rect class="st0" width="269.3" height="487.6"/>
</g>
<g id="Lag_1">
	<circle class="st1" cx="134.4" cy="148.4" r="78.2"/>
	<radialGradient id="SVGID_2_" cx="134.4346" cy="148.3633" r="71.3335" gradientUnits="userSpaceOnUse">
		<stop  offset="5.617980e-03" style="stop-color:#FBEF7F"/>
		<stop  offset="0.1908" style="stop-color:#F6EC7C"/>
		<stop  offset="0.4526" style="stop-color:#E7E574"/>
		<stop  offset="0.7583" style="stop-color:#CED968"/>
		<stop  offset="1" style="stop-color:#B4CE5D"/>
	</radialGradient>
	<circle class="st2" cx="134.4" cy="148.4" r="71.3"/>
</g>
<g id="Lag_6">
	<path class="st3" d="M149,107.8c1.7,0.8,7,2.2,7.5,4s2.5,4.8,2.2,8s-0.2,12.5-0.2,15.2s0.8,7.2,1.2,10s2.2,5.2,2.2,8s0,6.2,0,7.8
		s0.2,2.5-0.8,5.5s-2.2,5.2-4,8s-6.5,5.5-8.2,6.2s-8.8,1.8-14.8,0.8s-17.8-5.5-20.5-7.8s-3.5-8.2-3.5-9.8s5-5.5,5.8-7.8
		s3.5-4.5,3.8-6.2s0.5-5.5-0.5-8.5s-3.8-6.5-4.8-8.2s-2-3.5-1.8-6s2-6.8,3.8-9.8s5.5-7,8.5-8.5s5.5-3,9.8-3.2S145.8,106.2,149,107.8
		z"/>
</g>
<g id="Lag_2">
	<g>
		<g>
			
				<linearGradient id="SVGID_3_" gradientUnits="userSpaceOnUse" x1="134.3335" y1="98.1069" x2="134.3335" y2="84.7837" gradientTransform="matrix(1 0 0 1 0 -25)">
				<stop  offset="0" style="stop-color:#004362"/>
				<stop  offset="1" style="stop-color:#009EE0"/>
			</linearGradient>
			<path class="st4" d="M141.6,62.7c0-1.6-3.3-3-7.3-3c-4,0-7.3,1.3-7.3,3c0,1.4,2.4,2.6,5.6,2.9v5.9c0,0.9,0.7,1.6,1.6,1.6
				c0.9,0,1.6-0.7,1.6-1.6v-5.9C139.2,65.3,141.6,64.1,141.6,62.7z"/>
		</g>
		<g>
			<path class="st5" d="M141.6,62.7c0-1.6-3.3-3-7.3-3c-4,0-7.3,1.3-7.3,3c0,1.4,2.4,2.6,5.6,2.9v5.9c0,0.9,0.7,1.6,1.6,1.6
				c0.9,0,1.6-0.7,1.6-1.6v-5.9C139.2,65.3,141.6,64.1,141.6,62.7z"/>
		</g>
	</g>
	<g>
		<g>
			
				<linearGradient id="SVGID_4_" gradientUnits="userSpaceOnUse" x1="92.1133" y1="84.9409" x2="92.1133" y2="71.6181" gradientTransform="matrix(0.9272 -0.3746 0.3746 0.9272 -12.2083 34.1984)">
				<stop  offset="0" style="stop-color:#004362"/>
				<stop  offset="1" style="stop-color:#009EE0"/>
			</linearGradient>
			<path class="st6" d="M107.9,66.1c-0.6-1.5-4.1-1.5-7.8,0c-3.7,1.5-6.2,3.9-5.6,5.5c0.5,1.3,3.2,1.5,6.3,0.6l2.2,5.4
				c0.3,0.8,1.3,1.2,2.1,0.9c0.8-0.3,1.2-1.3,0.9-2.1l-2.2-5.4C106.6,69.4,108.4,67.4,107.9,66.1z"/>
		</g>
		<g>
			<path class="st5" d="M107.9,66.1c-0.6-1.5-4.1-1.5-7.8,0c-3.7,1.5-6.2,3.9-5.6,5.5c0.5,1.3,3.2,1.5,6.3,0.6l2.2,5.4
				c0.3,0.8,1.3,1.2,2.1,0.9c0.8-0.3,1.2-1.3,0.9-2.1l-2.2-5.4C106.6,69.4,108.4,67.4,107.9,66.1z"/>
		</g>
	</g>
	<g>
		<g>
			
				<linearGradient id="SVGID_5_" gradientUnits="userSpaceOnUse" x1="-2.4595" y1="46.7324" x2="-2.4595" y2="33.4096" gradientTransform="matrix(-0.9272 -0.3746 -0.3746 0.9272 178.474 34.1984)">
				<stop  offset="0" style="stop-color:#004362"/>
				<stop  offset="1" style="stop-color:#009EE0"/>
			</linearGradient>
			<path class="st7" d="M168.2,66.1c-3.7-1.5-7.2-1.5-7.8,0c-0.5,1.3,1.3,3.3,4.1,4.8l-2.2,5.4c-0.3,0.8,0.1,1.8,0.9,2.1
				c0.8,0.3,1.8-0.1,2.1-0.9l2.2-5.4c3.1,0.9,5.8,0.7,6.3-0.6C174.5,70,172,67.6,168.2,66.1z"/>
		</g>
		<g>
			<path class="st5" d="M168.2,66.1c-3.7-1.5-7.2-1.5-7.8,0c-0.5,1.3,1.3,3.3,4.1,4.8l-2.2,5.4c-0.3,0.8,0.1,1.8,0.9,2.1
				c0.8,0.3,1.8-0.1,2.1-0.9l2.2-5.4c3.1,0.9,5.8,0.7,6.3-0.6C174.5,70,172,67.6,168.2,66.1z"/>
		</g>
	</g>
	<g>
		<g>
			
				<linearGradient id="SVGID_6_" gradientUnits="userSpaceOnUse" x1="171.5254" y1="-111.6196" x2="171.5254" y2="-124.9424" gradientTransform="matrix(0.9272 0.3746 0.3746 -0.9272 -12.2083 49.3465)">
				<stop  offset="0" style="stop-color:#004362"/>
				<stop  offset="1" style="stop-color:#009EE0"/>
			</linearGradient>
			<path class="st8" d="M103.7,224.7l2.2-5.4c0.3-0.8-0.1-1.8-0.9-2.1c-0.8-0.3-1.8,0.1-2.1,0.9l-2.2,5.4c-3.1-0.9-5.8-0.7-6.3,0.6
				c-0.6,1.5,1.9,4,5.6,5.5c3.7,1.5,7.2,1.5,7.8,0C108.4,228.1,106.6,226.1,103.7,224.7z"/>
		</g>
		<g>
			<path class="st5" d="M103.7,224.7l2.2-5.4c0.3-0.8-0.1-1.8-0.9-2.1c-0.8-0.3-1.8,0.1-2.1,0.9l-2.2,5.4c-3.1-0.9-5.8-0.7-6.3,0.6
				c-0.6,1.5,1.9,4,5.6,5.5c3.7,1.5,7.2,1.5,7.8,0C108.4,228.1,106.6,226.1,103.7,224.7z"/>
		</g>
	</g>
	<g>
		<g>
			
				<linearGradient id="SVGID_7_" gradientUnits="userSpaceOnUse" x1="76.9536" y1="-149.8281" x2="76.9536" y2="-163.1504" gradientTransform="matrix(-0.9272 0.3746 -0.3746 -0.9272 178.474 49.3465)">
				<stop  offset="0" style="stop-color:#004362"/>
				<stop  offset="1" style="stop-color:#009EE0"/>
			</linearGradient>
			<path class="st9" d="M173.9,224c-0.5-1.3-3.2-1.5-6.3-0.6l-2.2-5.4c-0.3-0.8-1.3-1.2-2.1-0.9c-0.8,0.3-1.2,1.3-0.9,2.1l2.2,5.4
				c-2.9,1.5-4.7,3.5-4.1,4.8c0.6,1.5,4.1,1.5,7.8,0C172,227.9,174.5,225.5,173.9,224z"/>
		</g>
		<g>
			<path class="st5" d="M173.9,224c-0.5-1.3-3.2-1.5-6.3-0.6l-2.2-5.4c-0.3-0.8-1.3-1.2-2.1-0.9c-0.8,0.3-1.2,1.3-0.9,2.1l2.2,5.4
				c-2.9,1.5-4.7,3.5-4.1,4.8c0.6,1.5,4.1,1.5,7.8,0C172,227.9,174.5,225.5,173.9,224z"/>
		</g>
	</g>
	<g>
		<g>
			
				<linearGradient id="SVGID_8_" gradientUnits="userSpaceOnUse" x1="63.6035" y1="45.3574" x2="63.6035" y2="32.0332" gradientTransform="matrix(0.7071 -0.7071 0.7071 0.7071 4.0978 107.3787)">
				<stop  offset="0" style="stop-color:#004362"/>
				<stop  offset="1" style="stop-color:#009EE0"/>
			</linearGradient>
			<path class="st10" d="M81.1,92.2L77,88c2.1-2.5,2.9-5,1.9-6c-1.2-1.2-4.4,0.2-7.2,3.1c-2.8,2.8-4.2,6.1-3.1,7.2
				c1,1,3.5,0.1,6-1.9l4.1,4.1c0.6,0.6,1.7,0.6,2.3,0C81.8,93.8,81.8,92.8,81.1,92.2z"/>
		</g>
		<g>
			<path class="st5" d="M81.1,92.2L77,88c2.1-2.5,2.9-5,1.9-6c-1.2-1.2-4.4,0.2-7.2,3.1c-2.8,2.8-4.2,6.1-3.1,7.2c1,1,3.5,0.1,6-1.9
				l4.1,4.1c0.6,0.6,1.7,0.6,2.3,0C81.8,93.8,81.8,92.8,81.1,92.2z"/>
		</g>
	</g>
	<g>
		<g>
			
				<linearGradient id="SVGID_9_" gradientUnits="userSpaceOnUse" x1="-45.5063" y1="-63.7529" x2="-45.5063" y2="-77.0771" gradientTransform="matrix(-0.7071 -0.7071 -0.7071 0.7071 109.7885 107.3787)">
				<stop  offset="0" style="stop-color:#004362"/>
				<stop  offset="1" style="stop-color:#009EE0"/>
			</linearGradient>
			<path class="st11" d="M196.5,85.1c-2.8-2.8-6.1-4.2-7.2-3.1c-1,1-0.1,3.5,1.9,6l-4.1,4.1c-0.6,0.6-0.6,1.7,0,2.3
				c0.6,0.6,1.7,0.6,2.3,0l4.1-4.1c2.5,2.1,5,2.9,6,1.9C200.7,91.1,199.3,87.9,196.5,85.1z"/>
		</g>
		<g>
			<path class="st5" d="M196.5,85.1c-2.8-2.8-6.1-4.2-7.2-3.1c-1,1-0.1,3.5,1.9,6l-4.1,4.1c-0.6,0.6-0.6,1.7,0,2.3
				c0.6,0.6,1.7,0.6,2.3,0l4.1-4.1c2.5,2.1,5,2.9,6,1.9C200.7,91.1,199.3,87.9,196.5,85.1z"/>
		</g>
	</g>
	<g>
		<g>
			
				<linearGradient id="SVGID_10_" gradientUnits="userSpaceOnUse" x1="189.4688" y1="-80.5088" x2="189.4688" y2="-93.833" gradientTransform="matrix(0.7071 0.7071 0.7071 -0.7071 4.0978 9.173)">
				<stop  offset="0" style="stop-color:#004362"/>
				<stop  offset="1" style="stop-color:#009EE0"/>
			</linearGradient>
			<path class="st12" d="M81.1,200.1c-0.6-0.6-1.7-0.6-2.3,0l-4.1,4.1c-2.5-2.1-5-2.9-6-1.9c-1.2,1.2,0.2,4.4,3.1,7.2
				c2.8,2.8,6.1,4.2,7.2,3.1c1-1,0.1-3.5-1.9-6l4.1-4.1C81.8,201.8,81.8,200.7,81.1,200.1z"/>
		</g>
		<g>
			<path class="st5" d="M81.1,200.1c-0.6-0.6-1.7-0.6-2.3,0l-4.1,4.1c-2.5-2.1-5-2.9-6-1.9c-1.2,1.2,0.2,4.4,3.1,7.2
				c2.8,2.8,6.1,4.2,7.2,3.1c1-1,0.1-3.5-1.9-6l4.1-4.1C81.8,201.8,81.8,200.7,81.1,200.1z"/>
		</g>
	</g>
	<g>
		<g>
			
				<linearGradient id="SVGID_11_" gradientUnits="userSpaceOnUse" x1="80.3594" y1="-189.6191" x2="80.3594" y2="-202.9428" gradientTransform="matrix(-0.7071 0.7071 -0.7071 -0.7071 109.7885 9.173)">
				<stop  offset="0" style="stop-color:#004362"/>
				<stop  offset="1" style="stop-color:#009EE0"/>
			</linearGradient>
			<path class="st13" d="M199.5,202.3c-1-1-3.5-0.1-6,1.9l-4.1-4.1c-0.6-0.6-1.7-0.6-2.3,0c-0.6,0.6-0.6,1.7,0,2.3l4.1,4.1
				c-2.1,2.5-2.9,5-1.9,6c1.2,1.2,4.4-0.2,7.2-3.1C199.3,206.7,200.7,203.4,199.5,202.3z"/>
		</g>
		<g>
			<path class="st5" d="M199.5,202.3c-1-1-3.5-0.1-6,1.9l-4.1-4.1c-0.6-0.6-1.7-0.6-2.3,0c-0.6,0.6-0.6,1.7,0,2.3l4.1,4.1
				c-2.1,2.5-2.9,5-1.9,6c1.2,1.2,4.4-0.2,7.2-3.1C199.3,206.7,200.7,203.4,199.5,202.3z"/>
		</g>
	</g>
	<g>
		<g>
			
				<linearGradient id="SVGID_12_" gradientUnits="userSpaceOnUse" x1="134.5645" y1="-126.2266" x2="134.5645" y2="-139.5498" gradientTransform="matrix(1 0 0 -1 0 97.2236)">
				<stop  offset="0" style="stop-color:#004362"/>
				<stop  offset="1" style="stop-color:#009EE0"/>
			</linearGradient>
			<path class="st14" d="M136.2,230.9v-5.9c0-0.9-0.7-1.6-1.6-1.6c-0.9,0-1.6,0.7-1.6,1.6v5.9c-3.2,0.3-5.6,1.5-5.6,2.9
				c0,1.6,3.3,3,7.3,3c4,0,7.3-1.3,7.3-3C141.8,232.4,139.4,231.2,136.2,230.9z"/>
		</g>
		<g>
			<path class="st5" d="M136.2,230.9v-5.9c0-0.9-0.7-1.6-1.6-1.6c-0.9,0-1.6,0.7-1.6,1.6v5.9c-3.2,0.3-5.6,1.5-5.6,2.9
				c0,1.6,3.3,3,7.3,3c4,0,7.3-1.3,7.3-3C141.8,232.4,139.4,231.2,136.2,230.9z"/>
		</g>
	</g>
	<g>
		<g>
			
				<linearGradient id="SVGID_13_" gradientUnits="userSpaceOnUse" x1="49.8979" y1="-27.228" x2="49.8979" y2="-40.5512" gradientTransform="matrix(0 1 -1 0 181.3438 98.5479)">
				<stop  offset="0" style="stop-color:#004362"/>
				<stop  offset="1" style="stop-color:#009EE0"/>
			</linearGradient>
			<path class="st15" d="M218.9,141.2c-1.4,0-2.6,2.4-2.9,5.6h-5.9c-0.9,0-1.6,0.7-1.6,1.6c0,0.9,0.7,1.6,1.6,1.6h5.9
				c0.3,3.2,1.5,5.6,2.9,5.6c1.6,0,3-3.3,3-7.3C221.9,144.4,220.6,141.2,218.9,141.2z"/>
		</g>
		<g>
			<path class="st5" d="M218.9,141.2c-1.4,0-2.6,2.4-2.9,5.6h-5.9c-0.9,0-1.6,0.7-1.6,1.6c0,0.9,0.7,1.6,1.6,1.6h5.9
				c0.3,3.2,1.5,5.6,2.9,5.6c1.6,0,3-3.3,3-7.3C221.9,144.4,220.6,141.2,218.9,141.2z"/>
		</g>
	</g>
	<g>
		<g>
			
				<linearGradient id="SVGID_14_" gradientUnits="userSpaceOnUse" x1="49.8979" y1="-153.228" x2="49.8979" y2="-166.5512" gradientTransform="matrix(0 1 1 0 213.1211 98.5479)">
				<stop  offset="0" style="stop-color:#004362"/>
				<stop  offset="1" style="stop-color:#009EE0"/>
			</linearGradient>
			<path class="st16" d="M58.3,146.8h-5.9c-0.3-3.2-1.5-5.6-2.9-5.6c-1.6,0-3,3.3-3,7.3c0,4,1.3,7.3,3,7.3c1.4,0,2.6-2.4,2.9-5.6
				h5.9c0.9,0,1.6-0.7,1.6-1.6C59.9,147.5,59.2,146.8,58.3,146.8z"/>
		</g>
		<g>
			<path class="st5" d="M58.3,146.8h-5.9c-0.3-3.2-1.5-5.6-2.9-5.6c-1.6,0-3,3.3-3,7.3c0,4,1.3,7.3,3,7.3c1.4,0,2.6-2.4,2.9-5.6h5.9
				c0.9,0,1.6-0.7,1.6-1.6C59.9,147.5,59.2,146.8,58.3,146.8z"/>
		</g>
	</g>
	<g>
		<g>
			
				<linearGradient id="SVGID_15_" gradientUnits="userSpaceOnUse" x1="84.6519" y1="96.1738" x2="84.6519" y2="82.8501" gradientTransform="matrix(0.3907 -0.9205 0.9205 0.3907 -56.215 159.1887)">
				<stop  offset="0" style="stop-color:#004362"/>
				<stop  offset="1" style="stop-color:#009EE0"/>
			</linearGradient>
			<path class="st17" d="M64.5,116.7l-5.4-2.3c1-3.1,0.8-5.8-0.4-6.3c-1.5-0.6-4,1.8-5.6,5.5c-1.6,3.7-1.6,7.2-0.1,7.8
				c1.3,0.5,3.3-1.2,4.8-4.1l5.4,2.3c0.8,0.4,1.8,0,2.1-0.9C65.7,118,65.4,117,64.5,116.7z"/>
		</g>
		<g>
			<path class="st5" d="M64.5,116.7l-5.4-2.3c1-3.1,0.8-5.8-0.4-6.3c-1.5-0.6-4,1.8-5.6,5.5c-1.6,3.7-1.6,7.2-0.1,7.8
				c1.3,0.5,3.3-1.2,4.8-4.1l5.4,2.3c0.8,0.4,1.8,0,2.1-0.9C65.7,118,65.4,117,64.5,116.7z"/>
		</g>
	</g>
	<g>
		<g>
			
				<linearGradient id="SVGID_16_" gradientUnits="userSpaceOnUse" x1="11.1982" y1="-76.8862" x2="11.1982" y2="-90.2094" gradientTransform="matrix(-0.3907 -0.9205 -0.9205 0.3907 137.6413 159.1887)">
				<stop  offset="0" style="stop-color:#004362"/>
				<stop  offset="1" style="stop-color:#009EE0"/>
			</linearGradient>
			<path class="st18" d="M216.3,113.6c-1.6-3.7-4.1-6.2-5.6-5.5c-1.3,0.5-1.4,3.2-0.4,6.3l-5.4,2.3c-0.8,0.4-1.2,1.3-0.9,2.1
				c0.4,0.8,1.3,1.2,2.1,0.9l5.4-2.3c1.5,2.8,3.6,4.6,4.8,4.1C217.9,120.8,217.9,117.3,216.3,113.6z"/>
		</g>
		<g>
			<path class="st5" d="M216.3,113.6c-1.6-3.7-4.1-6.2-5.6-5.5c-1.3,0.5-1.4,3.2-0.4,6.3l-5.4,2.3c-0.8,0.4-1.2,1.3-0.9,2.1
				c0.4,0.8,1.3,1.2,2.1,0.9l5.4-2.3c1.5,2.8,3.6,4.6,4.8,4.1C217.9,120.8,217.9,117.3,216.3,113.6z"/>
		</g>
	</g>
	<g>
		<g>
			
				<linearGradient id="SVGID_17_" gradientUnits="userSpaceOnUse" x1="200.6387" y1="46.9439" x2="200.6387" y2="33.6202" gradientTransform="matrix(0.3907 0.9205 0.9205 -0.3907 -56.215 10.3934)">
				<stop  offset="0" style="stop-color:#004362"/>
				<stop  offset="1" style="stop-color:#009EE0"/>
			</linearGradient>
			<path class="st19" d="M65.4,176.7c-0.4-0.8-1.3-1.2-2.1-0.9l-5.4,2.3c-1.5-2.8-3.6-4.6-4.8-4.1c-1.5,0.6-1.4,4.1,0.1,7.8
				c1.6,3.7,4.1,6.2,5.6,5.5c1.3-0.5,1.4-3.2,0.4-6.3l5.4-2.3C65.4,178.5,65.7,177.6,65.4,176.7z"/>
		</g>
		<g>
			<path class="st5" d="M65.4,176.7c-0.4-0.8-1.3-1.2-2.1-0.9l-5.4,2.3c-1.5-2.8-3.6-4.6-4.8-4.1c-1.5,0.6-1.4,4.1,0.1,7.8
				c1.6,3.7,4.1,6.2,5.6,5.5c1.3-0.5,1.4-3.2,0.4-6.3l5.4-2.3C65.4,178.5,65.7,177.6,65.4,176.7z"/>
		</g>
	</g>
	<g>
		<g>
			
				<linearGradient id="SVGID_18_" gradientUnits="userSpaceOnUse" x1="127.1846" y1="-126.1157" x2="127.1846" y2="-139.4389" gradientTransform="matrix(-0.3907 0.9205 -0.9205 -0.3907 137.6413 10.3934)">
				<stop  offset="0" style="stop-color:#004362"/>
				<stop  offset="1" style="stop-color:#009EE0"/>
			</linearGradient>
			<path class="st20" d="M216.4,174.1c-1.3-0.5-3.3,1.2-4.8,4.1l-5.4-2.3c-0.8-0.4-1.8,0-2.1,0.9c-0.4,0.8,0,1.8,0.9,2.1l5.4,2.3
				c-1,3.1-0.8,5.8,0.4,6.3c1.5,0.6,4-1.8,5.6-5.5C217.9,178.2,217.9,174.7,216.4,174.1z"/>
		</g>
		<g>
			<path class="st5" d="M216.4,174.1c-1.3-0.5-3.3,1.2-4.8,4.1l-5.4-2.3c-0.8-0.4-1.8,0-2.1,0.9c-0.4,0.8,0,1.8,0.9,2.1l5.4,2.3
				c-1,3.1-0.8,5.8,0.4,6.3c1.5,0.6,4-1.8,5.6-5.5C217.9,178.2,217.9,174.7,216.4,174.1z"/>
		</g>
	</g>
</g>
<g id="Lag_3">
	<g>
		<circle class="st21" cx="67.1" cy="144.2" r="3.6"/>
		<circle class="st21" cx="68" cy="136.7" r="3.6"/>
		<circle class="st21" cx="69.7" cy="129.3" r="3.6"/>
		<circle class="st21" cx="72.3" cy="122.2" r="3.6"/>
		<circle class="st21" cx="75.5" cy="115.3" r="3.6"/>
		<circle class="st21" cx="79.8" cy="109.2" r="3.6"/>
		<circle class="st21" cx="84.3" cy="103.5" r="3.6"/>
		<circle class="st21" cx="89.6" cy="98.3" r="3.6"/>
		<circle class="st21" cx="95.3" cy="93.2" r="3.6"/>
		<circle class="st21" cx="101.6" cy="89.3" r="3.6"/>
		<circle class="st21" cx="108.3" cy="85.9" r="3.6"/>
		<circle class="st21" cx="115.4" cy="83.5" r="3.6"/>
		<circle class="st21" cx="122.9" cy="81.8" r="3.6"/>
		<circle class="st21" cx="130.3" cy="80.7" r="3.6"/>
	</g>
	<g>
		<circle class="st21" cx="201.4" cy="144.2" r="3.6"/>
		<circle class="st21" cx="200.6" cy="136.7" r="3.6"/>
		<circle class="st21" cx="198.9" cy="129.3" r="3.6"/>
		<circle class="st21" cx="196.2" cy="122.2" r="3.6"/>
		<circle class="st21" cx="193" cy="115.3" r="3.6"/>
		<circle class="st21" cx="188.7" cy="109.2" r="3.6"/>
		<circle class="st21" cx="184.2" cy="103.5" r="3.6"/>
		<circle class="st21" cx="178.9" cy="98.3" r="3.6"/>
		<circle class="st21" cx="173.2" cy="93.2" r="3.6"/>
		<circle class="st21" cx="167" cy="89.3" r="3.6"/>
		<circle class="st21" cx="160.2" cy="85.9" r="3.6"/>
		<circle class="st21" cx="153.1" cy="83.5" r="3.6"/>
		<circle class="st21" cx="145.6" cy="81.8" r="3.6"/>
		<circle class="st21" cx="138.2" cy="80.7" r="3.6"/>
	</g>
	<g>
		<circle class="st21" cx="67.1" cy="152.2" r="3.6"/>
		<circle class="st21" cx="68" cy="159.8" r="3.6"/>
		<circle class="st21" cx="69.7" cy="167.2" r="3.6"/>
		<circle class="st21" cx="72.3" cy="174.3" r="3.6"/>
		<circle class="st21" cx="75.5" cy="181.2" r="3.6"/>
		<circle class="st21" cx="79.8" cy="187.2" r="3.6"/>
		<circle class="st21" cx="84.3" cy="193" r="3.6"/>
		<circle class="st21" cx="89.6" cy="198.2" r="3.6"/>
		<circle class="st21" cx="95.3" cy="203.3" r="3.6"/>
		<circle class="st21" cx="101.6" cy="207.2" r="3.6"/>
		<circle class="st21" cx="108.3" cy="210.6" r="3.6"/>
		<circle class="st21" cx="115.4" cy="213" r="3.6"/>
		<circle class="st21" cx="122.9" cy="214.7" r="3.6"/>
		<circle class="st21" cx="130.3" cy="215.7" r="3.6"/>
	</g>
	<g>
		<circle class="st21" cx="201.8" cy="152.2" r="3.6"/>
		<circle class="st21" cx="200.9" cy="159.8" r="3.6"/>
		<circle class="st21" cx="199.2" cy="167.2" r="3.6"/>
		<circle class="st21" cx="196.5" cy="174.3" r="3.6"/>
		<circle class="st21" cx="193.3" cy="181.2" r="3.6"/>
		<circle class="st21" cx="189" cy="187.2" r="3.6"/>
		<circle class="st21" cx="184.5" cy="193" r="3.6"/>
		<circle class="st21" cx="179.2" cy="198.2" r="3.6"/>
		<circle class="st21" cx="173.6" cy="203.3" r="3.6"/>
		<circle class="st21" cx="167.3" cy="207.2" r="3.6"/>
		<circle class="st21" cx="160.5" cy="210.6" r="3.6"/>
		<circle class="st21" cx="153.4" cy="213" r="3.6"/>
		<circle class="st21" cx="146" cy="214.7" r="3.6"/>
		<circle class="st21" cx="138.6" cy="215.7" r="3.6"/>
	</g>
</g>
<g id="Lag_4">
	<circle class="st21" cx="119.7" cy="112.6" r="4"/>
	<circle class="st21" cx="126.3" cy="108.4" r="4"/>
	<circle class="st21" cx="133.7" cy="105.1" r="4"/>
	<circle class="st21" cx="142" cy="104.7" r="4"/>
	<circle class="st21" cx="150" cy="107.7" r="4"/>
	<circle class="st21" cx="157.3" cy="112.1" r="4"/>
	<circle class="st21" cx="159" cy="119.7" r="4"/>
	<circle class="st21" cx="158.7" cy="128.1" r="4"/>
	<circle class="st21" cx="159" cy="135.7" r="4"/>
	<circle class="st21" cx="159.5" cy="144" r="4"/>
	<circle class="st21" cx="161.8" cy="152" r="4"/>
	<circle class="st21" cx="162.8" cy="160.3" r="4"/>
	<circle class="st21" cx="161.2" cy="168" r="4"/>
	<circle class="st21" cx="156.5" cy="174.5" r="4"/>
	<circle class="st21" cx="150.5" cy="179.8" r="4"/>
	<circle class="st21" cx="142.8" cy="182" r="4"/>
	<circle class="st21" cx="134.2" cy="181" r="4"/>
	<circle class="st21" cx="126.2" cy="179.5" r="4"/>
	<circle class="st21" cx="118.8" cy="176" r="4"/>
	<circle class="st21" cx="112.2" cy="172" r="4"/>
	<circle class="st21" cx="111.2" cy="163.8" r="4"/>
	<circle class="st21" cx="115.2" cy="156.5" r="4"/>
	<circle class="st21" cx="119.5" cy="149.5" r="4"/>
	<circle class="st21" cx="119.8" cy="141.3" r="4"/>
	<circle class="st21" cx="115.5" cy="134.8" r="4"/>
	<circle class="st21" cx="112.8" cy="127" r="4"/>
	<circle class="st21" cx="115.2" cy="119.3" r="4"/>
	<circle class="st22" cx="148.8" cy="149.3" r="4"/>
</g>
<g id="Lag_5">
	<g>
		<g>
			<path class="st23" d="M141.5,116c-5.5-2.2-15,1-14.8,8.2c0.2,5.2,11.8,8.8,15,4.2c3.8-5.5-11.2-5.5-9.2,3c1,4.2,12.8,8,15.8,4
				c3.5-5-4.8-2.8-6.8-1.8c-3.8,2.2-6.2,5.2-8,9.2"/>
			<path class="st24" d="M141.9,115c-5.6-1.9-12.5,0-15.4,5.4c-2.9,5.5,2,9.5,6.8,10.9c2.9,0.9,11,0.4,10.2-4.6
				c-0.6-3.7-5.6-3.3-8.2-2.3c-4.2,1.5-5.2,6.7-2.4,9.9c2.9,3.3,10.9,5.8,14.9,3.2c3.2-2.2,3.2-6.6-1.4-6.1
				c-6.7,0.8-11.1,5.4-13.9,11.3c-0.6,1.3,1.5,2.1,2.1,0.8c1.7-3.6,4-6.4,7.4-8.6c0.9-0.6,7.5-2.2,5,0.5c-4.1,4.3-19.1-3.9-11.5-8.6
				c1.4-0.9,3.4-1,5-0.5c2.5,0.8-2.1,3.1-2.9,3.3c-1.9,0.3-3.9-0.3-5.6-1c-4.9-1.9-5-6.7-1.2-9.9c2.7-2.3,7.1-2.6,10.3-1.5
				C142.5,117.5,143.3,115.4,141.9,115L141.9,115z"/>
		</g>
	</g>
	<g>
		<g>
			<path class="st23" d="M134.3,172.3c5.5,2.2,15-1,14.8-8.2c-0.2-5.2-11.8-8.8-15-4.2c-3.8,5.5,11.2,5.5,9.2-3
				c-1-4.2-12.8-8-15.8-4c-3.5,5,4.8,2.8,6.8,1.8c3.8-2.2,6.2-5.2,8-9.2"/>
			<path class="st24" d="M134,173.3c5.6,1.9,12.5,0,15.4-5.4c2.9-5.5-2-9.5-6.8-10.9c-3-0.9-11-0.4-10.2,4.6
				c0.6,3.7,5.6,3.3,8.2,2.3c4.2-1.5,5.2-6.7,2.4-9.9c-2.9-3.3-10.9-5.8-14.9-3.2c-3.2,2.2-3.2,6.6,1.4,6.1
				c6.7-0.8,11.1-5.4,13.9-11.3c0.6-1.3-1.5-2.1-2.1-0.8c-1.7,3.6-4,6.4-7.4,8.6c-0.9,0.6-7.5,2.2-5-0.5c4.1-4.3,19.1,3.9,11.5,8.6
				c-1.4,0.9-3.4,1-5,0.5c-2.5-0.8,2.1-3.1,2.9-3.3c1.9-0.3,3.9,0.3,5.6,1c4.9,1.9,5,6.7,1.2,9.9c-2.7,2.3-7.1,2.6-10.3,1.5
				C133.4,170.8,132.6,172.9,134,173.3L134,173.3z"/>
		</g>
	</g>
</g>
<g id="streger">
	<line class="st5" x1="91.8" y1="86.2" x2="67.5" y2="53.9"/>
	<line class="st5" x1="143.2" y1="124.3" x2="201.1" y2="52"/>
	<line class="st5" x1="157" y1="175" x2="197.8" y2="245.4"/>
	<line class="st5" x1="69" y1="211.6" x2="54.4" y2="239.5"/>
	<line class="st5" x1="193.6" y1="182.8" x2="218.6" y2="213.8"/>
	<line class="st5" x1="151" y1="149.1" x2="224.1" y2="128.3"/>
</g>
<g id="txt">
	<text transform="matrix(1 0 0 1 8.9736 46.6577)" class="st25 st26">Dobbelt fosfolipidlag</text>
	<text transform="matrix(1 0 0 1 7.5708 248.5264)"><tspan x="0" y="0" class="st25 st26">Overfladeproteiner</tspan><tspan x="16.8" y="10.8" class="st25 st26">(antigener)</tspan></text>
	<text transform="matrix(1 0 0 1 176.5151 255.5264)"><tspan x="0" y="0" class="st25 st26">Proteinlag</tspan><tspan x="4.4" y="10.8" class="st25 st26">(yderst)</tspan></text>
	<text transform="matrix(1 0 0 1 174.2461 34.6577)"><tspan x="0" y="0" class="st25 st26">Arvemateriale</tspan><tspan x="0" y="10.8" class="st25 st26">(DNA / RNA)</tspan></text>
	<text transform="matrix(1 0 0 1 208.5151 223.5259)"><tspan x="0" y="0" class="st25 st26">Proteinlag</tspan><tspan x="3" y="10.8" class="st25 st26">(inderst)</tspan></text>
	<text transform="matrix(1 0 0 1 227.061 129.5259)" class="st25 st26">Enzym</text>
</g>
</svg>
