<?xml version="1.0" encoding="utf-8"?>
<!-- Generator: Adobe Illustrator 19.1.0, SVG Export Plug-In . SVG Version: 6.00 Build 0)  -->
<svg version="1.1" xmlns="http://www.w3.org/2000/svg" xmlns:xlink="http://www.w3.org/1999/xlink" x="0px" y="0px"
	 viewBox="0 0 864.6 481" style="enable-background:new 0 0 864.6 481;" xml:space="preserve">
<style type="text/css">
	.st0{fill:url(#SVGID_1_);}
	.st1{fill:url(#SVGID_2_);stroke:#000000;stroke-width:0.7837;}
	.st2{fill:url(#SVGID_3_);stroke:#000000;stroke-width:0.7837;}
	.st3{fill:none;stroke:#5D9BAC;stroke-width:0.7837;}
	.st4{fill:none;stroke:#007E94;stroke-width:0.7837;}
	.st5{fill:#5B1219;}
	.st6{fill:none;stroke:#EC9E00;stroke-width:1.2539;}
	.st7{fill:none;stroke:#E2001A;stroke-width:3.1349;}
	.st8{fill:#5B1219;stroke:#E2001A;stroke-width:4;}
	.st9{fill:url(#SVGID_4_);stroke:#F3991B;stroke-width:2;}
	.st10{fill:none;stroke:#FFFFFF;}
	.st11{fill:#FFFFFF;}
	.st12{fill:#9C9E9F;stroke:#000000;}
	.st13{fill:none;stroke:#FFFFFF;stroke-width:2;}
	.st14{fill:#E2001A;}
	.st15{fill:#5EC5ED;}
	.st16{fill:#FBBE00;}
	.st17{fill:#89BA17;}
	.st18{fill:none;stroke:#FFED00;stroke-width:3;}
	.st19{fill:none;stroke:#89BA17;stroke-width:2;}
	.st20{fill:#EB6E29;}
	.st21{fill:#009EE0;}
	.st22{font-family:'Verdana';}
	.st23{font-size:9px;}
	.st24{font-size:7px;}
	.st25{font-family:'TimesNewRomanPSMT';}
	.st26{font-size:12px;}
	.st27{font-family:'Verdana-Bold';}
	.st28{fill:#646567;}
</style>
<g id="Lag_10">
	<linearGradient id="SVGID_1_" gradientUnits="userSpaceOnUse" x1="432.1889" y1="481.961" x2="432.1889" y2="6.081399e-06">
		<stop  offset="0" style="stop-color:#F8B55F"/>
		<stop  offset="1" style="stop-color:#EB6E29"/>
	</linearGradient>
	<rect y="0" class="st0" width="864.4" height="482"/>
</g>
<g id="Lag_1">
	<g>
		<linearGradient id="SVGID_2_" gradientUnits="userSpaceOnUse" x1="32.8643" y1="43.9304" x2="141.6857" y2="83.5382">
			<stop  offset="0" style="stop-color:#C37257"/>
			<stop  offset="0.1819" style="stop-color:#BE6D54"/>
			<stop  offset="0.3969" style="stop-color:#B35D4A"/>
			<stop  offset="0.6286" style="stop-color:#9F463C"/>
			<stop  offset="0.8705" style="stop-color:#85292B"/>
			<stop  offset="1" style="stop-color:#751822"/>
		</linearGradient>
		<path class="st1" d="M99.6,29.6c2.2-1.7,5.3-2.9,7.4-3.4c2.5-0.6,5-1.4,7.7-1.7c5.6-0.8,11.7,0,17.1,0.9c5.3,0.9,10.4,3,14.3,6.8
			c4,3.8,5.7,9.7,6.2,14.8c0.3,2.8-0.8,5.5-1,8.2c-0.3,2.9-1.1,5.6-2.3,8.2c-2.6,5.3-6.1,10.6-11.5,13.4c-2.5,1.3-5.2,2.4-7.8,3.5
			c-2.6,1.1-5.4,2.6-8.1,3c-3.5,0.6-7.2-0.1-10.6,0.5c-3,0.5-5.8,1.6-8.5,2.8c-11.9,4.9-24.4,5.9-36.4,9.9c-2.6,0.9-5.1,1.9-7.8,2.4
			c-3,0.6-6,0.7-9.1,1.1c-2.9,0.4-5.8-0.2-8.7-0.2c-2.7,0-5.7,0-8.2-0.8c-4.6-1.5-9.6-4.1-12.1-8.4c-3.3-5.8-0.1-12.7,4-17.1
			c1.1-1.2,2.3-2.3,3.5-3.4c1.2-1.1,2.2-2.4,3.5-3.3c1.5-1,2.9-1.8,4.2-3c5.5-4.6,12.6-5.6,18.8-9.1c3.3-1.8,6.9-2.7,10.4-3.9
			c1.8-0.6,3.2-1.9,4.9-2.8c1.5-0.8,3.4-2,5-2.4c0.5-0.1,0.9,0.1,1.4,0c0.5-0.1,1.1-0.4,1.6-0.7c0.8-0.5,1.5-1.1,2.3-1.4
			c1.6-0.6,3.3-0.8,4.8-1.6c1.6-0.9,3-1.4,4.6-2c1.8-0.6,2.6-2.3,3.7-3.7c0.9-1.2,2-2,3-3c1-0.9,1.8-2.4,3.1-2.7
			c-0.1,0.3,0.1,0.5,0.1,0.9"/>
		<linearGradient id="SVGID_3_" gradientUnits="userSpaceOnUse" x1="90.4042" y1="83.7205" x2="67.6446" y2="44.2997">
			<stop  offset="0" style="stop-color:#00737B"/>
			<stop  offset="0.1081" style="stop-color:#00868E"/>
			<stop  offset="0.2769" style="stop-color:#47A3AB"/>
			<stop  offset="0.4424" style="stop-color:#84BEC7"/>
			<stop  offset="0.6008" style="stop-color:#ACD4DD"/>
			<stop  offset="0.7503" style="stop-color:#C8E4ED"/>
			<stop  offset="0.8872" style="stop-color:#D8EEF7"/>
			<stop  offset="1" style="stop-color:#DEF1FB"/>
		</linearGradient>
		<path class="st2" d="M64.1,51.1c2.9-1.3,5.5-3.6,8.5-4.8c3.2-1.3,6.6-2.6,9.8-3.8c1.6-0.6,3.5-0.7,5.1-1.3c1.6-0.7,3.1-1.7,4.3-3
			c1.1-1.2,2-2.7,3-4.1c1.3-1.6,2.5-2.3,4.2-3.1c1.5-0.7,3-1.7,4.6-2c1.9-0.4,3.7-0.9,5.6-0.8c2,0.1,3.6,0.1,5.5,0.4
			c1.8,0.3,4,0.6,5.6,1.3c3.4,1.4,7.1,2.3,9.6,5.3c2.3,2.8,5.4,6.4,5.6,10.1c0.1,2,0.1,4.3-0.5,6.3c-0.5,1.8-1.3,4.3-2.1,6
			c-1.3,3.1-6,4.9-8.8,6.5c-3,1.8-6.8,2-10.1,3.5c-1.7,0.8-3.5,1.1-5.2,1.6c-1.6,0.6-3.1,1.5-4.8,1.9c-6.8,1.9-13.7,4.1-20.2,7.4
			c-1.7,0.9-3.4,1.7-5.1,2.5c-1.7,0.8-3.5,0.6-5.3,1c-3.7,0.9-7.4,2.2-11.1,3c-1.7,0.4-3.3,1.1-5,1.7c-1.8,0.6-3.6,0.8-5.5,1.1
			c-1.9,0.3-3.6,0.8-5.6,1c-1.8,0.2-3.9,0.2-5.7,0.2c-2,0-3.9-0.2-5.8-0.6c-1.9-0.4-3.8-0.2-5.7-0.4c-3.4-0.4-6.7-3-7.9-6
			c-1.2-3.1,1.4-7.5,3.3-10.1c1.8-2.5,4.7-4.2,7.3-5.6c1.5-0.8,2.4-2.1,3.7-3.3c1.2-1,2.8-2,4.2-2.6c3.2-1.3,6.6-2.3,9.8-3.7
			c2.4-1.1,4.9-2.2,7.3-3.4c1.2-0.6,2.5-1.1,3.7-1.5C61.7,51.6,63,51.7,64.1,51.1c-1,0.6-0.7,1.6-2.2,1.6"/>
		<line class="st3" x1="99.1" y1="51.5" x2="99.4" y2="56.1"/>
		<line class="st4" x1="100.9" y1="57.4" x2="100.7" y2="62.7"/>
		<line class="st3" x1="87.3" y1="55" x2="87.7" y2="59.6"/>
		<line class="st4" x1="90.3" y1="63" x2="90.1" y2="68.2"/>
		<line class="st4" x1="80.7" y1="67.2" x2="80.4" y2="72.4"/>
		<line class="st3" x1="77.1" y1="59.1" x2="77.5" y2="63.6"/>
		<line class="st3" x1="69.7" y1="64.2" x2="70" y2="68.8"/>
		<line class="st4" x1="72.2" y1="71.6" x2="72" y2="76.7"/>
		<line class="st3" x1="54.8" y1="64" x2="55.3" y2="70"/>
		<line class="st4" x1="61.4" y1="75.4" x2="61.3" y2="82.7"/>
		<line class="st3" x1="45.8" y1="72.2" x2="46.2" y2="76.7"/>
		<line class="st3" x1="36.2" y1="76.8" x2="36.6" y2="81.4"/>
		<line class="st4" x1="52.5" y1="82.1" x2="52.4" y2="86.7"/>
		<line class="st3" x1="37.9" y1="82.5" x2="38.3" y2="86.9"/>
		<line class="st3" x1="30" y1="81.7" x2="30.6" y2="88.2"/>
		<g>
			<g>
				<path class="st5" d="M135.5,47.8c-0.2,1-0.2,1.9-0.2,2.8C135.4,49.7,135.5,48.8,135.5,47.8z M132,58.1c-1.4,1.3-3.8,2.2-6.2,0.9
					c-1.3-0.7-3.3-1-4.5-1.7c-1.5-0.9-4.9-2.7-6.4-3.6c-1.7-1-14.3-4.7-16-2.5c-1,0.7,8.3,6.3,10.3,7.2c1.9,0.9,3.5,2,5.2,3.1
					c1.2,0.7,1.2,1.5,0.8,2.2c-0.7,1.1-2.3,0.8-3.6,0.5c-1.1-0.2-3-0.8-4.7-1.1c-3.6-0.7-4.3-0.2-7.5-2.1c-1.8-1-10-7.4-12.3-6.5
					c-0.5,1.4,7.8,6.7,10.1,8c1.6,0.9,2.9,2.2,4.4,3.1c1.3,0.8,3.8,1.6,4,3c0.3,1.7-2.4,1.6-3.9,2c-1.6,0.4-3.2,1-5,0.8
					c-1.5-0.2-2.8-1.2-3.7-2.1c-1.4-1.3-3.1-2.4-4.8-3.4c-1.6-1-6.1-4.3-7.8-5.3c-1.4-0.9-4.8-2.4-3.1-0.8c2.3,2.2,9.3,7.9,12,9.7
					c1.3,0.8,3.3,1.6,4.1,2.7c1.3,1.8-2.9,2.9-4.6,3.3c-1,0.3-1.7,0.2-2.7-0.1c-1.8-0.7-3.1-1.7-4.4-2.8c-1.2-1.1-2.1-2.3-3.6-3.2
					c-0.7-0.4-8.7-6.7-8.7-5.1c0,0.9,6.8,5.8,7.7,6.3c1.5,0.9,3.1,2.8,4.5,3.8c1.1,0.8,2.9,2.2,2.2,3.4c-0.6,1-3,1.6-4.1,1.9
					c-2.1,0.7-2.5,0.3-4-0.8C74.5,77.9,73.3,77,72,76c-3-2.3-6.6-4-9.9-6.1c-0.6-0.4-6.6-5.6-7.3-5.8c-1.3-0.3,2.2,3.3,2.7,3.9
					c0.8,1.2,4.6,3.9,6,4.8c1.7,1.1,3.5,2,5.3,3c1.5,0.8,3.5,1.6,4.6,2.8c2.7,3.1-4.1,3.6-6.5,4.4c-2.1,0.7-2.9,0.7-4.6-0.5
					c-1.5-1.1-2.8-2.4-4.2-3.5c-1.2-1-6.1-3.9-7.6-4.5c-1.1-0.5-6.5-3.4-4.4-1.6c2.6,2.2,11.8,7.3,14.2,9.7c2.5,2.5-2.7,4.2-5.4,4.4
					c-3.2,0.2-6.6-1.9-8.5-3.8c-1.2-1.2-2.5-2.2-4.1-3c-1.2-0.6-4.8-4.1-6.3-3.4c-0.2,0.8,3.6,3.2,4.3,3.6c2.6,1.6,3.9,4.5,7.1,5.6
					c0.5,0.2,1.9,0.3,2.2,0.5c0.9,0.7,0,1.3-0.7,1.6c-1.4,0.6-3.1,0.8-4.8,0.7c-3.5-0.1-5.7-2.7-8.5-4.3c-0.6-0.3-5.2-3.6-5.9-2.9
					c-0.8,0.7,4.3,3.6,4.9,4c0.4,0.3,0.6,0.5,0.9,0.7c1.9,1.3,4.3,2,2.1,2.3c-1.3,0-2.7-0.1-4-0.3c-1.3-0.3-2.6-0.1-3.9-0.4
					c-1.6-0.4-3.4-1.3-4.8-2.2c-1.4-0.9-2.1-1.9-2.8-3.1c-0.8-1.5-0.5-2.6,0.1-4.1c0.4-0.9,1.1-2.7,2.4-2.9c1.7-0.3,3.8,1.4,5.1,2.1
					c1.4,0.8,2.5,1.7,3.6,2.7c0.7,0.6,2.8,2.7,3.9,2.7c1.5,0-1-2.4-1.5-2.8c-1.3-1-2.6-2-3.9-2.9c-1.3-0.9-2.6-1.8-4.1-2.6
					c-1.7-0.9-2.9-1.6-1.3-3.1c0.9-0.9,2-2.2,3.3-2.6c2-0.6,3.4,0.6,4.8,1.4c1.8,1,3.4,2.1,5.1,3.3c1.5,1,2.4,1.5,3.6,2.6
					c1.1,1,5.1,4,6.3,4.8c0.9,0.6,3.3,2,3,0.9c-0.1-0.5-4.8-3.9-5.3-4.3c-1.2-1.2-2.5-2.3-3.8-3.4c-1.3-1.1-2.5-2.4-4-3.4
					c-1.4-0.9-2.7-2-4-3c-1.6-1.4-1-2.3,0.5-3.5c0.9-0.7,1.9-2.3,3.4-2.6c1.7-0.3,4,2.5,5,3.3c3.1,2.6,6.7,4.9,10.1,7.3
					c0.6,0.4,5.8,4.2,7,3.4c1.1-0.7-4.6-4.4-5.1-5.1c-1-1.3-2.7-2.3-4.3-3.1c-1.7-0.9-3.1-1.9-4.4-3.1c-1.1-0.9-2.3-1.9-3-3
					c-1-1.6,0.7-2.2,2.4-2.5c0.7-0.1,1.2-0.7,2-0.9c1-0.3,2-0.3,3,0c2,0.5,3.4,1.8,4.8,2.9c1.5,1.1,2.7,2.4,4.3,3.4
					c1.5,0.9,3.1,1.8,4.6,2.7c0.6,0.4,1.3,0.8,1.9,1.2c0.5,0.3,3.8,3.3,4.3,3.4c1.1,0.3-0.4-1.3-0.6-1.9c-0.2-0.6-2-2.4-2.6-2.9
					c-1.3-1.1-3-2-4.4-3c-1.8-1.3-3.4-2.8-5.1-4.1c-1.2-0.9-3.8-1.6-4.5-2.8c-0.7-1.3,1.7-2.3,2.8-3c1.8-1.2,3-0.7,4.8,0.4
					c1.8,1.1,3.6,2.2,5.1,3.5c2.8,2.5,6.4,6.5,9.9,8.4c1,0.6,4.9,2.1,3.1,0c-0.9-1.2-4-3.2-5.1-4.2c-1.9-1.8-3.4-3.6-5.7-5.2
					c-1.1-0.8-2.3-1.6-3.5-2.4c-0.8-0.5-3-1.4-2.7-2.3c1.9-0.2,2.9-1.3,4.3-2.2c1.7-1.2,2.6-2,4.5-0.6c1.6,1.2,2.9,2.6,4.4,3.9
					c1.6,1.3,3.4,2.4,5.1,3.6c1.3,0.9,2.4,1.9,3.3,3c0.7,1,3.7,3,5.3,3.2c1.2,0.2-3.2-3.6-4-4.5c-1.2-1.3-2.7-2.4-4.1-3.5
					c-1.6-1.3-3.1-2.7-4.7-4c-1-0.8-3.3-2.1-3.6-3.2c-0.1-0.3,0-0.4-0.3-0.6c0.1,0,0.1,0.1,0.2,0.1c0.7-0.9,1.7-1,2.9-1.3
					c1.2-0.2,2.3-0.7,3.1-1.4c0.6-0.5,2.3-1.6,3.3-1.3c0.9,0.2,1.9,1.7,2.5,2.2c2.4,2,4.8,4.3,7,6.4c0.6,0.6,7.9,6.8,8.7,5.1
					c0.4-0.9-4-3.2-4.7-3.8c-1.1-1-2.2-2.1-3.2-3.2c-2-2.1-4.8-3.7-6.6-5.9c-0.4-0.5-0.7-0.7-0.5-1.2c0.2-0.3,0.8-0.9,1.2-1
					c0.6-0.3,1.3-0.2,1.9-0.4c0.6-0.1,1.2-0.5,1.7-0.8c1.8-1.3,3-0.8,4.9-1.1c3.4-0.6,4.6-1.7,7.1-2.8c3.2-1.3,5.6-2.1,9-3.2
					c2.7-0.9,6.5-4,9.2-3.2c2.7,0.8,4.2,1.4,6,3c1.1,1,2.7,1.9,3.6,3c0.7,0.9,1.5,1.1,1.9,2.1c0.4,1,1.6,2.1,1.7,3.2
					c0.1,0.8,0.7,2.8,0.9,4.2c0-0.2,0-0.5,0-0.7c-0.5-8.4-9.3-14.9-20-16.6c-5.2-0.8-11.1-0.8-15.9,0.9c-4.7,1.7-6.8,5.2-9,8.5
					c-1.2,1.8-3.5,1.9-5.9,2.5c-3,0.8-4.7,0.8-6.8,2.8c-1.9,1.8-4.2,1.2-6.6,2.3c-2.3,1-3.8,2.6-5.8,3.8c-2.3,1.3-5.1,0.7-7.5,1.6
					c-2.5,0.9-3.9,2.8-6.1,3.9c-2.1,1.2-4.6,1.1-6.8,2.4c-2.3,1.3-4.6,2.1-7,3.1c-2.6,1.1-3.5,2.9-5.2,4.6c-1.4,1.4-3.8,2.2-5.3,3.7
					c-2.6,2.6-5.9,6.3-6.8,9.5c-0.6,2.2-1.1,3.9,0.7,5.8c0.8,0.9,1,2.3,4.6,3.4c1.7,0.9,4.3,1.6,6.4,1.9c1.8,0.3,5.4,0.5,7.5-0.1
					c4.3,1.2,9.4,0.5,12.5-1.2c3.8,0.9,7.9-1.4,11.3-2.6c2.3-0.8,5.2-1.1,7.7-1.8c2.7-0.8,5-1.7,7.7-2.3c3-0.7,5.5-1.5,7.8-3.3
					c1.8-1.3,5-1.5,7.4-2.7c2.5-1.2,4.4-2.7,7.4-3c2.7-0.3,5.5-0.9,7.8-2.2c1.4-0.8,2.3-1.5,4-1.7c1.4-0.2,2.5-0.4,3.8-0.8
					c2.4-0.8,4.2-2.2,6.6-2.8c5.3-1.4,8.2-3.5,9.5-7.4c0.5-1.6,1-3.1,1.3-4.7c-0.1,0.2-0.1,0.4-0.2,0.6
					C133.8,55.5,133.8,56.5,132,58.1z M135.3,50.6c-0.1,0.8-0.2,1.6-0.4,2.4C135.1,52.2,135.2,51.4,135.3,50.6z M135.5,46
					c0,0.6,0,1.2,0,1.8c0-0.1,0-0.3,0.1-0.4C135.6,47.1,135.6,46.6,135.5,46z"/>
			</g>
			<g>
				<path class="st6" d="M135.5,47.8c-0.2,1-0.2,1.9-0.2,2.8C135.4,49.7,135.5,48.8,135.5,47.8z M132,58.1c-1.4,1.3-3.8,2.2-6.2,0.9
					c-1.3-0.7-3.3-1-4.5-1.7c-1.5-0.9-4.9-2.7-6.4-3.6c-1.7-1-14.3-4.7-16-2.5c-1,0.7,8.3,6.3,10.3,7.2c1.9,0.9,3.5,2,5.2,3.1
					c1.2,0.7,1.2,1.5,0.8,2.2c-0.7,1.1-2.3,0.8-3.6,0.5c-1.1-0.2-3-0.8-4.7-1.1c-3.6-0.7-4.3-0.2-7.5-2.1c-1.8-1-10-7.4-12.3-6.5
					c-0.5,1.4,7.8,6.7,10.1,8c1.6,0.9,2.9,2.2,4.4,3.1c1.3,0.8,3.8,1.6,4,3c0.3,1.7-2.4,1.6-3.9,2c-1.6,0.4-3.2,1-5,0.8
					c-1.5-0.2-2.8-1.2-3.7-2.1c-1.4-1.3-3.1-2.4-4.8-3.4c-1.6-1-6.1-4.3-7.8-5.3c-1.4-0.9-4.8-2.4-3.1-0.8c2.3,2.2,9.3,7.9,12,9.7
					c1.3,0.8,3.3,1.6,4.1,2.7c1.3,1.8-2.9,2.9-4.6,3.3c-1,0.3-1.7,0.2-2.7-0.1c-1.8-0.7-3.1-1.7-4.4-2.8c-1.2-1.1-2.1-2.3-3.6-3.2
					c-0.7-0.4-8.7-6.7-8.7-5.1c0,0.9,6.8,5.8,7.7,6.3c1.5,0.9,3.1,2.8,4.5,3.8c1.1,0.8,2.9,2.2,2.2,3.4c-0.6,1-3,1.6-4.1,1.9
					c-2.1,0.7-2.5,0.3-4-0.8C74.5,77.9,73.3,77,72,76c-3-2.3-6.6-4-9.9-6.1c-0.6-0.4-6.6-5.6-7.3-5.8c-1.3-0.3,2.2,3.3,2.7,3.9
					c0.8,1.2,4.6,3.9,6,4.8c1.7,1.1,3.5,2,5.3,3c1.5,0.8,3.5,1.6,4.6,2.8c2.7,3.1-4.1,3.6-6.5,4.4c-2.1,0.7-2.9,0.7-4.6-0.5
					c-1.5-1.1-2.8-2.4-4.2-3.5c-1.2-1-6.1-3.9-7.6-4.5c-1.1-0.5-6.5-3.4-4.4-1.6c2.6,2.2,11.8,7.3,14.2,9.7c2.5,2.5-2.7,4.2-5.4,4.4
					c-3.2,0.2-6.6-1.9-8.5-3.8c-1.2-1.2-2.5-2.2-4.1-3c-1.2-0.6-4.8-4.1-6.3-3.4c-0.2,0.8,3.6,3.2,4.3,3.6c2.6,1.6,3.9,4.5,7.1,5.6
					c0.5,0.2,1.9,0.3,2.2,0.5c0.9,0.7,0,1.3-0.7,1.6c-1.4,0.6-3.1,0.8-4.8,0.7c-3.5-0.1-5.7-2.7-8.5-4.3c-0.6-0.3-5.2-3.6-5.9-2.9
					c-0.8,0.7,4.3,3.6,4.9,4c0.4,0.3,0.6,0.5,0.9,0.7c1.9,1.3,4.3,2,2.1,2.3c-1.3,0-2.7-0.1-4-0.3c-1.3-0.3-2.6-0.1-3.9-0.4
					c-1.6-0.4-3.4-1.3-4.8-2.2c-1.4-0.9-2.1-1.9-2.8-3.1c-0.8-1.5-0.5-2.6,0.1-4.1c0.4-0.9,1.1-2.7,2.4-2.9c1.7-0.3,3.8,1.4,5.1,2.1
					c1.4,0.8,2.5,1.7,3.6,2.7c0.7,0.6,2.8,2.7,3.9,2.7c1.5,0-1-2.4-1.5-2.8c-1.3-1-2.6-2-3.9-2.9c-1.3-0.9-2.6-1.8-4.1-2.6
					c-1.7-0.9-2.9-1.6-1.3-3.1c0.9-0.9,2-2.2,3.3-2.6c2-0.6,3.4,0.6,4.8,1.4c1.8,1,3.4,2.1,5.1,3.3c1.5,1,2.4,1.5,3.6,2.6
					c1.1,1,5.1,4,6.3,4.8c0.9,0.6,3.3,2,3,0.9c-0.1-0.5-4.8-3.9-5.3-4.3c-1.2-1.2-2.5-2.3-3.8-3.4c-1.3-1.1-2.5-2.4-4-3.4
					c-1.4-0.9-2.7-2-4-3c-1.6-1.4-1-2.3,0.5-3.5c0.9-0.7,1.9-2.3,3.4-2.6c1.7-0.3,4,2.5,5,3.3c3.1,2.6,6.7,4.9,10.1,7.3
					c0.6,0.4,5.8,4.2,7,3.4c1.1-0.7-4.6-4.4-5.1-5.1c-1-1.3-2.7-2.3-4.3-3.1c-1.7-0.9-3.1-1.9-4.4-3.1c-1.1-0.9-2.3-1.9-3-3
					c-1-1.6,0.7-2.2,2.4-2.5c0.7-0.1,1.2-0.7,2-0.9c1-0.3,2-0.3,3,0c2,0.5,3.4,1.8,4.8,2.9c1.5,1.1,2.7,2.4,4.3,3.4
					c1.5,0.9,3.1,1.8,4.6,2.7c0.6,0.4,1.3,0.8,1.9,1.2c0.5,0.3,3.8,3.3,4.3,3.4c1.1,0.3-0.4-1.3-0.6-1.9c-0.2-0.6-2-2.4-2.6-2.9
					c-1.3-1.1-3-2-4.4-3c-1.8-1.3-3.4-2.8-5.1-4.1c-1.2-0.9-3.8-1.6-4.5-2.8c-0.7-1.3,1.7-2.3,2.8-3c1.8-1.2,3-0.7,4.8,0.4
					c1.8,1.1,3.6,2.2,5.1,3.5c2.8,2.5,6.4,6.5,9.9,8.4c1,0.6,4.9,2.1,3.1,0c-0.9-1.2-4-3.2-5.1-4.2c-1.9-1.8-3.4-3.6-5.7-5.2
					c-1.1-0.8-2.3-1.6-3.5-2.4c-0.8-0.5-3-1.4-2.7-2.3c1.9-0.2,2.9-1.3,4.3-2.2c1.7-1.2,2.6-2,4.5-0.6c1.6,1.2,2.9,2.6,4.4,3.9
					c1.6,1.3,3.4,2.4,5.1,3.6c1.3,0.9,2.4,1.9,3.3,3c0.7,1,3.7,3,5.3,3.2c1.2,0.2-3.2-3.6-4-4.5c-1.2-1.3-2.7-2.4-4.1-3.5
					c-1.6-1.3-3.1-2.7-4.7-4c-1-0.8-3.3-2.1-3.6-3.2c-0.1-0.3,0-0.4-0.3-0.6c0.1,0,0.1,0.1,0.2,0.1c0.7-0.9,1.7-1,2.9-1.3
					c1.2-0.2,2.3-0.7,3.1-1.4c0.6-0.5,2.3-1.6,3.3-1.3c0.9,0.2,1.9,1.7,2.5,2.2c2.4,2,4.8,4.3,7,6.4c0.6,0.6,7.9,6.8,8.7,5.1
					c0.4-0.9-4-3.2-4.7-3.8c-1.1-1-2.2-2.1-3.2-3.2c-2-2.1-4.8-3.7-6.6-5.9c-0.4-0.5-0.7-0.7-0.5-1.2c0.2-0.3,0.8-0.9,1.2-1
					c0.6-0.3,1.3-0.2,1.9-0.4c0.6-0.1,1.2-0.5,1.7-0.8c1.8-1.3,3-0.8,4.9-1.1c3.4-0.6,4.6-1.7,7.1-2.8c3.2-1.3,5.6-2.1,9-3.2
					c2.7-0.9,6.5-4,9.2-3.2c2.7,0.8,4.2,1.4,6,3c1.1,1,2.7,1.9,3.6,3c0.7,0.9,1.5,1.1,1.9,2.1c0.4,1,1.6,2.1,1.7,3.2
					c0.1,0.8,0.7,2.8,0.9,4.2c0-0.2,0-0.5,0-0.7c-0.5-8.4-9.3-14.9-20-16.6c-5.2-0.8-11.1-0.8-15.9,0.9c-4.7,1.7-6.8,5.2-9,8.5
					c-1.2,1.8-3.5,1.9-5.9,2.5c-3,0.8-4.7,0.8-6.8,2.8c-1.9,1.8-4.2,1.2-6.6,2.3c-2.3,1-3.8,2.6-5.8,3.8c-2.3,1.3-5.1,0.7-7.5,1.6
					c-2.5,0.9-3.9,2.8-6.1,3.9c-2.1,1.2-4.6,1.1-6.8,2.4c-2.3,1.3-4.6,2.1-7,3.1c-2.6,1.1-3.5,2.9-5.2,4.6c-1.4,1.4-3.8,2.2-5.3,3.7
					c-2.6,2.6-5.9,6.3-6.8,9.5c-0.6,2.2-1.1,3.9,0.7,5.8c0.8,0.9,1,2.3,4.6,3.4c1.7,0.9,4.3,1.6,6.4,1.9c1.8,0.3,5.4,0.5,7.5-0.1
					c4.3,1.2,9.4,0.5,12.5-1.2c3.8,0.9,7.9-1.4,11.3-2.6c2.3-0.8,5.2-1.1,7.7-1.8c2.7-0.8,5-1.7,7.7-2.3c3-0.7,5.5-1.5,7.8-3.3
					c1.8-1.3,5-1.5,7.4-2.7c2.5-1.2,4.4-2.7,7.4-3c2.7-0.3,5.5-0.9,7.8-2.2c1.4-0.8,2.3-1.5,4-1.7c1.4-0.2,2.5-0.4,3.8-0.8
					c2.4-0.8,4.2-2.2,6.6-2.8c5.3-1.4,8.2-3.5,9.5-7.4c0.5-1.6,1-3.1,1.3-4.7c-0.1,0.2-0.1,0.4-0.2,0.6
					C133.8,55.5,133.8,56.5,132,58.1z M135.3,50.6c-0.1,0.8-0.2,1.6-0.4,2.4C135.1,52.2,135.2,51.4,135.3,50.6z M135.5,46
					c0,0.6,0,1.2,0,1.8c0-0.1,0-0.3,0.1-0.4C135.6,47.1,135.6,46.6,135.5,46z"/>
			</g>
		</g>
		<path class="st7" d="M23.2,86.3c0,0-1.5-1.8-2-2.4c-0.5-0.7-1.4-2.7-0.8-4.4c0.6-1.7,1.8-4.1,2.9-5.7c1.1-1.6,4-4.9,5-5.5
			c0.9-0.7,3.3-1.8,4.4-2.9c1.1-1.1,2.6-3.7,4.9-4.5c2.3-0.8,4.2-1.3,5.7-2.3c1.5-0.9,3.4-1.8,6.1-2.5c2.7-0.8,5.1-2.7,6.2-3.5
			c1.1-0.8,1.8-1.6,4-1.8c2.3-0.2,5-0.3,7-2c2.1-1.7,3.5-2.6,6.5-3.4c3-0.8,4.2-1.1,5.3-2.1c1-0.9,3.2-1.7,4.4-2.1
			c1.2-0.4,5.5-1.3,6.4-1.6c0.8-0.3,1.3-2.4,3-3.9c2.7-2.5,5-5,7.8-5.9c2.8-0.9,6.5-2.3,12.9-1.2c6.4,1,12,2.4,15.3,5.2
			c3.3,2.7,6.4,6.2,6.9,10.5c0.5,4.3-0.1,7.1-0.7,9.9c-0.6,2.7-0.6,2.7-0.6,2.7s-1.8,4.9-5.1,6.3c-3.3,1.4-5.6,1.8-7.5,2.8
			c-1.9,1-5.2,2.4-7.7,2.7c-2.5,0.4-4.2,2.1-4.9,2.3c-0.7,0.3-4.9,1.2-7,1.6c-2.2,0.4-5.2,1.8-6.4,2.3c-1.2,0.6-3.1,1.6-4.8,2
			c-1.7,0.4-4,1.9-5.5,2.6c-1.4,0.8-7.8,2.5-10.2,3.2c-2.3,0.7-7,1.6-9.7,2.5c-2.6,0.9-5.9,2.2-7.8,2.7c-1.9,0.6-4.3,0.3-4.8,0.2
			c-1,0.6-7.5,2.9-12.7,1.2c-4.9,0.6-8,0-10.7-0.8C26.5,87.9,24.9,87.3,23.2,86.3z"/>
	</g>
</g>
<g id="Lag_3">
	<g>
		<path class="st8" d="M785.7,275.1c0,97-86.4,169.5-193.1,169.5H270.4c-106.6,0-193.1-72.5-193.1-169.5l0,0
			c0-97,86.4-169.5,193.1-169.5h322.2C699.2,105.6,785.7,178.1,785.7,275.1L785.7,275.1z"/>
		<linearGradient id="SVGID_4_" gradientUnits="userSpaceOnUse" x1="401.4998" y1="428.6006" x2="401.4998" y2="121.3239">
			<stop  offset="0" style="stop-color:#00474C"/>
			<stop  offset="0.3541" style="stop-color:#007688"/>
			<stop  offset="0.6557" style="stop-color:#009CBB"/>
			<stop  offset="0.8792" style="stop-color:#2DB5DD"/>
			<stop  offset="1" style="stop-color:#3FBFEB"/>
		</linearGradient>
		<path class="st9" d="M628.5,406.2c-15.9,8.6-32.8,17.2-57.5,14.7c-18.6-1.8-19.7-81.8-32.9-79.5c-12.6,2.2-19.8,82.9-35.6,84.6
			c-15.9,1.7-26.8,2.5-40.1,2.5c-13.4,0-25.7-65.4-33.5-65.4c-7.8,0-25.9,64.6-41.8,63.7c-15.9-0.8-19.2-0.8-30.1-0.8
			c-10.9,0-23.5-144.3-31.8-144.3c-8.4,0-33.4,144.3-49.3,144.3c-15.9,0-15.6-164.4-35.7-167.8c-11-1.9-40.4,160.2-54.6,155.1
			c-14.2-5.1-67.7-53.4-76.9-68.7c-9.2-15.3,86.4-68.4,86.4-81.1c0-12.7-104.8,2.2-100.6-19c4.2-21.2,32.6-60.2,43.5-72.9
			c10.9-12.7,56.3,70.6,68,63c11.7-7.6-6.1-104.5,9.8-107.9c15.9-3.4,43.5-3.4,58.5-3.4c15.1,0-3,189.7,11.2,189.7
			c14.2,0,18.2-192.8,49.1-189.4c18.3,2,1.7,181,14.1,181c14.8,0,24.1-155.9,41.2-173.4c15.9-16.2,73.7-10.9,81.1,8.4
			c4.7,12.2,6.5,63.1,14.8,63.1c8.4,0,10-73.1,26.5-79.1c12.5-4.6,22.6-1.5,28.1,3c10.9,9.1,14.3,157,21,163
			c6.7,5.9,22.4-145.9,30.4-158.4c5.1-8,26.4-3.9,35.2-0.8c23.8,8.4,58.8,59.7,58.8,59.7c12.3,14.6,52.1,104.7-13.6,185.2
			C672.1,375.3,648,395.6,628.5,406.2z"/>
	</g>
</g>
<g id="pile">
	<g>
		<path class="st10" d="M405.1,219.7c-11.3,7.6-18.7,20.5-18.7,35.1c0,23.4,18.9,42.3,42.3,42.3c23.4,0,42.3-18.9,42.3-42.3
			c0-23.4-18.9-42.3-42.3-42.3v-18.7"/>
		<polygon class="st11" points="396.2,219 410.3,216.6 405.3,230 		"/>
	</g>
	<g>
		<path class="st10" d="M180.5,73.2c-5.5,3.7-9.2,10.1-9.2,17.3c0,11.5,9.3,20.8,20.8,20.8c11.5,0,20.8-9.3,20.8-20.8
			c0-11.5-9.3-20.8-20.8-20.8v-9.2"/>
		<polygon class="st11" points="173.9,72.9 183.6,71.2 180.2,80.5 		"/>
	</g>
	<g>
		<polygon class="st11" points="423.1,74.5 432.9,74.6 427.9,83.1 		"/>
		<line class="st10" x1="428" y1="76.3" x2="428" y2="60.6"/>
	</g>
	<g>
		<polygon class="st11" points="423.1,32.2 432.9,32.3 427.9,40.7 		"/>
		<line class="st10" x1="428" y1="21.2" x2="428" y2="32.9"/>
	</g>
	<g>
		<polygon class="st11" points="618.4,32.2 628.2,32.3 623.2,40.7 		"/>
		<line class="st10" x1="623.3" y1="21.2" x2="623.3" y2="32.9"/>
	</g>
	<g>
		<polygon class="st11" points="239.8,32.2 249.6,32.3 244.6,40.7 		"/>
		<line class="st10" x1="244.7" y1="21.2" x2="244.7" y2="32.9"/>
	</g>
	<g>
		<polygon class="st11" points="423.1,157.2 432.9,157.3 427.9,165.7 		"/>
		<line class="st10" x1="428" y1="103.2" x2="428" y2="158.9"/>
	</g>
	<g>
		<polygon class="st11" points="630.1,420.8 638.3,415.4 638.9,425.2 		"/>
	</g>
	<g>
		<polygon class="st11" points="653.9,365.1 660.1,357.5 663.6,366.7 		"/>
	</g>
	<g>
		<polygon class="st11" points="709.7,337.9 713.9,329 719.5,337 		"/>
	</g>
	<g>
		<polygon class="st11" points="721.6,281.6 722,271.8 730.3,277 		"/>
	</g>
	<g>
		<polygon class="st11" points="674.8,251.2 665,252.6 668.8,243.5 		"/>
		<line class="st10" x1="671.4" y1="261.8" x2="669.7" y2="250.2"/>
	</g>
	<g>
		<polygon class="st11" points="402.1,67.4 402,77.2 393.5,72.3 		"/>
		<line class="st10" x1="428.1" y1="72.5" x2="400.3" y2="72.3"/>
	</g>
	<polygon class="st11" points="476.5,303.7 481.6,295.3 486.3,303.9 	"/>
	<polygon class="st11" points="382.7,304.2 386.1,295 392.4,302.6 	"/>
	<line class="st10" x1="459" y1="285" x2="480.5" y2="300.4"/>
	<polygon class="st11" points="456.5,88.2 463,80.8 466.1,90.2 	"/>
	<polygon class="st11" points="407.3,241 410.8,231.8 417,239.4 	"/>
	<polygon class="st11" points="499.2,253.4 499.4,243.6 507.8,248.7 	"/>
	<polygon class="st11" points="384.3,179 386,169.4 393.5,175.7 	"/>
	<polygon class="st11" points="650.8,276.7 651.7,267 659.7,272.7 	"/>
	<g>
		<polygon class="st11" points="641.5,145.1 638.7,154.5 632,147.3 		"/>
		<line class="st10" x1="649.7" y1="152.6" x2="638.5" y2="149.3"/>
	</g>
	<g>
		<polygon class="st11" points="643.1,165.1 651,170.9 642,174.8 		"/>
		<line class="st10" x1="652.9" y1="159.9" x2="646.1" y2="169.4"/>
	</g>
	<line class="st10" x1="401.6" y1="286.6" x2="387" y2="300.5"/>
	<g>
		<line class="st10" x1="240.2" y1="51.2" x2="248.5" y2="51.2"/>
		<line class="st10" x1="244.3" y1="55.3" x2="244.3" y2="47"/>
	</g>
	<path class="st10" d="M538.6,326.2c0,0,69.6,42.7,96.2,92.9"/>
	<path class="st10" d="M580.5,356.9c0,0,62.9-8.5,80.6,7"/>
	<line class="st10" x1="680.9" y1="323.1" x2="712.4" y2="333.4"/>
	<line class="st10" x1="691.8" y1="274.5" x2="722.4" y2="277.3"/>
	<circle class="st12" cx="708.8" cy="276.7" r="7"/>
	<circle class="st12" cx="656.3" cy="154.7" r="7"/>
	<circle class="st12" cx="698" cy="329" r="7"/>
	<circle class="st12" cx="674" cy="372.5" r="7"/>
	<circle class="st12" cx="627" cy="406" r="7"/>
	<path class="st10" d="M629.8,191.5c0,0-43.6,62.5,27,81"/>
	<path class="st10" d="M663.4,157.2c0,0,68.1,35.8,76.6,110.3"/>
	<path class="st10" d="M740,285.5c0,0-1.5,22.5-9.5,43.5"/>
	<path class="st10" d="M724,345.5c0,0-17.5,53.5-68.5,77.5"/>
	<path class="st10" d="M208,104.5c0,0,137,66.8,180.3,69.5"/>
	<line class="st10" x1="591.7" y1="50.3" x2="457.7" y2="87.7"/>
	<line class="st10" x1="607" y1="61.7" x2="408.3" y2="240"/>
	<line class="st10" x1="623" y1="61.7" x2="500.3" y2="250.7"/>
	<polyline class="st10" points="279.7,60 279.7,63.7 427.7,63.7 	"/>
	<g>
		<polygon class="st11" points="662,382.4 670.5,381.5 667.1,389.4 		"/>
		<path class="st13" d="M636.9,405c0,0,23-15.1,28.3-19.7"/>
	</g>
	<g>
		<polygon class="st11" points="690,346 697.5,341.7 697.5,350.3 		"/>
		<path class="st13" d="M682,367c0,0,9.1-13.2,12.2-19.7"/>
	</g>
	<g>
		<polygon class="st11" points="705.9,298.6 711.6,292.2 714.3,300.4 		"/>
		<path class="st13" d="M704.3,322.3c2.5-8.9,4.7-14.7,5.9-23.7"/>
	</g>
	<g>
		<polygon class="st11" points="311.1,89.4 311,99.2 302.5,94.3 		"/>
		<line class="st10" x1="399" y1="94.5" x2="310.6" y2="94.5"/>
	</g>
	<g>
		<polygon class="st11" points="700,289.1 693.6,283.3 701.8,280.7 		"/>
		<path class="st13" d="M712.2,286.7c0,0-5.2-1-12.2-1.9"/>
	</g>
	<line class="st10" x1="83" y1="143.3" x2="106.5" y2="174.2"/>
	<line class="st10" x1="68.3" y1="99.9" x2="77.1" y2="126.8"/>
</g>
<g id="farvede_kasser">
	<rect x="388.6" y="3.1" class="st14" width="81" height="18.4"/>
	<rect x="582" y="3.1" class="st15" width="81" height="18.4"/>
	<rect x="203.6" y="3.1" class="st16" width="81" height="18.4"/>
	<rect x="180.6" y="41.9" class="st16" width="56.8" height="18.4"/>
	<rect x="251" y="41.9" class="st16" width="56.8" height="18.4"/>
	<rect x="399" y="41.9" class="st14" width="56.8" height="18.4"/>
	<rect x="398" y="167.8" class="st17" width="61.8" height="18.4"/>
	<rect x="343.3" y="237.4" class="st17" width="61.8" height="18.4"/>
	<rect x="452" y="256.4" class="st17" width="70.5" height="18.4"/>
	<rect x="367" y="66.8" class="st18" width="21.8" height="15"/>
	<rect x="359" y="307.1" class="st18" width="21.8" height="15"/>
	<rect x="607.6" y="140.8" class="st18" width="21.8" height="15"/>
	<rect x="654.3" y="223.1" class="st19" width="22.7" height="17"/>
	<rect x="661.6" y="265.1" class="st19" width="21.8" height="17"/>
	<rect x="592.8" y="41.9" class="st15" width="60.1" height="18.4"/>
	<rect x="36" y="392" class="st20" width="76" height="29"/>
	<rect x="402.5" y="86" class="st17" width="51.9" height="15.5"/>
	<rect x="132.8" y="333.9" class="st21" width="60.1" height="18.4"/>
	<rect x="241.7" y="86" class="st17" width="57.7" height="15.5"/>
	<rect x="486.6" y="306.1" class="st19" width="52" height="17"/>
</g>
<g id="txt">
	<text transform="matrix(1 0 0 1 667.2842 275.8706)"><tspan x="0" y="0" class="st11 st22 st23">O</tspan><tspan x="7.1" y="3" class="st11 st22 st24">2</tspan></text>
	<text transform="matrix(1 0 0 1 403.7285 180.3818)" class="st11 st22 st23 yText">Acetyl-CoA</text>
	<text transform="matrix(1 0 0 1 413.0508 253.1289)" class="yText"><tspan x="0" y="0" class="st11 st22 st23">Krebs’</tspan><tspan x="0" y="10.8" class="st11 st22 st23">cyklus</tspan></text>
	<text transform="matrix(1 0 0 1 609.9209 151.6543)" class="st11 st22 st23">ATP</text>
	<text transform="matrix(1 0 0 1 360.9399 317.5615)" class="st11 st22 st23">ATP</text>
	<text transform="matrix(1 0 0 1 369.6064 77.5605)" class="st11 st22 st23">ATP</text>
	<text transform="matrix(1 0 0 1 656.1777 234.0454)"><tspan x="0" y="0" class="st11 st22 st23">H</tspan><tspan x="6.8" y="3" class="st11 st22 st24">2</tspan><tspan x="11.2" y="0" class="st11 st22 st23">O</tspan></text>
	<text transform="matrix(1 0 0 1 691.4141 362.9932)"><tspan x="0" y="0" class="st11 st22 st23">e</tspan><tspan x="5.4" y="-3" class="st11 st22 st23">-</tspan></text>
	<text transform="matrix(1 0 0 1 710.5801 315.6162)"><tspan x="0" y="0" class="st11 st22 st23">e</tspan><tspan x="5.4" y="-3" class="st11 st22 st23">-</tspan></text>
	<text transform="matrix(1 0 0 1 651.8643 403.0791)"><tspan x="0" y="0" class="st11 st22 st23">e</tspan><tspan x="5.4" y="-3" class="st11 st22 st23">-</tspan></text>
	<text transform="matrix(1 0 0 1 728.1807 369.3457)" class="st11 st22 st23 yText">Elektrontransportkæden</text>
	<text transform="matrix(1 0 0 1 49.166 409.166)" class="st11 st22 st23 yText">Cytoplasma</text>
	<text transform="matrix(1 0 0 1 146.166 346.166)" class="st11 st22 st23 yText">Matrix</text>
	<text transform="matrix(1 0 0 1 121.666 109.666)" class="st11 st22 st23 yText">ß-oxidation</text>
	<text transform="matrix(1 0 0 1 640.9697 433.2051)"><tspan x="0" y="0" class="st11 st22 st23">H</tspan><tspan x="6.8" y="-4" class="st11 st22 st24">+</tspan></text>
	<text transform="matrix(1 0 0 1 723.4697 341.7051)"><tspan x="0" y="0" class="st11 st22 st23">H</tspan><tspan x="6.8" y="-4" class="st11 st22 st24">+</tspan></text>
	<text transform="matrix(1 0 0 1 736.4697 281.7051)"><tspan x="0" y="0" class="st11 st22 st23">H</tspan><tspan x="6.8" y="-4" class="st11 st22 st24">+</tspan></text>
	<text transform="matrix(1 0 0 1 630.4697 187.7051)"><tspan x="0" y="0" class="st11 st22 st23">H</tspan><tspan x="6.8" y="-4" class="st11 st22 st24">+</tspan></text>
	<text transform="matrix(1 0 0 1 188.4995 53.334)" class="st11 st22 st23 yText">Fedtsyrer</text>
	<text transform="matrix(1 0 0 1 260.9995 53.334)" class="st11 st22 st23 yText">Glycerol</text>
	<text transform="matrix(1 0 0 1 410.1475 53.334)" class="st11 st22 st23 yText">Glukose</text>
	<text transform="matrix(1 0 0 1 410.1475 96.334)" class="st11 st22 st23 yText">Pyruvat</text>
	<text transform="matrix(1 0 0 1 596.9995 53.334)" class="st11 st22 st23 yText">Aminosyrer</text>
	<text transform="matrix(1 0 0 1 491.5371 316.9248)" class="st11 st22 st23 yText">H-atomer</text>
	<text transform="matrix(1 0 0 1 454.333 268.668)" class="yText"><tspan x="0" y="0" class="st11 st25 st26">α</tspan><tspan x="6.3" y="0" class="st11 st22 st23">-ketoglutarat</tspan></text>
	<text transform="matrix(1 0 0 1 347.999 249.668)" class="st11 st22 st23 yText">Oxaloacetat</text>
	<text transform="matrix(1 0 0 1 231.9995 15.667)" class="st11 st27 st23 yText">FEDT</text>
	<text transform="matrix(1 0 0 1 390.8511 15.667)" class="st11 st27 st23 yText">KULHYDRATER</text>
	<text transform="matrix(1 0 0 1 593.6665 15.667)" class="st11 st27 st23 yText">PROTEINER</text>
	<text transform="matrix(1 0 0 1 508.999 89.3335)" class="st28 st22 st23">Asparaginsyre</text>
	<text transform="matrix(1 0 0 1 520.666 59.6665)" class="st28 st22 st23">Alanin</text>
	<text transform="matrix(1 0 0 1 253 31.9995)" class="st11 st22 st23">Hydrolyse</text>
	<text transform="matrix(1 0 0 1 435.667 31.9995)" class="st11 st22 st23">Hydrolyse</text>
	<text transform="matrix(1 0 0 1 435.667 70.6665)" class="st11 st22 st23 yText">Glykolyse</text>
	<text transform="matrix(1 0 0 1 312.0005 116.9995)" class="st11 st22 st23">Oxidativ decarboxylering</text>
	<text transform="matrix(1 0 0 1 630.417 31.9995)" class="st11 st22 st23">Hydrolyse</text>
	<text transform="matrix(1 0 0 1 606.666 97.6665)" class="st28 st22 st23">Glutamat</text>
	<text transform="matrix(1 0 0 1 247.1475 96.334)" class="st11 st22 st23 yText">Mælkesyre</text>
	<text transform="matrix(1 0 0 1 315.667 89.6665)" class="st11 st22 st23 yText">Gæring</text>
	<text transform="matrix(1 0 0 1 686.5801 285.6162)"><tspan x="0" y="0" class="st11 st22 st23">e</tspan><tspan x="5.4" y="-3" class="st11 st22 st23">-</tspan></text>
	<text transform="matrix(1 0 0 1 651.1807 143.3457)" class="st11 st22 st23 yText">ATP-syntase</text>
	<text transform="matrix(1 0 0 1 41.001 138.9995)" class="st11 st27 st23 yText">MITOKONDRIE</text>
</g>
</svg>
