<?xml version="1.0" encoding="utf-8"?>
<!-- Generator: Adobe Illustrator 19.1.0, SVG Export Plug-In . SVG Version: 6.00 Build 0)  -->
<svg version="1.1" xmlns="http://www.w3.org/2000/svg" xmlns:xlink="http://www.w3.org/1999/xlink" x="0px" y="0px"
	 viewBox="0 0 566.9 481" style="enable-background:new 0 0 566.9 481;" xml:space="preserve">
<style type="text/css">
	.st0{fill:url(#SVGID_1_);}
	.st1{fill:none;stroke:#000000;}
	.st2{fill:#A8CB6D;stroke:#FFFFFF;}
	.st3{fill:#F8B777;stroke:#FFFFFF;}
	.st4{fill:#00B6E8;stroke:#FFFFFF;}
	.st5{fill:#555DA2;}
	.st6{fill:#FFED00;}
	.st7{fill:#EB6B4A;stroke:#000000;}
	.st8{font-family:'Verdana';}
	.st9{font-size:9px;}
	.st10{fill:#FFFFFF;}
	.st11{font-size:7px;}
	.st12{fill:none;stroke:#FFFFFF;}
	.st13{font-family:'Myriad-Roman';}
	.st14{font-family:'TimesNewRomanPSMT';}
	.st15{font-size:12px;}
</style>
<g id="Lag_4">
	<radialGradient id="SVGID_1_" cx="283.4644" cy="240.5198" r="262.8703" gradientUnits="userSpaceOnUse">
		<stop  offset="0" style="stop-color:#A6D7D4"/>
		<stop  offset="0.1127" style="stop-color:#99D1D4"/>
		<stop  offset="0.3123" style="stop-color:#74C1D5"/>
		<stop  offset="0.5734" style="stop-color:#00A9D6"/>
		<stop  offset="0.7697" style="stop-color:#0097D6"/>
		<stop  offset="1" style="stop-color:#0065AC"/>
	</radialGradient>
	<rect y="0" class="st0" width="566.9" height="481"/>
</g>
<g id="Lag_2">
	<path class="st1" d="M251.2,53.5c11.9-2.2,24.1-3.4,36.6-3.4c21.7,0,42.6,3.5,62.1,10.1"/>
	<path class="st1" d="M133.5,125.5c21-26.9,36.9-42.3,69.1-55.2"/>
	<path class="st1" d="M92.6,255c-0.1-3.1-0.2-6.3-0.2-9.4c0-33.7,8.5-65.5,23.6-93.2"/>
	<path class="st1" d="M142.6,376.4c-22.9-25.4-39.2-56.7-46.3-91.5"/>
	<path class="st1" d="M241,435.8c-30.1-6.4-51.7-18.8-74.9-37.3"/>
	<path class="st1" d="M393.3,410.2C364.2,428.8,329.9,440,293,441c-1.7,0-3.5,0.1-5.2,0.1"/>
	<path class="st1" d="M476,298.6c-10.4,36.9-31.3,69.4-59.3,93.9"/>
	<path class="st1" d="M467.6,172.8c10.1,23.6,15.7,45.5,15.7,72.8c0,10-0.8,19.9-2.2,29.5"/>
	<path class="st1" d="M385.8,76.4c28.2,16.4,52,39.6,69,67.5"/>
	<rect x="123.4" y="284" class="st2" width="34.3" height="14.7"/>
	<rect x="382.9" y="345.3" class="st2" width="29.6" height="14.7"/>
	<rect x="445.6" y="376.9" class="st3" width="29.6" height="14.7"/>
	<rect x="370.2" y="434.3" class="st3" width="29.6" height="14.7"/>
	<rect x="275.7" y="401" class="st2" width="29.6" height="14.7"/>
	<rect x="214.4" y="87" class="st2" width="29.6" height="14.7"/>
	<rect x="179.4" y="7" class="st4" width="56.1" height="26"/>
	<rect x="191.6" y="53.6" class="st5" width="58.9" height="13.2"/>
	<rect x="357.1" y="60.7" class="st5" width="34.2" height="13.2"/>
	<rect x="429.1" y="152.6" class="st5" width="62.1" height="13.2"/>
	<rect x="452.6" y="282.2" class="st5" width="48.7" height="13.2"/>
	<rect x="108.5" y="130.1" class="st5" width="32" height="13.2"/>
	<rect x="71.3" y="263.7" class="st5" width="45.2" height="13.2"/>
	<rect x="129.9" y="380.1" class="st5" width="45.2" height="13.2"/>
	<rect x="244.3" y="429.4" class="st5" width="43.7" height="22.6"/>
	<rect x="381.2" y="396.9" class="st5" width="70.1" height="13.2"/>
	<rect x="225.5" y="346.1" class="st6" width="23.6" height="14"/>
</g>
<g id="små_pile">
	<g>
		<path class="st1" d="M166.8,128c0,0-5.1-31,3.4-38c8.4-7.1,38,3.4,38,3.4"/>
		<polygon points="205.6,95.9 208.1,89.3 212.5,94.8 		"/>
	</g>
	<g>
		<path class="st1" d="M153.5,350.4c0,0-31.4-1.3-36.6-11c-5.2-9.7,11-36.6,11-36.6"/>
		<polygon points="129.9,305.9 124,302.1 130.2,298.9 		"/>
	</g>
	<g>
		<path class="st1" d="M265.6,22.4c0,0,15.2,27.5,26.1,27.8c11,0.3,27.8-26.1,27.8-26.1"/>
		<polygon points="315.9,23.6 321.9,27.2 322,20.2 		"/>
	</g>
	<g>
		<path class="st1" d="M244.3,414.6c0,0-27.6,14.9-37.1,9.2c-9.4-5.7-9.2-37-9.2-37"/>
		<polygon points="201.3,388.4 194.3,388.2 198,382.2 		"/>
	</g>
	<g>
		<path class="st1" d="M348.1,400.3c0,0-4.8,31-15,35.1c-10.2,4.1-35.1-15-35.1-15"/>
		<polygon points="301.3,418.8 296.8,424.3 294.3,417.7 		"/>
	</g>
	<g>
		<polygon points="454.7,365.8 452.6,372.5 447.9,367.4 		"/>
	</g>
	<g>
		<path class="st1" d="M448.1,307.1c0,0,13.9,28.1,7.9,37.4c-6,9.2-37.4,7.9-37.4,7.9"/>
		<polygon points="420.4,349.1 419.9,356.1 414.1,352.2 		"/>
	</g>
	<path class="st1" d="M351,430.5c0,0,19.5-18,20.5-45.5"/>
	<line class="st1" x1="205" y1="369.5" x2="217.5" y2="358.5"/>
	<path class="st1" d="M105.5,175c0,0-1,9-26,20.5"/>
	<path class="st1" d="M452.2,351.4c0,0-1.9,13.2-0.7,18"/>
</g>
<g id="pile">
	<polygon points="344.9,63 347.8,54.8 353.5,61.4 	"/>
	<polygon points="449.6,143.3 457,138.7 457.3,147.4 	"/>
	<polygon points="477.4,270.3 486,271.6 480.5,278.4 	"/>
	<polygon points="416.6,386.7 422.6,393.1 414.1,395.1 	"/>
	<polygon points="295.7,436.8 295.6,445.6 288.1,441.1 	"/>
	<polygon points="171,396.5 165.8,403.5 162.4,395.5 	"/>
	<polygon points="101.2,286.9 92.7,288.8 95.3,280.5 	"/>
	<polygon points="117.9,157 110.4,152.4 118.1,148.3 	"/>
	<polygon points="203.1,75 200.4,66.7 209,68.6 	"/>
	<polygon points="214.3,355.5 223,354.9 219.2,362.8 	"/>
</g>
<g id="numre">
	<g>
		<circle class="st7" cx="291.9" cy="36.2" r="8.7"/>
		<text transform="matrix(1 0 0 1 289.0312 39.1865)" class="st8 st9">1</text>
	</g>
	<g>
		<circle class="st7" cx="433.2" cy="88.1" r="8.7"/>
		<text transform="matrix(1 0 0 1 431.0312 91.4101)" class="st8 st9">2</text>
	</g>
	<g>
		<circle class="st7" cx="496.6" cy="210.7" r="8.7"/>
		<text transform="matrix(1 0 0 1 494.0312 213.6338)" class="st8 st9">3</text>
	</g>
	<g>
		<circle class="st7" cx="470.6" cy="352.6" r="8.7"/>
		<text transform="matrix(1 0 0 1 467.6982 355.5244)" class="st8 st9">4</text>
	</g>
	<g>
		<circle class="st7" cx="343.9" cy="447.2" r="8.7"/>
		<text transform="matrix(1 0 0 1 341.3643 450.4146)" class="st8 st9">5</text>
	</g>
	<g>
		<circle class="st7" cx="200.6" cy="437.1" r="8.7"/>
		<text transform="matrix(1 0 0 1 197.6982 440.3047)" class="st8 st9">6</text>
	</g>
	<g>
		<circle class="st7" cx="102.6" cy="345" r="8.7"/>
		<text transform="matrix(1 0 0 1 100.3633 347.8608)" class="st8 st9">7</text>
	</g>
	<g>
		<circle class="st7" cx="89.3" cy="171.3" r="8.7"/>
		<text transform="matrix(1 0 0 1 86.8105 174.8662)" class="st8 st9">8</text>
	</g>
	<g>
		<circle class="st7" cx="160.6" cy="77.5" r="8.7"/>
		<text transform="matrix(1 0 0 1 157.6973 80.6425)" class="st8 st9">9</text>
	</g>
</g>
<g id="txt">
	<text transform="matrix(1 0 0 1 221.7227 452.022)"><tspan x="0" y="0" class="st10 st8 st9">H</tspan><tspan x="6.8" y="3" class="st10 st8 st11">2</tspan><tspan x="11.2" y="0" class="st10 st8 st9">O</tspan></text>
	<text transform="matrix(1 0 0 1 58.3335 199.6851)"><tspan x="0" y="0" class="st10 st8 st9">H</tspan><tspan x="6.8" y="3" class="st10 st8 st11">2</tspan><tspan x="11.2" y="0" class="st10 st8 st9">O</tspan></text>
	<text transform="matrix(1 0 0 1 245.9951 17.4243)"><tspan x="0" y="0" class="st10 st8 st9">H</tspan><tspan x="6.8" y="3" class="st10 st8 st11">2</tspan><tspan x="11.2" y="0" class="st10 st8 st9">O</tspan></text>
	<line class="st12" x1="367.4" y1="379.5" x2="375.4" y2="379.5"/>
	<line class="st12" x1="332.6" y1="14.8" x2="340.6" y2="14.8"/>
	<text transform="matrix(1 0 0 1 450.8545 386.4355)"><tspan x="0" y="0" class="st10 st8 st9">CO</tspan><tspan x="13.4" y="3" class="st10 st8 st11">2</tspan></text>
	<text transform="matrix(1 0 0 1 257.2012 411.3872)" class="st10 st13 st9">P</text>
	<g>
		<line class="st12" x1="247.2" y1="408.1" x2="253.5" y2="408.1"/>
		<line class="st12" x1="250.3" y1="411.3" x2="250.3" y2="405"/>
	</g>
	<g>
		<line class="st12" x1="366.4" y1="14.5" x2="372.7" y2="14.5"/>
		<line class="st12" x1="369.6" y1="17.7" x2="369.6" y2="11.3"/>
	</g>
	<g>
		<line class="st12" x1="237.3" y1="14.5" x2="243.6" y2="14.5"/>
		<line class="st12" x1="240.4" y1="17.7" x2="240.4" y2="11.3"/>
	</g>
	<text transform="matrix(1 0 0 1 337.4912 398.4873)"><tspan x="0" y="0" class="st10 st8 st9">NAD</tspan><tspan x="19.8" y="-4" class="st10 st8 st11">+</tspan></text>
	<text transform="matrix(1 0 0 1 426.3613 307.7734)"><tspan x="0" y="0" class="st10 st8 st9">NAD</tspan><tspan x="19.8" y="-4" class="st10 st8 st11">+</tspan></text>
	<text transform="matrix(1 0 0 1 163.2305 136.7285)"><tspan x="0" y="0" class="st10 st8 st9">NAD</tspan><tspan x="19.8" y="-4" class="st10 st8 st11">+</tspan></text>
	<text transform="matrix(1 0 0 1 376.7617 18.0166)"><tspan x="0" y="0" class="st10 st8 st9">H</tspan><tspan x="6.8" y="-4" class="st10 st8 st11">+</tspan></text>
	<g>
		<line class="st12" x1="248.5" y1="94.2" x2="254.8" y2="94.2"/>
		<line class="st12" x1="251.6" y1="97.4" x2="251.6" y2="91"/>
	</g>
	<text transform="matrix(1 0 0 1 258.3193 98.2324)"><tspan x="0" y="0" class="st10 st8 st9">H</tspan><tspan x="6.8" y="-4" class="st10 st8 st11">+</tspan></text>
	<text transform="matrix(1 0 0 1 276.8252 411.123)" class="st10 st8 st9">NADH</text>
	<text transform="matrix(1 0 0 1 384.0322 355.9091)" class="st10 st8 st9">NADH</text>
	<text transform="matrix(1 0 0 1 215.3369 97.4492)" class="st10 st8 st9">NADH</text>
	<text transform="matrix(1 0 0 1 377.3267 382.3052)" class="st10 st8 st9">CoA</text>
	<text transform="matrix(1 0 0 1 344.8657 18.0171)" class="st10 st8 st9">CoA</text>
	<text transform="matrix(1 0 0 1 352.8047 382.9526)" class="st10 st8 st9">HS</text>
	<text transform="matrix(1 0 0 1 316.8501 17.2847)" class="st10 st8 st9">HS</text>
	<text transform="matrix(1 0 0 1 229.4116 356.1401)" class="st8 st9">ATP</text>
	<text transform="matrix(1 0 0 1 155.0957 353.0781)" class="st10 st8 st9">FAD</text>
	<text transform="matrix(1 0 0 1 189.8594 379.9326)" class="st10 st8 st9">GTP</text>
	<text transform="matrix(1 0 0 1 224.9663 412.0854)" class="st10 st8 st9">GDP</text>
	<text transform="matrix(1 0 0 1 183.9033 18.0176)" class="yText">	
		<tspan x="0" y="0" class="st10 st8 st9">Acetyl-CoA</tspan>
		<tspan x="3.8" y="9.8" class="st10 st8 st9">(C2)</tspan>
	</text>
	<text transform="matrix(1 0 0 1 192.9849 62.539)" class="st10 st8 st9 yText">Oxaloacetat</text>
	<text transform="matrix(1 0 0 1 110.8926 139)" class="st10 st8 st9 yText">Malat</text>
	<text transform="matrix(1 0 0 1 74.6392 272.416)" class="st10 st8 st9 yText">Fumarat</text>
	<text transform="matrix(1 0 0 1 132.1436 389.4414)" class="st10 st8 st9 yText">Succinat</text>
	<text transform="matrix(1 0 0 1 245.9321 438.7666)" class="yText">
		<tspan x="0" y="0" class="st10 st8 st9">Succinyl-</tspan>
		<tspan x="10.6" y="9.8" class="st10 st8 st9">CoA</tspan>
	</text>
	<text transform="matrix(1 0 0 1 382.8955 405.4541)" class="yText"><tspan x="0" y="0" class="st10 st14 st15">α</tspan><tspan x="6.3" y="0" class="st10 st8 st9">-ketoglutarat</tspan></text>
	<text transform="matrix(1 0 0 1 456.9663 290.5717)" class="st10 st8 st9 yText">Iso-citrat</text>
	<text transform="matrix(1 0 0 1 432.6582 162.1557)" class="st10 st8 st9 yText">Cis-aconitat</text>
	<text transform="matrix(1 0 0 1 361.2158 69.8447)" class="st10 st8 st9 yText">Citrat</text>
	<g>
		<polygon points="384.6,426.9 379.8,432 377.8,425.3 		"/>
	</g>
	<path class="st1" d="M388.8,412.9c0,0-7.6,11-8.6,15.9"/>
	<text transform="matrix(1 0 0 1 375.855 444.1016)"><tspan x="0" y="0" class="st10 st8 st9">CO</tspan><tspan x="13.4" y="3" class="st10 st8 st11">2</tspan></text>
	<path class="st1" d="M230.6,445.3c0,0-6.2-11.8-10.1-15"/>
	<text transform="matrix(1 0 0 1 125.189 293.436)"><tspan x="0" y="0" class="st10 st8 st9">FADH</tspan><tspan x="25" y="3" class="st10 st8 st11">2</tspan></text>
	<g>
		<polygon points="179.7,422.8 172.7,423.6 175.5,417.2 		"/>
	</g>
	<path class="st1" d="M192,416.8c0,0-13.2,1.9-17.5,4.5"/>
	<line class="st12" x1="152.4" y1="428.8" x2="160.4" y2="428.8"/>
	<text transform="matrix(1 0 0 1 162.3613 431.5401)" class="st10 st8 st9">CoA</text>
	<text transform="matrix(1 0 0 1 137.8393 432.1876)" class="st10 st8 st9">HS</text>
</g>
</svg>
