<?xml version="1.0" encoding="utf-8"?>
<!-- Generator: Adobe Illustrator 19.1.0, SVG Export Plug-In . SVG Version: 6.00 Build 0)  -->
<svg version="1.1" xmlns="http://www.w3.org/2000/svg" xmlns:xlink="http://www.w3.org/1999/xlink" x="0px" y="0px"
	 viewBox="0 0 566.9 487.6" style="enable-background:new 0 0 566.9 487.6;" xml:space="preserve">
<style type="text/css">
	.st0{fill:url(#SVGID_1_);}
	.st1{fill:#009AB1;}
	.st2{fill:none;stroke:#84D0F0;}
	.st3{fill:#0099DC;stroke:#FFFFFF;stroke-width:0.5;}
	.st4{fill:#70B221;stroke:#FFFFFF;stroke-width:0.5;}
	.st5{fill:#F1E755;stroke:#FFFFFF;stroke-width:0.5;stroke-miterlimit:10;}
	.st6{fill:#E95E34;stroke:#FFFFFF;stroke-width:0.5;stroke-miterlimit:10;}
	.st7{fill:#172983;stroke:#FFFFFF;stroke-width:0.5;}
	.st8{fill:#FFFFFF;}
	.st9{font-family:'Verdana-Bold';}
	.st10{font-size:9px;}
	.st11{letter-spacing:9;}
	.st12{font-family:'Verdana';}
	.st13{letter-spacing:44;}
	.st14{letter-spacing:123;}
	.st15{letter-spacing:42;}
	.st16{letter-spacing:48;}
	.st17{letter-spacing:22;}
	.st18{letter-spacing:78;}
	.st19{letter-spacing:134;}
	.st20{letter-spacing:47;}
	.st21{letter-spacing:75;}
	.st22{letter-spacing:173;}
	.st23{letter-spacing:16;}
	.st24{letter-spacing:79;}
	.st25{letter-spacing:127;}
	.st26{letter-spacing:202;}
</style>
<g id="Lag_4">
	<linearGradient id="SVGID_1_" gradientUnits="userSpaceOnUse" x1="283.7488" y1="283.6484" x2="283.7488" y2="-1.271383e-08">
		<stop  offset="0" style="stop-color:#0087CC"/>
		<stop  offset="1" style="stop-color:#172983"/>
	</linearGradient>
	<rect x="0.6" class="st0" width="566.4" height="283.6"/>
</g>
<g id="Lag_5">
	<rect x="6.3" y="5.3" class="st1" width="119" height="13.7"/>
	<rect x="136.7" y="5.3" class="st1" width="195" height="13.7"/>
	<rect x="344" y="5.3" class="st1" width="217.3" height="13.7"/>
</g>
<g id="streger">
	<line class="st2" x1="0" y1="25" x2="566.9" y2="25"/>
	<line class="st2" x1="337.9" y1="0.3" x2="337.9" y2="283.3"/>
	<line class="st2" x1="131" y1="0.3" x2="131" y2="283.3"/>
</g>
<g id="receptorer">
	<polygon class="st3" points="305.9,41 305.9,42.7 287,42.7 287,35 305.9,35 305.9,37.2 308.7,37.2 308.7,40.9 	"/>
	<polygon class="st3" points="305.9,82.5 305.9,84.2 287,84.2 287,76.5 305.9,76.5 305.9,78.7 308.7,78.7 308.7,82.4 	"/>
	<polygon class="st3" points="305.9,103.3 305.9,105 287,105 287,97.2 305.9,97.2 305.9,99.4 308.7,99.4 308.7,103.2 	"/>
	<polygon class="st4" points="310,60 306,61.1 305.9,63.5 287,63.5 287,55.7 305.9,55.7 305.9,58.8 	"/>
	<path class="st5" d="M252.8,214.3c-1.2,0-2.1-0.9-2.1-2.1s0.9-2.1,2.1-2.1c0.1,0,0.1,0,0.2,0v-2.3l-5-2v-0.1l5-2V201h-16.4v15H253
		v-1.7C252.9,214.3,252.9,214.3,252.8,214.3z"/>
	<path class="st5" d="M252.8,193.5c-1.2,0-2.1-0.9-2.1-2.1s0.9-2.1,2.1-2.1c0.1,0,0.1,0,0.2,0V187l-5-2V185l5-2v-2.8h-16.4v15H253
		v-1.7C252.9,193.5,252.9,193.5,252.8,193.5z"/>
	<path class="st5" d="M252.8,172.8c-1.2,0-2.1-0.9-2.1-2.1c0-1.2,0.9-2.1,2.1-2.1c0.1,0,0.1,0,0.2,0v-2.3l-5-2v-0.1l5-2v-2.8h-16.4
		v15H253v-1.7C252.9,172.8,252.9,172.8,252.8,172.8z"/>
	<path class="st5" d="M252.8,152c-1.2,0-2.1-0.9-2.1-2.1c0-1.2,0.9-2.1,2.1-2.1c0.1,0,0.1,0,0.2,0v-2.3l-5-2v-0.1l5-2v-2.8h-16.4v15
		H253V152C252.9,152,252.9,152,252.8,152z"/>
	<path class="st5" d="M252.8,131.3c-1.2,0-2.1-0.9-2.1-2.1c0-1.2,0.9-2.1,2.1-2.1c0.1,0,0.1,0,0.2,0v-2.3l-5-2v-0.1l5-2V118h-16.4
		v15H253v-1.7C252.9,131.3,252.9,131.3,252.8,131.3z"/>
	<path class="st5" d="M252.8,110.5c-1.2,0-2.1-0.9-2.1-2.1c0-1.2,0.9-2.1,2.1-2.1c0.1,0,0.1,0,0.2,0V104l-5-2V102l5-2v-2.8h-16.4v15
		H253v-1.7C252.9,110.5,252.9,110.5,252.8,110.5z"/>
	<path class="st5" d="M252.8,89.8c-1.2,0-2.1-0.9-2.1-2.1c0-1.2,0.9-2.1,2.1-2.1c0.1,0,0.1,0,0.2,0v-2.3l-5-2v-0.1l5-2v-2.8h-16.4
		v15H253v-1.7C252.9,89.8,252.9,89.8,252.8,89.8z"/>
	<path class="st5" d="M252.8,69c-1.2,0-2.1-0.9-2.1-2.1c0-1.2,0.9-2.1,2.1-2.1c0.1,0,0.1,0,0.2,0v-2.3l-5-2v-0.1l5-2v-2.8h-16.4v15
		H253V69C252.9,69,252.9,69,252.8,69z"/>
	<path class="st5" d="M252.8,48.3c-1.2,0-2.1-0.9-2.1-2.1c0-1.2,0.9-2.1,2.1-2.1c0.1,0,0.1,0,0.2,0v-2.3l-5-2v-0.1l5-2V35h-16.4v15
		H253v-1.7C252.9,48.3,252.9,48.3,252.8,48.3z"/>
	<path class="st6" d="M276.8,193.5c-1.1,0-2-0.9-2-2s0.9-2,2-2c0.1,0,0.2,0,0.3,0V187h-3.5v-4h3.5v-2.8h-16.4v15H277v-1.8
		C277,193.5,276.9,193.5,276.8,193.5z"/>
	<path class="st6" d="M276.8,152c-1.1,0-2-0.9-2-2s0.9-2,2-2c0.1,0,0.2,0,0.3,0v-2.5h-3.5v-4h3.5v-2.8h-16.4v15H277V152
		C277,152,276.9,152,276.8,152z"/>
	<path class="st6" d="M276.8,131.2c-1.1,0-2-0.9-2-2s0.9-2,2-2c0.1,0,0.2,0,0.3,0v-2.5h-3.5v-4h3.5V118h-16.4v15H277v-1.8
		C277,131.2,276.9,131.2,276.8,131.2z"/>
	<path class="st7" d="M277.6,101.1c0-1.1,0.9-2,2-2v-1.9h-18.9v7.7h18.9v-1.9C278.5,103.1,277.6,102.2,277.6,101.1z"/>
	<path class="st7" d="M277.6,80.4c0-1.1,0.9-2,2-2v-1.9h-18.9v7.7h18.9v-1.9C278.5,82.3,277.6,81.4,277.6,80.4z"/>
	<path class="st7" d="M277.6,59.6c0-1.1,0.9-2,2-2v-1.9h-18.9v7.7h18.9v-1.9C278.5,61.6,277.6,60.7,277.6,59.6z"/>
	<path class="st7" d="M277.6,38.9c0-1.1,0.9-2,2-2V35h-18.9v7.7h18.9v-1.9C278.5,40.8,277.6,39.9,277.6,38.9z"/>
</g>
<g id="txt">
	<text transform="matrix(1 0 0 1 8.5273 14.7422)">
	<tspan x="0" y="0" class="st8 st9 st10">Celletype</tspan>
	<tspan x="133" y="0" class="st8 st9 st10">Receptorer</tspan>
	<tspan x="337" y="0" class="st8 st9 st10">Funktion</tspan>
	</text>


	<text transform="matrix(1 0 0 1 9.6855 44.2949)" class="st8 st12 st10 yText">T-hjælpe-lymfocyt</text>
	<text transform="matrix(1 0 0 1 9.6855 65.2949)" class="st8 st12 st10 yText">T-dræber-lymfocyt</text>
	<text transform="matrix(1 0 0 1 9.6855 86.2949)" class="st8 st12 st10 yText">T-huske-lymfocyt</text>
	<text transform="matrix(1 0 0 1 9.6855 107.2949)" class="st8 st12 st10 yText">T-regulerende lymfocyt</text>
	<text transform="matrix(1 0 0 1 9.6855 128.2949)" class="st8 st12 st10 yText">B-lymfocyt</text>
	<text transform="matrix(1 0 0 1 9.6855 149.2949)" class="st8 st12 st10 yText">B-huske-lymfocyt</text>
	<text transform="matrix(1 0 0 1 9.6855 170.2949)" class="st8 st12 st10 yText">Plasmacelle</text>
	<text transform="matrix(1 0 0 1 9.6855 191.2949)" class="st8 st12 st10 yText">Makrofag og dendritcelle</text>
	<text transform="matrix(1 0 0 1 9.6855 212.2949)" class="st8 st12 st10 yText">Blodplader</text>

	<text transform="matrix(1 0 0 1 9.6855 44.2949)"><tspan x="83.3" y="0" class="st8 st12 st10 st13">	</tspan><tspan x="130.9" y="0" class="st8 st12 st10">MHC-I, TCR, CD4</tspan><tspan x="209.3" y="0" class="st8 st12 st10 st14">	</tspan><tspan x="336.2" y="0" class="st8 st12 st10">Aktiverer og koordinerer immunforsvaret </tspan><tspan x="85.3" y="21" class="st8 st12 st10 st15">	</tspan><tspan x="130.9" y="21" class="st8 st12 st10">MHC-I, TCR, CD8</tspan><tspan x="209.3" y="21" class="st8 st12 st10 st14">	</tspan><tspan x="336.2" y="21" class="st8 st12 st10">Dræber virusinficerede kropsceller</tspan><tspan x="79.2" y="42" class="st8 st12 st10 st16">	</tspan><tspan x="130.9" y="42" class="st8 st12 st10">MHC-I, TCR, CD4</tspan><tspan x="209.3" y="42" class="st8 st12 st10 st14">	</tspan><tspan x="336.2" y="42" class="st8 st12 st10">Husker bestemt antigen via specifik TCR</tspan><tspan x="105.7" y="63" class="st8 st12 st10 st17">	</tspan><tspan x="130.9" y="63" class="st8 st12 st10">MHC-I, TCR, CD4</tspan><tspan x="209.3" y="63" class="st8 st12 st10 st14">	</tspan><tspan x="336.2" y="63" class="st8 st12 st10">Nedregulerer den immunologiske respons</tspan><tspan x="49" y="84" class="st8 st12 st10 st18">	</tspan><tspan x="130.9" y="84" class="st8 st12 st10">MHC-I, MHC-II</tspan><tspan x="198.2" y="84" class="st8 st12 st10 st19">	</tspan><tspan x="336.2" y="84" class="st8 st12 st10">Omdannes til plasmaceller efter stimulering</tspan><tspan x="79.8" y="105" class="st8 st12 st10 st20">	</tspan><tspan x="130.9" y="105" class="st8 st12 st10">MHC-I, MHC-II</tspan><tspan x="198.2" y="105" class="st8 st12 st10 st19">	</tspan><tspan x="336.2" y="105" class="st8 st12 st10">Husker bestemt antigen via specifikt antistof</tspan><tspan x="52.5" y="126" class="st8 st12 st10 st21">	</tspan><tspan x="130.9" y="126" class="st8 st12 st10">MHC-I</tspan><tspan x="159.4" y="126" class="st8 st12 st10 st22">	</tspan><tspan x="336.2" y="126" class="st8 st12 st10">Danner antistoffer</tspan><tspan x="111.7" y="147" class="st8 st12 st10 st23">	</tspan><tspan x="130.9" y="147" class="st8 st12 st10">MHC-I, MHC-II</tspan><tspan x="198.2" y="147" class="st8 st12 st10 st19">	</tspan><tspan x="336.2" y="147" class="st8 st12 st10">Nedbryder og udstiller fremmede antigener</tspan><tspan x="48" y="168" class="st8 st12 st10 st24">	</tspan><tspan x="130.9" y="168" class="st8 st12 st10">MHC-I</tspan><tspan x="159.4" y="168" class="st8 st12 st10 st22">	</tspan><tspan x="336.2" y="168" class="st8 st12 st10">Bindes til beskadigede blodkar og frigør stoffer</tspan><tspan x="0" y="189" class="st8 st12 st10 st25">	</tspan><tspan x="130.9" y="189" class="st8 st12 st10 st26">	</tspan><tspan x="336.2" y="189" class="st8 st12 st10">fra granula, der øger gennemtrængeligheden</tspan><tspan x="0" y="210" class="st8 st12 st10 st25">	</tspan><tspan x="130.9" y="210" class="st8 st12 st10 st26">	</tspan><tspan x="336.2" y="210" class="st8 st12 st10">for blod samt tiltrækker immunkompetente </tspan><tspan x="0" y="231" class="st8 st12 st10 st25">	</tspan><tspan x="130.9" y="231" class="st8 st12 st10 st26">	</tspan><tspan x="336.2" y="231" class="st8 st12 st10">celler og aktiverer komplementsystemet</tspan></text>
</g>
</svg>
