<?xml version="1.0" encoding="utf-8"?>
<!-- Generator: Adobe Illustrator 19.1.0, SVG Export Plug-In . SVG Version: 6.00 Build 0)  -->
<svg version="1.1" id="Lag_1" xmlns="http://www.w3.org/2000/svg" xmlns:xlink="http://www.w3.org/1999/xlink" x="0px" y="0px"
	 viewBox="-22 156 566.9 481" style="enable-background:new -22 156 566.9 481;" xml:space="preserve">
<style type="text/css">
	.st0{fill:url(#SVGID_1_);}
	.st1{fill:#EB5C32;stroke:#000000;stroke-width:0.5;stroke-miterlimit:10;}
	.st2{fill:#6CB52D;stroke:#000000;stroke-width:0.5;stroke-miterlimit:10;}
	.st3{fill:#312783;stroke:#000000;stroke-width:0.5;stroke-miterlimit:10;}
	.st4{fill:none;stroke:#000000;stroke-width:0.5;stroke-miterlimit:10;}
	.st5{fill:#F0E855;stroke:#000000;stroke-width:0.5;stroke-miterlimit:10;}
	.st6{fill:#009ADF;stroke:#000000;stroke-width:0.5;stroke-miterlimit:10;}
	.st7{fill:#2A2070;stroke:#000000;stroke-width:0.5;stroke-miterlimit:10;}
	.st8{fill:#F28C39;stroke:#FFFFFF;stroke-width:0.5;stroke-miterlimit:10;}
	.st9{fill:url(#SVGID_2_);stroke:#000000;stroke-width:0.5;stroke-miterlimit:10;}
	.st10{fill:url(#SVGID_3_);stroke:#000000;stroke-width:0.5;stroke-miterlimit:10;}
	.st11{fill:url(#SVGID_4_);stroke:#000000;stroke-width:0.5;stroke-miterlimit:10;}
	.st12{fill:url(#SVGID_5_);stroke:#000000;stroke-width:0.5;stroke-miterlimit:10;}
	.st13{fill:url(#SVGID_6_);stroke:#000000;stroke-width:0.5;stroke-miterlimit:10;}
	.st14{fill:url(#SVGID_7_);stroke:#000000;stroke-width:0.5;stroke-miterlimit:10;}
	.st15{fill:url(#SVGID_8_);stroke:#000000;stroke-width:0.5;stroke-miterlimit:10;}
	.st16{fill:url(#SVGID_9_);stroke:#000000;stroke-width:0.5;stroke-miterlimit:10;}
	.st17{fill:url(#SVGID_10_);stroke:#000000;stroke-width:0.5;stroke-miterlimit:10;}
	.st18{fill:url(#SVGID_11_);stroke:#000000;stroke-width:0.5;stroke-miterlimit:10;}
	.st19{fill:#E30613;stroke:#000000;stroke-width:0.5;}
	.st20{fill:none;stroke:#1FA637;stroke-width:2;}
	.st21{fill:none;stroke:#FFFFFF;stroke-width:0.75;stroke-dasharray:2,2;}
	.st22{fill:#FFFFFF;}
	.st23{fill:none;stroke:#FFFFFF;stroke-width:0.75;}
	.st24{fill:none;stroke:#FFFFFF;stroke-width:0.5;}
	.st25{fill:none;stroke:#FFFFFF;}
	.st26{font-family:'Verdana';}
	.st27{font-size:9px;}
	.st28{font-family:'Verdana-Bold';}
	.st29{font-size:12px;}
</style>
<g id="Lag_3">
	
		<radialGradient id="SVGID_1_" cx="101.0862" cy="615.1353" r="122.117" gradientTransform="matrix(2.1053 0 0 -2.2236 48.6332 1764.3147)" gradientUnits="userSpaceOnUse">
		<stop  offset="0.2146" style="stop-color:#83D0F5"/>
		<stop  offset="0.2875" style="stop-color:#7BC4ED"/>
		<stop  offset="0.4265" style="stop-color:#66A7D9"/>
		<stop  offset="0.617" style="stop-color:#4C79B7"/>
		<stop  offset="0.8492" style="stop-color:#38418A"/>
		<stop  offset="1" style="stop-color:#2C2274"/>
	</radialGradient>
	<rect x="-22" y="156" class="st0" width="566.9" height="481"/>
</g>
<g id="Receptorer">
	<path class="st1" d="M406.5,382.2v6.7h7.9v8.1h-7.9v4.6c2.6,0.1,4.7,1.2,4.7,3.8c0,2.6-2.1,3.7-4.7,3.8v3.4h23.9v-30.5h-23.9V382.2
		z"/>
	<polyline class="st2" points="137.1,232.5 137.1,217.2 113.1,217.2 113.1,222.9 103,226.9 103,227.1 113.1,231.1 113.1,232.5 	"/>
	<polyline class="st3" points="113.1,232.7 137.1,232.7 137.1,247.7 113.1,247.7 	"/>
	<line class="st4" x1="113.1" y1="232.6" x2="137.1" y2="232.6"/>
	<polyline class="st5" points="103,226.9 113.1,222.9 113.1,217.2 79.9,217.2 79.9,247.7 113.1,247.7 113.1,231.1 103,227.1 	"/>
	<polyline class="st3" points="113.6,396.1 137.6,396.1 137.6,411.8 113.6,411.8 	"/>
	<polygon class="st6" points="137.6,396.3 137.6,381.3 113.6,381.2 113.6,386.9 106.5,386.9 106.5,395 113.6,395 113.6,396.3 	"/>
	<g>
		<path class="st7" d="M353.2,231.2v15.7h-23.9v-2.4c2.6-0.1,4.7-2.2,4.7-4.8s-2.1-4.7-4.7-4.8v-3.6L353.2,231.2z"/>
		<polygon class="st6" points="353.2,231.5 353.2,216.4 329.2,216.4 329.2,222 322.1,222 322.1,230.1 329.2,230.1 329.2,231.5 		"/>
	</g>
	<polygon class="st1" points="106.5,395.1 106.5,386.9 113.6,386.9 113.6,381.2 80.4,381.2 80.4,411.8 113.6,411.8 113.6,395.1 	"/>
	<g>
		<path class="st7" d="M436.6,231.2v15.7h23.9v-2.4c-2.6-0.1-4.7-2.2-4.7-4.8s2.1-4.7,4.7-4.8v-3.6L436.6,231.2z"/>
		<polygon class="st6" points="437.6,231.5 437.6,216.4 461.5,216.4 461.5,222 468.7,222 468.7,231.1 461.5,231.1 461.5,231.5 		"/>
	</g>
	<line class="st4" x1="113.1" y1="247.7" x2="113.1" y2="232.7"/>
	<line class="st4" x1="113.6" y1="411.8" x2="113.6" y2="396.1"/>
	<polyline class="st3" points="242.3,396.1 218.4,396.1 218.4,411.8 242.3,411.8 	"/>
	<polygon class="st6" points="218.4,396.3 218.4,381.3 242.3,381.2 242.3,386.9 249.5,386.9 249.5,395 242.3,395 242.3,396.3 	"/>
	<polygon class="st1" points="249.5,395.1 249.5,386.9 242.3,386.9 242.3,381.2 275.6,381.2 275.6,411.8 242.3,411.8 242.3,395.1 	
		"/>
	<line class="st4" x1="242.3" y1="411.8" x2="242.3" y2="396.1"/>
</g>
<g id="Antigen">
	<circle class="st8" cx="113.1" cy="240.8" r="3.2"/>
	<circle class="st8" cx="113.3" cy="404.3" r="3.2"/>
	<circle class="st8" cx="242.7" cy="404.3" r="3.2"/>
</g>
<g id="Lag_1_1_">
	
		<radialGradient id="SVGID_2_" cx="47.4" cy="560.8" r="48.371" gradientTransform="matrix(1 0 0 -1 0 794)" gradientUnits="userSpaceOnUse">
		<stop  offset="0" style="stop-color:#FFFFFF"/>
		<stop  offset="0.1404" style="stop-color:#FFFDFE"/>
		<stop  offset="0.2679" style="stop-color:#FEF5FA"/>
		<stop  offset="0.3905" style="stop-color:#FCE9F3"/>
		<stop  offset="0.5101" style="stop-color:#FAD6E8"/>
		<stop  offset="0.6275" style="stop-color:#F6BCD7"/>
		<stop  offset="0.7433" style="stop-color:#F299C1"/>
		<stop  offset="0.8578" style="stop-color:#ED6AA4"/>
		<stop  offset="0.9684" style="stop-color:#E72386"/>
		<stop  offset="1" style="stop-color:#E6007E"/>
	</radialGradient>
	<circle class="st9" cx="47.4" cy="233.2" r="48.3"/>
	
		<radialGradient id="SVGID_3_" cx="176.5" cy="562.8" r="48.3527" gradientTransform="matrix(1 0 0 -1 0 794)" gradientUnits="userSpaceOnUse">
		<stop  offset="0" style="stop-color:#9AC31C"/>
		<stop  offset="0.3665" style="stop-color:#99C220"/>
		<stop  offset="0.5147" style="stop-color:#91BF2C"/>
		<stop  offset="0.6233" style="stop-color:#85B93A"/>
		<stop  offset="0.7128" style="stop-color:#71B04A"/>
		<stop  offset="0.7903" style="stop-color:#55A65C"/>
		<stop  offset="0.8596" style="stop-color:#299B6D"/>
		<stop  offset="0.9227" style="stop-color:#008D7C"/>
		<stop  offset="0.9794" style="stop-color:#007F87"/>
		<stop  offset="1" style="stop-color:#00798A"/>
	</radialGradient>
	<circle class="st10" cx="176.5" cy="231.2" r="48.3"/>
	
		<radialGradient id="SVGID_4_" cx="395.1" cy="255.7" r="48.363" gradientTransform="matrix(1 0 0 -1 0 794)" gradientUnits="userSpaceOnUse">
		<stop  offset="0" style="stop-color:#FFFFFF"/>
		<stop  offset="0.1513" style="stop-color:#FCFEFF"/>
		<stop  offset="0.2887" style="stop-color:#F3FAFF"/>
		<stop  offset="0.4208" style="stop-color:#E4F4FE"/>
		<stop  offset="0.5496" style="stop-color:#CDEAFC"/>
		<stop  offset="0.6761" style="stop-color:#ABDDF9"/>
		<stop  offset="0.8009" style="stop-color:#7ACDF4"/>
		<stop  offset="0.9218" style="stop-color:#00BAEE"/>
		<stop  offset="1" style="stop-color:#00ACE9"/>
	</radialGradient>
	<circle class="st11" cx="395.1" cy="538.3" r="48.3"/>
	
		<radialGradient id="SVGID_5_" cx="176.5" cy="399.4" r="48.3" gradientTransform="matrix(1 0 0 -1 0 794)" gradientUnits="userSpaceOnUse">
		<stop  offset="0" style="stop-color:#F8AC53"/>
		<stop  offset="0.1315" style="stop-color:#F7A850"/>
		<stop  offset="0.2988" style="stop-color:#F49B47"/>
		<stop  offset="0.4857" style="stop-color:#F1843A"/>
		<stop  offset="0.6866" style="stop-color:#EC632A"/>
		<stop  offset="0.8967" style="stop-color:#E6331B"/>
		<stop  offset="1" style="stop-color:#E30613"/>
	</radialGradient>
	<circle class="st12" cx="176.5" cy="394.6" r="48.3"/>
	
		<radialGradient id="SVGID_6_" cx="307.9" cy="399.4" r="48.3" gradientTransform="matrix(1 0 0 -1 0 794)" gradientUnits="userSpaceOnUse">
		<stop  offset="0" style="stop-color:#FFFFFF"/>
		<stop  offset="9.902336e-02" style="stop-color:#F7F7F7"/>
		<stop  offset="0.2765" style="stop-color:#E0E0E0"/>
		<stop  offset="0.5118" style="stop-color:#BABAB9"/>
		<stop  offset="0.7926" style="stop-color:#807F7F"/>
		<stop  offset="1" style="stop-color:#4A4A49"/>
	</radialGradient>
	<circle class="st13" cx="307.9" cy="394.6" r="48.3"/>
	
		<radialGradient id="SVGID_7_" cx="395.1" cy="562.8" r="48.3702" gradientTransform="matrix(1 0 0 -1 0 794)" gradientUnits="userSpaceOnUse">
		<stop  offset="0" style="stop-color:#FFFFFF"/>
		<stop  offset="8.637257e-02" style="stop-color:#F7F5FB"/>
		<stop  offset="0.2411" style="stop-color:#E1D8ED"/>
		<stop  offset="0.4465" style="stop-color:#C0ABD3"/>
		<stop  offset="0.6947" style="stop-color:#946CAC"/>
		<stop  offset="0.9766" style="stop-color:#632784"/>
		<stop  offset="0.9912" style="stop-color:#602483"/>
	</radialGradient>
	<circle class="st14" cx="395.1" cy="231.2" r="48.3"/>
	
		<radialGradient id="SVGID_8_" cx="472.9" cy="399.4" r="48.3" gradientTransform="matrix(1 0 0 -1 0 794)" gradientUnits="userSpaceOnUse">
		<stop  offset="0" style="stop-color:#FFFFFF"/>
		<stop  offset="9.902336e-02" style="stop-color:#F7F7F7"/>
		<stop  offset="0.2765" style="stop-color:#E0E0E0"/>
		<stop  offset="0.5118" style="stop-color:#BABAB9"/>
		<stop  offset="0.7926" style="stop-color:#807F7F"/>
		<stop  offset="1" style="stop-color:#4A4A49"/>
	</radialGradient>
	<circle class="st15" cx="472.9" cy="394.6" r="48.3"/>
	
		<radialGradient id="SVGID_9_" cx="234.9491" cy="372.9456" r="48.3443" gradientTransform="matrix(-1.346900e-10 1 1 1.346900e-10 -325.5045 330.0934)" gradientUnits="userSpaceOnUse">
		<stop  offset="0" style="stop-color:#FFFAC9"/>
		<stop  offset="0.1643" style="stop-color:#FFF8C6"/>
		<stop  offset="0.3136" style="stop-color:#FFF5BC"/>
		<stop  offset="0.4571" style="stop-color:#FFEEAA"/>
		<stop  offset="0.5971" style="stop-color:#FFE491"/>
		<stop  offset="0.7344" style="stop-color:#FFD86E"/>
		<stop  offset="0.868" style="stop-color:#FDC940"/>
		<stop  offset="1" style="stop-color:#FBB800"/>
	</radialGradient>
	<path class="st16" d="M96.1,557c-3.8-8.1-10.9-19.4-24.7-19.6c-17.7-0.2-25,16.3-25,27.8s4.1,28.8,25,28.8
		c14.3-0.1,21.4-13.8,24.7-21.7c7.3-7.6,0,12.2,0,12.2c-7.5,17.1-28.5,25-48.3,25c-26.7,0-52.3-17.6-52.3-44.3
		c0-26.7,25.6-44.3,52.3-44.3c19.7,0,40.6,7.8,48.2,24.6 M95.9,545.3c0,0,7.7,16.6,0.2,11.7"/>
	
		<radialGradient id="SVGID_10_" cx="403.8979" cy="389.9923" r="48.4385" gradientTransform="matrix(-1.346900e-10 1 1 1.346900e-10 -213.5423 161.1023)" gradientUnits="userSpaceOnUse">
		<stop  offset="0" style="stop-color:#FFFAC9"/>
		<stop  offset="0.1643" style="stop-color:#FFF8C6"/>
		<stop  offset="0.3136" style="stop-color:#FFF5BC"/>
		<stop  offset="0.4571" style="stop-color:#FFEEAA"/>
		<stop  offset="0.5971" style="stop-color:#FFE491"/>
		<stop  offset="0.7344" style="stop-color:#FFD86E"/>
		<stop  offset="0.868" style="stop-color:#FDC940"/>
		<stop  offset="1" style="stop-color:#FBB800"/>
	</radialGradient>
	<path class="st17" d="M228.7,569h-9.1v-7.9h9.1c-2-24.9-26.8-40.4-52.2-40.4c-26.7,0-52.3,17.6-52.3,44.3s25.6,44.3,52.3,44.3
		C201.9,609.4,226.7,593.8,228.7,569z"/>
	
		<radialGradient id="SVGID_11_" cx="47.4" cy="399.35" r="48.4882" gradientTransform="matrix(1 0 0 -1 0 794)" gradientUnits="userSpaceOnUse">
		<stop  offset="0" style="stop-color:#FFFAC9"/>
		<stop  offset="0.1643" style="stop-color:#FFF8C6"/>
		<stop  offset="0.3136" style="stop-color:#FFF5BC"/>
		<stop  offset="0.4571" style="stop-color:#FFEEAA"/>
		<stop  offset="0.5971" style="stop-color:#FFE491"/>
		<stop  offset="0.7344" style="stop-color:#FFD86E"/>
		<stop  offset="0.868" style="stop-color:#FDC940"/>
		<stop  offset="1" style="stop-color:#FBB800"/>
	</radialGradient>
	<path class="st18" d="M47.4,350.3c-26.7,0-52.3,17.6-52.3,44.3c0,14.1,7.2,25.7,17.9,33.5c-1.7-2.4-2.7-5.2-2.7-8.3
		c0-8.6,7.6-15.5,17-15.5s17,6.9,17,15.5s-7.6,15.5-17,15.5c-0.2,0-0.5,0-0.7,0c6.5,2.4,13.6,3.7,20.8,3.7
		c26.7,0,52.3-17.6,52.3-44.3C99.7,368,74.1,350.3,47.4,350.3z"/>
	<g>
		
			<ellipse transform="matrix(0.6237 -0.7817 0.7817 0.6237 -402.9636 266.0253)" class="st19" cx="74.8" cy="551.5" rx="4" ry="9.4"/>
		<g>
			<circle class="st8" cx="65.1" cy="543.5" r="3"/>
			<circle class="st8" cx="70.9" cy="541.9" r="3"/>
			<circle class="st8" cx="76.6" cy="544.2" r="3"/>
			<circle class="st8" cx="85" cy="552.9" r="3"/>
			<circle class="st8" cx="81.5" cy="547.8" r="3"/>
			<circle class="st8" cx="64.5" cy="549.9" r="3"/>
			<circle class="st8" cx="68.1" cy="555" r="3"/>
			<circle class="st8" cx="78.4" cy="561.2" r="3"/>
			<circle class="st8" cx="72.6" cy="558.9" r="3"/>
			<circle class="st8" cx="84.7" cy="559.2" r="3"/>
		</g>
	</g>
	<g>
		
			<ellipse transform="matrix(-8.139858e-02 -0.9967 0.9967 -8.139858e-02 51.811 686.1639)" class="st19" cx="342.1" cy="319.2" rx="4" ry="9.4"/>
		<g>
			<circle class="st8" cx="329.5" cy="319.9" r="3"/>
			<circle class="st8" cx="332.7" cy="314.8" r="3"/>
			<circle class="st8" cx="338.5" cy="312.6" r="3"/>
			<circle class="st8" cx="350.5" cy="313.2" r="3"/>
			<circle class="st8" cx="344.4" cy="311.8" r="3"/>
			<circle class="st8" cx="333.5" cy="325" r="3"/>
			<circle class="st8" cx="339.6" cy="326.3" r="3"/>
			<circle class="st8" cx="351.3" cy="323.7" r="3"/>
			<circle class="st8" cx="345.6" cy="326" r="3"/>
			<circle class="st8" cx="354.6" cy="317.9" r="3"/>
		</g>
	</g>
	<g>
		
			<ellipse transform="matrix(0.4502 -0.8929 0.8929 0.4502 -358.8778 255.541)" class="st19" cx="28.1" cy="419.2" rx="4" ry="9.4"/>
		<g>
			<circle class="st8" cx="16.9" cy="413.3" r="3"/>
			<circle class="st8" cx="22.3" cy="410.5" r="3"/>
			<circle class="st8" cx="28.4" cy="411.6" r="3"/>
			<circle class="st8" cx="38.3" cy="418.4" r="3"/>
			<circle class="st8" cx="33.9" cy="414.1" r="3"/>
			<circle class="st8" cx="17.7" cy="419.6" r="3"/>
			<circle class="st8" cx="22.2" cy="423.9" r="3"/>
			<circle class="st8" cx="33.5" cy="427.9" r="3"/>
			<circle class="st8" cx="27.5" cy="426.8" r="3"/>
			<circle class="st8" cx="39.4" cy="424.6" r="3"/>
		</g>
	</g>
	<g>
		
			<ellipse transform="matrix(0.9991 -4.210169e-02 4.210169e-02 0.9991 -13.9399 15.6369)" class="st19" cx="364.3" cy="338.8" rx="4" ry="9.4"/>
		<g>
			<circle class="st8" cx="364" cy="326.2" r="3"/>
			<circle class="st8" cx="369" cy="329.5" r="3"/>
			<circle class="st8" cx="371" cy="335.4" r="3"/>
			<circle class="st8" cx="370" cy="347.3" r="3"/>
			<circle class="st8" cx="371.5" cy="341.4" r="3"/>
			<circle class="st8" cx="358.8" cy="329.9" r="3"/>
			<circle class="st8" cx="357.3" cy="336" r="3"/>
			<circle class="st8" cx="359.4" cy="347.8" r="3"/>
			<circle class="st8" cx="357.3" cy="342" r="3"/>
			<circle class="st8" cx="365.1" cy="351.3" r="3"/>
		</g>
	</g>
	<g>
		
			<ellipse transform="matrix(-8.139858e-02 -0.9967 0.9967 -8.139858e-02 -212.8826 790.4116)" class="st19" cx="257.8" cy="493.3" rx="4" ry="9.4"/>
		<g>
			<circle class="st8" cx="245.2" cy="494.1" r="3"/>
			<circle class="st8" cx="248.4" cy="489" r="3"/>
			<circle class="st8" cx="254.2" cy="486.7" r="3"/>
			<circle class="st8" cx="266.2" cy="487.3" r="3"/>
			<circle class="st8" cx="260.1" cy="486" r="3"/>
			<circle class="st8" cx="249.2" cy="499.1" r="3"/>
			<circle class="st8" cx="255.3" cy="500.4" r="3"/>
			<circle class="st8" cx="267" cy="497.9" r="3"/>
			<circle class="st8" cx="261.3" cy="500.2" r="3"/>
			<circle class="st8" cx="270.3" cy="492.1" r="3"/>
		</g>
	</g>
	<g>
		
			<ellipse transform="matrix(0.9991 -4.210169e-02 4.210169e-02 0.9991 -21.3473 12.2443)" class="st19" cx="280" cy="512.9" rx="4" ry="9.4"/>
		<g>
			<circle class="st8" cx="279.7" cy="500.3" r="3"/>
			<circle class="st8" cx="284.7" cy="503.6" r="3"/>
			<circle class="st8" cx="286.7" cy="509.5" r="3"/>
			<circle class="st8" cx="285.7" cy="521.5" r="3"/>
			<circle class="st8" cx="287.2" cy="515.5" r="3"/>
			<circle class="st8" cx="274.5" cy="504.1" r="3"/>
			<circle class="st8" cx="273" cy="510.1" r="3"/>
			<circle class="st8" cx="275.1" cy="522" r="3"/>
			<circle class="st8" cx="273" cy="516.1" r="3"/>
			<circle class="st8" cx="280.8" cy="525.4" r="3"/>
		</g>
	</g>
	<g>
		
			<ellipse transform="matrix(0.7089 -0.7053 0.7053 0.7089 -315.0591 339.6775)" class="st19" cx="254" cy="551.5" rx="4" ry="9.4"/>
		<g>
			<circle class="st8" cx="245.2" cy="542.4" r="3"/>
			<circle class="st8" cx="251.2" cy="541.5" r="3"/>
			<circle class="st8" cx="256.7" cy="544.5" r="3"/>
			<circle class="st8" cx="263.9" cy="554" r="3"/>
			<circle class="st8" cx="261" cy="548.5" r="3"/>
			<circle class="st8" cx="243.9" cy="548.7" r="3"/>
			<circle class="st8" cx="246.9" cy="554.2" r="3"/>
			<circle class="st8" cx="256.4" cy="561.5" r="3"/>
			<circle class="st8" cx="251" cy="558.6" r="3"/>
			<circle class="st8" cx="263" cy="560.2" r="3"/>
		</g>
	</g>
	<g>
		<ellipse transform="matrix(0.6769 0.7361 -0.7361 0.6769 509.5726 1.354)" class="st19" cx="253.2" cy="581.1" rx="4" ry="9.4"/>
		<g>
			<circle class="st8" cx="262.7" cy="572.7" r="3"/>
			<circle class="st8" cx="263.4" cy="578.7" r="3"/>
			<circle class="st8" cx="260.2" cy="584.1" r="3"/>
			<circle class="st8" cx="250.4" cy="591" r="3"/>
			<circle class="st8" cx="256" cy="588.3" r="3"/>
			<circle class="st8" cx="256.5" cy="571.2" r="3"/>
			<circle class="st8" cx="250.9" cy="573.9" r="3"/>
			<circle class="st8" cx="243.2" cy="583.1" r="3"/>
			<circle class="st8" cx="246.3" cy="577.8" r="3"/>
			<circle class="st8" cx="244.2" cy="589.8" r="3"/>
		</g>
	</g>
	<g>
		
			<ellipse transform="matrix(-0.6237 -0.7817 0.7817 -0.6237 -331.5777 1000.0173)" class="st19" cx="74.9" cy="579.8" rx="4" ry="9.4"/>
		<g>
			<circle class="st8" cx="65.2" cy="587.9" r="3"/>
			<circle class="st8" cx="71" cy="589.5" r="3"/>
			<circle class="st8" cx="76.8" cy="587.1" r="3"/>
			<circle class="st8" cx="85.1" cy="578.5" r="3"/>
			<circle class="st8" cx="81.6" cy="583.6" r="3"/>
			<circle class="st8" cx="64.7" cy="581.5" r="3"/>
			<circle class="st8" cx="68.2" cy="576.4" r="3"/>
			<circle class="st8" cx="78.5" cy="570.2" r="3"/>
			<circle class="st8" cx="72.8" cy="572.4" r="3"/>
			<circle class="st8" cx="84.9" cy="572.2" r="3"/>
		</g>
	</g>
</g>
<g id="Lag_4">
	<g>
		<g>
			<line class="st20" x1="480.1" y1="341.2" x2="474" y2="330.6"/>
			<line class="st20" x1="479.8" y1="341.1" x2="489.6" y2="333.8"/>
		</g>
		<line class="st20" x1="476.7" y1="356.9" x2="480.1" y2="340.7"/>
	</g>
	<g>
		<g>
			<line class="st20" x1="415.8" y1="516.3" x2="413.7" y2="507.1"/>
			<line class="st20" x1="415.6" y1="516.2" x2="424.5" y2="513.1"/>
		</g>
		<line class="st20" x1="409.6" y1="527.1" x2="415.9" y2="515.9"/>
	</g>
	<g>
		<g>
			<line class="st20" x1="404.6" y1="564.1" x2="402.6" y2="554.9"/>
			<line class="st20" x1="404.4" y1="564" x2="413.3" y2="560.9"/>
		</g>
		<line class="st20" x1="398.4" y1="575" x2="404.7" y2="563.8"/>
	</g>
	<g>
		<g>
			<line class="st20" x1="359.5" y1="541.9" x2="351.5" y2="536.8"/>
			<line class="st20" x1="359.2" y1="542" x2="363.3" y2="533.5"/>
		</g>
		<line class="st20" x1="362.7" y1="554" x2="359.2" y2="541.6"/>
	</g>
	<g>
		<g>
			<line class="st20" x1="335.5" y1="521.7" x2="331.6" y2="513.1"/>
			<line class="st20" x1="335.3" y1="521.6" x2="343.4" y2="516.8"/>
		</g>
		<line class="st20" x1="331.7" y1="533.6" x2="335.5" y2="521.3"/>
	</g>
	<g>
		<g>
			<line class="st20" x1="323.5" y1="552.3" x2="315.6" y2="547.2"/>
			<line class="st20" x1="323.3" y1="552.4" x2="327.4" y2="543.9"/>
		</g>
		<line class="st20" x1="326.8" y1="564.3" x2="323.3" y2="552"/>
	</g>
	<g>
		<g>
			<line class="st20" x1="342.6" y1="340.7" x2="342.2" y2="328.5"/>
			<line class="st20" x1="342.3" y1="340.5" x2="354.4" y2="338.7"/>
		</g>
		<line class="st20" x1="332.1" y1="352.9" x2="342.7" y2="340.2"/>
	</g>
	<g>
		<g>
			<line class="st20" x1="258.3" y1="514.8" x2="257.9" y2="502.7"/>
			<line class="st20" x1="258" y1="514.6" x2="270.1" y2="512.9"/>
		</g>
		<line class="st20" x1="247.8" y1="527.1" x2="258.4" y2="514.4"/>
	</g>
	<g>
		<g>
			<line class="st20" x1="237.8" y1="565.7" x2="246.9" y2="557.6"/>
			<line class="st20" x1="237.8" y1="565.4" x2="246.9" y2="573.5"/>
		</g>
		<line class="st20" x1="221.7" y1="565.6" x2="238.2" y2="565.6"/>
	</g>
	<g>
		<g>
			<line class="st20" x1="61" y1="565.7" x2="68.5" y2="559"/>
			<line class="st20" x1="61" y1="565.4" x2="68.5" y2="572.1"/>
		</g>
		<line class="st20" x1="47.7" y1="565.6" x2="61.4" y2="565.6"/>
	</g>
</g>
<g id="PILE">
	<g>
		<line class="st21" x1="177.3" y1="342.7" x2="177.3" y2="288.3"/>
		<polygon class="st22" points="172.8,289.7 177.1,282.3 181.3,289.7 		"/>
	</g>
	<g>
		<line class="st21" x1="176.8" y1="451.3" x2="176.8" y2="505.7"/>
		<polygon class="st22" points="181.3,504.3 177.1,511.7 172.8,504.3 		"/>
	</g>
	<g>
		<line class="st23" x1="336.2" y1="441" x2="364.9" y2="487.2"/>
		<polygon class="st22" points="368.1,483.6 368.3,492.1 360.9,488.1 		"/>
	</g>
	<g>
		<line class="st23" x1="217.7" y1="360" x2="342" y2="262.3"/>
		<polygon class="st22" points="338.2,259.6 346.6,258.4 343.4,266.3 		"/>
	</g>
	<g>
		<line class="st23" x1="360.2" y1="397.8" x2="397" y2="397.8"/>
		<polygon class="st22" points="396.2,393.3 403.6,397.5 396.2,401.7 		"/>
	</g>
	<g>
		<line class="st23" x1="340.2" y1="539.9" x2="303.5" y2="539.9"/>
		<polygon class="st22" points="304.2,544.4 296.9,540.2 304.2,535.9 		"/>
	</g>
	<g>
		<line class="st23" x1="123.9" y1="565.6" x2="105.1" y2="565.6"/>
		<polygon class="st22" points="105.9,570.1 98.6,565.8 105.9,561.6 		"/>
	</g>
	<g>
		<path class="st21" d="M143.3,278.3c0,0-30.3,23.3-60.7,0"/>
		<polygon class="st22" points="81.9,282.6 78.9,274.7 87.3,276 		"/>
	</g>
	<g>
		<path class="st21" d="M77.9,440.7c0,0,30.3,23.3,60.7,0"/>
		<polygon class="st22" points="139.3,444.9 142.3,437 134,438.4 		"/>
	</g>
	<g>
		<path class="st21" d="M208.9,440.7c0,0,30.3,23.3,60.7,0"/>
		<polygon class="st22" points="270.3,444.9 273.3,437 265,438.4 		"/>
	</g>
	<line class="st24" x1="21.7" y1="438" x2="21.7" y2="450.7"/>
	<line class="st25" x1="364.3" y1="305.7" x2="364.3" y2="320.9"/>
	<line class="st25" x1="252.3" y1="366.2" x2="252.3" y2="376.8"/>
	<path class="st22" d="M72.7,445.3"/>
	<g>
		<path class="st21" d="M60.7,448c0,0,14,30,115.3,30s123.3-28,123.3-28"/>
		<polyline class="st22" points="299.8,455.4 302.8,447.5 294.5,448.9 		"/>
	</g>
	<line class="st25" x1="99.6" y1="193" x2="99.6" y2="213.8"/>
	<line class="st25" x1="121.1" y1="203.4" x2="121.1" y2="213.8"/>
	<line class="st25" x1="122.1" y1="250.4" x2="122.1" y2="260.8"/>
</g>
<g id="TXT">
	<text transform="matrix(1 0 0 1 3.3335 233.7778)" class="st26 st27 yText">Inficeret kropscelle</text>
	<text transform="matrix(1 0 0 1 137.3335 233.7777)" class="st26 st27 yText">T-dræberlymfocyt</text>
	<text transform="matrix(1 0 0 1 360.3336 233.7778)" class="st26 st27 yText">T-huskelymfocyt</text>
	<text transform="matrix(1 0 0 1 354.6667 303.3332)" class="st22 st26 st27">Mikroorganisme</text>
	<text transform="matrix(1 0 0 1 -13.6666 460)" class="st22 st26 st27 yText">Mikroorganisme</text>
	<text transform="matrix(1 0 0 1 95.0002 301.3332)" class="st22 st26 st27">Perforin</text>
	<text transform="matrix(1 0 0 1 129.3333 324.6667)" class="st22 st26 st27">Cytokiner</text>
	<text transform="matrix(1 0 0 1 129.3333 496.6667)" class="st22 st26 st27">Cytokiner</text>
	<text transform="matrix(1 0 0 1 238.334 301.3333)" class="st22 st26 st27">Celledeling</text>
	<text transform="matrix(1 0 0 1 366.0012 408.6665)" class="st22 st26 st27">Celle-</text>
	<text transform="matrix(1 0 0 1 366.0012 419.4665)" class="st22 st26 st27">deling</text>
	<text transform="matrix(1 0 0 1 356.1111 462.7654)" class="st22 st26 st27">Celledeling</text>
	<text transform="matrix(1 0 0 1 23.3332 398)" class="st26 st27 yText">Makrofag</text>
	<text transform="matrix(1 0 0 1 137.6653 398)" class="st26 st27 yText">T-hjælpelymfocyt</text>
	<text transform="matrix(1 0 0 1 282.666 398)" class="st26 st27 yText">B-lymfocyt</text>
	<text transform="matrix(1 0 0 1 435.6653 398)" class="st26 st27 yText">B-huskelymfocyt</text>
	<text transform="matrix(1 0 0 1 92.3332 464)" class="st22 st26 st27">Cytokiner</text>
	<text transform="matrix(1 0 0 1 217.9998 464)" class="st22 st26 st27">Cytokiner</text>
	<text transform="matrix(1 0 0 1 370.6665 541.3333)" class="st26 st27 yText">Plasmacelle</text>
	<text transform="matrix(1 0 0 1 235.7657 361.5385)" class="st22 st26 st27">MHC-II</text>
	<text transform="matrix(1 0 0 1 88.0001 189.1867)" class="st22 st26 st27">MHC-I</text>
	<text transform="matrix(1 0 0 1 3.1533 344.5385)" class="st22 st28 st29">1.</text>
	<text transform="matrix(1 0 0 1 130.336 344.5385)" class="st22 st28 st29">2.</text>
	<text transform="matrix(1 0 0 1 130.336 179.6962)" class="st22 st28 st29">3.</text>
	<text transform="matrix(1 0 0 1 353.0991 179.696)" class="st22 st28 st29">4.</text>
	<text transform="matrix(1 0 0 1 274.0027 344.5385)" class="st22 st28 st29">5.</text>
	<text transform="matrix(1 0 0 1 433.6693 344.5385)" class="st22 st28 st29">6.</text>
	<text transform="matrix(1 0 0 1 433.6694 491.9085)" class="st22 st28 st29">7.</text>
	<text transform="matrix(1 0 0 1 130.3361 520.2052)" class="st22 st28 st29">8.</text>
	<text transform="matrix(1 0 0 1 3.3335 520.2056)" class="st22 st28 st29">9.</text>
	<line class="st25" x1="415.3" y1="367.2" x2="415.3" y2="377.8"/>
	<text transform="matrix(1 0 0 1 398.7657 363.5385)" class="st22 st26 st27">MHC-II</text>
	<text transform="matrix(1 0 0 1 112.0001 200.1867)" class="st22 st26 st27">CD8</text>
	<text transform="matrix(1 0 0 1 113.0001 270.1867)" class="st22 st26 st27">TCR</text>
	<line class="st25" x1="102.6" y1="358" x2="102.6" y2="378.8"/>
	<line class="st25" x1="123.1" y1="368.4" x2="123.1" y2="378.8"/>
	<text transform="matrix(1 0 0 1 91.0001 354.1867)" class="st22 st26 st27">MHC-II</text>
	<text transform="matrix(1 0 0 1 114.0001 365.1867)" class="st22 st26 st27">CD4</text>
	<line class="st25" x1="123.1" y1="413.4" x2="123.1" y2="423.8"/>
	<text transform="matrix(1 0 0 1 114.0001 433.1867)" class="st22 st26 st27">TCR</text>
</g>
</svg>
