<?xml version="1.0" encoding="utf-8"?>
<!-- Generator: Adobe Illustrator 21.1.0, SVG Export Plug-In . SVG Version: 6.00 Build 0)  -->
<svg version="1.1" xmlns="http://www.w3.org/2000/svg" xmlns:xlink="http://www.w3.org/1999/xlink" x="0px" y="0px"
	 viewBox="0 0 269.3 481" style="enable-background:new 0 0 269.3 481;" xml:space="preserve">
<style type="text/css">
	.st0{fill:url(#SVGID_1_);}
	.st1{fill:#424241;}
	.st2{fill:none;stroke:#000000;stroke-width:0.25;stroke-miterlimit:10;}
	.st3{fill:#FDE5DA;}
	.st4{fill:url(#SVGID_2_);stroke:#9D9D9C;stroke-width:0.25;stroke-miterlimit:10;}
	.st5{fill:#FFFFFF;stroke:#9D9D9C;stroke-width:0.25;stroke-miterlimit:10;}
	.st6{fill:url(#SVGID_3_);stroke:#9D9D9C;stroke-width:0.25;stroke-miterlimit:10;}
	.st7{fill:#FFFFFF;stroke:#797979;stroke-width:0.25;stroke-miterlimit:10;}
	.st8{opacity:0.4;fill:url(#SVGID_4_);}
	.st9{fill:none;stroke:#B93A18;stroke-width:0.25;stroke-miterlimit:10;}
	.st10{fill:none;stroke:#FFFFFF;stroke-width:0.5;stroke-miterlimit:10;}
	.st11{fill:#FFFFFF;}
	.st12{font-family:'Verdana';}
	.st13{font-size:9px;}
</style>
<g id="Lag_7">
	<linearGradient id="SVGID_1_" gradientUnits="userSpaceOnUse" x1="134.645" y1="481.04" x2="134.645" y2="-9.094947e-13">
		<stop  offset="0" style="stop-color:#BCE4FA"/>
		<stop  offset="6.304273e-02" style="stop-color:#B0DCF7"/>
		<stop  offset="0.367" style="stop-color:#6FBBE9"/>
		<stop  offset="0.5137" style="stop-color:#4EAFE3"/>
		<stop  offset="0.5701" style="stop-color:#4DACE1"/>
		<stop  offset="0.6362" style="stop-color:#48A3DB"/>
		<stop  offset="0.7072" style="stop-color:#4293D0"/>
		<stop  offset="0.7815" style="stop-color:#3C7EC1"/>
		<stop  offset="0.8578" style="stop-color:#3963AD"/>
		<stop  offset="0.8955" style="stop-color:#3954A1"/>
	</linearGradient>
	<rect x="0" class="st0" width="269.3" height="481"/>
</g>
<g id="Lag_6">
	<path d="M15.5,361.4c5.6,1,35.2,8,39.9,8.4s9.4,1.8,13.7,4.1c4.4,2.4,4.6,2.9,8.9,6.7c4.4,3.7,5.3,4.7,19.9,9.7s29.8,10.1,39.6,14
		c9.8,4,31.7,13.2,38.8,13.8c7.1,0.7,13.2,0.9,19.7,1.9c6.5,1,16.3-0.4,24.2-1.4c7.9-1,13.4-1.3,17.9-3.4c4.5-2.1,7-2.5,8.2-3.7
		s1.5-3.9,4.4-3c2.9,0.9,2.8,4.5,1.4,6.6c-1.4,2-2.5,4.3-6.2,4.7c-1.4,3.4-2,5.1-5.4,7.9c-3.3,2.7-9.1,5.2-14.6,6.5
		c-5.5,1.3-8.2,3-11.8,6c-3.6,3-8.1,9.1-11.2,12.4s-8.6,7.2-13.3,3.2c-4.6-4-8-11.6-14.4-14c-6.4-2.4-21.5-6.2-31.7-7.3
		s-29.5-1.4-40.3-4.2S80.7,419.8,73,414.7c-7.8-5.1-14-9.7-19.2-10.1c-5.3-0.3-39,0.1-39,0.1"/>
</g>
<g id="Lag_5">
	<g>
		<path class="st1" d="M131.5,292.5c3.9,3,7.5,5.7,8.4,6.8c0.8,6.8,0.4,5.6,0.3,10.8s0.9,11.8,1.4,20.7c0.6,8.9-0.1,17.5-0.7,20.9
			c-0.5,3.3-2.3,4.1-2.1,6.7c0.2,2.6,0.4,3.6-0.9,6c-1.3,2.4-3.7,4.9-6,7.7s-3.9,5-4.2,7.5c-0.3,2,2.7,7.4,2.7,7.4s-0.6,2.4-1.3,8.1
			s-1.2,10.5-0.5,13.1c0.7,2.6,3.5,4.9,5.2,3.8c1,0.9,3.5,4.4,6.2,2.1c1.3,1,4.9,3,6.2-0.5c1.3-3.5,1.9-5.2,1.9-5.2s0.8,1.8,2.4,2.2
			c1.4,0.3,3.3-1.4,4.1-4.4c0.8-3.1,3.3-9.8,3.7-12.6c0.4-2.8,0.3-3,1.8-6.2c1.5-3.2,1.9-6,1.1-8.8c-0.8-2.8-2.4-4.8-2.6-7.1
			s0.1-2.9,1.1-4.9c1-2,1.6-4.2,1.4-6c-0.2-1.8,1-11.8,2.7-21.5c1.7-9.7,3.8-17.6,4.4-28.6s-0.9-13.7-0.8-15.2
			c0.1-1.5,0.6-2.8-0.5-4.6"/>
		<path class="st2" d="M140.2,382.4c-0.6,2.1-1.6,6-2.4,8.9c-0.8,2.9-1.7,7.2-2.2,10.3c-0.5,3-0.8,9.4-1.8,10.4"/>
		<path class="st2" d="M147.6,385.1c-0.5,1.6-1.7,7-2.6,9.9c-0.9,2.9-1.3,4.5-2.3,8.2c-1,3.7-2,7.3-2.7,10.9"/>
		<path class="st2" d="M153.8,386.8c-0.7,3-0.6,4.6-2,8.7s-2.3,6.8-2.8,8.7c-0.5,1.9-0.8,2.9-1,4.3"/>
		<g>
			<path class="st3" d="M129.6,407.5c0,0,0,1.3,0.6,2.3c0.6,1,0.7,1.4,2.1,1.5c1.3,0.2,1.9,0.3,1.8-0.9s0.3-2.9-0.4-3.1
				c-0.7-0.2-2.8-0.8-3.3-0.7C129.7,406.7,129.6,407.3,129.6,407.5z"/>
			<path class="st3" d="M136.8,409c1,0.4,3,0.7,3.2,1c0.2,0.2,0,2-0.2,2.7c-0.2,0.7-0.2,1.3-1,1.2c-0.8-0.1-2.9-0.4-3.2-1
				S135.6,408.5,136.8,409z"/>
			<path class="st3" d="M143.5,410c1.2,0.5,2.3,0.5,2.2,1.1c-0.1,0.6-0.3,3-0.6,3.3c-0.3,0.3-0.8,0.6-2.1,0.2
				c-1.3-0.3-2.1-0.7-1.9-1.5s0.7-2.3,0.8-2.7C142,409.9,142.2,409.4,143.5,410z"/>
			<path class="st3" d="M151.6,406.3c0.9,0.3,1.5,0.4,1.3,1.2s-0.4,2.4-1,2.3c-0.6-0.1-1.4-0.2-2.1-0.5c-0.8-0.3-0.8-0.7-0.6-1.6
				c0.3-0.8,0.4-1.1,0.9-1.5C150.7,405.9,151.1,406.1,151.6,406.3z"/>
		</g>
	</g>
</g>
<g id="Lag_3">
	<g>
		<path d="M137.5,19.8C138,27,139,30.2,139.8,38s-1.5,16-3.8,24.5s-9.8,20.8-7.2,40.2s9.5,42.5,13.8,56s5.2,17.5,3.2,28.5
			s-1.8,13-1.5,15.5s0.2,4.5-2.2,9s-8.2,9.5-11.5,14.8s-9,16.5,1.2,15.2c1,3.5,3,5,6.2,3.8c2.5,3.8,4.8,3.5,7.8,1.8
			c3,2.8,6.2,5.8,10.8,2.2c4,2,1,2.5,5.8,3.2s9-0.5,10.8-2.5s0.8-4.5,1.8-8s1.8-6.2,1.2-8.2c-0.8-3.2-1-6-1-9.2
			c0-9.7,2.5-11,1.8-15.2s-2-3.5-0.2-9.8s2.2-5.5,0.2-12.8s-4.2-21.5-0.2-38.5s7.2-28.8,7.2-42.5s-6-27.5-4.8-36.2
			s6.2-12.8,8.2-26.2s2.2-24.2,2.2-24.2"/>
		<g>
			<path class="st3" d="M165.8,240.2c2.4,0,3.8,1.1,4.5,2.9s0.1,5.5-0.2,5.5s-9.2,0.2-9.5-0.4s0.2-3.2,0.9-5
				S163.2,240.2,165.8,240.2z"/>
			<path class="st3" d="M150.8,244.9c1.8-0.1,3.1,0.4,3.4,1.9s0.5,2.5-1.2,2.5s-4.4,0.1-4.2-0.4S147.6,245,150.8,244.9z"/>
			<path class="st3" d="M142.9,243.5c1,0,2-0.1,2.5,1.1s0.5,2.4-0.6,2.6s-4,0.4-4.2-0.4S139.8,243.4,142.9,243.5z"/>
			<path class="st3" d="M135.5,241.1c1,0.1,2.1,0.4,2.1,1.6s0.1,1.8-1.5,2s-3.5-0.1-3.4-1.1S132.9,240.9,135.5,241.1z"/>
			<path class="st3" d="M128.8,238.4c0.9,0.2,2,0.2,2,1.4s0.1,1.8-1.2,1.6s-2.5,0.1-2.4-1.1S127.5,238.1,128.8,238.4z"/>
		</g>
	</g>
</g>
<g id="knogler">
	<linearGradient id="SVGID_2_" gradientUnits="userSpaceOnUse" x1="152.1835" y1="192" x2="152.1835" y2="56.25">
		<stop  offset="0" style="stop-color:#000000"/>
		<stop  offset="0.2935" style="stop-color:#FFFFFF"/>
	</linearGradient>
	<path class="st4" d="M149.2,192c0.8-7,3.5-13.8,3.5-16.5s-1.5-23.2-1.8-31.5s-1.5-57.2-1.8-62s-2-10.2-3-13s-2-4.2-1.5-7.2
		s3.8-5.5,3.8-5.5s4.5,5.8,5.5,6.5s1.5,2,1.5,2s-1,2.2-2,4s-0.2,11,0,16.2s1.8,73.8,2,78s0.2,10.5,0.8,12.8s0.5,2.2,0.5,2.2l0.2,1
		l2.8,12.8"/>
	<path class="st5" d="M155.2,19.8c0,0,1,9.5,0.8,11.8s-1.8,5.5-3.8,8.2s-1.9,6.5-1,8c1.2,2.2,7.8,1.8,12.8,1.2s7,0.2,10.5-0.2
		s4.5-8.5,1-12s-6.5-5.2-7.2-8.8s-0.2-8.5-0.2-8.5"/>
	<linearGradient id="SVGID_3_" gradientUnits="userSpaceOnUse" x1="162.6917" y1="197.75" x2="162.6917" y2="48.5278">
		<stop  offset="0" style="stop-color:#000000"/>
		<stop  offset="0.2935" style="stop-color:#FFFFFF"/>
	</linearGradient>
	<path class="st6" d="M152.5,197.8c0,0,0.2-4,1-8.5s4.2-9.8,5.8-14.5s0-27.8,0-33s-1-68-1.5-72S153,61,151,59s-3.5-3.5-3.2-5.5
		s4-4.8,4-4.8s21.5-0.5,22.8,0s4.2,4.8,2.8,6.5s-6.2,7-8,12.5s-3,25.5-3,31.8s-0.2,40.2,0,46.5s0,24.2,0.8,28.8s2.8,10.8,5,15.5
		s1.8,7.2,1.8,7.2"/>
	<path class="st7" d="M167.8,35.5c2,0.4,3.5,1.9,3.8,5.1c0.3,3.2-1.3,7-2.9,8.5c-1.6,1.5-4.1,1.8-6.3,1.2c-2.2-0.6-4.2-1.3-5.3-5.5
		c-1-4.2,0.3-6.7,2.2-8.5C161.3,34.5,166.5,35.3,167.8,35.5z"/>
</g>
<g id="muskel">
	<linearGradient id="SVGID_4_" gradientUnits="userSpaceOnUse" x1="155.8404" y1="212.5" x2="155.8404" y2="19.25">
		<stop  offset="0.2029" style="stop-color:#FFFFFF"/>
		<stop  offset="0.2978" style="stop-color:#F8BDA5"/>
		<stop  offset="0.4036" style="stop-color:#ED6B4D"/>
		<stop  offset="0.478" style="stop-color:#E62F21"/>
		<stop  offset="0.5137" style="stop-color:#E30613"/>
		<stop  offset="0.554" style="stop-color:#E41517"/>
		<stop  offset="0.6012" style="stop-color:#E52C1F"/>
		<stop  offset="0.6519" style="stop-color:#E8462F"/>
		<stop  offset="0.7051" style="stop-color:#ED684A"/>
		<stop  offset="0.7602" style="stop-color:#F29072"/>
		<stop  offset="0.8169" style="stop-color:#F8BEA7"/>
		<stop  offset="0.8739" style="stop-color:#FEEDE5"/>
		<stop  offset="0.8955" style="stop-color:#FFFFFF"/>
	</linearGradient>
	<path class="st8" d="M148.5,19.2c-0.2,6-0.2,18,4.2,29.2s10.5,25,11.8,38s1,22,0.5,40.2s-1.2,31.2,0.5,49.8s5.2,36,5.2,36l-5.2-1.5
		c0,0-3.2-25.8-5.8-43s-8.5-26.2-12.5-49.5s-3.5-37.8-5-45.2s-2-12.5,0-24.2s1-25.2,0.8-29.5"/>
	<path class="st9" d="M148.8,19.2c-0.2,6-0.2,18,4.2,29.2s10.5,25,11.8,38s1,22,0.5,40.2s-1.2,31.2,0.5,49.8s5.2,36,5.2,36l-5.2-1.5
		c0,0-3.2-25.8-5.8-43s-8.5-26.2-12.5-49.5s-3.5-37.8-5-45.2s-2-12.5,0-24.2s1-25.2,0.8-29.5"/>
</g>
<g id="pile">
	<g>
		<g>
			<line class="st10" x1="95.5" y1="395.2" x2="122.4" y2="404.9"/>
			<g>
				<polygon class="st11" points="95.4,397.8 92.1,394 97.1,393.1 				"/>
			</g>
		</g>
	</g>
	<g>
		<g>
			<line class="st10" x1="150.2" y1="415.4" x2="167" y2="421.4"/>
			<g>
				<polygon class="st11" points="165.5,423.5 170.4,422.7 167.2,418.9 				"/>
			</g>
		</g>
	</g>
	<g>
		<g>
			<line class="st10" x1="215.1" y1="106.9" x2="170.3" y2="106.9"/>
			<g>
				<polygon class="st11" points="171,104.4 166.7,106.9 171,109.4 				"/>
			</g>
		</g>
	</g>
	<g>
		<g>
			<line class="st10" x1="214.5" y1="137.7" x2="169.7" y2="137.7"/>
			<g>
				<polygon class="st11" points="170.4,135.2 166.1,137.7 170.4,140.2 				"/>
			</g>
		</g>
	</g>
	<g>
		<g>
			<line class="st10" x1="213.9" y1="169.9" x2="169.1" y2="169.9"/>
			<g>
				<polygon class="st11" points="169.8,167.4 165.5,169.9 169.8,172.4 				"/>
			</g>
		</g>
	</g>
	<line class="st10" x1="152" y1="170.4" x2="81.4" y2="170.4"/>
	<line class="st10" x1="159" y1="138" x2="90.8" y2="138"/>
	<line class="st10" x1="145.4" y1="106.6" x2="126.4" y2="106.6"/>
</g>
<g id="txt">
	<text transform="matrix(1 0 0 1 39.3999 141.5998)" class="st11 st12 st13">Skinneben</text>
	<text transform="matrix(1 0 0 1 40.2002 172.4)" class="st11 st12 st13">Lægben</text>
	<text transform="matrix(1 0 0 1 39.3999 99.9998)"><tspan x="0" y="0" class="st11 st12 st13">Forreste</tspan><tspan x="0" y="10" class="st11 st12 st13">skinnebensmuskel</tspan></text>
</g>
</svg>
