<?xml version="1.0" encoding="utf-8"?>
<!-- Generator: Adobe Illustrator 21.1.0, SVG Export Plug-In . SVG Version: 6.00 Build 0)  -->
<svg version="1.1" xmlns="http://www.w3.org/2000/svg" xmlns:xlink="http://www.w3.org/1999/xlink" x="0px" y="0px"
	 viewBox="0 0 269.3 487.6" style="enable-background:new 0 0 269.3 487.6;" xml:space="preserve">
<style type="text/css">
	.st0{fill:url(#SVGID_1_);}
	.st1{fill:url(#SVGID_2_);stroke:#000000;stroke-width:0.5;}
	.st2{fill:url(#SVGID_3_);stroke:#000000;stroke-width:0.5;}
	.st3{fill:url(#SVGID_4_);stroke:#000000;stroke-width:0.5;}
	.st4{fill:url(#SVGID_5_);stroke:#000000;stroke-width:0.5;}
	.st5{fill:url(#SVGID_6_);stroke:#000000;stroke-width:0.5;}
	.st6{fill:url(#SVGID_7_);stroke:#000000;stroke-width:0.5;}
	.st7{fill:url(#SVGID_8_);stroke:#000000;stroke-width:0.5;}
	.st8{fill:url(#SVGID_9_);stroke:#000000;stroke-width:0.5;}
	.st9{fill:url(#SVGID_10_);stroke:#000000;stroke-width:0.5;}
	.st10{fill:url(#SVGID_11_);stroke:#000000;stroke-width:0.5;}
	.st11{fill:url(#SVGID_12_);stroke:#000000;stroke-width:0.5;}
	.st12{fill:url(#SVGID_13_);stroke:#000000;stroke-width:0.5;}
	.st13{fill:url(#SVGID_14_);stroke:#000000;stroke-width:0.5;}
	.st14{fill:url(#SVGID_15_);stroke:#000000;stroke-width:0.5;}
	.st15{fill:#FFFEF1;stroke:#000000;stroke-width:0.5;}
	.st16{fill:url(#SVGID_16_);stroke:#000000;stroke-width:0.5;}
	.st17{fill:url(#SVGID_17_);stroke:#000000;stroke-width:0.5;}
	.st18{fill:url(#SVGID_18_);stroke:#000000;stroke-width:0.432;}
	.st19{fill:none;stroke:#E2001A;}
	.st20{fill:#FFFFFF;}
	.st21{font-family:'Verdana';}
	.st22{font-size:9px;}
</style>
<g id="Lag_11">
	<linearGradient id="SVGID_1_" gradientUnits="userSpaceOnUse" x1="134.6455" y1="368.0889" x2="134.6455" y2="16">
		<stop  offset="0" style="stop-color:#EE813C"/>
		<stop  offset="1" style="stop-color:#333333"/>
	</linearGradient>
	<rect y="16" class="st0" width="269.3" height="352.1"/>
</g>
<g id="Lag_10">
	<linearGradient id="SVGID_2_" gradientUnits="userSpaceOnUse" x1="171.0444" y1="191.2332" x2="171.0444" y2="157.8691">
		<stop  offset="0" style="stop-color:#F1AA82"/>
		<stop  offset="8.328609e-02" style="stop-color:#EEA179"/>
		<stop  offset="0.224" style="stop-color:#E68960"/>
		<stop  offset="0.4049" style="stop-color:#D9613F"/>
		<stop  offset="0.617" style="stop-color:#C92220"/>
		<stop  offset="0.6573" style="stop-color:#C6071C"/>
	</linearGradient>
	<path class="st1" d="M184.9,157.9c0,0-19.5,19.5-46.5,29.6c25.2,4.4,44,3.8,44,3.8l21.4-19.5L184.9,157.9z"/>
	<linearGradient id="SVGID_3_" gradientUnits="userSpaceOnUse" x1="170.7295" y1="193.0889" x2="170.7295" y2="152.2085">
		<stop  offset="0.1685" style="stop-color:#F9DDC5"/>
		<stop  offset="0.2252" style="stop-color:#F7D5BB"/>
		<stop  offset="0.3211" style="stop-color:#F3BFA0"/>
		<stop  offset="0.4443" style="stop-color:#EB9B75"/>
		<stop  offset="0.5903" style="stop-color:#E06542"/>
		<stop  offset="0.7528" style="stop-color:#D50019"/>
	</linearGradient>
	<path class="st2" d="M162.9,152.2c0,0,20.8,34,31.4,34.6c-16.4,5.7-20.8,6.3-20.8,6.3s-25.2-24.5-26.4-34.6
		C157.8,155.4,162.9,152.2,162.9,152.2z"/>
</g>
<g id="Femur_x2C__tibia_x2C__fibula">
	<linearGradient id="SVGID_4_" gradientUnits="userSpaceOnUse" x1="92.8066" y1="266.9725" x2="136.334" y2="266.9725">
		<stop  offset="0.3652" style="stop-color:#FBF2E7"/>
		<stop  offset="1" style="stop-color:#E7D7C4"/>
	</linearGradient>
	<path class="st3" d="M110,331.7c-0.3-3.7-1.7-28.3-2.7-39.3S101,256,97,249.3c-4-6.7-4-14-4-16.3c0-2.3-1.3-2.3,3-18.7
		s14.7-11.3,14.7-11.3l25.7,35.3c0,0-4,11.7-5,22c-1,10.3-3,49.7-1,71.3"/>
	<linearGradient id="SVGID_5_" gradientUnits="userSpaceOnUse" x1="101.3705" y1="118.3413" x2="241.09" y2="118.3413">
		<stop  offset="1.123600e-02" style="stop-color:#E7D7C4"/>
		<stop  offset="0.5112" style="stop-color:#FFF5EA"/>
		<stop  offset="1" style="stop-color:#E7D7C4"/>
	</linearGradient>
	<path class="st4" d="M125,53c0,0-0.7,46.3-10,59.7s-11.7,14.7-13,20c-1.3,5.3-0.3,21,1,28.3c1.3,7.3,5,21.7,13.3,23
		c8.3,1.3,21.3-1,29.3-9.7c8-8.7,19.3-22.7,30.3-17s17,13.7,20.3,16.3c3.3,2.7,19.3,11.3,25.7,9c6.3-2.3,12-5.7,14-18.3
		c2-12.7,3.3-18.3,4-27.3s1.7-14,0.7-18.3s-3.3-7-9.3-10.3c-6-3.3-14.3-8-18.7-15.3c-4.3-7.3-10.3-15-11.7-22s-3.7-18.7-3.7-18.7"/>
	<linearGradient id="SVGID_6_" gradientUnits="userSpaceOnUse" x1="108.2729" y1="261.0137" x2="231.8223" y2="261.0137">
		<stop  offset="1.123600e-02" style="stop-color:#E7D7C4"/>
		<stop  offset="0.5562" style="stop-color:#FFF5EA"/>
		<stop  offset="1" style="stop-color:#E7D7C4"/>
	</linearGradient>
	<path class="st5" d="M153.7,330.7c0,0-2.3-38.7-5.7-50c-3.3-11.3-9-28.3-15.7-37c-6.7-8.7-15.7-16.3-19.3-22.7
		c-3.7-6.3-3.3-14.3-4-19.3c-0.7-5-2.3-9.3,3.7-8c6,1.3,39.7,0,46,0.3c6.3,0.3,9.3,0.7,17.3,0.3s17.3-3.7,26-2.7s16.3,2.3,22.3,1
		c6-1.3,8.7-3,7,2.7c-1.7,5.7-7.7,21.7-9.7,28c-2,6.3-9.3,49.3-10,65.7c-0.7,16.3-0.3,37.3,0.3,40.3"/>
	<linearGradient id="SVGID_7_" gradientUnits="userSpaceOnUse" x1="150.5" y1="114.8792" x2="187.334" y2="114.8792">
		<stop  offset="1.123600e-02" style="stop-color:#D6C7B7"/>
		<stop  offset="8.455251e-02" style="stop-color:#E0D3C3"/>
		<stop  offset="0.2359" style="stop-color:#F1E6D9"/>
		<stop  offset="0.3808" style="stop-color:#FBF1E6"/>
		<stop  offset="0.5112" style="stop-color:#FFF5EA"/>
		<stop  offset="0.6976" style="stop-color:#FDF3E8"/>
		<stop  offset="0.8064" style="stop-color:#F7ECE0"/>
		<stop  offset="0.8954" style="stop-color:#ECE0D2"/>
		<stop  offset="0.9731" style="stop-color:#DDCFBF"/>
		<stop  offset="1" style="stop-color:#D6C7B7"/>
	</linearGradient>
	<path class="st6" d="M160.7,98.2c0,0,0.8-2-1,8.7c-1.8,10.7-9.2,16.2-9.2,16.2s13.3,7.3,16.3,8s10.2,1,13.2,0.5s7.3-1,7.3-1
		l-0.2-0.5c0,0-7.7-12.5-9.5-19.8c-1.8-7.3-2.2-10.8-2.2-10.8"/>
</g>
<g id="Lag_8">
	<linearGradient id="SVGID_8_" gradientUnits="userSpaceOnUse" x1="108.3732" y1="189.6774" x2="224" y2="189.6774">
		<stop  offset="0" style="stop-color:#008685"/>
		<stop  offset="0.1207" style="stop-color:#008988"/>
		<stop  offset="0.2958" style="stop-color:#009191"/>
		<stop  offset="0.5039" style="stop-color:#19A0A0"/>
		<stop  offset="0.7374" style="stop-color:#6CB8B6"/>
		<stop  offset="0.9893" style="stop-color:#ABD8D5"/>
		<stop  offset="1" style="stop-color:#ADDAD6"/>
	</linearGradient>
	<path class="st7" d="M224,183.3c0,0-0.4,0-1,0c-4.4,0-22.3,0.2-29,1.7c-7.7,1.7-14.7,5-30,3s-29.3-2.7-34.7-3
		c-5.3-0.3-9.7-1-13.3-1c-3.7,0-7-1-7,2s-2.7,6.7,3,7.3c5.7,0.7,24.7,1,30,0.7c5.3-0.3,20,1.7,25,2c5,0.3,18-3.3,23-5
		c5-1.7,28-5.3,31-5.3S224,183.3,224,183.3z"/>
</g>
<g id="Lag_9">
	<linearGradient id="SVGID_9_" gradientUnits="userSpaceOnUse" x1="104.1644" y1="235.3335" x2="104.1644" y2="119.6665">
		<stop  offset="0" style="stop-color:#FFF9C7"/>
		<stop  offset="7.399639e-02" style="stop-color:#FFF8C4"/>
		<stop  offset="0.1311" style="stop-color:#FFF1B9"/>
		<stop  offset="0.1825" style="stop-color:#FDE7A8"/>
		<stop  offset="0.2305" style="stop-color:#F9D98F"/>
		<stop  offset="0.2763" style="stop-color:#F4C66F"/>
		<stop  offset="0.3203" style="stop-color:#EEAF48"/>
		<stop  offset="0.3621" style="stop-color:#E59517"/>
		<stop  offset="0.3764" style="stop-color:#E28B00"/>
		<stop  offset="0.5996" style="stop-color:#EB9100"/>
		<stop  offset="0.736" style="stop-color:#F39600"/>
		<stop  offset="0.7388" style="stop-color:#F49B00"/>
		<stop  offset="0.7569" style="stop-color:#F8B23E"/>
		<stop  offset="0.7767" style="stop-color:#FBC664"/>
		<stop  offset="0.7981" style="stop-color:#FED683"/>
		<stop  offset="0.8215" style="stop-color:#FFE39D"/>
		<stop  offset="0.8479" style="stop-color:#FFEDB0"/>
		<stop  offset="0.879" style="stop-color:#FFF4BD"/>
		<stop  offset="0.9189" style="stop-color:#FFF8C5"/>
		<stop  offset="1" style="stop-color:#FFF9C7"/>
	</linearGradient>
	<path class="st8" d="M111.9,133.6l2.6-2.4l-3.9-0.4l2.8-2.8l-4.1-0.2l2.4-3.2l-3.8-0.2l1.8-4.7c0,0-0.1,0.1-0.3,0.3
		c-1.6,1.6-8.2,9-9.7,23c-1.7,16-2,28-1.3,35.3c0.7,7.3,1,23.7-1,30.7s-3.7,11.7-4.3,17.3s0,9,0,9l1.5-4.6l1.5,4.4l0.7-3.7l1.7,3.5
		l0.8-3.9l2.4,3.7c0,0-2.7-9.3-1.3-14.7c0.6,1.1,1.4,2.1,1.4,2.1l0.6-1.8l1.8,1.6l0.4-2.5l2.1,1.5l0.2-3.2l1.8,1.1
		c0,0-3.8-17.5-4.8-27.2c-1-9.7-0.7-12-1.3-20.3c-0.7-8.3,1-18.3,2.7-24c1.7-5.7,4.6-9.5,10.3-12.2
		C115.5,134.7,111.9,133.6,111.9,133.6z"/>
</g>
<g id="Lag_5">
	<linearGradient id="SVGID_10_" gradientUnits="userSpaceOnUse" x1="272.083" y1="195" x2="272.083" y2="195">
		<stop  offset="0.5787" style="stop-color:#1A2C68"/>
		<stop  offset="0.6155" style="stop-color:#403565"/>
		<stop  offset="0.6956" style="stop-color:#81565A"/>
		<stop  offset="0.8123" style="stop-color:#E09C27"/>
		<stop  offset="0.8427" style="stop-color:#F9B200"/>
	</linearGradient>
	<path class="st9" d="M272.1,195"/>
	<linearGradient id="SVGID_11_" gradientUnits="userSpaceOnUse" x1="272.417" y1="194.8335" x2="272.417" y2="194.8335">
		<stop  offset="0.5787" style="stop-color:#1A2C68"/>
		<stop  offset="0.6155" style="stop-color:#403565"/>
		<stop  offset="0.6956" style="stop-color:#81565A"/>
		<stop  offset="0.8123" style="stop-color:#E09C27"/>
		<stop  offset="0.8427" style="stop-color:#F9B200"/>
	</linearGradient>
	<path class="st10" d="M272.4,194.8"/>
	<linearGradient id="SVGID_12_" gradientUnits="userSpaceOnUse" x1="184.2149" y1="161.6421" x2="238.0884" y2="171.1415">
		<stop  offset="0.6685" style="stop-color:#008685"/>
		<stop  offset="0.6952" style="stop-color:#008C7C"/>
		<stop  offset="0.7532" style="stop-color:#7D9B61"/>
		<stop  offset="0.8376" style="stop-color:#E4AE19"/>
		<stop  offset="0.8596" style="stop-color:#F9B200"/>
	</linearGradient>
	<path class="st11" d="M178.7,194.8c0,0,16.2-7,23.7-8.7c7.5-1.7,18.5-1.8,22.3-4.5c3.8-2.7,7.8-4.3,10.3-16
		c2.5-11.7,3-15.5,3.5-20.3s0.7-4.3,0.3-7.5c-0.3-3.2-1-4.5-2.2-6.7c-1.2-2.2-2.7-4.5-3.7-5.8c-1-1.3-2.5-2.2-2.5-2.2l4.5,1.8
		l-2.3-3l3.4,1.4l-1.5-3.1c0,0,6.2,5.2,7.3,12.2c0.9,5.6-0.2,12.2-1.3,19.7c-1.2,7.5-1.7,15.2-2.8,19.7c-1.2,4.5-3.2,10.8-4.8,13
		c1.2,3.2,2.2,8-0.3,14.7s-3.3,8.7-5.7,12.5c-2.3,3.8-6,6.7-6,6.7l2.1-4.2l-2.6,1.5l2-3.9l-2.5,1l1.6-3l-2.1-0.2
		c0,0,4.7-3.2,6.5-5.5c1.8-2.3,4.7-7.3,4.7-9.3s0.5-3-1.7-2.7c-2.2,0.3-12.2,1.5-16.3,1.3c-4.2-0.2-11.2,0.2-14.7,1.3
		s-8.4,3.6-8.4,3.6l0-1.8l-2.2,0.6l-0.3-1.8l-3.1,0.4l0.5-1.5l-6.2,0.6"/>
	<linearGradient id="SVGID_13_" gradientUnits="userSpaceOnUse" x1="215.1748" y1="208.4105" x2="238.8252" y2="194.756">
		<stop  offset="0.3933" style="stop-color:#FFF9C7"/>
		<stop  offset="0.4403" style="stop-color:#FFF5BB"/>
		<stop  offset="0.5263" style="stop-color:#FFE79B"/>
		<stop  offset="0.6417" style="stop-color:#FED163"/>
		<stop  offset="0.7807" style="stop-color:#F9B400"/>
		<stop  offset="0.7921" style="stop-color:#F9B200"/>
	</linearGradient>
	<path class="st12" d="M233,184.7c1.2,3.2,2.2,8-0.3,14.7s-3.3,8.7-5.7,12.5c-2.3,3.8-6,6.7-6,6.7l2.1-4.2l-2.6,1.5l2-3.9l-2.5,1
		l1.6-3l-2.1-0.2c0,0,4.7-3.2,6.5-5.5c1.8-2.3,4.7-7.3,4.7-9.3s0.5-3-1.7-2.7"/>
	<linearGradient id="SVGID_14_" gradientUnits="userSpaceOnUse" x1="236.419" y1="171.4165" x2="236.419" y2="119.9165">
		<stop  offset="0.3315" style="stop-color:#F9B200"/>
		<stop  offset="0.3699" style="stop-color:#FCC43E"/>
		<stop  offset="0.4094" style="stop-color:#FED46B"/>
		<stop  offset="0.4501" style="stop-color:#FFE28D"/>
		<stop  offset="0.4917" style="stop-color:#FFECA7"/>
		<stop  offset="0.5345" style="stop-color:#FFF4B9"/>
		<stop  offset="0.5793" style="stop-color:#FFF8C4"/>
		<stop  offset="0.6292" style="stop-color:#FFF9C7"/>
	</linearGradient>
	<path class="st13" d="M234.9,166.2c2.5-11.7,3.1-16.3,3.6-21.2s0.7-4.3,0.3-7.5c-0.3-3.2-1-4.5-2.2-6.7c-1.2-2.2-2.7-4.5-3.7-5.8
		c-1-1.3-2.5-2.2-2.5-2.2l4.5,1.8l-2.3-3l3.4,1.4l-1.5-3.1c0,0,6.2,5.2,7.3,12.2c0.9,5.6-0.2,12.2-1.3,19.7
		c-1.2,7.5-1.7,15.2-2.8,19.7"/>
</g>
<g id="Lag_7">
	<linearGradient id="SVGID_15_" gradientUnits="userSpaceOnUse" x1="233.0358" y1="237.5" x2="233.0358" y2="110.25">
		<stop  offset="0.4888" style="stop-color:#F29400"/>
		<stop  offset="0.5548" style="stop-color:#F8B03E"/>
		<stop  offset="0.6225" style="stop-color:#FBC768"/>
		<stop  offset="0.6924" style="stop-color:#FEDA8B"/>
		<stop  offset="0.7639" style="stop-color:#FFE8A6"/>
		<stop  offset="0.8373" style="stop-color:#FFF2B9"/>
		<stop  offset="0.9142" style="stop-color:#FFF8C4"/>
		<stop  offset="1" style="stop-color:#FFF9C7"/>
	</linearGradient>
	<path class="st14" d="M234.2,116.8c0,0,7.2,10.5,7.5,16.2s-1.5,21.2-3,29.5S236,177.8,235,182s-1.5,15-4.5,22.5s-6.8,17.2-9.5,24
		s3.8,9,3.8,9s0.8-3.2,5.2-16.5s7-23.2,10.2-41.2s5.5-31.5,5.5-41.8s-1-13-4.5-20c-3-6-7.5-7.8-7.5-7.8l4.5,6.2l-4.5-3.8l4.5,5.2
		l-5.2-3.5l3.8,4L234.2,116.8z"/>
</g>
<g id="brusk">
	<path class="st15" d="M110.5,180.5c0,0,9,0.2,10.3-3.7c1.3-3.8,0.7-20.3,2.7-29.7c2-9.3,9-27.7,17.2-26.8c8.2,0.8,19,7.7,23.8,10
		c4.8,2.3,18.2,1.2,22.2,0.3c4-0.8,12.2-0.8,16.2,9.2s6.3,17.5,7.2,22s2.8,15,7.8,16.3c5,1.3,9.8,1.6,12.6-1.2
		c-4.8,4-4.9,5.6-10.8,6.2c-4,0.5-12.5-3.3-15.3-5c-2.8-1.7-8-4-11.5-7.7c-3.5-3.7-13-12.5-18.8-14s-11.5,1.3-17.5,6.7
		c-6,5.3-12.7,13.5-15.3,15.2c-2.7,1.7-10.7,5.7-17,6C117.8,184.7,113,184.3,110.5,180.5z"/>
</g>
<g id="Lag_6">
	<linearGradient id="SVGID_16_" gradientUnits="userSpaceOnUse" x1="168.4377" y1="279.834" x2="168.4377" y2="230.8422">
		<stop  offset="0.1685" style="stop-color:#FBF2E7"/>
		<stop  offset="0.2573" style="stop-color:#FAEEDF"/>
		<stop  offset="0.4073" style="stop-color:#F8E5C8"/>
		<stop  offset="0.6003" style="stop-color:#F5D5A1"/>
		<stop  offset="0.8261" style="stop-color:#F0C06A"/>
		<stop  offset="1" style="stop-color:#EAAE38"/>
	</linearGradient>
	<path class="st16" d="M158.8,279.8c0,0,4.5-29.8,7.5-36.8s11.2-18.3,11.7-8c0.5,10.3-3.7,34.7-5.2,43.7"/>
	<linearGradient id="SVGID_17_" gradientUnits="userSpaceOnUse" x1="204.7812" y1="330" x2="204.7812" y2="223.1665">
		<stop  offset="2.808990e-02" style="stop-color:#FFFDEE"/>
		<stop  offset="0.2948" style="stop-color:#FDD78E"/>
		<stop  offset="0.5112" style="stop-color:#F9B93A"/>
		<stop  offset="0.7117" style="stop-color:#FEDC96"/>
		<stop  offset="0.8614" style="stop-color:#FFF3CE"/>
		<stop  offset="0.9326" style="stop-color:#FFFCE3"/>
		<stop  offset="1" style="stop-color:#FFFFFF"/>
	</linearGradient>
	<path class="st17" d="M183.2,330c0,0-2.7-11-4.2-14.3c-1.5-3.3-8.3-17.5-8.3-23.5s4.2-23.2,5.3-32.7s2.5-25,1.8-26.5
		c-0.7-1.5-1-2.2-2.2-2.3c2.5-1.5,7.7-2.8,13.3-2.2c5.7,0.7,9.2-0.5,11.3-1.5s12.8-3.8,15.8-3.8s8.3,0.5,9.8,3.7s7.3,24.2,9,27.8
		c1.7,3.7,4.3,48.8,3.8,54.7c-0.5,5.8-1,14.3-1.8,20"/>
	<radialGradient id="SVGID_18_" cx="205.6462" cy="285.4886" r="34.4701" gradientUnits="userSpaceOnUse">
		<stop  offset="0.1685" style="stop-color:#FFFEFA"/>
		<stop  offset="0.7079" style="stop-color:#F2E7CC"/>
		<stop  offset="0.8215" style="stop-color:#F2E4B4"/>
		<stop  offset="0.9157" style="stop-color:#F2E1A1"/>
	</radialGradient>
	<path class="st18" d="M202.8,250.5c4.8-0.1,11.2,1.9,14.8,5.2c3.6,3.3,14.5,18.1,16.8,22.3c2.3,4.2,8.2,14.4,3.2,22.8
		c-5,8.4-12.4,16.3-16.3,18c-3.9,1.7-17.1,1.9-25.1,1.6c-7.9-0.3-16.1-5.6-18.4-7.9c-2.3-2.3-5.5-9.8-5.9-14.5
		c-0.4-4.8-0.9-13.7,3.3-20.7c4.2-7.1,11.4-17.3,14.1-19.9C192.1,254.7,198,250.7,202.8,250.5z"/>
</g>
<g id="Lag_12">
	<line class="st19" x1="93.1" y1="80.3" x2="182.4" y2="166.4"/>
	<line class="st19" x1="93.7" y1="100.9" x2="163.6" y2="166.2"/>
	<line class="st19" x1="59.1" y1="124.9" x2="101.2" y2="148.2"/>
	<line class="st19" x1="58.5" y1="169.6" x2="114.4" y2="188.4"/>
	<line class="st19" x1="62.2" y1="196.6" x2="207.5" y2="189.7"/>
	<line class="st19" x1="61.6" y1="240.5" x2="225.5" y2="208.9"/>
	<line class="st19" x1="62.9" y1="281.4" x2="228.9" y2="219.1"/>
</g>
<g id="txt">
	<text transform="matrix(1 0 0 1 8.1509 82.8994)" class="st20 st21 st22">Bageste korsbånd</text>
	<text transform="matrix(1 0 0 1 8.1509 101.1377)" class="st20 st21 st22">Forreste korsbånd</text>
	<text transform="matrix(1 0 0 1 8.1509 126.8428)"><tspan x="0" y="0" class="st20 st21 st22">Udvendige </tspan><tspan x="0" y="10.8" class="st20 st21 st22">sideledbånd</tspan></text>
	<text transform="matrix(1 0 0 1 187.2373 285.9307)"><tspan x="0" y="0" class="st21 st22">Knæskal</tspan><tspan x="-11.5" y="10.8" class="st21 st22">(klappet ned)</tspan></text>
	<text transform="matrix(1 0 0 1 8.1509 170.5479)"><tspan x="0" y="0" class="st20 st21 st22">Udvendige </tspan><tspan x="0" y="10.8" class="st20 st21 st22">menisk</tspan></text>
	<text transform="matrix(1 0 0 1 8.1509 198.6221)"><tspan x="0" y="0" class="st20 st21 st22">Indvendige </tspan><tspan x="0" y="10.8" class="st20 st21 st22">menisk</tspan></text>
	<text transform="matrix(1 0 0 1 8.1509 244.8428)"><tspan x="0" y="0" class="st20 st21 st22">Indvendige</tspan><tspan x="0" y="10.8" class="st20 st21 st22">sideledbånd</tspan><tspan x="0" y="21.6" class="st20 st21 st22">(dybe del)</tspan></text>
	<text transform="matrix(1 0 0 1 8.1509 283.7549)"><tspan x="0" y="0" class="st20 st21 st22">Indvendige</tspan><tspan x="0" y="10.8" class="st20 st21 st22">sideledbånd</tspan><tspan x="0" y="21.6" class="st20 st21 st22">(overfladiske del)</tspan></text>
	<text transform="matrix(1 0 0 1 146.6289 207.0381)" class="st21 st22">Skinneben</text>
	<text transform="matrix(1 0 0 1 150.7734 66.414)" class="st21 st22">Lårben</text>
	<text transform="matrix(1 0 0 1 95.9434 245.6602)" class="st21 st22">Lægben</text>
</g>
</svg>
