<?xml version="1.0" encoding="utf-8"?>
<!-- Generator: Adobe Illustrator 19.1.0, SVG Export Plug-In . SVG Version: 6.00 Build 0)  -->
<svg version="1.1" xmlns="http://www.w3.org/2000/svg" xmlns:xlink="http://www.w3.org/1999/xlink" x="0px" y="0px"
	 viewBox="0 0 269.3 481" style="enable-background:new 0 0 269.3 481;" xml:space="preserve">
<style type="text/css">
	.st0{fill:#2A549E;}
	.st1{fill:#0082A8;}
	.st2{fill:#73A6D4;}
	.st3{fill:#47A5AA;}
	.st4{fill:#5C66A8;}
	.st5{fill:#5A7BB8;}
	.st6{fill:#FFFFFF;stroke:#000000;stroke-width:0.9703;}
	.st7{stroke:#000000;stroke-width:0.9703;}
	.st8{fill:#FFFFFF;stroke:#000000;}
	.st9{fill:#FFFFFF;stroke:#000000;stroke-width:0.8339;}
	.st10{stroke:#000000;stroke-width:0.8339;}
	.st11{fill:#95418E;stroke:#000000;}
	.st12{fill:#FFFFFF;stroke:#000000;stroke-width:0.931;}
	.st13{stroke:#000000;stroke-width:0.931;}
	.st14{fill:#95418E;}
	.st15{fill:none;stroke:#FFFFFF;}
	.st16{fill:#FFFFFF;}
	.st17{fill:#95418E;stroke:#000000;stroke-width:0.8296;}
	.st18{font-family:'Verdana';}
	.st19{font-size:9px;}
</style>
<g id="Lag_4">
	<rect class="st0" width="134.6" height="164.7"/>
	<rect x="134.6" class="st1" width="134.6" height="164.7"/>
	<rect y="316.4" class="st2" width="134.6" height="164.7"/>
	<rect x="134.6" y="316.4" class="st3" width="134.6" height="164.7"/>
	<rect y="162.8" class="st4" width="134.6" height="155.9"/>
	<rect x="134.6" y="162.8" class="st5" width="134.6" height="155.9"/>
</g>
<g id="Lag_1">
	<g>
		<path class="st6" d="M24.7,86.6c0,0-13,65.2,0.8,65.2c13.8,0.1,0.8-65.1,0.8-65.1l0-0.2c0,0,13.5-65.2-0.3-65.2
			C12.3,21.3,24.7,86.6,24.7,86.6z"/>
		<path class="st6" d="M24.7,86.6c0,0-13,65.2,0.8,65.2c13.8,0.1,0.8-65.1,0.8-65.1l0-0.2c0,0,13.5-65.2-0.3-65.2
			C12.3,21.3,24.7,86.6,24.7,86.6z"/>
	</g>
	<g>
		<path class="st6" d="M105.1,86.6c0,0-13,65.2,0.8,65.2c13.8,0.1,0.8-65.1,0.8-65.1l0-0.2c0,0,13.5-65.2-0.3-65.2
			C92.6,21.3,105.1,86.6,105.1,86.6z"/>
		<path class="st6" d="M105.1,86.6c0,0-13,65.2,0.8,65.2c13.8,0.1,0.8-65.1,0.8-65.1l0-0.2c0,0,13.5-65.2-0.3-65.2
			C92.6,21.3,105.1,86.6,105.1,86.6z"/>
	</g>
	<g>
		<path class="st6" d="M160.1,86.6c0,0-13,65.2,0.8,65.2c13.8,0.1,0.8-65.1,0.8-65.1l0-0.2c0,0,13.5-65.2-0.3-65.2
			C147.6,21.3,160.1,86.6,160.1,86.6z"/>
		<path class="st6" d="M160.1,86.6c0,0-13,65.2,0.8,65.2c13.8,0.1,0.8-65.1,0.8-65.1l0-0.2c0,0,13.5-65.2-0.3-65.2
			C147.6,21.3,160.1,86.6,160.1,86.6z"/>
	</g>
	<g>
		<path class="st6" d="M234.4,86.6c0,0-13,65.2,0.8,65.2c13.8,0.1,0.8-65.1,0.8-65.1l0-0.2c0,0,13.5-65.2-0.3-65.2
			C222,21.3,234.4,86.6,234.4,86.6z"/>
		<path class="st6" d="M234.4,86.6c0,0-13,65.2,0.8,65.2c13.8,0.1,0.8-65.1,0.8-65.1l0-0.2c0,0,13.5-65.2-0.3-65.2
			C222,21.3,234.4,86.6,234.4,86.6z"/>
	</g>
	<g>
		<path class="st6" d="M24.7,240.6c0,0-13,65.2,0.8,65.2c13.8,0.1,0.8-65.1,0.8-65.1l0-0.2c0,0,13.5-65.2-0.3-65.2
			C12.3,175.3,24.7,240.6,24.7,240.6z"/>
		<path class="st6" d="M24.7,240.6c0,0-13,65.2,0.8,65.2c13.8,0.1,0.8-65.1,0.8-65.1l0-0.2c0,0,13.5-65.2-0.3-65.2
			C12.3,175.3,24.7,240.6,24.7,240.6z"/>
	</g>
	<g>
		<path class="st6" d="M105.1,240.6c0,0-13,65.2,0.8,65.2c13.8,0.1,0.8-65.1,0.8-65.1l0-0.2c0,0,13.5-65.2-0.3-65.2
			C92.6,175.3,105.1,240.6,105.1,240.6z"/>
		<path class="st6" d="M105.1,240.6c0,0-13,65.2,0.8,65.2c13.8,0.1,0.8-65.1,0.8-65.1l0-0.2c0,0,13.5-65.2-0.3-65.2
			C92.6,175.3,105.1,240.6,105.1,240.6z"/>
	</g>
	<g>
		<path class="st7" d="M160.1,245.3c0,0-13,60.5,0.8,60.5c13.8,0,0.8-60.4,0.8-60.4l0-0.2c0,0,13.5-60.5-0.3-60.5
			C147.6,184.8,160.1,245.3,160.1,245.3z"/>
		<path class="st7" d="M160.1,245.3c0,0-13,60.5,0.8,60.5c13.8,0,0.8-60.4,0.8-60.4l0-0.2c0,0,13.5-60.5-0.3-60.5
			C147.6,184.8,160.1,245.3,160.1,245.3z"/>
	</g>
	<g>
		<path class="st8" d="M178.9,236.7c0,0-6.4,32,0.4,32c6.8,0,0.4-31.9,0.4-31.9l0-0.1c0,0,6.6-32-0.2-32
			C172.8,204.7,178.9,236.7,178.9,236.7z"/>
		<path class="st8" d="M178.9,236.7c0,0-6.4,32,0.4,32c6.8,0,0.4-31.9,0.4-31.9l0-0.1c0,0,6.6-32-0.2-32
			C172.8,204.7,178.9,236.7,178.9,236.7z"/>
	</g>
	<g>
		<path class="st8" d="M251.9,240.5c0,0-6.4,28.2,0.4,28.2c6.8,0,0.4-28.2,0.4-28.2l0-0.1c0,0,6.6-28.2-0.2-28.2
			C245.8,212.2,251.9,240.5,251.9,240.5z"/>
		<path class="st8" d="M251.9,240.5c0,0-6.4,28.2,0.4,28.2c6.8,0,0.4-28.2,0.4-28.2l0-0.1c0,0,6.6-28.2-0.2-28.2
			C245.8,212.2,251.9,240.5,251.9,240.5z"/>
	</g>
	<g>
		<path class="st7" d="M234.4,240.6c0,0-13,65.2,0.8,65.2c13.8,0.1,0.8-65.1,0.8-65.1l0-0.2c0,0,13.5-65.2-0.3-65.2
			C222,175.3,234.4,240.6,234.4,240.6z"/>
		<path class="st7" d="M234.4,240.6c0,0-13,65.2,0.8,65.2c13.8,0.1,0.8-65.1,0.8-65.1l0-0.2c0,0,13.5-65.2-0.3-65.2
			C222,175.3,234.4,240.6,234.4,240.6z"/>
	</g>
	<g>
		<path class="st7" d="M24.7,400.6c0,0-13,65.2,0.8,65.2c13.8,0.1,0.8-65.1,0.8-65.1l0-0.2c0,0,13.5-65.2-0.3-65.2
			C12.3,335.3,24.7,400.6,24.7,400.6z"/>
		<path class="st7" d="M24.7,400.6c0,0-13,65.2,0.8,65.2c13.8,0.1,0.8-65.1,0.8-65.1l0-0.2c0,0,13.5-65.2-0.3-65.2
			C12.3,335.3,24.7,400.6,24.7,400.6z"/>
	</g>
	<g>
		<path class="st9" d="M226,393.1l0-0.1c0,0-8.3-56.6-19.4-52.6c-11.2,4,18.1,53.1,18.1,53.1"/>
		<path class="st10" d="M226,393.1l0-0.1c0,0-8.3-56.6-19.4-52.6c-11.2,4,18.1,53.1,18.1,53.1"/>
	</g>
	<g>
		<path class="st6" d="M166.1,401.1l-0.1-0.2c0,0-9.6-65.8-22.6-61.2c-13,4.7,21,61.8,21,61.8"/>
		<path class="st7" d="M166.1,401.1l-0.1-0.2c0,0-9.6-65.8-22.6-61.2c-13,4.7,21,61.8,21,61.8"/>
	</g>
	<g>
		<path class="st11" d="M225.4,393.4l0.1-0.1c0,0,30-48.7,18.9-52.8c-11.1-4.1-20.3,52.3-20.3,52.3"/>
		<path class="st11" d="M225.4,393.4l0.1-0.1c0,0,30-48.7,18.9-52.8c-11.1-4.1-20.3,52.3-20.3,52.3"/>
	</g>
	<g>
		<path class="st11" d="M166.9,401.4l0.1-0.2c0,0,34.9-56.6,22-61.4c-12.9-4.8-23.6,60.8-23.6,60.8"/>
		<path class="st11" d="M166.9,401.4l0.1-0.2c0,0,34.9-56.6,22-61.4c-12.9-4.8-23.6,60.8-23.6,60.8"/>
	</g>
	<g>
		<path class="st11" d="M236,404.3c0,0,9.7,63,22.2,58.6c12.5-4.5-20.6-59-20.6-59l-0.1-0.2"/>
		<path class="st11" d="M236,404.3c0,0,9.7,63,22.2,58.6c12.5-4.5-20.6-59-20.6-59l-0.1-0.2"/>
	</g>
	<g>
		<path class="st11" d="M165.3,401.4c0,0,10.1,65.7,23.1,61c13-4.7-21.5-61.5-21.5-61.5l-0.1-0.2"/>
		<path class="st11" d="M165.3,401.4c0,0,10.1,65.7,23.1,61c13-4.7-21.5-61.5-21.5-61.5l-0.1-0.2"/>
	</g>
	<g>
		<path class="st12" d="M236.6,403.8c0,0-33.1,54.5-20.7,59.1c12.4,4.6,22.1-58.4,22.1-58.4l0.1-0.2"/>
		<path class="st13" d="M236.6,403.8c0,0-33.1,54.5-20.7,59.1c12.4,4.6,22.1-58.4,22.1-58.4l0.1-0.2"/>
	</g>
	<g>
		<path class="st6" d="M164.1,400.8c0,0-34.5,56.8-21.5,61.6c12.9,4.8,23.1-60.9,23.1-60.9l0.1-0.2"/>
		<path class="st7" d="M164.1,400.8c0,0-34.5,56.8-21.5,61.6c12.9,4.8,23.1-60.9,23.1-60.9l0.1-0.2"/>
	</g>
</g>
<g id="Lag_6">
	<path class="st14" d="M20.1,44.3l11.7,0.1c0,0-0.2,4.3-0.8,10.2c-3.4,0.1-10.2,0-10.2,0S20.3,46.4,20.1,44.3z"/>
	<path class="st14" d="M155.4,44.3l11.7,0.1c0,0-0.2,4.3-0.8,10.2c-3.4,0.1-10.2,0-10.2,0S155.6,46.4,155.4,44.3z"/>
	<path class="st14" d="M229.8,44.3l11.7,0.1c0,0-0.2,4.3-0.8,10.2c-3.4,0.1-10.2,0-10.2,0S229.9,46.4,229.8,44.3z"/>
	<path class="st14" d="M230.3,31.3l10.8,0.1c0,0,0.8,6,0.3,10.2c-3.4,0.1-11.7,0-11.7,0S229.7,35.7,230.3,31.3z"/>
	<path class="st14" d="M20.1,197.9l11.7,0.1c0,0-0.2,4.3-0.8,10.2c-3.4,0.1-10.2,0-10.2,0S20.3,200,20.1,197.9z"/>
	<path d="M20.6,184.8l11.1,0.1c0.9,7.5,1,7.1,0.7,10.2c-3.4,0.1-12.8,0-12.8,0S20,189.2,20.6,184.8z"/>
	<path d="M100.2,197.9l12,0.1c0,0-0.2,4.3-0.8,10.2c-3.4,0.1-10.5,0-10.5,0S100.3,200,100.2,197.9z"/>
	<path class="st14" d="M100.9,184.8l10.8,0.1c0,0,0.8,6,0.3,10.2c-3.4,0.1-11.7,0-11.7,0S100.3,189.2,100.9,184.8z"/>
	<path class="st14" d="M182.1,212.2h-5.2c0,0,0.1-7.2,2.7-7S182.1,212.2,182.1,212.2z"/>
	<path class="st14" d="M241.4,188.6h-11.5c0,0,0.5-12.8,5.8-12.8C241.6,175.9,241.4,188.6,241.4,188.6z"/>
	<path class="st14" d="M31.7,348.6H20.2c0,0,0.5-12.8,5.8-12.8C32,335.9,31.7,348.6,31.7,348.6z"/>
	<path class="st14" d="M20.5,458h10.2c0,0-0.4,7.5-4.9,7.5C20.7,465.5,20.5,458,20.5,458z"/>
</g>
<g id="pile">
	<g>
		<line class="st15" x1="36.7" y1="87.2" x2="92.7" y2="87.2"/>
		<polygon class="st16" points="88.8,92.3 88.8,82.1 97.7,87.2 		"/>
	</g>
	<g>
		<line class="st15" x1="166" y1="87.2" x2="222" y2="87.2"/>
		<polygon class="st16" points="218.1,92.3 218.1,82.1 227,87.2 		"/>
	</g>
	<g>
		<line class="st15" x1="36.7" y1="240.9" x2="92.7" y2="240.9"/>
		<polygon class="st16" points="88.8,246 88.8,235.8 97.7,240.9 		"/>
	</g>
	<g>
		<line class="st15" x1="188" y1="240.9" x2="222" y2="240.9"/>
		<polygon class="st16" points="218.1,246 218.1,235.8 227,240.9 		"/>
	</g>
	<g>
		<line class="st15" x1="33.7" y1="402.2" x2="52.7" y2="402.2"/>
		<polygon class="st16" points="48.8,407.3 48.8,397.1 57.7,402.2 		"/>
	</g>
	<g>
		<line class="st15" x1="170" y1="402.2" x2="226" y2="402.2"/>
		<polygon class="st16" points="222.1,407.3 222.1,397.1 231,402.2 		"/>
	</g>
	<ellipse class="st11" cx="117.8" cy="396.3" rx="11.8" ry="4"/>
	<ellipse class="st17" cx="117.4" cy="412.3" rx="8.1" ry="4"/>
</g>
<g id="Lag_2">
	<g>
		<path class="st7" d="M84.2,386c8.2,1.7,14.3,8.9,14.3,17.5c0,9.9-8,17.9-17.9,17.9c-9.9,0-17.9-8-17.9-17.9
			c0-8.8,6.3-16.1,14.6-17.6l0,0c1.4-0.2,2.8,0.7,3,2.2s-0.7,2.8-2.2,3l0.1,0c-5.9,1.1-10.3,6.3-10.3,12.5c0,7,5.7,12.7,12.7,12.7
			c7,0,12.7-5.7,12.7-12.7c0-6.2-4.4-11.3-10.3-12.5l0.1,0c-1.4-0.3-2.3-1.7-2-3.1C81.5,386.6,82.8,385.7,84.2,386L84.2,386z"/>
		<path class="st7" d="M84.2,386c8.2,1.7,14.3,8.9,14.3,17.5c0,9.9-8,17.9-17.9,17.9c-9.9,0-17.9-8-17.9-17.9
			c0-8.8,6.3-16.1,14.6-17.6l0,0c1.4-0.2,2.8,0.7,3,2.2s-0.7,2.8-2.2,3l0.1,0c-5.9,1.1-10.3,6.3-10.3,12.5c0,7,5.7,12.7,12.7,12.7
			c7,0,12.7-5.7,12.7-12.7c0-6.2-4.4-11.3-10.3-12.5l0.1,0c-1.4-0.3-2.3-1.7-2-3.1C81.5,386.6,82.8,385.7,84.2,386L84.2,386z"/>
	</g>
</g>
<g id="txt">
	<text transform="matrix(1 0 0 1 44.6665 20.001)" class="st16 st18 st19">Deletion</text>
	<text transform="matrix(1 0 0 1 175.333 20.0005)" class="st16 st18 st19">Duplikation</text>
	<text transform="matrix(1 0 0 1 44.0005 179.333)" class="st16 st18 st19">Inversion</text>
	<text transform="matrix(1 0 0 1 169.333 179.333)" class="st16 st18 st19">Translokation</text>
	<text transform="matrix(1 0 0 1 38.0005 330.666)" class="st16 st18 st19">Ringkromosom</text>
	<text transform="matrix(1 0 0 1 169.333 330.666)" class="st16 st18 st19">Isokromosom</text>
</g>
</svg>
