<?xml version="1.0" encoding="utf-8"?>
<!-- Generator: Adobe Illustrator 21.1.0, SVG Export Plug-In . SVG Version: 6.00 Build 0)  -->
<svg version="1.1" xmlns="http://www.w3.org/2000/svg" xmlns:xlink="http://www.w3.org/1999/xlink" x="0px" y="0px"
	 viewBox="0 0 269.3 481" style="enable-background:new 0 0 269.3 481;" xml:space="preserve">
<style type="text/css">
	.st0{fill:url(#SVGID_1_);}
	.st1{fill:url(#SVGID_2_);}
	.st2{fill:none;stroke:#66B32E;stroke-width:2;stroke-miterlimit:10;}
	.st3{fill:none;stroke:#66B32E;stroke-width:0.5;stroke-miterlimit:10;}
	.st4{fill:#FFFFFF;}
	.st5{font-family:'Verdana-Bold';}
	.st6{font-size:8px;}
	.st7{font-family:'Verdana';}
	.st8{font-family:'Verdana-Italic';}
</style>
<g id="Lag_4">
	<linearGradient id="SVGID_1_" gradientUnits="userSpaceOnUse" x1="134.645" y1="227.2637" x2="134.645" y2="0">
		<stop  offset="0" style="stop-color:#7B86BE"/>
		<stop  offset="2.891954e-02" style="stop-color:#648DB9"/>
		<stop  offset="7.995470e-02" style="stop-color:#3193AE"/>
		<stop  offset="0.1342" style="stop-color:#0096A2"/>
		<stop  offset="0.1919" style="stop-color:#009896"/>
		<stop  offset="0.2546" style="stop-color:#00988E"/>
		<stop  offset="0.326" style="stop-color:#009888"/>
		<stop  offset="0.4251" style="stop-color:#009886"/>
		<stop  offset="1" style="stop-color:#223E77"/>
	</linearGradient>
	<rect class="st0" width="269.3" height="227.3"/>
</g>
<g id="Lag_1">
	<g>
		
			<image style="overflow:visible;opacity:0.75;" width="1150" height="935" xlink:href="17BB9FDBFF137CB0.png"  transform="matrix(0.24 0 0 0.24 -1.8041 1.3159)">
		</image>
		<g>
			
				<linearGradient id="SVGID_2_" gradientUnits="userSpaceOnUse" x1="142.117" y1="219.6035" x2="142.117" y2="10.6061" gradientTransform="matrix(1.0401 8.954573e-03 8.954573e-03 1.0298 -14.9644 -6.473)">
				<stop  offset="0" style="stop-color:#7B86BE"/>
				<stop  offset="2.891954e-02" style="stop-color:#648DB9"/>
				<stop  offset="7.995470e-02" style="stop-color:#3193AE"/>
				<stop  offset="0.1342" style="stop-color:#0096A2"/>
				<stop  offset="0.1919" style="stop-color:#009896"/>
				<stop  offset="0.2546" style="stop-color:#00988E"/>
				<stop  offset="0.326" style="stop-color:#009888"/>
				<stop  offset="0.4251" style="stop-color:#009886"/>
				<stop  offset="1" style="stop-color:#223E77"/>
			</linearGradient>
			<polygon class="st1" points="132.9,5.7 267.3,218.1 2.3,219.8 			"/>
			<polygon class="st2" points="132.9,5.7 267.3,218.1 2.3,219.8 			"/>
		</g>
	</g>
</g>
<g id="Lag_2">
	<g>
		
			<image style="overflow:visible;opacity:0.75;" width="955" height="18" xlink:href="17BB9FDBFF137CB1.png"  transform="matrix(0.24 0 0 0.24 20.1392 186.2192)">
		</image>
		<g>
			<line class="st3" x1="22" y1="187.6" x2="247.2" y2="187.6"/>
		</g>
	</g>
	<g>
		
			<image style="overflow:visible;opacity:0.75;" width="782" height="18" xlink:href="17BB9FDBFF137CB7.png"  transform="matrix(0.24 0 0 0.24 40.5392 153.8192)">
		</image>
		<g>
			<line class="st3" x1="42.4" y1="155.2" x2="226.2" y2="155.2"/>
		</g>
	</g>
	<g>
		
			<image style="overflow:visible;opacity:0.75;" width="591" height="17" xlink:href="17BB9FDBFF137CB2.png"  transform="matrix(0.24 0 0 0.24 62.5492 113.9702)">
		</image>
		<g>
			<line class="st3" x1="64.2" y1="115.4" x2="202.5" y2="115.4"/>
		</g>
	</g>
	<g>
		
			<image style="overflow:visible;opacity:0.75;" width="370" height="19" xlink:href="17BB9FDBFF137CB3.png"  transform="matrix(0.24 0 0 0.24 89.7392 73.6592)">
		</image>
		<g>
			<line class="st3" x1="91.7" y1="75.3" x2="176.5" y2="75.3"/>
		</g>
	</g>
	<g>
		
			<image style="overflow:visible;opacity:0.75;" width="274" height="18" xlink:href="17BB9FDBFF137CBE.png"  transform="matrix(0.24 0 0 0.24 0.4592 113.8459)">
		</image>
		<g>
			<line class="st3" x1="2.3" y1="115.4" x2="64.2" y2="115.4"/>
		</g>
	</g>
	<g>
		
			<image style="overflow:visible;opacity:0.75;" width="287" height="19" xlink:href="17BB9FDBFF137CBF.png"  transform="matrix(0.24 0 0 0.24 200.3792 113.7392)">
		</image>
		<g>
			<line class="st3" x1="202.2" y1="115.4" x2="267.3" y2="115.4"/>
		</g>
	</g>
</g>
<g id="Lag_5">
</g>
<g id="txt">
	<text transform="matrix(1 0 0 1 84.7639 37.75)" class="yText st4 st5 st6">SELVAKTUALISERING</text>
	<text transform="matrix(1 0 0 1 116.8994 48.25)"><tspan x="0" y="0" class="st4 st7 st6">Talenter</tspan><tspan x="-5.4" y="9.6" class="st4 st7 st6">Ambitioner</tspan><tspan x="-0.8" y="19.2" class="st4 st7 st6">Drømme</tspan></text>
	<text transform="matrix(1 0 0 1 80.9553 88.25)"><tspan x="0" y="0" class="yText st4 st5 st6">BEHOV FOR SELVVÆRD</tspan><tspan x="25.4" y="9.6" class="st4 st7 st6">Anerkendelse</tspan><tspan x="11" y="19.2" class="st4 st7 st6">Ros, respekt, ansvar</tspan></text>
	<text transform="matrix(1 0 0 1 96.8029 127.25)"><tspan x="0" y="0" class="yText st4 st5 st6">SOCIALE BEHOV</tspan><tspan x="-7.8" y="9.6" class="st4 st7 st6">Kærlighed, fællesskab</tspan><tspan x="6.5" y="19.2" class="st4 st7 st6">venner, familie</tspan></text>
	<text transform="matrix(1 0 0 1 84.5627 168.25)"><tspan x="0" y="0" class="yText st4 st5 st6">BEHOV FOR TRYGHED</tspan><tspan x="-10.5" y="9.6" class="st4 st7 st6">Et hjem, et arbejde, stabilitet</tspan></text>
	<text transform="matrix(1 0 0 1 82.5002 201.75)"><tspan x="0" y="0" class="yText st4 st5 st6">FYSIOLOGISKE BEHOV</tspan><tspan x="-17.4" y="9.6" class="st4 st7 st6">Mad, søvn, væske, varme, ilt, sex</tspan></text>
	<text transform="matrix(1 0 0 1 202.7385 111.75)" class="st4 st8 st6">Udviklingsbehov</text>
	<text transform="matrix(1 0 0 1 3.9924 124.75)" class="st4 st8 st6">Mangelbehov</text>
</g>
</svg>
