<?xml version="1.0" encoding="utf-8"?>
<!-- Generator: Adobe Illustrator 19.1.0, SVG Export Plug-In . SVG Version: 6.00 Build 0)  -->
<svg version="1.1" xmlns="http://www.w3.org/2000/svg" xmlns:xlink="http://www.w3.org/1999/xlink" x="0px" y="0px"
	 viewBox="0 0 269.3 481" style="enable-background:new 0 0 269.3 481;" xml:space="preserve">
<style type="text/css">
	.st0{fill:#E96141;}
	.st1{fill:url(#SVGID_1_);}
	.st2{fill:none;stroke:#000000;stroke-width:0.5;}
	.st3{fill:url(#SVGID_2_);}
	.st4{fill:url(#SVGID_3_);stroke:#000000;stroke-width:0.5;}
	.st5{fill:url(#SVGID_4_);stroke:#000000;stroke-width:0.5;}
	.st6{fill:url(#SVGID_5_);stroke:#000000;stroke-width:0.5;}
	.st7{fill:url(#SVGID_6_);stroke:#000000;stroke-width:0.5;}
	.st8{fill:url(#SVGID_7_);stroke:#000000;stroke-width:0.5;}
	.st9{fill:url(#SVGID_8_);stroke:#000000;stroke-width:0.5;}
	.st10{fill:url(#SVGID_9_);stroke:#000000;stroke-width:0.5;}
	.st11{fill:#FFFFFF;stroke:#000000;stroke-width:0.5;}
	.st12{fill:url(#SVGID_10_);stroke:#000000;stroke-width:0.5;}
	.st13{fill:#FDC400;stroke:#000000;stroke-width:0.5;}
	.st14{fill:url(#SVGID_11_);stroke:#000000;stroke-width:0.5;}
	.st15{fill:#F08800;stroke:#000000;stroke-width:0.5;}
	.st16{fill:url(#SVGID_12_);stroke:#000000;stroke-width:0.5;}
	.st17{fill:url(#SVGID_13_);stroke:#000000;stroke-width:0.5;}
	.st18{fill:none;stroke:#000000;stroke-width:0.75;}
	.st19{font-family:'Verdana';}
	.st20{font-size:9px;}
</style>
<g id="Lag_6">
	<rect y="0" class="st0" width="269.3" height="481"/>
</g>
<g id="Lag_10">
	<linearGradient id="SVGID_1_" gradientUnits="userSpaceOnUse" x1="157.6203" y1="202.5684" x2="157.6203" y2="50.1142">
		<stop  offset="5.617980e-03" style="stop-color:#E96141"/>
		<stop  offset="4.636234e-02" style="stop-color:#ED7B58"/>
		<stop  offset="0.104" style="stop-color:#F29877"/>
		<stop  offset="0.1692" style="stop-color:#F5AF93"/>
		<stop  offset="0.243" style="stop-color:#F8C2AA"/>
		<stop  offset="0.3292" style="stop-color:#FACFBB"/>
		<stop  offset="0.4357" style="stop-color:#FBD8C8"/>
		<stop  offset="0.5851" style="stop-color:#FCDECF"/>
		<stop  offset="1" style="stop-color:#FCDFD1"/>
	</linearGradient>
	<path class="st1" d="M223.6,83c0,0,4.5,35.9-28.2,53.7c-1.9,11.1-4.1,53.3-3.4,65.9c-13,0-98.8,0-98.8,0S88,130.5,95.7,93.9
		c-2.4-32.5-2.6-40.4-2.6-40.4s57.3-7.3,67-0.4c9.6,6.8,28.7,17.8,38.1,22.5C207.6,80.2,223.6,83,223.6,83"/>
	<g>
		<path class="st2" d="M93.1,202.6c0,0-5.1-72.1,2.6-108.7c-2.4-32.5-2.6-40.4-2.6-40.4s57.3-7.3,67-0.4
			c9.6,6.8,28.7,17.8,38.1,22.5c9.4,4.7,25.5,7.5,25.5,7.5"/>
		<path class="st2" d="M223.6,83c0,0,4.5,35.9-28.2,53.7c-1.9,11.1-4.1,53.3-3.4,65.9"/>
	</g>
	<linearGradient id="SVGID_2_" gradientUnits="userSpaceOnUse" x1="158.3084" y1="411.3789" x2="158.3084" y2="258.9268">
		<stop  offset="5.617980e-03" style="stop-color:#E96141"/>
		<stop  offset="4.636234e-02" style="stop-color:#ED7B58"/>
		<stop  offset="0.104" style="stop-color:#F29877"/>
		<stop  offset="0.1692" style="stop-color:#F5AF93"/>
		<stop  offset="0.243" style="stop-color:#F8C2AA"/>
		<stop  offset="0.3292" style="stop-color:#FACFBB"/>
		<stop  offset="0.4357" style="stop-color:#FBD8C8"/>
		<stop  offset="0.5851" style="stop-color:#FCDECF"/>
		<stop  offset="1" style="stop-color:#FCDFD1"/>
	</linearGradient>
	<path class="st3" d="M224.3,291.8c0,0,4.5,35.9-28.2,53.7c-1.9,11.1-4.1,53.3-3.4,65.9c-13,0-98.8,0-98.8,0s-5.1-72.1,2.6-108.7
		c-2.4-32.5-2.6-40.4-2.6-40.4s57.3-7.3,67-0.4c9.6,6.8,28.7,17.8,38.1,22.5C208.2,289,224.3,291.8,224.3,291.8"/>
	<g>
		<path class="st2" d="M93.7,411.9c0,0-5.1-72.1,2.6-108.7c-2.4-32.5-2.6-40.4-2.6-40.4s57.3-7.3,67-0.4
			c9.6,6.8,28.7,17.8,38.1,22.5c9.4,4.7,25.5,7.5,25.5,7.5"/>
		<path class="st2" d="M224.1,292.3c0,0,4.5,35.9-28.2,53.7c-1.9,11.1-4.1,53.3-3.4,65.9"/>
	</g>
</g>
<g id="Lag_11">
	<linearGradient id="SVGID_3_" gradientUnits="userSpaceOnUse" x1="122.9531" y1="114.9727" x2="122.9531" y2="77.7535">
		<stop  offset="5.617980e-03" style="stop-color:#FBE2EC"/>
		<stop  offset="4.991397e-02" style="stop-color:#FADAE1"/>
		<stop  offset="0.1657" style="stop-color:#F8C8C9"/>
		<stop  offset="0.2962" style="stop-color:#F6BBB6"/>
		<stop  offset="0.4475" style="stop-color:#F5B1A8"/>
		<stop  offset="0.6386" style="stop-color:#F4ABA1"/>
		<stop  offset="1" style="stop-color:#F4A99E"/>
	</linearGradient>
	<polyline class="st4" points="115.3,113 115.9,97.6 111.1,84.5 112.4,77.8 120.4,78.7 134.5,89 134.8,95.1 126.2,101.8 
		123.6,106.6 120.4,115 	"/>
	<linearGradient id="SVGID_4_" gradientUnits="userSpaceOnUse" x1="138.6743" y1="123.3155" x2="138.6743" y2="55.294">
		<stop  offset="5.617980e-03" style="stop-color:#FCE2DC"/>
		<stop  offset="2.176734e-02" style="stop-color:#FBDFD9"/>
		<stop  offset="0.141" style="stop-color:#F9CCC3"/>
		<stop  offset="0.2753" style="stop-color:#F7BDB3"/>
		<stop  offset="0.431" style="stop-color:#F5B2A7"/>
		<stop  offset="0.6279" style="stop-color:#F4ABA0"/>
		<stop  offset="1" style="stop-color:#F4A99E"/>
	</linearGradient>
	<polyline class="st5" points="124.9,117.2 132.9,105.7 139.3,98 138.7,92.5 133.5,86.1 120.1,77.4 114.6,67.5 119.1,56.9 131,55.3 
		144.8,60.7 153.1,70.4 158.9,80 162.7,88 162.1,97.3 150.2,108.9 139,118.2 134.8,123.3 	"/>
	<linearGradient id="SVGID_5_" gradientUnits="userSpaceOnUse" x1="168.6758" y1="129.4117" x2="168.6758" y2="63.9571">
		<stop  offset="5.617980e-03" style="stop-color:#FCE3D8"/>
		<stop  offset="3.159854e-02" style="stop-color:#FBDED3"/>
		<stop  offset="0.1497" style="stop-color:#F9CCC0"/>
		<stop  offset="0.2826" style="stop-color:#F7BDB1"/>
		<stop  offset="0.4367" style="stop-color:#F5B1A6"/>
		<stop  offset="0.6316" style="stop-color:#F4ABA0"/>
		<stop  offset="1" style="stop-color:#F4A99E"/>
	</linearGradient>
	<polyline class="st6" points="149.9,126.2 157.3,113 166.9,98.9 168.2,81.3 168.5,68.1 178.5,64 185.2,73.9 187.4,90.6 179.4,107 
		169.5,117.5 163.7,125.2 160.2,129.4 	"/>
	<linearGradient id="SVGID_6_" gradientUnits="userSpaceOnUse" x1="123.6413" y1="323.7852" x2="123.6413" y2="286.5645">
		<stop  offset="5.617980e-03" style="stop-color:#FAE0EB"/>
		<stop  offset="4.991397e-02" style="stop-color:#FAD8E0"/>
		<stop  offset="0.1657" style="stop-color:#F8C7C8"/>
		<stop  offset="0.2962" style="stop-color:#F6BAB5"/>
		<stop  offset="0.4475" style="stop-color:#F5B0A8"/>
		<stop  offset="0.6386" style="stop-color:#F4AAA1"/>
		<stop  offset="1" style="stop-color:#F4A99E"/>
	</linearGradient>
	<polyline class="st7" points="115.9,321.9 116.6,306.5 111.8,293.3 113.1,286.6 121.1,287.5 135.2,297.8 135.5,303.9 126.8,310.6 
		124.3,315.4 121.1,323.8 	"/>
	<linearGradient id="SVGID_7_" gradientUnits="userSpaceOnUse" x1="139.364" y1="332.1289" x2="139.364" y2="264.1055">
		<stop  offset="5.617980e-03" style="stop-color:#FCE5E0"/>
		<stop  offset="4.093240e-02" style="stop-color:#FBDFD8"/>
		<stop  offset="0.1579" style="stop-color:#F9CCC3"/>
		<stop  offset="0.2895" style="stop-color:#F7BDB2"/>
		<stop  offset="0.4422" style="stop-color:#F5B1A7"/>
		<stop  offset="0.6352" style="stop-color:#F4ABA0"/>
		<stop  offset="1" style="stop-color:#F4A99E"/>
	</linearGradient>
	<polyline class="st8" points="125.6,326 133.6,314.5 134.2,304.2 139.4,301.3 134.2,294.9 120.8,286.2 115.3,276.3 119.8,265.7 
		131.7,264.1 145.5,269.6 153.8,279.2 159.6,288.8 163.4,296.8 162.8,306.1 150.9,317.7 139.7,327 135.5,332.1 	"/>
	<linearGradient id="SVGID_8_" gradientUnits="userSpaceOnUse" x1="169.3633" y1="338.2246" x2="169.3633" y2="272.7696">
		<stop  offset="5.617980e-03" style="stop-color:#FCE3D8"/>
		<stop  offset="3.159854e-02" style="stop-color:#FBDED3"/>
		<stop  offset="0.1497" style="stop-color:#F9CCC0"/>
		<stop  offset="0.2826" style="stop-color:#F7BDB1"/>
		<stop  offset="0.4367" style="stop-color:#F5B1A6"/>
		<stop  offset="0.6316" style="stop-color:#F4ABA0"/>
		<stop  offset="1" style="stop-color:#F4A99E"/>
	</linearGradient>
	<polyline class="st9" points="150.6,335 158,321.9 167.6,307.7 168.9,290.1 169.2,276.9 179.1,272.8 185.9,282.7 188.1,299.4 
		180.1,315.8 170.2,326.4 164.4,334.1 160.9,338.2 	"/>
</g>
<g id="Lag_8">
	<linearGradient id="SVGID_9_" gradientUnits="userSpaceOnUse" x1="154.2768" y1="6.102753e-06" x2="154.2768" y2="137.126">
		<stop  offset="5.617980e-03" style="stop-color:#E96141"/>
		<stop  offset="4.636234e-02" style="stop-color:#ED7B58"/>
		<stop  offset="0.104" style="stop-color:#F29877"/>
		<stop  offset="0.1692" style="stop-color:#F5AF93"/>
		<stop  offset="0.243" style="stop-color:#F8C2AA"/>
		<stop  offset="0.3292" style="stop-color:#FACFBB"/>
		<stop  offset="0.4357" style="stop-color:#FBD8C8"/>
		<stop  offset="0.5851" style="stop-color:#FCDECF"/>
		<stop  offset="1" style="stop-color:#FCDFD1"/>
	</linearGradient>
	<path class="st10" d="M86.5,1.7c0,0-4.3,42.4,0.9,67.2c3.3,16.1,14,38.1,19.3,42.4c2.1,1.7,8.6,5.6,9.8,4.3c1.3-1.3,0-7.7,0.9-13.3
		c0.9-5.6,2.6-6.4-0.9-12c-3.4-5.6-5.6-11.6,0.4-9.4c6,2.1,19.7,11.6,12.8,12.8c-6.8,1.3-9.4,6.4-9.8,9.4c-0.4,3-1.7,6.8-1.3,12
		c0.4,5.1,2.6,7.3,5.1,6.4c2.6-0.9,2.6-5.1,5.6-9c3-3.8,6.4-6.8,9-9.4c2.6-2.6,4.7-7.7,3-11.1c-1.7-3.4-5.1-9.8-9.4-12
		c-4.3-2.1-9.8-6-9.4-9c0.4-3,3.4-9,8.1-7.7c4.7,1.3,16.3,7.3,17.5,9.4c1.3,2.1,3.8,9.4,3.8,11.1c0,1.7,3,2.1,5.6,2.6
		c2.6,0.4,6.4,7.7,0.4,11.6c-6,3.9-15.4,11.1-18.4,13.7c-3,2.6-10.3,11.5-3,17.5c5.2,4.2,12,3.8,15,1.3c3-2.6,2.1-6,3.4-8.6
		c2.5-5,10.3-14.5,13.3-18.8c3-4.3,3-11.1,2.1-16.3c-0.9-5.1,0.2-12.6,1.3-15.8c1.7-5.1,11.1-3.4,11.1,7.3c0,12.5-0.4,17.5-5.1,23.1
		c-4.7,5.6-9.4,11.1-13.7,15.4c-4.3,4.3-12.4,12.4-8.6,15.4c3.8,3,14.5,6.8,24.8,3.9c10.3-3,22.7-9.8,29.5-17.1
		c6.8-7.3,12.4-21.4,13.7-33.8c1.3-12.4-0.9-29.1-6.4-40.2c-4.6-9.3-10.3-17.8-14.5-27.8C199,9,198.6,7.3,197.7,0"/>
	
		<ellipse transform="matrix(0.9179 -0.3969 0.3969 0.9179 -27.076 48.8291)" class="st11" cx="104.5" cy="89.8" rx="5.3" ry="12.3"/>
	<linearGradient id="SVGID_10_" gradientUnits="userSpaceOnUse" x1="154.9649" y1="208.8111" x2="154.9649" y2="345.9378">
		<stop  offset="5.617980e-03" style="stop-color:#E96141"/>
		<stop  offset="4.636234e-02" style="stop-color:#ED7B58"/>
		<stop  offset="0.104" style="stop-color:#F29877"/>
		<stop  offset="0.1692" style="stop-color:#F5AF93"/>
		<stop  offset="0.243" style="stop-color:#F8C2AA"/>
		<stop  offset="0.3292" style="stop-color:#FACFBB"/>
		<stop  offset="0.4357" style="stop-color:#FBD8C8"/>
		<stop  offset="0.5851" style="stop-color:#FCDECF"/>
		<stop  offset="1" style="stop-color:#FCDFD1"/>
	</linearGradient>
	<path class="st12" d="M87.2,210.5c0,0-4.3,42.4,0.9,67.2c3.3,16.1,14,38.1,19.3,42.4c2.1,1.7,8.6,5.6,9.8,4.3
		c1.3-1.3,0-7.7,0.9-13.3c0.9-5.6,2.6-6.4-0.9-12c-3.4-5.6-5.6-11.5,0.4-9.4c6,2.1,19.7,11.6,12.8,12.8c-6.8,1.3-9.4,6.4-9.8,9.4
		c-0.4,3-1.7,6.8-1.3,12c0.4,5.1,2.6,7.3,5.1,6.4c2.6-0.9,2.6-5.1,5.6-9c3-3.8,9.1-10.3,9.1-13.9c0-4.8,4.6-3.2,2.9-6.6
		c-1.7-3.4-5.1-9.8-9.4-12c-4.3-2.1-9.8-6-9.4-9c0.4-3,3.4-9,8.1-7.7c4.7,1.3,16.3,7.3,17.5,9.4c1.3,2.1,3.8,9.4,3.8,11.1
		c0,1.7,3,2.1,5.6,2.6c2.6,0.4,6.4,7.7,0.4,11.6c-6,3.9-15.4,11.1-18.4,13.7c-3,2.6-10.3,11.6-3,17.5c5.2,4.2,12,3.8,15,1.3
		c3-2.6,2.1-6,3.4-8.6c2.5-5,10.3-14.5,13.3-18.8c3-4.3,3-11.1,2.1-16.3c-0.9-5.1,0.2-12.6,1.3-15.8c1.7-5.1,11.1-3.4,11.1,7.3
		c0,12.5-0.4,17.5-5.1,23.1c-4.7,5.6-9.4,11.1-13.7,15.4c-4.3,4.3-12.4,12.4-8.6,15.4c3.9,3,14.5,6.8,24.8,3.8
		c10.3-3,22.7-9.8,29.5-17.1c6.8-7.3,12.4-21.4,13.7-33.8c1.3-12.4-0.9-29.1-6.4-40.2c-4.6-9.3-10.3-17.8-14.5-27.8
		c-3.4-8.1-3.9-9.8-4.7-17.1"/>
	<path class="st11" d="M110,296.5c2.7,6.2,2.7,12.2,0,13.4c-2.7,1.2-7.1-2.9-9.8-9.2c-2.7-6.2-2.7-12.2,0-13.4
		C103,286.2,107.4,290.3,110,296.5z"/>
</g>
<g id="Lag_9">
	<path class="st13" d="M128.6,121.7c0,0,4.9,13.3,1.1,20.5c-3.4,6.4-12.6,9.4-17.5,9.4C115.1,145.2,124.6,121.7,128.6,121.7z"/>
	<linearGradient id="SVGID_11_" gradientUnits="userSpaceOnUse" x1="143.6479" y1="95.2" x2="129.6868" y2="56.8422">
		<stop  offset="1.123600e-02" style="stop-color:#E95B10"/>
		<stop  offset="0.1479" style="stop-color:#E04E16"/>
		<stop  offset="0.477" style="stop-color:#CF311C"/>
		<stop  offset="0.7715" style="stop-color:#C41C1F"/>
		<stop  offset="1" style="stop-color:#C01120"/>
	</linearGradient>
	<path class="st14" d="M126.9,58c0,0,5.1-1.1,11.8,2.1c4.7,2.3,9.6,6.2,12,9.8c2.4,3.6,4.7,10.1,5.3,13.7c0.6,3.6-0.6,7.5-2.4,7.9
		c-1.7,0.4-3.6-1.5-4.5-4.7c-0.9-3.2-4.4-9.4-7.5-12.6c-2.8-2.9-3.4-4.9-7.7-6.2c-4.3-1.3-7.9,1.9-4.7,4.3c3.2,2.4,7.5,4.1,11.1,7.3
		c3.6,3.2,9.4,10.7,7.9,13c-1.5,2.4-4.5,1.7-7.1-0.6c-2.6-2.4-1.9-3.6-4.7-6.2c-2.8-2.6-8.8-5.6-12.8-8.1c-4.1-2.6-7.5-6-5.6-11.8
		C120.1,60.1,123.7,58.8,126.9,58z"/>
	<path class="st11" d="M182.5,5.6c0,0-6.6,0.2-10.1,0c-3.4-0.2-1.7,1.5-1.3,3.4c0.4,1.9,1.9,6.8,1.5,8.6c-0.4,1.7-0.9,4.7,1.1,3.9
		c1.9-0.9,4.1-2.1,7.3-1.9c3.2,0.2,4.9-0.9,3.8-2.4c-1.1-1.5-1.7-7.3-1.7-8.8C183.2,6.8,184,5.8,182.5,5.6z"/>
	<path class="st11" d="M183.2,22.7c-1.7,1-6.8,0.2-7.5,1.5c-0.6,1.3-0.6,2.1,1.3,4.5c1.9,2.4,5.1,6.4,5.1,7.7c0,1.3,0.9,4.3,2.4,3.4
		c1.5-0.9,4.1-3.4,5.6-3.9c1.5-0.4,5.6-1.5,3.2-3c-2.4-1.5-4.3-4.1-4.7-6.2C188.1,24.6,187.4,20.1,183.2,22.7z"/>
	<path class="st11" d="M193.4,38.7c0,0-3.6,2.8-4.7,2.8c-1.1,0-2.1,0.4,0.6,3c2.8,2.6,5.3,5.6,5.8,6.6c0.4,1.1,2.1,2.1,3.4,0.6
		c1.3-1.5,2.4-2.4,3.4-2.8c1.1-0.4,2.4-2.1-0.2-4.1c-2.6-1.9-3.6-5.1-4.5-6.2C196.4,37.6,194.9,36.2,193.4,38.7z"/>
	<path class="st11" d="M203.7,52.6c-1.1,1.5-3.2,2.4-4.1,2.6c-0.9,0.2-1.9,1.5,0.2,3.2c2.1,1.7,3,3.4,3.4,4.5c0.4,1.1,1.9,1.5,3,0.4
		c1.1-1.1,1.9-1.5,2.8-1.9c0.9-0.4,0.9-2.1-0.4-3c-1.3-0.9-1.9-3-2.1-3.9C206.3,53.7,205.2,50.7,203.7,52.6z"/>
	<path class="st11" d="M209.5,64.6c-0.7,0.2-2.8,0.4-3.6,0.6c-0.9,0.2-1.5,1.3-0.9,2.8c0.6,1.5,0.6,3.2,0.6,4.1c0,0.9,0,2.4,1.1,1.7
		s3.2-0.6,3.2-0.6s1.9-0.9,1.3-2.1c-0.6-1.3-0.4-3.6-0.4-4.5C210.8,65.7,211,64.2,209.5,64.6z"/>
	<path class="st11" d="M208.8,76.8l-2.4-0.9c0,0-0.4,0.9-1.1,2.1c-0.6,1.3-1.5,2.8-1.5,3.6c0,0.9,0.4,2.1,1.5,2.4
		c1.1,0.2,2.4,0.9,2.6-1.1c0.2-1.9,1.3-3.4,1.9-4.1C210.5,78.3,210.1,76.8,208.8,76.8z"/>
	<path class="st11" d="M205.6,87.7c-0.1-0.1-0.1-0.1-0.2-0.2c-1-1-1.8-2.2-3.2-0.2c-1.5,2.1-2.4,5.3-2.4,5.3l1.5,1.1
		c0,0,1.7-0.6,2.4-1.9C204.4,90.4,205.6,87.7,205.6,87.7z"/>
	<path class="st11" d="M199.2,95.8c0,0-1.1-1.3-1.5-0.9c-0.4,0.4-1.9,3.4-1.9,3.4s-1.5,1.9,0,1.5c1.5-0.4,2.4-0.9,3.2-1.9
		C199.9,96.9,200.5,96.3,199.2,95.8z"/>
	
		<ellipse transform="matrix(-0.8806 -0.4739 0.4739 -0.8806 160.5513 312.5654)" class="st13" cx="119.7" cy="136.1" rx="4.1" ry="17.8"/>
	
		<ellipse transform="matrix(-0.8806 -0.4739 0.4739 -0.8806 160.5496 312.567)" class="st15" cx="119.7" cy="136.1" rx="3" ry="14.9"/>
	<path class="st11" d="M183.2,214.4c0,0-6.6,0.2-10.1,0c-3.4-0.2-1.7,1.5-1.3,3.4c0.4,1.9,1.9,6.8,1.5,8.6c-0.4,1.7-0.9,4.7,1.1,3.8
		c1.9-0.9,4.1-2.1,7.3-1.9c3.2,0.2,4.9-0.9,3.9-2.4c-1.1-1.5-1.7-7.3-1.7-8.8C183.9,215.7,184.7,214.6,183.2,214.4z"/>
	<path class="st11" d="M183.9,231.5c-1.7,1-6.8,0.2-7.5,1.5c-0.6,1.3-0.6,2.1,1.3,4.5c1.9,2.4,5.1,6.4,5.1,7.7s0.9,4.3,2.4,3.4
		c1.5-0.9,4.1-3.4,5.6-3.9c1.5-0.4,5.6-1.5,3.2-3c-2.4-1.5-4.3-4.1-4.7-6.2C188.8,233.4,188.1,228.9,183.9,231.5z"/>
	<path class="st11" d="M194.1,247.5c0,0-3.6,2.8-4.7,2.8c-1.1,0-2.1,0.4,0.6,3c2.8,2.6,5.3,5.6,5.8,6.6c0.4,1.1,2.1,2.1,3.4,0.6
		c1.3-1.5,2.4-2.4,3.4-2.8c1.1-0.4,2.4-2.1-0.2-4.1c-2.6-1.9-3.6-5.1-4.5-6.2C197.1,246.5,195.6,245,194.1,247.5z"/>
	<path class="st11" d="M204.4,261.4c-1.1,1.5-3.2,2.4-4.1,2.6c-0.9,0.2-1.9,1.5,0.2,3.2c2.1,1.7,3,3.4,3.4,4.5
		c0.4,1.1,1.9,1.5,3,0.4c1.1-1.1,1.9-1.5,2.8-1.9c0.9-0.4,0.9-2.1-0.4-3c-1.3-0.9-1.9-3-2.1-3.8C207,262.5,205.9,259.5,204.4,261.4z
		"/>
	<path class="st11" d="M210.2,273.4c-0.7,0.2-2.8,0.4-3.6,0.6c-0.9,0.2-1.5,1.3-0.9,2.8c0.6,1.5,0.6,3.2,0.6,4.1
		c0,0.9,0,2.4,1.1,1.7c1.1-0.6,3.2-0.6,3.2-0.6s1.9-0.9,1.3-2.1c-0.6-1.3-0.4-3.6-0.4-4.5C211.4,274.5,211.7,273,210.2,273.4z"/>
	<path class="st11" d="M209.5,285.6l-2.3-0.9c0,0-0.4,0.9-1.1,2.1c-0.6,1.3-1.5,2.8-1.5,3.6c0,0.9,0.4,2.1,1.5,2.3
		c1.1,0.2,2.4,0.9,2.6-1.1c0.2-1.9,1.3-3.4,1.9-4.1C211.2,287.1,210.8,285.6,209.5,285.6z"/>
	<path class="st11" d="M206.3,296.5c-0.1-0.1-0.1-0.1-0.2-0.2c-1-1-1.8-2.2-3.2-0.2c-1.5,2.1-2.4,5.3-2.4,5.3l1.5,1.1
		c0,0,1.7-0.6,2.4-1.9C205.1,299.2,206.3,296.5,206.3,296.5z"/>
	<path class="st11" d="M199.9,304.6c0,0-1.1-1.3-1.5-0.9c-0.4,0.4-1.9,3.4-1.9,3.4s-1.5,1.9,0,1.5c1.5-0.4,2.4-0.9,3.2-1.9
		C200.5,305.7,201.2,305.1,199.9,304.6z"/>
	<g>
		<path class="st13" d="M163.1,297.6c0,0-3.1,11.4-9.6,12.7c-5.7,1.2-14.8-3.5-17.3-7.4C141.7,301.3,161,294.4,163.1,297.6z"/>
		<path class="st13" d="M149,295.2c-7.7,1.6-13.7,4.7-13.3,7c0.4,2.2,6.9,2.7,14.7,1.1c7.7-1.6,13.7-4.7,13.3-7
			C163.3,294.1,156.7,293.6,149,295.2z"/>
		<path class="st15" d="M149.2,296.4c-6.4,1.3-11.5,3.7-11.2,5.3c0.3,1.6,5.7,1.8,12.2,0.5c6.4-1.3,11.5-3.7,11.2-5.3
			C161,295.2,155.6,295,149.2,296.4z"/>
	</g>
	<linearGradient id="SVGID_12_" gradientUnits="userSpaceOnUse" x1="144.3356" y1="304.0115" x2="130.3746" y2="265.6542">
		<stop  offset="1.123600e-02" style="stop-color:#E95B10"/>
		<stop  offset="0.1479" style="stop-color:#E04E16"/>
		<stop  offset="0.477" style="stop-color:#CF311C"/>
		<stop  offset="0.7715" style="stop-color:#C41C1F"/>
		<stop  offset="1" style="stop-color:#C01120"/>
	</linearGradient>
	<path class="st16" d="M127.6,266.8c0,0,5.1-1.1,11.8,2.1c4.7,2.3,9.6,6.2,12,9.8c2.4,3.6,4.7,10.1,5.3,13.7
		c0.6,3.6-0.6,7.5-2.4,7.9c-1.7,0.4-3.6-1.5-4.5-4.7c-0.9-3.2-4.4-9.4-7.5-12.6c-2.8-2.9-3.4-4.9-7.7-6.2c-4.3-1.3-7.9,1.9-4.7,4.3
		c3.2,2.4,7.5,4.1,11.1,7.3c3.6,3.2,9.4,10.7,7.9,13c-1.5,2.4-4.5,1.7-7.1-0.6c-2.6-2.4-1.9-3.6-4.7-6.2c-2.8-2.6-8.8-5.6-12.8-8.1
		c-4.1-2.6-7.5-6-5.6-11.8C120.8,268.9,124.4,267.6,127.6,266.8z"/>
</g>
<g id="Lag_12">
	<linearGradient id="SVGID_13_" gradientUnits="userSpaceOnUse" x1="130.897" y1="136.0605" x2="56.7748" y2="73.8646">
		<stop  offset="0.1742" style="stop-color:#FCDFD1"/>
		<stop  offset="0.7692" style="stop-color:#FEF6F1"/>
		<stop  offset="1" style="stop-color:#FFFFFF"/>
	</linearGradient>
	<path class="st17" d="M76.2,50.7c0,0,9.2,42.1,10.3,45.8c1,3.5,2.3,8.5,5.1,8.8c0.1,0,0.2,0,0.3,0c3,0,3-0.2,6.2,3
		c3.2,3.2,7.1,6.6,9,7.5c1.9,0.9,5.3,3.2,6,4.9c0.6,1.7,1.9,3.6,2.8,5.1c0.9,1.5,2.8,3.4,2.8,3.4s4.3,0.3,5.1,0.4
		c1.5,0.2,4.5,2.6,1.9,4.1c1.1,0.6,1.5,2.4,0.4,3.9c0.4,1.5,1.1,3.2,0,4.3c-2.1,2.4-9.6,6-11.6,6.4c-1.9,0.4-3,0.6-5.6,0.2
		c-4.8-0.8-12.8-3.4-15.2-4.7c-2.4-1.3-4.9-2.8-8.1-7.9c-3.2-5.1-11.1-19.3-13-23.1c-1.9-3.8-11.8-30.2-11.8-30.2"/>
	<path class="st2" d="M92.7,113.6c0,0,7.9,7.3,8.3,10.9c5.1,1.9,9,3,10.7,4.3c2.1,0.2,6.8,0.4,6.8,0.4"/>
	<path class="st2" d="M97,131.6c0,0,0.9,2.1,3,2.8c2.1,0.6,8.3,1.9,9.6,1.9c1.3,0,5.6-0.6,7.5-0.9c1.9-0.2,8.6-1.7,8.6-1.7"/>
	<path class="st2" d="M96.1,139.3c0,0,0,0.9,1.7,1.5c1.7,0.6,8.1,2.6,10.9,2.1c2.8-0.4,17.3-5.3,17.3-5.3"/>
	<path class="st2" d="M99.5,120.9c0,0,2.8,1.7,4.9,1.9c0.2,1.1,0.6,3.2,0.6,3.2"/>
	<path class="st11" d="M121.1,130.4c0,0-1.1,3.5,0.4,4c1.8-0.4,4.2-1.2,4.2-1.2s0.4-2.8-0.5-2.9c-1.1-0.1-4.2,0-4.2,0"/>
	<path class="st11" d="M121.9,135.2c0,0-0.4,3.3,1,3.5c1.6-0.7,3.8-1.8,3.8-1.8s-0.1-2.5-1-2.5c-1.1,0.1-4,0.8-4,0.8"/>
	<path class="st11" d="M122.6,139.8c0,0,0.4,3,1.6,2.9c1.1-0.9,2.7-2.2,2.7-2.2s-0.7-2.2-1.3-2c-0.9,0.3-3.1,1.3-3.1,1.3"/>
</g>
<g id="streger">
	<line class="st18" x1="120.7" y1="89.4" x2="57.3" y2="111.4"/>
	<line class="st18" x1="55.3" y1="70.1" x2="101.3" y2="86.1"/>
	<line class="st18" x1="54.7" y1="28.1" x2="122.7" y2="64.1"/>
	<line class="st18" x1="151.3" y1="159.4" x2="158.7" y2="118.8"/>
	<polyline class="st18" points="153.3,88.1 149.7,33.4 145.3,91.4 	"/>
	<line class="st18" x1="115.7" y1="152.4" x2="47" y2="174.4"/>
</g>
<g id="txt">
	<text transform="matrix(1 0 0 1 130.668 169.4365)" class="st19 st20">Endetarm</text>
	<text transform="matrix(1 0 0 1 97.334 30.1045)" class="st19 st20">Livmodermund</text>
	<text transform="matrix(1 0 0 1 9.999 30.1045)" class="st19 st20">Livmoder</text>
	<text transform="matrix(1 0 0 1 9.999 114.7705)" class="st19 st20">Urinblære</text>
	<text transform="matrix(1 0 0 1 9.999 72.1045)"><tspan x="0" y="0" class="st19 st20">Kønsben</tspan><tspan x="0" y="10.8" class="st19 st20">(skamben)</tspan></text>
	<text transform="matrix(1 0 0 1 9.9992 178.1037)" class="st19 st20">Pessar</text>
</g>
</svg>
