<?xml version="1.0" encoding="utf-8"?>
<!-- Generator: Adobe Illustrator 19.1.0, SVG Export Plug-In . SVG Version: 6.00 Build 0)  -->
<svg version="1.1" xmlns="http://www.w3.org/2000/svg" xmlns:xlink="http://www.w3.org/1999/xlink" x="0px" y="0px"
	 viewBox="0 0 269.3 481" style="enable-background:new 0 0 269.3 481;" xml:space="preserve">
<style type="text/css">
	.st0{fill:#2A549E;}
	.st1{fill:#0082A8;}
	.st2{fill:#73A6D4;}
	.st3{fill:#47A5AA;}
	.st4{fill:#5C66A8;}
	.st5{fill:#5A7BB8;}
	.st6{fill:#FFFFFF;stroke:#000000;stroke-width:0.9703;}
	.st7{stroke:#000000;stroke-width:0.9703;}
	.st8{fill:#FFFFFF;stroke:#000000;}
	.st9{fill:#95418E;}
	.st10{fill:none;stroke:#FFFFFF;}
	.st11{fill:#FFFFFF;}
	.st12{font-family:'Verdana';}
	.st13{font-size:9px;}
</style>
<g id="Lag_4">
	<rect y="0.4" class="st0" width="134.6" height="182.5"/>
	<rect x="134.6" y="0.4" class="st1" width="134.6" height="182.5"/>
	<line class="st2" x1="0" y1="354.5" x2="134.6" y2="354.5"/>
	<line class="st3" x1="134.6" y1="354.5" x2="269.3" y2="354.5"/>
	<rect y="182.2" class="st4" width="134.6" height="174.7"/>
	<rect x="134.6" y="182.2" class="st5" width="134.6" height="174.7"/>
</g>
<g id="Lag_7">
</g>
<g id="Lag_1">
	<g>
		<path class="st6" d="M162.1,93.9c0,0-13,65.2,0.8,65.2c13.8,0.1,0.8-65.1,0.8-65.1l0-0.2c0,0,13.5-65.2-0.3-65.2
			C149.7,28.6,162.1,93.9,162.1,93.9z"/>
		<path class="st6" d="M162.1,93.9c0,0-13,65.2,0.8,65.2c13.8,0.1,0.8-65.1,0.8-65.1l0-0.2c0,0,13.5-65.2-0.3-65.2
			C149.7,28.6,162.1,93.9,162.1,93.9z"/>
	</g>
	<g>
		<path class="st6" d="M242.4,93.9c0,0-13,65.2,0.8,65.2c13.8,0.1,0.8-65.1,0.8-65.1l0-0.2c0,0,13.5-65.2-0.3-65.2
			C230,28.6,242.4,93.9,242.4,93.9z"/>
		<path class="st6" d="M242.4,93.9c0,0-13,65.2,0.8,65.2c13.8,0.1,0.8-65.1,0.8-65.1l0-0.2c0,0,13.5-65.2-0.3-65.2
			C230,28.6,242.4,93.9,242.4,93.9z"/>
	</g>
	<g>
		<path class="st6" d="M27.1,93.9c0,0-13,65.2,0.8,65.2c13.8,0.1,0.8-65.1,0.8-65.1l0-0.2c0,0,13.5-65.2-0.3-65.2
			C14.6,28.6,27.1,93.9,27.1,93.9z"/>
		<path class="st6" d="M27.1,93.9c0,0-13,65.2,0.8,65.2c13.8,0.1,0.8-65.1,0.8-65.1l0-0.2c0,0,13.5-65.2-0.3-65.2
			C14.6,28.6,27.1,93.9,27.1,93.9z"/>
	</g>
	<g>
		<path class="st6" d="M101.4,93.9c0,0-13,65.2,0.8,65.2c13.8,0.1,0.8-65.1,0.8-65.1l0-0.2c0,0,13.5-65.2-0.3-65.2
			C89,28.6,101.4,93.9,101.4,93.9z"/>
		<path class="st6" d="M101.4,93.9c0,0-13,65.2,0.8,65.2c13.8,0.1,0.8-65.1,0.8-65.1l0-0.2c0,0,13.5-65.2-0.3-65.2
			C89,28.6,101.4,93.9,101.4,93.9z"/>
	</g>
	<g>
		<path class="st6" d="M24.7,272.9c0,0-13,65.2,0.8,65.2c13.8,0.1,0.8-65.1,0.8-65.1l0-0.2c0,0,13.5-65.2-0.3-65.2
			C12.3,207.6,24.7,272.9,24.7,272.9z"/>
		<path class="st6" d="M24.7,272.9c0,0-13,65.2,0.8,65.2c13.8,0.1,0.8-65.1,0.8-65.1l0-0.2c0,0,13.5-65.2-0.3-65.2
			C12.3,207.6,24.7,272.9,24.7,272.9z"/>
	</g>
	<g>
		<path class="st6" d="M105.1,272.9c0,0-13,65.2,0.8,65.2c13.8,0.1,0.8-65.1,0.8-65.1l0-0.2c0,0,13.5-65.2-0.3-65.2
			C92.6,207.6,105.1,272.9,105.1,272.9z"/>
		<path class="st6" d="M105.1,272.9c0,0-13,65.2,0.8,65.2c13.8,0.1,0.8-65.1,0.8-65.1l0-0.2c0,0,13.5-65.2-0.3-65.2
			C92.6,207.6,105.1,272.9,105.1,272.9z"/>
	</g>
	<g>
		<path class="st7" d="M160.1,276.9c0,0-13,61.2,0.8,61.2c13.8,0.1,0.8-61.1,0.8-61.1l0-0.2c0,0,13.5-59.2-0.3-59.2
			C147.6,217.6,160.1,276.9,160.1,276.9z"/>
		<path class="st7" d="M160.1,276.9c0,0-13,61.2,0.8,61.2c13.8,0.1,0.8-61.1,0.8-61.1l0-0.2c0,0,13.5-59.2-0.3-59.2
			C147.6,217.6,160.1,276.9,160.1,276.9z"/>
	</g>
	<g>
		<path class="st8" d="M178.9,269c0,0-6.4,32,0.4,32c6.8,0,0.4-31.9,0.4-31.9l0-0.1c0,0,6.6-32-0.2-32
			C172.8,236.9,178.9,269,178.9,269z"/>
		<path class="st8" d="M178.9,269c0,0-6.4,32,0.4,32c6.8,0,0.4-31.9,0.4-31.9l0-0.1c0,0,6.6-32-0.2-32
			C172.8,236.9,178.9,269,178.9,269z"/>
	</g>
	<g>
		<path class="st8" d="M251.9,269c0,0-6.4,32,0.4,32c6.8,0,0.4-31.9,0.4-31.9l0-0.1c0,0,6.6-32-0.2-32
			C245.8,236.9,251.9,269,251.9,269z"/>
		<path class="st8" d="M251.9,269c0,0-6.4,32,0.4,32c6.8,0,0.4-31.9,0.4-31.9l0-0.1c0,0,6.6-32-0.2-32
			C245.8,236.9,251.9,269,251.9,269z"/>
	</g>
	<g>
		<path class="st7" d="M234.4,272.9c0,0-13,65.2,0.8,65.2c13.8,0.1,0.8-65.1,0.8-65.1l0-0.2c0,0,13.5-65.2-0.3-65.2
			C222,207.6,234.4,272.9,234.4,272.9z"/>
		<path class="st7" d="M234.4,272.9c0,0-13,65.2,0.8,65.2c13.8,0.1,0.8-65.1,0.8-65.1l0-0.2c0,0,13.5-65.2-0.3-65.2
			C222,207.6,234.4,272.9,234.4,272.9z"/>
	</g>
</g>
<g id="Lag_6">
	<path class="st9" d="M157.4,51.6l11.7,0.1c0,0-0.2,4.3-0.8,10.2c-3.4,0.1-10.2,0-10.2,0S157.6,53.7,157.4,51.6z"/>
	<path class="st9" d="M22.4,51.6l11.7,0.1c0,0-0.2,4.3-0.8,10.2c-3.4,0.1-10.3,0-10.3,0S22.6,53.7,22.4,51.6z"/>
	<path class="st9" d="M96.8,51.6l11.7,0.1c0,0-0.2,4.3-0.8,10.2c-3.4,0.1-10.2,0-10.2,0S96.9,53.7,96.8,51.6z"/>
	<path class="st9" d="M97.3,38.5l10.8,0.1c0,0,0.8,6,0.3,10.2c-3.4,0.1-11.7,0-11.7,0S96.7,42.9,97.3,38.5z"/>
	<path class="st9" d="M20.1,230.2l11.7,0.1c0,0-0.2,4.3-0.8,10.2c-3.4,0.1-10.2,0-10.2,0S20.3,232.2,20.1,230.2z"/>
	<path d="M20.6,217.1l11.1,0.1c0.9,7.5,1,7.1,0.7,10.2c-3.4,0.1-12.8,0-12.8,0S20,221.5,20.6,217.1z"/>
	<path d="M100.2,230.2l12,0.1c0,0-0.2,4.3-0.8,10.2c-3.4,0.1-10.5,0-10.5,0S100.3,232.2,100.2,230.2z"/>
	<path class="st9" d="M100.9,217.1l10.8,0.1c0,0,0.8,6,0.3,10.2c-3.4,0.1-11.7,0-11.7,0S100.3,221.5,100.9,217.1z"/>
	<path class="st9" d="M182.1,244.5h-5.2c0,0,0.1-7.2,2.7-7S182.1,244.5,182.1,244.5z"/>
	<path class="st9" d="M241.4,220.9h-11.5c0,0,0.5-12.8,5.8-12.8C241.6,208.1,241.4,220.9,241.4,220.9z"/>
</g>
<g id="pile">
	<g>
		<line class="st10" x1="174" y1="94.5" x2="230" y2="94.5"/>
		<polygon class="st11" points="226.2,99.6 226.2,89.4 235,94.5 		"/>
	</g>
	<g>
		<line class="st10" x1="33" y1="94.5" x2="89" y2="94.5"/>
		<polygon class="st11" points="85.1,99.6 85.1,89.4 94,94.5 		"/>
	</g>
	<g>
		<line class="st10" x1="36.7" y1="273.2" x2="92.7" y2="273.2"/>
		<polygon class="st11" points="88.8,278.3 88.8,268 97.7,273.2 		"/>
	</g>
	<g>
		<line class="st10" x1="188" y1="273.2" x2="222" y2="273.2"/>
		<polygon class="st11" points="218.1,278.3 218.1,268 227,273.2 		"/>
	</g>
</g>
<g id="Lag_2">
</g>
<g id="txt">
	<text transform="matrix(1 0 0 1 182.0171 27.2471)" class="st11 st12 st13">Deletion</text>
	<text transform="matrix(1 0 0 1 42.333 27.2466)" class="st11 st12 st13">Duplikation</text>
	<text transform="matrix(1 0 0 1 44.0005 211.5791)" class="st11 st12 st13">Inversion</text>
	<text transform="matrix(1 0 0 1 169.333 211.5791)" class="st11 st12 st13">Translokation</text>
</g>
</svg>
