<?xml version="1.0" encoding="utf-8"?>
<!-- Generator: Adobe Illustrator 19.1.0, SVG Export Plug-In . SVG Version: 6.00 Build 0)  -->
<svg version="1.1" xmlns="http://www.w3.org/2000/svg" xmlns:xlink="http://www.w3.org/1999/xlink" x="0px" y="0px"
	 viewBox="0 0 566.9 487.6" style="enable-background:new 0 0 566.9 487.6;" xml:space="preserve">
<style type="text/css">
	.st0{fill:url(#SVGID_1_);}
	.st1{fill:url(#SVGID_2_);stroke:#1A171B;}
	.st2{fill:url(#SVGID_3_);stroke:#1A171B;}
	.st3{fill:url(#SVGID_4_);stroke:#1A171B;}
	.st4{fill:url(#SVGID_5_);stroke:#1A171B;}
	.st5{fill:url(#SVGID_6_);stroke:#1A171B;}
	.st6{fill:url(#SVGID_7_);stroke:#1A171B;}
	.st7{fill:#8B0E13;stroke:#000000;}
	.st8{fill:none;stroke:#000000;}
	.st9{fill:none;stroke:#FFFFFF;stroke-width:2;}
	.st10{fill:#FFFFFF;}
	.st11{fill:none;stroke:#FFFFFF;stroke-width:2;stroke-dasharray:2,2;}
	.st12{fill:#1A171B;}
	.st13{font-family:'Verdana';}
	.st14{font-size:9px;}
</style>
<g id="Lag_5">
	<linearGradient id="SVGID_1_" gradientUnits="userSpaceOnUse" x1="135.5" y1="487.5586" x2="135.5" y2="6.170506e-06">
		<stop  offset="0" style="stop-color:#D4EDFC"/>
		<stop  offset="0.3012" style="stop-color:#A7D8D1"/>
		<stop  offset="0.5161" style="stop-color:#8BCBB7"/>
		<stop  offset="0.6771" style="stop-color:#6597AD"/>
		<stop  offset="0.8175" style="stop-color:#4971A5"/>
		<stop  offset="0.9298" style="stop-color:#375AA1"/>
		<stop  offset="1" style="stop-color:#31519F"/>
	</linearGradient>
	<rect y="0" class="st0" width="271" height="487.6"/>
</g>
<g id="Lag_4">
	<linearGradient id="SVGID_2_" gradientUnits="userSpaceOnUse" x1="220.4063" y1="161.6517" x2="234.5195" y2="161.6517">
		<stop  offset="0" style="stop-color:#C52523"/>
		<stop  offset="1" style="stop-color:#9A2A20"/>
	</linearGradient>
	<path class="st1" d="M221.4,149l2.7-0.9l5.1,0.6l4.8,4.3l0.5,6.2l-2.4,8.3l-2.5,5.2l-3.5,2.4l-3.4-0.1l-2.4-0.2c0,0,5.1-6.7,5.8-8
		c0.6-1.3,2-2.9,1.9-4.6c-0.1-2.1-2.6-9.4-2.6-9.4l-0.7-2.2c0,0-0.3-0.6-1-0.7C223.2,149.7,221.4,149,221.4,149z"/>
	<linearGradient id="SVGID_3_" gradientUnits="userSpaceOnUse" x1="178.2567" y1="150.2218" x2="201.374" y2="150.2218">
		<stop  offset="0" style="stop-color:#C52523"/>
		<stop  offset="1" style="stop-color:#9A2A20"/>
	</linearGradient>
	<path class="st2" d="M179.9,146.1c0,0,1.2-4,2.6-5.2c1.4-1.3,3.5-3.3,4.2-3.7c0.6-0.4,3.2-1.8,5.3-1.7c2.1,0.1,4.5-0.1,6.5,3.1
		c2,3.2,2.9,4.3,2.9,5.9c0,1.6-0.7,4.7-1.9,7.9c-1.2,3.2-1.3,7.3-4.6,9.6c-3.3,2.4-5.5,2.9-7.3,3.1c-1.8,0.2-4.9-0.9-6.1-2.6
		c-1.2-1.7-3.8-6.9-3.1-11C179.1,147.4,179.9,146.1,179.9,146.1z"/>
	
		<linearGradient id="SVGID_4_" gradientUnits="userSpaceOnUse" x1="138.4146" y1="417.8615" x2="165.2295" y2="417.8615" gradientTransform="matrix(-1 0 0 1 317.3652 0)">
		<stop  offset="0" style="stop-color:#C52523"/>
		<stop  offset="1" style="stop-color:#9A2A20"/>
	</linearGradient>
	<path class="st3" d="M167.5,402.6c0,0,1.2,0.1,2.5,1c1.3,0.9,4.6,3.5,5.1,3.9c0.5,0.4,1.9,1.9,2.7,5.5c0.8,3.5,1.3,4.2,1.1,6.1
		c-0.2,1.8-0.8,6-1.7,7.6c-0.9,1.6-1.7,3.6-4,4.8c-2.3,1.2-3.8,1.9-5.1,1.8c-1.2-0.1-4.4-0.4-4.4-0.4l-6.3-3.5l-4.3-4.2l-1-5.9
		l0.8-9.2l3.8-4.9l4.7-2l3.1-0.8h2.2L167.5,402.6z"/>
	
		<linearGradient id="SVGID_5_" gradientUnits="userSpaceOnUse" x1="176.7763" y1="420.0244" x2="196.664" y2="420.0244" gradientTransform="matrix(-1 0 0 1 317.3652 0)">
		<stop  offset="0" style="stop-color:#C52523"/>
		<stop  offset="1" style="stop-color:#9A2A20"/>
	</linearGradient>
	<path class="st4" d="M139.4,408.7l-1.4,1.1l-0.8,0.4c0,0-2.2,0.9-3,1.2c-0.8,0.3-1.1,1.1-1.4,1.5c-0.2,0.4-1.3,1.9-1.8,2.8
		c-0.6,0.9-0.7,0.6-1,2.2c-0.2,1.5,0.6,3,1,4.5c0.4,1.5,1,4.3,1.3,5.4c0.2,1,1,3.8,1.4,4.7c0.4,0.9,1.8,2.1,1.8,2.1h-2l-2.8-1
		l-3-1.1l-2.7-2l-2.3-3.7l-1.6-3.8l-0.2-5.5l1.7-5.6l2.7-3.1l3.9-2.5l4.6-0.8l3.1,0.8l3.8,2C140.6,408.3,139.3,408.4,139.4,408.7z"
		/>
	<linearGradient id="SVGID_6_" gradientUnits="userSpaceOnUse" x1="70.9976" y1="322.488" x2="95.047" y2="322.488">
		<stop  offset="0" style="stop-color:#C52523"/>
		<stop  offset="1" style="stop-color:#9A2A20"/>
	</linearGradient>
	<path class="st5" d="M73.4,310.9c0,0,2-1.8,2.3-2c0.3-0.2,1.8-1.3,3.3-1.4c1.6-0.1,7.4,2.1,8.8,3.2c1.4,1.1,4.8,4.5,5.4,5.7
		c0.6,1.2,2.1,3.8,1.8,6.3c-0.3,2.5-0.9,5.2-1.2,6.3c-0.3,1.1-0.4,3.3-1.2,4.3c-0.7,1-3.4,2.4-3.4,2.4l-2.3,1.6c0,0-1.8,0.4-3.3,0
		c-1.5-0.4-3.6-1.2-5.4-3c-1.8-1.8-3.3-3-4.4-5.2c-1.1-2.2-2.1-3.5-2.5-7c-0.4-3.4-0.3-5.1,0-6.6C71.5,314,72.3,311.9,73.4,310.9z"
		/>
	<linearGradient id="SVGID_7_" gradientUnits="userSpaceOnUse" x1="104.875" y1="309.3037" x2="129.894" y2="309.3037">
		<stop  offset="0" style="stop-color:#C52523"/>
		<stop  offset="1" style="stop-color:#9A2A20"/>
	</linearGradient>
	<path class="st6" d="M104.9,302.7c0,0,1-2.5,1.4-3.2c0.4-0.6,1.2-1.2,1.2-1.2l4.6-2.4l3.1-0.6l5.5,2.9l5.3,4.3l3.1,5.2l0.8,7.2
		l-2.2,3.9l-2.6,2.3l-1.6,0.6l-1.4,0.7c0,0-2,0.6-2.6,0.6c-0.6,0-2.6-0.2-3.4-0.4c0.2-0.3,1.1-2,1.5-3.3c0.4-1.2,1.1-2.1,0.8-3.5
		c-0.3-1.4-0.7-3.9-1.2-5.1c-0.5-1.2-0.8-2.2-1.8-2.6c-1-0.4-1.6-0.2-1.8,0c-0.2,0.3-0.7,0.7-0.7,0.7l-2.4-3.6c0,0-0.2-0.2-0.5-0.3
		c-0.4-0.1-1.4,0-1.7,0.1c-0.4,0.2-1,0.2-1.4,1.4c-0.3-0.1-0.8-0.3-0.8-0.3s-0.4-1.6-0.5-2.1C105.4,303.8,104.9,302.7,104.9,302.7z"
		/>
</g>
<g id="Lag_3">
	<path class="st7" d="M221.3,149c0,0,6-1.9,8.9,0.6c2.9,2.6,3,3.1,3.2,4.9c0.2,1.8,0.5,4.4-1,8.6c-1.7,4.8-2.8,9.1-5.2,10.2
		c-2.5,1.1-4.9,1.1-6.3,1.3c-1,1.2-1.3,1.3-1.3,1.3s4.1,1.5,5.1,1.5c1.1,0,7.8-0.4,10.3-4.5c2.5-4.1,3.8-7.3,4.2-9.7s-0.3-5.6-1-7.5
		c-0.6-1.9-1.3-3.3-2.9-4.6c-1.6-1.3-4.4-2.7-5.8-2.9C228.1,147.9,224.1,147.4,221.3,149z"/>
	<path class="st7" d="M192.7,135.3c0,0,4.1,0.1,4.8,0.4c0.7,0.3,4.9,3.1,6.1,4.3c1.2,1.2,1,1.4,1.3,2.6c0.3,1.2,1.6,5.7,1.6,6.2
		c0,0.5,0.4,2.2-0.9,5.3c-1.3,3.1-2.2,5.8-2.7,6.4c-0.4,0.6-1.8,2.5-2.8,3.2c-1,0.7-2.7,2.4-4,2.7c-1.3,0.3-3.2-0.2-4-0.3
		c-0.7-0.1-5.5-1-5.5-1s8-3.1,8.7-4.1s5.2-12,5.6-13.7c0.3-1.7,1-3.3-0.5-5.2c-1.5-1.9-4-5.3-4.5-5.6
		C195.5,136.4,192.7,135.3,192.7,135.3z"/>
	<path class="st7" d="M167.7,402.7c0,0-3-0.6-5.8,1c-2.8,1.6-6.2,3.5-7,5.5c-0.8,1.9-1.5,4.5-1.2,8c0.3,3.5,0.6,7.5,2.1,8.8
		c1.5,1.3,5.5,4.2,7.4,5.4c1.9,1.1,4.2,2.3,6.3,1.8c-3.5,1-6.7,1.5-8.8,0.8c-2.2-0.7-6.9-3.4-7.4-3.8c-0.5-0.4-3.4-3-4-6
		c-0.6-3-1.3-7.5-0.2-10.4c1.1-3,1.8-5.3,3.2-6.7c1.4-1.4,2.4-2.4,3.3-2.9c0.9-0.5,3-0.9,4.4-1.2
		C161.4,402.4,165.9,401.9,167.7,402.7z"/>
	<path class="st7" d="M140.6,408.4c0,0-2.6-1.8-3.7-2.2c-1-0.4-2.9-1-3.8-1c-0.9,0-7,0.7-7.9,1.2c-0.9,0.5-3.8,2.2-5.1,4.2
		c-1.3,2-2.4,5.1-2.5,7.2c-0.1,2.1,0.1,6.3,1,8.2c1,1.8,2.2,4.5,4.6,5.9c2.4,1.4,3.8,2.4,5.5,2.7c1.7,0.3,4.1,0.7,6.8,0.1
		c-1.1-0.3-5.5-1.9-7.5-3.1c-1.9-1.2-3.8-2.3-4.8-4.8c-1-2.5-2-4.7-1.8-7.2c0.2-2.5,0.5-5.9,1.7-7.3c1.2-1.4,1.8-3.4,4.2-4.5
		c2.4-1.1,4.8-1.9,6.6-1.8C135.8,406,139.9,407.8,140.6,408.4z"/>
	<path class="st7" d="M106.4,299.1c0,0,4.1-3.5,5.4-4c1.3-0.5,4.7-1.5,5.9-1.5c1.1,0,4.1,0.6,6.7,2.2c2.6,1.6,4.6,3.2,5.5,4.9
		c0.9,1.7,2.6,5.5,2.6,7.9c0,2.5,0.2,5.6-0.7,7.2c-1,1.6-2.7,4.2-4.4,5.1c-1.7,0.9-4.6,1.6-5.5,1.9c1.7-1,5.1-5.9,5.6-7.5
		c0.6-1.7,0.6-5.2,0.3-6.6c-0.3-1.4-2.5-4.3-3-4.8c-0.6-0.5-2.9-2.8-4.5-3.9c-1.6-1.1-3.8-3.7-5.4-3.6
		C113.3,296.4,107.6,297.8,106.4,299.1z"/>
	<path class="st7" d="M73.2,311c0,0,2.6-2.6,3.3-2.6c0.7-0.1,3.8-0.9,5.4,0.2c1.6,1,6.8,4.9,8,6.4c1.2,1.5,2.7,3.6,2.9,5.9
		c0.2,2.2,0.6,5.6,0,7.7c-0.6,2.1-1.5,4.3-3,6.1c-1.4,1.8-3,2.8-3,2.8s8.8-3.4,11-6.4c0.2-0.4,1.5-3.4,1.8-4.1
		c0.2-0.6,0.1-2.8,0-3.3c-0.1-0.5,0.2-1.8,0.2-2.4c-0.5-1.6-1.4-4.9-1.9-5.8c-0.6-0.9-2.2-3.4-3.2-4.3c-1-0.9-3.3-3-5.3-4
		c-2-1-3.4-1.7-3.9-1.7c-0.6,0-1.3-0.2-2,0.1C82.8,305.7,76.3,306.6,73.2,311z"/>
</g>
<g id="Lag_2">
	<g>
		<path class="st8" d="M149.4,200.8c0,0,0.8,2.8-5.2-17.8c-6.1-20.6-2.6-29-0.8-33.9c1.8-4.8,8.7-9.7,13.1-13.1
			c4.4-3.4,12.5-12.5,12.5-12.5s1.7-1.5,2.3-3.9"/>
		<path class="st8" d="M152.8,145.3c0,0-6.3,2.4-8.1,8.3c-1.8,5.9-4.2,14.1-0.8,25.8c3.4,11.7,3.4,11.3,4.6,15.9
			c1.2,4.6,0.4,14.3,1.6,20.2c1.2,5.9,3,10.9,5.4,17.8c2.4,6.9,4.4,9.3,5.9,11.9c1.4,2.6,2.6,7.1,5.6,8.5c3,1.4,6.5,3.2,11.3,1.4
			c4.8-1.8,4.8-6.1,7.3-8.9c2.4-2.8,6.1-7.7,8.3-11.7c2.2-4,6.7-16.3,11.5-27.8c4.8-11.5,4.6-12.7,6.1-15.3c1.4-2.6,2.6-4.8,3.2-7.5
			c0.6-2.6,2.6-5.2,4.6-7.7c2-2.4,4.4-5.4,6.1-8.1c0,0,0.9-1.6,1.8-3.1c0.7-1.1,1.2-2.2,0.7-4.3c-0.4-2-1.5-5-2-6.6
			c-0.5-1.6-0.9-4.1-1.7-4.3c-0.9-0.2-2.2-0.5-2.7-0.6c-0.4-0.1-0.7-1.5-1.3-2c-0.5-0.5-1.3-1.4-1.9-1.4c-0.6,0-1.3-0.2-1.7,0.2
			c-1-1.1-1.6-1.8-2.2-2c-0.6-0.2-1.4-0.5-2.5,0.1c-0.4-0.9-1.8-1.8-2.8-1.6c-1,0.2-2.5-0.3-3-0.3c-0.5,0-1.4-0.2-1.4-0.2
			s1.2,4.2,1.6,6.2c0.4,2-0.1,4.7-1.3,7.5c-1.2,2.8-1.7,5.1-4,7.4c-2.2,2.2-4,3.4-5.9,3.4c-1.9,0-2.8-0.2-2.8-0.2s2,4.1,2.9,5.8
			c0.9,1.7,1.5,3.7,1.1,6.3c-0.4,2.6-1.5,5.9-2.2,7.2c-0.7,1.3-1.6,3.4-2.6,4.9c-0.9,1.4-2.9,4.5-4.2,6.3c-0.6,0.8-0.8,1.7-3,5
			c-1.3,2-6.1,6.3-6.7,7.1c0.5-3.2,2.5-6.6,3-11.3c0.5-4.7-1.4-11.1-2.4-13.4c-1-2.2-0.4-6.5-0.4-6.5c0.1-3.4,1.3-14.6-0.6-18.9
			c-1.8-4.2-4.4-8.5-8.1-10.5"/>
		<path class="st8" d="M166.7,224.2c0,0,1.9-5.9,4-8.9c1.1-1.5,4.3-4.7,7.1-6.5"/>
		<path class="st8" d="M212,144.1c0,0,0.6,4.9,1,6.5c0,0-0.5,6.3-0.5,7.5c0,1.2,0.7,3-1,4.4c-1.7,1.4-1.4,1.2-1.4,1.2"/>
		<path class="st8" d="M216.7,146c0,0,1.2,6.7,1.5,8.7c0.3,1.9,0.3,3.3,1,4.7c0.6,1.4,0.7,2.6,0,3.8c-0.7,1.3-1.5,2-1.5,2"/>
		<path class="st8" d="M221.6,149.2c0,0,1,5.9,1.2,6.7c0.2,0.9,0.6,1.9,1,3c0.3,1.1,1.2,2.5,0.2,4c-1,1.5-1.4,2.2-1.4,2.2"/>
	</g>
	<g>
		<path class="st8" d="M209.3,332.7c0,0,1.6,4.2,5.2,7.9c3.6,3.6,8.7,6.9,10.9,9.5c2.2,2.6,7.1,6.9,8.9,12.9c1.8,6.1,4,15.9,2.2,24
			c-1.8,8.1-2.5,10.1-4.5,17.6"/>
		<path class="st8" d="M221.6,354.9c0,0,4.8,0.2,7.3,2.8c2.4,2.6,6.7,7.9,6.5,18.2c-0.2,10.3-1,14.9-2,19.6c-1,4.6-1.4,7.3-1.4,13.1
			c0,5.8,0.8,9.1-0.4,14.9c-1.2,5.9-2,7.7-2.8,13.5c-0.8,5.8-0.4,10.9-3.2,16.5c-2.8,5.6-4.6,9.3-7.5,11.1c-2.8,1.8-5.4,3-10.5,1
			c-5-2-10.7-3.4-14.7-4.6c-4-1.2-10.3-6.3-15.7-9.1c-5.4-2.8-8.3-5.4-11.3-7.1c0,0-2-1.2-2.8-1.8c-0.7-0.5-1.8-1.4-2.8-1.5
			c-1-0.1-3.1-1.1-4.2-1.7c-1.1-0.6-1.8-1.7-2.7-2c-0.9-0.3-3.4-0.7-4.3-0.7s-3.5,0.6-4.9,0.1c-1.4-0.5-1.7-1.3-1.7-1.3
			s-0.7,0.5-2.1,0.3c-1.4-0.2-2.5-1-2.9-1.2c-1.4-0.1-2.5-0.7-3.2-1.6c-0.7-0.9-1.6-4.1-2.1-6.6c-0.6-3.7-2-6.6-2.2-8.6
			c-0.1-1.5,0.7-1.8,1.8-3.5c1.1-1.7,1.1-1.9,1.5-2.4c0.5-0.7,2.1-1.4,3-1.7c0.9-0.3,2-0.9,2-0.9s1.5-1.2,2-1.3c0.5-0.1,1.6,0,2-0.1
			c0.7-0.2-0.1-0.1,0.3,0.3c0,0,0.7-1.4,1.5-1.4c0.7,0,4.1,0.3,4.1,0.3s-1.2-2.1-1.2-3.5c0-1.4,0.6-2,1.5-2.4c0.9-0.3,1-0.3,1.5,0
			c0.5,0.3,3.4,1.9,3.4,1.9l2,0.3c0,0-2.2,1.8-3.1,2.8c-0.9,1-1.9,3.2-2.7,5c-0.7,1.8-1.3,4.6-1.2,6.8c0.1,2.2,0.3,3.8,1,5.8
			c0.6,1.9,1.8,3.8,3.6,5.5c1.8,1.6,5.3,3.1,6.6,3.7c1.3,0.6,5.7,0.9,8,0.2c2.4-0.6,6.3-2.2,7.5-3.7c1.4,0.6,7.3,2.6,9.3,3
			c2,0.4,3.6,0.6,5.5,0.6c1.8,0,4.5-0.1,6.6,0.3c2.1,0.4,7.2,0.7,8.2,0.4c0.2-2.5,0.4-2.6,0-5.2c-0.4-2.7-4.2-11.1-4.6-16.9
			c-0.4-5.8,0-11.1,0.5-14.2c0.5-3.1,1-4.4,1.1-5.1c0.1-0.7-1.9-8.8-2.2-13.2c-0.3-4.4-0.2-7.6,1-11.1"/>
		<path class="st8" d="M205.1,434.3c0,0,4.1-1.2,5.7,0c1.6,1.2,2.2,2.1,3.7,4.2c1.5,2,1.4,2.4,2.9,3.5"/>
		<path class="st8" d="M155.5,435c0,0-0.9,2.4-4.4,2.4"/>
		<path class="st8" d="M150.9,409.1c0,0-1.9-0.4-2.8-1.5"/>
		<path class="st8" d="M152.9,406.2c0,0-1.1-0.6-2.5-1.6c-1.4-1-1.4-1-1.4-1l0.4-2.1"/>
		<path class="st8" d="M149.5,408.6c0,0-1.9-0.3-2.7,0c-0.7,0.3-3.1,3.2-3.8,5c-0.7,1.8-2,2.2-1.4,5.1c0.6,2.9,1.5,5,2.7,7.4
			c1.2,2.4,2.2,4.5,2.8,5.9c0.5,1.4,0.4,4.3,1.9,5"/>
		<path class="st8" d="M142.6,408.6c-0.1,0.3-3.6,3.5-4.6,4.9c-1,1.4-2.2,2-1.2,5.7c1.1,3.6,2.5,7.1,3.1,9c0.6,1.9,1,2.4,1.2,3.7
			c0.2,1.4-0.4,2.7,1.3,4"/>
		<path class="st8" d="M138.2,409.7c0,0-3,4.1-3.7,5c-0.7,1-2.4,1.3-1.1,4.7c1.3,3.4,1.2,4.8,1.8,7.7s0,6.1,2.1,7.9"/>
	</g>
	<g>
		<path class="st8" d="M50.4,118.6c0,0-0.4,4.4-4.4,8.3c-4,3.8-9.7,9.5-13.1,12.5c-3.4,3-8.3,6.9-10.1,17.3
			c-1.8,10.5-1.7,17.1,2.5,29.9"/>
		<path class="st8" d="M38.9,143c0,0-6.5,0.4-9.9,3.6c-3.4,3.2-6.7,10.9-6.3,20.8c0.4,9.9,1.8,15.9,2.8,20c1,4,1,6.9,1.2,11.9
			c0.2,5,0.2,10.1,2,15.9c1.8,5.9,1.2,7.3,3.2,13.7c2,6.5,3.8,9.7,4.8,12.5c1,2.8,1.8,4,2.4,5.6c0.6,1.6-0.2,3,1.6,5.4
			c1.8,2.4,3,4,5,7.1c2,3,5.2,7.7,7.7,11.7c2.4,4,7.3,10.7,11.7,14.1c4.4,3.4,10.5,8.9,12.7,11.5c2.2,2.6,4.8,4.2,5.6,8.5
			c0,0,1.7-0.2,2.8,0.1c1.1,0.3,3.4,1.6,5.3,2.9c1.8,1.3,3.7,3.1,4.4,4.2c0.7,1,2,3.3,2,3.3l1.8,1.1c0,0-0.3,2.8,0,3.7l0,0
			c0,0-0.5,1.7-0.3,3c0.2,1.3,0.3,1.8-0.1,3.2c-0.4,1.4-1.2,3-1.8,4.1c1.4,0.2,3.4,0.4,4.1,0c0.7-0.4,1.4-0.7,1.8-1.7
			c0.8,0.2,4.4-1,5.4-2c0.5-0.1,3.6-0.4,4.7-3.3c1-0.1,2.4-1.4,2.8-2.2c0.4-0.9,1.5-3.4,1.7-4.3c0.2-0.9-0.2-3.3-0.6-4.8
			c-0.4-1.5-1.2-3.4-1.8-3.8c-0.6-0.4-1.8-1.3-3,0.4c-0.7-1-2.2-3.5-2.2-3.5s-0.3-0.6-1.4-0.5c-1,0.1-2.1,0.4-2.4,1.6
			c-0.4-0.2-0.8-0.3-0.8-0.3s-0.2-1.8-1-3.3c-0.8-1.4-1.9-3.7-3.4-4.8c-1.4-1.1-1.8-1.4-3-1.9c-1-1.1-5.1-5.1-8.4-9.3
			c-3.3-4.2-7.4-11.3-8.8-13.9c-1.4-2.6-3.8-8.4-5.3-11.3c-1.5-2.9-5.1-7.5-7.1-9.5c-2-2-4.4-3.7-5.6-5.5c-1.2-1.8-2.2-2.7-3-4.7
			c-0.7-2-2.4-5.1-3.1-6.7c-0.7-1.6-1.6-3.1-1.4-5c0.2-1.8,3-9.4,4-14.8c1.4-7.3,0-18.4-1.3-25.6c-1.3-7.1-2.2-8.2-2.2-9.8
			c0-1.6,0.5-3,1-5.5c0.6-2.5,2.4-11.3,1.2-16.6c-1.2-5.3-1.8-6-2.6-7.5"/>
		<path class="st8" d="M93.4,301.1c0,0,1,0.1,1.7,1.5c0.6,1.4,0.8,2,1.3,2.3c0.5,0.3,5.5,2.2,6.9,3.1c1.4,0.9,3.7,2.4,4.6,3.4
			c0.9,1,1.3,2.4,0.8,4.1c-0.3,1.1-1.4,2.3-2.4,2.9c-0.9,0.5-5.3-1-6.3-1.4"/>
		<path class="st8" d="M86.5,305.1c0,0,0.3-1.8,0.8-2.8"/>
		<path class="st8" d="M103,307.7c0,0,1.7-1.9,3.1-1.3c1.4,0.6,1.8,3.1,2.4,3.6c0.6,0.5,2.3,3.7,2.7,4.7c0.4,1,0.4,3.7,0,5.5
			c-0.4,1.8-1.3,4.7-2.1,7"/>
		<path class="st8" d="M106.3,318.4c0,0,1.1,1.6,0.2,4.1c-0.9,2.5-2.7,6.7-2.7,6.7"/>
		<path class="st8" d="M112.9,309.1c0,0,1.4,3.8,1.8,5.3c0.4,1.4,1.1,2.3,0.8,4.2c-0.3,1.8-1.7,5.4-1.7,5.4"/>
		<path class="st8" d="M106.4,317.1c0,0-3.9-2.1-4.2-2.4c-0.3-0.3,0.2-1.8,0.6-2.6c0.3-0.8,0.7-1.8,2.2-1.3c1.5,0.5,3.4,1.7,3.4,1.7
			S108.9,315.8,106.4,317.1z"/>
		<path class="st8" d="M108.2,306.9c0,0,0.4-1.7,2.1-1.4c0.8,1.1,1.9,3,1.9,3s0.2,1.5-0.9,1.5c-1,0-1.8,0-2.2-1
			C108.6,308,108.2,306.9,108.2,306.9z"/>
		<path class="st8" d="M105.1,309.2l-0.7-1.4c0,0,0.9-1.4,2.2-0.9c0.9,1.4,1.7,3,1.7,3s0.2,1.2-0.6,1.2"/>
		<path class="st8" d="M114.4,309.8c0,0,0.2-1.2,1.8-0.7c0.6,1.1,0.8,2.5,0.8,2.5s0.1,0.8-0.3,1c-0.4,0.2-1,0.2-1.4-0.1
			C114.9,312.2,114.4,309.8,114.4,309.8z"/>
		<line class="st8" x1="100" y1="320.7" x2="101.8" y2="322.5"/>
		<path class="st8" d="M98.7,296.4c0,0-1.8-0.6-3.3-0.5"/>
	</g>
</g>
<g id="pile">
	<path class="st9" d="M67.2,197.1c0,0,19.8,17.7,14.7,57.6"/>
	<path class="st9" d="M191.7,184.1c0,0-3-7.8-9.9-6"/>
	<polygon class="st10" points="184.6,181.4 179.2,176.4 186.2,174.3 	"/>
	<polygon class="st10" points="85.6,252.6 81.1,258.4 78.4,251.6 	"/>
	<g>
		<polygon class="st10" points="182.1,484.5 175.8,488.1 182.1,491.7 		"/>
		<polygon class="st10" points="233.4,491.7 239.7,488.1 233.4,484.5 		"/>
		<line class="st11" x1="235" y1="488.1" x2="180.4" y2="488.1"/>
	</g>
</g>
<g id="txt">
	<text transform="matrix(1 0 0 1 16.6538 355.4473)"><tspan x="0" y="0" class="st12 st13 st14">Tohovedede armbøjer </tspan><tspan x="0" y="10.8" class="st12 st13 st14">excentrisk muskelarbejde</tspan></text>
	<text transform="matrix(1 0 0 1 138.3955 275.4521)"><tspan x="0" y="0" class="st12 st13 st14">Tohovedede armbøjer</tspan><tspan x="0" y="10.8" class="st12 st13 st14">koncentrisk muskelarbejde</tspan></text>
	<text transform="matrix(1 0 0 1 52.3701 464.8613)"><tspan x="0" y="0" class="st12 st13 st14">Tohovedede armbøjer</tspan><tspan x="0" y="10.8" class="st12 st13 st14">isometrisk muskelarbejde</tspan></text>
</g>
</svg>
