<?xml version="1.0" encoding="utf-8"?>
<!-- Generator: Adobe Illustrator 22.0.1, SVG Export Plug-In . SVG Version: 6.00 Build 0)  -->
<svg version="1.1" xmlns="http://www.w3.org/2000/svg" xmlns:xlink="http://www.w3.org/1999/xlink" x="0px" y="0px"
	 viewBox="0 0 566.9 481" style="enable-background:new 0 0 566.9 481;" xml:space="preserve">
<style type="text/css">
	.st0{fill:url(#SVGID_1_);}
	.st1{fill:#E2001A;stroke:#FFFFFF;stroke-width:0.5;}
	.st2{fill:#E9602B;stroke:#FFFFFF;stroke-width:0.5;}
	.st3{fill:#F7AD2A;stroke:#FFFFFF;stroke-width:0.5;}
	.st4{fill:#3E3D40;stroke:#000000;stroke-width:0.3378;}
	.st5{fill:url(#SVGID_2_);stroke:#000000;stroke-width:0.3122;}
	.st6{fill:url(#SVGID_3_);}
	.st7{fill:url(#SVGID_4_);}
	.st8{fill:none;stroke:#000000;stroke-width:0.6244;}
	.st9{fill:url(#SVGID_5_);stroke:#000000;stroke-width:0.3122;}
	.st10{fill:url(#SVGID_6_);}
	.st11{fill:url(#SVGID_7_);}
	.st12{fill:none;stroke:#FFFFFF;stroke-width:0.75;}
	.st13{font-family:'Verdana';}
	.st14{font-size:9px;}
	.st15{fill:#FFFFFF;}
</style>
<g id="Lag_7">
	<linearGradient id="SVGID_1_" gradientUnits="userSpaceOnUse" x1="283.4644" y1="218.2549" x2="283.4644" y2="6.100803e-06">
		<stop  offset="0" style="stop-color:#E2001A"/>
		<stop  offset="1.923339e-02" style="stop-color:#E53817"/>
		<stop  offset="4.796164e-02" style="stop-color:#E95D0F"/>
		<stop  offset="7.699291e-02" style="stop-color:#ED7603"/>
		<stop  offset="0.1061" style="stop-color:#F08700"/>
		<stop  offset="0.1352" style="stop-color:#F29100"/>
		<stop  offset="0.1647" style="stop-color:#F29400"/>
		<stop  offset="0.3054" style="stop-color:#FDC400"/>
		<stop  offset="0.334" style="stop-color:#F3C500"/>
		<stop  offset="0.389" style="stop-color:#D8C500"/>
		<stop  offset="0.4642" style="stop-color:#A2C003"/>
		<stop  offset="0.476" style="stop-color:#97BF0D"/>
		<stop  offset="0.6257" style="stop-color:#009EE0"/>
		<stop  offset="0.703" style="stop-color:#0087CC"/>
		<stop  offset="0.7715" style="stop-color:#0073BA"/>
		<stop  offset="0.8054" style="stop-color:#006AB3"/>
		<stop  offset="0.8168" style="stop-color:#0066AF"/>
		<stop  offset="0.8762" style="stop-color:#2F4F9A"/>
		<stop  offset="0.9281" style="stop-color:#513A8C"/>
		<stop  offset="0.9702" style="stop-color:#5E2984"/>
		<stop  offset="0.997" style="stop-color:#622181"/>
	</linearGradient>
	<rect y="0" class="st0" width="566.9" height="218.3"/>
</g>
<g id="Lag_1">
	<rect x="271" y="39.4" class="st1" width="20.3" height="46.5"/>
	<rect x="234" y="85.5" class="st2" width="94.3" height="45.8"/>
	<rect x="145.9" y="131" class="st3" width="270.5" height="48.5"/>
</g>
<g id="Lag_2">
	<path d="M277,44c0,1-0.8,1.7-1.7,1.7c-1,0-1.7-0.8-1.7-1.7c0-1,0.8-1.7,1.7-1.7C276.2,42.2,277,43,277,44z"/>
	<path d="M282.7,48.8c0,1-0.8,1.7-1.7,1.7c-1,0-1.7-0.8-1.7-1.7c0-1,0.8-1.7,1.7-1.7C281.9,47,282.7,47.8,282.7,48.8z"/>
	<path d="M284,43.1c0,1-0.8,1.7-1.7,1.7s-1.7-0.8-1.7-1.7c0-1,0.8-1.7,1.7-1.7S284,42.1,284,43.1z"/>
	<path d="M289.7,45.7c0,1-0.8,1.7-1.7,1.7c-1,0-1.7-0.8-1.7-1.7c0-1,0.8-1.7,1.7-1.7C288.9,44,289.7,44.8,289.7,45.7z"/>
	<path d="M276.8,51.8c0,1-0.8,1.7-1.7,1.7c-1,0-1.7-0.8-1.7-1.7c0-1,0.8-1.7,1.7-1.7C276,50.1,276.8,50.9,276.8,51.8z"/>
	<path d="M283.8,54.2c0,1-0.8,1.7-1.7,1.7c-1,0-1.7-0.8-1.7-1.7c0-1,0.8-1.7,1.7-1.7C283,52.5,283.8,53.3,283.8,54.2z"/>
	<path d="M289.5,52c0,1-0.8,1.7-1.7,1.7c-1,0-1.7-0.8-1.7-1.7s0.8-1.7,1.7-1.7C288.7,50.3,289.5,51.1,289.5,52z"/>
	<path d="M289.3,59.7c0,1-0.8,1.7-1.7,1.7c-1,0-1.7-0.8-1.7-1.7c0-1,0.8-1.7,1.7-1.7C288.5,57.9,289.3,58.7,289.3,59.7z"/>
	<path d="M283.4,59.9c0,1-0.8,1.7-1.7,1.7c-1,0-1.7-0.8-1.7-1.7c0-1,0.8-1.7,1.7-1.7C282.6,58.2,283.4,58.9,283.4,59.9z"/>
	<path d="M276.6,58.2c0,1-0.8,1.7-1.7,1.7c-1,0-1.7-0.8-1.7-1.7c0-1,0.8-1.7,1.7-1.7C275.8,56.4,276.6,57.2,276.6,58.2z"/>
	<path d="M276.6,64.1c0,1-0.8,1.7-1.7,1.7c-1,0-1.7-0.8-1.7-1.7c0-1,0.8-1.7,1.7-1.7C275.8,62.3,276.6,63.1,276.6,64.1z"/>
	<path d="M285.1,65.4c0,1-0.8,1.7-1.7,1.7c-1,0-1.7-0.8-1.7-1.7c0-1,0.8-1.7,1.7-1.7C284.3,63.6,285.1,64.4,285.1,65.4z"/>
	<path d="M289.3,69.5c0,1-0.8,1.7-1.7,1.7c-1,0-1.7-0.8-1.7-1.7c0-1,0.8-1.7,1.7-1.7C288.5,67.8,289.3,68.5,289.3,69.5z"/>
	<path d="M283.4,73.4c0,1-0.8,1.7-1.7,1.7c-1,0-1.7-0.8-1.7-1.7c0-1,0.8-1.7,1.7-1.7C282.6,71.7,283.4,72.5,283.4,73.4z"/>
	<path d="M278.6,69.9c0,1-0.8,1.7-1.7,1.7c-1,0-1.7-0.8-1.7-1.7c0-1,0.8-1.7,1.7-1.7C277.8,68.2,278.6,69,278.6,69.9z"/>
	<path d="M276.8,75.8c0,1-0.8,1.7-1.7,1.7c-1,0-1.7-0.8-1.7-1.7c0-1,0.8-1.7,1.7-1.7C276,74.1,276.8,74.9,276.8,75.8z"/>
	<path d="M282.3,78.9c0,1-0.8,1.7-1.7,1.7c-1,0-1.7-0.8-1.7-1.7c0-1,0.8-1.7,1.7-1.7C281.5,77.2,282.3,77.9,282.3,78.9z"/>
	<path d="M288.8,75.6c0,1-0.8,1.7-1.7,1.7c-1,0-1.7-0.8-1.7-1.7c0-1,0.8-1.7,1.7-1.7C288,73.9,288.8,74.7,288.8,75.6z"/>
	<path d="M287.7,81.5c0,1-0.8,1.7-1.7,1.7c-1,0-1.7-0.8-1.7-1.7c0-1,0.8-1.7,1.7-1.7C286.9,79.8,287.7,80.6,287.7,81.5z"/>
	<path d="M277.5,82c0,1-0.8,1.7-1.7,1.7c-1,0-1.7-0.8-1.7-1.7c0-1,0.8-1.7,1.7-1.7C276.7,80.2,277.5,81,277.5,82z"/>
	<path d="M243.6,93.7c0,1-0.8,1.7-1.7,1.7c-1,0-1.7-0.8-1.7-1.7c0-1,0.8-1.7,1.7-1.7C242.8,92,243.6,92.8,243.6,93.7z"/>
	<path d="M263.1,92.7c0,1-0.8,1.7-1.7,1.7c-1,0-1.7-0.8-1.7-1.7c0-1,0.8-1.7,1.7-1.7C262.3,90.9,263.1,91.7,263.1,92.7z"/>
	<path d="M249.5,101.8c0,1-0.8,1.7-1.7,1.7c-1,0-1.7-0.8-1.7-1.7c0-1,0.8-1.7,1.7-1.7C248.7,100.1,249.5,100.9,249.5,101.8z"/>
	<path d="M262,109.7c0,1-0.8,1.7-1.7,1.7c-1,0-1.7-0.8-1.7-1.7c0-1,0.8-1.7,1.7-1.7C261.2,107.9,262,108.7,262,109.7z"/>
	<path d="M250.4,113c0,1-0.8,1.7-1.7,1.7c-1,0-1.7-0.8-1.7-1.7c0-1,0.8-1.7,1.7-1.7C249.6,111.2,250.4,112,250.4,113z"/>
	<path d="M258.3,119.7c0,1-0.8,1.7-1.7,1.7c-1,0-1.7-0.8-1.7-1.7c0-1,0.8-1.7,1.7-1.7C257.5,118,258.3,118.8,258.3,119.7z"/>
	<path d="M166.1,143.9c0,1-0.8,1.7-1.7,1.7c-1,0-1.7-0.8-1.7-1.7c0-1,0.8-1.7,1.7-1.7C165.4,142.2,166.1,143,166.1,143.9z"/>
	<path d="M176.2,166c0,1-0.8,1.7-1.7,1.7c-1,0-1.7-0.8-1.7-1.7c0-1,0.8-1.7,1.7-1.7C175.4,164.2,176.2,165,176.2,166z"/>
	<path d="M192.1,151.1c0,1-0.8,1.7-1.7,1.7s-1.7-0.8-1.7-1.7c0-1,0.8-1.7,1.7-1.7S192.1,150.2,192.1,151.1z"/>
	<path d="M206.7,167.1c0,1-0.8,1.7-1.7,1.7c-1,0-1.7-0.8-1.7-1.7c0-1,0.8-1.7,1.7-1.7C206,165.3,206.7,166.1,206.7,167.1z"/>
	<path d="M223.1,142.4c0,1-0.8,1.7-1.7,1.7c-1,0-1.7-0.8-1.7-1.7s0.8-1.7,1.7-1.7C222.3,140.6,223.1,141.4,223.1,142.4z"/>
	<path d="M233.8,165.5c0,1-0.8,1.7-1.7,1.7c-1,0-1.7-0.8-1.7-1.7c0-1,0.8-1.7,1.7-1.7C233,163.8,233.8,164.6,233.8,165.5z"/>
	<path d="M245.8,152.6c0,1-0.8,1.7-1.7,1.7c-1,0-1.7-0.8-1.7-1.7c0-1,0.8-1.7,1.7-1.7C245,150.9,245.8,151.7,245.8,152.6z"/>
	<path d="M270.9,140.2c0,1-0.8,1.7-1.7,1.7c-1,0-1.7-0.8-1.7-1.7c0-1,0.8-1.7,1.7-1.7C270.1,138.5,270.9,139.2,270.9,140.2z"/>
	<path d="M267,163.8c0,1-0.8,1.7-1.7,1.7c-1,0-1.7-0.8-1.7-1.7c0-1,0.8-1.7,1.7-1.7C266.2,162,267,162.8,267,163.8z"/>
	<path d="M286,153.1c0,1-0.8,1.7-1.7,1.7c-1,0-1.7-0.8-1.7-1.7c0-1,0.8-1.7,1.7-1.7C285.2,151.3,286,152.1,286,153.1z"/>
	<path d="M303.4,169.5c0,1-0.8,1.7-1.7,1.7c-1,0-1.7-0.8-1.7-1.7c0-1,0.8-1.7,1.7-1.7C302.7,167.7,303.4,168.5,303.4,169.5z"/>
	<path d="M323.7,158.8c0,1-0.8,1.7-1.7,1.7c-1,0-1.7-0.8-1.7-1.7c0-1,0.8-1.7,1.7-1.7C323,157,323.7,157.8,323.7,158.8z"/>
	<path d="M312,142.2c0,1-0.8,1.7-1.7,1.7c-1,0-1.7-0.8-1.7-1.7c0-1,0.8-1.7,1.7-1.7C311.2,140.4,312,141.2,312,142.2z"/>
	<path d="M345.1,138.9c0,1-0.8,1.7-1.7,1.7c-1,0-1.7-0.8-1.7-1.7c0-1,0.8-1.7,1.7-1.7C344.4,137.1,345.1,137.9,345.1,138.9z"/>
	<path d="M349.7,159.9c0,1-0.8,1.7-1.7,1.7c-1,0-1.7-0.8-1.7-1.7c0-1,0.8-1.7,1.7-1.7C348.9,158.1,349.7,158.9,349.7,159.9z"/>
	<path d="M370.5,171c0,1-0.8,1.7-1.7,1.7c-1,0-1.7-0.8-1.7-1.7c0-1,0.8-1.7,1.7-1.7C369.7,169.2,370.5,170,370.5,171z"/>
	<path d="M370.5,150.2c0,1-0.8,1.7-1.7,1.7c-1,0-1.7-0.8-1.7-1.7c0-1,0.8-1.7,1.7-1.7C369.7,148.5,370.5,149.3,370.5,150.2z"/>
	<path d="M388.8,138.9c0,1-0.8,1.7-1.7,1.7c-1,0-1.7-0.8-1.7-1.7c0-1,0.8-1.7,1.7-1.7C388,137.1,388.8,137.9,388.8,138.9z"/>
	<path d="M408.4,151.6c0,1-0.8,1.7-1.7,1.7c-1,0-1.7-0.8-1.7-1.7c0-1,0.8-1.7,1.7-1.7C407.7,149.8,408.4,150.6,408.4,151.6z"/>
	<path d="M397.1,164c0,1-0.8,1.7-1.7,1.7c-1,0-1.7-0.8-1.7-1.7c0-1,0.8-1.7,1.7-1.7C396.3,162.3,397.1,163,397.1,164z"/>
	<path d="M273.8,124.5c0,1-0.8,1.7-1.7,1.7c-1,0-1.7-0.8-1.7-1.7c0-1,0.8-1.7,1.7-1.7C273,122.8,273.8,123.6,273.8,124.5z"/>
	<path d="M280.3,113.6c0,1-0.8,1.7-1.7,1.7c-1,0-1.7-0.8-1.7-1.7c0-1,0.8-1.7,1.7-1.7C279.5,111.9,280.3,112.6,280.3,113.6z"/>
	<path d="M275.3,102c0,1-0.8,1.7-1.7,1.7c-1,0-1.7-0.8-1.7-1.7c0-1,0.8-1.7,1.7-1.7C274.5,100.3,275.3,101.1,275.3,102z"/>
	<path d="M285.5,93.7c0,1-0.8,1.7-1.7,1.7c-1,0-1.7-0.8-1.7-1.7c0-1,0.8-1.7,1.7-1.7C284.8,92,285.5,92.8,285.5,93.7z"/>
	<path d="M293.6,103.8c0,1-0.8,1.7-1.7,1.7c-1,0-1.7-0.8-1.7-1.7c0-1,0.8-1.7,1.7-1.7C292.8,102,293.6,102.8,293.6,103.8z"/>
	<path d="M307.2,95.3c0,1-0.8,1.7-1.7,1.7c-1,0-1.7-0.8-1.7-1.7c0-1,0.8-1.7,1.7-1.7C306.4,93.5,307.2,94.3,307.2,95.3z"/>
	<path d="M321.8,92.2c0,1-0.8,1.7-1.7,1.7c-1,0-1.7-0.8-1.7-1.7c0-1,0.8-1.7,1.7-1.7C321,90.5,321.8,91.3,321.8,92.2z"/>
	<path d="M325.9,106.4c0,1-0.8,1.7-1.7,1.7c-1,0-1.7-0.8-1.7-1.7c0-1,0.8-1.7,1.7-1.7C325.1,104.7,325.9,105.4,325.9,106.4z"/>
	<path d="M315,103.8c0,1-0.8,1.7-1.7,1.7c-1,0-1.7-0.8-1.7-1.7c0-1,0.8-1.7,1.7-1.7C314.2,102,315,102.8,315,103.8z"/>
	<path d="M305.4,110.6c0,1-0.8,1.7-1.7,1.7c-1,0-1.7-0.8-1.7-1.7c0-1,0.8-1.7,1.7-1.7C304.6,108.8,305.4,109.6,305.4,110.6z"/>
	<path d="M293.4,117.1c0,1-0.8,1.7-1.7,1.7c-1,0-1.7-0.8-1.7-1.7c0-1,0.8-1.7,1.7-1.7C292.6,115.4,293.4,116.1,293.4,117.1z"/>
	<path d="M302.8,125.4c0,1-0.8,1.7-1.7,1.7c-1,0-1.7-0.8-1.7-1.7c0-1,0.8-1.7,1.7-1.7C302,123.7,302.8,124.4,302.8,125.4z"/>
	<path d="M317,121.2c0,1-0.8,1.7-1.7,1.7c-1,0-1.7-0.8-1.7-1.7c0-1,0.8-1.7,1.7-1.7C316.2,119.5,317,120.3,317,121.2z"/>
	<path d="M243.6,122.8c0,1-0.8,1.7-1.7,1.7c-1,0-1.7-0.8-1.7-1.7c0-1,0.8-1.7,1.7-1.7C242.8,121,243.6,121.8,243.6,122.8z"/>
</g>
<g id="fisk">
	<g>
		<path d="M441.8,104.8c0,0,12.2-5.5,15.3-6.3c3.1-0.8,7.5-2.3,9.8-2.6c1.7-1.7,9.2-6.8,10.6-7c1.3-0.2,3.8-1.2,4.4,0.9
			c0.6,2.1-0.5,3.9-2,5.8c0.8,0.2,1.5,0.5,1.5,0.5s5.9-3.4,7.6-3.9c1.7-0.5,3.6-0.7,5.1,0.9c1.1,0.2,3.1,1.8,4.5,3
			c1.4,1.2,3.2,1.9,2.3,2.7c-1,0.8-1.4,1.2-1.4,1.2s1.9,0.8,2.6,0.8c0.7,0,1.2-0.4,3-1.1c1.8-0.7,5.5-3,7-2.5
			c1.5,0.5,4.3,1.9,5.2,2.7c0.9,0.8,1.2,1.7,0.7,2c-0.5,0.4-1.2,1.1-1.2,1.1s2.5,0.5,4.3-0.1c1.8-0.6,9.6-3.7,10.7-4
			c1.1-0.4,3.9-1.9,3.6,0.4c-0.4,2.3-1.1,4.3-0.8,5.3c0.2,1.1,0.7,4.6,0.7,5.8c0,1.2,0.6,3.9-1.3,3c-1.9-0.9-7-2.4-8.5-3.3
			c-1.5-0.9-4.2-2-4.2-2s-2.1-0.6-3.9,0.1c-0.2,1.2-1.1,1.9-1.1,1.9s0.5,0.7,0,1.5c-0.5,0.8-1.4,1.1-1.3,1.5
			c0.1,0.5,0.5,1.2-0.7,1.4c-1.2,0.2-6.9-0.4-10.3-2.7c-0.8,0-1.3-0.4-1.3,0c0,0.4,0.7,1.9-0.1,3.1c-0.8,1.2-1.8,1.9-2.3,3.2
			c-0.5,1.3,0.1,3-1.2,2.7c-1.3-0.2-13.9-4-13.9-4s-7.9,1.2-11.4,0.9c-3.4-0.2-6.5-0.6-9.2-1.2c1.5,0.9,3.8,2,3.3,3.1
			c-0.5,1.1-1.1,2-1.1,3.2c0,1.2,0.1,2.8,0.1,2.8s-2.5-3.3-3.4-5.1c-1-1.8-1.9-4.4-2.6-4.6c-0.7-0.2-3-0.7-4.4-0.8
			c-1.4-0.1-3.6-0.6-4.4-0.8c-0.8-0.2-1.4-0.6-1.4-0.6s-3.1-0.5-5.8-1.8c-2.7-1.3-3.3-1.5-3.7-2c-0.4-0.5-0.9-1.3,0.5-0.8
			c1.4,0.5,3.2,0.9,3.2,0.9s-0.9-1.1-2.6-1.4c-1.7-0.4-3.1-0.8-2.6-1.8C440,106,440.7,105.5,441.8,104.8z"/>
		<path d="M441.3,110.1c0,0,0,0.7-0.2,1c-0.2,0.4-0.7,0.9-0.2,1.4c0.4,0.5,0.4,1,0.4,1.4c0,0.4,0-1.4,0-1.4s-0.4-0.2-0.2-0.6
			c0.2-0.4,0.9-1.5,0.9-1.5"/>
	</g>
</g>
<g id="fugl">
	<path d="M434.4,9.5c0.2-1.6,4.8,5.7,6,7.3c1.2,1.6,3.3,3.4,5.4,4.9c2.1,1.5,6.2,4.2,6.9,5.3c0.7,1.1-0.1,1.5,1.3,2.1
		c1.4,0.6,2.5,0.6,3,2.5c0.4,1.9,0.5,5.8,0.2,7.9c-0.3,2.1-0.9,6.2-0.9,6.2s3.3-7.3,3.8-9.1c0.5-1.7,0.2-3,2.1-3.9
		c1.9-0.9,7.6-5.3,9.5-6.7c1.8-1.4,4.6-4,5.4-4.8c0.8-0.8,1.6-1.9,1.6-1.9s0,3.4-1.6,5.1c1.8-1.3,6.3-5.7,7-5.8
		c0.7-0.1,2.4-1.3,0.9,0.9c-1.5,2.2-4.7,6.3-6,7.5c3.4-1.7,8.4-4.7,9.3-5c0.8-0.3,3.1-0.9,1,0.9c-2,1.8-5.6,5.2-5.6,5.2l2.6-0.7
		c0,0,2.6-0.8,0.1,1.2c-2.5,2-4,3.9-4,3.9l1.9-0.1c0,0,2-0.7-0.1,0.9c-2.1,1.6-3.4,1.9-3.7,2.5c-0.3,0.6-0.5,1.3-1.6,2.2
		c-1.1,0.9-2.8,1.7-2,1.7c0.8,0,3.9,0,2.2,1.1c-1.6,1.1-5.2,3.3-5.2,3.3s0,2.1-1.8,2.7c-0.2,1-0.4,1.5-1,1.6c-0.2,1.1,0,1.3-0.7,1.6
		c-0.1,1.3-0.3,2.1-0.8,2.2c-0.2,0.8-0.3,1.7-1.1,1.9c-0.4,1-0.4,1.9-0.9,1.9c-0.4,0.6-0.6,0.9-1.1,1.6c-0.5,0.7-2.6,3.9-2.6,3.9
		s7.3,5.9,8.3,7.1c1,1.2,1.1,1.8-0.3,2.4c-0.3,1.1-1.1,1.2-1.5,1.1c-0.3,1.1-0.6,0.9-1.2,0.9c-0.8,0.9-1.7,0.7-2,0.5
		c-0.5,0.6-1.3,0.3-2,0c-0.8,0.3-0.8,0.7-2-0.4c-1.2,0.3-1.2,0.3-2.5-0.3c-1.3-0.6-2.7-1.9-3.5-2c-0.7-0.1-0.4-0.8-1.1-0.5
		c-0.7,0.3-2.6,0.7-3.3,1.5c-0.6,0.8-0.5,1.4-0.5,1.4s0.5-0.3,1.7,0c1.2,0.3,2.1,0.9,2.2,1.5c-0.7-0.6-0.7-0.4-1.6-0.9
		c-0.9-0.5-3.5,0-3.5,0c-1.2,0.7-0.7,0.6-1.3,1c-0.8,0.5-0.6,1-0.9,1.5c0.1-1.3,0.4-1.8,1.1-2.3c0.7-0.5,1.2-0.9,1.2-0.9
		s-1.2,0-2.2,0.7c0.5-0.8,1.6-1.1,2.2-1.3c0.5-0.7,0.5-2.2,1.1-3.5c0.6-1.2,2-2.5,1.2-3.3c-0.8-0.7-2.7-3.2-3.9-4.2
		c-1.1-1-1.9-1.5-3.7-1.1c-1.7,0.4-3.5,1.6-3.8,2.1c-0.3,0.5-0.6,0.7-0.6,0.7s-0.9-1,0-2.6c-0.4-1.6-0.8-4.1,1.4-5.7
		c2.2-1.6,6.7-3.2,7.5-3.8c0.8-0.6,1.4-1.2,1-2.8c-0.4-1.6-0.9-3.1-1.5-3.9c-0.6-0.8-0.8-1.3-0.9-1.8c-0.1-0.5-0.7-0.8-0.8-1.1
		c-0.1-0.3,0.1-0.9-0.2-1.1c-0.3-0.2-0.3,0.5-1.2-0.3c-0.9-0.8-2-1.4-1.4-2.4c-1.3-0.5-1.7-1.2-1.1-2c-2.2-1.1-3.8-4-3.8-4
		s-2.2-0.7-1.3-2.7c-0.4-1.9-1.6-3.5-2-4.6c-0.4-1.1,0-1,0.4-0.9c0.4,0.1-1-1-1.4-2.5c-0.4-1.5,0.2-1.7,0.2-1.7s0.5,0.9-0.5-1.3
		c-1-2.2-1-2.6-0.6-2.5C435.6,16.1,434,12.7,434.4,9.5z"/>
</g>
<g id="Lag_9">
	<g>
		<path class="st4" d="M483.4,163.6c0,0,0.3-0.1,0.2,1.1c-0.1,1.2-0.1,3.8-0.1,4.4c0,0.6,0.2,2.1,0.3,2.1c0-0.5,0-2.2,0.1-3.4
			c0.1-1.2,0.3-2,0.5-2.9c0.2-0.9,0.4-2.1,0.2-2.4c-0.2-0.3-0.4,0-0.4,0L483.4,163.6z"/>
		<path class="st4" d="M484.6,162.4c0,0,0,0.2,0,0.7c0,0.5-0.3,2.2-0.4,2.6c-0.1,0.5-0.2,1.2-0.3,2c-0.1,0.8-0.1,2.8-0.1,3.4
			c0.1,0,0.2,0.1,0.2-0.3c0-0.4,0.1-1.9,0.6-3.6c0.4-1.7,0.5-2,0.7-2.7c0.3-0.6,0.7-0.9,1-1.2c0.2-0.2,0.4-0.2,0.5-0.2
			c0,0,0.3-0.6,0.5-0.5c0.2,0.2,0.3,1,0.7,2c0.4,1.1,0.8,2,1.1,2.5c0.3,0.5,0.6,0.7,0.6,0.7c0,0,0-0.5-0.3-1.3
			c-0.3-0.9-0.5-1.5-0.7-2.5c-0.2-0.9-0.3-1.8-0.4-2.5c-0.1-0.7,0-0.8-0.1-0.9c0-0.1-0.1-0.1-0.2-0.2c-0.1,0-0.4,0.2-0.5,0.2
			c-0.2,0-0.3,0-0.4,0c-0.1,0.1-0.1,0.2-0.2,0.4c-0.1,0.2-0.5,0.6-0.6,0.8c-0.1,0.2-0.3,0.3-0.6,0.3
			C485.5,162.3,484.6,162.4,484.6,162.4z"/>
		<path class="st4" d="M483.2,163.6c-0.1,0-0.4-0.2-1.1,1.3c-0.7,1.5-1.1,2.2-1.2,2.5c-0.1,0.4-0.3,1-0.4,1
			c-0.1-0.1-0.1-0.7,0.2-1.7c0.2-1.1,0.6-2.4,0.9-3.2c0.3-0.8,0.5-1.5,0.5-1.5l1.3,1.3l0,0.3H483.2z"/>
		<polygon class="st4" points="482.1,162 482.6,160.4 483.3,160.3 484.6,162.4 483.4,163.6 		"/>
		<path class="st4" d="M484,158.8c0,0-1.2,1.3-1.4,1.7c0.3,0,0.6,0,0.7,0c0,0,1.4-1.6,1.4-1.6l-0.2-0.2L484,158.8z"/>
		<path class="st4" d="M484.7,158.7l-1.5,1.7l1.3,2.1l1.5-0.2c0,0,1-0.9,0.9-1.5c-0.1-0.6-0.3-0.6-0.3-0.6L484.7,158.7z"/>
		<path class="st4" d="M485.7,149.4c0,0-0.4,1.9-0.4,2.9s-0.2,3.5-0.4,4.5c-0.2,0.9-0.5,1.7-0.8,2c0.3,0,0.7,0,0.7,0l0.3-0.1
			c0,0,0.6-2.2,0.6-3c0-0.8,0-3.7,0-3.7L485.7,149.4z"/>
		<path class="st4" d="M485.7,149.3c0,0-0.3,4-0.3,4.8c0.1,0.8,0,2.4-0.2,3.2c-0.2,0.9-0.4,1.1-0.5,1.5c0.4,0.3,2,1.5,2.2,1.6
			c0-0.5-0.7-3.7-0.8-4.8c-0.1-1.1-0.2-5.4-0.2-5.4L485.7,149.3z"/>
		<path class="st4" d="M485.8,149.1c0.1,0,0.1,0.5,0.1,0.9c0,0.4,0,4.1,0.5,6.1c0.5,2,1,3.2,1.3,3.6c0.4,0.4,0.4,0.5,0.3,0.8
			c-0.1,0.3-0.5,0.4-0.7,0.4s-0.5,0.2-0.5,0.2s-1-4.6-1.1-5.9c-0.1-1.3-0.1-2.8-0.1-3.8C485.7,150.3,485.7,149.1,485.8,149.1z"/>
	</g>
	<g>
		<path class="st4" d="M518.6,162.8c0,0,0.3-0.1,0.2,1.1c-0.1,1.2-0.1,3.8-0.1,4.4c0,0.6,0.2,2.1,0.3,2.1c0-0.5,0-2.2,0.1-3.4
			c0.1-1.2,0.3-2,0.5-2.9c0.2-0.9,0.4-2.1,0.2-2.4c-0.2-0.3-0.4,0-0.4,0L518.6,162.8z"/>
		<path class="st4" d="M519.7,161.7c0,0,0,0.2,0,0.7c0,0.5-0.3,2.2-0.4,2.6c-0.1,0.5-0.2,1.2-0.3,2c-0.1,0.8-0.1,2.8-0.1,3.4
			c0.1,0,0.2,0.1,0.2-0.3c0-0.4,0.1-1.9,0.6-3.6c0.4-1.7,0.5-2,0.7-2.7c0.3-0.6,0.7-0.9,1-1.2c0.2-0.2,0.4-0.2,0.5-0.2
			c0,0,0.3-0.6,0.5-0.5c0.2,0.2,0.3,1,0.7,2c0.4,1.1,0.8,2,1.1,2.5c0.3,0.5,0.6,0.7,0.6,0.7c0,0,0-0.5-0.3-1.3
			c-0.3-0.9-0.5-1.5-0.7-2.5c-0.2-0.9-0.3-1.8-0.4-2.5c-0.1-0.7,0-0.8-0.1-0.9c0-0.1-0.1-0.1-0.2-0.2c-0.1,0-0.4,0.2-0.5,0.2
			c-0.2,0-0.3,0-0.4,0c-0.1,0.1-0.1,0.2-0.2,0.4c-0.1,0.2-0.5,0.6-0.6,0.8c-0.1,0.2-0.3,0.3-0.6,0.3
			C520.6,161.6,519.7,161.7,519.7,161.7z"/>
		<path class="st4" d="M518.4,162.9c-0.1,0-0.4-0.2-1.1,1.3c-0.7,1.5-1.1,2.2-1.2,2.5c-0.1,0.4-0.3,1-0.4,1
			c-0.1-0.1-0.1-0.7,0.2-1.7c0.2-1.1,0.6-2.4,0.9-3.2c0.3-0.8,0.5-1.5,0.5-1.5l1.3,1.3l0,0.3H518.4z"/>
		<polygon class="st4" points="517.3,161.3 517.8,159.7 518.5,159.6 519.8,161.7 518.6,162.9 		"/>
		<path class="st4" d="M519.2,158c0,0-1.2,1.3-1.4,1.7c0.3,0,0.6,0,0.7,0c0,0,1.4-1.6,1.4-1.6l-0.2-0.2L519.2,158z"/>
		<path class="st4" d="M519.9,158l-1.5,1.7l1.3,2.1l1.5-0.2c0,0,1-0.9,0.9-1.5c-0.1-0.6-0.3-0.6-0.3-0.6L519.9,158z"/>
		<path class="st4" d="M520.8,148.7c0,0-0.4,1.9-0.4,2.9c0,1-0.2,3.5-0.4,4.5c-0.2,0.9-0.5,1.7-0.8,2c0.3,0,0.7,0,0.7,0l0.3-0.1
			c0,0,0.6-2.2,0.6-3c0-0.8,0-3.7,0-3.7L520.8,148.7z"/>
		<path class="st4" d="M520.9,148.5c0,0-0.3,4-0.3,4.8c0.1,0.8,0,2.4-0.2,3.2c-0.2,0.9-0.4,1.1-0.5,1.5c0.4,0.3,2,1.5,2.2,1.6
			c0-0.5-0.7-3.7-0.8-4.8c-0.1-1.1-0.2-5.4-0.2-5.4L520.9,148.5z"/>
		<path class="st4" d="M521,148.4c0.1,0,0.1,0.5,0.1,0.9c0,0.4,0,4.1,0.5,6.1c0.5,2,1,3.2,1.3,3.6c0.4,0.4,0.4,0.5,0.3,0.8
			c-0.1,0.3-0.5,0.4-0.7,0.4c-0.2,0-0.5,0.2-0.5,0.2s-1-4.6-1.1-5.9c-0.1-1.3-0.1-2.8-0.1-3.8S520.8,148.4,521,148.4z"/>
	</g>
	<g>
		<path class="st4" d="M445.1,158.2c0,0,0.3-0.1,0.2,1.1c-0.1,1.2-0.1,3.8-0.1,4.4c0,0.6,0.2,2.1,0.3,2.1c0-0.5,0-2.2,0.1-3.4
			c0.1-1.2,0.3-2,0.5-2.9c0.2-0.9,0.4-2.1,0.2-2.4c-0.2-0.3-0.4,0-0.4,0L445.1,158.2z"/>
		<path class="st4" d="M446.3,157c0,0,0,0.2,0,0.7c0,0.5-0.3,2.2-0.4,2.6c-0.1,0.5-0.2,1.2-0.3,2c-0.1,0.8-0.1,2.8-0.1,3.4
			c0.1,0,0.2,0.1,0.2-0.3c0-0.4,0.1-1.9,0.6-3.6c0.4-1.7,0.5-2,0.7-2.7c0.3-0.6,0.7-0.9,1-1.2c0.2-0.2,0.4-0.2,0.5-0.2
			c0,0,0.3-0.6,0.5-0.5c0.2,0.2,0.3,1,0.7,2c0.4,1.1,0.8,2,1.1,2.5c0.3,0.5,0.6,0.7,0.6,0.7c0,0,0-0.5-0.3-1.3
			c-0.3-0.9-0.5-1.5-0.7-2.5c-0.2-0.9-0.3-1.8-0.4-2.5c-0.1-0.7,0-0.8-0.1-0.9c0-0.1-0.1-0.1-0.2-0.2c-0.1,0-0.4,0.2-0.5,0.2
			c-0.2,0-0.3,0-0.4,0c-0.1,0.1-0.1,0.2-0.2,0.4c-0.1,0.2-0.5,0.6-0.6,0.8c-0.1,0.2-0.3,0.3-0.6,0.3
			C447.2,156.9,446.3,157,446.3,157z"/>
		<path class="st4" d="M445,158.2c-0.1,0-0.4-0.2-1.1,1.3c-0.7,1.5-1.1,2.2-1.2,2.5c-0.1,0.4-0.3,1-0.4,1c-0.1-0.1-0.1-0.7,0.2-1.7
			c0.2-1.1,0.6-2.4,0.9-3.2c0.3-0.8,0.5-1.5,0.5-1.5l1.3,1.3l0,0.3H445z"/>
		<polygon class="st4" points="443.9,156.6 444.4,155 445.1,154.9 446.4,157 445.1,158.2 		"/>
		<path class="st4" d="M445.8,153.4c0,0-1.2,1.3-1.4,1.7c0.3,0,0.6,0,0.7,0c0,0,1.4-1.6,1.4-1.6l-0.2-0.2L445.8,153.4z"/>
		<path class="st4" d="M446.5,153.3l-1.5,1.7l1.3,2.1l1.5-0.2c0,0,1-0.9,0.9-1.5c-0.1-0.6-0.3-0.6-0.3-0.6L446.5,153.3z"/>
		<path class="st4" d="M447.4,144c0,0-0.4,1.9-0.4,2.9c0,1-0.2,3.5-0.4,4.5c-0.2,0.9-0.5,1.7-0.8,2c0.3,0,0.7,0,0.7,0l0.3-0.1
			c0,0,0.6-2.2,0.6-3c0-0.8,0-3.7,0-3.7L447.4,144z"/>
		<path class="st4" d="M447.5,143.9c0,0-0.3,4-0.3,4.8c0.1,0.8,0,2.4-0.2,3.2c-0.2,0.9-0.4,1.1-0.5,1.5c0.4,0.3,2,1.5,2.2,1.6
			c0-0.5-0.7-3.7-0.8-4.8c-0.1-1.1-0.2-5.4-0.2-5.4L447.5,143.9z"/>
		<path class="st4" d="M447.6,143.7c0.1,0,0.1,0.5,0.1,0.9c0,0.4,0,4.1,0.5,6.1c0.5,2,1,3.2,1.3,3.6c0.4,0.4,0.4,0.5,0.3,0.8
			c-0.1,0.3-0.5,0.4-0.7,0.4s-0.5,0.2-0.5,0.2s-1-4.6-1.1-5.9c-0.1-1.3-0.1-2.8-0.1-3.8C447.5,144.9,447.4,143.7,447.6,143.7z"/>
	</g>
	<g>
		<g>
			<linearGradient id="SVGID_2_" gradientUnits="userSpaceOnUse" x1="491.7698" y1="153.6734" x2="512.2859" y2="153.6734">
				<stop  offset="0.1011" style="stop-color:#646567"/>
				<stop  offset="0.5" style="stop-color:#000000"/>
				<stop  offset="0.8933" style="stop-color:#646567"/>
			</linearGradient>
			<path class="st5" d="M505.2,156.5c-0.4-0.2-0.7-0.7-0.8-1.2c-0.1-0.7-0.5-1.3-0.9-1.6c0.4-0.3,0.9-0.9,0.9-1.6
				c0.1-0.6,0.4-1.1,0.8-1.2c0.4-0.2,7-3.4,7.1-3.9c0-0.2-0.2-0.4-0.4-0.2c-0.2,0.1-6.7,3.3-7.4,3.4c-0.2,0-0.2,0-0.3,0
				s-1.4-0.3-2.1-0.3c-0.7,0-1.8,0.2-2.1,0.3c-0.2,0.1-0.4,0-0.4,0c-0.7,0-7.2-3.2-7.4-3.4c-0.2-0.1-0.4,0-0.4,0.2
				c0.1,0.5,6.7,3.7,7.1,3.9c0.4,0.2,0.7,0.7,0.8,1.2c0.1,0.7,0.5,1.3,0.9,1.6c-0.4,0.3-0.9,0.9-0.9,1.6c-0.1,0.6-0.4,1.1-0.8,1.2
				c-0.4,0.2-7,3.4-7.1,3.9c0,0.2,0.2,0.4,0.4,0.2c0.2-0.1,6.7-3.3,7.4-3.4c0,0,0.1-0.1,0.4,0c0.3,0.1,1.4,0.3,2.1,0.3
				c0.7,0,2-0.3,2.1-0.3s0.2,0,0.3,0c0.7,0.1,7.2,3.2,7.4,3.4c0.2,0.1,0.4,0,0.4-0.2C512.2,159.9,505.6,156.7,505.2,156.5z"/>
		</g>
		<radialGradient id="SVGID_3_" cx="502.22" cy="151.8887" r="1.6386" gradientUnits="userSpaceOnUse">
			<stop  offset="0.118" style="stop-color:#5D5D5F"/>
			<stop  offset="1" style="stop-color:#000000"/>
		</radialGradient>
		<path class="st6" d="M500.9,150.7c0.3-0.2,0.8-0.7,1.2-0.4c0.3,0.3,0.9,0.4,1.1,0.6c0.2,0.1,0.5,0.2,0.6,0.6
			c0.1,0.4,0,0.9-0.2,1.1c-0.2,0.2-0.5,0.8-0.7,0.9c-0.2,0.1-0.5,0.1-0.8-0.3c-0.3-0.4-0.6-0.4-0.8-0.5c-0.2-0.2-0.7,0.1-0.6-0.3
			c0-0.4,0-0.4,0.2-0.6c0.1-0.2,0.4-0.4,0.2-0.5C500.8,151.2,500.8,150.8,500.9,150.7z"/>
		
			<radialGradient id="SVGID_4_" cx="469.9671" cy="189.113" r="1.6388" gradientTransform="matrix(0.8948 0.4464 0.4464 -0.8948 -3.0125 115.0269)" gradientUnits="userSpaceOnUse">
			<stop  offset="0.118" style="stop-color:#5D5D5F"/>
			<stop  offset="1" style="stop-color:#000000"/>
		</radialGradient>
		<path class="st7" d="M500.3,156.1c0.2,0.4,0.4,1,0.9,0.9c0.4-0.1,1,0,1.2,0c0.2,0,0.6,0,0.8-0.3c0.3-0.3,0.4-0.8,0.3-1.1
			c-0.1-0.3-0.1-0.9-0.2-1.1c-0.1-0.2-0.4-0.3-0.9-0.1c-0.4,0.2-0.7,0.1-0.9,0.1c-0.2,0.1-0.5-0.4-0.7,0c-0.2,0.4-0.1,0.4-0.1,0.6
			c0,0.2,0.2,0.5-0.1,0.5C500.4,155.6,500.2,155.9,500.3,156.1z"/>
		<path class="st8" d="M492,147l0.3,0.2c0,0,0.1,0,0.2,0c0.1,0,0.2,0.3,0.2,0.3s0.2,0,0.2,0c0.1,0,0.1,0.2,0.1,0.2l0.3,0l0.1,0.3
			l0.2,0l0.1,0.1l0.2,0l0.1,0.2h0.2c0,0,0,0.1,0.1,0.1c0.1,0,0.3,0,0.3,0s0,0.1,0,0.1c0.1,0,0.3,0.1,0.3,0.1l0.1,0.2
			c0,0,0.1-0.1,0.1-0.1c0,0.1,0.2,0.2,0.2,0.2s0.1-0.1,0.2,0c0,0.1,0.1,0.2,0.1,0.2s0.1,0,0.2,0c0.1,0,0.2,0.2,0.2,0.2h0.2
			c0,0,0.1,0.1,0.2,0.2c0.1,0.1,0.3,0.1,0.3,0.1l0.1,0.2c0,0,0-0.2,0.1-0.1c0.1,0.1,0.1,0.2,0.2,0.2c0.1,0,0.1-0.1,0.3,0
			c0.1,0.1,0.2,0.2,0.2,0.2s0.1-0.1,0.2,0c0.1,0.1,0.2,0.2,0.2,0.2l0.2,0c0,0,0,0.1,0.1,0.1c0.1,0,0.3,0,0.3,0.1c0,0.1,0,0.1,0,0.1
			s0.2,0,0.2,0c0,0.1,0.1,0.1,0.1,0.1s0.1-0.1,0.1,0c0.1,0.1,0,0.1,0.1,0.2c0.1,0,0,0,0.1,0c0.1,0,0.1,0.1,0.2,0.2
			c0,0.1,0.3,0,0.3,0.3c0,0.3,0.1,1.7,1.1,2.2c-0.3,0.2-1,0.5-1.1,2c0,0.2-0.1,0.2-0.1,0.3c0,0.1-0.2,0.3-0.2,0.3l-0.2,0.1
			c0,0,0,0.1,0,0.1c0,0.1-0.2,0-0.2,0l-0.1,0.2l-0.2,0c0,0,0,0.2-0.1,0.2c-0.1,0-0.2,0.1-0.3,0.1c-0.1,0-0.1,0.1-0.1,0.1l-0.2-0.1
			c0,0,0,0.1-0.1,0.2c-0.1,0-0.1,0-0.2,0c-0.1,0-0.1,0.2-0.1,0.2s-0.2,0-0.2,0s0,0.1,0,0.1c-0.1,0-0.2,0-0.3,0.1
			c-0.1,0,0,0.1-0.1,0.2c-0.1,0.1-0.2-0.1-0.2,0c0,0.1-0.3,0.2-0.3,0.2h-0.2c0,0,0,0.1-0.1,0.1c-0.1,0-0.2,0-0.2,0s0,0.2-0.1,0.2
			c-0.1,0-0.2,0-0.2,0l-0.3,0.2c0,0-0.1-0.1-0.1,0c0,0.1-0.1,0.2-0.1,0.2s0-0.1-0.1,0c-0.1,0-0.3,0.2-0.3,0.2s-0.1-0.1-0.1,0
			c-0.1,0,0,0.1-0.1,0.2c-0.1,0-0.2,0-0.2,0c0,0.1,0,0.2-0.1,0.2c-0.1,0-0.2-0.1-0.2,0c0,0.1-0.2,0.2-0.2,0.2s0,0-0.1,0
			c-0.1,0-0.1,0.2-0.2,0.2c-0.1,0-0.2,0-0.2,0l-0.1,0.1c0,0-0.1-0.1-0.1,0c0,0.1-0.1,0.2-0.2,0.2c-0.1,0-0.1,0-0.2,0
			c-0.1,0-0.2,0.1-0.2,0.1l-0.2,0l-0.1,0.2c0,0-0.2,0.1-0.3,0.2"/>
		<path class="st8" d="M512,147l-0.3,0.2c0,0-0.1,0-0.2,0s-0.2,0.3-0.2,0.3s-0.2,0-0.2,0c-0.1,0-0.1,0.2-0.1,0.2l-0.3,0l-0.1,0.3
			l-0.2,0l-0.1,0.1l-0.2,0l-0.1,0.2h-0.2c0,0,0,0.1-0.1,0.1c-0.1,0-0.3,0-0.3,0s0,0.1,0,0.1c-0.1,0-0.3,0.1-0.3,0.1l-0.1,0.2
			c0,0-0.1-0.1-0.1-0.1c0,0.1-0.2,0.2-0.2,0.2s-0.1-0.1-0.2,0c0,0.1-0.1,0.2-0.1,0.2s-0.1,0-0.2,0c-0.1,0-0.2,0.2-0.2,0.2h-0.2
			c0,0-0.1,0.1-0.2,0.2c-0.1,0.1-0.3,0.1-0.3,0.1l-0.1,0.2c0,0,0-0.2-0.1-0.1c-0.1,0.1-0.1,0.2-0.2,0.2c-0.1,0-0.1-0.1-0.3,0
			c-0.1,0.1-0.2,0.2-0.2,0.2s-0.1-0.1-0.2,0c-0.1,0.1-0.2,0.2-0.2,0.2l-0.2,0c0,0,0,0.1-0.1,0.1s-0.3,0-0.3,0.1c0,0.1,0,0.1,0,0.1
			s-0.2,0-0.2,0c0,0.1-0.1,0.1-0.1,0.1s-0.1-0.1-0.1,0c-0.1,0.1,0,0.1-0.1,0.2c-0.1,0,0,0-0.1,0c-0.1,0-0.1,0.1-0.2,0.2
			c0,0.1-0.3,0-0.3,0.3c0,0.3-0.1,1.7-1.1,2.2c0.3,0.2,1,0.5,1.1,2c0,0.2,0.1,0.2,0.1,0.3c0,0.1,0.2,0.3,0.2,0.3l0.2,0.1
			c0,0,0,0.1,0,0.1c0,0.1,0.2,0,0.2,0l0.1,0.2l0.2,0c0,0,0,0.2,0.1,0.2c0.1,0,0.2,0.1,0.3,0.1c0.1,0,0.1,0.1,0.1,0.1l0.2-0.1
			c0,0,0,0.1,0.1,0.2c0.1,0,0.1,0,0.2,0c0.1,0,0.1,0.2,0.1,0.2s0.2,0,0.2,0s0,0.1,0,0.1c0.1,0,0.2,0,0.3,0.1c0.1,0,0,0.1,0.1,0.2
			c0.1,0.1,0.2-0.1,0.2,0c0,0.1,0.3,0.2,0.3,0.2h0.2c0,0,0,0.1,0.1,0.1c0.1,0,0.2,0,0.2,0s0,0.2,0.1,0.2c0.1,0,0.2,0,0.2,0l0.3,0.2
			c0,0,0.1-0.1,0.1,0c0,0.1,0.1,0.2,0.1,0.2s0-0.1,0.1,0c0.1,0,0.3,0.2,0.3,0.2s0.1-0.1,0.1,0c0.1,0,0,0.1,0.1,0.2
			c0.1,0,0.2,0,0.2,0c0,0.1,0,0.2,0.1,0.2c0.1,0,0.2-0.1,0.2,0c0,0.1,0.2,0.2,0.2,0.2s0,0,0.1,0c0.1,0,0.1,0.2,0.2,0.2
			c0.1,0,0.2,0,0.2,0l0.1,0.1c0,0,0.1-0.1,0.1,0c0,0.1,0.1,0.2,0.2,0.2c0.1,0,0.1,0,0.2,0c0.1,0,0.2,0.1,0.2,0.1l0.2,0l0.1,0.2
			c0,0,0.2,0.1,0.3,0.2"/>
		<path class="st8" d="M512,146.8c-0.1,0-0.3,0.2-0.3,0.2c-0.1,0-0.3,0.1-0.4,0.1c-0.1,0-0.2,0.2-0.2,0.2l-0.3,0.1
			c0,0-0.2,0.1-0.3,0.1c-0.1,0-0.2,0.2-0.2,0.2l-0.2,0c0,0-0.1,0.2-0.2,0.2c-0.1,0-0.3,0-0.3,0l-0.2,0.2c0,0-0.2,0-0.2,0.1
			c-0.1,0.1-0.2,0.2-0.2,0.2s-0.1,0-0.2,0c-0.1,0-0.1,0.2-0.2,0.2c-0.1,0-0.3,0.1-0.4,0.1c-0.1,0-0.1,0.1-0.2,0.2
			c-0.1,0.1-0.1,0.1-0.2,0.1c-0.1,0-0.2,0.1-0.3,0.1s-0.3,0-0.3,0.1c0,0.1-0.1,0.2-0.2,0.2c-0.1,0-0.4,0-0.4,0l-0.2,0.1
			c0,0-0.1,0-0.2,0c-0.1,0-0.2,0.1-0.3,0.2c-0.1,0.1-0.4,0.2-0.4,0.2s-0.2,0-0.3,0c-0.1,0,0,0.2-0.1,0.2c-0.1,0-0.3,0.1-0.3,0.1
			h-0.1c0,0-0.2,0-0.2,0c-0.1,0-0.3,0-0.7-0.1c-0.4-0.1-1-0.2-1.5-0.3h-0.2c-0.5,0-1.2,0.1-1.5,0.2c-0.4,0.1-0.6,0.1-0.6,0.1
			c-0.1,0-0.2,0-0.2,0h-0.1c0,0-0.2-0.1-0.3-0.1c-0.1,0-0.1-0.1-0.1-0.2c-0.1,0-0.3,0-0.3,0s-0.3-0.1-0.4-0.2
			c-0.1-0.1-0.2-0.2-0.3-0.2s-0.2,0-0.2,0l-0.2-0.1c0,0-0.2,0-0.4,0c-0.1,0-0.2-0.1-0.2-0.2c0-0.1-0.2-0.1-0.3-0.1s-0.3-0.1-0.3-0.1
			c-0.1,0-0.1,0-0.2-0.1c-0.1-0.1-0.1-0.2-0.2-0.2s-0.3-0.1-0.4-0.1c-0.1,0-0.1-0.2-0.2-0.2c-0.1,0-0.2,0-0.2,0s-0.2-0.1-0.2-0.2
			c-0.1-0.1-0.2-0.1-0.2-0.1l-0.2-0.2c0,0-0.2,0-0.3,0s-0.2-0.2-0.2-0.2l-0.2,0c0,0-0.1-0.2-0.2-0.2c-0.1,0-0.3-0.1-0.3-0.1
			l-0.3-0.1c0,0-0.2-0.1-0.2-0.2c-0.1,0-0.3-0.1-0.4-0.1c-0.1,0-0.3-0.2-0.3-0.2"/>
		<path class="st8" d="M512,160.5c-0.1,0-0.3-0.2-0.3-0.2c-0.1,0-0.3-0.1-0.4-0.1c-0.1,0-0.2-0.2-0.2-0.2l-0.3-0.1
			c0,0-0.2-0.1-0.3-0.1c-0.1,0-0.2-0.2-0.2-0.2l-0.2,0c0,0-0.1-0.2-0.2-0.2c-0.1,0-0.3,0-0.3,0l-0.2-0.2c0,0-0.2,0-0.2-0.1
			c-0.1-0.1-0.2-0.2-0.2-0.2s-0.1,0-0.2,0c-0.1,0-0.1-0.2-0.2-0.2c-0.1,0-0.3-0.1-0.4-0.1c-0.1,0-0.1-0.1-0.2-0.2
			c-0.1-0.1-0.1-0.1-0.2-0.1c-0.1,0-0.2-0.1-0.3-0.1s-0.3,0-0.3-0.1c0-0.1-0.1-0.2-0.2-0.2c-0.1,0-0.4,0-0.4,0l-0.2-0.1
			c0,0-0.1,0-0.2,0c-0.1,0-0.2-0.1-0.3-0.2c-0.1-0.1-0.4-0.2-0.4-0.2s-0.2,0-0.3,0c-0.1,0,0-0.2-0.1-0.2c-0.1,0-0.3-0.1-0.3-0.1
			h-0.1c0,0-0.2,0-0.2,0c-0.1,0-0.3,0-0.7,0.1c-0.4,0.1-1,0.2-1.5,0.3h-0.2c-0.5,0-1.2-0.1-1.5-0.2c-0.4-0.1-0.6-0.1-0.6-0.1
			c-0.1,0-0.2,0-0.2,0h-0.1c0,0-0.2,0.1-0.3,0.1c-0.1,0-0.1,0.1-0.1,0.2c-0.1,0-0.3,0-0.3,0s-0.3,0.1-0.4,0.2
			c-0.1,0.1-0.2,0.2-0.3,0.2s-0.2,0-0.2,0l-0.2,0.1c0,0-0.2,0-0.4,0c-0.1,0-0.2,0.1-0.2,0.2c0,0.1-0.2,0.1-0.3,0.1s-0.3,0.1-0.3,0.1
			c-0.1,0-0.1,0-0.2,0.1c-0.1,0.1-0.1,0.2-0.2,0.2s-0.3,0.1-0.4,0.1c-0.1,0-0.1,0.2-0.2,0.2c-0.1,0-0.2,0-0.2,0s-0.2,0.1-0.2,0.2
			c-0.1,0.1-0.2,0.1-0.2,0.1l-0.2,0.2c0,0-0.2,0-0.3,0s-0.2,0.2-0.2,0.2l-0.2,0c0,0-0.1,0.2-0.2,0.2c-0.1,0-0.3,0.1-0.3,0.1L493,160
			c0,0-0.2,0.1-0.2,0.2c-0.1,0-0.3,0.1-0.4,0.1c-0.1,0-0.3,0.2-0.3,0.2"/>
	</g>
	<g>
		<g>
			<linearGradient id="SVGID_5_" gradientUnits="userSpaceOnUse" x1="456.9143" y1="161.7725" x2="477.4304" y2="161.7725">
				<stop  offset="0.1011" style="stop-color:#646567"/>
				<stop  offset="0.5" style="stop-color:#000000"/>
				<stop  offset="0.8933" style="stop-color:#646567"/>
			</linearGradient>
			<path class="st9" d="M470.3,164.6c-0.4-0.2-0.7-0.7-0.8-1.2c-0.1-0.7-0.5-1.3-0.9-1.6c0.4-0.3,0.9-0.9,0.9-1.6
				c0.1-0.6,0.4-1.1,0.8-1.2c0.4-0.2,7-3.4,7.1-3.9c0-0.2-0.2-0.4-0.4-0.2c-0.2,0.1-6.7,3.3-7.4,3.4c-0.2,0-0.2,0-0.3,0
				s-1.4-0.3-2.1-0.3c-0.7,0-1.8,0.2-2.1,0.3c-0.2,0.1-0.4,0-0.4,0c-0.7,0-7.2-3.2-7.4-3.4c-0.2-0.1-0.4,0-0.4,0.2
				c0.1,0.5,6.7,3.7,7.1,3.9c0.4,0.2,0.7,0.7,0.8,1.2c0.1,0.7,0.5,1.3,0.9,1.6c-0.4,0.3-0.9,0.9-0.9,1.6c-0.1,0.6-0.4,1.1-0.8,1.2
				c-0.4,0.2-7,3.4-7.1,3.9c0,0.2,0.2,0.4,0.4,0.2c0.2-0.1,6.7-3.3,7.4-3.4c0,0,0.1-0.1,0.4,0c0.3,0.1,1.4,0.3,2.1,0.3
				c0.7,0,2-0.3,2.1-0.3s0.2,0,0.3,0c0.7,0.1,7.2,3.2,7.4,3.4c0.2,0.1,0.4,0,0.4-0.2C477.3,168,470.7,164.8,470.3,164.6z"/>
		</g>
		<radialGradient id="SVGID_6_" cx="467.3645" cy="159.9878" r="1.6386" gradientUnits="userSpaceOnUse">
			<stop  offset="0.118" style="stop-color:#5D5D5F"/>
			<stop  offset="1" style="stop-color:#000000"/>
		</radialGradient>
		<path class="st10" d="M466.1,158.8c0.3-0.2,0.8-0.7,1.2-0.4c0.3,0.3,0.9,0.4,1.1,0.6c0.2,0.1,0.5,0.2,0.6,0.6
			c0.1,0.4,0,0.9-0.2,1.1c-0.2,0.2-0.5,0.8-0.7,0.9c-0.2,0.1-0.5,0.1-0.8-0.3c-0.3-0.4-0.6-0.4-0.8-0.5c-0.2-0.2-0.7,0.1-0.6-0.3
			c0-0.4,0-0.4,0.2-0.6c0.1-0.2,0.4-0.4,0.2-0.5C466,159.3,465.9,158.9,466.1,158.8z"/>
		
			<radialGradient id="SVGID_7_" cx="442.3922" cy="166.305" r="1.6388" gradientTransform="matrix(0.8948 0.4464 0.4464 -0.8948 -3.0125 115.0269)" gradientUnits="userSpaceOnUse">
			<stop  offset="0.118" style="stop-color:#5D5D5F"/>
			<stop  offset="1" style="stop-color:#000000"/>
		</radialGradient>
		<path class="st11" d="M465.4,164.2c0.2,0.4,0.4,1,0.9,0.9c0.4-0.1,1,0,1.2,0c0.2,0,0.6,0,0.8-0.3c0.3-0.3,0.4-0.8,0.3-1.1
			c-0.1-0.3-0.1-0.9-0.2-1.1c-0.1-0.2-0.4-0.3-0.9-0.1c-0.4,0.2-0.7,0.1-0.9,0.1c-0.2,0.1-0.5-0.4-0.7,0c-0.2,0.4-0.1,0.4-0.1,0.6
			c0,0.2,0.2,0.5-0.1,0.5C465.5,163.7,465.3,164,465.4,164.2z"/>
		<path class="st8" d="M457.2,155.1l0.3,0.2c0,0,0.1,0,0.2,0c0.1,0,0.2,0.3,0.2,0.3s0.2,0,0.2,0c0.1,0,0.1,0.2,0.1,0.2l0.3,0
			l0.1,0.3l0.2,0l0.1,0.1l0.2,0l0.1,0.2h0.2c0,0,0,0.1,0.1,0.1c0.1,0,0.3,0,0.3,0s0,0.1,0,0.1c0.1,0,0.3,0.1,0.3,0.1l0.1,0.2
			c0,0,0.1-0.1,0.1-0.1c0,0.1,0.2,0.2,0.2,0.2s0.1-0.1,0.2,0c0,0.1,0.1,0.2,0.1,0.2s0.1,0,0.2,0c0.1,0,0.2,0.2,0.2,0.2h0.2
			c0,0,0.1,0.1,0.2,0.2c0.1,0.1,0.3,0.1,0.3,0.1l0.1,0.2c0,0,0-0.2,0.1-0.1c0.1,0.1,0.1,0.2,0.2,0.2c0.1,0,0.1-0.1,0.3,0
			c0.1,0.1,0.2,0.2,0.2,0.2s0.1-0.1,0.2,0c0.1,0.1,0.2,0.2,0.2,0.2l0.2,0c0,0,0,0.1,0.1,0.1c0.1,0,0.3,0,0.3,0.1c0,0.1,0,0.1,0,0.1
			s0.2,0,0.2,0c0,0.1,0.1,0.1,0.1,0.1s0.1-0.1,0.1,0c0.1,0.1,0,0.1,0.1,0.2c0.1,0,0,0,0.1,0c0.1,0,0.1,0.1,0.2,0.2
			c0,0.1,0.3,0,0.3,0.3c0,0.3,0.1,1.7,1.1,2.2c-0.3,0.2-1,0.5-1.1,2c0,0.2-0.1,0.2-0.1,0.3s-0.2,0.3-0.2,0.3l-0.2,0.1
			c0,0,0,0.1,0,0.1c0,0.1-0.2,0-0.2,0l-0.1,0.2l-0.2,0c0,0,0,0.2-0.1,0.2c-0.1,0-0.2,0.1-0.3,0.1c-0.1,0-0.1,0.1-0.1,0.1l-0.2-0.1
			c0,0,0,0.1-0.1,0.2c-0.1,0-0.1,0-0.2,0c-0.1,0-0.1,0.2-0.1,0.2s-0.2,0-0.2,0c0,0.1,0,0.1,0,0.1c-0.1,0-0.2,0-0.3,0.1
			c-0.1,0,0,0.1-0.1,0.2c-0.1,0.1-0.2-0.1-0.2,0c0,0.1-0.3,0.2-0.3,0.2h-0.2c0,0,0,0.1-0.1,0.1c-0.1,0-0.2,0-0.2,0s0,0.2-0.1,0.2
			c-0.1,0-0.2,0-0.2,0l-0.3,0.2c0,0-0.1-0.1-0.1,0c0,0.1-0.1,0.2-0.1,0.2s0-0.1-0.1,0c-0.1,0-0.3,0.2-0.3,0.2s-0.1-0.1-0.1,0
			c-0.1,0,0,0.1-0.1,0.2c-0.1,0-0.2,0-0.2,0s0,0.2-0.1,0.2c-0.1,0-0.2-0.1-0.2,0c0,0.1-0.2,0.2-0.2,0.2s0,0-0.1,0
			c-0.1,0-0.1,0.2-0.2,0.2c-0.1,0-0.2,0-0.2,0l-0.1,0.1c0,0-0.1-0.1-0.1,0c0,0.1-0.1,0.2-0.2,0.2c-0.1,0-0.1,0-0.2,0
			c-0.1,0-0.2,0.1-0.2,0.1l-0.2,0l-0.1,0.2c0,0-0.2,0.1-0.3,0.2"/>
		<path class="st8" d="M477.1,155.1l-0.3,0.2c0,0-0.1,0-0.2,0c-0.1,0-0.2,0.3-0.2,0.3s-0.2,0-0.2,0c-0.1,0-0.1,0.2-0.1,0.2l-0.3,0
			l-0.1,0.3l-0.2,0l-0.1,0.1l-0.2,0l-0.1,0.2h-0.2c0,0,0,0.1-0.1,0.1c-0.1,0-0.3,0-0.3,0s0,0.1,0,0.1c-0.1,0-0.3,0.1-0.3,0.1
			l-0.1,0.2c0,0-0.1-0.1-0.1-0.1c0,0.1-0.2,0.2-0.2,0.2s-0.1-0.1-0.2,0c0,0.1-0.1,0.2-0.1,0.2s-0.1,0-0.2,0c-0.1,0-0.2,0.2-0.2,0.2
			h-0.2c0,0-0.1,0.1-0.2,0.2c-0.1,0.1-0.3,0.1-0.3,0.1l-0.1,0.2c0,0,0-0.2-0.1-0.1c-0.1,0.1-0.1,0.2-0.2,0.2c-0.1,0-0.1-0.1-0.3,0
			c-0.1,0.1-0.2,0.2-0.2,0.2s-0.1-0.1-0.2,0c-0.1,0.1-0.2,0.2-0.2,0.2l-0.2,0c0,0,0,0.1-0.1,0.1c-0.1,0-0.3,0-0.3,0.1
			c0,0.1,0,0.1,0,0.1s-0.2,0-0.2,0c0,0.1-0.1,0.1-0.1,0.1s-0.1-0.1-0.1,0c-0.1,0.1,0,0.1-0.1,0.2c-0.1,0,0,0-0.1,0
			c-0.1,0-0.1,0.1-0.2,0.2c0,0.1-0.3,0-0.3,0.3c0,0.3-0.1,1.7-1.1,2.2c0.3,0.2,1,0.5,1.1,2c0,0.2,0.1,0.2,0.1,0.3s0.2,0.3,0.2,0.3
			l0.2,0.1c0,0,0,0.1,0,0.1c0,0.1,0.2,0,0.2,0l0.1,0.2l0.2,0c0,0,0,0.2,0.1,0.2c0.1,0,0.2,0.1,0.3,0.1c0.1,0,0.1,0.1,0.1,0.1
			l0.2-0.1c0,0,0,0.1,0.1,0.2c0.1,0,0.1,0,0.2,0c0.1,0,0.1,0.2,0.1,0.2s0.2,0,0.2,0c0,0.1,0,0.1,0,0.1c0.1,0,0.2,0,0.3,0.1
			c0.1,0,0,0.1,0.1,0.2c0.1,0.1,0.2-0.1,0.2,0c0,0.1,0.3,0.2,0.3,0.2h0.2c0,0,0,0.1,0.1,0.1c0.1,0,0.2,0,0.2,0s0,0.2,0.1,0.2
			c0.1,0,0.2,0,0.2,0l0.3,0.2c0,0,0.1-0.1,0.1,0c0,0.1,0.1,0.2,0.1,0.2s0-0.1,0.1,0c0.1,0,0.3,0.2,0.3,0.2s0.1-0.1,0.1,0
			c0.1,0,0,0.1,0.1,0.2c0.1,0,0.2,0,0.2,0s0,0.2,0.1,0.2c0.1,0,0.2-0.1,0.2,0c0,0.1,0.2,0.2,0.2,0.2s0,0,0.1,0
			c0.1,0,0.1,0.2,0.2,0.2c0.1,0,0.2,0,0.2,0l0.1,0.1c0,0,0.1-0.1,0.1,0c0,0.1,0.1,0.2,0.2,0.2c0.1,0,0.1,0,0.2,0
			c0.1,0,0.2,0.1,0.2,0.1l0.2,0l0.1,0.2c0,0,0.2,0.1,0.3,0.2"/>
		<path class="st8" d="M477.1,154.9c-0.1,0-0.3,0.2-0.3,0.2c-0.1,0-0.3,0.1-0.4,0.1c-0.1,0-0.2,0.2-0.2,0.2l-0.3,0.1
			c0,0-0.2,0.1-0.3,0.1c-0.1,0-0.2,0.2-0.2,0.2l-0.2,0c0,0-0.1,0.2-0.2,0.2c-0.1,0-0.3,0-0.3,0l-0.2,0.2c0,0-0.2,0-0.2,0.1
			c-0.1,0.1-0.2,0.2-0.2,0.2s-0.1,0-0.2,0c-0.1,0-0.1,0.2-0.2,0.2c-0.1,0-0.3,0.1-0.4,0.1c-0.1,0-0.1,0.1-0.2,0.2
			c-0.1,0.1-0.1,0.1-0.2,0.1c-0.1,0-0.2,0.1-0.3,0.1s-0.3,0-0.3,0.1c0,0.1-0.1,0.2-0.2,0.2c-0.1,0-0.4,0-0.4,0l-0.2,0.1
			c0,0-0.1,0-0.2,0c-0.1,0-0.2,0.1-0.3,0.2c-0.1,0.1-0.4,0.2-0.4,0.2s-0.2,0-0.3,0c-0.1,0,0,0.2-0.1,0.2c-0.1,0-0.3,0.1-0.3,0.1
			h-0.1c0,0-0.2,0-0.2,0c-0.1,0-0.3,0-0.7-0.1c-0.4-0.1-1-0.2-1.5-0.3h-0.2c-0.5,0-1.2,0.1-1.5,0.2c-0.4,0.1-0.6,0.1-0.6,0.1
			c-0.1,0-0.2,0-0.2,0h-0.1c0,0-0.2-0.1-0.3-0.1c-0.1,0-0.1-0.1-0.1-0.2c-0.1,0-0.3,0-0.3,0s-0.3-0.1-0.4-0.2
			c-0.1-0.1-0.2-0.2-0.3-0.2c-0.1,0-0.2,0-0.2,0l-0.2-0.1c0,0-0.2,0-0.4,0c-0.1,0-0.2-0.1-0.2-0.2c0-0.1-0.2-0.1-0.3-0.1
			s-0.3-0.1-0.3-0.1c-0.1,0-0.1,0-0.2-0.1c-0.1-0.1-0.1-0.2-0.2-0.2s-0.3-0.1-0.4-0.1c-0.1,0-0.1-0.2-0.2-0.2c-0.1,0-0.2,0-0.2,0
			s-0.2-0.1-0.2-0.2c-0.1-0.1-0.2-0.1-0.2-0.1l-0.2-0.2c0,0-0.2,0-0.3,0c-0.1,0-0.2-0.2-0.2-0.2l-0.2,0c0,0-0.1-0.2-0.2-0.2
			c-0.1,0-0.3-0.1-0.3-0.1l-0.3-0.1c0,0-0.2-0.1-0.2-0.2c-0.1,0-0.3-0.1-0.4-0.1c-0.1,0-0.3-0.2-0.3-0.2"/>
		<path class="st8" d="M477.1,168.6c-0.1,0-0.3-0.2-0.3-0.2c-0.1,0-0.3-0.1-0.4-0.1c-0.1,0-0.2-0.2-0.2-0.2l-0.3-0.1
			c0,0-0.2-0.1-0.3-0.1c-0.1,0-0.2-0.2-0.2-0.2l-0.2,0c0,0-0.1-0.2-0.2-0.2c-0.1,0-0.3,0-0.3,0l-0.2-0.2c0,0-0.2,0-0.2-0.1
			c-0.1-0.1-0.2-0.2-0.2-0.2s-0.1,0-0.2,0c-0.1,0-0.1-0.2-0.2-0.2c-0.1,0-0.3-0.1-0.4-0.1c-0.1,0-0.1-0.1-0.2-0.2
			c-0.1-0.1-0.1-0.1-0.2-0.1c-0.1,0-0.2-0.1-0.3-0.1s-0.3,0-0.3-0.1c0-0.1-0.1-0.2-0.2-0.2c-0.1,0-0.4,0-0.4,0l-0.2-0.1
			c0,0-0.1,0-0.2,0c-0.1,0-0.2-0.1-0.3-0.2c-0.1-0.1-0.4-0.2-0.4-0.2s-0.2,0-0.3,0c-0.1,0,0-0.2-0.1-0.2c-0.1,0-0.3-0.1-0.3-0.1
			h-0.1c0,0-0.2,0-0.2,0c-0.1,0-0.3,0-0.7,0.1c-0.4,0.1-1,0.2-1.5,0.3h-0.2c-0.5,0-1.2-0.1-1.5-0.2c-0.4-0.1-0.6-0.1-0.6-0.1
			c-0.1,0-0.2,0-0.2,0h-0.1c0,0-0.2,0.1-0.3,0.1c-0.1,0-0.1,0.1-0.1,0.2c-0.1,0-0.3,0-0.3,0s-0.3,0.1-0.4,0.2
			c-0.1,0.1-0.2,0.2-0.3,0.2c-0.1,0-0.2,0-0.2,0l-0.2,0.1c0,0-0.2,0-0.4,0c-0.1,0-0.2,0.1-0.2,0.2c0,0.1-0.2,0.1-0.3,0.1
			s-0.3,0.1-0.3,0.1c-0.1,0-0.1,0-0.2,0.1c-0.1,0.1-0.1,0.2-0.2,0.2s-0.3,0.1-0.4,0.1c-0.1,0-0.1,0.2-0.2,0.2c-0.1,0-0.2,0-0.2,0
			s-0.2,0.1-0.2,0.2c-0.1,0.1-0.2,0.1-0.2,0.1l-0.2,0.2c0,0-0.2,0-0.3,0c-0.1,0-0.2,0.2-0.2,0.2l-0.2,0c0,0-0.1,0.2-0.2,0.2
			c-0.1,0-0.3,0.1-0.3,0.1l-0.3,0.1c0,0-0.2,0.1-0.2,0.2c-0.1,0-0.3,0.1-0.4,0.1c-0.1,0-0.3,0.2-0.3,0.2"/>
	</g>
</g>
<g id="Lag_6">
	<line class="st12" x1="395.7" y1="169.8" x2="395.7" y2="194.7"/>
</g>
<g id="txt">
	<text transform="matrix(1 0 0 1 33.0996 59.6279)" class="st13 st14">Konsument (sekundær)</text>
	<text transform="matrix(1 0 0 1 33.0996 107.5596)" class="st15 st13 st14">Konsument (primær)</text>
	<text transform="matrix(1 0 0 1 33.0996 158.8389)" class="st15 st13 st14">Producent (primær)</text>
	<text transform="matrix(1 0 0 1 389.7578 205.2119)" class="st15 st13 st14">Hg</text>
</g>
</svg>
